<svg xmlns="http://www.w3.org/2000/svg" xmlns:svg="http://www.w3.org/2000/svg" id="Layer_1" width="240" height="240" enable-background="new 0 0 471.822 471.822" version="1.1" viewBox="0 0 221.167 221.167"><metadata id="metadata31"/><g id="g868" transform="matrix(0.39062437,0,0,0.39062437,18.430548,18.430695)"><circle id="circle2" cx="216.666" cy="235.911" r="216.666" fill="#f1fafc"/><path id="path4" fill="#caf2fc" d="m 216.666,235.911 v 216.666 c 6.502,-3.981 121.405,-77.168 121.405,-216.666 z"/><path id="path6" fill="#d6f4fc" d="M 216.666,19.245 V 235.911 H 338.071 C 338.072,96.413 223.168,23.226 216.666,19.245 Z"/><path id="path8" fill="#bdeffc" d="m 216.666,19.245 c 6.502,3.981 121.405,77.168 121.405,216.666 h 95.261 C 433.333,116.251 336.326,19.245 216.666,19.245 Z"/><path id="path10" fill="#b0edfc" d="m 338.072,235.911 c 0,139.498 -114.904,212.685 -121.405,216.666 119.66,0 216.666,-97.007 216.666,-216.666 z"/><path id="path12" fill="#dbf5fc" d="M 216.666,235.911 V 452.577 C 210.164,448.596 95.261,375.409 95.261,235.911 Z"/><path id="path14" fill="#e8f8fc" d="M 216.666,19.245 V 235.911 H 95.261 C 95.261,96.413 210.165,23.226 216.666,19.245 Z"/><path id="path16" fill="#e5f8fc" d="m 95.261,235.911 c 0,139.498 114.904,212.685 121.405,216.666 C 97.007,452.577 0,355.571 0,235.911 Z"/><g id="g24" fill="#9fe2f5"><path id="path18" d="m 413.616,165.811 c -5.813,5.833 -15.356,5.874 -21.21,0 -5.866,-5.845 -5.877,-15.354 0,-21.21 7.581,-7.581 20.342,-4.992 24.47,4.86 2.212,5.38 1.211,11.879 -3.26,16.35 z"/><path id="path20" d="m 428.467,129.751 c -14.069,-14.069 -36.84,-14.072 -50.911,-0.001 -3.125,3.125 -8.19,3.124 -11.314,0.001 -3.124,-3.124 -3.125,-8.189 0,-11.313 20.321,-20.323 53.214,-20.326 73.539,-0.001 3.125,3.125 3.124,8.19 0,11.314 -3.126,3.124 -8.19,3.123 -11.314,0 z"/><path id="path22" d="m 458.165,100.052 c -30.482,-30.484 -79.822,-30.489 -110.309,0 -3.124,3.123 -8.189,3.123 -11.313,0 -3.125,-3.124 -3.125,-8.189 0,-11.314 36.738,-36.738 96.196,-36.739 132.936,0 3.125,3.125 3.125,8.189 0,11.314 -3.125,3.124 -8.189,3.124 -11.314,0 z"/></g></g></svg>