<?xml version="1.0" encoding="utf-8" standalone="no"?>
<!DOCTYPE svg PUBLIC "-//W3C//DTD SVG 1.1//EN"
  "http://www.w3.org/Graphics/SVG/1.1/DTD/svg11.dtd">
<svg xmlns:xlink="http://www.w3.org/1999/xlink" width="419.660625pt" height="325.720125pt" viewBox="0 0 419.660625 325.720125" xmlns="http://www.w3.org/2000/svg" version="1.1">
 <metadata>
  <rdf:RDF xmlns:dc="http://purl.org/dc/elements/1.1/" xmlns:cc="http://creativecommons.org/ns#" xmlns:rdf="http://www.w3.org/1999/02/22-rdf-syntax-ns#">
   <cc:Work>
    <dc:type rdf:resource="http://purl.org/dc/dcmitype/StillImage"/>
    <dc:date>2023-03-02T17:22:34.034946</dc:date>
    <dc:format>image/svg+xml</dc:format>
    <dc:creator>
     <cc:Agent>
      <dc:title>Matplotlib v3.5.2, https://matplotlib.org/</dc:title>
     </cc:Agent>
    </dc:creator>
   </cc:Work>
  </rdf:RDF>
 </metadata>
 <defs>
  <style type="text/css">*{stroke-linejoin: round; stroke-linecap: butt}</style>
 </defs>
 <g id="figure_1">
  <g id="patch_1">
   <path d="M 0 325.720125 
L 419.660625 325.720125 
L 419.660625 0 
L 0 0 
z
" style="fill: #ffffff"/>
  </g>
  <g id="axes_1">
   <g id="patch_2">
    <path d="M 48.390625 287.901375 
L 405.510625 287.901375 
L 405.510625 21.789375 
L 48.390625 21.789375 
z
" style="fill: #ffffff"/>
   </g>
   <g id="PathCollection_1">
    <defs>
     <path id="m6a5310fecb" d="M 0 3 
C 0.795609 3 1.55874 2.683901 2.12132 2.12132 
C 2.683901 1.55874 3 0.795609 3 0 
C 3 -0.795609 2.683901 -1.55874 2.12132 -2.12132 
C 1.55874 -2.683901 0.795609 -3 0 -3 
C -0.795609 -3 -1.55874 -2.683901 -2.12132 -2.12132 
C -2.683901 -1.55874 -3 -0.795609 -3 0 
C -3 0.795609 -2.683901 1.55874 -2.12132 2.12132 
C -1.55874 2.683901 -0.795609 3 0 3 
z
" style="stroke: #1f77b4"/>
    </defs>
    <g clip-path="url(#pe6edf457d5)">
     <use xlink:href="#m6a5310fecb" x="300.060551" y="152.853143" style="fill: #1f77b4; stroke: #1f77b4"/>
     <use xlink:href="#m6a5310fecb" x="242.263086" y="197.829706" style="fill: #1f77b4; stroke: #1f77b4"/>
     <use xlink:href="#m6a5310fecb" x="180.572487" y="259.065063" style="fill: #1f77b4; stroke: #1f77b4"/>
     <use xlink:href="#m6a5310fecb" x="191.815787" y="56.526899" style="fill: #1f77b4; stroke: #1f77b4"/>
     <use xlink:href="#m6a5310fecb" x="131.403938" y="248.558715" style="fill: #1f77b4; stroke: #1f77b4"/>
    </g>
   </g>
   <g id="matplotlib.axis_1">
    <g id="xtick_1">
     <g id="line2d_1">
      <defs>
       <path id="m8d1b852954" d="M 0 0 
L 0 3.5 
" style="stroke: #000000; stroke-width: 0.8"/>
      </defs>
      <g>
       <use xlink:href="#m8d1b852954" x="48.390625" y="287.901375" style="stroke: #000000; stroke-width: 0.8"/>
      </g>
     </g>
     <g id="text_1">
      <!-- −1.5 -->
      <g transform="translate(38.520313 302.059187)scale(0.1 -0.1)">
       <defs>
        <path id="ArialUnicodeMS-2212" d="M 3384 1997 
L 353 1997 
L 353 2522 
L 3384 2522 
L 3384 1997 
z
" transform="scale(0.015625)"/>
        <path id="ArialUnicodeMS-31" d="M 2400 0 
L 1838 0 
L 1838 3584 
Q 1416 3184 709 2906 
L 709 3450 
Q 1681 3916 2034 4603 
L 2400 4603 
L 2400 0 
z
" transform="scale(0.015625)"/>
        <path id="ArialUnicodeMS-2e" d="M 1209 0 
L 569 0 
L 569 641 
L 1209 641 
L 1209 0 
z
" transform="scale(0.015625)"/>
        <path id="ArialUnicodeMS-35" d="M 1013 2753 
Q 1431 3041 1881 3041 
Q 2453 3041 2878 2636 
Q 3303 2231 3303 1556 
Q 3303 875 2872 398 
Q 2441 -78 1741 -78 
Q 1169 -78 750 245 
Q 331 569 269 1203 
L 856 1247 
Q 928 813 1162 598 
Q 1397 384 1741 384 
Q 2169 384 2434 707 
Q 2700 1031 2700 1503 
Q 2700 1984 2428 2262 
Q 2156 2541 1728 2541 
Q 1188 2541 897 2100 
L 366 2163 
L 813 4519 
L 3084 4519 
L 3084 3975 
L 1259 3975 
L 1013 2753 
z
" transform="scale(0.015625)"/>
       </defs>
       <use xlink:href="#ArialUnicodeMS-2212"/>
       <use xlink:href="#ArialUnicodeMS-31" x="58.398438"/>
       <use xlink:href="#ArialUnicodeMS-2e" x="114.013672"/>
       <use xlink:href="#ArialUnicodeMS-35" x="141.796875"/>
      </g>
     </g>
    </g>
    <g id="xtick_2">
     <g id="line2d_2">
      <g>
       <use xlink:href="#m8d1b852954" x="107.910625" y="287.901375" style="stroke: #000000; stroke-width: 0.8"/>
      </g>
     </g>
     <g id="text_2">
      <!-- −1.0 -->
      <g transform="translate(98.040313 302.059187)scale(0.1 -0.1)">
       <defs>
        <path id="ArialUnicodeMS-30" d="M 1778 4603 
Q 3272 4603 3272 2259 
Q 3272 1075 2886 498 
Q 2500 -78 1778 -78 
Q 288 -78 288 2259 
Q 288 3444 673 4023 
Q 1059 4603 1778 4603 
z
M 1778 384 
Q 2231 384 2462 823 
Q 2694 1263 2694 2259 
Q 2694 2953 2592 3351 
Q 2491 3750 2286 3945 
Q 2081 4141 1772 4141 
Q 1319 4141 1091 3694 
Q 863 3247 863 2259 
Q 863 1575 966 1175 
Q 1069 775 1272 579 
Q 1475 384 1778 384 
z
" transform="scale(0.015625)"/>
       </defs>
       <use xlink:href="#ArialUnicodeMS-2212"/>
       <use xlink:href="#ArialUnicodeMS-31" x="58.398438"/>
       <use xlink:href="#ArialUnicodeMS-2e" x="114.013672"/>
       <use xlink:href="#ArialUnicodeMS-30" x="141.796875"/>
      </g>
     </g>
    </g>
    <g id="xtick_3">
     <g id="line2d_3">
      <g>
       <use xlink:href="#m8d1b852954" x="167.430625" y="287.901375" style="stroke: #000000; stroke-width: 0.8"/>
      </g>
     </g>
     <g id="text_3">
      <!-- −0.5 -->
      <g transform="translate(157.560313 302.059187)scale(0.1 -0.1)">
       <use xlink:href="#ArialUnicodeMS-2212"/>
       <use xlink:href="#ArialUnicodeMS-30" x="58.398438"/>
       <use xlink:href="#ArialUnicodeMS-2e" x="114.013672"/>
       <use xlink:href="#ArialUnicodeMS-35" x="141.796875"/>
      </g>
     </g>
    </g>
    <g id="xtick_4">
     <g id="line2d_4">
      <g>
       <use xlink:href="#m8d1b852954" x="226.950625" y="287.901375" style="stroke: #000000; stroke-width: 0.8"/>
      </g>
     </g>
     <g id="text_4">
      <!-- 0.0 -->
      <g transform="translate(220.000625 302.059187)scale(0.1 -0.1)">
       <use xlink:href="#ArialUnicodeMS-30"/>
       <use xlink:href="#ArialUnicodeMS-2e" x="55.615234"/>
       <use xlink:href="#ArialUnicodeMS-30" x="83.398438"/>
      </g>
     </g>
    </g>
    <g id="xtick_5">
     <g id="line2d_5">
      <g>
       <use xlink:href="#m8d1b852954" x="286.470625" y="287.901375" style="stroke: #000000; stroke-width: 0.8"/>
      </g>
     </g>
     <g id="text_5">
      <!-- 0.5 -->
      <g transform="translate(279.520625 302.059187)scale(0.1 -0.1)">
       <use xlink:href="#ArialUnicodeMS-30"/>
       <use xlink:href="#ArialUnicodeMS-2e" x="55.615234"/>
       <use xlink:href="#ArialUnicodeMS-35" x="83.398438"/>
      </g>
     </g>
    </g>
    <g id="xtick_6">
     <g id="line2d_6">
      <g>
       <use xlink:href="#m8d1b852954" x="345.990625" y="287.901375" style="stroke: #000000; stroke-width: 0.8"/>
      </g>
     </g>
     <g id="text_6">
      <!-- 1.0 -->
      <g transform="translate(339.040625 302.059187)scale(0.1 -0.1)">
       <use xlink:href="#ArialUnicodeMS-31"/>
       <use xlink:href="#ArialUnicodeMS-2e" x="55.615234"/>
       <use xlink:href="#ArialUnicodeMS-30" x="83.398438"/>
      </g>
     </g>
    </g>
    <g id="xtick_7">
     <g id="line2d_7">
      <g>
       <use xlink:href="#m8d1b852954" x="405.510625" y="287.901375" style="stroke: #000000; stroke-width: 0.8"/>
      </g>
     </g>
     <g id="text_7">
      <!-- 1.5 -->
      <g transform="translate(398.560625 302.059187)scale(0.1 -0.1)">
       <use xlink:href="#ArialUnicodeMS-31"/>
       <use xlink:href="#ArialUnicodeMS-2e" x="55.615234"/>
       <use xlink:href="#ArialUnicodeMS-35" x="83.398438"/>
      </g>
     </g>
    </g>
    <g id="text_8">
     <!-- 性别(男右女左) -->
     <g transform="translate(193.620937 316.420125)scale(0.1 -0.1)">
      <defs>
       <path id="ArialUnicodeMS-6027" d="M 6088 6 
L 2322 6 
L 2322 475 
L 3928 475 
L 3928 1778 
L 2669 1778 
L 2669 2247 
L 3928 2247 
L 3928 3463 
L 3169 3463 
Q 2978 2881 2606 2375 
L 2113 2597 
Q 2363 2838 2438 3003 
L 2203 2900 
Q 2078 3494 1766 3866 
L 1766 -434 
L 1281 -434 
L 1281 5281 
L 1766 5281 
L 1766 3928 
L 2138 4128 
Q 2413 3813 2597 3347 
Q 2844 3763 2894 4775 
L 3378 4647 
Q 3363 4338 3291 3928 
L 3928 3928 
L 3928 5294 
L 4416 5294 
L 4416 3928 
L 5759 3928 
L 5759 3463 
L 4416 3463 
L 4416 2247 
L 5569 2247 
L 5569 1778 
L 4416 1778 
L 4416 475 
L 6088 475 
L 6088 6 
z
M 1241 3897 
Q 1175 2956 763 2344 
L 347 2528 
Q 819 3406 819 4025 
L 1241 3897 
z
" transform="scale(0.015625)"/>
       <path id="ArialUnicodeMS-522b" d="M 5650 116 
Q 5650 -103 5517 -256 
Q 5384 -409 5166 -409 
L 4409 -409 
L 4184 91 
Q 4588 69 4744 69 
Q 5016 69 5091 105 
Q 5166 141 5166 294 
L 5166 5253 
L 5650 5253 
L 5650 116 
z
M 3450 3041 
L 884 3041 
L 884 5006 
L 3450 5006 
L 3450 3041 
z
M 2963 3506 
L 2963 4538 
L 1369 4538 
L 1369 3506 
L 2963 3506 
z
M 4616 909 
L 4109 909 
L 4109 4641 
L 4616 4641 
L 4616 909 
z
M 3634 2316 
Q 3606 1238 3467 466 
Q 3328 -306 2572 -306 
Q 2300 -306 1959 -206 
L 1844 341 
L 2400 197 
Q 2488 178 2563 178 
Q 2778 178 2868 331 
Q 2959 484 3020 865 
Q 3081 1247 3097 1831 
L 2125 1831 
Q 2059 1184 1715 510 
Q 1372 -163 844 -447 
L 447 -78 
Q 1419 456 1613 1831 
L 581 1831 
L 581 2316 
L 1691 2316 
Q 1731 2569 1722 2981 
L 2216 2919 
Q 2197 2484 2169 2316 
L 3634 2316 
z
" transform="scale(0.015625)"/>
       <path id="ArialUnicodeMS-28" d="M 1900 -1344 
L 1497 -1344 
Q 978 -681 681 103 
Q 384 888 384 1656 
Q 384 2528 700 3275 
Q 1016 4022 1497 4659 
L 1900 4659 
Q 1344 3747 1155 3059 
Q 966 2372 966 1663 
Q 966 153 1900 -1344 
z
" transform="scale(0.015625)"/>
       <path id="ArialUnicodeMS-7537" d="M 5434 2491 
L 1300 2491 
L 1300 5013 
L 5434 5013 
L 5434 2491 
z
M 4897 3988 
L 4897 4544 
L 3597 4544 
L 3597 3988 
L 4897 3988 
z
M 3091 3988 
L 3091 4544 
L 1806 4544 
L 1806 3988 
L 3091 3988 
z
M 4897 2956 
L 4897 3519 
L 3597 3519 
L 3597 2956 
L 4897 2956 
z
M 3091 2956 
L 3091 3519 
L 1806 3519 
L 1806 2956 
L 3091 2956 
z
M 5691 1900 
Q 5644 1400 5489 725 
Q 5334 50 5123 -84 
Q 4913 -219 4550 -219 
Q 4341 -219 3634 -147 
L 3463 422 
Q 4241 288 4663 288 
Q 4803 288 4881 430 
Q 4959 572 5026 912 
Q 5094 1253 5094 1434 
L 3413 1434 
Q 3172 638 2562 195 
Q 1953 -247 794 -397 
L 544 78 
Q 1606 191 2132 522 
Q 2659 853 2875 1434 
L 1006 1434 
L 1006 1900 
L 3003 1900 
L 3066 2425 
L 3559 2363 
Q 3541 2094 3500 1900 
L 5691 1900 
z
" transform="scale(0.015625)"/>
       <path id="ArialUnicodeMS-5de6" d="M 5919 -91 
L 1141 -91 
L 1141 378 
L 3341 378 
L 3341 2138 
L 2041 2138 
Q 1556 1203 788 475 
L 353 794 
Q 1747 2006 2094 3769 
L 641 3769 
L 641 4238 
L 2203 4238 
Q 2350 5069 2369 5241 
L 2841 5113 
Q 2813 4791 2706 4238 
L 5919 4238 
L 5919 3769 
L 2597 3769 
Q 2397 2944 2259 2606 
L 5509 2606 
L 5509 2138 
L 3828 2138 
L 3828 378 
L 5919 378 
L 5919 -91 
z
" transform="scale(0.015625)"/>
       <path id="ArialUnicodeMS-5973" d="M 5831 166 
L 5522 -275 
Q 4650 394 3406 831 
Q 2425 -22 838 -341 
L 550 134 
Q 2050 431 2853 1044 
Q 2159 1281 1306 1472 
Q 1775 2288 2228 3341 
L 838 3341 
L 838 3828 
L 2425 3828 
Q 2759 4572 3009 5350 
L 3488 5141 
L 2975 3828 
L 5791 3828 
L 5791 3341 
L 4934 3341 
Q 4425 1913 3788 1234 
Q 5191 697 5831 166 
z
M 4359 3341 
L 2778 3341 
Q 2603 2919 2047 1772 
Q 3213 1444 3284 1422 
Q 3925 2044 4359 3341 
z
" transform="scale(0.015625)"/>
       <path id="ArialUnicodeMS-53f3" d="M 5869 3744 
L 2900 3744 
Q 2700 3094 2375 2559 
L 5325 2559 
L 5325 -397 
L 4838 -397 
L 4838 25 
L 2478 25 
L 2478 -397 
L 1991 -397 
L 1991 1997 
Q 1528 1397 819 916 
L 441 1275 
Q 1913 2266 2375 3744 
L 781 3744 
L 781 4213 
L 2516 4213 
Q 2631 4609 2725 5356 
L 3225 5216 
Q 3084 4425 3034 4213 
L 5869 4213 
L 5869 3744 
z
M 4838 494 
L 4838 2094 
L 2478 2094 
L 2478 494 
L 4838 494 
z
" transform="scale(0.015625)"/>
       <path id="ArialUnicodeMS-29" d="M 634 4659 
Q 1153 3997 1450 3212 
Q 1747 2428 1747 1656 
Q 1747 788 1431 41 
Q 1116 -706 634 -1344 
L 231 -1344 
Q 788 -431 977 255 
Q 1166 941 1166 1650 
Q 1166 3163 231 4659 
L 634 4659 
z
" transform="scale(0.015625)"/>
      </defs>
      <use xlink:href="#ArialUnicodeMS-6027"/>
      <use xlink:href="#ArialUnicodeMS-522b" x="100"/>
      <use xlink:href="#ArialUnicodeMS-28" x="200"/>
      <use xlink:href="#ArialUnicodeMS-7537" x="233.300781"/>
      <use xlink:href="#ArialUnicodeMS-5de6" x="333.300781"/>
      <use xlink:href="#ArialUnicodeMS-5973" x="433.300781"/>
      <use xlink:href="#ArialUnicodeMS-53f3" x="533.300781"/>
      <use xlink:href="#ArialUnicodeMS-29" x="633.300781"/>
     </g>
    </g>
   </g>
   <g id="matplotlib.axis_2">
    <g id="ytick_1">
     <g id="line2d_8">
      <defs>
       <path id="mad2823245c" d="M 0 0 
L -3.5 0 
" style="stroke: #000000; stroke-width: 0.8"/>
      </defs>
      <g>
       <use xlink:href="#mad2823245c" x="48.390625" y="287.901375" style="stroke: #000000; stroke-width: 0.8"/>
      </g>
     </g>
     <g id="text_9">
      <!-- −1.5 -->
      <g transform="translate(21.65 291.480281)scale(0.1 -0.1)">
       <use xlink:href="#ArialUnicodeMS-2212"/>
       <use xlink:href="#ArialUnicodeMS-31" x="58.398438"/>
       <use xlink:href="#ArialUnicodeMS-2e" x="114.013672"/>
       <use xlink:href="#ArialUnicodeMS-35" x="141.796875"/>
      </g>
     </g>
    </g>
    <g id="ytick_2">
     <g id="line2d_9">
      <g>
       <use xlink:href="#mad2823245c" x="48.390625" y="243.549375" style="stroke: #000000; stroke-width: 0.8"/>
      </g>
     </g>
     <g id="text_10">
      <!-- −1.0 -->
      <g transform="translate(21.65 247.128281)scale(0.1 -0.1)">
       <use xlink:href="#ArialUnicodeMS-2212"/>
       <use xlink:href="#ArialUnicodeMS-31" x="58.398438"/>
       <use xlink:href="#ArialUnicodeMS-2e" x="114.013672"/>
       <use xlink:href="#ArialUnicodeMS-30" x="141.796875"/>
      </g>
     </g>
    </g>
    <g id="ytick_3">
     <g id="line2d_10">
      <g>
       <use xlink:href="#mad2823245c" x="48.390625" y="199.197375" style="stroke: #000000; stroke-width: 0.8"/>
      </g>
     </g>
     <g id="text_11">
      <!-- −0.5 -->
      <g transform="translate(21.65 202.776281)scale(0.1 -0.1)">
       <use xlink:href="#ArialUnicodeMS-2212"/>
       <use xlink:href="#ArialUnicodeMS-30" x="58.398438"/>
       <use xlink:href="#ArialUnicodeMS-2e" x="114.013672"/>
       <use xlink:href="#ArialUnicodeMS-35" x="141.796875"/>
      </g>
     </g>
    </g>
    <g id="ytick_4">
     <g id="line2d_11">
      <g>
       <use xlink:href="#mad2823245c" x="48.390625" y="154.845375" style="stroke: #000000; stroke-width: 0.8"/>
      </g>
     </g>
     <g id="text_12">
      <!-- 0.0 -->
      <g transform="translate(27.490625 158.424281)scale(0.1 -0.1)">
       <use xlink:href="#ArialUnicodeMS-30"/>
       <use xlink:href="#ArialUnicodeMS-2e" x="55.615234"/>
       <use xlink:href="#ArialUnicodeMS-30" x="83.398438"/>
      </g>
     </g>
    </g>
    <g id="ytick_5">
     <g id="line2d_12">
      <g>
       <use xlink:href="#mad2823245c" x="48.390625" y="110.493375" style="stroke: #000000; stroke-width: 0.8"/>
      </g>
     </g>
     <g id="text_13">
      <!-- 0.5 -->
      <g transform="translate(27.490625 114.072281)scale(0.1 -0.1)">
       <use xlink:href="#ArialUnicodeMS-30"/>
       <use xlink:href="#ArialUnicodeMS-2e" x="55.615234"/>
       <use xlink:href="#ArialUnicodeMS-35" x="83.398438"/>
      </g>
     </g>
    </g>
    <g id="ytick_6">
     <g id="line2d_13">
      <g>
       <use xlink:href="#mad2823245c" x="48.390625" y="66.141375" style="stroke: #000000; stroke-width: 0.8"/>
      </g>
     </g>
     <g id="text_14">
      <!-- 1.0 -->
      <g transform="translate(27.490625 69.720281)scale(0.1 -0.1)">
       <use xlink:href="#ArialUnicodeMS-31"/>
       <use xlink:href="#ArialUnicodeMS-2e" x="55.615234"/>
       <use xlink:href="#ArialUnicodeMS-30" x="83.398438"/>
      </g>
     </g>
    </g>
    <g id="ytick_7">
     <g id="line2d_14">
      <g>
       <use xlink:href="#mad2823245c" x="48.390625" y="21.789375" style="stroke: #000000; stroke-width: 0.8"/>
      </g>
     </g>
     <g id="text_15">
      <!-- 1.5 -->
      <g transform="translate(27.490625 25.368281)scale(0.1 -0.1)">
       <use xlink:href="#ArialUnicodeMS-31"/>
       <use xlink:href="#ArialUnicodeMS-2e" x="55.615234"/>
       <use xlink:href="#ArialUnicodeMS-35" x="83.398438"/>
      </g>
     </g>
    </g>
    <g id="text_16">
     <!-- 贫富(贫下富上) -->
     <g transform="translate(15.55 188.175062)rotate(-90)scale(0.1 -0.1)">
      <defs>
       <path id="ArialUnicodeMS-8d2b" d="M 6272 3788 
L 5856 3397 
Q 5219 3534 4647 3928 
Q 4603 3247 4470 2995 
Q 4338 2744 3934 2744 
Q 3763 2744 3425 2791 
L 3297 3278 
Q 3725 3163 3956 3163 
Q 4028 3163 4053 3200 
Q 4078 3238 4117 3456 
Q 4156 3675 4172 3884 
L 3047 3884 
Q 2719 2966 2138 2669 
L 2138 2656 
L 4972 2656 
L 4972 738 
L 4488 738 
L 4488 2188 
L 1925 2188 
L 1925 513 
L 1441 513 
L 1441 2309 
Q 866 2169 609 2150 
L 347 2566 
Q 2156 2741 2541 3884 
L 1931 3884 
L 1931 4063 
Q 1225 3513 550 3328 
L 219 3713 
Q 813 3850 1473 4295 
Q 2134 4741 2516 5344 
L 2894 5100 
Q 2588 4650 2259 4353 
L 4116 4353 
Q 3713 4766 3506 5094 
L 3866 5344 
Q 4166 4853 4795 4387 
Q 5425 3922 6272 3788 
z
M 3419 1972 
Q 3419 1288 3175 819 
Q 2931 350 2426 92 
Q 1922 -166 1063 -341 
L 684 -416 
L 359 31 
Q 1941 228 2458 667 
Q 2975 1106 2975 2022 
L 3419 1972 
z
M 5716 50 
L 5478 -391 
Q 4619 294 3297 459 
L 3481 850 
Q 4825 678 5716 50 
z
" transform="scale(0.015625)"/>
       <path id="ArialUnicodeMS-5bcc" d="M 5759 3841 
L 5275 3841 
L 5275 4359 
L 1172 4359 
L 1172 3816 
L 684 3816 
L 684 4825 
L 2931 4825 
L 2931 5344 
L 3469 5344 
L 3469 4825 
L 5759 4825 
L 5759 3841 
z
M 5113 3681 
L 1338 3681 
L 1338 4147 
L 5113 4147 
L 5113 3681 
z
M 4863 2241 
L 1594 2241 
L 1594 3444 
L 4863 3444 
L 4863 2241 
z
M 4378 2681 
L 4378 3003 
L 2081 3003 
L 2081 2681 
L 4378 2681 
z
M 5375 -391 
L 4891 -391 
L 4891 -84 
L 1581 -84 
L 1581 -428 
L 1094 -428 
L 1094 1984 
L 5375 1984 
L 5375 -391 
z
M 4891 1178 
L 4891 1516 
L 3469 1516 
L 3469 1178 
L 4891 1178 
z
M 2981 1178 
L 2981 1516 
L 1581 1516 
L 1581 1178 
L 2981 1178 
z
M 4891 384 
L 4891 738 
L 3469 738 
L 3469 384 
L 4891 384 
z
M 2981 384 
L 2981 738 
L 1581 738 
L 1581 384 
L 2981 384 
z
" transform="scale(0.015625)"/>
       <path id="ArialUnicodeMS-4e0b" d="M 5863 4453 
L 3200 4453 
L 3200 -378 
L 2694 -378 
L 2694 4453 
L 538 4453 
L 538 4941 
L 5863 4941 
L 5863 4453 
z
M 5403 1709 
L 5044 1331 
Q 4494 2084 3384 2700 
L 3681 3028 
Q 4625 2644 5403 1709 
z
" transform="scale(0.015625)"/>
       <path id="ArialUnicodeMS-4e0a" d="M 5931 63 
L 588 63 
L 588 531 
L 2688 531 
L 2688 5209 
L 3175 5209 
L 3175 3353 
L 5369 3353 
L 5369 2888 
L 3175 2888 
L 3175 531 
L 5931 531 
L 5931 63 
z
" transform="scale(0.015625)"/>
      </defs>
      <use xlink:href="#ArialUnicodeMS-8d2b"/>
      <use xlink:href="#ArialUnicodeMS-5bcc" x="100"/>
      <use xlink:href="#ArialUnicodeMS-28" x="200"/>
      <use xlink:href="#ArialUnicodeMS-8d2b" x="233.300781"/>
      <use xlink:href="#ArialUnicodeMS-4e0b" x="333.300781"/>
      <use xlink:href="#ArialUnicodeMS-5bcc" x="433.300781"/>
      <use xlink:href="#ArialUnicodeMS-4e0a" x="533.300781"/>
      <use xlink:href="#ArialUnicodeMS-29" x="633.300781"/>
     </g>
    </g>
   </g>
   <g id="line2d_15">
    <path d="M 48.390625 154.845375 
L 405.510625 154.845375 
" clip-path="url(#pe6edf457d5)" style="fill: none; stroke: #000000; stroke-width: 1.5; stroke-linecap: square"/>
   </g>
   <g id="line2d_16">
    <path d="M 226.950625 287.901375 
L 226.950625 21.789375 
" clip-path="url(#pe6edf457d5)" style="fill: none; stroke: #000000; stroke-width: 1.5; stroke-linecap: square"/>
   </g>
   <g id="patch_3">
    <path d="M 48.390625 287.901375 
L 48.390625 21.789375 
" style="fill: none; stroke: #000000; stroke-width: 0.8; stroke-linejoin: miter; stroke-linecap: square"/>
   </g>
   <g id="patch_4">
    <path d="M 405.510625 287.901375 
L 405.510625 21.789375 
" style="fill: none; stroke: #000000; stroke-width: 0.8; stroke-linejoin: miter; stroke-linecap: square"/>
   </g>
   <g id="patch_5">
    <path d="M 48.390625 287.901375 
L 405.510625 287.901375 
" style="fill: none; stroke: #000000; stroke-width: 0.8; stroke-linejoin: miter; stroke-linecap: square"/>
   </g>
   <g id="patch_6">
    <path d="M 48.390625 21.789375 
L 405.510625 21.789375 
" style="fill: none; stroke: #000000; stroke-width: 0.8; stroke-linejoin: miter; stroke-linecap: square"/>
   </g>
   <g id="text_17">
    <!-- 足球 -->
    <g transform="translate(300.060551 152.853143)scale(0.1 -0.1)">
     <defs>
      <path id="ArialUnicodeMS-8db3" d="M 6209 319 
L 5825 -147 
L 4172 -147 
Q 2772 -147 1722 581 
Q 1456 6 744 -469 
L 353 -72 
Q 1553 547 1522 2297 
L 2069 2228 
Q 2069 1478 1894 1075 
Q 2322 716 2950 506 
L 2950 2778 
L 1313 2778 
L 1313 4878 
L 4909 4878 
L 4909 2778 
L 3456 2778 
L 3456 1925 
L 5369 1925 
L 5369 1459 
L 3456 1459 
L 3456 391 
Q 3725 294 6209 319 
z
M 4422 3263 
L 4422 4409 
L 1819 4409 
L 1819 3263 
L 4422 3263 
z
" transform="scale(0.015625)"/>
      <path id="ArialUnicodeMS-7403" d="M 6138 603 
L 5766 250 
Q 4797 1016 4366 2009 
L 4366 84 
Q 4366 -106 4220 -254 
Q 4075 -403 3884 -403 
L 3194 -403 
L 3016 109 
Q 3400 63 3609 63 
Q 3859 63 3859 244 
L 3859 1509 
Q 3353 1047 2363 434 
L 2016 831 
Q 3172 1484 3859 2106 
L 3859 3653 
L 2328 3653 
L 2328 4134 
L 3859 4134 
L 3859 5319 
L 4366 5319 
L 4366 4134 
L 5931 4134 
L 5931 3653 
L 4366 3653 
L 4366 3328 
Q 4481 2806 4684 2450 
Q 5163 2781 5491 3291 
L 5875 2963 
Q 5344 2316 4863 2041 
Q 5291 1247 6138 603 
z
M 5766 4513 
L 5441 4184 
Q 5091 4650 4494 4863 
L 4806 5197 
Q 5400 4963 5766 4513 
z
M 2528 1259 
L 678 616 
L 341 1038 
Q 1128 1253 1269 1313 
L 1269 2700 
L 609 2700 
L 609 3163 
L 1269 3163 
L 1269 4341 
L 469 4341 
L 469 4800 
L 2438 4800 
L 2438 4341 
L 1753 4341 
L 1753 3163 
L 2356 3163 
L 2356 2700 
L 1753 2700 
L 1753 1484 
L 2528 1759 
L 2528 1259 
z
M 3578 2425 
L 3138 2150 
Q 2947 2791 2438 3263 
L 2847 3494 
Q 3341 3084 3578 2425 
z
" transform="scale(0.015625)"/>
     </defs>
     <use xlink:href="#ArialUnicodeMS-8db3"/>
     <use xlink:href="#ArialUnicodeMS-7403" x="100"/>
    </g>
   </g>
   <g id="text_18">
    <!-- 拳击 -->
    <g transform="translate(242.263086 197.829706)scale(0.1 -0.1)">
     <defs>
      <path id="ArialUnicodeMS-62f3" d="M 6175 2181 
L 5913 1741 
Q 4947 2038 4288 2613 
L 4275 2597 
L 4391 2450 
Q 3972 2284 3541 2194 
L 3541 1825 
L 5325 1825 
L 5325 1356 
L 3541 1356 
L 3541 1044 
L 5831 1044 
L 5831 575 
L 3541 575 
L 3541 153 
Q 3541 -428 2788 -428 
Q 2678 -428 2484 -416 
L 2266 72 
Q 2606 38 2866 38 
Q 3053 38 3053 219 
L 3053 575 
L 588 575 
L 588 1044 
L 3053 1044 
L 3053 1356 
L 1094 1356 
L 1094 1825 
L 3053 1825 
L 3053 2113 
Q 2531 2059 2094 2059 
L 1875 2388 
Q 1309 2038 538 1716 
L 244 2156 
Q 938 2366 1741 2913 
L 1741 2925 
L 588 2925 
L 588 3391 
L 2228 3391 
Q 2394 3569 2472 3713 
L 959 3713 
L 959 4178 
L 1875 4178 
Q 1666 4584 1197 4872 
L 1588 5159 
Q 2084 4884 2419 4275 
L 2284 4191 
L 2284 4178 
L 2706 4178 
Q 2925 4641 3053 5363 
L 3566 5247 
Q 3475 4703 3263 4178 
L 4050 4178 
Q 3984 4216 3866 4306 
Q 4472 4713 4672 5159 
L 5056 4909 
Q 4888 4463 4544 4191 
L 4544 4178 
L 5472 4178 
L 5472 3713 
L 4072 3713 
Q 4138 3572 4256 3391 
L 5831 3391 
L 5831 2925 
L 4647 2925 
Q 4788 2741 5253 2506 
Q 5719 2272 6175 2181 
z
M 3719 3391 
Q 3650 3519 3566 3713 
L 3059 3713 
Q 2913 3463 2841 3391 
L 3719 3391 
z
M 4091 2809 
L 4006 2925 
L 2478 2925 
Q 2275 2703 2034 2541 
L 2034 2528 
Q 2228 2516 2422 2516 
Q 3406 2516 4091 2809 
z
" transform="scale(0.015625)"/>
      <path id="ArialUnicodeMS-51fb" d="M 5919 2381 
L 3463 2381 
L 3463 428 
L 4916 428 
L 4916 2156 
L 5428 2156 
L 5428 -428 
L 4916 -428 
L 4916 -56 
L 1044 -56 
L 1044 2156 
L 1556 2156 
L 1556 428 
L 2950 428 
L 2950 2381 
L 481 2381 
L 481 2869 
L 2950 2869 
L 2950 3834 
L 838 3834 
L 838 4319 
L 2950 4319 
L 2950 5288 
L 3463 5288 
L 3463 4319 
L 5550 4319 
L 5550 3834 
L 3463 3834 
L 3463 2869 
L 5919 2869 
L 5919 2381 
z
" transform="scale(0.015625)"/>
     </defs>
     <use xlink:href="#ArialUnicodeMS-62f3"/>
     <use xlink:href="#ArialUnicodeMS-51fb" x="100"/>
    </g>
   </g>
   <g id="text_19">
    <!-- 高尔夫 -->
    <g transform="translate(180.572487 259.065063)scale(0.1 -0.1)">
     <defs>
      <path id="ArialUnicodeMS-9ad8" d="M 5863 4313 
L 653 4313 
L 653 4781 
L 2956 4781 
L 2956 5300 
L 3444 5300 
L 3444 4781 
L 5863 4781 
L 5863 4313 
z
M 4775 2747 
L 1625 2747 
L 1625 4038 
L 4775 4038 
L 4775 2747 
z
M 4288 3572 
L 2113 3572 
L 2113 3213 
L 4281 3213 
L 4288 3572 
z
M 5563 213 
Q 5563 -359 4903 -359 
L 4403 -359 
L 4263 134 
L 4750 109 
Q 5075 88 5075 359 
L 5075 2022 
L 1331 2022 
L 1331 -428 
L 838 -428 
L 838 2491 
L 5563 2491 
L 5563 213 
z
M 4453 378 
L 1919 378 
L 1919 1722 
L 4453 1722 
L 4453 378 
z
M 3969 1253 
L 2406 1253 
L 2406 844 
L 3963 844 
L 3969 1253 
z
" transform="scale(0.015625)"/>
      <path id="ArialUnicodeMS-5c14" d="M 5434 3956 
Q 5434 3744 4972 2994 
L 4544 3284 
Q 4825 3694 4941 3981 
L 2041 3981 
Q 1647 3128 563 2363 
L 206 2772 
Q 1694 3838 2106 5313 
L 2522 5113 
Q 2438 4747 2266 4422 
L 5434 4422 
L 5434 3956 
z
M 3431 -31 
Q 3431 -197 3301 -300 
Q 3172 -403 2963 -403 
L 2297 -403 
L 2138 91 
Q 2575 41 2775 41 
Q 2944 41 2944 122 
L 2944 3622 
L 3431 3622 
L 3431 -31 
z
M 5819 556 
L 5319 300 
Q 4784 1550 3859 2431 
L 4197 2741 
Q 5319 1700 5819 556 
z
M 2578 2450 
Q 2075 1228 928 275 
L 519 672 
Q 1678 1563 2203 2741 
L 2578 2450 
z
" transform="scale(0.015625)"/>
      <path id="ArialUnicodeMS-592b" d="M 6034 178 
L 5716 -263 
Q 3753 525 3297 2169 
Q 2788 538 844 -325 
L 475 109 
Q 2356 881 2791 2278 
L 831 2278 
L 831 2747 
L 2894 2747 
Q 2963 3072 3003 3834 
L 1228 3834 
L 1228 4319 
L 3009 4319 
L 3009 5338 
L 3531 5338 
L 3531 4319 
L 5259 4319 
L 5259 3834 
L 3513 3834 
Q 3494 3081 3438 2747 
L 5678 2747 
L 5678 2278 
L 3794 2278 
Q 4225 881 6034 178 
z
" transform="scale(0.015625)"/>
     </defs>
     <use xlink:href="#ArialUnicodeMS-9ad8"/>
     <use xlink:href="#ArialUnicodeMS-5c14" x="100"/>
     <use xlink:href="#ArialUnicodeMS-592b" x="200"/>
    </g>
   </g>
   <g id="text_20">
    <!-- 棒球 -->
    <g transform="translate(191.815787 56.526899)scale(0.1 -0.1)">
     <defs>
      <path id="ArialUnicodeMS-68d2" d="M 6156 1875 
L 5850 1466 
Q 5575 1553 5147 1863 
L 5147 1466 
L 4281 1466 
L 4281 1063 
L 5759 1063 
L 5759 594 
L 4281 594 
L 4281 -416 
L 3794 -416 
L 3794 594 
L 2350 594 
L 2350 1063 
L 3794 1063 
L 3794 1466 
L 2969 1466 
L 2969 1894 
Q 2819 1753 2278 1422 
L 1925 1778 
Q 2797 2281 3103 2753 
L 2266 2753 
Q 2416 2553 2497 2284 
L 2113 2034 
Q 1938 2469 1753 2663 
L 1753 -434 
L 1259 -434 
L 1259 2138 
Q 934 1409 531 1063 
L 172 1388 
Q 1003 2266 1241 3597 
L 416 3597 
L 416 4078 
L 1269 4078 
L 1269 5288 
L 1753 5288 
L 1753 4078 
L 2463 4078 
L 2463 3597 
L 1753 3597 
L 1753 3122 
L 1838 3175 
Q 2088 2994 2216 2803 
L 2228 2803 
L 2228 3219 
L 3353 3219 
Q 3413 3334 3488 3597 
L 2725 3597 
L 2725 4038 
L 3572 4038 
Q 3597 4097 3628 4341 
L 2478 4341 
L 2478 4806 
L 3669 4806 
L 3713 5363 
L 4213 5300 
L 4178 4806 
L 5613 4806 
L 5613 4341 
L 4128 4341 
Q 4119 4309 4084 4038 
L 5381 4038 
L 5381 3597 
L 4550 3597 
Q 4616 3391 4709 3219 
L 5863 3219 
L 5863 2753 
L 4947 2753 
Q 5363 2159 6156 1875 
z
M 4213 3219 
Q 4125 3409 4072 3597 
L 3994 3597 
Q 3897 3228 3891 3219 
L 4213 3219 
z
M 5069 1931 
Q 4669 2313 4422 2753 
L 3675 2753 
Q 3366 2194 3016 1941 
L 3016 1931 
L 3794 1931 
L 3794 2566 
L 4281 2566 
L 4281 1931 
L 5069 1931 
z
" transform="scale(0.015625)"/>
     </defs>
     <use xlink:href="#ArialUnicodeMS-68d2"/>
     <use xlink:href="#ArialUnicodeMS-7403" x="100"/>
    </g>
   </g>
   <g id="text_21">
    <!-- 芭蕾 -->
    <g transform="translate(131.403938 248.558715)scale(0.1 -0.1)">
     <defs>
      <path id="ArialUnicodeMS-82ad" d="M 5931 4153 
L 4628 4153 
L 4628 3584 
L 4122 3584 
L 4122 4153 
L 2322 4153 
L 2322 3584 
L 1819 3584 
L 1819 4153 
L 500 4153 
L 500 4622 
L 1819 4622 
L 1819 5259 
L 2322 5259 
L 2322 4622 
L 4122 4622 
L 4122 5241 
L 4628 5241 
L 4628 4622 
L 5931 4622 
L 5931 4153 
z
M 5991 1106 
Q 5897 -225 5281 -225 
L 1838 -225 
Q 984 -225 984 453 
L 984 3419 
L 5325 3419 
L 5325 1453 
L 1491 1453 
L 1491 531 
Q 1491 263 1819 263 
L 5147 263 
Q 5313 294 5391 456 
Q 5469 619 5516 1259 
L 5991 1106 
z
M 4838 1919 
L 4838 2950 
L 3413 2950 
L 3413 1919 
L 4838 1919 
z
M 2925 1919 
L 2925 2950 
L 1491 2950 
L 1491 1919 
L 2925 1919 
z
" transform="scale(0.015625)"/>
      <path id="ArialUnicodeMS-857e" d="M 6022 4428 
L 4634 4428 
L 4634 4197 
L 5556 4197 
L 5556 3756 
L 3481 3756 
L 3488 3578 
L 5850 3578 
L 5850 2509 
L 5363 2509 
L 5363 3138 
L 3481 3138 
L 3481 1875 
L 2994 1875 
L 2994 3138 
L 1131 3138 
L 1131 2534 
L 647 2534 
L 647 3578 
L 2994 3578 
L 2994 3756 
L 997 3756 
L 997 4197 
L 1856 4197 
L 1856 4428 
L 469 4428 
L 469 4897 
L 1856 4897 
L 1856 5350 
L 2344 5350 
L 2344 4897 
L 4147 4897 
L 4147 5350 
L 4634 5350 
L 4634 4897 
L 6022 4897 
L 6022 4428 
z
M 4147 4197 
L 4147 4428 
L 2344 4428 
L 2344 4197 
L 4147 4197 
z
M 5234 2591 
L 3675 2591 
L 3675 3003 
L 5234 3003 
L 5234 2591 
z
M 2816 2613 
L 1259 2613 
L 1259 3003 
L 2816 3003 
L 2816 2613 
z
M 5416 2041 
L 3675 2041 
L 3675 2425 
L 5416 2425 
L 5416 2041 
z
M 2816 2041 
L 1075 2041 
L 1075 2425 
L 2816 2425 
L 2816 2041 
z
M 5338 -391 
L 4831 -391 
L 4831 -38 
L 1684 -38 
L 1684 -391 
L 1197 -391 
L 1197 1813 
L 5338 1813 
L 5338 -391 
z
M 4831 1113 
L 4831 1369 
L 3506 1369 
L 3506 1113 
L 4831 1113 
z
M 3022 1113 
L 3022 1369 
L 1684 1369 
L 1691 1113 
L 3022 1113 
z
M 4831 384 
L 4831 697 
L 3506 697 
L 3506 384 
L 4831 384 
z
M 3022 384 
L 3022 697 
L 1684 697 
L 1684 384 
L 3022 384 
z
" transform="scale(0.015625)"/>
     </defs>
     <use xlink:href="#ArialUnicodeMS-82ad"/>
     <use xlink:href="#ArialUnicodeMS-857e" x="100"/>
    </g>
   </g>
   <g id="text_22">
    <!-- 运动的贫富和性别属性 -->
    <g transform="translate(166.950625 15.789375)scale(0.12 -0.12)">
     <defs>
      <path id="ArialUnicodeMS-8fd0" d="M 2009 4172 
L 1606 3859 
Q 1356 4391 691 4813 
L 1044 5119 
Q 1631 4772 2009 4172 
z
M 5466 4306 
L 2216 4306 
L 2216 4775 
L 5466 4775 
L 5466 4306 
z
M 5838 2981 
L 3553 2981 
L 3553 2969 
L 3859 2816 
Q 3291 1709 2784 1331 
L 2797 1319 
L 4616 1484 
L 3981 2131 
L 4359 2388 
Q 5250 1631 5588 850 
L 5184 538 
L 4922 1050 
L 2350 763 
L 2100 1209 
Q 2409 1481 2817 2031 
Q 3225 2581 3378 2981 
L 1856 2981 
L 1856 3450 
L 5838 3450 
L 5838 2981 
z
M 6041 325 
L 5838 -172 
L 2753 -172 
Q 2375 -172 1964 31 
Q 1553 234 1350 544 
L 563 -294 
L 206 103 
Q 494 306 1056 916 
L 1056 2619 
L 397 2619 
L 397 3084 
L 1544 3084 
L 1544 928 
Q 2166 294 2944 294 
L 5369 294 
L 6041 325 
z
" transform="scale(0.015625)"/>
      <path id="ArialUnicodeMS-52a8" d="M 5678 3834 
Q 5613 2631 5508 1595 
Q 5403 559 5328 262 
Q 5253 -34 5048 -161 
Q 4844 -288 4591 -288 
Q 4416 -288 4097 -256 
Q 4016 25 3944 238 
Q 4550 172 4644 172 
Q 4703 172 4812 456 
Q 4922 741 5023 1741 
Q 5125 2741 5159 3391 
L 4359 3391 
Q 4366 1738 3883 889 
Q 3400 41 2528 -384 
L 2156 25 
Q 2716 300 3009 634 
Q 2913 850 2719 1075 
Q 1478 731 763 475 
L 428 959 
Q 678 1172 1014 1786 
Q 1350 2400 1503 2906 
L 353 2906 
L 353 3372 
L 3144 3372 
L 3144 2906 
L 2041 2906 
Q 1500 1597 1125 1125 
L 1141 1113 
L 2444 1484 
Q 2397 1556 2125 1797 
L 2478 2047 
Q 3131 1475 3359 997 
Q 3528 1178 3697 1742 
Q 3866 2306 3866 2888 
L 3866 3391 
L 3194 3391 
L 3194 3834 
L 3866 3834 
L 3866 5319 
L 4353 5325 
L 4353 3834 
L 5678 3834 
z
M 2881 4219 
L 603 4219 
L 603 4659 
L 2881 4659 
L 2881 4219 
z
" transform="scale(0.015625)"/>
      <path id="ArialUnicodeMS-7684" d="M 5644 4281 
Q 5619 1694 5395 673 
Q 5172 -347 4606 -347 
Q 4350 -347 3609 -134 
L 3525 403 
Q 4247 134 4531 134 
Q 4806 134 4976 1142 
Q 5147 2150 5159 3841 
L 3794 3841 
Q 3550 3166 3053 2497 
L 2719 2713 
L 2719 -147 
L 2216 -147 
L 2216 269 
L 1153 269 
L 1153 -250 
L 647 -250 
L 647 4184 
L 1234 4184 
Q 1494 4644 1625 5313 
L 2088 5125 
Q 1903 4444 1741 4184 
L 2719 4184 
L 2719 2881 
Q 3431 3888 3681 5363 
L 4191 5247 
Q 4106 4869 3916 4281 
L 5644 4281 
z
M 2216 2484 
L 2216 3719 
L 1153 3719 
L 1153 2484 
L 2216 2484 
z
M 2216 738 
L 2216 2016 
L 1153 2016 
L 1153 738 
L 2216 738 
z
M 4775 1369 
L 4313 1166 
Q 4034 1925 3444 2669 
L 3841 2931 
Q 4484 2191 4775 1369 
z
" transform="scale(0.015625)"/>
      <path id="ArialUnicodeMS-548c" d="M 3659 1516 
L 3256 1222 
Q 2881 2025 2472 2303 
L 2472 -447 
L 1978 -447 
L 1978 2069 
Q 1694 1450 788 634 
L 341 959 
Q 1578 1947 1959 3097 
L 738 3097 
L 738 3566 
L 1984 3566 
L 1984 4372 
Q 1050 4231 831 4231 
L 634 4672 
Q 2306 4788 3181 5253 
L 3475 4891 
Q 3166 4703 2472 4481 
L 2472 3566 
L 3559 3566 
L 3559 3097 
L 2472 3097 
L 2472 2638 
L 2644 2759 
Q 3322 2300 3659 1516 
z
M 5722 -63 
L 5234 -63 
L 5234 575 
L 4213 575 
L 4213 -63 
L 3725 -63 
L 3725 4738 
L 5722 4738 
L 5722 -63 
z
M 5234 1044 
L 5234 4269 
L 4213 4269 
L 4213 1044 
L 5234 1044 
z
" transform="scale(0.015625)"/>
      <path id="ArialUnicodeMS-5c5e" d="M 5613 3809 
L 1234 3809 
L 1234 1772 
Q 1234 528 609 -469 
L 191 -141 
Q 447 228 598 747 
Q 750 1266 750 2259 
L 750 4972 
L 5613 4972 
L 5613 3809 
z
M 5125 4250 
L 5125 4531 
L 1234 4531 
L 1234 4250 
L 5125 4250 
z
M 5503 84 
Q 5503 -172 5361 -290 
Q 5219 -409 5063 -409 
L 4550 -409 
L 4384 63 
L 4891 38 
Q 5019 28 5019 134 
L 5019 1131 
L 4441 1131 
Q 4797 816 4941 347 
L 4556 122 
Q 4538 209 4481 331 
L 2284 -44 
L 2053 428 
Q 2647 469 3188 569 
L 3188 1131 
L 1931 1131 
L 1931 -459 
L 1447 -459 
L 1447 1575 
L 3188 1575 
L 3188 1759 
L 1684 1759 
L 1684 2913 
L 3188 2913 
L 3188 3122 
Q 2934 3109 2681 3109 
Q 2334 3109 1631 3128 
L 1416 3578 
Q 1988 3547 2444 3547 
Q 3756 3547 4928 3738 
L 5191 3341 
Q 4625 3216 3675 3150 
L 3675 2913 
L 5247 2913 
L 5247 1759 
L 3675 1759 
L 3675 1575 
L 5503 1575 
L 5503 84 
z
M 4763 2203 
L 4763 2472 
L 3675 2472 
L 3675 2203 
L 4763 2203 
z
M 3188 2203 
L 3188 2472 
L 2169 2472 
L 2169 2203 
L 3188 2203 
z
M 4231 769 
L 4000 991 
L 4184 1131 
L 3675 1131 
L 3675 672 
L 4231 769 
z
" transform="scale(0.015625)"/>
     </defs>
     <use xlink:href="#ArialUnicodeMS-8fd0"/>
     <use xlink:href="#ArialUnicodeMS-52a8" x="100"/>
     <use xlink:href="#ArialUnicodeMS-7684" x="200"/>
     <use xlink:href="#ArialUnicodeMS-8d2b" x="300"/>
     <use xlink:href="#ArialUnicodeMS-5bcc" x="400"/>
     <use xlink:href="#ArialUnicodeMS-548c" x="500"/>
     <use xlink:href="#ArialUnicodeMS-6027" x="600"/>
     <use xlink:href="#ArialUnicodeMS-522b" x="700"/>
     <use xlink:href="#ArialUnicodeMS-5c5e" x="800"/>
     <use xlink:href="#ArialUnicodeMS-6027" x="900"/>
    </g>
   </g>
  </g>
 </g>
 <defs>
  <clipPath id="pe6edf457d5">
   <rect x="48.390625" y="21.789375" width="357.12" height="266.112"/>
  </clipPath>
 </defs>
</svg>
