<?xml version="1.0" encoding="utf-8" standalone="no"?>
<!DOCTYPE svg PUBLIC "-//W3C//DTD SVG 1.1//EN"
  "http://www.w3.org/Graphics/SVG/1.1/DTD/svg11.dtd">
<svg xmlns:xlink="http://www.w3.org/1999/xlink" width="412.824713pt" height="309.812pt" viewBox="0 0 412.824713 309.812" xmlns="http://www.w3.org/2000/svg" version="1.1">
 <metadata>
  <rdf:RDF xmlns:dc="http://purl.org/dc/elements/1.1/" xmlns:cc="http://creativecommons.org/ns#" xmlns:rdf="http://www.w3.org/1999/02/22-rdf-syntax-ns#">
   <cc:Work>
    <dc:type rdf:resource="http://purl.org/dc/dcmitype/StillImage"/>
    <dc:date>2023-03-02T17:14:08.456058</dc:date>
    <dc:format>image/svg+xml</dc:format>
    <dc:creator>
     <cc:Agent>
      <dc:title>Matplotlib v3.5.2, https://matplotlib.org/</dc:title>
     </cc:Agent>
    </dc:creator>
   </cc:Work>
  </rdf:RDF>
 </metadata>
 <defs>
  <style type="text/css">*{stroke-linejoin: round; stroke-linecap: butt}</style>
 </defs>
 <g id="figure_1">
  <g id="patch_1">
   <path d="M 0 309.812 
L 412.824713 309.812 
L 412.824713 0 
L 0 0 
z
" style="fill: #ffffff"/>
  </g>
  <g id="axes_1">
   <g id="patch_2">
    <path d="M 41.25 273.312 
L 398.37 273.312 
L 398.37 7.2 
L 41.25 7.2 
z
" style="fill: #ffffff"/>
   </g>
   <g id="PathCollection_1">
    <defs>
     <path id="me62be60135" d="M 0 0.05 
C 0.01326 0.05 0.025979 0.044732 0.035355 0.035355 
C 0.044732 0.025979 0.05 0.01326 0.05 0 
C 0.05 -0.01326 0.044732 -0.025979 0.035355 -0.035355 
C 0.025979 -0.044732 0.01326 -0.05 0 -0.05 
C -0.01326 -0.05 -0.025979 -0.044732 -0.035355 -0.035355 
C -0.044732 -0.025979 -0.05 -0.01326 -0.05 0 
C -0.05 0.01326 -0.044732 0.025979 -0.035355 0.035355 
C -0.025979 0.044732 -0.01326 0.05 0 0.05 
z
" style="stroke: #ffffff"/>
    </defs>
    <g clip-path="url(#pe37000f1df)">
     <use xlink:href="#me62be60135" x="57.482727" y="138.473851" style="fill: #ffffff; stroke: #ffffff"/>
    </g>
   </g>
   <g id="Quiver_1">
    <path d="M 174.333825 262.143376 
L 64.862972 148.096503 
L 63.858065 150.917397 
L 57.482727 138.473851 
L 69.654915 145.35314 
L 66.795255 146.241751 
L 176.266108 260.288624 
L 174.333825 262.143376 
" clip-path="url(#pe37000f1df)" style="fill: #800080"/>
   </g>
   <g id="PathCollection_2">
    <g clip-path="url(#pe37000f1df)">
     <use xlink:href="#me62be60135" x="382.137273" y="223.51829" style="fill: #ffffff; stroke: #ffffff"/>
    </g>
   </g>
   <g id="Quiver_2">
    <path d="M 175.059843 259.898503 
L 370.03968 224.36191 
L 368.241935 221.96704 
L 382.137273 223.51829 
L 369.682679 229.87202 
L 370.519928 226.996903 
L 175.540091 262.533497 
L 175.059843 259.898503 
" clip-path="url(#pe37000f1df)" style="fill: #0000ff"/>
   </g>
   <g id="PathCollection_3">
    <g clip-path="url(#pe37000f1df)">
     <use xlink:href="#me62be60135" x="134.952722" y="115.840268" style="fill: #ffffff; stroke: #ffffff"/>
    </g>
   </g>
   <g id="Quiver_3">
    <path d="M 174.009544 261.574141 
L 136.885568 127.812217 
L 134.662863 129.818922 
L 134.952722 115.840268 
L 142.405401 127.670076 
L 139.466414 127.095935 
L 176.59039 260.857859 
L 174.009544 261.574141 
" clip-path="url(#pe37000f1df)" style="fill: #008000"/>
   </g>
   <g id="PathCollection_4">
    <g clip-path="url(#pe37000f1df)">
     <use xlink:href="#me62be60135" x="221.133649" y="29.504712" style="fill: #ffffff; stroke: #ffffff"/>
    </g>
   </g>
   <g id="Quiver_4">
    <path d="M 173.986221 260.956134 
L 217.481114 41.068554 
L 214.593758 41.862568 
L 221.133649 29.504712 
L 222.476229 43.421761 
L 220.108604 41.588285 
L 176.613712 261.475866 
L 173.986221 260.956134 
" clip-path="url(#pe37000f1df)" style="fill: #ff0000"/>
   </g>
   <g id="PathCollection_5">
    <g clip-path="url(#pe37000f1df)">
     <use xlink:href="#me62be60135" x="167.733267" y="19.296" style="fill: #ffffff; stroke: #ffffff"/>
    </g>
   </g>
   <g id="Quiver_5">
    <path d="M 173.961421 261.257867 
L 166.771522 31.384775 
L 164.136297 32.807054 
L 167.733267 19.296 
L 172.16757 32.555854 
L 169.448612 31.301042 
L 176.638512 261.174133 
L 173.961421 261.257867 
" clip-path="url(#pe37000f1df)"/>
   </g>
   <g id="matplotlib.axis_1">
    <g id="xtick_1">
     <g id="line2d_1">
      <defs>
       <path id="m69d27da8fa" d="M 0 0 
L 0 3.5 
" style="stroke: #000000; stroke-width: 0.8"/>
      </defs>
      <g>
       <use xlink:href="#m69d27da8fa" x="105.55116" y="273.312" style="stroke: #000000; stroke-width: 0.8"/>
      </g>
     </g>
     <g id="text_1">
      <!-- −0.2 -->
      <g transform="translate(95.680847 287.469812)scale(0.1 -0.1)">
       <defs>
        <path id="ArialUnicodeMS-2212" d="M 3384 1997 
L 353 1997 
L 353 2522 
L 3384 2522 
L 3384 1997 
z
" transform="scale(0.015625)"/>
        <path id="ArialUnicodeMS-30" d="M 1778 4603 
Q 3272 4603 3272 2259 
Q 3272 1075 2886 498 
Q 2500 -78 1778 -78 
Q 288 -78 288 2259 
Q 288 3444 673 4023 
Q 1059 4603 1778 4603 
z
M 1778 384 
Q 2231 384 2462 823 
Q 2694 1263 2694 2259 
Q 2694 2953 2592 3351 
Q 2491 3750 2286 3945 
Q 2081 4141 1772 4141 
Q 1319 4141 1091 3694 
Q 863 3247 863 2259 
Q 863 1575 966 1175 
Q 1069 775 1272 579 
Q 1475 384 1778 384 
z
" transform="scale(0.015625)"/>
        <path id="ArialUnicodeMS-2e" d="M 1209 0 
L 569 0 
L 569 641 
L 1209 641 
L 1209 0 
z
" transform="scale(0.015625)"/>
        <path id="ArialUnicodeMS-32" d="M 3231 0 
L 197 0 
Q 197 388 467 784 
Q 738 1181 1478 1778 
Q 1931 2141 2287 2539 
Q 2644 2938 2644 3341 
Q 2644 3688 2398 3914 
Q 2153 4141 1778 4141 
Q 1400 4141 1144 3908 
Q 888 3675 884 3213 
L 306 3278 
Q 359 3922 764 4262 
Q 1169 4603 1791 4603 
Q 2466 4603 2842 4229 
Q 3219 3856 3219 3328 
Q 3219 2888 2901 2436 
Q 2584 1984 1638 1228 
Q 1141 831 978 544 
L 3231 544 
L 3231 0 
z
" transform="scale(0.015625)"/>
       </defs>
       <use xlink:href="#ArialUnicodeMS-2212"/>
       <use xlink:href="#ArialUnicodeMS-30" x="58.398438"/>
       <use xlink:href="#ArialUnicodeMS-2e" x="114.013672"/>
       <use xlink:href="#ArialUnicodeMS-32" x="141.796875"/>
      </g>
     </g>
    </g>
    <g id="xtick_2">
     <g id="line2d_2">
      <g>
       <use xlink:href="#m69d27da8fa" x="175.299967" y="273.312" style="stroke: #000000; stroke-width: 0.8"/>
      </g>
     </g>
     <g id="text_2">
      <!-- 0.0 -->
      <g transform="translate(168.349967 287.469812)scale(0.1 -0.1)">
       <use xlink:href="#ArialUnicodeMS-30"/>
       <use xlink:href="#ArialUnicodeMS-2e" x="55.615234"/>
       <use xlink:href="#ArialUnicodeMS-30" x="83.398438"/>
      </g>
     </g>
    </g>
    <g id="xtick_3">
     <g id="line2d_3">
      <g>
       <use xlink:href="#m69d27da8fa" x="245.048774" y="273.312" style="stroke: #000000; stroke-width: 0.8"/>
      </g>
     </g>
     <g id="text_3">
      <!-- 0.2 -->
      <g transform="translate(238.098774 287.469812)scale(0.1 -0.1)">
       <use xlink:href="#ArialUnicodeMS-30"/>
       <use xlink:href="#ArialUnicodeMS-2e" x="55.615234"/>
       <use xlink:href="#ArialUnicodeMS-32" x="83.398438"/>
      </g>
     </g>
    </g>
    <g id="xtick_4">
     <g id="line2d_4">
      <g>
       <use xlink:href="#m69d27da8fa" x="314.797581" y="273.312" style="stroke: #000000; stroke-width: 0.8"/>
      </g>
     </g>
     <g id="text_4">
      <!-- 0.4 -->
      <g transform="translate(307.847581 287.469812)scale(0.1 -0.1)">
       <defs>
        <path id="ArialUnicodeMS-34" d="M 3263 1094 
L 2644 1094 
L 2644 0 
L 2081 0 
L 2081 1094 
L 97 1094 
L 97 1613 
L 2181 4581 
L 2644 4581 
L 2644 1613 
L 3263 1613 
L 3263 1094 
z
M 2081 1613 
L 2081 3681 
L 2069 3681 
L 647 1613 
L 2081 1613 
z
" transform="scale(0.015625)"/>
       </defs>
       <use xlink:href="#ArialUnicodeMS-30"/>
       <use xlink:href="#ArialUnicodeMS-2e" x="55.615234"/>
       <use xlink:href="#ArialUnicodeMS-34" x="83.398438"/>
      </g>
     </g>
    </g>
    <g id="xtick_5">
     <g id="line2d_5">
      <g>
       <use xlink:href="#m69d27da8fa" x="384.546388" y="273.312" style="stroke: #000000; stroke-width: 0.8"/>
      </g>
     </g>
     <g id="text_5">
      <!-- 0.6 -->
      <g transform="translate(377.596388 287.469812)scale(0.1 -0.1)">
       <defs>
        <path id="ArialUnicodeMS-36" d="M 838 2363 
Q 1225 2969 1941 2969 
Q 2503 2969 2897 2553 
Q 3291 2138 3291 1491 
Q 3291 838 2898 380 
Q 2506 -78 1856 -78 
Q 1197 -78 733 409 
Q 269 897 269 2144 
Q 269 3369 689 3986 
Q 1109 4603 1906 4603 
Q 2422 4603 2778 4315 
Q 3134 4028 3213 3463 
L 2650 3413 
Q 2497 4141 1875 4141 
Q 1444 4141 1134 3712 
Q 825 3284 825 2363 
L 838 2363 
z
M 1844 384 
Q 2231 384 2472 696 
Q 2713 1009 2713 1453 
Q 2713 1897 2472 2187 
Q 2231 2478 1825 2478 
Q 1453 2478 1184 2204 
Q 916 1931 916 1484 
Q 916 1028 1180 706 
Q 1444 384 1844 384 
z
" transform="scale(0.015625)"/>
       </defs>
       <use xlink:href="#ArialUnicodeMS-30"/>
       <use xlink:href="#ArialUnicodeMS-2e" x="55.615234"/>
       <use xlink:href="#ArialUnicodeMS-36" x="83.398438"/>
      </g>
     </g>
    </g>
    <g id="text_6">
     <!-- Dimension 0 -->
     <g transform="translate(192.020938 300.619812)scale(0.1 -0.1)">
      <defs>
       <path id="ArialUnicodeMS-44" d="M 513 4581 
L 2094 4581 
Q 2509 4581 2809 4539 
Q 3109 4497 3382 4333 
Q 3656 4169 3861 3881 
Q 4066 3594 4183 3220 
Q 4300 2847 4300 2316 
Q 4300 1303 3819 651 
Q 3338 0 2163 0 
L 513 0 
L 513 4581 
z
M 1119 544 
L 2100 544 
Q 2400 544 2636 581 
Q 2872 619 3114 784 
Q 3356 950 3515 1328 
Q 3675 1706 3675 2328 
Q 3675 2672 3614 2970 
Q 3553 3269 3389 3514 
Q 3225 3759 3012 3873 
Q 2800 3988 2598 4013 
Q 2397 4038 2081 4038 
L 1119 4038 
L 1119 544 
z
" transform="scale(0.015625)"/>
       <path id="ArialUnicodeMS-69" d="M 991 0 
L 428 0 
L 428 3316 
L 991 3316 
L 991 0 
z
M 991 3944 
L 428 3944 
L 428 4581 
L 991 4581 
L 991 3944 
z
" transform="scale(0.015625)"/>
       <path id="ArialUnicodeMS-6d" d="M 4922 0 
L 4359 0 
L 4359 2094 
Q 4359 2325 4328 2489 
Q 4297 2653 4167 2779 
Q 4038 2906 3763 2906 
Q 3431 2906 3190 2675 
Q 2950 2444 2950 1925 
L 2950 0 
L 2388 0 
L 2388 2156 
Q 2388 2588 2236 2747 
Q 2084 2906 1806 2906 
Q 1444 2906 1211 2656 
Q 978 2406 978 1722 
L 978 0 
L 416 0 
L 416 3316 
L 922 3316 
L 922 2853 
L 934 2853 
Q 1272 3391 1925 3391 
Q 2291 3391 2527 3245 
Q 2763 3100 2869 2809 
Q 3238 3391 3891 3391 
Q 4406 3391 4664 3112 
Q 4922 2834 4922 2278 
L 4922 0 
z
" transform="scale(0.015625)"/>
       <path id="ArialUnicodeMS-65" d="M 3309 1516 
L 825 1516 
Q 859 966 1139 675 
Q 1419 384 1838 384 
Q 2159 384 2378 554 
Q 2597 725 2713 1069 
L 3291 997 
Q 3150 478 2775 200 
Q 2400 -78 1838 -78 
Q 1091 -78 670 380 
Q 250 838 250 1631 
Q 250 2416 658 2903 
Q 1066 3391 1806 3391 
Q 2169 3391 2505 3231 
Q 2841 3072 3075 2689 
Q 3309 2306 3309 1516 
z
M 2731 1978 
Q 2697 2484 2417 2707 
Q 2138 2931 1806 2931 
Q 1409 2931 1153 2665 
Q 897 2400 856 1978 
L 2731 1978 
z
" transform="scale(0.015625)"/>
       <path id="ArialUnicodeMS-6e" d="M 3138 0 
L 2572 0 
L 2572 2016 
Q 2572 2525 2389 2715 
Q 2206 2906 1881 2906 
Q 1631 2906 1407 2784 
Q 1184 2663 1090 2441 
Q 997 2219 997 1813 
L 997 0 
L 434 0 
L 434 3316 
L 941 3316 
L 941 2847 
L 953 2847 
Q 1131 3119 1392 3255 
Q 1653 3391 1997 3391 
Q 2259 3391 2515 3297 
Q 2772 3203 2917 3015 
Q 3063 2828 3100 2615 
Q 3138 2403 3138 2041 
L 3138 0 
z
" transform="scale(0.015625)"/>
       <path id="ArialUnicodeMS-73" d="M 2278 2388 
Q 2241 2659 2058 2795 
Q 1875 2931 1550 2931 
Q 1228 2931 1029 2822 
Q 831 2713 831 2503 
Q 831 2306 989 2222 
Q 1147 2138 1613 2016 
Q 2138 1881 2398 1778 
Q 2659 1675 2804 1489 
Q 2950 1303 2950 972 
Q 2950 528 2587 225 
Q 2225 -78 1619 -78 
Q 988 -78 633 189 
Q 278 456 197 991 
L 756 1075 
Q 800 728 1014 556 
Q 1228 384 1613 384 
Q 1981 384 2178 539 
Q 2375 694 2375 916 
Q 2375 1066 2284 1156 
Q 2194 1247 2058 1292 
Q 1922 1338 1447 1453 
Q 741 1622 514 1862 
Q 288 2103 288 2438 
Q 288 2853 619 3122 
Q 950 3391 1509 3391 
Q 2103 3391 2433 3158 
Q 2763 2925 2828 2463 
L 2278 2388 
z
" transform="scale(0.015625)"/>
       <path id="ArialUnicodeMS-6f" d="M 1778 3391 
Q 2450 3391 2892 2953 
Q 3334 2516 3334 1709 
Q 3334 731 2856 326 
Q 2378 -78 1778 -78 
Q 1150 -78 687 337 
Q 225 753 225 1656 
Q 225 2531 672 2961 
Q 1119 3391 1778 3391 
z
M 1778 384 
Q 2259 384 2509 740 
Q 2759 1097 2759 1678 
Q 2759 2300 2476 2615 
Q 2194 2931 1778 2931 
Q 1350 2931 1075 2611 
Q 800 2291 800 1656 
Q 800 1025 1079 704 
Q 1359 384 1778 384 
z
" transform="scale(0.015625)"/>
       <path id="ArialUnicodeMS-20" transform="scale(0.015625)"/>
      </defs>
      <use xlink:href="#ArialUnicodeMS-44"/>
      <use xlink:href="#ArialUnicodeMS-69" x="72.216797"/>
      <use xlink:href="#ArialUnicodeMS-6d" x="94.433594"/>
      <use xlink:href="#ArialUnicodeMS-65" x="177.734375"/>
      <use xlink:href="#ArialUnicodeMS-6e" x="233.349609"/>
      <use xlink:href="#ArialUnicodeMS-73" x="288.964844"/>
      <use xlink:href="#ArialUnicodeMS-69" x="338.964844"/>
      <use xlink:href="#ArialUnicodeMS-6f" x="361.181641"/>
      <use xlink:href="#ArialUnicodeMS-6e" x="416.796875"/>
      <use xlink:href="#ArialUnicodeMS-20" x="472.412109"/>
      <use xlink:href="#ArialUnicodeMS-30" x="500.195312"/>
     </g>
    </g>
   </g>
   <g id="matplotlib.axis_2">
    <g id="ytick_1">
     <g id="line2d_6">
      <defs>
       <path id="m1ff101dae1" d="M 0 0 
L -3.5 0 
" style="stroke: #000000; stroke-width: 0.8"/>
      </defs>
      <g>
       <use xlink:href="#m1ff101dae1" x="41.25" y="261.216" style="stroke: #000000; stroke-width: 0.8"/>
      </g>
     </g>
     <g id="text_7">
      <!-- 0.0 -->
      <g transform="translate(20.35 264.794906)scale(0.1 -0.1)">
       <use xlink:href="#ArialUnicodeMS-30"/>
       <use xlink:href="#ArialUnicodeMS-2e" x="55.615234"/>
       <use xlink:href="#ArialUnicodeMS-30" x="83.398438"/>
      </g>
     </g>
    </g>
    <g id="ytick_2">
     <g id="line2d_7">
      <g>
       <use xlink:href="#m1ff101dae1" x="41.25" y="224.19976" style="stroke: #000000; stroke-width: 0.8"/>
      </g>
     </g>
     <g id="text_8">
      <!-- 0.1 -->
      <g transform="translate(20.35 227.778666)scale(0.1 -0.1)">
       <defs>
        <path id="ArialUnicodeMS-31" d="M 2400 0 
L 1838 0 
L 1838 3584 
Q 1416 3184 709 2906 
L 709 3450 
Q 1681 3916 2034 4603 
L 2400 4603 
L 2400 0 
z
" transform="scale(0.015625)"/>
       </defs>
       <use xlink:href="#ArialUnicodeMS-30"/>
       <use xlink:href="#ArialUnicodeMS-2e" x="55.615234"/>
       <use xlink:href="#ArialUnicodeMS-31" x="83.398438"/>
      </g>
     </g>
    </g>
    <g id="ytick_3">
     <g id="line2d_8">
      <g>
       <use xlink:href="#m1ff101dae1" x="41.25" y="187.18352" style="stroke: #000000; stroke-width: 0.8"/>
      </g>
     </g>
     <g id="text_9">
      <!-- 0.2 -->
      <g transform="translate(20.35 190.762426)scale(0.1 -0.1)">
       <use xlink:href="#ArialUnicodeMS-30"/>
       <use xlink:href="#ArialUnicodeMS-2e" x="55.615234"/>
       <use xlink:href="#ArialUnicodeMS-32" x="83.398438"/>
      </g>
     </g>
    </g>
    <g id="ytick_4">
     <g id="line2d_9">
      <g>
       <use xlink:href="#m1ff101dae1" x="41.25" y="150.16728" style="stroke: #000000; stroke-width: 0.8"/>
      </g>
     </g>
     <g id="text_10">
      <!-- 0.3 -->
      <g transform="translate(20.35 153.746186)scale(0.1 -0.1)">
       <defs>
        <path id="ArialUnicodeMS-33" d="M 2425 2478 
Q 2850 2397 3067 2067 
Q 3284 1738 3284 1350 
Q 3284 725 2829 323 
Q 2375 -78 1741 -78 
Q 1134 -78 740 275 
Q 347 628 281 1209 
L 844 1288 
Q 928 834 1151 609 
Q 1375 384 1741 384 
Q 2134 384 2407 661 
Q 2681 938 2681 1338 
Q 2681 1722 2432 1975 
Q 2184 2228 1784 2228 
Q 1622 2228 1388 2169 
L 1453 2663 
Q 1678 2663 1809 2684 
Q 1941 2706 2103 2790 
Q 2266 2875 2372 3033 
Q 2478 3191 2478 3425 
Q 2478 3766 2251 3953 
Q 2025 4141 1728 4141 
Q 1388 4141 1173 3925 
Q 959 3709 903 3309 
L 341 3413 
Q 450 4009 823 4306 
Q 1197 4603 1716 4603 
Q 2288 4603 2670 4258 
Q 3053 3913 3053 3413 
Q 3053 2772 2425 2491 
L 2425 2478 
z
" transform="scale(0.015625)"/>
       </defs>
       <use xlink:href="#ArialUnicodeMS-30"/>
       <use xlink:href="#ArialUnicodeMS-2e" x="55.615234"/>
       <use xlink:href="#ArialUnicodeMS-33" x="83.398438"/>
      </g>
     </g>
    </g>
    <g id="ytick_5">
     <g id="line2d_10">
      <g>
       <use xlink:href="#m1ff101dae1" x="41.25" y="113.15104" style="stroke: #000000; stroke-width: 0.8"/>
      </g>
     </g>
     <g id="text_11">
      <!-- 0.4 -->
      <g transform="translate(20.35 116.729946)scale(0.1 -0.1)">
       <use xlink:href="#ArialUnicodeMS-30"/>
       <use xlink:href="#ArialUnicodeMS-2e" x="55.615234"/>
       <use xlink:href="#ArialUnicodeMS-34" x="83.398438"/>
      </g>
     </g>
    </g>
    <g id="ytick_6">
     <g id="line2d_11">
      <g>
       <use xlink:href="#m1ff101dae1" x="41.25" y="76.1348" style="stroke: #000000; stroke-width: 0.8"/>
      </g>
     </g>
     <g id="text_12">
      <!-- 0.5 -->
      <g transform="translate(20.35 79.713706)scale(0.1 -0.1)">
       <defs>
        <path id="ArialUnicodeMS-35" d="M 1013 2753 
Q 1431 3041 1881 3041 
Q 2453 3041 2878 2636 
Q 3303 2231 3303 1556 
Q 3303 875 2872 398 
Q 2441 -78 1741 -78 
Q 1169 -78 750 245 
Q 331 569 269 1203 
L 856 1247 
Q 928 813 1162 598 
Q 1397 384 1741 384 
Q 2169 384 2434 707 
Q 2700 1031 2700 1503 
Q 2700 1984 2428 2262 
Q 2156 2541 1728 2541 
Q 1188 2541 897 2100 
L 366 2163 
L 813 4519 
L 3084 4519 
L 3084 3975 
L 1259 3975 
L 1013 2753 
z
" transform="scale(0.015625)"/>
       </defs>
       <use xlink:href="#ArialUnicodeMS-30"/>
       <use xlink:href="#ArialUnicodeMS-2e" x="55.615234"/>
       <use xlink:href="#ArialUnicodeMS-35" x="83.398438"/>
      </g>
     </g>
    </g>
    <g id="ytick_7">
     <g id="line2d_12">
      <g>
       <use xlink:href="#m1ff101dae1" x="41.25" y="39.11856" style="stroke: #000000; stroke-width: 0.8"/>
      </g>
     </g>
     <g id="text_13">
      <!-- 0.6 -->
      <g transform="translate(20.35 42.697466)scale(0.1 -0.1)">
       <use xlink:href="#ArialUnicodeMS-30"/>
       <use xlink:href="#ArialUnicodeMS-2e" x="55.615234"/>
       <use xlink:href="#ArialUnicodeMS-36" x="83.398438"/>
      </g>
     </g>
    </g>
    <g id="text_14">
     <!-- Dimension 1 -->
     <g transform="translate(14.357812 168.045062)rotate(-90)scale(0.1 -0.1)">
      <use xlink:href="#ArialUnicodeMS-44"/>
      <use xlink:href="#ArialUnicodeMS-69" x="72.216797"/>
      <use xlink:href="#ArialUnicodeMS-6d" x="94.433594"/>
      <use xlink:href="#ArialUnicodeMS-65" x="177.734375"/>
      <use xlink:href="#ArialUnicodeMS-6e" x="233.349609"/>
      <use xlink:href="#ArialUnicodeMS-73" x="288.964844"/>
      <use xlink:href="#ArialUnicodeMS-69" x="338.964844"/>
      <use xlink:href="#ArialUnicodeMS-6f" x="361.181641"/>
      <use xlink:href="#ArialUnicodeMS-6e" x="416.796875"/>
      <use xlink:href="#ArialUnicodeMS-20" x="472.412109"/>
      <use xlink:href="#ArialUnicodeMS-31" x="500.195312"/>
     </g>
    </g>
   </g>
   <g id="patch_3">
    <path d="M 41.25 273.312 
L 41.25 7.2 
" style="fill: none; stroke: #000000; stroke-width: 0.8; stroke-linejoin: miter; stroke-linecap: square"/>
   </g>
   <g id="patch_4">
    <path d="M 398.37 273.312 
L 398.37 7.2 
" style="fill: none; stroke: #000000; stroke-width: 0.8; stroke-linejoin: miter; stroke-linecap: square"/>
   </g>
   <g id="patch_5">
    <path d="M 41.25 273.312 
L 398.37 273.312 
" style="fill: none; stroke: #000000; stroke-width: 0.8; stroke-linejoin: miter; stroke-linecap: square"/>
   </g>
   <g id="patch_6">
    <path d="M 41.25 7.2 
L 398.37 7.2 
" style="fill: none; stroke: #000000; stroke-width: 0.8; stroke-linejoin: miter; stroke-linecap: square"/>
   </g>
   <g id="text_15">
    <!-- 马 -->
    <g transform="translate(60.970168 138.473851)scale(0.1 -0.1)">
     <defs>
      <path id="ArialUnicodeMS-9a6c" d="M 5709 2284 
Q 5709 1584 5542 804 
Q 5375 25 5219 -170 
Q 5063 -366 4688 -366 
Q 4419 -366 4103 -306 
L 3969 219 
Q 4581 103 4641 103 
Q 4797 103 4865 217 
Q 4934 331 5056 984 
Q 5178 1638 5203 2163 
L 1369 2163 
L 1369 2584 
Q 1616 3697 1678 4422 
L 2169 4313 
Q 2091 3638 1881 2631 
L 3853 2631 
Q 3944 3109 4084 4588 
L 897 4588 
L 897 5056 
L 4634 5056 
Q 4503 3431 4366 2631 
L 5709 2631 
L 5709 2284 
z
M 4513 959 
L 531 959 
L 531 1428 
L 4513 1428 
L 4513 959 
z
" transform="scale(0.015625)"/>
     </defs>
     <use xlink:href="#ArialUnicodeMS-9a6c"/>
    </g>
   </g>
   <g id="text_16">
    <!-- 鲨鱼 -->
    <g transform="translate(385.624713 223.51829)scale(0.1 -0.1)">
     <defs>
      <path id="ArialUnicodeMS-9ca8" d="M 4159 3897 
L 3694 3897 
L 3694 5259 
L 4159 5259 
L 4159 3897 
z
M 2150 4634 
L 1825 4306 
Q 1563 4709 1125 4934 
L 1416 5247 
Q 1922 5013 2150 4634 
z
M 3500 4588 
Q 3247 3941 2400 3566 
L 2034 3903 
Q 2669 4131 3156 4825 
L 3500 4588 
z
M 5819 4091 
L 5497 3706 
Q 5063 4253 4353 4453 
L 4609 4788 
Q 5297 4584 5819 4091 
z
M 1428 4056 
L 1088 3725 
Q 847 4138 384 4409 
L 659 4728 
Q 1156 4472 1428 4056 
z
M 5131 475 
L 1538 475 
L 1538 1691 
Q 1253 1503 672 1350 
L 416 1791 
Q 1541 2003 1931 2741 
L 1844 2741 
L 1625 3194 
Q 2959 3222 3673 3525 
Q 4388 3828 4709 4134 
L 5013 3803 
Q 4009 2956 2522 2803 
L 4288 2803 
L 4288 2413 
L 4072 2194 
L 5131 2194 
L 5131 475 
z
M 3609 2375 
L 2259 2375 
Q 2219 2309 2100 2194 
L 3425 2194 
L 3609 2375 
z
M 4666 1544 
L 4666 1766 
L 3572 1766 
L 3572 1544 
L 4666 1544 
z
M 3103 1544 
L 3103 1766 
L 2003 1766 
L 2003 1544 
L 3103 1544 
z
M 4666 878 
L 4666 1113 
L 3572 1113 
L 3572 878 
L 4666 878 
z
M 3103 878 
L 3103 1113 
L 2003 1113 
L 2003 878 
L 3103 878 
z
M 1753 3622 
Q 1513 2781 838 2234 
L 475 2619 
Q 1063 2941 1409 3859 
L 1753 3622 
z
M 5875 -306 
L 447 -306 
L 447 147 
L 5875 147 
L 5875 -306 
z
" transform="scale(0.015625)"/>
      <path id="ArialUnicodeMS-9c7c" d="M 5216 819 
L 1466 819 
L 1466 2847 
Q 1103 2547 800 2425 
L 544 2853 
Q 1866 3484 2522 5288 
L 2975 5131 
L 2731 4544 
L 4603 4544 
L 4603 4134 
Q 4369 3644 4213 3456 
L 5216 3456 
L 5216 819 
z
M 4031 4078 
L 2491 4078 
Q 2322 3791 2059 3456 
L 3609 3456 
Q 3934 3878 4031 4078 
z
M 4728 2431 
L 4728 2988 
L 3584 2988 
L 3584 2431 
L 4728 2431 
z
M 3097 2431 
L 3097 2988 
L 1953 2988 
L 1953 2431 
L 3097 2431 
z
M 4728 1288 
L 4728 1966 
L 3584 1966 
L 3584 1288 
L 4728 1288 
z
M 3097 1288 
L 3097 1966 
L 1953 1966 
L 1953 1288 
L 3097 1288 
z
M 5947 -97 
L 500 -97 
L 500 372 
L 5947 372 
L 5947 -97 
z
" transform="scale(0.015625)"/>
     </defs>
     <use xlink:href="#ArialUnicodeMS-9ca8"/>
     <use xlink:href="#ArialUnicodeMS-9c7c" x="100"/>
    </g>
   </g>
   <g id="text_17">
    <!-- 鸟类 -->
    <g transform="translate(138.440162 115.840268)scale(0.1 -0.1)">
     <defs>
      <path id="ArialUnicodeMS-9e1f" d="M 5709 2272 
Q 5581 831 5522 423 
Q 5463 16 5297 -162 
Q 5131 -341 4816 -341 
Q 4547 -341 4063 -250 
L 3944 306 
Q 4644 109 4800 109 
Q 4894 109 4947 162 
Q 5000 216 5065 695 
Q 5131 1175 5178 1806 
L 1350 1806 
L 1350 4703 
L 2316 4703 
Q 2550 5050 2638 5388 
L 3097 5197 
Q 2950 4825 2853 4703 
L 4756 4703 
Q 4738 3978 4666 3468 
Q 4594 2959 4516 2779 
Q 4438 2600 4298 2517 
Q 4159 2434 3934 2434 
Q 3716 2434 3328 2497 
L 3194 3041 
Q 3300 3025 3523 2969 
Q 3747 2913 3869 2913 
Q 3988 2913 4036 3011 
Q 4084 3109 4140 3417 
Q 4197 3725 4238 4238 
L 1838 4238 
L 1838 2272 
L 5709 2272 
z
M 3303 3353 
L 2956 2994 
Q 2509 3513 2034 3738 
L 2344 4072 
Q 2944 3809 3303 3353 
z
M 4672 800 
L 513 800 
L 513 1269 
L 4672 1269 
L 4672 800 
z
" transform="scale(0.015625)"/>
      <path id="ArialUnicodeMS-7c7b" d="M 5663 3634 
L 3347 3634 
L 3347 2431 
L 2859 2431 
L 2859 3547 
L 2841 3547 
Q 2131 2678 581 2328 
L 288 2747 
Q 1594 3016 2272 3634 
L 544 3634 
L 544 4103 
L 2859 4103 
L 2859 5338 
L 3347 5338 
L 3347 4103 
L 5663 4103 
L 5663 3634 
z
M 5063 5013 
Q 4613 4425 4044 4197 
L 3681 4538 
Q 4403 4869 4672 5281 
L 5063 5013 
z
M 2509 4500 
L 2100 4166 
Q 1709 4666 1203 4941 
L 1569 5228 
Q 2069 5009 2509 4500 
z
M 5478 2766 
L 5228 2388 
Q 4450 2906 3456 3188 
L 3706 3541 
Q 4634 3341 5478 2766 
z
M 6069 56 
L 5778 -353 
Q 4766 -91 4192 284 
Q 3619 659 3278 1472 
L 3188 1472 
Q 2728 50 525 -397 
L 250 38 
Q 1353 219 1934 623 
Q 2516 1028 2681 1472 
L 403 1472 
L 403 1941 
L 2822 1941 
L 2881 2356 
L 3322 2328 
Q 3322 2175 3272 1941 
L 5850 1941 
L 5850 1472 
L 3744 1472 
Q 3894 1147 4225 847 
Q 4556 547 4840 437 
Q 5125 328 6069 56 
z
" transform="scale(0.015625)"/>
     </defs>
     <use xlink:href="#ArialUnicodeMS-9e1f"/>
     <use xlink:href="#ArialUnicodeMS-7c7b" x="100"/>
    </g>
   </g>
   <g id="text_18">
    <!-- 人 -->
    <g transform="translate(224.62109 29.504712)scale(0.1 -0.1)">
     <defs>
      <path id="ArialUnicodeMS-4eba" d="M 6034 109 
L 5663 -306 
Q 3916 569 3213 2272 
Q 2581 763 838 -288 
L 453 91 
Q 1166 503 1692 1025 
Q 2219 1547 2522 2075 
Q 2825 2603 2912 3243 
Q 3000 3884 3009 5159 
L 3519 5159 
Q 3525 4763 3475 4111 
Q 3425 3459 3425 3078 
Q 3425 2813 3754 2188 
Q 4084 1563 4632 1020 
Q 5181 478 6034 109 
z
" transform="scale(0.015625)"/>
     </defs>
     <use xlink:href="#ArialUnicodeMS-4eba"/>
    </g>
   </g>
   <g id="text_19">
    <!-- 蛇 -->
    <g transform="translate(171.220708 19.296)scale(0.1 -0.1)">
     <defs>
      <path id="ArialUnicodeMS-86c7" d="M 3309 294 
L 2875 91 
Q 2750 403 2669 569 
Q 1050 66 531 -78 
L 263 397 
Q 959 541 1447 703 
L 1447 1697 
L 641 1697 
L 641 4109 
L 1447 4109 
L 1447 5300 
L 1931 5300 
L 1931 4109 
L 2766 4109 
L 2766 1697 
L 1931 1697 
L 1931 838 
Q 2275 934 2369 972 
Q 2184 1263 2094 1306 
L 2528 1491 
Q 2981 1125 3309 294 
z
M 2278 2163 
L 2278 3641 
L 1931 3641 
L 1931 2163 
L 2278 2163 
z
M 1447 2163 
L 1447 3641 
L 1125 3641 
L 1125 2163 
L 1447 2163 
z
M 5875 3138 
L 5394 3138 
L 5394 3866 
L 3391 3866 
L 3391 3156 
L 2925 3156 
L 2925 4331 
L 4134 4331 
L 4134 5259 
L 4634 5259 
L 4634 4331 
L 5875 4331 
L 5875 3138 
z
M 6138 959 
Q 6028 159 5818 -42 
Q 5609 -244 5453 -244 
L 4078 -244 
Q 3803 -197 3684 -3 
Q 3566 191 3566 353 
L 3566 3391 
L 4050 3391 
L 4050 2028 
Q 4803 2216 5478 2841 
L 5863 2566 
Q 5019 1744 4050 1550 
L 4050 391 
Q 4091 197 4256 197 
L 5350 197 
Q 5434 197 5509 336 
Q 5584 475 5663 1172 
L 6138 959 
z
" transform="scale(0.015625)"/>
     </defs>
     <use xlink:href="#ArialUnicodeMS-86c7"/>
    </g>
   </g>
  </g>
 </g>
 <defs>
  <clipPath id="pe37000f1df">
   <rect x="41.25" y="7.2" width="357.12" height="266.112"/>
  </clipPath>
 </defs>
</svg>
