<?xml version="1.0" encoding="utf-8" standalone="no"?>
<!DOCTYPE svg PUBLIC "-//W3C//DTD SVG 1.1//EN"
  "http://www.w3.org/Graphics/SVG/1.1/DTD/svg11.dtd">
<svg xmlns:xlink="http://www.w3.org/1999/xlink" width="423.33666pt" height="326.548719pt" viewBox="0 0 423.33666 326.548719" xmlns="http://www.w3.org/2000/svg" version="1.1">
 <metadata>
  <rdf:RDF xmlns:dc="http://purl.org/dc/elements/1.1/" xmlns:cc="http://creativecommons.org/ns#" xmlns:rdf="http://www.w3.org/1999/02/22-rdf-syntax-ns#">
   <cc:Work>
    <dc:type rdf:resource="http://purl.org/dc/dcmitype/StillImage"/>
    <dc:date>2023-03-02T17:21:36.935033</dc:date>
    <dc:format>image/svg+xml</dc:format>
    <dc:creator>
     <cc:Agent>
      <dc:title>Matplotlib v3.5.2, https://matplotlib.org/</dc:title>
     </cc:Agent>
    </dc:creator>
   </cc:Work>
  </rdf:RDF>
 </metadata>
 <defs>
  <style type="text/css">*{stroke-linejoin: round; stroke-linecap: butt}</style>
 </defs>
 <g id="figure_1">
  <g id="patch_1">
   <path d="M 0 326.548719 
L 423.33666 326.548719 
L 423.33666 0 
L 0 0 
z
" style="fill: #ffffff"/>
  </g>
  <g id="axes_1">
   <g id="patch_2">
    <path d="M 46.810938 290.048719 
L 403.930938 290.048719 
L 403.930938 23.936719 
L 46.810938 23.936719 
z
" style="fill: #ffffff"/>
   </g>
   <g id="PathCollection_1">
    <defs>
     <path id="m460eb7cbb1" d="M 0 0.05 
C 0.01326 0.05 0.025979 0.044732 0.035355 0.035355 
C 0.044732 0.025979 0.05 0.01326 0.05 0 
C 0.05 -0.01326 0.044732 -0.025979 0.035355 -0.035355 
C 0.025979 -0.044732 0.01326 -0.05 0 -0.05 
C -0.01326 -0.05 -0.025979 -0.044732 -0.035355 -0.035355 
C -0.044732 -0.025979 -0.05 -0.01326 -0.05 0 
C -0.05 0.01326 -0.044732 0.025979 -0.035355 0.035355 
C -0.025979 0.044732 -0.01326 0.05 0 0.05 
z
" style="stroke: #ffffff"/>
    </defs>
    <g clip-path="url(#pfc447bdf96)">
     <use xlink:href="#m460eb7cbb1" x="267.711333" y="91.00061" style="fill: #ffffff; stroke: #ffffff"/>
     <use xlink:href="#m460eb7cbb1" x="310.982967" y="68.141037" style="fill: #ffffff; stroke: #ffffff"/>
     <use xlink:href="#m460eb7cbb1" x="336.347809" y="36.032719" style="fill: #ffffff; stroke: #ffffff"/>
     <use xlink:href="#m460eb7cbb1" x="387.69821" y="104.8208" style="fill: #ffffff; stroke: #ffffff"/>
    </g>
   </g>
   <g id="Quiver_1">
    <path d="M 62.140468 276.963935 
L 257.909086 98.140596 
L 255.11391 97.066226 
L 267.711333 91.00061 
L 260.533089 102.998926 
L 259.715479 100.118162 
L 63.946861 278.941502 
L 62.140468 276.963935 
" clip-path="url(#pfc447bdf96)" style="fill: #800080"/>
    <path d="M 62.178578 276.930426 
L 300.917247 74.904522 
L 298.164782 73.725024 
L 310.982967 68.141037 
L 303.355301 79.858779 
L 302.64742 76.949108 
L 63.908751 278.975011 
L 62.178578 276.930426 
" clip-path="url(#pfc447bdf96)" style="fill: #008000"/>
    <path d="M 62.156035 276.949937 
L 326.435148 43.018604 
L 323.657108 41.900671 
L 336.347809 36.032719 
L 328.982885 47.917359 
L 328.210407 45.024167 
L 63.931294 278.9555 
L 62.156035 276.949937 
" clip-path="url(#pfc447bdf96)" style="fill: #0000ff"/>
    <path d="M 62.413502 276.771046 
L 376.43299 109.310595 
L 373.990991 107.577412 
L 387.69821 104.8208 
L 377.771969 114.66745 
L 377.693316 111.673941 
L 63.673828 279.134392 
L 62.413502 276.771046 
" clip-path="url(#pfc447bdf96)" style="fill: #ff0000"/>
   </g>
   <g id="matplotlib.axis_1">
    <g id="xtick_1">
     <g id="line2d_1">
      <defs>
       <path id="mf2a72d4a97" d="M 0 0 
L 0 3.5 
" style="stroke: #000000; stroke-width: 0.8"/>
      </defs>
      <g>
       <use xlink:href="#mf2a72d4a97" x="63.043665" y="290.048719" style="stroke: #000000; stroke-width: 0.8"/>
      </g>
     </g>
     <g id="text_1">
      <!-- 0.00 -->
      <g transform="translate(53.313196 304.206531)scale(0.1 -0.1)">
       <defs>
        <path id="ArialUnicodeMS-30" d="M 1778 4603 
Q 3272 4603 3272 2259 
Q 3272 1075 2886 498 
Q 2500 -78 1778 -78 
Q 288 -78 288 2259 
Q 288 3444 673 4023 
Q 1059 4603 1778 4603 
z
M 1778 384 
Q 2231 384 2462 823 
Q 2694 1263 2694 2259 
Q 2694 2953 2592 3351 
Q 2491 3750 2286 3945 
Q 2081 4141 1772 4141 
Q 1319 4141 1091 3694 
Q 863 3247 863 2259 
Q 863 1575 966 1175 
Q 1069 775 1272 579 
Q 1475 384 1778 384 
z
" transform="scale(0.015625)"/>
        <path id="ArialUnicodeMS-2e" d="M 1209 0 
L 569 0 
L 569 641 
L 1209 641 
L 1209 0 
z
" transform="scale(0.015625)"/>
       </defs>
       <use xlink:href="#ArialUnicodeMS-30"/>
       <use xlink:href="#ArialUnicodeMS-2e" x="55.615234"/>
       <use xlink:href="#ArialUnicodeMS-30" x="83.398438"/>
       <use xlink:href="#ArialUnicodeMS-30" x="139.013672"/>
      </g>
     </g>
    </g>
    <g id="xtick_2">
     <g id="line2d_2">
      <g>
       <use xlink:href="#mf2a72d4a97" x="105.235913" y="290.048719" style="stroke: #000000; stroke-width: 0.8"/>
      </g>
     </g>
     <g id="text_2">
      <!-- 0.05 -->
      <g transform="translate(95.505444 304.206531)scale(0.1 -0.1)">
       <defs>
        <path id="ArialUnicodeMS-35" d="M 1013 2753 
Q 1431 3041 1881 3041 
Q 2453 3041 2878 2636 
Q 3303 2231 3303 1556 
Q 3303 875 2872 398 
Q 2441 -78 1741 -78 
Q 1169 -78 750 245 
Q 331 569 269 1203 
L 856 1247 
Q 928 813 1162 598 
Q 1397 384 1741 384 
Q 2169 384 2434 707 
Q 2700 1031 2700 1503 
Q 2700 1984 2428 2262 
Q 2156 2541 1728 2541 
Q 1188 2541 897 2100 
L 366 2163 
L 813 4519 
L 3084 4519 
L 3084 3975 
L 1259 3975 
L 1013 2753 
z
" transform="scale(0.015625)"/>
       </defs>
       <use xlink:href="#ArialUnicodeMS-30"/>
       <use xlink:href="#ArialUnicodeMS-2e" x="55.615234"/>
       <use xlink:href="#ArialUnicodeMS-30" x="83.398438"/>
       <use xlink:href="#ArialUnicodeMS-35" x="139.013672"/>
      </g>
     </g>
    </g>
    <g id="xtick_3">
     <g id="line2d_3">
      <g>
       <use xlink:href="#mf2a72d4a97" x="147.428161" y="290.048719" style="stroke: #000000; stroke-width: 0.8"/>
      </g>
     </g>
     <g id="text_3">
      <!-- 0.10 -->
      <g transform="translate(137.697693 304.206531)scale(0.1 -0.1)">
       <defs>
        <path id="ArialUnicodeMS-31" d="M 2400 0 
L 1838 0 
L 1838 3584 
Q 1416 3184 709 2906 
L 709 3450 
Q 1681 3916 2034 4603 
L 2400 4603 
L 2400 0 
z
" transform="scale(0.015625)"/>
       </defs>
       <use xlink:href="#ArialUnicodeMS-30"/>
       <use xlink:href="#ArialUnicodeMS-2e" x="55.615234"/>
       <use xlink:href="#ArialUnicodeMS-31" x="83.398438"/>
       <use xlink:href="#ArialUnicodeMS-30" x="139.013672"/>
      </g>
     </g>
    </g>
    <g id="xtick_4">
     <g id="line2d_4">
      <g>
       <use xlink:href="#mf2a72d4a97" x="189.62041" y="290.048719" style="stroke: #000000; stroke-width: 0.8"/>
      </g>
     </g>
     <g id="text_4">
      <!-- 0.15 -->
      <g transform="translate(179.889941 304.206531)scale(0.1 -0.1)">
       <use xlink:href="#ArialUnicodeMS-30"/>
       <use xlink:href="#ArialUnicodeMS-2e" x="55.615234"/>
       <use xlink:href="#ArialUnicodeMS-31" x="83.398438"/>
       <use xlink:href="#ArialUnicodeMS-35" x="139.013672"/>
      </g>
     </g>
    </g>
    <g id="xtick_5">
     <g id="line2d_5">
      <g>
       <use xlink:href="#mf2a72d4a97" x="231.812658" y="290.048719" style="stroke: #000000; stroke-width: 0.8"/>
      </g>
     </g>
     <g id="text_5">
      <!-- 0.20 -->
      <g transform="translate(222.082189 304.206531)scale(0.1 -0.1)">
       <defs>
        <path id="ArialUnicodeMS-32" d="M 3231 0 
L 197 0 
Q 197 388 467 784 
Q 738 1181 1478 1778 
Q 1931 2141 2287 2539 
Q 2644 2938 2644 3341 
Q 2644 3688 2398 3914 
Q 2153 4141 1778 4141 
Q 1400 4141 1144 3908 
Q 888 3675 884 3213 
L 306 3278 
Q 359 3922 764 4262 
Q 1169 4603 1791 4603 
Q 2466 4603 2842 4229 
Q 3219 3856 3219 3328 
Q 3219 2888 2901 2436 
Q 2584 1984 1638 1228 
Q 1141 831 978 544 
L 3231 544 
L 3231 0 
z
" transform="scale(0.015625)"/>
       </defs>
       <use xlink:href="#ArialUnicodeMS-30"/>
       <use xlink:href="#ArialUnicodeMS-2e" x="55.615234"/>
       <use xlink:href="#ArialUnicodeMS-32" x="83.398438"/>
       <use xlink:href="#ArialUnicodeMS-30" x="139.013672"/>
      </g>
     </g>
    </g>
    <g id="xtick_6">
     <g id="line2d_6">
      <g>
       <use xlink:href="#mf2a72d4a97" x="274.004906" y="290.048719" style="stroke: #000000; stroke-width: 0.8"/>
      </g>
     </g>
     <g id="text_6">
      <!-- 0.25 -->
      <g transform="translate(264.274438 304.206531)scale(0.1 -0.1)">
       <use xlink:href="#ArialUnicodeMS-30"/>
       <use xlink:href="#ArialUnicodeMS-2e" x="55.615234"/>
       <use xlink:href="#ArialUnicodeMS-32" x="83.398438"/>
       <use xlink:href="#ArialUnicodeMS-35" x="139.013672"/>
      </g>
     </g>
    </g>
    <g id="xtick_7">
     <g id="line2d_7">
      <g>
       <use xlink:href="#mf2a72d4a97" x="316.197155" y="290.048719" style="stroke: #000000; stroke-width: 0.8"/>
      </g>
     </g>
     <g id="text_7">
      <!-- 0.30 -->
      <g transform="translate(306.466686 304.206531)scale(0.1 -0.1)">
       <defs>
        <path id="ArialUnicodeMS-33" d="M 2425 2478 
Q 2850 2397 3067 2067 
Q 3284 1738 3284 1350 
Q 3284 725 2829 323 
Q 2375 -78 1741 -78 
Q 1134 -78 740 275 
Q 347 628 281 1209 
L 844 1288 
Q 928 834 1151 609 
Q 1375 384 1741 384 
Q 2134 384 2407 661 
Q 2681 938 2681 1338 
Q 2681 1722 2432 1975 
Q 2184 2228 1784 2228 
Q 1622 2228 1388 2169 
L 1453 2663 
Q 1678 2663 1809 2684 
Q 1941 2706 2103 2790 
Q 2266 2875 2372 3033 
Q 2478 3191 2478 3425 
Q 2478 3766 2251 3953 
Q 2025 4141 1728 4141 
Q 1388 4141 1173 3925 
Q 959 3709 903 3309 
L 341 3413 
Q 450 4009 823 4306 
Q 1197 4603 1716 4603 
Q 2288 4603 2670 4258 
Q 3053 3913 3053 3413 
Q 3053 2772 2425 2491 
L 2425 2478 
z
" transform="scale(0.015625)"/>
       </defs>
       <use xlink:href="#ArialUnicodeMS-30"/>
       <use xlink:href="#ArialUnicodeMS-2e" x="55.615234"/>
       <use xlink:href="#ArialUnicodeMS-33" x="83.398438"/>
       <use xlink:href="#ArialUnicodeMS-30" x="139.013672"/>
      </g>
     </g>
    </g>
    <g id="xtick_8">
     <g id="line2d_8">
      <g>
       <use xlink:href="#mf2a72d4a97" x="358.389403" y="290.048719" style="stroke: #000000; stroke-width: 0.8"/>
      </g>
     </g>
     <g id="text_8">
      <!-- 0.35 -->
      <g transform="translate(348.658934 304.206531)scale(0.1 -0.1)">
       <use xlink:href="#ArialUnicodeMS-30"/>
       <use xlink:href="#ArialUnicodeMS-2e" x="55.615234"/>
       <use xlink:href="#ArialUnicodeMS-33" x="83.398438"/>
       <use xlink:href="#ArialUnicodeMS-35" x="139.013672"/>
      </g>
     </g>
    </g>
    <g id="xtick_9">
     <g id="line2d_9">
      <g>
       <use xlink:href="#mf2a72d4a97" x="400.581651" y="290.048719" style="stroke: #000000; stroke-width: 0.8"/>
      </g>
     </g>
     <g id="text_9">
      <!-- 0.40 -->
      <g transform="translate(390.851182 304.206531)scale(0.1 -0.1)">
       <defs>
        <path id="ArialUnicodeMS-34" d="M 3263 1094 
L 2644 1094 
L 2644 0 
L 2081 0 
L 2081 1094 
L 97 1094 
L 97 1613 
L 2181 4581 
L 2644 4581 
L 2644 1613 
L 3263 1613 
L 3263 1094 
z
M 2081 1613 
L 2081 3681 
L 2069 3681 
L 647 1613 
L 2081 1613 
z
" transform="scale(0.015625)"/>
       </defs>
       <use xlink:href="#ArialUnicodeMS-30"/>
       <use xlink:href="#ArialUnicodeMS-2e" x="55.615234"/>
       <use xlink:href="#ArialUnicodeMS-34" x="83.398438"/>
       <use xlink:href="#ArialUnicodeMS-30" x="139.013672"/>
      </g>
     </g>
    </g>
    <g id="text_10">
     <!-- 弱小 -->
     <g transform="translate(215.370937 317.356531)scale(0.1 -0.1)">
      <defs>
       <path id="ArialUnicodeMS-5f31" d="M 3116 2919 
Q 3072 544 2897 69 
Q 2722 -406 2181 -406 
Q 1878 -406 1631 -325 
L 1434 206 
Q 1922 78 2141 78 
Q 2353 78 2439 239 
Q 2525 400 2564 983 
Q 2603 1566 2625 2450 
L 1209 2450 
L 1178 2247 
L 691 2291 
L 872 3969 
L 2547 3969 
L 2547 4569 
L 678 4569 
L 678 5038 
L 3034 5038 
L 3034 3500 
L 1306 3500 
L 1234 2919 
L 3116 2919 
z
M 5869 2913 
Q 5834 797 5695 190 
Q 5556 -416 4916 -416 
Q 4631 -416 4384 -341 
L 4191 197 
Q 4681 72 4900 72 
Q 5125 72 5203 256 
Q 5281 441 5315 895 
Q 5350 1350 5375 2444 
L 3909 2444 
L 3878 2241 
L 3391 2278 
L 3572 3963 
L 5259 3963 
L 5259 4563 
L 3378 4563 
L 3378 5031 
L 5747 5031 
L 5747 3494 
L 4006 3494 
L 3938 2913 
L 5869 2913 
z
M 4953 1625 
L 4653 1228 
Q 4081 1738 3372 1838 
L 3731 2203 
Q 4322 2084 4953 1625 
z
M 2222 1625 
L 1925 1228 
Q 1344 1738 641 1838 
L 997 2203 
Q 1588 2084 2222 1625 
z
M 2413 850 
L 666 178 
L 359 575 
L 2413 1331 
L 2413 850 
z
M 5184 844 
L 3419 275 
L 3128 659 
L 5184 1325 
L 5184 844 
z
" transform="scale(0.015625)"/>
       <path id="ArialUnicodeMS-5c0f" d="M 3475 434 
Q 3475 59 3267 -100 
Q 3059 -259 2634 -259 
L 2244 -250 
Q 2147 -250 2069 -256 
L 1856 269 
Q 2253 238 2528 238 
Q 2841 238 2905 281 
Q 2969 325 2969 434 
L 2969 5234 
L 3475 5234 
L 3475 434 
z
M 5931 1709 
L 5472 1484 
Q 5088 2713 4019 3688 
L 4475 3928 
Q 5584 2922 5931 1709 
z
M 2181 3706 
Q 1769 2356 850 1459 
L 453 1791 
Q 1372 2700 1753 3922 
L 2181 3706 
z
" transform="scale(0.015625)"/>
      </defs>
      <use xlink:href="#ArialUnicodeMS-5f31"/>
      <use xlink:href="#ArialUnicodeMS-5c0f" x="100"/>
     </g>
    </g>
   </g>
   <g id="matplotlib.axis_2">
    <g id="ytick_1">
     <g id="line2d_10">
      <defs>
       <path id="ma092083a31" d="M 0 0 
L -3.5 0 
" style="stroke: #000000; stroke-width: 0.8"/>
      </defs>
      <g>
       <use xlink:href="#ma092083a31" x="46.810938" y="277.952719" style="stroke: #000000; stroke-width: 0.8"/>
      </g>
     </g>
     <g id="text_11">
      <!-- 0.00 -->
      <g transform="translate(20.35 281.531625)scale(0.1 -0.1)">
       <use xlink:href="#ArialUnicodeMS-30"/>
       <use xlink:href="#ArialUnicodeMS-2e" x="55.615234"/>
       <use xlink:href="#ArialUnicodeMS-30" x="83.398438"/>
       <use xlink:href="#ArialUnicodeMS-30" x="139.013672"/>
      </g>
     </g>
    </g>
    <g id="ytick_2">
     <g id="line2d_11">
      <g>
       <use xlink:href="#ma092083a31" x="46.810938" y="229.567363" style="stroke: #000000; stroke-width: 0.8"/>
      </g>
     </g>
     <g id="text_12">
      <!-- 0.05 -->
      <g transform="translate(20.35 233.14627)scale(0.1 -0.1)">
       <use xlink:href="#ArialUnicodeMS-30"/>
       <use xlink:href="#ArialUnicodeMS-2e" x="55.615234"/>
       <use xlink:href="#ArialUnicodeMS-30" x="83.398438"/>
       <use xlink:href="#ArialUnicodeMS-35" x="139.013672"/>
      </g>
     </g>
    </g>
    <g id="ytick_3">
     <g id="line2d_12">
      <g>
       <use xlink:href="#ma092083a31" x="46.810938" y="181.182008" style="stroke: #000000; stroke-width: 0.8"/>
      </g>
     </g>
     <g id="text_13">
      <!-- 0.10 -->
      <g transform="translate(20.35 184.760914)scale(0.1 -0.1)">
       <use xlink:href="#ArialUnicodeMS-30"/>
       <use xlink:href="#ArialUnicodeMS-2e" x="55.615234"/>
       <use xlink:href="#ArialUnicodeMS-31" x="83.398438"/>
       <use xlink:href="#ArialUnicodeMS-30" x="139.013672"/>
      </g>
     </g>
    </g>
    <g id="ytick_4">
     <g id="line2d_13">
      <g>
       <use xlink:href="#ma092083a31" x="46.810938" y="132.796652" style="stroke: #000000; stroke-width: 0.8"/>
      </g>
     </g>
     <g id="text_14">
      <!-- 0.15 -->
      <g transform="translate(20.35 136.375559)scale(0.1 -0.1)">
       <use xlink:href="#ArialUnicodeMS-30"/>
       <use xlink:href="#ArialUnicodeMS-2e" x="55.615234"/>
       <use xlink:href="#ArialUnicodeMS-31" x="83.398438"/>
       <use xlink:href="#ArialUnicodeMS-35" x="139.013672"/>
      </g>
     </g>
    </g>
    <g id="ytick_5">
     <g id="line2d_14">
      <g>
       <use xlink:href="#ma092083a31" x="46.810938" y="84.411297" style="stroke: #000000; stroke-width: 0.8"/>
      </g>
     </g>
     <g id="text_15">
      <!-- 0.20 -->
      <g transform="translate(20.35 87.990203)scale(0.1 -0.1)">
       <use xlink:href="#ArialUnicodeMS-30"/>
       <use xlink:href="#ArialUnicodeMS-2e" x="55.615234"/>
       <use xlink:href="#ArialUnicodeMS-32" x="83.398438"/>
       <use xlink:href="#ArialUnicodeMS-30" x="139.013672"/>
      </g>
     </g>
    </g>
    <g id="ytick_6">
     <g id="line2d_15">
      <g>
       <use xlink:href="#ma092083a31" x="46.810938" y="36.025941" style="stroke: #000000; stroke-width: 0.8"/>
      </g>
     </g>
     <g id="text_16">
      <!-- 0.25 -->
      <g transform="translate(20.35 39.604848)scale(0.1 -0.1)">
       <use xlink:href="#ArialUnicodeMS-30"/>
       <use xlink:href="#ArialUnicodeMS-2e" x="55.615234"/>
       <use xlink:href="#ArialUnicodeMS-32" x="83.398438"/>
       <use xlink:href="#ArialUnicodeMS-35" x="139.013672"/>
      </g>
     </g>
    </g>
    <g id="text_17">
     <!-- 强大 -->
     <g transform="translate(14.357813 166.992719)rotate(-90)scale(0.1 -0.1)">
      <defs>
       <path id="ArialUnicodeMS-5f3a" d="M 2478 2316 
Q 2313 159 2092 -158 
Q 1872 -475 1594 -475 
Q 1431 -475 897 -384 
L 769 116 
L 1497 6 
Q 1650 -41 1745 342 
Q 1841 725 1966 1850 
L 1013 1850 
L 891 1434 
L 403 1528 
Q 684 2422 775 3634 
L 1978 3634 
L 1978 4441 
L 422 4441 
L 422 4903 
L 2463 4903 
L 2463 3175 
L 1222 3175 
L 1100 2316 
L 2478 2316 
z
M 6016 -206 
L 5613 -469 
Q 5363 -78 5306 0 
L 2700 -341 
L 2438 141 
Q 3069 175 3884 269 
L 3884 1234 
L 3144 1234 
L 3144 831 
L 2656 831 
L 2656 3022 
L 3884 3022 
L 3884 3284 
L 2944 3284 
L 2944 4838 
L 5394 4838 
L 5394 3284 
L 4372 3284 
L 4372 3022 
L 5631 3022 
L 5631 916 
L 5147 916 
L 5147 1234 
L 4372 1234 
L 4372 313 
L 4941 409 
Q 4872 453 4739 570 
Q 4606 688 4544 728 
L 4966 947 
Q 5709 425 6016 -206 
z
M 4909 3744 
L 4909 4378 
L 3406 4378 
L 3406 3744 
L 4909 3744 
z
M 5147 1697 
L 5147 2559 
L 4372 2559 
L 4372 1697 
L 5147 1697 
z
M 3884 1697 
L 3884 2559 
L 3144 2559 
L 3144 1697 
L 3884 1697 
z
" transform="scale(0.015625)"/>
       <path id="ArialUnicodeMS-5927" d="M 5972 109 
L 5625 -275 
Q 4584 341 4046 1159 
Q 3509 1978 3322 3250 
Q 3088 1959 2520 1142 
Q 1953 325 909 -244 
L 544 197 
Q 2403 1081 2809 3256 
L 856 3256 
L 856 3744 
L 2853 3744 
Q 2919 4313 2900 5356 
L 3419 5281 
Q 3434 4266 3384 3744 
L 5684 3744 
L 5684 3256 
L 3803 3256 
Q 4003 2125 4512 1389 
Q 5022 653 5972 109 
z
" transform="scale(0.015625)"/>
      </defs>
      <use xlink:href="#ArialUnicodeMS-5f3a"/>
      <use xlink:href="#ArialUnicodeMS-5927" x="100"/>
     </g>
    </g>
   </g>
   <g id="patch_3">
    <path d="M 46.810938 290.048719 
L 46.810938 23.936719 
" style="fill: none; stroke: #000000; stroke-width: 0.8; stroke-linejoin: miter; stroke-linecap: square"/>
   </g>
   <g id="patch_4">
    <path d="M 403.930938 290.048719 
L 403.930938 23.936719 
" style="fill: none; stroke: #000000; stroke-width: 0.8; stroke-linejoin: miter; stroke-linecap: square"/>
   </g>
   <g id="patch_5">
    <path d="M 46.810937 290.048719 
L 403.930938 290.048719 
" style="fill: none; stroke: #000000; stroke-width: 0.8; stroke-linejoin: miter; stroke-linecap: square"/>
   </g>
   <g id="patch_6">
    <path d="M 46.810937 23.936719 
L 403.930938 23.936719 
" style="fill: none; stroke: #000000; stroke-width: 0.8; stroke-linejoin: miter; stroke-linecap: square"/>
   </g>
   <g id="text_18">
    <!-- 美国 -->
    <g transform="translate(276.149783 91.00061)scale(0.1 -0.1)">
     <defs>
      <path id="ArialUnicodeMS-7f8e" d="M 5972 2209 
L 475 2209 
L 475 2675 
L 2950 2675 
L 2950 3219 
L 1281 3219 
L 1281 3688 
L 2950 3688 
L 2950 4153 
L 844 4153 
L 844 4622 
L 2188 4622 
Q 1956 4941 1619 5141 
L 2053 5381 
Q 2441 5166 2784 4622 
L 3616 4622 
Q 4103 5041 4347 5409 
L 4769 5094 
Q 4534 4769 4306 4634 
L 4306 4622 
L 5581 4622 
L 5581 4153 
L 3475 4153 
L 3475 3688 
L 5159 3688 
L 5159 3219 
L 3475 3219 
L 3475 2675 
L 5972 2675 
L 5972 2209 
z
M 6113 56 
L 5813 -391 
Q 3891 -44 3244 1222 
L 3219 1222 
Q 3034 638 2270 191 
Q 1506 -256 550 -372 
L 288 84 
Q 1106 166 1786 481 
Q 2466 797 2688 1234 
L 769 1234 
L 769 1703 
L 2853 1703 
Q 2906 1909 2906 2175 
L 3406 2088 
Q 3394 1859 3353 1703 
L 5650 1703 
L 5650 1234 
L 3763 1234 
Q 4378 356 6113 56 
z
" transform="scale(0.015625)"/>
      <path id="ArialUnicodeMS-56fd" d="M 5619 -378 
L 5166 -378 
L 5166 72 
L 1269 72 
L 1269 -378 
L 781 -378 
L 781 5050 
L 5619 5050 
L 5619 -378 
z
M 5166 513 
L 5166 4581 
L 1269 4581 
L 1269 513 
L 5166 513 
z
M 5006 972 
L 1394 972 
L 1394 1416 
L 2944 1416 
L 2944 2503 
L 1672 2503 
L 1672 2944 
L 2944 2944 
L 2944 3756 
L 1453 3756 
L 1453 4197 
L 4941 4197 
L 4941 3756 
L 3397 3756 
L 3397 2944 
L 4738 2944 
L 4738 2503 
L 3397 2503 
L 3397 1416 
L 5006 1416 
L 5006 972 
z
M 4750 1703 
L 4409 1459 
Q 4038 1956 3616 2194 
L 3928 2444 
Q 4509 2094 4750 1703 
z
" transform="scale(0.015625)"/>
     </defs>
     <use xlink:href="#ArialUnicodeMS-7f8e"/>
     <use xlink:href="#ArialUnicodeMS-56fd" x="100"/>
    </g>
   </g>
   <g id="text_19">
    <!-- 中国 -->
    <g transform="translate(319.421417 68.141037)scale(0.1 -0.1)">
     <defs>
      <path id="ArialUnicodeMS-4e2d" d="M 5503 1306 
L 4997 1306 
L 4997 1741 
L 3431 1741 
L 3431 -416 
L 2925 -416 
L 2925 1741 
L 1356 1741 
L 1344 1281 
L 838 1281 
L 838 4116 
L 2925 4116 
L 2925 5288 
L 3438 5288 
L 3425 4116 
L 5503 4116 
L 5503 1306 
z
M 4997 2209 
L 4997 3647 
L 3431 3647 
L 3431 2209 
L 4997 2209 
z
M 2925 2209 
L 2925 3647 
L 1344 3647 
L 1344 2209 
L 2925 2209 
z
" transform="scale(0.015625)"/>
     </defs>
     <use xlink:href="#ArialUnicodeMS-4e2d"/>
     <use xlink:href="#ArialUnicodeMS-56fd" x="100"/>
    </g>
   </g>
   <g id="text_20">
    <!-- 俄罗斯 -->
    <g transform="translate(344.786259 36.032719)scale(0.1 -0.1)">
     <defs>
      <path id="ArialUnicodeMS-4fc4" d="M 2081 5166 
Q 1978 4838 1775 4272 
L 1569 3713 
L 1569 -409 
L 1081 -409 
L 1069 2950 
Q 1000 2769 653 2400 
L 263 2681 
Q 1275 3763 1678 5375 
L 2081 5166 
z
M 6144 928 
Q 6069 522 5944 184 
Q 5819 -153 5706 -259 
Q 5594 -366 5403 -366 
Q 5022 -366 4628 609 
Q 4222 156 3794 -122 
L 3397 191 
Q 3981 547 4447 1094 
Q 4203 1922 4116 2944 
L 3206 2944 
L 3206 2113 
Q 3491 2244 3963 2431 
L 3963 1953 
L 3206 1619 
L 3206 147 
Q 3206 -97 3087 -253 
Q 2969 -409 2759 -409 
L 2100 -409 
L 1931 84 
Q 2191 56 2350 56 
Q 2719 56 2719 213 
L 2719 1388 
L 2088 1131 
L 1728 1497 
Q 2538 1825 2719 1906 
L 2719 2944 
L 1797 2944 
L 1797 3413 
L 2719 3413 
L 2719 4231 
Q 2463 4153 2144 4091 
L 1919 4488 
Q 2903 4622 3688 5222 
L 3988 4897 
Q 3613 4597 3206 4403 
L 3206 3413 
L 4084 3413 
L 4038 5275 
L 4513 5300 
Q 4522 3766 4550 3413 
L 5953 3413 
L 5953 2944 
L 4588 2944 
Q 4656 2075 4800 1575 
Q 5094 1997 5331 2766 
L 5728 2553 
Q 5472 1700 4972 1025 
Q 5100 675 5247 428 
Q 5394 181 5450 181 
Q 5522 181 5615 640 
Q 5709 1100 5697 1159 
L 6144 928 
z
M 5850 3841 
L 5441 3591 
Q 5122 4419 4569 4750 
L 4959 4991 
Q 5525 4641 5850 3841 
z
" transform="scale(0.015625)"/>
      <path id="ArialUnicodeMS-7f57" d="M 5656 3278 
L 2816 3278 
L 2816 3256 
L 3091 3109 
Q 3031 2959 2919 2822 
L 5288 2822 
L 5288 2394 
Q 4716 1200 3417 503 
Q 2119 -194 716 -353 
L 441 103 
Q 2484 469 3163 934 
Q 2781 1378 2259 1656 
L 2613 2003 
Q 3141 1694 3547 1197 
Q 4428 1806 4653 2356 
L 2584 2356 
Q 1878 1538 831 1159 
L 513 1581 
Q 1197 1856 1484 2048 
Q 1772 2241 2084 2561 
Q 2397 2881 2606 3278 
L 947 3278 
L 947 5069 
L 5656 5069 
L 5656 3278 
z
M 5178 3744 
L 5178 4603 
L 4275 4603 
L 4275 3744 
L 5178 3744 
z
M 3794 3744 
L 3794 4603 
L 2834 4603 
L 2834 3744 
L 3794 3744 
z
M 2356 3744 
L 2356 4603 
L 1428 4603 
L 1428 3744 
L 2356 3744 
z
" transform="scale(0.015625)"/>
      <path id="ArialUnicodeMS-65af" d="M 6041 2963 
L 5344 2963 
L 5344 -409 
L 4856 -409 
L 4856 2963 
L 4231 2963 
L 4231 1300 
Q 4231 259 3694 -428 
L 3231 -172 
Q 3531 134 3637 550 
Q 3744 966 3744 1638 
L 3744 4653 
Q 4147 4653 4748 4843 
Q 5350 5034 5619 5306 
L 5972 4928 
Q 5216 4394 4231 4244 
L 4231 3431 
L 6041 3431 
L 6041 2963 
z
M 3647 1038 
L 434 1038 
L 434 1503 
L 1025 1503 
L 1025 4159 
L 550 4159 
L 550 4628 
L 1025 4628 
L 1025 5269 
L 1509 5269 
L 1509 4628 
L 2688 4628 
L 2688 5269 
L 3175 5269 
L 3175 4628 
L 3603 4628 
L 3603 4159 
L 3175 4159 
L 3175 1503 
L 3647 1503 
L 3647 1038 
z
M 2688 3603 
L 2688 4159 
L 1509 4159 
L 1509 3603 
L 2688 3603 
z
M 2688 2547 
L 2688 3138 
L 1509 3138 
L 1509 2547 
L 2688 2547 
z
M 2688 1503 
L 2688 2081 
L 1509 2081 
L 1509 1503 
L 2688 1503 
z
M 3425 213 
L 3041 -78 
Q 2763 384 2138 653 
L 2484 947 
Q 3025 753 3425 213 
z
M 1919 684 
Q 1597 -28 672 -481 
L 313 -109 
Q 1238 284 1522 934 
L 1919 684 
z
" transform="scale(0.015625)"/>
     </defs>
     <use xlink:href="#ArialUnicodeMS-4fc4"/>
     <use xlink:href="#ArialUnicodeMS-7f57" x="100"/>
     <use xlink:href="#ArialUnicodeMS-65af" x="200"/>
    </g>
   </g>
   <g id="text_21">
    <!-- 韩国 -->
    <g transform="translate(396.13666 104.8208)scale(0.1 -0.1)">
     <defs>
      <path id="ArialUnicodeMS-97e9" d="M 5856 3988 
L 4416 3988 
L 4416 3450 
L 5716 3450 
L 5716 2981 
L 4416 2981 
L 4416 2406 
L 5734 2406 
L 5656 1406 
Q 5616 913 5566 742 
Q 5516 572 5403 481 
Q 5291 391 5141 391 
Q 4747 391 4569 459 
L 4453 991 
Q 4913 850 4997 850 
Q 5122 850 5134 1031 
L 5222 1941 
L 4416 1941 
L 4416 -366 
L 3928 -366 
L 3928 1941 
L 2975 1941 
L 2975 2406 
L 3928 2406 
L 3928 2981 
L 3200 2981 
L 3200 3450 
L 3928 3450 
L 3928 3988 
L 3097 3988 
L 3109 4453 
L 3928 4453 
L 3928 5313 
L 4416 5313 
L 4416 4453 
L 5856 4453 
L 5856 3988 
z
M 3200 850 
L 1972 850 
L 1972 -366 
L 1484 -366 
L 1484 850 
L 300 850 
L 300 1319 
L 1484 1319 
L 1484 1697 
L 588 1697 
L 588 3738 
L 1484 3738 
L 1484 4172 
L 359 4172 
L 359 4641 
L 1484 4641 
L 1484 5313 
L 1972 5313 
L 1972 4641 
L 2994 4641 
L 2994 4172 
L 1972 4172 
L 1972 3738 
L 2881 3738 
L 2881 1709 
L 1972 1709 
L 1972 1319 
L 3200 1319 
L 3200 850 
z
M 2419 2969 
L 2419 3272 
L 1050 3272 
L 1050 2969 
L 2419 2969 
z
M 2419 2175 
L 2419 2503 
L 1050 2503 
L 1050 2175 
L 2419 2175 
z
" transform="scale(0.015625)"/>
     </defs>
     <use xlink:href="#ArialUnicodeMS-97e9"/>
     <use xlink:href="#ArialUnicodeMS-56fd" x="100"/>
    </g>
   </g>
   <g id="text_22">
    <!-- 国家强弱 -->
    <g transform="translate(195.370937 17.936719)scale(0.15 -0.15)">
     <defs>
      <path id="ArialUnicodeMS-5bb6" d="M 5722 3525 
L 5247 3525 
L 5247 4225 
L 1159 4225 
L 1159 3525 
L 678 3525 
L 678 4691 
L 2950 4691 
L 2950 5269 
L 3450 5269 
L 3450 4691 
L 5722 4691 
L 5722 3525 
z
M 6144 378 
L 5784 6 
Q 4088 975 3616 3200 
L 3500 3200 
Q 3191 2934 2988 2828 
Q 3806 2209 3806 944 
Q 3806 209 3576 -103 
Q 3347 -416 2919 -416 
Q 2616 -416 2303 -319 
L 2125 250 
Q 2569 81 2916 81 
Q 3309 81 3309 878 
Q 3309 997 3297 1094 
Q 2309 328 666 -38 
L 353 403 
Q 2072 675 3225 1631 
Q 3181 1828 3097 1972 
Q 2153 1313 788 1038 
L 481 1459 
Q 1988 1700 2847 2344 
Q 2766 2434 2566 2578 
Q 1853 2222 934 2047 
L 603 2472 
Q 1922 2669 2725 3200 
L 1300 3200 
L 1300 3669 
L 5113 3669 
L 5113 3200 
L 4128 3200 
Q 4259 2597 4409 2291 
Q 4859 2538 5241 3022 
L 5606 2663 
Q 5200 2203 4616 1863 
Q 5138 972 6144 378 
z
" transform="scale(0.015625)"/>
     </defs>
     <use xlink:href="#ArialUnicodeMS-56fd"/>
     <use xlink:href="#ArialUnicodeMS-5bb6" x="100"/>
     <use xlink:href="#ArialUnicodeMS-5f3a" x="200"/>
     <use xlink:href="#ArialUnicodeMS-5f31" x="300"/>
    </g>
   </g>
  </g>
 </g>
 <defs>
  <clipPath id="pfc447bdf96">
   <rect x="46.810938" y="23.936719" width="357.12" height="266.112"/>
  </clipPath>
 </defs>
</svg>
