<?xml version="1.0" encoding="utf-8" standalone="no"?>
<!DOCTYPE svg PUBLIC "-//W3C//DTD SVG 1.1//EN"
  "http://www.w3.org/Graphics/SVG/1.1/DTD/svg11.dtd">
<svg xmlns:xlink="http://www.w3.org/1999/xlink" width="430.80125pt" height="328.111219pt" viewBox="0 0 430.80125 328.111219" xmlns="http://www.w3.org/2000/svg" version="1.1">
 <metadata>
  <rdf:RDF xmlns:dc="http://purl.org/dc/elements/1.1/" xmlns:cc="http://creativecommons.org/ns#" xmlns:rdf="http://www.w3.org/1999/02/22-rdf-syntax-ns#">
   <cc:Work>
    <dc:type rdf:resource="http://purl.org/dc/dcmitype/StillImage"/>
    <dc:date>2023-03-02T17:38:08.919504</dc:date>
    <dc:format>image/svg+xml</dc:format>
    <dc:creator>
     <cc:Agent>
      <dc:title>Matplotlib v3.5.2, https://matplotlib.org/</dc:title>
     </cc:Agent>
    </dc:creator>
   </cc:Work>
  </rdf:RDF>
 </metadata>
 <defs>
  <style type="text/css">*{stroke-linejoin: round; stroke-linecap: butt}</style>
 </defs>
 <g id="figure_1">
  <g id="patch_1">
   <path d="M 0 328.111219 
L 430.80125 328.111219 
L 430.80125 0 
L 0 0 
z
" style="fill: #ffffff"/>
  </g>
  <g id="axes_1">
   <g id="patch_2">
    <path d="M 53.970313 290.292469 
L 411.090312 290.292469 
L 411.090312 24.180469 
L 53.970313 24.180469 
z
" style="fill: #ffffff"/>
   </g>
   <g id="PathCollection_1">
    <defs>
     <path id="mf0466732dd" d="M 0 0.05 
C 0.01326 0.05 0.025979 0.044732 0.035355 0.035355 
C 0.044732 0.025979 0.05 0.01326 0.05 0 
C 0.05 -0.01326 0.044732 -0.025979 0.035355 -0.035355 
C 0.025979 -0.044732 0.01326 -0.05 0 -0.05 
C -0.01326 -0.05 -0.025979 -0.044732 -0.035355 -0.035355 
C -0.044732 -0.025979 -0.05 -0.01326 -0.05 0 
C -0.05 0.01326 -0.044732 0.025979 -0.035355 0.035355 
C -0.025979 0.044732 -0.01326 0.05 0 0.05 
z
" style="stroke: #ffffff"/>
    </defs>
    <g clip-path="url(#p519a0b591f)">
     <use xlink:href="#mf0466732dd" x="187.309377" y="144.609257" style="fill: #ffffff; stroke: #ffffff"/>
     <use xlink:href="#mf0466732dd" x="195.728939" y="102.690947" style="fill: #ffffff; stroke: #ffffff"/>
     <use xlink:href="#mf0466732dd" x="312.97324" y="153.469594" style="fill: #ffffff; stroke: #ffffff"/>
     <use xlink:href="#mf0466732dd" x="293.420177" y="160.420614" style="fill: #ffffff; stroke: #ffffff"/>
     <use xlink:href="#mf0466732dd" x="321.276993" y="286.604283" style="fill: #ffffff; stroke: #ffffff"/>
    </g>
   </g>
   <g id="Quiver_1">
    <path d="M 232.170141 158.526326 
L 198.557924 149.140661 
L 199.127438 152.080548 
L 187.309377 144.609257 
L 201.288469 144.341402 
L 199.278268 146.560946 
L 232.890484 155.946611 
L 232.170141 158.526326 
" clip-path="url(#p519a0b591f)" style="fill: #800080"/>
    <path d="M 231.420159 157.985479 
L 201.359879 113.431336 
L 199.888583 116.03951 
L 195.728939 102.690947 
L 206.549502 111.545448 
L 203.580185 111.933315 
L 233.640466 156.487458 
L 231.420159 157.985479 
" clip-path="url(#p519a0b591f)" style="fill: #008000"/>
    <path d="M 232.467671 155.898735 
L 300.870991 152.695634 
L 299.407974 150.082808 
L 312.97324 153.469594 
L 299.783824 158.109213 
L 300.996274 155.371103 
L 232.592954 158.574203 
L 232.467671 155.898735 
" clip-path="url(#p519a0b591f)" style="fill: #0000ff"/>
    <path d="M 232.600248 155.899096 
L 281.453759 158.453818 
L 280.256258 155.709137 
L 293.420177 160.420614 
L 279.836643 163.733373 
L 281.313887 161.128564 
L 232.460377 158.573841 
L 232.600248 155.899096 
" clip-path="url(#p519a0b591f)" style="fill: #ff0000"/>
    <path d="M 233.634641 156.478896 
L 315.563171 275.907756 
L 317.014255 273.288283 
L 321.276993 286.604283 
L 310.388285 277.833717 
L 313.354514 277.422901 
L 231.425984 157.994041 
L 233.634641 156.478896 
" clip-path="url(#p519a0b591f)" style="fill: #ffff00"/>
   </g>
   <g id="matplotlib.axis_1">
    <g id="xtick_1">
     <g id="line2d_1">
      <defs>
       <path id="m6da3a9fc4d" d="M 0 0 
L 0 3.5 
" style="stroke: #000000; stroke-width: 0.8"/>
      </defs>
      <g>
       <use xlink:href="#m6da3a9fc4d" x="53.970313" y="290.292469" style="stroke: #000000; stroke-width: 0.8"/>
      </g>
     </g>
     <g id="text_1">
      <!-- −0.100 -->
      <g transform="translate(38.539063 304.450281)scale(0.1 -0.1)">
       <defs>
        <path id="ArialUnicodeMS-2212" d="M 3384 1997 
L 353 1997 
L 353 2522 
L 3384 2522 
L 3384 1997 
z
" transform="scale(0.015625)"/>
        <path id="ArialUnicodeMS-30" d="M 1778 4603 
Q 3272 4603 3272 2259 
Q 3272 1075 2886 498 
Q 2500 -78 1778 -78 
Q 288 -78 288 2259 
Q 288 3444 673 4023 
Q 1059 4603 1778 4603 
z
M 1778 384 
Q 2231 384 2462 823 
Q 2694 1263 2694 2259 
Q 2694 2953 2592 3351 
Q 2491 3750 2286 3945 
Q 2081 4141 1772 4141 
Q 1319 4141 1091 3694 
Q 863 3247 863 2259 
Q 863 1575 966 1175 
Q 1069 775 1272 579 
Q 1475 384 1778 384 
z
" transform="scale(0.015625)"/>
        <path id="ArialUnicodeMS-2e" d="M 1209 0 
L 569 0 
L 569 641 
L 1209 641 
L 1209 0 
z
" transform="scale(0.015625)"/>
        <path id="ArialUnicodeMS-31" d="M 2400 0 
L 1838 0 
L 1838 3584 
Q 1416 3184 709 2906 
L 709 3450 
Q 1681 3916 2034 4603 
L 2400 4603 
L 2400 0 
z
" transform="scale(0.015625)"/>
       </defs>
       <use xlink:href="#ArialUnicodeMS-2212"/>
       <use xlink:href="#ArialUnicodeMS-30" x="58.398438"/>
       <use xlink:href="#ArialUnicodeMS-2e" x="114.013672"/>
       <use xlink:href="#ArialUnicodeMS-31" x="141.796875"/>
       <use xlink:href="#ArialUnicodeMS-30" x="197.412109"/>
       <use xlink:href="#ArialUnicodeMS-30" x="253.027344"/>
      </g>
     </g>
    </g>
    <g id="xtick_2">
     <g id="line2d_2">
      <g>
       <use xlink:href="#m6da3a9fc4d" x="98.610312" y="290.292469" style="stroke: #000000; stroke-width: 0.8"/>
      </g>
     </g>
     <g id="text_2">
      <!-- −0.075 -->
      <g transform="translate(83.179062 304.450281)scale(0.1 -0.1)">
       <defs>
        <path id="ArialUnicodeMS-37" d="M 3272 4084 
Q 2597 3344 2103 2253 
Q 1609 1163 1522 0 
L 947 0 
Q 969 934 1408 2051 
Q 1847 3169 2547 3975 
L 306 3975 
L 306 4519 
L 3272 4519 
L 3272 4084 
z
" transform="scale(0.015625)"/>
        <path id="ArialUnicodeMS-35" d="M 1013 2753 
Q 1431 3041 1881 3041 
Q 2453 3041 2878 2636 
Q 3303 2231 3303 1556 
Q 3303 875 2872 398 
Q 2441 -78 1741 -78 
Q 1169 -78 750 245 
Q 331 569 269 1203 
L 856 1247 
Q 928 813 1162 598 
Q 1397 384 1741 384 
Q 2169 384 2434 707 
Q 2700 1031 2700 1503 
Q 2700 1984 2428 2262 
Q 2156 2541 1728 2541 
Q 1188 2541 897 2100 
L 366 2163 
L 813 4519 
L 3084 4519 
L 3084 3975 
L 1259 3975 
L 1013 2753 
z
" transform="scale(0.015625)"/>
       </defs>
       <use xlink:href="#ArialUnicodeMS-2212"/>
       <use xlink:href="#ArialUnicodeMS-30" x="58.398438"/>
       <use xlink:href="#ArialUnicodeMS-2e" x="114.013672"/>
       <use xlink:href="#ArialUnicodeMS-30" x="141.796875"/>
       <use xlink:href="#ArialUnicodeMS-37" x="197.412109"/>
       <use xlink:href="#ArialUnicodeMS-35" x="253.027344"/>
      </g>
     </g>
    </g>
    <g id="xtick_3">
     <g id="line2d_3">
      <g>
       <use xlink:href="#m6da3a9fc4d" x="143.250313" y="290.292469" style="stroke: #000000; stroke-width: 0.8"/>
      </g>
     </g>
     <g id="text_3">
      <!-- −0.050 -->
      <g transform="translate(127.819063 304.450281)scale(0.1 -0.1)">
       <use xlink:href="#ArialUnicodeMS-2212"/>
       <use xlink:href="#ArialUnicodeMS-30" x="58.398438"/>
       <use xlink:href="#ArialUnicodeMS-2e" x="114.013672"/>
       <use xlink:href="#ArialUnicodeMS-30" x="141.796875"/>
       <use xlink:href="#ArialUnicodeMS-35" x="197.412109"/>
       <use xlink:href="#ArialUnicodeMS-30" x="253.027344"/>
      </g>
     </g>
    </g>
    <g id="xtick_4">
     <g id="line2d_4">
      <g>
       <use xlink:href="#m6da3a9fc4d" x="187.890313" y="290.292469" style="stroke: #000000; stroke-width: 0.8"/>
      </g>
     </g>
     <g id="text_4">
      <!-- −0.025 -->
      <g transform="translate(172.459063 304.450281)scale(0.1 -0.1)">
       <defs>
        <path id="ArialUnicodeMS-32" d="M 3231 0 
L 197 0 
Q 197 388 467 784 
Q 738 1181 1478 1778 
Q 1931 2141 2287 2539 
Q 2644 2938 2644 3341 
Q 2644 3688 2398 3914 
Q 2153 4141 1778 4141 
Q 1400 4141 1144 3908 
Q 888 3675 884 3213 
L 306 3278 
Q 359 3922 764 4262 
Q 1169 4603 1791 4603 
Q 2466 4603 2842 4229 
Q 3219 3856 3219 3328 
Q 3219 2888 2901 2436 
Q 2584 1984 1638 1228 
Q 1141 831 978 544 
L 3231 544 
L 3231 0 
z
" transform="scale(0.015625)"/>
       </defs>
       <use xlink:href="#ArialUnicodeMS-2212"/>
       <use xlink:href="#ArialUnicodeMS-30" x="58.398438"/>
       <use xlink:href="#ArialUnicodeMS-2e" x="114.013672"/>
       <use xlink:href="#ArialUnicodeMS-30" x="141.796875"/>
       <use xlink:href="#ArialUnicodeMS-32" x="197.412109"/>
       <use xlink:href="#ArialUnicodeMS-35" x="253.027344"/>
      </g>
     </g>
    </g>
    <g id="xtick_5">
     <g id="line2d_5">
      <g>
       <use xlink:href="#m6da3a9fc4d" x="232.530313" y="290.292469" style="stroke: #000000; stroke-width: 0.8"/>
      </g>
     </g>
     <g id="text_5">
      <!-- 0.000 -->
      <g transform="translate(220.019375 304.450281)scale(0.1 -0.1)">
       <use xlink:href="#ArialUnicodeMS-30"/>
       <use xlink:href="#ArialUnicodeMS-2e" x="55.615234"/>
       <use xlink:href="#ArialUnicodeMS-30" x="83.398438"/>
       <use xlink:href="#ArialUnicodeMS-30" x="139.013672"/>
       <use xlink:href="#ArialUnicodeMS-30" x="194.628906"/>
      </g>
     </g>
    </g>
    <g id="xtick_6">
     <g id="line2d_6">
      <g>
       <use xlink:href="#m6da3a9fc4d" x="277.170313" y="290.292469" style="stroke: #000000; stroke-width: 0.8"/>
      </g>
     </g>
     <g id="text_6">
      <!-- 0.025 -->
      <g transform="translate(264.659375 304.450281)scale(0.1 -0.1)">
       <use xlink:href="#ArialUnicodeMS-30"/>
       <use xlink:href="#ArialUnicodeMS-2e" x="55.615234"/>
       <use xlink:href="#ArialUnicodeMS-30" x="83.398438"/>
       <use xlink:href="#ArialUnicodeMS-32" x="139.013672"/>
       <use xlink:href="#ArialUnicodeMS-35" x="194.628906"/>
      </g>
     </g>
    </g>
    <g id="xtick_7">
     <g id="line2d_7">
      <g>
       <use xlink:href="#m6da3a9fc4d" x="321.810313" y="290.292469" style="stroke: #000000; stroke-width: 0.8"/>
      </g>
     </g>
     <g id="text_7">
      <!-- 0.050 -->
      <g transform="translate(309.299375 304.450281)scale(0.1 -0.1)">
       <use xlink:href="#ArialUnicodeMS-30"/>
       <use xlink:href="#ArialUnicodeMS-2e" x="55.615234"/>
       <use xlink:href="#ArialUnicodeMS-30" x="83.398438"/>
       <use xlink:href="#ArialUnicodeMS-35" x="139.013672"/>
       <use xlink:href="#ArialUnicodeMS-30" x="194.628906"/>
      </g>
     </g>
    </g>
    <g id="xtick_8">
     <g id="line2d_8">
      <g>
       <use xlink:href="#m6da3a9fc4d" x="366.450312" y="290.292469" style="stroke: #000000; stroke-width: 0.8"/>
      </g>
     </g>
     <g id="text_8">
      <!-- 0.075 -->
      <g transform="translate(353.939375 304.450281)scale(0.1 -0.1)">
       <use xlink:href="#ArialUnicodeMS-30"/>
       <use xlink:href="#ArialUnicodeMS-2e" x="55.615234"/>
       <use xlink:href="#ArialUnicodeMS-30" x="83.398438"/>
       <use xlink:href="#ArialUnicodeMS-37" x="139.013672"/>
       <use xlink:href="#ArialUnicodeMS-35" x="194.628906"/>
      </g>
     </g>
    </g>
    <g id="xtick_9">
     <g id="line2d_9">
      <g>
       <use xlink:href="#m6da3a9fc4d" x="411.090312" y="290.292469" style="stroke: #000000; stroke-width: 0.8"/>
      </g>
     </g>
     <g id="text_9">
      <!-- 0.100 -->
      <g transform="translate(398.579375 304.450281)scale(0.1 -0.1)">
       <use xlink:href="#ArialUnicodeMS-30"/>
       <use xlink:href="#ArialUnicodeMS-2e" x="55.615234"/>
       <use xlink:href="#ArialUnicodeMS-31" x="83.398438"/>
       <use xlink:href="#ArialUnicodeMS-30" x="139.013672"/>
       <use xlink:href="#ArialUnicodeMS-30" x="194.628906"/>
      </g>
     </g>
    </g>
    <g id="text_10">
     <!-- 性别(男左女右) -->
     <g transform="translate(199.200625 318.811219)scale(0.1 -0.1)">
      <defs>
       <path id="ArialUnicodeMS-6027" d="M 6088 6 
L 2322 6 
L 2322 475 
L 3928 475 
L 3928 1778 
L 2669 1778 
L 2669 2247 
L 3928 2247 
L 3928 3463 
L 3169 3463 
Q 2978 2881 2606 2375 
L 2113 2597 
Q 2363 2838 2438 3003 
L 2203 2900 
Q 2078 3494 1766 3866 
L 1766 -434 
L 1281 -434 
L 1281 5281 
L 1766 5281 
L 1766 3928 
L 2138 4128 
Q 2413 3813 2597 3347 
Q 2844 3763 2894 4775 
L 3378 4647 
Q 3363 4338 3291 3928 
L 3928 3928 
L 3928 5294 
L 4416 5294 
L 4416 3928 
L 5759 3928 
L 5759 3463 
L 4416 3463 
L 4416 2247 
L 5569 2247 
L 5569 1778 
L 4416 1778 
L 4416 475 
L 6088 475 
L 6088 6 
z
M 1241 3897 
Q 1175 2956 763 2344 
L 347 2528 
Q 819 3406 819 4025 
L 1241 3897 
z
" transform="scale(0.015625)"/>
       <path id="ArialUnicodeMS-522b" d="M 5650 116 
Q 5650 -103 5517 -256 
Q 5384 -409 5166 -409 
L 4409 -409 
L 4184 91 
Q 4588 69 4744 69 
Q 5016 69 5091 105 
Q 5166 141 5166 294 
L 5166 5253 
L 5650 5253 
L 5650 116 
z
M 3450 3041 
L 884 3041 
L 884 5006 
L 3450 5006 
L 3450 3041 
z
M 2963 3506 
L 2963 4538 
L 1369 4538 
L 1369 3506 
L 2963 3506 
z
M 4616 909 
L 4109 909 
L 4109 4641 
L 4616 4641 
L 4616 909 
z
M 3634 2316 
Q 3606 1238 3467 466 
Q 3328 -306 2572 -306 
Q 2300 -306 1959 -206 
L 1844 341 
L 2400 197 
Q 2488 178 2563 178 
Q 2778 178 2868 331 
Q 2959 484 3020 865 
Q 3081 1247 3097 1831 
L 2125 1831 
Q 2059 1184 1715 510 
Q 1372 -163 844 -447 
L 447 -78 
Q 1419 456 1613 1831 
L 581 1831 
L 581 2316 
L 1691 2316 
Q 1731 2569 1722 2981 
L 2216 2919 
Q 2197 2484 2169 2316 
L 3634 2316 
z
" transform="scale(0.015625)"/>
       <path id="ArialUnicodeMS-28" d="M 1900 -1344 
L 1497 -1344 
Q 978 -681 681 103 
Q 384 888 384 1656 
Q 384 2528 700 3275 
Q 1016 4022 1497 4659 
L 1900 4659 
Q 1344 3747 1155 3059 
Q 966 2372 966 1663 
Q 966 153 1900 -1344 
z
" transform="scale(0.015625)"/>
       <path id="ArialUnicodeMS-7537" d="M 5434 2491 
L 1300 2491 
L 1300 5013 
L 5434 5013 
L 5434 2491 
z
M 4897 3988 
L 4897 4544 
L 3597 4544 
L 3597 3988 
L 4897 3988 
z
M 3091 3988 
L 3091 4544 
L 1806 4544 
L 1806 3988 
L 3091 3988 
z
M 4897 2956 
L 4897 3519 
L 3597 3519 
L 3597 2956 
L 4897 2956 
z
M 3091 2956 
L 3091 3519 
L 1806 3519 
L 1806 2956 
L 3091 2956 
z
M 5691 1900 
Q 5644 1400 5489 725 
Q 5334 50 5123 -84 
Q 4913 -219 4550 -219 
Q 4341 -219 3634 -147 
L 3463 422 
Q 4241 288 4663 288 
Q 4803 288 4881 430 
Q 4959 572 5026 912 
Q 5094 1253 5094 1434 
L 3413 1434 
Q 3172 638 2562 195 
Q 1953 -247 794 -397 
L 544 78 
Q 1606 191 2132 522 
Q 2659 853 2875 1434 
L 1006 1434 
L 1006 1900 
L 3003 1900 
L 3066 2425 
L 3559 2363 
Q 3541 2094 3500 1900 
L 5691 1900 
z
" transform="scale(0.015625)"/>
       <path id="ArialUnicodeMS-5de6" d="M 5919 -91 
L 1141 -91 
L 1141 378 
L 3341 378 
L 3341 2138 
L 2041 2138 
Q 1556 1203 788 475 
L 353 794 
Q 1747 2006 2094 3769 
L 641 3769 
L 641 4238 
L 2203 4238 
Q 2350 5069 2369 5241 
L 2841 5113 
Q 2813 4791 2706 4238 
L 5919 4238 
L 5919 3769 
L 2597 3769 
Q 2397 2944 2259 2606 
L 5509 2606 
L 5509 2138 
L 3828 2138 
L 3828 378 
L 5919 378 
L 5919 -91 
z
" transform="scale(0.015625)"/>
       <path id="ArialUnicodeMS-5973" d="M 5831 166 
L 5522 -275 
Q 4650 394 3406 831 
Q 2425 -22 838 -341 
L 550 134 
Q 2050 431 2853 1044 
Q 2159 1281 1306 1472 
Q 1775 2288 2228 3341 
L 838 3341 
L 838 3828 
L 2425 3828 
Q 2759 4572 3009 5350 
L 3488 5141 
L 2975 3828 
L 5791 3828 
L 5791 3341 
L 4934 3341 
Q 4425 1913 3788 1234 
Q 5191 697 5831 166 
z
M 4359 3341 
L 2778 3341 
Q 2603 2919 2047 1772 
Q 3213 1444 3284 1422 
Q 3925 2044 4359 3341 
z
" transform="scale(0.015625)"/>
       <path id="ArialUnicodeMS-53f3" d="M 5869 3744 
L 2900 3744 
Q 2700 3094 2375 2559 
L 5325 2559 
L 5325 -397 
L 4838 -397 
L 4838 25 
L 2478 25 
L 2478 -397 
L 1991 -397 
L 1991 1997 
Q 1528 1397 819 916 
L 441 1275 
Q 1913 2266 2375 3744 
L 781 3744 
L 781 4213 
L 2516 4213 
Q 2631 4609 2725 5356 
L 3225 5216 
Q 3084 4425 3034 4213 
L 5869 4213 
L 5869 3744 
z
M 4838 494 
L 4838 2094 
L 2478 2094 
L 2478 494 
L 4838 494 
z
" transform="scale(0.015625)"/>
       <path id="ArialUnicodeMS-29" d="M 634 4659 
Q 1153 3997 1450 3212 
Q 1747 2428 1747 1656 
Q 1747 788 1431 41 
Q 1116 -706 634 -1344 
L 231 -1344 
Q 788 -431 977 255 
Q 1166 941 1166 1650 
Q 1166 3163 231 4659 
L 634 4659 
z
" transform="scale(0.015625)"/>
      </defs>
      <use xlink:href="#ArialUnicodeMS-6027"/>
      <use xlink:href="#ArialUnicodeMS-522b" x="100"/>
      <use xlink:href="#ArialUnicodeMS-28" x="200"/>
      <use xlink:href="#ArialUnicodeMS-7537" x="233.300781"/>
      <use xlink:href="#ArialUnicodeMS-5de6" x="333.300781"/>
      <use xlink:href="#ArialUnicodeMS-5973" x="433.300781"/>
      <use xlink:href="#ArialUnicodeMS-53f3" x="533.300781"/>
      <use xlink:href="#ArialUnicodeMS-29" x="633.300781"/>
     </g>
    </g>
   </g>
   <g id="matplotlib.axis_2">
    <g id="ytick_1">
     <g id="line2d_10">
      <defs>
       <path id="m3dbacdbc24" d="M 0 0 
L -3.5 0 
" style="stroke: #000000; stroke-width: 0.8"/>
      </defs>
      <g>
       <use xlink:href="#m3dbacdbc24" x="53.970313" y="290.292469" style="stroke: #000000; stroke-width: 0.8"/>
      </g>
     </g>
     <g id="text_11">
      <!-- −0.20 -->
      <g transform="translate(21.66875 293.871375)scale(0.1 -0.1)">
       <use xlink:href="#ArialUnicodeMS-2212"/>
       <use xlink:href="#ArialUnicodeMS-30" x="58.398438"/>
       <use xlink:href="#ArialUnicodeMS-2e" x="114.013672"/>
       <use xlink:href="#ArialUnicodeMS-32" x="141.796875"/>
       <use xlink:href="#ArialUnicodeMS-30" x="197.412109"/>
      </g>
     </g>
    </g>
    <g id="ytick_2">
     <g id="line2d_11">
      <g>
       <use xlink:href="#m3dbacdbc24" x="53.970313" y="257.028469" style="stroke: #000000; stroke-width: 0.8"/>
      </g>
     </g>
     <g id="text_12">
      <!-- −0.15 -->
      <g transform="translate(21.66875 260.607375)scale(0.1 -0.1)">
       <use xlink:href="#ArialUnicodeMS-2212"/>
       <use xlink:href="#ArialUnicodeMS-30" x="58.398438"/>
       <use xlink:href="#ArialUnicodeMS-2e" x="114.013672"/>
       <use xlink:href="#ArialUnicodeMS-31" x="141.796875"/>
       <use xlink:href="#ArialUnicodeMS-35" x="197.412109"/>
      </g>
     </g>
    </g>
    <g id="ytick_3">
     <g id="line2d_12">
      <g>
       <use xlink:href="#m3dbacdbc24" x="53.970313" y="223.764469" style="stroke: #000000; stroke-width: 0.8"/>
      </g>
     </g>
     <g id="text_13">
      <!-- −0.10 -->
      <g transform="translate(21.66875 227.343375)scale(0.1 -0.1)">
       <use xlink:href="#ArialUnicodeMS-2212"/>
       <use xlink:href="#ArialUnicodeMS-30" x="58.398438"/>
       <use xlink:href="#ArialUnicodeMS-2e" x="114.013672"/>
       <use xlink:href="#ArialUnicodeMS-31" x="141.796875"/>
       <use xlink:href="#ArialUnicodeMS-30" x="197.412109"/>
      </g>
     </g>
    </g>
    <g id="ytick_4">
     <g id="line2d_13">
      <g>
       <use xlink:href="#m3dbacdbc24" x="53.970313" y="190.500469" style="stroke: #000000; stroke-width: 0.8"/>
      </g>
     </g>
     <g id="text_14">
      <!-- −0.05 -->
      <g transform="translate(21.66875 194.079375)scale(0.1 -0.1)">
       <use xlink:href="#ArialUnicodeMS-2212"/>
       <use xlink:href="#ArialUnicodeMS-30" x="58.398438"/>
       <use xlink:href="#ArialUnicodeMS-2e" x="114.013672"/>
       <use xlink:href="#ArialUnicodeMS-30" x="141.796875"/>
       <use xlink:href="#ArialUnicodeMS-35" x="197.412109"/>
      </g>
     </g>
    </g>
    <g id="ytick_5">
     <g id="line2d_14">
      <g>
       <use xlink:href="#m3dbacdbc24" x="53.970313" y="157.236469" style="stroke: #000000; stroke-width: 0.8"/>
      </g>
     </g>
     <g id="text_15">
      <!-- 0.00 -->
      <g transform="translate(27.509375 160.815375)scale(0.1 -0.1)">
       <use xlink:href="#ArialUnicodeMS-30"/>
       <use xlink:href="#ArialUnicodeMS-2e" x="55.615234"/>
       <use xlink:href="#ArialUnicodeMS-30" x="83.398438"/>
       <use xlink:href="#ArialUnicodeMS-30" x="139.013672"/>
      </g>
     </g>
    </g>
    <g id="ytick_6">
     <g id="line2d_15">
      <g>
       <use xlink:href="#m3dbacdbc24" x="53.970313" y="123.972469" style="stroke: #000000; stroke-width: 0.8"/>
      </g>
     </g>
     <g id="text_16">
      <!-- 0.05 -->
      <g transform="translate(27.509375 127.551375)scale(0.1 -0.1)">
       <use xlink:href="#ArialUnicodeMS-30"/>
       <use xlink:href="#ArialUnicodeMS-2e" x="55.615234"/>
       <use xlink:href="#ArialUnicodeMS-30" x="83.398438"/>
       <use xlink:href="#ArialUnicodeMS-35" x="139.013672"/>
      </g>
     </g>
    </g>
    <g id="ytick_7">
     <g id="line2d_16">
      <g>
       <use xlink:href="#m3dbacdbc24" x="53.970313" y="90.708469" style="stroke: #000000; stroke-width: 0.8"/>
      </g>
     </g>
     <g id="text_17">
      <!-- 0.10 -->
      <g transform="translate(27.509375 94.287375)scale(0.1 -0.1)">
       <use xlink:href="#ArialUnicodeMS-30"/>
       <use xlink:href="#ArialUnicodeMS-2e" x="55.615234"/>
       <use xlink:href="#ArialUnicodeMS-31" x="83.398438"/>
       <use xlink:href="#ArialUnicodeMS-30" x="139.013672"/>
      </g>
     </g>
    </g>
    <g id="ytick_8">
     <g id="line2d_17">
      <g>
       <use xlink:href="#m3dbacdbc24" x="53.970313" y="57.444469" style="stroke: #000000; stroke-width: 0.8"/>
      </g>
     </g>
     <g id="text_18">
      <!-- 0.15 -->
      <g transform="translate(27.509375 61.023375)scale(0.1 -0.1)">
       <use xlink:href="#ArialUnicodeMS-30"/>
       <use xlink:href="#ArialUnicodeMS-2e" x="55.615234"/>
       <use xlink:href="#ArialUnicodeMS-31" x="83.398438"/>
       <use xlink:href="#ArialUnicodeMS-35" x="139.013672"/>
      </g>
     </g>
    </g>
    <g id="ytick_9">
     <g id="line2d_18">
      <g>
       <use xlink:href="#m3dbacdbc24" x="53.970313" y="24.180469" style="stroke: #000000; stroke-width: 0.8"/>
      </g>
     </g>
     <g id="text_19">
      <!-- 0.20 -->
      <g transform="translate(27.509375 27.759375)scale(0.1 -0.1)">
       <use xlink:href="#ArialUnicodeMS-30"/>
       <use xlink:href="#ArialUnicodeMS-2e" x="55.615234"/>
       <use xlink:href="#ArialUnicodeMS-32" x="83.398438"/>
       <use xlink:href="#ArialUnicodeMS-30" x="139.013672"/>
      </g>
     </g>
    </g>
    <g id="text_20">
     <!-- 尺寸(下小上大) -->
     <g transform="translate(15.56875 190.566156)rotate(-90)scale(0.1 -0.1)">
      <defs>
       <path id="ArialUnicodeMS-5c3a" d="M 5925 25 
L 5606 -409 
Q 4672 -97 4009 697 
Q 3347 1491 3138 2559 
L 2059 2559 
Q 1972 1338 1656 678 
Q 1341 19 844 -469 
L 441 -116 
Q 1028 594 1150 766 
Q 1272 938 1408 1373 
Q 1544 1809 1544 2547 
L 1544 4897 
L 5025 4897 
L 5025 2559 
L 3659 2559 
Q 3825 1681 4458 945 
Q 5091 209 5925 25 
z
M 4538 3028 
L 4538 4428 
L 2028 4428 
L 2028 3028 
L 4538 3028 
z
" transform="scale(0.015625)"/>
       <path id="ArialUnicodeMS-5bf8" d="M 5838 3469 
L 4353 3469 
L 4353 206 
Q 4353 -409 3788 -409 
L 2894 -409 
L 2719 103 
L 3634 78 
Q 3866 69 3866 288 
L 3866 3469 
L 622 3469 
L 622 3938 
L 3866 3938 
L 3866 5306 
L 4353 5306 
L 4353 3938 
L 5838 3938 
L 5838 3469 
z
M 3188 1388 
L 2772 1081 
Q 2144 2234 1281 2572 
L 1663 2881 
Q 2606 2528 3188 1388 
z
" transform="scale(0.015625)"/>
       <path id="ArialUnicodeMS-4e0b" d="M 5863 4453 
L 3200 4453 
L 3200 -378 
L 2694 -378 
L 2694 4453 
L 538 4453 
L 538 4941 
L 5863 4941 
L 5863 4453 
z
M 5403 1709 
L 5044 1331 
Q 4494 2084 3384 2700 
L 3681 3028 
Q 4625 2644 5403 1709 
z
" transform="scale(0.015625)"/>
       <path id="ArialUnicodeMS-5c0f" d="M 3475 434 
Q 3475 59 3267 -100 
Q 3059 -259 2634 -259 
L 2244 -250 
Q 2147 -250 2069 -256 
L 1856 269 
Q 2253 238 2528 238 
Q 2841 238 2905 281 
Q 2969 325 2969 434 
L 2969 5234 
L 3475 5234 
L 3475 434 
z
M 5931 1709 
L 5472 1484 
Q 5088 2713 4019 3688 
L 4475 3928 
Q 5584 2922 5931 1709 
z
M 2181 3706 
Q 1769 2356 850 1459 
L 453 1791 
Q 1372 2700 1753 3922 
L 2181 3706 
z
" transform="scale(0.015625)"/>
       <path id="ArialUnicodeMS-4e0a" d="M 5931 63 
L 588 63 
L 588 531 
L 2688 531 
L 2688 5209 
L 3175 5209 
L 3175 3353 
L 5369 3353 
L 5369 2888 
L 3175 2888 
L 3175 531 
L 5931 531 
L 5931 63 
z
" transform="scale(0.015625)"/>
       <path id="ArialUnicodeMS-5927" d="M 5972 109 
L 5625 -275 
Q 4584 341 4046 1159 
Q 3509 1978 3322 3250 
Q 3088 1959 2520 1142 
Q 1953 325 909 -244 
L 544 197 
Q 2403 1081 2809 3256 
L 856 3256 
L 856 3744 
L 2853 3744 
Q 2919 4313 2900 5356 
L 3419 5281 
Q 3434 4266 3384 3744 
L 5684 3744 
L 5684 3256 
L 3803 3256 
Q 4003 2125 4512 1389 
Q 5022 653 5972 109 
z
" transform="scale(0.015625)"/>
      </defs>
      <use xlink:href="#ArialUnicodeMS-5c3a"/>
      <use xlink:href="#ArialUnicodeMS-5bf8" x="100"/>
      <use xlink:href="#ArialUnicodeMS-28" x="200"/>
      <use xlink:href="#ArialUnicodeMS-4e0b" x="233.300781"/>
      <use xlink:href="#ArialUnicodeMS-5c0f" x="333.300781"/>
      <use xlink:href="#ArialUnicodeMS-4e0a" x="433.300781"/>
      <use xlink:href="#ArialUnicodeMS-5927" x="533.300781"/>
      <use xlink:href="#ArialUnicodeMS-29" x="633.300781"/>
     </g>
    </g>
   </g>
   <g id="line2d_19">
    <path d="M 53.970313 157.236469 
L 411.090312 157.236469 
" clip-path="url(#p519a0b591f)" style="fill: none; stroke: #000000; stroke-width: 1.5; stroke-linecap: square"/>
   </g>
   <g id="line2d_20">
    <path d="M 232.530313 290.292469 
L 232.530313 24.180469 
" clip-path="url(#p519a0b591f)" style="fill: none; stroke: #000000; stroke-width: 1.5; stroke-linecap: square"/>
   </g>
   <g id="patch_3">
    <path d="M 53.970313 290.292469 
L 53.970313 24.180469 
" style="fill: none; stroke: #000000; stroke-width: 0.8; stroke-linejoin: miter; stroke-linecap: square"/>
   </g>
   <g id="patch_4">
    <path d="M 411.090312 290.292469 
L 411.090312 24.180469 
" style="fill: none; stroke: #000000; stroke-width: 0.8; stroke-linejoin: miter; stroke-linecap: square"/>
   </g>
   <g id="patch_5">
    <path d="M 53.970313 290.292469 
L 411.090312 290.292469 
" style="fill: none; stroke: #000000; stroke-width: 0.8; stroke-linejoin: miter; stroke-linecap: square"/>
   </g>
   <g id="patch_6">
    <path d="M 53.970313 24.180469 
L 411.090312 24.180469 
" style="fill: none; stroke: #000000; stroke-width: 0.8; stroke-linejoin: miter; stroke-linecap: square"/>
   </g>
   <g id="text_21">
    <!-- 虎 -->
    <g transform="translate(205.165377 144.609257)scale(0.1 -0.1)">
     <defs>
      <path id="ArialUnicodeMS-864e" d="M 5716 4000 
Q 5694 3406 5528 2766 
L 5050 2906 
Q 5188 3372 5197 3541 
L 1550 3541 
L 1550 1813 
Q 1550 431 666 -416 
L 225 -72 
Q 1063 675 1063 1772 
L 1063 4000 
L 2694 4000 
L 2694 5344 
L 3181 5344 
L 3181 4856 
L 5259 4856 
L 5259 4397 
L 3181 4397 
L 3181 4000 
L 5716 4000 
z
M 5388 2528 
Q 5288 2066 5103 1925 
Q 4919 1784 4622 1784 
L 3366 1784 
Q 2669 1784 2700 2478 
L 1791 2363 
L 1722 2822 
L 2694 2956 
L 2694 3463 
L 3181 3463 
L 3181 3022 
L 4709 3213 
L 4769 2753 
L 3181 2541 
Q 3181 2350 3243 2298 
Q 3306 2247 3450 2247 
L 4531 2247 
Q 4741 2247 4814 2351 
Q 4888 2456 4928 2706 
L 5388 2528 
z
M 3078 1678 
Q 3122 594 2642 181 
Q 2163 -231 1466 -434 
L 1166 -6 
Q 1544 103 1822 222 
Q 2100 341 2311 561 
Q 2522 781 2559 1039 
Q 2597 1297 2597 1734 
L 3078 1678 
z
M 6100 884 
Q 5956 -191 5388 -191 
L 4634 -191 
Q 4438 -191 4203 -34 
Q 3969 122 3969 556 
L 3969 1656 
L 4459 1656 
L 4459 403 
Q 4500 269 4634 269 
L 5319 269 
Q 5575 269 5613 1069 
Q 5941 956 6100 884 
z
" transform="scale(0.015625)"/>
     </defs>
     <use xlink:href="#ArialUnicodeMS-864e"/>
    </g>
   </g>
   <g id="text_22">
    <!-- 龙 -->
    <g transform="translate(213.584939 102.690947)scale(0.1 -0.1)">
     <defs>
      <path id="ArialUnicodeMS-9f99" d="M 5941 722 
Q 5731 -178 5403 -178 
L 3828 -178 
Q 3303 -178 3303 372 
L 3303 556 
Q 2756 78 2028 -184 
L 1766 213 
Q 2816 650 3303 1172 
L 3303 3353 
L 2919 3353 
Q 2928 1850 2243 951 
Q 1559 53 556 -416 
L 238 -44 
Q 1416 556 1931 1342 
Q 2447 2128 2444 3353 
L 391 3353 
L 391 3822 
L 2438 3822 
L 2438 5269 
L 2925 5269 
L 2925 3822 
L 5844 3822 
L 5844 3353 
L 3788 3353 
L 3788 1575 
Q 4359 2069 5025 3028 
L 5428 2766 
Q 4663 1628 3788 928 
L 3788 475 
Q 3788 288 3950 288 
L 5178 288 
Q 5350 288 5375 397 
L 5516 984 
L 5941 722 
z
M 5056 4275 
L 4659 3969 
Q 4297 4500 3731 4838 
L 4084 5113 
Q 4694 4781 5056 4275 
z
" transform="scale(0.015625)"/>
     </defs>
     <use xlink:href="#ArialUnicodeMS-9f99"/>
    </g>
   </g>
   <g id="text_23">
    <!-- 猫 -->
    <g transform="translate(330.82924 153.469594)scale(0.1 -0.1)">
     <defs>
      <path id="ArialUnicodeMS-732b" d="M 5972 4000 
L 5106 4000 
L 5106 3278 
L 4622 3278 
L 4622 4000 
L 3738 4000 
L 3738 3278 
L 3250 3278 
L 3250 4000 
L 2381 4000 
L 2381 4469 
L 3250 4469 
L 3250 5275 
L 3738 5275 
L 3738 4469 
L 4622 4469 
L 4622 5275 
L 5106 5275 
L 5106 4469 
L 5972 4469 
L 5972 4000 
z
M 2463 4941 
Q 2175 4363 1797 3903 
Q 2134 2806 2134 1606 
L 2122 1003 
Q 2109 300 2056 98 
Q 2003 -103 1886 -220 
Q 1769 -338 1633 -361 
Q 1497 -384 1363 -384 
Q 1138 -384 763 -306 
L 672 213 
Q 1300 91 1453 91 
Q 1531 91 1564 122 
Q 1597 153 1617 414 
Q 1638 675 1638 972 
Q 1638 1413 1619 1941 
Q 1231 1391 550 1013 
L 153 1388 
Q 1056 1753 1575 2694 
Q 1481 3272 1409 3494 
Q 1034 3150 659 2931 
L 256 3284 
Q 828 3597 1203 3975 
Q 875 4506 231 4781 
L 513 5125 
Q 1213 4850 1556 4353 
Q 1853 4703 2100 5191 
L 2463 4941 
z
M 5672 -409 
L 5184 -409 
L 5184 31 
L 3194 31 
L 3194 -441 
L 2706 -441 
L 2706 3097 
L 5672 3097 
L 5672 -409 
z
M 5184 1825 
L 5184 2631 
L 4434 2631 
L 4434 1825 
L 5184 1825 
z
M 3950 1825 
L 3950 2631 
L 3194 2631 
L 3194 1825 
L 3950 1825 
z
M 5184 500 
L 5184 1356 
L 4434 1356 
L 4434 500 
L 5184 500 
z
M 3950 500 
L 3950 1356 
L 3194 1356 
L 3194 500 
L 3950 500 
z
" transform="scale(0.015625)"/>
     </defs>
     <use xlink:href="#ArialUnicodeMS-732b"/>
    </g>
   </g>
   <g id="text_24">
    <!-- 燕子 -->
    <g transform="translate(311.276177 160.420614)scale(0.1 -0.1)">
     <defs>
      <path id="ArialUnicodeMS-71d5" d="M 5838 4288 
L 4225 4288 
L 4225 3406 
L 2188 3406 
L 2188 4288 
L 622 4288 
L 622 4756 
L 2188 4756 
L 2188 5300 
L 2675 5300 
L 2675 4756 
L 3738 4756 
L 3738 5300 
L 4225 5300 
L 4225 4756 
L 5838 4756 
L 5838 4288 
z
M 3738 3872 
L 3738 4288 
L 2675 4288 
L 2675 3872 
L 3738 3872 
z
M 6094 1813 
Q 5966 1184 5550 1184 
L 4872 1184 
Q 4422 1184 4422 1656 
L 4422 3669 
L 4903 3669 
L 4903 2913 
Q 5278 3031 5672 3322 
L 6003 2931 
Q 5525 2553 4903 2425 
L 4903 1806 
Q 4903 1650 5069 1650 
L 5422 1650 
Q 5572 1650 5638 2059 
L 6094 1813 
z
M 2003 1153 
L 1516 1153 
L 1516 1409 
L 569 1038 
L 288 1478 
L 1516 1888 
L 1516 2472 
L 544 2472 
L 544 2938 
L 1516 2938 
L 1516 3669 
L 2003 3669 
L 2003 1153 
z
M 4063 1363 
L 2444 1363 
L 2444 3091 
L 4063 3091 
L 4063 1363 
z
M 3578 1831 
L 3578 2625 
L 2931 2625 
L 2931 1831 
L 3578 1831 
z
M 6075 -116 
L 5613 -347 
Q 5288 503 4678 928 
L 5113 1147 
Q 5697 819 6075 -116 
z
M 1759 891 
Q 1500 150 806 -428 
L 359 -109 
Q 1034 366 1313 1119 
L 1759 891 
z
M 2994 -147 
L 2516 -306 
Q 2378 363 1941 872 
L 2425 1031 
Q 2850 541 2994 -147 
z
M 4475 -103 
L 4000 -275 
Q 3781 438 3278 844 
L 3775 1025 
Q 4231 634 4475 -103 
z
" transform="scale(0.015625)"/>
      <path id="ArialUnicodeMS-5b50" d="M 5894 2328 
L 3566 2328 
L 3566 191 
Q 3566 -31 3425 -172 
Q 3284 -313 3034 -313 
L 2247 -313 
L 2016 184 
L 2822 147 
Q 3078 138 3078 447 
L 3078 2328 
L 628 2328 
L 628 2797 
L 3078 2797 
L 3078 3438 
Q 3856 3947 4403 4569 
L 1416 4569 
L 1416 5038 
L 5100 5038 
L 5100 4678 
Q 4438 3794 3566 3200 
L 3566 2797 
L 5894 2797 
L 5894 2328 
z
" transform="scale(0.015625)"/>
     </defs>
     <use xlink:href="#ArialUnicodeMS-71d5"/>
     <use xlink:href="#ArialUnicodeMS-5b50" x="100"/>
    </g>
   </g>
   <g id="text_25">
    <!-- 蝴蝶 -->
    <g transform="translate(339.132993 286.604283)scale(0.1 -0.1)">
     <defs>
      <path id="ArialUnicodeMS-8774" d="M 5753 153 
Q 5753 28 5634 -114 
Q 5516 -256 5387 -287 
Q 5259 -319 4744 -306 
L 4588 159 
L 5153 141 
Q 5269 141 5269 244 
L 5269 1656 
L 4709 1656 
Q 4684 1094 4525 653 
Q 4366 213 3822 -453 
L 3463 -84 
Q 3756 172 3938 525 
L 3022 525 
L 3022 109 
L 2534 109 
L 2534 141 
L 2100 6 
Q 2100 447 2053 569 
L 628 141 
L 256 544 
Q 1150 759 1281 813 
L 1281 1844 
L 622 1844 
L 622 4191 
L 1281 4191 
L 1281 5209 
L 1741 5209 
L 1741 4191 
L 2406 4191 
L 2406 4097 
L 3066 4097 
L 3066 5331 
L 3553 5331 
L 3553 4097 
L 4256 4097 
L 4256 5044 
L 5753 5044 
L 5753 153 
z
M 5269 3659 
L 5269 4575 
L 4744 4575 
L 4744 3659 
L 5269 3659 
z
M 1947 2309 
L 1947 3725 
L 1741 3725 
L 1741 2309 
L 1947 2309 
z
M 1281 2309 
L 1281 3725 
L 1081 3725 
L 1081 2309 
L 1281 2309 
z
M 4256 3628 
L 3553 3628 
L 3553 2650 
L 4006 2650 
L 4006 678 
Q 4216 1094 4236 1419 
Q 4256 1744 4256 3628 
z
M 3066 2650 
L 3066 3628 
L 2406 3628 
L 2406 1844 
L 1741 1844 
L 1741 941 
L 1953 1019 
Q 1831 1297 1772 1422 
L 2175 1538 
Q 2419 1147 2534 525 
L 2534 2650 
L 3066 2650 
z
M 5269 2125 
L 5269 3194 
L 4744 3194 
L 4744 2125 
L 5269 2125 
z
M 3519 991 
L 3519 2175 
L 3022 2175 
L 3022 991 
L 3519 991 
z
" transform="scale(0.015625)"/>
      <path id="ArialUnicodeMS-8776" d="M 6222 225 
L 5888 -153 
Q 4825 338 4366 1300 
L 4366 -397 
L 3878 -397 
L 3878 1325 
Q 3463 313 2350 -128 
L 1984 256 
Q 3113 659 3450 1459 
L 2406 1459 
L 2406 1875 
L 1709 1875 
L 1709 1228 
Q 1916 1291 1953 1306 
Q 1891 1441 1747 1600 
L 2144 1766 
Q 2547 1344 2700 691 
L 2266 525 
L 2156 884 
L 513 366 
L 197 788 
Q 469 831 1247 1069 
L 1247 1875 
L 544 1875 
L 544 4184 
L 1247 4184 
L 1247 5325 
L 1709 5325 
L 1709 4184 
L 2350 4184 
L 2350 4569 
L 2797 4569 
L 2797 5063 
L 3284 5063 
L 3284 4569 
L 3653 4569 
L 3653 5388 
L 4141 5388 
L 4141 4569 
L 4750 4569 
L 4750 5388 
L 5234 5388 
L 5234 4569 
L 5966 4569 
L 5966 4103 
L 5234 4103 
L 5234 3047 
L 3653 3047 
L 3653 4103 
L 3284 4103 
L 3284 2791 
L 5684 2791 
L 5684 2322 
L 4366 2322 
L 4366 1925 
L 5966 1925 
L 5966 1459 
L 4775 1459 
Q 5172 694 6222 225 
z
M 4750 3513 
L 4750 4103 
L 4141 4103 
L 4141 3513 
L 4750 3513 
z
M 3878 1925 
L 3878 2322 
L 2797 2322 
L 2797 4103 
L 2419 4103 
L 2419 1925 
L 3878 1925 
z
M 1978 2356 
L 1978 3719 
L 1709 3719 
L 1709 2356 
L 1978 2356 
z
M 1247 2356 
L 1247 3719 
L 1006 3713 
L 1006 2356 
L 1247 2356 
z
" transform="scale(0.015625)"/>
     </defs>
     <use xlink:href="#ArialUnicodeMS-8774"/>
     <use xlink:href="#ArialUnicodeMS-8776" x="100"/>
    </g>
   </g>
   <g id="text_26">
    <!-- 文化中动物词蕴含的性别化和尺寸信息 -->
    <g transform="translate(105.030313 18.180469)scale(0.15 -0.15)">
     <defs>
      <path id="ArialUnicodeMS-6587" d="M 6059 19 
L 5728 -416 
Q 4175 78 3250 878 
Q 2459 141 763 -441 
L 397 0 
Q 2272 603 2894 1209 
Q 1984 2153 1728 3731 
L 647 3731 
L 647 4197 
L 2956 4197 
L 2956 5259 
L 3444 5259 
L 3444 4197 
L 5747 4197 
L 5747 3731 
L 4728 3731 
Q 4441 2166 3597 1216 
Q 4506 494 6059 19 
z
M 4231 3731 
L 2228 3731 
Q 2391 2409 3238 1563 
Q 3981 2372 4231 3731 
z
" transform="scale(0.015625)"/>
      <path id="ArialUnicodeMS-5316" d="M 2431 5147 
Q 2322 4731 2081 4159 
L 1844 3603 
L 1844 -366 
L 1350 -366 
L 1350 2834 
Q 1006 2356 653 2075 
L 306 2444 
Q 1350 3319 2003 5350 
L 2431 5147 
z
M 6081 1325 
Q 5994 419 5786 114 
Q 5578 -191 5203 -191 
L 3872 -191 
Q 3534 -191 3339 -12 
Q 3144 166 3144 469 
L 3144 5178 
L 3628 5178 
L 3628 2853 
Q 4478 3413 5288 4488 
L 5709 4197 
Q 4800 2984 3628 2272 
L 3628 550 
Q 3628 288 3981 288 
L 5113 288 
Q 5553 288 5581 1503 
L 6081 1325 
z
" transform="scale(0.015625)"/>
      <path id="ArialUnicodeMS-4e2d" d="M 5503 1306 
L 4997 1306 
L 4997 1741 
L 3431 1741 
L 3431 -416 
L 2925 -416 
L 2925 1741 
L 1356 1741 
L 1344 1281 
L 838 1281 
L 838 4116 
L 2925 4116 
L 2925 5288 
L 3438 5288 
L 3425 4116 
L 5503 4116 
L 5503 1306 
z
M 4997 2209 
L 4997 3647 
L 3431 3647 
L 3431 2209 
L 4997 2209 
z
M 2925 2209 
L 2925 3647 
L 1344 3647 
L 1344 2209 
L 2925 2209 
z
" transform="scale(0.015625)"/>
      <path id="ArialUnicodeMS-52a8" d="M 5678 3834 
Q 5613 2631 5508 1595 
Q 5403 559 5328 262 
Q 5253 -34 5048 -161 
Q 4844 -288 4591 -288 
Q 4416 -288 4097 -256 
Q 4016 25 3944 238 
Q 4550 172 4644 172 
Q 4703 172 4812 456 
Q 4922 741 5023 1741 
Q 5125 2741 5159 3391 
L 4359 3391 
Q 4366 1738 3883 889 
Q 3400 41 2528 -384 
L 2156 25 
Q 2716 300 3009 634 
Q 2913 850 2719 1075 
Q 1478 731 763 475 
L 428 959 
Q 678 1172 1014 1786 
Q 1350 2400 1503 2906 
L 353 2906 
L 353 3372 
L 3144 3372 
L 3144 2906 
L 2041 2906 
Q 1500 1597 1125 1125 
L 1141 1113 
L 2444 1484 
Q 2397 1556 2125 1797 
L 2478 2047 
Q 3131 1475 3359 997 
Q 3528 1178 3697 1742 
Q 3866 2306 3866 2888 
L 3866 3391 
L 3194 3391 
L 3194 3834 
L 3866 3834 
L 3866 5319 
L 4353 5325 
L 4353 3834 
L 5678 3834 
z
M 2881 4219 
L 603 4219 
L 603 4659 
L 2881 4659 
L 2881 4219 
z
" transform="scale(0.015625)"/>
      <path id="ArialUnicodeMS-7269" d="M 5894 4372 
Q 5778 2013 5592 1016 
Q 5406 19 5240 -150 
Q 5075 -319 4794 -319 
Q 4650 -319 4091 -172 
L 3994 325 
Q 4588 141 4688 141 
Q 4888 141 4963 342 
Q 5038 544 5184 1453 
Q 5331 2363 5394 3903 
L 5063 3903 
Q 4900 1088 3278 -319 
L 2841 -38 
Q 4422 1244 4616 3903 
L 4213 3903 
Q 3875 1706 2631 556 
L 2216 825 
Q 3500 2034 3756 3903 
L 3425 3903 
Q 3147 3078 2675 2484 
L 2222 2688 
Q 3091 3713 3225 5306 
L 3659 5191 
Q 3641 4784 3541 4372 
L 5894 4372 
z
M 2778 1894 
L 2081 1625 
L 2081 -469 
L 1594 -469 
L 1594 1422 
L 788 1100 
L 453 1478 
L 1594 1913 
L 1594 3366 
L 1247 3366 
Q 1128 2781 891 2369 
L 434 2541 
Q 863 3241 831 4622 
L 1319 4525 
Q 1334 4269 1334 4109 
Q 1334 3941 1319 3834 
L 1594 3834 
L 1594 5269 
L 2081 5269 
L 2081 3834 
L 2650 3834 
L 2650 3366 
L 2081 3366 
L 2081 2106 
L 2778 2369 
L 2778 1894 
z
" transform="scale(0.015625)"/>
      <path id="ArialUnicodeMS-8bcd" d="M 2003 4331 
L 1563 4019 
Q 1306 4572 788 4991 
L 1125 5288 
Q 1669 4916 2003 4331 
z
M 5684 134 
Q 5684 -97 5548 -244 
Q 5413 -391 5178 -391 
L 4397 -391 
L 4219 109 
Q 4709 78 4909 78 
Q 5103 78 5150 120 
Q 5197 163 5197 288 
L 5197 4581 
L 2350 4581 
L 2350 5050 
L 5684 5050 
L 5684 134 
z
M 4703 3450 
L 2278 3450 
L 2278 3916 
L 4703 3916 
L 4703 3450 
z
M 2472 500 
L 1403 -172 
L 1113 244 
Q 1191 313 1191 459 
L 1191 2931 
L 325 2931 
L 325 3397 
L 1684 3397 
L 1684 550 
L 2472 1044 
L 2472 500 
z
M 4500 672 
L 4013 672 
L 4013 1063 
L 3059 1063 
L 3059 653 
L 2572 653 
L 2572 2969 
L 4500 2969 
L 4500 672 
z
M 4013 1528 
L 4013 2503 
L 3059 2503 
L 3059 1528 
L 4013 1528 
z
" transform="scale(0.015625)"/>
      <path id="ArialUnicodeMS-8574" d="M 5831 4366 
L 4219 4366 
L 4219 4006 
L 3731 4006 
L 3731 4366 
L 2497 4366 
L 2497 4006 
L 2009 4006 
L 2009 4366 
L 391 4366 
L 391 4831 
L 2009 4831 
L 2009 5281 
L 2497 5281 
L 2497 4831 
L 3731 4831 
L 3731 5281 
L 4219 5281 
L 4219 4831 
L 5831 4831 
L 5831 4366 
z
M 2463 3194 
Q 1913 2078 1228 1528 
L 1241 1516 
L 2247 1869 
L 2247 1388 
Q 1594 1191 575 844 
L 331 1306 
Q 859 1644 1313 2228 
L 563 2053 
L 331 2484 
Q 894 2953 1466 4134 
L 1863 3878 
Q 1431 2978 1006 2619 
L 1019 2606 
L 1656 2753 
Q 1763 2891 2059 3450 
L 2463 3194 
z
M 5234 2113 
L 2694 2113 
L 2694 3816 
L 5234 3816 
L 5234 2113 
z
M 4750 3188 
L 4750 3372 
L 3181 3372 
L 3181 3188 
L 4750 3188 
z
M 4750 2553 
L 4750 2747 
L 3181 2747 
L 3181 2553 
L 4750 2553 
z
M 5906 -184 
L 1856 -184 
L 1856 281 
L 2450 281 
L 2450 1881 
L 5472 1881 
L 5472 281 
L 5906 281 
L 5906 -184 
z
M 4984 281 
L 4984 1416 
L 4609 1416 
L 4609 281 
L 4984 281 
z
M 4153 281 
L 4153 1416 
L 3769 1416 
L 3769 281 
L 4153 281 
z
M 3316 281 
L 3316 1416 
L 2938 1416 
L 2938 281 
L 3316 281 
z
M 2247 581 
Q 1222 175 525 -56 
L 263 459 
Q 747 528 2247 1088 
L 2247 581 
z
" transform="scale(0.015625)"/>
      <path id="ArialUnicodeMS-542b" d="M 6181 3481 
L 5894 3016 
Q 5197 3216 4428 3700 
L 4428 3456 
L 1900 3456 
L 1900 3706 
Q 1278 3309 506 2988 
L 238 3456 
Q 941 3656 1781 4232 
Q 2622 4809 3116 5491 
L 3584 5259 
L 3488 5119 
Q 4572 3931 6181 3481 
z
M 4091 3928 
Q 3516 4338 3181 4763 
Q 2775 4319 2222 3928 
L 4091 3928 
z
M 5141 2638 
Q 4156 1803 2016 1600 
L 1797 2059 
Q 3313 2181 4256 2591 
L 1184 2591 
L 1184 3059 
L 5141 3059 
L 5141 2638 
z
M 5081 -416 
L 4575 -416 
L 4575 -38 
L 1806 -38 
L 1806 -416 
L 1300 -416 
L 1300 1588 
L 5081 1588 
L 5081 -416 
z
M 4575 428 
L 4575 1119 
L 1806 1119 
L 1806 428 
L 4575 428 
z
" transform="scale(0.015625)"/>
      <path id="ArialUnicodeMS-7684" d="M 5644 4281 
Q 5619 1694 5395 673 
Q 5172 -347 4606 -347 
Q 4350 -347 3609 -134 
L 3525 403 
Q 4247 134 4531 134 
Q 4806 134 4976 1142 
Q 5147 2150 5159 3841 
L 3794 3841 
Q 3550 3166 3053 2497 
L 2719 2713 
L 2719 -147 
L 2216 -147 
L 2216 269 
L 1153 269 
L 1153 -250 
L 647 -250 
L 647 4184 
L 1234 4184 
Q 1494 4644 1625 5313 
L 2088 5125 
Q 1903 4444 1741 4184 
L 2719 4184 
L 2719 2881 
Q 3431 3888 3681 5363 
L 4191 5247 
Q 4106 4869 3916 4281 
L 5644 4281 
z
M 2216 2484 
L 2216 3719 
L 1153 3719 
L 1153 2484 
L 2216 2484 
z
M 2216 738 
L 2216 2016 
L 1153 2016 
L 1153 738 
L 2216 738 
z
M 4775 1369 
L 4313 1166 
Q 4034 1925 3444 2669 
L 3841 2931 
Q 4484 2191 4775 1369 
z
" transform="scale(0.015625)"/>
      <path id="ArialUnicodeMS-548c" d="M 3659 1516 
L 3256 1222 
Q 2881 2025 2472 2303 
L 2472 -447 
L 1978 -447 
L 1978 2069 
Q 1694 1450 788 634 
L 341 959 
Q 1578 1947 1959 3097 
L 738 3097 
L 738 3566 
L 1984 3566 
L 1984 4372 
Q 1050 4231 831 4231 
L 634 4672 
Q 2306 4788 3181 5253 
L 3475 4891 
Q 3166 4703 2472 4481 
L 2472 3566 
L 3559 3566 
L 3559 3097 
L 2472 3097 
L 2472 2638 
L 2644 2759 
Q 3322 2300 3659 1516 
z
M 5722 -63 
L 5234 -63 
L 5234 575 
L 4213 575 
L 4213 -63 
L 3725 -63 
L 3725 4738 
L 5722 4738 
L 5722 -63 
z
M 5234 1044 
L 5234 4269 
L 4213 4269 
L 4213 1044 
L 5234 1044 
z
" transform="scale(0.015625)"/>
      <path id="ArialUnicodeMS-4fe1" d="M 2113 5100 
Q 1991 4697 1822 4250 
L 1650 3834 
L 1650 -434 
L 1166 -434 
L 1166 2969 
Q 969 2606 609 2181 
L 206 2503 
Q 1144 3613 1656 5281 
L 2113 5100 
z
M 5594 4728 
L 2363 4728 
L 2363 5197 
L 5594 5197 
L 5594 4728 
z
M 6022 3872 
L 2003 3872 
L 2003 4341 
L 6022 4341 
L 6022 3872 
z
M 5588 2938 
L 2356 2938 
L 2356 3406 
L 5588 3406 
L 5588 2938 
z
M 5588 2022 
L 2356 2022 
L 2356 2491 
L 5588 2491 
L 5588 2022 
z
M 5509 -434 
L 5044 -434 
L 5044 -56 
L 2894 -56 
L 2894 -434 
L 2425 -434 
L 2425 1528 
L 5509 1528 
L 5509 -434 
z
M 5044 359 
L 5044 1113 
L 2894 1113 
L 2894 359 
L 5044 359 
z
" transform="scale(0.015625)"/>
      <path id="ArialUnicodeMS-606f" d="M 4959 1759 
L 1338 1759 
L 1338 4756 
L 2753 4756 
Q 3038 5041 3219 5394 
L 3653 5159 
Q 3509 4919 3347 4756 
L 4959 4756 
L 4959 1759 
z
M 4475 3938 
L 4475 4288 
L 1825 4288 
L 1825 3938 
L 4475 3938 
z
M 4475 3084 
L 4475 3469 
L 1825 3469 
L 1825 3084 
L 4475 3084 
z
M 4475 2228 
L 4475 2644 
L 1825 2644 
L 1825 2228 
L 4475 2228 
z
M 3916 928 
L 3591 594 
Q 3144 1119 2497 1350 
L 2809 1697 
Q 3447 1484 3916 928 
z
M 4703 844 
Q 4519 194 4395 17 
Q 4272 -159 4025 -159 
L 2456 -159 
Q 1925 -159 1925 269 
L 1925 1409 
L 2413 1409 
L 2413 500 
Q 2413 306 2566 306 
L 3928 306 
Q 4038 306 4097 475 
L 4250 903 
L 4703 844 
z
M 6075 353 
L 5663 72 
Q 5256 788 4506 1081 
L 4884 1375 
Q 5578 1100 6075 353 
z
M 1766 1088 
Q 1378 425 616 0 
L 275 359 
Q 1034 734 1403 1350 
L 1766 1088 
z
" transform="scale(0.015625)"/>
     </defs>
     <use xlink:href="#ArialUnicodeMS-6587"/>
     <use xlink:href="#ArialUnicodeMS-5316" x="100"/>
     <use xlink:href="#ArialUnicodeMS-4e2d" x="200"/>
     <use xlink:href="#ArialUnicodeMS-52a8" x="300"/>
     <use xlink:href="#ArialUnicodeMS-7269" x="400"/>
     <use xlink:href="#ArialUnicodeMS-8bcd" x="500"/>
     <use xlink:href="#ArialUnicodeMS-8574" x="600"/>
     <use xlink:href="#ArialUnicodeMS-542b" x="700"/>
     <use xlink:href="#ArialUnicodeMS-7684" x="800"/>
     <use xlink:href="#ArialUnicodeMS-6027" x="900"/>
     <use xlink:href="#ArialUnicodeMS-522b" x="1000"/>
     <use xlink:href="#ArialUnicodeMS-5316" x="1100"/>
     <use xlink:href="#ArialUnicodeMS-548c" x="1200"/>
     <use xlink:href="#ArialUnicodeMS-5c3a" x="1300"/>
     <use xlink:href="#ArialUnicodeMS-5bf8" x="1400"/>
     <use xlink:href="#ArialUnicodeMS-4fe1" x="1500"/>
     <use xlink:href="#ArialUnicodeMS-606f" x="1600"/>
    </g>
   </g>
  </g>
 </g>
 <defs>
  <clipPath id="p519a0b591f">
   <rect x="53.970313" y="24.180469" width="357.12" height="266.112"/>
  </clipPath>
 </defs>
</svg>
