<?xml version="1.0" encoding="utf-8" standalone="no"?>
<!DOCTYPE svg PUBLIC "-//W3C//DTD SVG 1.1//EN"
  "http://www.w3.org/Graphics/SVG/1.1/DTD/svg11.dtd">
<svg xmlns:xlink="http://www.w3.org/1999/xlink" width="429.428371pt" height="327.867469pt" viewBox="0 0 429.428371 327.867469" xmlns="http://www.w3.org/2000/svg" version="1.1">
 <metadata>
  <rdf:RDF xmlns:dc="http://purl.org/dc/elements/1.1/" xmlns:cc="http://creativecommons.org/ns#" xmlns:rdf="http://www.w3.org/1999/02/22-rdf-syntax-ns#">
   <cc:Work>
    <dc:type rdf:resource="http://purl.org/dc/dcmitype/StillImage"/>
    <dc:date>2023-03-02T17:34:17.365323</dc:date>
    <dc:format>image/svg+xml</dc:format>
    <dc:creator>
     <cc:Agent>
      <dc:title>Matplotlib v3.5.2, https://matplotlib.org/</dc:title>
     </cc:Agent>
    </dc:creator>
   </cc:Work>
  </rdf:RDF>
 </metadata>
 <defs>
  <style type="text/css">*{stroke-linejoin: round; stroke-linecap: butt}</style>
 </defs>
 <g id="figure_1">
  <g id="patch_1">
   <path d="M 0 327.867469 
L 429.428371 327.867469 
L 429.428371 0 
L 0 0 
z
" style="fill: #ffffff"/>
  </g>
  <g id="axes_1">
   <g id="patch_2">
    <path d="M 53.951563 290.048719 
L 411.071563 290.048719 
L 411.071563 23.936719 
L 53.951563 23.936719 
z
" style="fill: #ffffff"/>
   </g>
   <g id="PathCollection_1">
    <defs>
     <path id="mf6d7a91b74" d="M 0 0.05 
C 0.01326 0.05 0.025979 0.044732 0.035355 0.035355 
C 0.044732 0.025979 0.05 0.01326 0.05 0 
C 0.05 -0.01326 0.044732 -0.025979 0.035355 -0.035355 
C 0.025979 -0.044732 0.01326 -0.05 0 -0.05 
C -0.01326 -0.05 -0.025979 -0.044732 -0.035355 -0.035355 
C -0.044732 -0.025979 -0.05 -0.01326 -0.05 0 
C -0.05 0.01326 -0.044732 0.025979 -0.035355 0.035355 
C -0.025979 0.044732 -0.01326 0.05 0 0.05 
z
" style="stroke: #ffffff"/>
    </defs>
    <g clip-path="url(#pa5e266bfa5)">
     <use xlink:href="#mf6d7a91b74" x="303.136481" y="158.908641" style="fill: #ffffff; stroke: #ffffff"/>
     <use xlink:href="#mf6d7a91b74" x="187.70981" y="56.764573" style="fill: #ffffff; stroke: #ffffff"/>
     <use xlink:href="#mf6d7a91b74" x="395.085971" y="100.969698" style="fill: #ffffff; stroke: #ffffff"/>
     <use xlink:href="#mf6d7a91b74" x="140.212461" y="66.868524" style="fill: #ffffff; stroke: #ffffff"/>
     <use xlink:href="#mf6d7a91b74" x="259.312635" y="79.489424" style="fill: #ffffff; stroke: #ffffff"/>
     <use xlink:href="#mf6d7a91b74" x="237.829798" y="140.042558" style="fill: #ffffff; stroke: #ffffff"/>
     <use xlink:href="#mf6d7a91b74" x="245.496386" y="256.22838" style="fill: #ffffff; stroke: #ffffff"/>
    </g>
   </g>
   <g id="Quiver_1">
    <path d="M 232.547879 155.654011 
L 291.124431 157.243084 
L 289.858356 154.529352 
L 303.136481 158.908641 
L 289.640457 162.561597 
L 291.051797 159.920499 
L 232.475246 158.331426 
L 232.547879 155.654011 
" clip-path="url(#pa5e266bfa5)" style="fill: #800080"/>
    <path d="M 231.288947 157.539225 
L 191.40575 68.314615 
L 189.507026 70.630242 
L 187.70981 56.764573 
L 196.842717 67.351205 
L 193.850981 67.221602 
L 233.734178 156.446213 
L 231.288947 157.539225 
" clip-path="url(#pa5e266bfa5)" style="fill: #008000"/>
    <path d="M 232.075254 155.726586 
L 383.254469 103.63034 
L 381.11572 101.534383 
L 395.085971 100.969698 
L 383.73357 109.131179 
L 384.127086 106.162605 
L 232.947871 158.258851 
L 232.075254 155.726586 
" clip-path="url(#pa5e266bfa5)" style="fill: #0000ff"/>
    <path d="M 231.575962 157.950898 
L 147.900473 76.247112 
L 146.98745 79.099072 
L 140.212461 66.868524 
L 152.601056 73.349996 
L 149.771675 74.330754 
L 233.447163 156.03454 
L 231.575962 157.950898 
" clip-path="url(#pa5e266bfa5)" style="fill: #ff0000"/>
    <path d="M 231.245901 156.555046 
L 254.107918 90.442705 
L 251.138922 90.833021 
L 259.312635 79.489424 
L 258.732891 93.459058 
L 256.639241 91.318051 
L 233.777224 157.430392 
L 231.245901 156.555046 
" clip-path="url(#pa5e266bfa5)" style="fill: #800080"/>
    <path d="M 231.233781 156.591806 
L 232.943798 151.141677 
L 229.987323 151.617632 
L 237.829798 140.042558 
L 237.654011 154.023111 
L 235.499361 151.943503 
L 233.789344 157.393632 
L 231.233781 156.591806 
" clip-path="url(#pa5e266bfa5)" style="fill: #008000"/>
    <path d="M 233.839443 156.818968 
L 245.260507 244.103703 
L 247.742518 242.42832 
L 245.496386 256.22838 
L 239.775233 243.470826 
L 242.604746 244.451205 
L 231.183682 157.16647 
L 233.839443 156.818968 
" clip-path="url(#pa5e266bfa5)" style="fill: #0000ff"/>
   </g>
   <g id="matplotlib.axis_1">
    <g id="xtick_1">
     <g id="line2d_1">
      <defs>
       <path id="m97a6d36e6e" d="M 0 0 
L 0 3.5 
" style="stroke: #000000; stroke-width: 0.8"/>
      </defs>
      <g>
       <use xlink:href="#m97a6d36e6e" x="89.663562" y="290.048719" style="stroke: #000000; stroke-width: 0.8"/>
      </g>
     </g>
     <g id="text_1">
      <!-- −0.2 -->
      <g transform="translate(79.79325 304.206531)scale(0.1 -0.1)">
       <defs>
        <path id="ArialUnicodeMS-2212" d="M 3384 1997 
L 353 1997 
L 353 2522 
L 3384 2522 
L 3384 1997 
z
" transform="scale(0.015625)"/>
        <path id="ArialUnicodeMS-30" d="M 1778 4603 
Q 3272 4603 3272 2259 
Q 3272 1075 2886 498 
Q 2500 -78 1778 -78 
Q 288 -78 288 2259 
Q 288 3444 673 4023 
Q 1059 4603 1778 4603 
z
M 1778 384 
Q 2231 384 2462 823 
Q 2694 1263 2694 2259 
Q 2694 2953 2592 3351 
Q 2491 3750 2286 3945 
Q 2081 4141 1772 4141 
Q 1319 4141 1091 3694 
Q 863 3247 863 2259 
Q 863 1575 966 1175 
Q 1069 775 1272 579 
Q 1475 384 1778 384 
z
" transform="scale(0.015625)"/>
        <path id="ArialUnicodeMS-2e" d="M 1209 0 
L 569 0 
L 569 641 
L 1209 641 
L 1209 0 
z
" transform="scale(0.015625)"/>
        <path id="ArialUnicodeMS-32" d="M 3231 0 
L 197 0 
Q 197 388 467 784 
Q 738 1181 1478 1778 
Q 1931 2141 2287 2539 
Q 2644 2938 2644 3341 
Q 2644 3688 2398 3914 
Q 2153 4141 1778 4141 
Q 1400 4141 1144 3908 
Q 888 3675 884 3213 
L 306 3278 
Q 359 3922 764 4262 
Q 1169 4603 1791 4603 
Q 2466 4603 2842 4229 
Q 3219 3856 3219 3328 
Q 3219 2888 2901 2436 
Q 2584 1984 1638 1228 
Q 1141 831 978 544 
L 3231 544 
L 3231 0 
z
" transform="scale(0.015625)"/>
       </defs>
       <use xlink:href="#ArialUnicodeMS-2212"/>
       <use xlink:href="#ArialUnicodeMS-30" x="58.398438"/>
       <use xlink:href="#ArialUnicodeMS-2e" x="114.013672"/>
       <use xlink:href="#ArialUnicodeMS-32" x="141.796875"/>
      </g>
     </g>
    </g>
    <g id="xtick_2">
     <g id="line2d_2">
      <g>
       <use xlink:href="#m97a6d36e6e" x="161.087562" y="290.048719" style="stroke: #000000; stroke-width: 0.8"/>
      </g>
     </g>
     <g id="text_2">
      <!-- −0.1 -->
      <g transform="translate(151.21725 304.206531)scale(0.1 -0.1)">
       <defs>
        <path id="ArialUnicodeMS-31" d="M 2400 0 
L 1838 0 
L 1838 3584 
Q 1416 3184 709 2906 
L 709 3450 
Q 1681 3916 2034 4603 
L 2400 4603 
L 2400 0 
z
" transform="scale(0.015625)"/>
       </defs>
       <use xlink:href="#ArialUnicodeMS-2212"/>
       <use xlink:href="#ArialUnicodeMS-30" x="58.398438"/>
       <use xlink:href="#ArialUnicodeMS-2e" x="114.013672"/>
       <use xlink:href="#ArialUnicodeMS-31" x="141.796875"/>
      </g>
     </g>
    </g>
    <g id="xtick_3">
     <g id="line2d_3">
      <g>
       <use xlink:href="#m97a6d36e6e" x="232.511563" y="290.048719" style="stroke: #000000; stroke-width: 0.8"/>
      </g>
     </g>
     <g id="text_3">
      <!-- 0.0 -->
      <g transform="translate(225.561563 304.206531)scale(0.1 -0.1)">
       <use xlink:href="#ArialUnicodeMS-30"/>
       <use xlink:href="#ArialUnicodeMS-2e" x="55.615234"/>
       <use xlink:href="#ArialUnicodeMS-30" x="83.398438"/>
      </g>
     </g>
    </g>
    <g id="xtick_4">
     <g id="line2d_4">
      <g>
       <use xlink:href="#m97a6d36e6e" x="303.935563" y="290.048719" style="stroke: #000000; stroke-width: 0.8"/>
      </g>
     </g>
     <g id="text_4">
      <!-- 0.1 -->
      <g transform="translate(296.985563 304.206531)scale(0.1 -0.1)">
       <use xlink:href="#ArialUnicodeMS-30"/>
       <use xlink:href="#ArialUnicodeMS-2e" x="55.615234"/>
       <use xlink:href="#ArialUnicodeMS-31" x="83.398438"/>
      </g>
     </g>
    </g>
    <g id="xtick_5">
     <g id="line2d_5">
      <g>
       <use xlink:href="#m97a6d36e6e" x="375.359562" y="290.048719" style="stroke: #000000; stroke-width: 0.8"/>
      </g>
     </g>
     <g id="text_5">
      <!-- 0.2 -->
      <g transform="translate(368.409562 304.206531)scale(0.1 -0.1)">
       <use xlink:href="#ArialUnicodeMS-30"/>
       <use xlink:href="#ArialUnicodeMS-2e" x="55.615234"/>
       <use xlink:href="#ArialUnicodeMS-32" x="83.398438"/>
      </g>
     </g>
    </g>
    <g id="text_6">
     <!-- 性别(男左女右) -->
     <g transform="translate(199.181875 318.567469)scale(0.1 -0.1)">
      <defs>
       <path id="ArialUnicodeMS-6027" d="M 6088 6 
L 2322 6 
L 2322 475 
L 3928 475 
L 3928 1778 
L 2669 1778 
L 2669 2247 
L 3928 2247 
L 3928 3463 
L 3169 3463 
Q 2978 2881 2606 2375 
L 2113 2597 
Q 2363 2838 2438 3003 
L 2203 2900 
Q 2078 3494 1766 3866 
L 1766 -434 
L 1281 -434 
L 1281 5281 
L 1766 5281 
L 1766 3928 
L 2138 4128 
Q 2413 3813 2597 3347 
Q 2844 3763 2894 4775 
L 3378 4647 
Q 3363 4338 3291 3928 
L 3928 3928 
L 3928 5294 
L 4416 5294 
L 4416 3928 
L 5759 3928 
L 5759 3463 
L 4416 3463 
L 4416 2247 
L 5569 2247 
L 5569 1778 
L 4416 1778 
L 4416 475 
L 6088 475 
L 6088 6 
z
M 1241 3897 
Q 1175 2956 763 2344 
L 347 2528 
Q 819 3406 819 4025 
L 1241 3897 
z
" transform="scale(0.015625)"/>
       <path id="ArialUnicodeMS-522b" d="M 5650 116 
Q 5650 -103 5517 -256 
Q 5384 -409 5166 -409 
L 4409 -409 
L 4184 91 
Q 4588 69 4744 69 
Q 5016 69 5091 105 
Q 5166 141 5166 294 
L 5166 5253 
L 5650 5253 
L 5650 116 
z
M 3450 3041 
L 884 3041 
L 884 5006 
L 3450 5006 
L 3450 3041 
z
M 2963 3506 
L 2963 4538 
L 1369 4538 
L 1369 3506 
L 2963 3506 
z
M 4616 909 
L 4109 909 
L 4109 4641 
L 4616 4641 
L 4616 909 
z
M 3634 2316 
Q 3606 1238 3467 466 
Q 3328 -306 2572 -306 
Q 2300 -306 1959 -206 
L 1844 341 
L 2400 197 
Q 2488 178 2563 178 
Q 2778 178 2868 331 
Q 2959 484 3020 865 
Q 3081 1247 3097 1831 
L 2125 1831 
Q 2059 1184 1715 510 
Q 1372 -163 844 -447 
L 447 -78 
Q 1419 456 1613 1831 
L 581 1831 
L 581 2316 
L 1691 2316 
Q 1731 2569 1722 2981 
L 2216 2919 
Q 2197 2484 2169 2316 
L 3634 2316 
z
" transform="scale(0.015625)"/>
       <path id="ArialUnicodeMS-28" d="M 1900 -1344 
L 1497 -1344 
Q 978 -681 681 103 
Q 384 888 384 1656 
Q 384 2528 700 3275 
Q 1016 4022 1497 4659 
L 1900 4659 
Q 1344 3747 1155 3059 
Q 966 2372 966 1663 
Q 966 153 1900 -1344 
z
" transform="scale(0.015625)"/>
       <path id="ArialUnicodeMS-7537" d="M 5434 2491 
L 1300 2491 
L 1300 5013 
L 5434 5013 
L 5434 2491 
z
M 4897 3988 
L 4897 4544 
L 3597 4544 
L 3597 3988 
L 4897 3988 
z
M 3091 3988 
L 3091 4544 
L 1806 4544 
L 1806 3988 
L 3091 3988 
z
M 4897 2956 
L 4897 3519 
L 3597 3519 
L 3597 2956 
L 4897 2956 
z
M 3091 2956 
L 3091 3519 
L 1806 3519 
L 1806 2956 
L 3091 2956 
z
M 5691 1900 
Q 5644 1400 5489 725 
Q 5334 50 5123 -84 
Q 4913 -219 4550 -219 
Q 4341 -219 3634 -147 
L 3463 422 
Q 4241 288 4663 288 
Q 4803 288 4881 430 
Q 4959 572 5026 912 
Q 5094 1253 5094 1434 
L 3413 1434 
Q 3172 638 2562 195 
Q 1953 -247 794 -397 
L 544 78 
Q 1606 191 2132 522 
Q 2659 853 2875 1434 
L 1006 1434 
L 1006 1900 
L 3003 1900 
L 3066 2425 
L 3559 2363 
Q 3541 2094 3500 1900 
L 5691 1900 
z
" transform="scale(0.015625)"/>
       <path id="ArialUnicodeMS-5de6" d="M 5919 -91 
L 1141 -91 
L 1141 378 
L 3341 378 
L 3341 2138 
L 2041 2138 
Q 1556 1203 788 475 
L 353 794 
Q 1747 2006 2094 3769 
L 641 3769 
L 641 4238 
L 2203 4238 
Q 2350 5069 2369 5241 
L 2841 5113 
Q 2813 4791 2706 4238 
L 5919 4238 
L 5919 3769 
L 2597 3769 
Q 2397 2944 2259 2606 
L 5509 2606 
L 5509 2138 
L 3828 2138 
L 3828 378 
L 5919 378 
L 5919 -91 
z
" transform="scale(0.015625)"/>
       <path id="ArialUnicodeMS-5973" d="M 5831 166 
L 5522 -275 
Q 4650 394 3406 831 
Q 2425 -22 838 -341 
L 550 134 
Q 2050 431 2853 1044 
Q 2159 1281 1306 1472 
Q 1775 2288 2228 3341 
L 838 3341 
L 838 3828 
L 2425 3828 
Q 2759 4572 3009 5350 
L 3488 5141 
L 2975 3828 
L 5791 3828 
L 5791 3341 
L 4934 3341 
Q 4425 1913 3788 1234 
Q 5191 697 5831 166 
z
M 4359 3341 
L 2778 3341 
Q 2603 2919 2047 1772 
Q 3213 1444 3284 1422 
Q 3925 2044 4359 3341 
z
" transform="scale(0.015625)"/>
       <path id="ArialUnicodeMS-53f3" d="M 5869 3744 
L 2900 3744 
Q 2700 3094 2375 2559 
L 5325 2559 
L 5325 -397 
L 4838 -397 
L 4838 25 
L 2478 25 
L 2478 -397 
L 1991 -397 
L 1991 1997 
Q 1528 1397 819 916 
L 441 1275 
Q 1913 2266 2375 3744 
L 781 3744 
L 781 4213 
L 2516 4213 
Q 2631 4609 2725 5356 
L 3225 5216 
Q 3084 4425 3034 4213 
L 5869 4213 
L 5869 3744 
z
M 4838 494 
L 4838 2094 
L 2478 2094 
L 2478 494 
L 4838 494 
z
" transform="scale(0.015625)"/>
       <path id="ArialUnicodeMS-29" d="M 634 4659 
Q 1153 3997 1450 3212 
Q 1747 2428 1747 1656 
Q 1747 788 1431 41 
Q 1116 -706 634 -1344 
L 231 -1344 
Q 788 -431 977 255 
Q 1166 941 1166 1650 
Q 1166 3163 231 4659 
L 634 4659 
z
" transform="scale(0.015625)"/>
      </defs>
      <use xlink:href="#ArialUnicodeMS-6027"/>
      <use xlink:href="#ArialUnicodeMS-522b" x="100"/>
      <use xlink:href="#ArialUnicodeMS-28" x="200"/>
      <use xlink:href="#ArialUnicodeMS-7537" x="233.300781"/>
      <use xlink:href="#ArialUnicodeMS-5de6" x="333.300781"/>
      <use xlink:href="#ArialUnicodeMS-5973" x="433.300781"/>
      <use xlink:href="#ArialUnicodeMS-53f3" x="533.300781"/>
      <use xlink:href="#ArialUnicodeMS-29" x="633.300781"/>
     </g>
    </g>
   </g>
   <g id="matplotlib.axis_2">
    <g id="ytick_1">
     <g id="line2d_6">
      <defs>
       <path id="m2b5d0777a9" d="M 0 0 
L -3.5 0 
" style="stroke: #000000; stroke-width: 0.8"/>
      </defs>
      <g>
       <use xlink:href="#m2b5d0777a9" x="53.951563" y="290.048719" style="stroke: #000000; stroke-width: 0.8"/>
      </g>
     </g>
     <g id="text_7">
      <!-- −0.20 -->
      <g transform="translate(21.65 293.627625)scale(0.1 -0.1)">
       <use xlink:href="#ArialUnicodeMS-2212"/>
       <use xlink:href="#ArialUnicodeMS-30" x="58.398438"/>
       <use xlink:href="#ArialUnicodeMS-2e" x="114.013672"/>
       <use xlink:href="#ArialUnicodeMS-32" x="141.796875"/>
       <use xlink:href="#ArialUnicodeMS-30" x="197.412109"/>
      </g>
     </g>
    </g>
    <g id="ytick_2">
     <g id="line2d_7">
      <g>
       <use xlink:href="#m2b5d0777a9" x="53.951563" y="256.784719" style="stroke: #000000; stroke-width: 0.8"/>
      </g>
     </g>
     <g id="text_8">
      <!-- −0.15 -->
      <g transform="translate(21.65 260.363625)scale(0.1 -0.1)">
       <defs>
        <path id="ArialUnicodeMS-35" d="M 1013 2753 
Q 1431 3041 1881 3041 
Q 2453 3041 2878 2636 
Q 3303 2231 3303 1556 
Q 3303 875 2872 398 
Q 2441 -78 1741 -78 
Q 1169 -78 750 245 
Q 331 569 269 1203 
L 856 1247 
Q 928 813 1162 598 
Q 1397 384 1741 384 
Q 2169 384 2434 707 
Q 2700 1031 2700 1503 
Q 2700 1984 2428 2262 
Q 2156 2541 1728 2541 
Q 1188 2541 897 2100 
L 366 2163 
L 813 4519 
L 3084 4519 
L 3084 3975 
L 1259 3975 
L 1013 2753 
z
" transform="scale(0.015625)"/>
       </defs>
       <use xlink:href="#ArialUnicodeMS-2212"/>
       <use xlink:href="#ArialUnicodeMS-30" x="58.398438"/>
       <use xlink:href="#ArialUnicodeMS-2e" x="114.013672"/>
       <use xlink:href="#ArialUnicodeMS-31" x="141.796875"/>
       <use xlink:href="#ArialUnicodeMS-35" x="197.412109"/>
      </g>
     </g>
    </g>
    <g id="ytick_3">
     <g id="line2d_8">
      <g>
       <use xlink:href="#m2b5d0777a9" x="53.951563" y="223.520719" style="stroke: #000000; stroke-width: 0.8"/>
      </g>
     </g>
     <g id="text_9">
      <!-- −0.10 -->
      <g transform="translate(21.65 227.099625)scale(0.1 -0.1)">
       <use xlink:href="#ArialUnicodeMS-2212"/>
       <use xlink:href="#ArialUnicodeMS-30" x="58.398438"/>
       <use xlink:href="#ArialUnicodeMS-2e" x="114.013672"/>
       <use xlink:href="#ArialUnicodeMS-31" x="141.796875"/>
       <use xlink:href="#ArialUnicodeMS-30" x="197.412109"/>
      </g>
     </g>
    </g>
    <g id="ytick_4">
     <g id="line2d_9">
      <g>
       <use xlink:href="#m2b5d0777a9" x="53.951563" y="190.256719" style="stroke: #000000; stroke-width: 0.8"/>
      </g>
     </g>
     <g id="text_10">
      <!-- −0.05 -->
      <g transform="translate(21.65 193.835625)scale(0.1 -0.1)">
       <use xlink:href="#ArialUnicodeMS-2212"/>
       <use xlink:href="#ArialUnicodeMS-30" x="58.398438"/>
       <use xlink:href="#ArialUnicodeMS-2e" x="114.013672"/>
       <use xlink:href="#ArialUnicodeMS-30" x="141.796875"/>
       <use xlink:href="#ArialUnicodeMS-35" x="197.412109"/>
      </g>
     </g>
    </g>
    <g id="ytick_5">
     <g id="line2d_10">
      <g>
       <use xlink:href="#m2b5d0777a9" x="53.951563" y="156.992719" style="stroke: #000000; stroke-width: 0.8"/>
      </g>
     </g>
     <g id="text_11">
      <!-- 0.00 -->
      <g transform="translate(27.490625 160.571625)scale(0.1 -0.1)">
       <use xlink:href="#ArialUnicodeMS-30"/>
       <use xlink:href="#ArialUnicodeMS-2e" x="55.615234"/>
       <use xlink:href="#ArialUnicodeMS-30" x="83.398438"/>
       <use xlink:href="#ArialUnicodeMS-30" x="139.013672"/>
      </g>
     </g>
    </g>
    <g id="ytick_6">
     <g id="line2d_11">
      <g>
       <use xlink:href="#m2b5d0777a9" x="53.951563" y="123.728719" style="stroke: #000000; stroke-width: 0.8"/>
      </g>
     </g>
     <g id="text_12">
      <!-- 0.05 -->
      <g transform="translate(27.490625 127.307625)scale(0.1 -0.1)">
       <use xlink:href="#ArialUnicodeMS-30"/>
       <use xlink:href="#ArialUnicodeMS-2e" x="55.615234"/>
       <use xlink:href="#ArialUnicodeMS-30" x="83.398438"/>
       <use xlink:href="#ArialUnicodeMS-35" x="139.013672"/>
      </g>
     </g>
    </g>
    <g id="ytick_7">
     <g id="line2d_12">
      <g>
       <use xlink:href="#m2b5d0777a9" x="53.951563" y="90.464719" style="stroke: #000000; stroke-width: 0.8"/>
      </g>
     </g>
     <g id="text_13">
      <!-- 0.10 -->
      <g transform="translate(27.490625 94.043625)scale(0.1 -0.1)">
       <use xlink:href="#ArialUnicodeMS-30"/>
       <use xlink:href="#ArialUnicodeMS-2e" x="55.615234"/>
       <use xlink:href="#ArialUnicodeMS-31" x="83.398438"/>
       <use xlink:href="#ArialUnicodeMS-30" x="139.013672"/>
      </g>
     </g>
    </g>
    <g id="ytick_8">
     <g id="line2d_13">
      <g>
       <use xlink:href="#m2b5d0777a9" x="53.951563" y="57.200719" style="stroke: #000000; stroke-width: 0.8"/>
      </g>
     </g>
     <g id="text_14">
      <!-- 0.15 -->
      <g transform="translate(27.490625 60.779625)scale(0.1 -0.1)">
       <use xlink:href="#ArialUnicodeMS-30"/>
       <use xlink:href="#ArialUnicodeMS-2e" x="55.615234"/>
       <use xlink:href="#ArialUnicodeMS-31" x="83.398438"/>
       <use xlink:href="#ArialUnicodeMS-35" x="139.013672"/>
      </g>
     </g>
    </g>
    <g id="ytick_9">
     <g id="line2d_14">
      <g>
       <use xlink:href="#m2b5d0777a9" x="53.951563" y="23.936719" style="stroke: #000000; stroke-width: 0.8"/>
      </g>
     </g>
     <g id="text_15">
      <!-- 0.20 -->
      <g transform="translate(27.490625 27.515625)scale(0.1 -0.1)">
       <use xlink:href="#ArialUnicodeMS-30"/>
       <use xlink:href="#ArialUnicodeMS-2e" x="55.615234"/>
       <use xlink:href="#ArialUnicodeMS-32" x="83.398438"/>
       <use xlink:href="#ArialUnicodeMS-30" x="139.013672"/>
      </g>
     </g>
    </g>
    <g id="text_16">
     <!-- 贫富(贫下富上) -->
     <g transform="translate(15.55 190.322406)rotate(-90)scale(0.1 -0.1)">
      <defs>
       <path id="ArialUnicodeMS-8d2b" d="M 6272 3788 
L 5856 3397 
Q 5219 3534 4647 3928 
Q 4603 3247 4470 2995 
Q 4338 2744 3934 2744 
Q 3763 2744 3425 2791 
L 3297 3278 
Q 3725 3163 3956 3163 
Q 4028 3163 4053 3200 
Q 4078 3238 4117 3456 
Q 4156 3675 4172 3884 
L 3047 3884 
Q 2719 2966 2138 2669 
L 2138 2656 
L 4972 2656 
L 4972 738 
L 4488 738 
L 4488 2188 
L 1925 2188 
L 1925 513 
L 1441 513 
L 1441 2309 
Q 866 2169 609 2150 
L 347 2566 
Q 2156 2741 2541 3884 
L 1931 3884 
L 1931 4063 
Q 1225 3513 550 3328 
L 219 3713 
Q 813 3850 1473 4295 
Q 2134 4741 2516 5344 
L 2894 5100 
Q 2588 4650 2259 4353 
L 4116 4353 
Q 3713 4766 3506 5094 
L 3866 5344 
Q 4166 4853 4795 4387 
Q 5425 3922 6272 3788 
z
M 3419 1972 
Q 3419 1288 3175 819 
Q 2931 350 2426 92 
Q 1922 -166 1063 -341 
L 684 -416 
L 359 31 
Q 1941 228 2458 667 
Q 2975 1106 2975 2022 
L 3419 1972 
z
M 5716 50 
L 5478 -391 
Q 4619 294 3297 459 
L 3481 850 
Q 4825 678 5716 50 
z
" transform="scale(0.015625)"/>
       <path id="ArialUnicodeMS-5bcc" d="M 5759 3841 
L 5275 3841 
L 5275 4359 
L 1172 4359 
L 1172 3816 
L 684 3816 
L 684 4825 
L 2931 4825 
L 2931 5344 
L 3469 5344 
L 3469 4825 
L 5759 4825 
L 5759 3841 
z
M 5113 3681 
L 1338 3681 
L 1338 4147 
L 5113 4147 
L 5113 3681 
z
M 4863 2241 
L 1594 2241 
L 1594 3444 
L 4863 3444 
L 4863 2241 
z
M 4378 2681 
L 4378 3003 
L 2081 3003 
L 2081 2681 
L 4378 2681 
z
M 5375 -391 
L 4891 -391 
L 4891 -84 
L 1581 -84 
L 1581 -428 
L 1094 -428 
L 1094 1984 
L 5375 1984 
L 5375 -391 
z
M 4891 1178 
L 4891 1516 
L 3469 1516 
L 3469 1178 
L 4891 1178 
z
M 2981 1178 
L 2981 1516 
L 1581 1516 
L 1581 1178 
L 2981 1178 
z
M 4891 384 
L 4891 738 
L 3469 738 
L 3469 384 
L 4891 384 
z
M 2981 384 
L 2981 738 
L 1581 738 
L 1581 384 
L 2981 384 
z
" transform="scale(0.015625)"/>
       <path id="ArialUnicodeMS-4e0b" d="M 5863 4453 
L 3200 4453 
L 3200 -378 
L 2694 -378 
L 2694 4453 
L 538 4453 
L 538 4941 
L 5863 4941 
L 5863 4453 
z
M 5403 1709 
L 5044 1331 
Q 4494 2084 3384 2700 
L 3681 3028 
Q 4625 2644 5403 1709 
z
" transform="scale(0.015625)"/>
       <path id="ArialUnicodeMS-4e0a" d="M 5931 63 
L 588 63 
L 588 531 
L 2688 531 
L 2688 5209 
L 3175 5209 
L 3175 3353 
L 5369 3353 
L 5369 2888 
L 3175 2888 
L 3175 531 
L 5931 531 
L 5931 63 
z
" transform="scale(0.015625)"/>
      </defs>
      <use xlink:href="#ArialUnicodeMS-8d2b"/>
      <use xlink:href="#ArialUnicodeMS-5bcc" x="100"/>
      <use xlink:href="#ArialUnicodeMS-28" x="200"/>
      <use xlink:href="#ArialUnicodeMS-8d2b" x="233.300781"/>
      <use xlink:href="#ArialUnicodeMS-4e0b" x="333.300781"/>
      <use xlink:href="#ArialUnicodeMS-5bcc" x="433.300781"/>
      <use xlink:href="#ArialUnicodeMS-4e0a" x="533.300781"/>
      <use xlink:href="#ArialUnicodeMS-29" x="633.300781"/>
     </g>
    </g>
   </g>
   <g id="line2d_15">
    <path d="M 53.951563 156.992719 
L 411.071563 156.992719 
" clip-path="url(#pa5e266bfa5)" style="fill: none; stroke: #000000; stroke-width: 1.5; stroke-linecap: square"/>
   </g>
   <g id="line2d_16">
    <path d="M 232.511563 290.048719 
L 232.511563 23.936719 
" clip-path="url(#pa5e266bfa5)" style="fill: none; stroke: #000000; stroke-width: 1.5; stroke-linecap: square"/>
   </g>
   <g id="patch_3">
    <path d="M 53.951563 290.048719 
L 53.951563 23.936719 
" style="fill: none; stroke: #000000; stroke-width: 0.8; stroke-linejoin: miter; stroke-linecap: square"/>
   </g>
   <g id="patch_4">
    <path d="M 411.071563 290.048719 
L 411.071563 23.936719 
" style="fill: none; stroke: #000000; stroke-width: 0.8; stroke-linejoin: miter; stroke-linecap: square"/>
   </g>
   <g id="patch_5">
    <path d="M 53.951563 290.048719 
L 411.071563 290.048719 
" style="fill: none; stroke: #000000; stroke-width: 0.8; stroke-linejoin: miter; stroke-linecap: square"/>
   </g>
   <g id="patch_6">
    <path d="M 53.951563 23.936719 
L 411.071563 23.936719 
" style="fill: none; stroke: #000000; stroke-width: 0.8; stroke-linejoin: miter; stroke-linecap: square"/>
   </g>
   <g id="text_17">
    <!-- 足球 -->
    <g transform="translate(310.278881 158.908641)scale(0.1 -0.1)">
     <defs>
      <path id="ArialUnicodeMS-8db3" d="M 6209 319 
L 5825 -147 
L 4172 -147 
Q 2772 -147 1722 581 
Q 1456 6 744 -469 
L 353 -72 
Q 1553 547 1522 2297 
L 2069 2228 
Q 2069 1478 1894 1075 
Q 2322 716 2950 506 
L 2950 2778 
L 1313 2778 
L 1313 4878 
L 4909 4878 
L 4909 2778 
L 3456 2778 
L 3456 1925 
L 5369 1925 
L 5369 1459 
L 3456 1459 
L 3456 391 
Q 3725 294 6209 319 
z
M 4422 3263 
L 4422 4409 
L 1819 4409 
L 1819 3263 
L 4422 3263 
z
" transform="scale(0.015625)"/>
      <path id="ArialUnicodeMS-7403" d="M 6138 603 
L 5766 250 
Q 4797 1016 4366 2009 
L 4366 84 
Q 4366 -106 4220 -254 
Q 4075 -403 3884 -403 
L 3194 -403 
L 3016 109 
Q 3400 63 3609 63 
Q 3859 63 3859 244 
L 3859 1509 
Q 3353 1047 2363 434 
L 2016 831 
Q 3172 1484 3859 2106 
L 3859 3653 
L 2328 3653 
L 2328 4134 
L 3859 4134 
L 3859 5319 
L 4366 5319 
L 4366 4134 
L 5931 4134 
L 5931 3653 
L 4366 3653 
L 4366 3328 
Q 4481 2806 4684 2450 
Q 5163 2781 5491 3291 
L 5875 2963 
Q 5344 2316 4863 2041 
Q 5291 1247 6138 603 
z
M 5766 4513 
L 5441 4184 
Q 5091 4650 4494 4863 
L 4806 5197 
Q 5400 4963 5766 4513 
z
M 2528 1259 
L 678 616 
L 341 1038 
Q 1128 1253 1269 1313 
L 1269 2700 
L 609 2700 
L 609 3163 
L 1269 3163 
L 1269 4341 
L 469 4341 
L 469 4800 
L 2438 4800 
L 2438 4341 
L 1753 4341 
L 1753 3163 
L 2356 3163 
L 2356 2700 
L 1753 2700 
L 1753 1484 
L 2528 1759 
L 2528 1259 
z
M 3578 2425 
L 3138 2150 
Q 2947 2791 2438 3263 
L 2847 3494 
Q 3341 3084 3578 2425 
z
" transform="scale(0.015625)"/>
     </defs>
     <use xlink:href="#ArialUnicodeMS-8db3"/>
     <use xlink:href="#ArialUnicodeMS-7403" x="100"/>
    </g>
   </g>
   <g id="text_18">
    <!-- 高尔夫 -->
    <g transform="translate(194.85221 56.764573)scale(0.1 -0.1)">
     <defs>
      <path id="ArialUnicodeMS-9ad8" d="M 5863 4313 
L 653 4313 
L 653 4781 
L 2956 4781 
L 2956 5300 
L 3444 5300 
L 3444 4781 
L 5863 4781 
L 5863 4313 
z
M 4775 2747 
L 1625 2747 
L 1625 4038 
L 4775 4038 
L 4775 2747 
z
M 4288 3572 
L 2113 3572 
L 2113 3213 
L 4281 3213 
L 4288 3572 
z
M 5563 213 
Q 5563 -359 4903 -359 
L 4403 -359 
L 4263 134 
L 4750 109 
Q 5075 88 5075 359 
L 5075 2022 
L 1331 2022 
L 1331 -428 
L 838 -428 
L 838 2491 
L 5563 2491 
L 5563 213 
z
M 4453 378 
L 1919 378 
L 1919 1722 
L 4453 1722 
L 4453 378 
z
M 3969 1253 
L 2406 1253 
L 2406 844 
L 3963 844 
L 3969 1253 
z
" transform="scale(0.015625)"/>
      <path id="ArialUnicodeMS-5c14" d="M 5434 3956 
Q 5434 3744 4972 2994 
L 4544 3284 
Q 4825 3694 4941 3981 
L 2041 3981 
Q 1647 3128 563 2363 
L 206 2772 
Q 1694 3838 2106 5313 
L 2522 5113 
Q 2438 4747 2266 4422 
L 5434 4422 
L 5434 3956 
z
M 3431 -31 
Q 3431 -197 3301 -300 
Q 3172 -403 2963 -403 
L 2297 -403 
L 2138 91 
Q 2575 41 2775 41 
Q 2944 41 2944 122 
L 2944 3622 
L 3431 3622 
L 3431 -31 
z
M 5819 556 
L 5319 300 
Q 4784 1550 3859 2431 
L 4197 2741 
Q 5319 1700 5819 556 
z
M 2578 2450 
Q 2075 1228 928 275 
L 519 672 
Q 1678 1563 2203 2741 
L 2578 2450 
z
" transform="scale(0.015625)"/>
      <path id="ArialUnicodeMS-592b" d="M 6034 178 
L 5716 -263 
Q 3753 525 3297 2169 
Q 2788 538 844 -325 
L 475 109 
Q 2356 881 2791 2278 
L 831 2278 
L 831 2747 
L 2894 2747 
Q 2963 3072 3003 3834 
L 1228 3834 
L 1228 4319 
L 3009 4319 
L 3009 5338 
L 3531 5338 
L 3531 4319 
L 5259 4319 
L 5259 3834 
L 3513 3834 
Q 3494 3081 3438 2747 
L 5678 2747 
L 5678 2278 
L 3794 2278 
Q 4225 881 6034 178 
z
" transform="scale(0.015625)"/>
     </defs>
     <use xlink:href="#ArialUnicodeMS-9ad8"/>
     <use xlink:href="#ArialUnicodeMS-5c14" x="100"/>
     <use xlink:href="#ArialUnicodeMS-592b" x="200"/>
    </g>
   </g>
   <g id="text_19">
    <!-- 篮球 -->
    <g transform="translate(402.228371 100.969698)scale(0.1 -0.1)">
     <defs>
      <path id="ArialUnicodeMS-7bee" d="M 3272 4300 
L 2406 4300 
L 2406 4281 
Q 2497 4238 2791 3944 
L 2350 3713 
Q 2116 4103 1819 4300 
L 1516 4300 
Q 1253 3747 775 3347 
L 372 3681 
Q 1069 4197 1369 5294 
L 1806 5125 
Q 1775 4969 1716 4769 
L 3272 4769 
L 3272 4300 
z
M 5850 4300 
L 4763 4300 
Q 5109 3978 5209 3744 
L 4788 3506 
Q 4566 3975 4166 4300 
L 3903 4300 
Q 3703 3800 3250 3372 
L 2841 3675 
Q 3559 4228 3647 5275 
L 4103 5131 
Q 4103 5084 4044 4769 
L 5850 4769 
L 5850 4300 
z
M 5716 2828 
L 3963 2828 
Q 3613 2094 3163 1697 
L 2753 2069 
Q 3441 2609 3775 3763 
L 4250 3622 
L 4141 3297 
L 5716 3297 
L 5716 2828 
z
M 2650 1728 
L 2163 1728 
L 2163 3675 
L 2650 3675 
L 2650 1728 
z
M 1503 1806 
L 1019 1806 
L 1019 3438 
L 1503 3438 
L 1503 1806 
z
M 5241 2075 
L 4856 1709 
Q 4506 2181 3994 2472 
L 4331 2725 
Q 4981 2450 5241 2075 
z
M 5913 -184 
L 347 -184 
L 347 281 
L 997 281 
L 997 1613 
L 5253 1613 
L 5253 281 
L 5913 281 
L 5913 -184 
z
M 4769 281 
L 4769 1147 
L 4013 1147 
L 4013 281 
L 4769 281 
z
M 3525 281 
L 3525 1147 
L 2753 1147 
L 2753 281 
L 3525 281 
z
M 2266 281 
L 2266 1147 
L 1484 1147 
L 1484 281 
L 2266 281 
z
" transform="scale(0.015625)"/>
     </defs>
     <use xlink:href="#ArialUnicodeMS-7bee"/>
     <use xlink:href="#ArialUnicodeMS-7403" x="100"/>
    </g>
   </g>
   <g id="text_20">
    <!-- 芭蕾 -->
    <g transform="translate(147.354861 66.868524)scale(0.1 -0.1)">
     <defs>
      <path id="ArialUnicodeMS-82ad" d="M 5931 4153 
L 4628 4153 
L 4628 3584 
L 4122 3584 
L 4122 4153 
L 2322 4153 
L 2322 3584 
L 1819 3584 
L 1819 4153 
L 500 4153 
L 500 4622 
L 1819 4622 
L 1819 5259 
L 2322 5259 
L 2322 4622 
L 4122 4622 
L 4122 5241 
L 4628 5241 
L 4628 4622 
L 5931 4622 
L 5931 4153 
z
M 5991 1106 
Q 5897 -225 5281 -225 
L 1838 -225 
Q 984 -225 984 453 
L 984 3419 
L 5325 3419 
L 5325 1453 
L 1491 1453 
L 1491 531 
Q 1491 263 1819 263 
L 5147 263 
Q 5313 294 5391 456 
Q 5469 619 5516 1259 
L 5991 1106 
z
M 4838 1919 
L 4838 2950 
L 3413 2950 
L 3413 1919 
L 4838 1919 
z
M 2925 1919 
L 2925 2950 
L 1491 2950 
L 1491 1919 
L 2925 1919 
z
" transform="scale(0.015625)"/>
      <path id="ArialUnicodeMS-857e" d="M 6022 4428 
L 4634 4428 
L 4634 4197 
L 5556 4197 
L 5556 3756 
L 3481 3756 
L 3488 3578 
L 5850 3578 
L 5850 2509 
L 5363 2509 
L 5363 3138 
L 3481 3138 
L 3481 1875 
L 2994 1875 
L 2994 3138 
L 1131 3138 
L 1131 2534 
L 647 2534 
L 647 3578 
L 2994 3578 
L 2994 3756 
L 997 3756 
L 997 4197 
L 1856 4197 
L 1856 4428 
L 469 4428 
L 469 4897 
L 1856 4897 
L 1856 5350 
L 2344 5350 
L 2344 4897 
L 4147 4897 
L 4147 5350 
L 4634 5350 
L 4634 4897 
L 6022 4897 
L 6022 4428 
z
M 4147 4197 
L 4147 4428 
L 2344 4428 
L 2344 4197 
L 4147 4197 
z
M 5234 2591 
L 3675 2591 
L 3675 3003 
L 5234 3003 
L 5234 2591 
z
M 2816 2613 
L 1259 2613 
L 1259 3003 
L 2816 3003 
L 2816 2613 
z
M 5416 2041 
L 3675 2041 
L 3675 2425 
L 5416 2425 
L 5416 2041 
z
M 2816 2041 
L 1075 2041 
L 1075 2425 
L 2816 2425 
L 2816 2041 
z
M 5338 -391 
L 4831 -391 
L 4831 -38 
L 1684 -38 
L 1684 -391 
L 1197 -391 
L 1197 1813 
L 5338 1813 
L 5338 -391 
z
M 4831 1113 
L 4831 1369 
L 3506 1369 
L 3506 1113 
L 4831 1113 
z
M 3022 1113 
L 3022 1369 
L 1684 1369 
L 1691 1113 
L 3022 1113 
z
M 4831 384 
L 4831 697 
L 3506 697 
L 3506 384 
L 4831 384 
z
M 3022 384 
L 3022 697 
L 1684 697 
L 1684 384 
L 3022 384 
z
" transform="scale(0.015625)"/>
     </defs>
     <use xlink:href="#ArialUnicodeMS-82ad"/>
     <use xlink:href="#ArialUnicodeMS-857e" x="100"/>
    </g>
   </g>
   <g id="text_21">
    <!-- 乒乓球 -->
    <g transform="translate(266.455035 79.489424)scale(0.1 -0.1)">
     <defs>
      <path id="ArialUnicodeMS-4e52" d="M 5894 1363 
L 569 1363 
L 569 1831 
L 1472 1831 
L 1472 4519 
Q 3750 4634 5131 5288 
L 5447 4909 
Q 4253 4356 1959 4091 
L 1959 3553 
L 5350 3553 
L 5350 3084 
L 4378 3084 
L 4378 1831 
L 5894 1831 
L 5894 1363 
z
M 3891 1831 
L 3891 3084 
L 1959 3084 
L 1959 1831 
L 3891 1831 
z
M 2950 1031 
Q 2263 72 891 -494 
L 581 -84 
Q 1916 434 2591 1331 
L 2950 1031 
z
" transform="scale(0.015625)"/>
      <path id="ArialUnicodeMS-4e53" d="M 5875 1356 
L 556 1356 
L 556 1825 
L 1453 1825 
L 1453 4525 
Q 3906 4650 5044 5288 
L 5409 4916 
Q 4256 4281 1941 4091 
L 1941 3531 
L 5325 3531 
L 5325 3066 
L 4372 3066 
L 4372 1825 
L 5875 1825 
L 5875 1356 
z
M 3884 1825 
L 3884 3066 
L 1941 3066 
L 1941 1825 
L 3884 1825 
z
M 5931 -128 
L 5569 -469 
Q 5288 -44 4664 354 
Q 4041 753 3469 897 
L 3794 1281 
Q 5050 909 5931 -128 
z
" transform="scale(0.015625)"/>
     </defs>
     <use xlink:href="#ArialUnicodeMS-4e52"/>
     <use xlink:href="#ArialUnicodeMS-4e53" x="100"/>
     <use xlink:href="#ArialUnicodeMS-7403" x="200"/>
    </g>
   </g>
   <g id="text_22">
    <!-- 举重 -->
    <g transform="translate(244.972198 140.042558)scale(0.1 -0.1)">
     <defs>
      <path id="ArialUnicodeMS-4e3e" d="M 3469 3731 
L 3016 3566 
Q 2784 4378 2234 5069 
L 2644 5253 
Q 3172 4675 3469 3731 
z
M 6081 1503 
L 5722 1113 
Q 5025 1472 4616 1819 
L 4616 1544 
L 3322 1544 
L 3322 997 
L 5209 997 
L 5209 556 
L 3322 556 
L 3322 -525 
L 2834 -525 
L 2834 556 
L 984 556 
L 984 997 
L 2834 997 
L 2834 1544 
L 1575 1544 
L 1575 1791 
Q 934 1356 416 1106 
L 116 1503 
Q 1559 2141 2113 3022 
L 313 3022 
L 313 3488 
L 3975 3488 
Q 4584 4291 4966 5228 
L 5422 5019 
Q 5025 4181 4525 3488 
L 5869 3488 
L 5869 3022 
L 4063 3022 
Q 4681 2081 6081 1503 
z
M 4416 1984 
Q 3934 2419 3547 3022 
L 2656 3022 
Q 2350 2491 1806 1984 
L 2834 1984 
L 2834 2834 
L 3322 2834 
L 3322 1984 
L 4416 1984 
z
M 1919 3809 
L 1528 3519 
Q 1188 4219 519 4769 
L 878 5025 
Q 1488 4578 1919 3809 
z
" transform="scale(0.015625)"/>
      <path id="ArialUnicodeMS-91cd" d="M 6059 -219 
L 441 -219 
L 441 250 
L 3022 250 
L 3022 609 
L 1100 609 
L 1100 1075 
L 3022 1075 
L 3022 1381 
L 1269 1381 
L 1269 3513 
L 3022 3513 
L 3022 3822 
L 653 3822 
L 653 4288 
L 3009 4288 
L 3009 4550 
L 1106 4500 
L 825 4953 
Q 1153 4941 1534 4941 
Q 3866 4941 5247 5319 
L 5528 4916 
Q 4928 4763 3506 4594 
L 3506 4288 
L 5856 4288 
L 5856 3822 
L 3506 3822 
L 3506 3513 
L 5269 3513 
L 5269 1381 
L 3506 1381 
L 3506 1075 
L 5356 1075 
L 5356 609 
L 3506 609 
L 3506 250 
L 6059 250 
L 6059 -219 
z
M 4781 2669 
L 4781 3047 
L 3506 3047 
L 3506 2669 
L 4781 2669 
z
M 3022 2669 
L 3022 3047 
L 1753 3047 
L 1753 2669 
L 3022 2669 
z
M 4781 1825 
L 4781 2228 
L 3506 2228 
L 3506 1825 
L 4781 1825 
z
M 3022 1825 
L 3022 2228 
L 1753 2228 
L 1753 1825 
L 3022 1825 
z
" transform="scale(0.015625)"/>
     </defs>
     <use xlink:href="#ArialUnicodeMS-4e3e"/>
     <use xlink:href="#ArialUnicodeMS-91cd" x="100"/>
    </g>
   </g>
   <g id="text_23">
    <!-- 徒步 -->
    <g transform="translate(252.638786 256.22838)scale(0.1 -0.1)">
     <defs>
      <path id="ArialUnicodeMS-5f92" d="M 2247 5063 
Q 1675 4006 819 3378 
L 459 3719 
Q 1441 4456 1869 5363 
L 2247 5063 
z
M 6150 397 
L 5913 -116 
L 4378 -116 
Q 3659 -116 2944 588 
Q 2734 31 2169 -469 
L 1863 -78 
Q 2225 238 2425 595 
Q 2625 953 2656 1528 
L 2694 2272 
L 3144 2272 
Q 3144 1475 3066 1063 
Q 3472 666 3897 488 
L 3897 2719 
L 2175 2719 
L 2175 3188 
L 3750 3188 
L 3750 4063 
L 2478 4063 
L 2478 4531 
L 3750 4531 
L 3750 5344 
L 4238 5344 
L 4238 4531 
L 5516 4531 
L 5516 4063 
L 4238 4063 
L 4238 3188 
L 5850 3188 
L 5850 2719 
L 4384 2719 
L 4384 1906 
L 5556 1906 
L 5556 1441 
L 4384 1441 
L 4384 366 
Q 4553 334 4841 334 
Q 5034 334 5228 347 
L 6150 397 
z
M 2438 3675 
Q 1900 2791 1709 2578 
L 1709 -434 
L 1222 -434 
L 1222 2163 
Q 947 1906 603 1697 
L 306 2069 
Q 1466 2806 2094 3981 
L 2438 3675 
z
" transform="scale(0.015625)"/>
      <path id="ArialUnicodeMS-6b65" d="M 5966 2791 
L 3681 2791 
L 3681 1331 
Q 3681 1159 3542 1004 
Q 3403 850 3225 850 
L 2791 850 
L 2613 1338 
L 3059 1325 
Q 3175 1325 3175 1447 
L 3175 2791 
L 628 2791 
L 628 3256 
L 1544 3256 
L 1544 4756 
L 2047 4756 
L 2047 3256 
L 3109 3256 
L 3109 5344 
L 3616 5344 
L 3616 4525 
L 5644 4525 
L 5644 4056 
L 3616 4056 
L 3616 3256 
L 5966 3256 
L 5966 2791 
z
M 5581 2284 
Q 5144 1372 4631 919 
Q 4119 466 3164 123 
Q 2209 -219 544 -384 
L 366 109 
Q 2163 278 3063 614 
Q 3963 950 4381 1384 
Q 4800 1819 5147 2572 
L 5581 2284 
z
M 2638 2241 
Q 1872 1294 806 806 
L 447 1203 
Q 1469 1631 2241 2534 
L 2638 2241 
z
" transform="scale(0.015625)"/>
     </defs>
     <use xlink:href="#ArialUnicodeMS-5f92"/>
     <use xlink:href="#ArialUnicodeMS-6b65" x="100"/>
    </g>
   </g>
   <g id="text_24">
    <!-- 运动中体现的贫富与性别信息 -->
    <g transform="translate(135.011563 17.936719)scale(0.15 -0.15)">
     <defs>
      <path id="ArialUnicodeMS-8fd0" d="M 2009 4172 
L 1606 3859 
Q 1356 4391 691 4813 
L 1044 5119 
Q 1631 4772 2009 4172 
z
M 5466 4306 
L 2216 4306 
L 2216 4775 
L 5466 4775 
L 5466 4306 
z
M 5838 2981 
L 3553 2981 
L 3553 2969 
L 3859 2816 
Q 3291 1709 2784 1331 
L 2797 1319 
L 4616 1484 
L 3981 2131 
L 4359 2388 
Q 5250 1631 5588 850 
L 5184 538 
L 4922 1050 
L 2350 763 
L 2100 1209 
Q 2409 1481 2817 2031 
Q 3225 2581 3378 2981 
L 1856 2981 
L 1856 3450 
L 5838 3450 
L 5838 2981 
z
M 6041 325 
L 5838 -172 
L 2753 -172 
Q 2375 -172 1964 31 
Q 1553 234 1350 544 
L 563 -294 
L 206 103 
Q 494 306 1056 916 
L 1056 2619 
L 397 2619 
L 397 3084 
L 1544 3084 
L 1544 928 
Q 2166 294 2944 294 
L 5369 294 
L 6041 325 
z
" transform="scale(0.015625)"/>
      <path id="ArialUnicodeMS-52a8" d="M 5678 3834 
Q 5613 2631 5508 1595 
Q 5403 559 5328 262 
Q 5253 -34 5048 -161 
Q 4844 -288 4591 -288 
Q 4416 -288 4097 -256 
Q 4016 25 3944 238 
Q 4550 172 4644 172 
Q 4703 172 4812 456 
Q 4922 741 5023 1741 
Q 5125 2741 5159 3391 
L 4359 3391 
Q 4366 1738 3883 889 
Q 3400 41 2528 -384 
L 2156 25 
Q 2716 300 3009 634 
Q 2913 850 2719 1075 
Q 1478 731 763 475 
L 428 959 
Q 678 1172 1014 1786 
Q 1350 2400 1503 2906 
L 353 2906 
L 353 3372 
L 3144 3372 
L 3144 2906 
L 2041 2906 
Q 1500 1597 1125 1125 
L 1141 1113 
L 2444 1484 
Q 2397 1556 2125 1797 
L 2478 2047 
Q 3131 1475 3359 997 
Q 3528 1178 3697 1742 
Q 3866 2306 3866 2888 
L 3866 3391 
L 3194 3391 
L 3194 3834 
L 3866 3834 
L 3866 5319 
L 4353 5325 
L 4353 3834 
L 5678 3834 
z
M 2881 4219 
L 603 4219 
L 603 4659 
L 2881 4659 
L 2881 4219 
z
" transform="scale(0.015625)"/>
      <path id="ArialUnicodeMS-4e2d" d="M 5503 1306 
L 4997 1306 
L 4997 1741 
L 3431 1741 
L 3431 -416 
L 2925 -416 
L 2925 1741 
L 1356 1741 
L 1344 1281 
L 838 1281 
L 838 4116 
L 2925 4116 
L 2925 5288 
L 3438 5288 
L 3425 4116 
L 5503 4116 
L 5503 1306 
z
M 4997 2209 
L 4997 3647 
L 3431 3647 
L 3431 2209 
L 4997 2209 
z
M 2925 2209 
L 2925 3647 
L 1344 3647 
L 1344 2209 
L 2925 2209 
z
" transform="scale(0.015625)"/>
      <path id="ArialUnicodeMS-4f53" d="M 2222 5113 
Q 2181 4706 1963 4103 
L 1741 3519 
L 1741 -384 
L 1247 -384 
L 1247 2650 
Q 1047 2381 666 1972 
L 238 2259 
Q 1303 3228 1797 5319 
L 2222 5113 
z
M 6181 1159 
L 5819 781 
Q 5259 1197 4886 1742 
Q 4513 2288 4184 3547 
L 4172 3547 
L 4172 1288 
L 5209 1288 
L 5209 819 
L 4172 819 
L 4172 -409 
L 3688 -409 
L 3688 819 
L 2675 819 
L 2675 1288 
L 3688 1288 
L 3688 3297 
Q 3322 1781 2106 809 
L 1753 1169 
Q 2356 1700 2659 2198 
Q 2963 2697 3200 3597 
L 1997 3597 
L 1997 4063 
L 3688 4063 
L 3688 5306 
L 4172 5306 
L 4172 4063 
L 5919 4063 
L 5919 3597 
L 4653 3597 
Q 4894 2622 5216 2133 
Q 5538 1644 6181 1159 
z
" transform="scale(0.015625)"/>
      <path id="ArialUnicodeMS-73b0" d="M 5484 1556 
Q 5263 1538 4997 1550 
L 4997 4575 
L 3297 4575 
L 3297 1563 
L 2809 1563 
L 2809 5044 
L 5484 5044 
L 5484 1556 
z
M 2559 1222 
L 525 659 
L 213 1159 
Q 791 1231 1234 1350 
L 1234 2841 
L 475 2841 
L 475 3309 
L 1234 3309 
L 1234 4353 
L 397 4353 
L 397 4819 
L 2559 4819 
L 2559 4353 
L 1722 4353 
L 1722 3309 
L 2503 3309 
L 2503 2841 
L 1722 2841 
L 1722 1472 
L 2559 1697 
L 2559 1222 
z
M 4384 4244 
Q 4434 2706 3982 1523 
Q 3531 341 2100 -378 
L 1722 19 
Q 2313 288 2708 588 
Q 3103 888 3404 1466 
Q 3706 2044 3804 2667 
Q 3903 3291 3903 4288 
L 4384 4244 
z
M 5953 691 
Q 5788 -153 5447 -153 
L 4666 -153 
Q 4506 -153 4368 -12 
Q 4231 128 4231 300 
L 4231 2016 
L 4716 2016 
L 4716 384 
Q 4744 313 4838 313 
L 5319 313 
Q 5341 319 5400 461 
Q 5459 603 5459 609 
L 5484 922 
L 5953 691 
z
" transform="scale(0.015625)"/>
      <path id="ArialUnicodeMS-7684" d="M 5644 4281 
Q 5619 1694 5395 673 
Q 5172 -347 4606 -347 
Q 4350 -347 3609 -134 
L 3525 403 
Q 4247 134 4531 134 
Q 4806 134 4976 1142 
Q 5147 2150 5159 3841 
L 3794 3841 
Q 3550 3166 3053 2497 
L 2719 2713 
L 2719 -147 
L 2216 -147 
L 2216 269 
L 1153 269 
L 1153 -250 
L 647 -250 
L 647 4184 
L 1234 4184 
Q 1494 4644 1625 5313 
L 2088 5125 
Q 1903 4444 1741 4184 
L 2719 4184 
L 2719 2881 
Q 3431 3888 3681 5363 
L 4191 5247 
Q 4106 4869 3916 4281 
L 5644 4281 
z
M 2216 2484 
L 2216 3719 
L 1153 3719 
L 1153 2484 
L 2216 2484 
z
M 2216 738 
L 2216 2016 
L 1153 2016 
L 1153 738 
L 2216 738 
z
M 4775 1369 
L 4313 1166 
Q 4034 1925 3444 2669 
L 3841 2931 
Q 4484 2191 4775 1369 
z
" transform="scale(0.015625)"/>
      <path id="ArialUnicodeMS-4e0e" d="M 5953 3916 
L 1881 3916 
L 1784 3028 
L 5153 3028 
L 5081 1734 
L 5919 1734 
L 5919 1234 
L 5050 1234 
Q 4984 100 4750 -154 
Q 4516 -409 4159 -409 
Q 3856 -409 3225 -269 
L 3144 300 
Q 3863 103 4091 103 
Q 4253 103 4348 201 
Q 4444 300 4487 711 
Q 4531 1122 4531 1234 
L 434 1234 
L 434 1734 
L 4569 1734 
Q 4597 2088 4609 2509 
L 1728 2509 
L 1672 2069 
L 1172 2113 
L 1528 5281 
L 2041 5228 
L 1947 4428 
L 5953 4428 
L 5953 3916 
z
" transform="scale(0.015625)"/>
      <path id="ArialUnicodeMS-4fe1" d="M 2113 5100 
Q 1991 4697 1822 4250 
L 1650 3834 
L 1650 -434 
L 1166 -434 
L 1166 2969 
Q 969 2606 609 2181 
L 206 2503 
Q 1144 3613 1656 5281 
L 2113 5100 
z
M 5594 4728 
L 2363 4728 
L 2363 5197 
L 5594 5197 
L 5594 4728 
z
M 6022 3872 
L 2003 3872 
L 2003 4341 
L 6022 4341 
L 6022 3872 
z
M 5588 2938 
L 2356 2938 
L 2356 3406 
L 5588 3406 
L 5588 2938 
z
M 5588 2022 
L 2356 2022 
L 2356 2491 
L 5588 2491 
L 5588 2022 
z
M 5509 -434 
L 5044 -434 
L 5044 -56 
L 2894 -56 
L 2894 -434 
L 2425 -434 
L 2425 1528 
L 5509 1528 
L 5509 -434 
z
M 5044 359 
L 5044 1113 
L 2894 1113 
L 2894 359 
L 5044 359 
z
" transform="scale(0.015625)"/>
      <path id="ArialUnicodeMS-606f" d="M 4959 1759 
L 1338 1759 
L 1338 4756 
L 2753 4756 
Q 3038 5041 3219 5394 
L 3653 5159 
Q 3509 4919 3347 4756 
L 4959 4756 
L 4959 1759 
z
M 4475 3938 
L 4475 4288 
L 1825 4288 
L 1825 3938 
L 4475 3938 
z
M 4475 3084 
L 4475 3469 
L 1825 3469 
L 1825 3084 
L 4475 3084 
z
M 4475 2228 
L 4475 2644 
L 1825 2644 
L 1825 2228 
L 4475 2228 
z
M 3916 928 
L 3591 594 
Q 3144 1119 2497 1350 
L 2809 1697 
Q 3447 1484 3916 928 
z
M 4703 844 
Q 4519 194 4395 17 
Q 4272 -159 4025 -159 
L 2456 -159 
Q 1925 -159 1925 269 
L 1925 1409 
L 2413 1409 
L 2413 500 
Q 2413 306 2566 306 
L 3928 306 
Q 4038 306 4097 475 
L 4250 903 
L 4703 844 
z
M 6075 353 
L 5663 72 
Q 5256 788 4506 1081 
L 4884 1375 
Q 5578 1100 6075 353 
z
M 1766 1088 
Q 1378 425 616 0 
L 275 359 
Q 1034 734 1403 1350 
L 1766 1088 
z
" transform="scale(0.015625)"/>
     </defs>
     <use xlink:href="#ArialUnicodeMS-8fd0"/>
     <use xlink:href="#ArialUnicodeMS-52a8" x="100"/>
     <use xlink:href="#ArialUnicodeMS-4e2d" x="200"/>
     <use xlink:href="#ArialUnicodeMS-4f53" x="300"/>
     <use xlink:href="#ArialUnicodeMS-73b0" x="400"/>
     <use xlink:href="#ArialUnicodeMS-7684" x="500"/>
     <use xlink:href="#ArialUnicodeMS-8d2b" x="600"/>
     <use xlink:href="#ArialUnicodeMS-5bcc" x="700"/>
     <use xlink:href="#ArialUnicodeMS-4e0e" x="800"/>
     <use xlink:href="#ArialUnicodeMS-6027" x="900"/>
     <use xlink:href="#ArialUnicodeMS-522b" x="1000"/>
     <use xlink:href="#ArialUnicodeMS-4fe1" x="1100"/>
     <use xlink:href="#ArialUnicodeMS-606f" x="1200"/>
    </g>
   </g>
  </g>
 </g>
 <defs>
  <clipPath id="pa5e266bfa5">
   <rect x="53.951563" y="23.936719" width="357.12" height="266.112"/>
  </clipPath>
 </defs>
</svg>
