<?xml version="1.0" encoding="utf-8" standalone="no"?>
<!DOCTYPE svg PUBLIC "-//W3C//DTD SVG 1.1//EN"
  "http://www.w3.org/Graphics/SVG/1.1/DTD/svg11.dtd">
<svg xmlns:xlink="http://www.w3.org/1999/xlink" width="463.977812pt" height="450.72pt" viewBox="0 0 463.977812 450.72" xmlns="http://www.w3.org/2000/svg" version="1.1">
 <metadata>
  <rdf:RDF xmlns:dc="http://purl.org/dc/elements/1.1/" xmlns:cc="http://creativecommons.org/ns#" xmlns:rdf="http://www.w3.org/1999/02/22-rdf-syntax-ns#">
   <cc:Work>
    <dc:type rdf:resource="http://purl.org/dc/dcmitype/StillImage"/>
    <dc:date>2023-04-23T22:31:06.619236</dc:date>
    <dc:format>image/svg+xml</dc:format>
    <dc:creator>
     <cc:Agent>
      <dc:title>Matplotlib v3.5.2, https://matplotlib.org/</dc:title>
     </cc:Agent>
    </dc:creator>
   </cc:Work>
  </rdf:RDF>
 </metadata>
 <defs>
  <style type="text/css">*{stroke-linejoin: round; stroke-linecap: butt}</style>
 </defs>
 <g id="figure_1">
  <g id="patch_1">
   <path d="M 0 450.72 
L 463.977812 450.72 
L 463.977812 0 
L 0 0 
z
" style="fill: #ffffff"/>
  </g>
  <g id="axes_1">
   <g id="patch_2">
    <path d="M 416.025812 225.36 
C 416.025812 179.863349 398.524246 136.065676 367.169956 103.098211 
C 335.815665 70.130747 292.950374 50.455693 247.510921 48.175037 
L 238.617812 225.36 
L 416.025812 225.36 
z
" style="fill: #0c5da5"/>
   </g>
   <g id="patch_3">
    <path d="M 247.510921 48.175037 
C 219.095316 46.748827 190.749213 52.178949 164.872409 64.005688 
C 138.995606 75.832427 116.339556 93.712337 98.822334 116.131695 
L 238.617812 225.36 
L 247.510921 48.175037 
z
" style="fill: #00b945"/>
   </g>
   <g id="patch_4">
    <path d="M 98.822334 116.131695 
C 89.621774 127.907 81.945764 140.797741 75.976837 154.497376 
C 70.00791 168.197012 65.793758 182.596083 63.434593 197.352182 
L 238.617812 225.36 
L 98.822334 116.131695 
z
" style="fill: #ff9500"/>
   </g>
   <g id="patch_5">
    <path d="M 63.434593 197.352182 
C 61.590552 208.886282 60.890122 220.574358 61.343506 232.246136 
C 61.796891 243.917914 63.401878 255.516437 66.135085 266.872736 
L 238.617812 225.36 
L 63.434593 197.352182 
z
" style="fill: #ff2c00"/>
   </g>
   <g id="patch_6">
    <path d="M 66.135085 266.872736 
C 68.733671 277.66969 72.340316 288.198837 76.907507 298.321466 
C 81.474698 308.444095 86.982291 318.11556 93.35773 327.20845 
L 238.617812 225.36 
L 66.135085 266.872736 
z
" style="fill: #845b97"/>
   </g>
   <g id="patch_7">
    <path d="M 93.35773 327.20845 
C 99.733168 336.30134 106.948332 344.775549 114.90817 352.519439 
C 122.868009 360.263329 131.537413 367.242745 140.802173 373.36574 
L 238.617812 225.36 
L 93.35773 327.20845 
z
" style="fill: #474747"/>
   </g>
   <g id="patch_8">
    <path d="M 140.802173 373.36574 
C 149.587074 379.171601 158.871468 384.183807 168.545344 388.342967 
C 178.21922 392.502128 188.244217 395.791751 198.501547 398.172857 
L 238.617812 225.36 
L 140.802173 373.36574 
z
" style="fill: #9e9e9e"/>
   </g>
   <g id="patch_9">
    <path d="M 198.501547 398.172857 
C 207.825327 400.337252 217.308998 401.743532 226.859654 402.37792 
C 236.41031 403.012309 245.996662 402.872728 255.524799 401.960544 
L 238.617812 225.36 
L 198.501547 398.172857 
z
" style="fill: #0c5da5"/>
   </g>
   <g id="patch_10">
    <path d="M 255.524799 401.960544 
C 263.908531 401.157921 272.224477 399.759317 280.409525 397.775345 
C 288.594573 395.791373 296.627965 393.227066 304.448732 390.101885 
L 238.617812 225.36 
L 255.524799 401.960544 
z
" style="fill: #00b945"/>
   </g>
   <g id="patch_11">
    <path d="M 304.448732 390.101885 
C 311.380149 387.332088 318.129855 384.127597 324.657595 380.507524 
C 331.185335 376.887451 337.478105 372.859008 343.498372 368.446221 
L 238.617812 225.36 
L 304.448732 390.101885 
z
" style="fill: #ff9500"/>
   </g>
   <g id="patch_12">
    <path d="M 343.498372 368.446221 
C 349.364176 364.146654 354.960042 359.490451 360.254285 354.503978 
C 365.548527 349.517505 370.531134 344.210191 375.173891 338.61209 
L 238.617812 225.36 
L 343.498372 368.446221 
z
" style="fill: #ff2c00"/>
   </g>
   <g id="patch_13">
    <path d="M 375.173891 338.61209 
C 378.961004 334.045699 382.516687 329.292221 385.827535 324.369576 
C 389.138383 319.44693 392.200231 314.361311 395.001536 309.13189 
L 238.617812 225.36 
L 375.173891 338.61209 
z
" style="fill: #845b97"/>
   </g>
   <g id="patch_14">
    <path d="M 395.001536 309.13189 
C 397.71244 304.071227 400.176099 298.881956 402.383813 293.582398 
C 404.591527 288.282841 406.540696 282.879241 408.224437 277.390678 
L 238.617812 225.36 
L 395.001536 309.13189 
z
" style="fill: #474747"/>
   </g>
   <g id="patch_15">
    <path d="M 408.224437 277.390678 
C 409.515201 273.18312 410.648948 268.928987 411.623324 264.63711 
C 412.597701 260.345233 413.412032 256.018584 414.064629 251.666143 
L 238.617812 225.36 
L 408.224437 277.390678 
z
" style="fill: #9e9e9e"/>
   </g>
   <g id="patch_16">
    <path d="M 414.064629 251.666143 
C 414.717225 247.313703 415.207634 242.938486 415.534837 238.549573 
C 415.862041 234.16066 416.025813 229.761091 416.025812 225.359998 
L 238.617812 225.36 
L 414.064629 251.666143 
z
" style="fill: #0c5da5"/>
   </g>
   <g id="matplotlib.axis_1"/>
   <g id="matplotlib.axis_2">
    <g id="text_1">
     <!-- city -->
     <g transform="translate(10.757812 232.86)rotate(-90)scale(0.1 -0.1)">
      <defs>
       <path id="ArialUnicodeMS-63" d="M 3144 1147 
Q 3034 513 2643 217 
Q 2253 -78 1759 -78 
Q 1038 -78 644 395 
Q 250 869 250 1650 
Q 250 2297 476 2686 
Q 703 3075 1043 3233 
Q 1384 3391 1759 3391 
Q 2272 3391 2636 3125 
Q 3000 2859 3084 2344 
L 2541 2259 
Q 2456 2594 2267 2762 
Q 2078 2931 1784 2931 
Q 1313 2931 1069 2597 
Q 825 2263 825 1663 
Q 825 1050 1064 717 
Q 1303 384 1753 384 
Q 2116 384 2323 592 
Q 2531 800 2584 1216 
L 3144 1147 
z
" transform="scale(0.015625)"/>
       <path id="ArialUnicodeMS-69" d="M 991 0 
L 428 0 
L 428 3316 
L 991 3316 
L 991 0 
z
M 991 3944 
L 428 3944 
L 428 4581 
L 991 4581 
L 991 3944 
z
" transform="scale(0.015625)"/>
       <path id="ArialUnicodeMS-74" d="M 1722 6 
Q 1472 -44 1300 -44 
Q 931 -44 762 86 
Q 594 216 556 416 
Q 519 616 519 972 
L 519 2881 
L 109 2881 
L 109 3316 
L 519 3316 
L 519 4141 
L 1081 4481 
L 1081 3316 
L 1644 3316 
L 1644 2881 
L 1081 2881 
L 1081 941 
Q 1081 691 1132 586 
Q 1184 481 1394 481 
Q 1516 481 1644 506 
L 1722 6 
z
" transform="scale(0.015625)"/>
       <path id="ArialUnicodeMS-79" d="M 3150 3316 
L 1881 -56 
Q 1878 -63 1875 -78 
Q 1694 -641 1451 -992 
Q 1209 -1344 763 -1344 
Q 613 -1344 397 -1281 
L 341 -750 
Q 503 -800 659 -800 
Q 972 -800 1092 -628 
Q 1213 -456 1363 -6 
L 103 3316 
L 709 3316 
L 1491 1144 
Q 1559 944 1638 628 
L 1650 628 
Q 1728 991 1850 1319 
L 2578 3316 
L 3150 3316 
z
" transform="scale(0.015625)"/>
      </defs>
      <use xlink:href="#ArialUnicodeMS-63"/>
      <use xlink:href="#ArialUnicodeMS-69" x="50"/>
      <use xlink:href="#ArialUnicodeMS-74" x="72.216797"/>
      <use xlink:href="#ArialUnicodeMS-79" x="100"/>
     </g>
    </g>
   </g>
   <g id="text_2">
    <!-- 北京 -->
    <g transform="translate(380.02517 93.454845)scale(0.1 -0.1)">
     <defs>
      <path id="ArialUnicodeMS-5317" d="M 6069 1153 
Q 5959 400 5793 120 
Q 5628 -159 5234 -159 
L 4238 -159 
Q 3628 -159 3628 469 
L 3628 5069 
L 4116 5069 
L 4116 3028 
Q 4922 3256 5484 3803 
L 5844 3450 
Q 5275 2847 4116 2528 
L 4116 538 
Q 4116 325 4378 325 
L 5147 325 
Q 5322 325 5414 475 
Q 5506 625 5563 1403 
L 6069 1153 
z
M 2656 -319 
L 2169 -319 
L 2169 403 
L 519 31 
L 288 519 
L 2169 909 
L 2169 2841 
L 581 2841 
L 581 3328 
L 2169 3328 
L 2169 5056 
L 2656 5056 
L 2656 -319 
z
" transform="scale(0.015625)"/>
      <path id="ArialUnicodeMS-4eac" d="M 5947 4153 
L 475 4153 
L 475 4641 
L 2938 4641 
L 2938 5281 
L 3444 5281 
L 3444 4641 
L 5947 4641 
L 5947 4153 
z
M 5006 1741 
L 3475 1741 
L 3475 109 
Q 3475 -122 3342 -265 
Q 3209 -409 2988 -409 
L 2316 -409 
L 2144 116 
Q 2672 78 2706 78 
Q 2988 78 2988 250 
L 2988 1741 
L 1416 1741 
L 1416 3641 
L 5006 3641 
L 5006 1741 
z
M 4519 2209 
L 4519 3175 
L 1900 3175 
L 1900 2209 
L 4519 2209 
z
M 6081 391 
L 5747 25 
Q 4806 944 3916 1147 
L 4231 1538 
Q 5175 1256 6081 391 
z
M 2509 1216 
Q 1788 400 634 -6 
L 341 428 
Q 1541 763 2188 1538 
L 2509 1216 
z
" transform="scale(0.015625)"/>
     </defs>
     <use xlink:href="#ArialUnicodeMS-5317"/>
     <use xlink:href="#ArialUnicodeMS-4eac" x="100"/>
    </g>
   </g>
   <g id="text_3">
    <!-- 上海 -->
    <g transform="translate(137.497869 50.453069)scale(0.1 -0.1)">
     <defs>
      <path id="ArialUnicodeMS-4e0a" d="M 5931 63 
L 588 63 
L 588 531 
L 2688 531 
L 2688 5209 
L 3175 5209 
L 3175 3353 
L 5369 3353 
L 5369 2888 
L 3175 2888 
L 3175 531 
L 5931 531 
L 5931 63 
z
" transform="scale(0.015625)"/>
      <path id="ArialUnicodeMS-6d77" d="M 6119 1947 
L 5528 1947 
L 5441 922 
L 5894 922 
L 5894 453 
L 5381 453 
Q 5291 -397 4569 -397 
Q 4247 -397 3956 -366 
L 3847 141 
Q 4231 63 4538 63 
Q 4681 63 4757 133 
Q 4834 203 4863 453 
L 2503 453 
L 2450 178 
L 1953 231 
L 2234 1947 
L 1759 1947 
L 1759 2413 
L 2278 2413 
L 2444 3628 
Q 2234 3334 2016 3144 
L 1563 3397 
Q 2622 4353 2784 5394 
L 3291 5216 
Q 3234 4988 3128 4775 
L 6003 4775 
L 6003 4306 
L 2913 4306 
Q 2825 4134 2606 3828 
L 5663 3828 
L 5575 2413 
L 6119 2413 
L 6119 1947 
z
M 5131 3359 
L 4281 3359 
L 4153 2413 
L 5050 2413 
Q 5103 2753 5131 3359 
z
M 3809 3359 
L 2925 3359 
L 2791 2413 
L 3681 2413 
L 3809 3359 
z
M 3622 1947 
L 2713 1947 
L 2559 922 
L 3488 922 
L 3622 1947 
z
M 5025 1947 
L 4097 1947 
L 3963 922 
L 4934 922 
Q 4959 1125 5025 1947 
z
M 2053 4263 
L 1691 3950 
Q 1322 4569 628 4788 
L 984 5131 
Q 1628 4881 2053 4263 
z
M 1709 2875 
L 1331 2559 
Q 928 3253 269 3475 
L 647 3803 
Q 1241 3563 1709 2875 
z
M 1697 2016 
Q 1444 634 806 -225 
L 403 134 
Q 1034 925 1228 2181 
L 1697 2016 
z
" transform="scale(0.015625)"/>
     </defs>
     <use xlink:href="#ArialUnicodeMS-4e0a"/>
     <use xlink:href="#ArialUnicodeMS-6d77" x="100"/>
    </g>
   </g>
   <g id="text_4">
    <!-- 广州 -->
    <g transform="translate(39.712739 149.993926)scale(0.1 -0.1)">
     <defs>
      <path id="ArialUnicodeMS-5e7f" d="M 5813 3872 
L 1691 3872 
L 1691 2988 
Q 1691 1959 1633 1448 
Q 1575 938 1378 484 
Q 1181 31 678 -391 
L 313 -56 
Q 1222 534 1222 2222 
L 1222 4341 
L 3256 4341 
L 3256 5269 
L 3731 5269 
L 3731 4341 
L 5813 4341 
L 5813 3872 
z
" transform="scale(0.015625)"/>
      <path id="ArialUnicodeMS-5dde" d="M 5497 -359 
L 5013 -359 
L 5013 5269 
L 5497 5269 
L 5497 -359 
z
M 3200 1947 
L 2759 1722 
Q 2700 2694 2247 3450 
L 2247 2131 
Q 2266 666 916 -409 
L 506 -97 
Q 1766 847 1766 2169 
L 1766 5228 
L 2253 5228 
L 2253 3519 
L 2644 3694 
Q 3113 2925 3200 1947 
z
M 4953 1941 
L 4481 1784 
Q 4384 2713 3834 3525 
L 3834 -50 
L 3353 -50 
L 3353 4978 
L 3841 4978 
L 3841 3566 
L 4244 3731 
Q 4759 3069 4953 1941 
z
M 1491 3541 
Q 1416 2691 813 1766 
L 353 1972 
Q 934 2725 1069 3653 
L 1491 3541 
z
" transform="scale(0.015625)"/>
     </defs>
     <use xlink:href="#ArialUnicodeMS-5e7f"/>
     <use xlink:href="#ArialUnicodeMS-5dde" x="100"/>
    </g>
   </g>
   <g id="text_5">
    <!-- 深圳 -->
    <g transform="translate(23.616076 235.517562)scale(0.1 -0.1)">
     <defs>
      <path id="ArialUnicodeMS-6df1" d="M 1875 4341 
L 1522 3975 
Q 1038 4603 428 4800 
L 738 5172 
Q 1341 4959 1875 4341 
z
M 5716 3750 
L 5222 3750 
L 5222 4628 
L 2509 4628 
L 2509 3775 
L 2022 3775 
L 2022 5100 
L 5716 5100 
L 5716 3750 
z
M 3616 4353 
Q 3353 3275 2419 2669 
L 2047 3022 
Q 2919 3509 3156 4538 
L 3616 4353 
z
M 5978 3463 
Q 5825 2894 5434 2894 
L 4575 2894 
Q 4128 2894 4128 3366 
L 4128 4481 
L 4609 4481 
L 4609 3513 
Q 4609 3359 4775 3359 
L 5306 3359 
Q 5481 3359 5528 3713 
L 5978 3463 
z
M 1697 2938 
L 1356 2541 
Q 897 3194 281 3431 
L 594 3775 
Q 1156 3591 1697 2938 
z
M 6163 341 
L 5806 -63 
Q 4600 566 4219 1888 
L 4134 1894 
L 4134 -434 
L 3641 -434 
L 3641 1894 
L 3591 1894 
Q 3209 491 1913 -44 
L 1606 347 
Q 2713 788 3097 1894 
L 1931 1894 
L 1931 2375 
L 3641 2375 
L 3641 2919 
L 4134 2919 
L 4134 2375 
L 5825 2375 
L 5825 1894 
L 4691 1894 
Q 5075 828 6163 341 
z
M 1709 1931 
Q 1472 634 800 -331 
L 366 0 
Q 988 759 1288 2113 
L 1709 1931 
z
" transform="scale(0.015625)"/>
      <path id="ArialUnicodeMS-5733" d="M 5806 -434 
L 5313 -434 
L 5313 5025 
L 5806 5025 
L 5806 -434 
z
M 3309 2644 
Q 3309 1425 3036 772 
Q 2763 119 2047 -453 
L 1663 -103 
Q 2103 241 2370 619 
Q 2638 997 2727 1403 
Q 2816 1809 2816 2847 
L 2816 5025 
L 3309 5025 
L 3309 2644 
z
M 2638 1644 
L 653 825 
L 359 1241 
Q 1338 1572 1338 1588 
L 1338 2988 
L 525 2988 
L 525 3456 
L 1338 3456 
L 1338 4909 
L 1831 4909 
L 1831 3456 
L 2597 3456 
L 2597 2988 
L 1831 2988 
L 1831 1806 
L 2638 2144 
L 2638 1644 
z
M 4544 441 
L 4078 441 
L 4078 4422 
L 4544 4422 
L 4544 441 
z
" transform="scale(0.015625)"/>
     </defs>
     <use xlink:href="#ArialUnicodeMS-6df1"/>
     <use xlink:href="#ArialUnicodeMS-5733" x="100"/>
    </g>
   </g>
   <g id="text_6">
    <!-- 南京 -->
    <g transform="translate(40.736476 308.200425)scale(0.1 -0.1)">
     <defs>
      <path id="ArialUnicodeMS-5357" d="M 6028 4269 
L 3481 4269 
L 3481 3700 
L 5606 3700 
L 5606 134 
Q 5606 -106 5440 -215 
Q 5275 -325 5113 -325 
L 4359 -325 
L 4238 166 
L 4747 150 
Q 5119 150 5119 384 
L 5119 3231 
L 4116 3231 
L 4453 3028 
Q 4231 2441 3988 2209 
L 4756 2209 
L 4756 1741 
L 3481 1741 
L 3481 1344 
L 4872 1344 
L 4872 878 
L 3481 878 
L 3481 -213 
L 2994 -213 
L 2994 878 
L 1613 878 
L 1613 1344 
L 2994 1344 
L 2994 1741 
L 1722 1741 
L 1722 2209 
L 2516 2209 
Q 2366 2669 1850 2988 
L 2309 3213 
Q 2853 2797 2994 2350 
L 2650 2209 
L 3384 2209 
Q 3775 2591 4013 3231 
L 1344 3231 
L 1344 -459 
L 856 -459 
L 856 3700 
L 2994 3700 
L 2994 4269 
L 434 4269 
L 434 4738 
L 2994 4738 
L 2994 5313 
L 3481 5313 
L 3481 4738 
L 6028 4738 
L 6028 4269 
z
" transform="scale(0.015625)"/>
     </defs>
     <use xlink:href="#ArialUnicodeMS-5357"/>
     <use xlink:href="#ArialUnicodeMS-4eac" x="100"/>
    </g>
   </g>
   <g id="text_7">
    <!-- 杭州 -->
    <g transform="translate(82.537206 367.818195)scale(0.1 -0.1)">
     <defs>
      <path id="ArialUnicodeMS-676d" d="M 5831 3916 
L 2631 3916 
L 2631 3628 
L 1875 3628 
L 1875 2981 
L 1972 3022 
Q 2544 2563 2816 1991 
L 2419 1709 
Q 2131 2281 1875 2516 
L 1875 -397 
L 1388 -397 
L 1388 2419 
Q 1181 1797 609 1184 
L 256 1550 
Q 1006 2331 1338 3628 
L 428 3628 
L 428 4097 
L 1388 4097 
L 1388 5325 
L 1875 5325 
L 1875 4097 
L 2413 4097 
L 2413 4384 
L 3859 4384 
L 3859 5259 
L 4347 5259 
L 4347 4384 
L 5831 4384 
L 5831 3916 
z
M 6156 872 
Q 6019 47 5830 -120 
Q 5641 -288 5300 -288 
Q 4575 -288 4575 269 
L 4575 2625 
L 3469 2625 
L 3469 1722 
Q 3469 913 3186 428 
Q 2903 -56 2316 -359 
L 1984 38 
Q 2472 247 2730 656 
Q 2988 1066 2988 1900 
L 2988 3091 
L 5063 3091 
L 5063 341 
Q 5063 178 5306 178 
Q 5478 178 5542 333 
Q 5606 488 5663 1081 
L 6156 872 
z
" transform="scale(0.015625)"/>
     </defs>
     <use xlink:href="#ArialUnicodeMS-676d"/>
     <use xlink:href="#ArialUnicodeMS-5dde" x="100"/>
    </g>
   </g>
   <g id="text_8">
    <!-- 成都 -->
    <g transform="translate(141.538097 407.224076)scale(0.1 -0.1)">
     <defs>
      <path id="ArialUnicodeMS-6210" d="M 6047 806 
Q 6053 666 5929 261 
Q 5806 -144 5709 -276 
Q 5613 -409 5428 -409 
Q 5159 -409 4751 47 
Q 4344 503 4153 947 
Q 3516 272 2859 -128 
L 2419 213 
Q 3338 709 3922 1409 
Q 3591 2216 3438 3769 
L 1516 3769 
L 1516 2900 
L 3225 2900 
Q 3181 1622 3020 1140 
Q 2859 659 2338 659 
Q 2150 659 1819 709 
L 1606 1241 
Q 2009 1119 2363 1119 
Q 2584 1119 2648 1505 
Q 2713 1891 2725 2431 
L 1509 2431 
Q 1481 1084 1270 496 
Q 1059 -91 728 -459 
L 319 -153 
Q 1000 541 1013 2009 
L 1031 4238 
L 3391 4238 
Q 3359 4997 3359 5319 
L 3841 5319 
Q 3850 4619 3878 4238 
L 5747 4238 
L 5747 3769 
L 3909 3769 
Q 4025 2497 4288 1838 
Q 4734 2413 5106 3431 
L 5550 3284 
Q 5113 2075 4500 1325 
Q 4738 869 5008 498 
Q 5278 128 5409 128 
Q 5450 128 5509 462 
Q 5569 797 5575 1081 
L 6047 806 
z
M 5650 4659 
L 5306 4359 
Q 4688 4859 4063 4928 
L 4447 5275 
Q 5144 5119 5650 4659 
z
" transform="scale(0.015625)"/>
      <path id="ArialUnicodeMS-90fd" d="M 4078 3072 
L 2881 3072 
Q 2575 2784 2259 2566 
L 3622 2566 
L 3622 -416 
L 3138 -416 
L 3138 0 
L 1759 0 
L 1759 -416 
L 1275 -416 
L 1275 1997 
L 628 1663 
L 319 2069 
Q 1541 2591 2169 3066 
L 2169 3072 
L 513 3072 
L 513 3541 
L 1894 3541 
L 1894 4147 
L 850 4147 
L 850 4588 
L 1894 4588 
L 1894 5344 
L 2381 5344 
L 2381 4588 
L 3250 4588 
L 3250 4219 
L 3263 4219 
L 3681 4831 
L 4044 4544 
Q 3803 4150 3303 3541 
L 4078 3541 
L 4078 3072 
z
M 3194 4147 
L 2381 4147 
L 2381 3541 
L 2688 3541 
Q 2900 3763 3194 4147 
z
M 3138 1544 
L 3138 2106 
L 1759 2106 
L 1759 1544 
L 3138 1544 
z
M 3138 469 
L 3138 1075 
L 1759 1075 
L 1759 469 
L 3138 469 
z
M 5381 2894 
Q 6075 2116 6075 1428 
Q 6075 1025 5884 759 
Q 5694 494 5356 494 
Q 5269 494 4806 563 
L 4691 1094 
Q 5213 966 5306 966 
Q 5600 966 5600 1409 
Q 5600 2113 4831 2803 
Q 5225 3716 5503 4609 
L 4653 4609 
L 4653 -416 
L 4166 -428 
L 4166 5050 
L 5972 5050 
L 5972 4641 
Q 5972 4447 5381 2894 
z
" transform="scale(0.015625)"/>
     </defs>
     <use xlink:href="#ArialUnicodeMS-6210"/>
     <use xlink:href="#ArialUnicodeMS-90fd" x="100"/>
    </g>
   </g>
   <g id="text_9">
    <!-- Kābol -->
    <g transform="translate(200.108838 422.662525)scale(0.1 -0.1)">
     <defs>
      <path id="ArialUnicodeMS-4b" d="M 4256 0 
L 3456 0 
L 1831 2316 
L 1075 1588 
L 1075 0 
L 469 0 
L 469 4581 
L 1075 4581 
L 1075 2309 
L 3353 4581 
L 4172 4581 
L 2253 2725 
L 4256 0 
z
" transform="scale(0.015625)"/>
      <path id="ArialUnicodeMS-101" d="M 3303 0 
L 2713 0 
Q 2631 156 2597 409 
Q 2031 -78 1375 -78 
Q 850 -78 547 184 
Q 244 447 244 878 
Q 244 1291 536 1558 
Q 828 1825 1550 1913 
L 2075 1991 
Q 2369 2038 2559 2106 
Q 2559 2359 2543 2464 
Q 2528 2569 2451 2681 
Q 2375 2794 2206 2862 
Q 2038 2931 1753 2931 
Q 1391 2931 1180 2797 
Q 969 2663 891 2297 
L 341 2369 
Q 431 2878 806 3134 
Q 1181 3391 1838 3391 
Q 2434 3391 2714 3214 
Q 2994 3038 3058 2788 
Q 3122 2538 3122 2144 
L 3122 1388 
Q 3122 697 3148 461 
Q 3175 225 3303 0 
z
M 2559 1459 
L 2559 1663 
Q 2119 1516 1481 1430 
Q 844 1344 844 891 
Q 844 663 1016 514 
Q 1188 366 1509 366 
Q 1925 366 2242 614 
Q 2559 863 2559 1459 
z
M 2728 3994 
L 778 3994 
L 778 4459 
L 2728 4459 
L 2728 3994 
z
" transform="scale(0.015625)"/>
      <path id="ArialUnicodeMS-62" d="M 1006 2944 
Q 1319 3391 1900 3391 
Q 2541 3391 2925 2925 
Q 3309 2459 3309 1709 
Q 3309 844 2879 383 
Q 2450 -78 1875 -78 
Q 1291 -78 966 416 
L 953 416 
L 953 0 
L 428 0 
L 428 4581 
L 991 4581 
L 991 2944 
L 1006 2944 
z
M 1831 384 
Q 2222 384 2476 720 
Q 2731 1056 2731 1663 
Q 2731 2247 2497 2589 
Q 2263 2931 1850 2931 
Q 1444 2931 1195 2578 
Q 947 2225 947 1684 
Q 947 1156 1050 932 
Q 1153 709 1361 546 
Q 1569 384 1831 384 
z
" transform="scale(0.015625)"/>
      <path id="ArialUnicodeMS-6f" d="M 1778 3391 
Q 2450 3391 2892 2953 
Q 3334 2516 3334 1709 
Q 3334 731 2856 326 
Q 2378 -78 1778 -78 
Q 1150 -78 687 337 
Q 225 753 225 1656 
Q 225 2531 672 2961 
Q 1119 3391 1778 3391 
z
M 1778 384 
Q 2259 384 2509 740 
Q 2759 1097 2759 1678 
Q 2759 2300 2476 2615 
Q 2194 2931 1778 2931 
Q 1350 2931 1075 2611 
Q 800 2291 800 1656 
Q 800 1025 1079 704 
Q 1359 384 1778 384 
z
" transform="scale(0.015625)"/>
      <path id="ArialUnicodeMS-6c" d="M 991 0 
L 428 0 
L 428 4581 
L 991 4581 
L 991 0 
z
" transform="scale(0.015625)"/>
     </defs>
     <use xlink:href="#ArialUnicodeMS-4b"/>
     <use xlink:href="#ArialUnicodeMS-101" x="66.699219"/>
     <use xlink:href="#ArialUnicodeMS-62" x="122.314453"/>
     <use xlink:href="#ArialUnicodeMS-6f" x="177.929688"/>
     <use xlink:href="#ArialUnicodeMS-6c" x="233.544922"/>
    </g>
   </g>
   <g id="text_10">
    <!-- 重庆 -->
    <g transform="translate(284.588696 417.599692)scale(0.1 -0.1)">
     <defs>
      <path id="ArialUnicodeMS-91cd" d="M 6059 -219 
L 441 -219 
L 441 250 
L 3022 250 
L 3022 609 
L 1100 609 
L 1100 1075 
L 3022 1075 
L 3022 1381 
L 1269 1381 
L 1269 3513 
L 3022 3513 
L 3022 3822 
L 653 3822 
L 653 4288 
L 3009 4288 
L 3009 4550 
L 1106 4500 
L 825 4953 
Q 1153 4941 1534 4941 
Q 3866 4941 5247 5319 
L 5528 4916 
Q 4928 4763 3506 4594 
L 3506 4288 
L 5856 4288 
L 5856 3822 
L 3506 3822 
L 3506 3513 
L 5269 3513 
L 5269 1381 
L 3506 1381 
L 3506 1075 
L 5356 1075 
L 5356 609 
L 3506 609 
L 3506 250 
L 6059 250 
L 6059 -219 
z
M 4781 2669 
L 4781 3047 
L 3506 3047 
L 3506 2669 
L 4781 2669 
z
M 3022 2669 
L 3022 3047 
L 1753 3047 
L 1753 2669 
L 3022 2669 
z
M 4781 1825 
L 4781 2228 
L 3506 2228 
L 3506 1825 
L 4781 1825 
z
M 3022 1825 
L 3022 2228 
L 1753 2228 
L 1753 1825 
L 3022 1825 
z
" transform="scale(0.015625)"/>
      <path id="ArialUnicodeMS-5e86" d="M 5734 3916 
L 1491 3916 
L 1491 2534 
Q 1491 1163 1228 505 
Q 966 -153 603 -481 
L 250 -134 
Q 578 191 792 786 
Q 1006 1381 1006 2741 
L 1006 4378 
L 3322 4378 
Q 3088 4772 2644 5050 
L 3034 5313 
Q 3544 4991 3828 4544 
L 3578 4391 
L 3578 4378 
L 5734 4378 
L 5734 3916 
z
M 6022 -109 
L 5672 -481 
Q 4731 284 4329 959 
Q 3928 1634 3731 2406 
L 3719 2406 
Q 3384 331 1594 -459 
L 1300 -38 
Q 2069 247 2586 912 
Q 3103 1578 3225 2406 
L 1697 2406 
L 1697 2869 
L 3272 2869 
L 3303 3244 
L 3303 3763 
L 3781 3763 
Q 3800 3350 3763 2869 
L 5850 2869 
L 5850 2406 
L 4197 2406 
Q 4606 922 6022 -109 
z
" transform="scale(0.015625)"/>
     </defs>
     <use xlink:href="#ArialUnicodeMS-91cd"/>
     <use xlink:href="#ArialUnicodeMS-5e86" x="100"/>
    </g>
   </g>
   <g id="text_11">
    <!-- 武汉 -->
    <g transform="translate(333.261574 398.605089)scale(0.1 -0.1)">
     <defs>
      <path id="ArialUnicodeMS-6b66" d="M 6028 819 
Q 5903 -372 5447 -372 
Q 5100 -372 4550 543 
Q 4000 1459 3809 3188 
L 488 3188 
L 488 3653 
L 3769 3653 
Q 3731 4019 3694 5338 
L 4172 5338 
Q 4181 4578 4250 3653 
L 5772 3653 
L 5772 3188 
L 4294 3188 
Q 4409 1863 4854 1030 
Q 5300 197 5422 197 
Q 5463 197 5508 450 
Q 5553 703 5563 978 
L 6028 819 
z
M 5644 4159 
L 5275 3859 
Q 4894 4488 4281 4728 
L 4628 5038 
Q 5153 4866 5644 4159 
z
M 3328 4313 
L 794 4313 
L 794 4781 
L 3328 4781 
L 3328 4313 
z
M 4078 453 
L 691 -275 
L 403 178 
L 978 281 
L 978 2534 
L 1466 2534 
L 1466 384 
L 2181 525 
L 2181 2963 
L 2669 2963 
L 2669 2241 
L 3609 2241 
L 3609 1772 
L 2669 1772 
L 2669 641 
L 4078 941 
L 4078 453 
z
" transform="scale(0.015625)"/>
      <path id="ArialUnicodeMS-6c49" d="M 2094 4422 
L 1778 3994 
Q 1278 4519 506 4763 
L 806 5147 
Q 1563 4944 2094 4422 
z
M 6119 103 
L 5741 -347 
Q 4553 325 4025 966 
Q 3334 153 2266 -378 
L 1959 50 
Q 3153 681 3713 1375 
Q 2906 2506 2669 4366 
L 2303 4366 
L 2303 4806 
L 5434 4806 
Q 5428 4200 5145 3153 
Q 4863 2106 4347 1369 
Q 4981 619 6119 103 
z
M 4922 4366 
L 3138 4366 
Q 3384 2797 4013 1819 
Q 4703 2853 4922 4366 
z
M 1813 3238 
L 1538 2797 
Q 1025 3275 256 3488 
L 513 3909 
Q 1294 3700 1813 3238 
z
M 2119 2009 
L 1869 1353 
Q 1672 819 1431 447 
Q 1191 75 813 -319 
L 416 13 
Q 1291 888 1691 2234 
L 2119 2009 
z
" transform="scale(0.015625)"/>
     </defs>
     <use xlink:href="#ArialUnicodeMS-6b66"/>
     <use xlink:href="#ArialUnicodeMS-6c49" x="100"/>
    </g>
   </g>
   <g id="text_12">
    <!-- 长沙 -->
    <g transform="translate(372.417932 370.001188)scale(0.1 -0.1)">
     <defs>
      <path id="ArialUnicodeMS-957f" d="M 6125 306 
L 5797 -122 
Q 3488 722 2981 2413 
L 2259 2413 
L 2259 319 
L 3597 844 
L 3597 366 
L 1984 -347 
L 1697 84 
Q 1772 172 1772 331 
L 1772 2413 
L 384 2413 
L 384 2881 
L 1772 2881 
L 1772 5269 
L 2259 5269 
L 2259 3553 
Q 3700 4050 4738 4916 
L 5069 4550 
Q 3859 3588 2259 3084 
L 2259 2881 
L 5978 2881 
L 5978 2413 
L 3469 2413 
Q 3947 959 6125 306 
z
" transform="scale(0.015625)"/>
      <path id="ArialUnicodeMS-6c99" d="M 4288 1753 
Q 4288 1584 4175 1453 
Q 4063 1322 3891 1294 
Q 3719 1266 3181 1275 
Q 3166 1350 3116 1517 
Q 3066 1684 3047 1784 
L 3641 1734 
Q 3713 1728 3753 1776 
Q 3794 1825 3794 1856 
L 3794 5197 
L 4288 5197 
L 4288 1753 
z
M 2253 4225 
L 1863 3866 
Q 1456 4553 728 4844 
L 1075 5191 
Q 1763 4938 2253 4225 
z
M 3450 4050 
Q 3200 3031 2328 2150 
L 1906 2463 
Q 2691 3113 3009 4250 
L 3450 4050 
z
M 6194 2613 
Q 6063 2488 5778 2291 
Q 5366 3284 4556 3922 
L 4953 4206 
Q 5709 3647 6194 2613 
z
M 1797 2875 
Q 1744 2822 1648 2689 
Q 1553 2556 1453 2497 
Q 1138 3094 325 3488 
L 653 3828 
Q 1422 3494 1797 2875 
z
M 5594 2247 
Q 5103 856 4042 262 
Q 2981 -331 1631 -397 
L 1363 78 
L 2263 203 
Q 2713 269 3109 397 
Q 3506 525 3889 770 
Q 4272 1016 4600 1425 
Q 4928 1834 5153 2425 
Q 5431 2303 5594 2247 
z
M 2047 2022 
Q 1728 703 819 -341 
Q 559 -153 366 -44 
Q 1241 881 1606 2188 
L 2047 2022 
z
" transform="scale(0.015625)"/>
     </defs>
     <use xlink:href="#ArialUnicodeMS-957f"/>
     <use xlink:href="#ArialUnicodeMS-6c99" x="100"/>
    </g>
   </g>
   <g id="text_13">
    <!-- 天津 -->
    <g transform="translate(400.548507 336.853346)scale(0.1 -0.1)">
     <defs>
      <path id="ArialUnicodeMS-5929" d="M 6059 72 
L 5703 -325 
Q 3722 569 3347 2509 
Q 3175 1638 2472 863 
Q 1769 88 806 -319 
L 391 103 
Q 2447 900 2828 2613 
L 897 2613 
L 897 3078 
L 2913 3078 
Q 2981 3484 3003 4494 
L 703 4494 
L 703 4978 
L 5797 4978 
L 5797 4494 
L 3525 4494 
Q 3506 3403 3469 3078 
L 5619 3078 
L 5619 2613 
L 3828 2613 
Q 4159 956 6059 72 
z
" transform="scale(0.015625)"/>
      <path id="ArialUnicodeMS-6d25" d="M 6138 3488 
L 5478 3488 
L 5478 2541 
L 4056 2541 
L 4056 2150 
L 5684 2150 
L 5684 1691 
L 4056 1691 
L 4056 1184 
L 6119 1184 
L 6119 722 
L 4056 722 
L 4056 -397 
L 3553 -397 
L 3553 722 
L 1759 722 
L 1759 1184 
L 3553 1184 
L 3553 1691 
L 2113 1691 
L 2113 2150 
L 3553 2150 
L 3553 2541 
L 2228 2541 
L 2228 3003 
L 3553 3003 
L 3553 3488 
L 1759 3488 
L 1759 3950 
L 3553 3950 
L 3553 4319 
L 2253 4319 
L 2253 4781 
L 3553 4781 
L 3553 5388 
L 4056 5388 
L 4056 4781 
L 5478 4781 
L 5478 3950 
L 6138 3950 
L 6138 3488 
z
M 4991 3950 
L 4991 4319 
L 4056 4319 
L 4056 3950 
L 4991 3950 
z
M 4991 3003 
L 4991 3488 
L 4056 3488 
L 4056 3003 
L 4991 3003 
z
M 2022 4347 
L 1631 4019 
Q 1181 4725 647 4991 
L 1038 5313 
Q 1456 5141 2022 4347 
z
M 1697 2944 
L 1331 2606 
Q 925 3438 306 3750 
L 672 4063 
Q 1294 3728 1697 2944 
z
M 1888 2094 
Q 1578 663 800 -231 
L 341 91 
Q 1153 856 1434 2316 
L 1888 2094 
z
" transform="scale(0.015625)"/>
     </defs>
     <use xlink:href="#ArialUnicodeMS-5929"/>
     <use xlink:href="#ArialUnicodeMS-6d25" x="100"/>
    </g>
   </g>
   <g id="text_14">
    <!-- 西安 -->
    <g transform="translate(418.760413 302.987451)scale(0.1 -0.1)">
     <defs>
      <path id="ArialUnicodeMS-897f" d="M 5947 4475 
L 4019 4475 
L 4019 3519 
L 5509 3519 
L 5509 -341 
L 5025 -341 
L 5025 172 
L 1381 172 
L 1381 -341 
L 891 -341 
L 891 3519 
L 2322 3519 
L 2322 4475 
L 469 4475 
L 469 4941 
L 5947 4941 
L 5947 4475 
z
M 3531 3519 
L 3531 4475 
L 2803 4475 
L 2803 3519 
L 3531 3519 
z
M 5025 641 
L 5025 3053 
L 4019 3053 
L 4019 2041 
Q 4019 1888 4184 1888 
L 4359 1888 
Q 4469 1888 4563 2328 
L 4991 2088 
Q 4850 1422 4441 1422 
L 4006 1422 
Q 3541 1422 3541 1925 
L 3541 3053 
L 2809 3053 
Q 2809 1781 1709 1131 
L 1375 1453 
L 1375 641 
L 5025 641 
z
M 2303 3053 
L 1375 3053 
L 1375 1528 
Q 1903 1856 2103 2201 
Q 2303 2547 2303 3053 
z
" transform="scale(0.015625)"/>
      <path id="ArialUnicodeMS-5b89" d="M 5656 3359 
L 5184 3359 
L 5184 4056 
L 1222 4056 
L 1222 3359 
L 744 3359 
L 744 4525 
L 2950 4525 
L 2950 5234 
L 3444 5234 
L 3444 4525 
L 5656 4525 
L 5656 3359 
z
M 5838 2388 
L 4750 2388 
Q 4397 1359 3950 922 
Q 5138 478 5766 19 
L 5453 -403 
Q 5016 -22 3559 575 
Q 2378 -306 800 -447 
L 488 6 
Q 2022 122 2963 744 
Q 2147 1003 1350 1166 
Q 1969 2041 2119 2388 
L 575 2388 
L 575 2853 
L 2375 2853 
L 2906 3866 
L 3347 3647 
L 2925 2853 
L 5838 2853 
L 5838 2388 
z
M 4231 2388 
L 2700 2388 
L 2163 1472 
Q 2922 1275 3444 1100 
Q 4047 1656 4231 2388 
z
" transform="scale(0.015625)"/>
     </defs>
     <use xlink:href="#ArialUnicodeMS-897f"/>
     <use xlink:href="#ArialUnicodeMS-5b89" x="100"/>
    </g>
   </g>
   <g id="text_15">
    <!-- 青岛 -->
    <g transform="translate(428.923875 271.147633)scale(0.1 -0.1)">
     <defs>
      <path id="ArialUnicodeMS-9752" d="M 5856 2913 
L 666 2913 
L 666 3372 
L 3009 3372 
L 3009 3688 
L 1388 3688 
L 1388 4147 
L 3009 4147 
L 3009 4447 
L 909 4447 
L 909 4909 
L 3009 4909 
L 3009 5356 
L 3494 5356 
L 3494 4909 
L 5619 4909 
L 5619 4447 
L 3494 4447 
L 3494 4147 
L 5153 4147 
L 5153 3688 
L 3494 3688 
L 3494 3372 
L 5856 3372 
L 5856 2913 
z
M 5119 225 
Q 5119 44 5042 -78 
Q 4966 -200 4825 -251 
Q 4684 -303 4297 -303 
Q 4138 -303 3909 -294 
L 3750 178 
L 4494 159 
Q 4634 159 4634 313 
L 4634 634 
L 1894 634 
L 1894 -416 
L 1388 -416 
L 1388 2644 
L 5119 2644 
L 5119 225 
z
M 4634 1869 
L 4634 2181 
L 1894 2181 
L 1894 1869 
L 4634 1869 
z
M 4634 1094 
L 4634 1409 
L 1894 1409 
L 1894 1094 
L 4634 1094 
z
" transform="scale(0.015625)"/>
      <path id="ArialUnicodeMS-5c9b" d="M 5538 2597 
Q 5488 1881 5353 1017 
Q 5219 153 5164 -31 
Q 5109 -216 4978 -311 
Q 4847 -406 4594 -406 
Q 4359 -406 3788 -353 
L 3688 184 
Q 3853 138 4170 86 
Q 4488 34 4513 34 
Q 4613 34 4681 114 
Q 4750 194 4856 900 
Q 4963 1606 5019 2131 
L 1306 2131 
L 1306 4666 
L 2309 4666 
Q 2528 4941 2650 5325 
L 3097 5159 
Q 2944 4844 2809 4666 
L 4672 4666 
Q 4500 3150 4359 2917 
Q 4219 2684 3834 2684 
Q 3678 2684 3372 2759 
L 3303 3231 
Q 3650 3116 3828 3116 
Q 3909 3116 3956 3178 
Q 4003 3241 4059 3637 
Q 4116 4034 4153 4225 
L 1766 4225 
L 1766 2597 
L 5538 2597 
z
M 3347 3372 
L 2994 3022 
Q 2622 3509 2106 3756 
L 2363 4084 
Q 2916 3838 3347 3372 
z
M 4025 288 
L 738 288 
L 738 1881 
L 1172 1881 
L 1172 756 
L 2144 756 
L 2144 2028 
L 2606 2028 
L 2606 756 
L 3566 756 
L 3566 1881 
L 4025 1881 
L 4025 288 
z
" transform="scale(0.015625)"/>
     </defs>
     <use xlink:href="#ArialUnicodeMS-9752"/>
     <use xlink:href="#ArialUnicodeMS-5c9b" x="100"/>
    </g>
   </g>
   <g id="text_16">
    <!-- 苏州 -->
    <g transform="translate(433.22654 242.451342)scale(0.1 -0.1)">
     <defs>
      <path id="ArialUnicodeMS-82cf" d="M 5856 4197 
L 4213 4197 
L 4213 3669 
L 3725 3669 
L 3725 4197 
L 2503 4197 
L 2503 3669 
L 2016 3669 
L 2016 4197 
L 403 4197 
L 403 4666 
L 2016 4666 
L 2016 5259 
L 2503 5259 
L 2503 4666 
L 3725 4666 
L 3725 5259 
L 4213 5259 
L 4213 4666 
L 5856 4666 
L 5856 4197 
z
M 4628 3072 
Q 4628 2275 4545 1420 
Q 4463 566 4381 209 
Q 4300 -147 4136 -275 
Q 3972 -403 3750 -403 
Q 3531 -403 3084 -347 
L 2950 219 
Q 3591 38 3678 38 
Q 3769 38 3820 111 
Q 3872 184 3983 1003 
Q 4094 1822 4147 2606 
L 3003 2606 
Q 2822 1453 2265 734 
Q 1709 16 691 -434 
L 391 -13 
Q 1413 438 1867 991 
Q 2322 1544 2522 2606 
L 884 2606 
L 884 3072 
L 2559 3072 
L 2578 3597 
L 3047 3500 
L 3047 3072 
L 4628 3072 
z
M 1869 2150 
Q 1659 1356 1019 763 
L 603 1056 
Q 1206 1575 1459 2375 
L 1869 2150 
z
M 5991 1019 
Q 5938 981 5803 876 
Q 5669 772 5575 716 
Q 5294 1428 4697 2003 
L 5075 2272 
Q 5644 1756 5991 1019 
z
" transform="scale(0.015625)"/>
     </defs>
     <use xlink:href="#ArialUnicodeMS-82cf"/>
     <use xlink:href="#ArialUnicodeMS-5dde" x="100"/>
    </g>
   </g>
  </g>
 </g>
</svg>
