<svg xmlns="http://www.w3.org/2000/svg" xmlns:svg="http://www.w3.org/2000/svg" id="svg10" width="320" height="320" preserveAspectRatio="xMidYMid meet" version="1.0" viewBox="0 0 320 320"><metadata id="metadata2">Created by potrace 1.16, written by Peter Selinger 2001-2019</metadata><g id="g850" transform="matrix(0.5,0,0,0.5,60,60)"><rect style="fill:#fff;fill-opacity:1;stroke-width:.75" id="rect843" width="400" height="400" x="0" y="0" ry="0"/><path style="fill:#6372ff;fill-opacity:1;stroke:none;stroke-width:.1" id="path4" d="m 0,103.1 v 103.2 l 4.8,-0.7 c 2.6,-0.3 17.1,-1.7 32.2,-3 57.5,-5.2 102.6,-6.5 213.5,-6.1 72.7,0.3 103.4,0.9 140.3,2.9 l 9.2,0.5 V 100 0 H 200 0 Z"/><path style="fill:#1f2845;fill-opacity:1;stroke:none;stroke-width:.1" id="path6" d="m 385,228.7 c -125.3,2.9 -235.6,9.7 -356,21.8 -8.5,0.9 -18.5,1.8 -22.2,2.2 L 0,253.3 v 73.3 73.4 h 200 200 v -86 -86 l -2.2,0.2 c -1.3,0.1 -7,0.3 -12.8,0.5 z"/></g></svg>