<?xml version="1.0" encoding="utf-8" standalone="no"?>
<!DOCTYPE svg PUBLIC "-//W3C//DTD SVG 1.1//EN"
  "http://www.w3.org/Graphics/SVG/1.1/DTD/svg11.dtd">
<svg xmlns:xlink="http://www.w3.org/1999/xlink" width="598.532813pt" height="326.341875pt" viewBox="0 0 598.532813 326.341875" xmlns="http://www.w3.org/2000/svg" version="1.1">
 <metadata>
  <rdf:RDF xmlns:dc="http://purl.org/dc/elements/1.1/" xmlns:cc="http://creativecommons.org/ns#" xmlns:rdf="http://www.w3.org/1999/02/22-rdf-syntax-ns#">
   <cc:Work>
    <dc:type rdf:resource="http://purl.org/dc/dcmitype/StillImage"/>
    <dc:date>2023-05-31T21:32:40.526064</dc:date>
    <dc:format>image/svg+xml</dc:format>
    <dc:creator>
     <cc:Agent>
      <dc:title>Matplotlib v3.5.2, https://matplotlib.org/</dc:title>
     </cc:Agent>
    </dc:creator>
   </cc:Work>
  </rdf:RDF>
 </metadata>
 <defs>
  <style type="text/css">*{stroke-linejoin: round; stroke-linecap: butt}</style>
 </defs>
 <g id="figure_1">
  <g id="patch_1">
   <path d="M 0 326.341875 
L 598.532813 326.341875 
L 598.532813 0 
L 0 0 
z
" style="fill: #ffffff"/>
  </g>
  <g id="axes_1">
   <g id="patch_2">
    <path d="M 36.932813 296.941875 
L 594.932812 296.941875 
L 594.932812 19.741875 
L 36.932813 19.741875 
z
" style="fill: #ffffff"/>
   </g>
   <g id="matplotlib.axis_1">
    <g id="xtick_1">
     <g id="line2d_1">
      <defs>
       <path id="mdd7d2046c8" d="M 0 0 
L 0 -3 
" style="stroke: #000000; stroke-width: 0.5"/>
      </defs>
      <g>
       <use xlink:href="#mdd7d2046c8" x="79.993906" y="296.941875" style="stroke: #000000; stroke-width: 0.5"/>
      </g>
     </g>
     <g id="line2d_2">
      <defs>
       <path id="ma16e490881" d="M 0 0 
L 0 3 
" style="stroke: #000000; stroke-width: 0.5"/>
      </defs>
      <g>
       <use xlink:href="#ma16e490881" x="79.993906" y="19.741875" style="stroke: #000000; stroke-width: 0.5"/>
      </g>
     </g>
     <g id="text_1">
      <!-- 1999 -->
      <g transform="translate(68.872031 307.599688)scale(0.1 -0.1)">
       <defs>
        <path id="ArialUnicodeMS-31" d="M 2400 0 
L 1838 0 
L 1838 3584 
Q 1416 3184 709 2906 
L 709 3450 
Q 1681 3916 2034 4603 
L 2400 4603 
L 2400 0 
z
" transform="scale(0.015625)"/>
        <path id="ArialUnicodeMS-39" d="M 2713 2156 
Q 2547 1888 2258 1722 
Q 1969 1556 1631 1556 
Q 1066 1556 670 1970 
Q 275 2384 275 3053 
Q 275 3734 678 4168 
Q 1081 4603 1716 4603 
Q 2353 4603 2818 4106 
Q 3284 3609 3284 2388 
Q 3284 1147 2859 534 
Q 2434 -78 1644 -78 
Q 1128 -78 781 205 
Q 434 488 359 1063 
L 897 1106 
Q 1025 384 1656 384 
Q 2175 384 2450 857 
Q 2725 1331 2725 2156 
L 2713 2156 
z
M 1766 2047 
Q 2178 2047 2420 2339 
Q 2663 2631 2663 3078 
Q 2663 3531 2414 3836 
Q 2166 4141 1778 4141 
Q 1388 4141 1119 3817 
Q 850 3494 850 3034 
Q 850 2600 1114 2323 
Q 1378 2047 1766 2047 
z
" transform="scale(0.015625)"/>
       </defs>
       <use xlink:href="#ArialUnicodeMS-31"/>
       <use xlink:href="#ArialUnicodeMS-39" x="55.615234"/>
       <use xlink:href="#ArialUnicodeMS-39" x="111.230469"/>
       <use xlink:href="#ArialUnicodeMS-39" x="166.845703"/>
      </g>
     </g>
    </g>
    <g id="xtick_2">
     <g id="line2d_3">
      <g>
       <use xlink:href="#mdd7d2046c8" x="187.646639" y="296.941875" style="stroke: #000000; stroke-width: 0.5"/>
      </g>
     </g>
     <g id="line2d_4">
      <g>
       <use xlink:href="#ma16e490881" x="187.646639" y="19.741875" style="stroke: #000000; stroke-width: 0.5"/>
      </g>
     </g>
     <g id="text_2">
      <!-- 2004 -->
      <g transform="translate(176.524764 307.599688)scale(0.1 -0.1)">
       <defs>
        <path id="ArialUnicodeMS-32" d="M 3231 0 
L 197 0 
Q 197 388 467 784 
Q 738 1181 1478 1778 
Q 1931 2141 2287 2539 
Q 2644 2938 2644 3341 
Q 2644 3688 2398 3914 
Q 2153 4141 1778 4141 
Q 1400 4141 1144 3908 
Q 888 3675 884 3213 
L 306 3278 
Q 359 3922 764 4262 
Q 1169 4603 1791 4603 
Q 2466 4603 2842 4229 
Q 3219 3856 3219 3328 
Q 3219 2888 2901 2436 
Q 2584 1984 1638 1228 
Q 1141 831 978 544 
L 3231 544 
L 3231 0 
z
" transform="scale(0.015625)"/>
        <path id="ArialUnicodeMS-30" d="M 1778 4603 
Q 3272 4603 3272 2259 
Q 3272 1075 2886 498 
Q 2500 -78 1778 -78 
Q 288 -78 288 2259 
Q 288 3444 673 4023 
Q 1059 4603 1778 4603 
z
M 1778 384 
Q 2231 384 2462 823 
Q 2694 1263 2694 2259 
Q 2694 2953 2592 3351 
Q 2491 3750 2286 3945 
Q 2081 4141 1772 4141 
Q 1319 4141 1091 3694 
Q 863 3247 863 2259 
Q 863 1575 966 1175 
Q 1069 775 1272 579 
Q 1475 384 1778 384 
z
" transform="scale(0.015625)"/>
        <path id="ArialUnicodeMS-34" d="M 3263 1094 
L 2644 1094 
L 2644 0 
L 2081 0 
L 2081 1094 
L 97 1094 
L 97 1613 
L 2181 4581 
L 2644 4581 
L 2644 1613 
L 3263 1613 
L 3263 1094 
z
M 2081 1613 
L 2081 3681 
L 2069 3681 
L 647 1613 
L 2081 1613 
z
" transform="scale(0.015625)"/>
       </defs>
       <use xlink:href="#ArialUnicodeMS-32"/>
       <use xlink:href="#ArialUnicodeMS-30" x="55.615234"/>
       <use xlink:href="#ArialUnicodeMS-30" x="111.230469"/>
       <use xlink:href="#ArialUnicodeMS-34" x="166.845703"/>
      </g>
     </g>
    </g>
    <g id="xtick_3">
     <g id="line2d_5">
      <g>
       <use xlink:href="#mdd7d2046c8" x="295.299372" y="296.941875" style="stroke: #000000; stroke-width: 0.5"/>
      </g>
     </g>
     <g id="line2d_6">
      <g>
       <use xlink:href="#ma16e490881" x="295.299372" y="19.741875" style="stroke: #000000; stroke-width: 0.5"/>
      </g>
     </g>
     <g id="text_3">
      <!-- 2009 -->
      <g transform="translate(284.177497 307.599688)scale(0.1 -0.1)">
       <use xlink:href="#ArialUnicodeMS-32"/>
       <use xlink:href="#ArialUnicodeMS-30" x="55.615234"/>
       <use xlink:href="#ArialUnicodeMS-30" x="111.230469"/>
       <use xlink:href="#ArialUnicodeMS-39" x="166.845703"/>
      </g>
     </g>
    </g>
    <g id="xtick_4">
     <g id="line2d_7">
      <g>
       <use xlink:href="#mdd7d2046c8" x="402.952105" y="296.941875" style="stroke: #000000; stroke-width: 0.5"/>
      </g>
     </g>
     <g id="line2d_8">
      <g>
       <use xlink:href="#ma16e490881" x="402.952105" y="19.741875" style="stroke: #000000; stroke-width: 0.5"/>
      </g>
     </g>
     <g id="text_4">
      <!-- 2014 -->
      <g transform="translate(391.83023 307.599688)scale(0.1 -0.1)">
       <use xlink:href="#ArialUnicodeMS-32"/>
       <use xlink:href="#ArialUnicodeMS-30" x="55.615234"/>
       <use xlink:href="#ArialUnicodeMS-31" x="111.230469"/>
       <use xlink:href="#ArialUnicodeMS-34" x="166.845703"/>
      </g>
     </g>
    </g>
    <g id="xtick_5">
     <g id="line2d_9">
      <g>
       <use xlink:href="#mdd7d2046c8" x="510.604838" y="296.941875" style="stroke: #000000; stroke-width: 0.5"/>
      </g>
     </g>
     <g id="line2d_10">
      <g>
       <use xlink:href="#ma16e490881" x="510.604838" y="19.741875" style="stroke: #000000; stroke-width: 0.5"/>
      </g>
     </g>
     <g id="text_5">
      <!-- 2019 -->
      <g transform="translate(499.482963 307.599688)scale(0.1 -0.1)">
       <use xlink:href="#ArialUnicodeMS-32"/>
       <use xlink:href="#ArialUnicodeMS-30" x="55.615234"/>
       <use xlink:href="#ArialUnicodeMS-31" x="111.230469"/>
       <use xlink:href="#ArialUnicodeMS-39" x="166.845703"/>
      </g>
     </g>
    </g>
    <g id="xtick_6">
     <g id="line2d_11">
      <defs>
       <path id="mde116d22ba" d="M 0 0 
L 0 -1.5 
" style="stroke: #000000; stroke-width: 0.5"/>
      </defs>
      <g>
       <use xlink:href="#mde116d22ba" x="36.932812" y="296.941875" style="stroke: #000000; stroke-width: 0.5"/>
      </g>
     </g>
     <g id="line2d_12">
      <defs>
       <path id="m30806d4ca1" d="M 0 0 
L 0 1.5 
" style="stroke: #000000; stroke-width: 0.5"/>
      </defs>
      <g>
       <use xlink:href="#m30806d4ca1" x="36.932812" y="19.741875" style="stroke: #000000; stroke-width: 0.5"/>
      </g>
     </g>
    </g>
    <g id="xtick_7">
     <g id="line2d_13">
      <g>
       <use xlink:href="#mde116d22ba" x="58.463359" y="296.941875" style="stroke: #000000; stroke-width: 0.5"/>
      </g>
     </g>
     <g id="line2d_14">
      <g>
       <use xlink:href="#m30806d4ca1" x="58.463359" y="19.741875" style="stroke: #000000; stroke-width: 0.5"/>
      </g>
     </g>
    </g>
    <g id="xtick_8">
     <g id="line2d_15">
      <g>
       <use xlink:href="#mde116d22ba" x="101.524452" y="296.941875" style="stroke: #000000; stroke-width: 0.5"/>
      </g>
     </g>
     <g id="line2d_16">
      <g>
       <use xlink:href="#m30806d4ca1" x="101.524452" y="19.741875" style="stroke: #000000; stroke-width: 0.5"/>
      </g>
     </g>
    </g>
    <g id="xtick_9">
     <g id="line2d_17">
      <g>
       <use xlink:href="#mde116d22ba" x="123.054999" y="296.941875" style="stroke: #000000; stroke-width: 0.5"/>
      </g>
     </g>
     <g id="line2d_18">
      <g>
       <use xlink:href="#m30806d4ca1" x="123.054999" y="19.741875" style="stroke: #000000; stroke-width: 0.5"/>
      </g>
     </g>
    </g>
    <g id="xtick_10">
     <g id="line2d_19">
      <g>
       <use xlink:href="#mde116d22ba" x="144.585546" y="296.941875" style="stroke: #000000; stroke-width: 0.5"/>
      </g>
     </g>
     <g id="line2d_20">
      <g>
       <use xlink:href="#m30806d4ca1" x="144.585546" y="19.741875" style="stroke: #000000; stroke-width: 0.5"/>
      </g>
     </g>
    </g>
    <g id="xtick_11">
     <g id="line2d_21">
      <g>
       <use xlink:href="#mde116d22ba" x="166.116092" y="296.941875" style="stroke: #000000; stroke-width: 0.5"/>
      </g>
     </g>
     <g id="line2d_22">
      <g>
       <use xlink:href="#m30806d4ca1" x="166.116092" y="19.741875" style="stroke: #000000; stroke-width: 0.5"/>
      </g>
     </g>
    </g>
    <g id="xtick_12">
     <g id="line2d_23">
      <g>
       <use xlink:href="#mde116d22ba" x="209.177185" y="296.941875" style="stroke: #000000; stroke-width: 0.5"/>
      </g>
     </g>
     <g id="line2d_24">
      <g>
       <use xlink:href="#m30806d4ca1" x="209.177185" y="19.741875" style="stroke: #000000; stroke-width: 0.5"/>
      </g>
     </g>
    </g>
    <g id="xtick_13">
     <g id="line2d_25">
      <g>
       <use xlink:href="#mde116d22ba" x="230.707732" y="296.941875" style="stroke: #000000; stroke-width: 0.5"/>
      </g>
     </g>
     <g id="line2d_26">
      <g>
       <use xlink:href="#m30806d4ca1" x="230.707732" y="19.741875" style="stroke: #000000; stroke-width: 0.5"/>
      </g>
     </g>
    </g>
    <g id="xtick_14">
     <g id="line2d_27">
      <g>
       <use xlink:href="#mde116d22ba" x="252.238279" y="296.941875" style="stroke: #000000; stroke-width: 0.5"/>
      </g>
     </g>
     <g id="line2d_28">
      <g>
       <use xlink:href="#m30806d4ca1" x="252.238279" y="19.741875" style="stroke: #000000; stroke-width: 0.5"/>
      </g>
     </g>
    </g>
    <g id="xtick_15">
     <g id="line2d_29">
      <g>
       <use xlink:href="#mde116d22ba" x="273.768825" y="296.941875" style="stroke: #000000; stroke-width: 0.5"/>
      </g>
     </g>
     <g id="line2d_30">
      <g>
       <use xlink:href="#m30806d4ca1" x="273.768825" y="19.741875" style="stroke: #000000; stroke-width: 0.5"/>
      </g>
     </g>
    </g>
    <g id="xtick_16">
     <g id="line2d_31">
      <g>
       <use xlink:href="#mde116d22ba" x="316.829919" y="296.941875" style="stroke: #000000; stroke-width: 0.5"/>
      </g>
     </g>
     <g id="line2d_32">
      <g>
       <use xlink:href="#m30806d4ca1" x="316.829919" y="19.741875" style="stroke: #000000; stroke-width: 0.5"/>
      </g>
     </g>
    </g>
    <g id="xtick_17">
     <g id="line2d_33">
      <g>
       <use xlink:href="#mde116d22ba" x="338.360465" y="296.941875" style="stroke: #000000; stroke-width: 0.5"/>
      </g>
     </g>
     <g id="line2d_34">
      <g>
       <use xlink:href="#m30806d4ca1" x="338.360465" y="19.741875" style="stroke: #000000; stroke-width: 0.5"/>
      </g>
     </g>
    </g>
    <g id="xtick_18">
     <g id="line2d_35">
      <g>
       <use xlink:href="#mde116d22ba" x="359.891012" y="296.941875" style="stroke: #000000; stroke-width: 0.5"/>
      </g>
     </g>
     <g id="line2d_36">
      <g>
       <use xlink:href="#m30806d4ca1" x="359.891012" y="19.741875" style="stroke: #000000; stroke-width: 0.5"/>
      </g>
     </g>
    </g>
    <g id="xtick_19">
     <g id="line2d_37">
      <g>
       <use xlink:href="#mde116d22ba" x="381.421558" y="296.941875" style="stroke: #000000; stroke-width: 0.5"/>
      </g>
     </g>
     <g id="line2d_38">
      <g>
       <use xlink:href="#m30806d4ca1" x="381.421558" y="19.741875" style="stroke: #000000; stroke-width: 0.5"/>
      </g>
     </g>
    </g>
    <g id="xtick_20">
     <g id="line2d_39">
      <g>
       <use xlink:href="#mde116d22ba" x="424.482652" y="296.941875" style="stroke: #000000; stroke-width: 0.5"/>
      </g>
     </g>
     <g id="line2d_40">
      <g>
       <use xlink:href="#m30806d4ca1" x="424.482652" y="19.741875" style="stroke: #000000; stroke-width: 0.5"/>
      </g>
     </g>
    </g>
    <g id="xtick_21">
     <g id="line2d_41">
      <g>
       <use xlink:href="#mde116d22ba" x="446.013198" y="296.941875" style="stroke: #000000; stroke-width: 0.5"/>
      </g>
     </g>
     <g id="line2d_42">
      <g>
       <use xlink:href="#m30806d4ca1" x="446.013198" y="19.741875" style="stroke: #000000; stroke-width: 0.5"/>
      </g>
     </g>
    </g>
    <g id="xtick_22">
     <g id="line2d_43">
      <g>
       <use xlink:href="#mde116d22ba" x="467.543745" y="296.941875" style="stroke: #000000; stroke-width: 0.5"/>
      </g>
     </g>
     <g id="line2d_44">
      <g>
       <use xlink:href="#m30806d4ca1" x="467.543745" y="19.741875" style="stroke: #000000; stroke-width: 0.5"/>
      </g>
     </g>
    </g>
    <g id="xtick_23">
     <g id="line2d_45">
      <g>
       <use xlink:href="#mde116d22ba" x="489.074292" y="296.941875" style="stroke: #000000; stroke-width: 0.5"/>
      </g>
     </g>
     <g id="line2d_46">
      <g>
       <use xlink:href="#m30806d4ca1" x="489.074292" y="19.741875" style="stroke: #000000; stroke-width: 0.5"/>
      </g>
     </g>
    </g>
    <g id="xtick_24">
     <g id="line2d_47">
      <g>
       <use xlink:href="#mde116d22ba" x="532.135385" y="296.941875" style="stroke: #000000; stroke-width: 0.5"/>
      </g>
     </g>
     <g id="line2d_48">
      <g>
       <use xlink:href="#m30806d4ca1" x="532.135385" y="19.741875" style="stroke: #000000; stroke-width: 0.5"/>
      </g>
     </g>
    </g>
    <g id="xtick_25">
     <g id="line2d_49">
      <g>
       <use xlink:href="#mde116d22ba" x="553.665931" y="296.941875" style="stroke: #000000; stroke-width: 0.5"/>
      </g>
     </g>
     <g id="line2d_50">
      <g>
       <use xlink:href="#m30806d4ca1" x="553.665931" y="19.741875" style="stroke: #000000; stroke-width: 0.5"/>
      </g>
     </g>
    </g>
    <g id="xtick_26">
     <g id="line2d_51">
      <g>
       <use xlink:href="#mde116d22ba" x="575.196478" y="296.941875" style="stroke: #000000; stroke-width: 0.5"/>
      </g>
     </g>
     <g id="line2d_52">
      <g>
       <use xlink:href="#m30806d4ca1" x="575.196478" y="19.741875" style="stroke: #000000; stroke-width: 0.5"/>
      </g>
     </g>
    </g>
    <g id="text_6">
     <!-- 公告日期 -->
     <g transform="translate(295.932813 320.749688)scale(0.1 -0.1)">
      <defs>
       <path id="ArialUnicodeMS-516c" d="M 2553 4934 
Q 2391 4238 1856 3447 
Q 1322 2656 703 2194 
L 325 2572 
Q 941 3003 1428 3715 
Q 1916 4428 2094 5147 
L 2553 4934 
z
M 6119 2566 
L 5741 2188 
Q 5122 2647 4587 3439 
Q 4053 4231 3891 4928 
L 4353 5141 
Q 4534 4416 5021 3705 
Q 5509 2994 6119 2566 
z
M 5472 -122 
L 4984 -347 
Q 4916 -106 4703 347 
L 2897 200 
Q 1791 122 1113 31 
L 909 563 
L 1631 622 
Q 2425 1697 2809 3169 
L 3303 3003 
Q 2875 1572 2222 647 
L 4494 800 
Q 4141 1366 3809 1678 
L 4281 1888 
Q 5069 1134 5472 -122 
z
" transform="scale(0.015625)"/>
       <path id="ArialUnicodeMS-544a" d="M 5869 2456 
L 428 2456 
L 428 2925 
L 2963 2925 
L 2963 3891 
L 1663 3891 
Q 1363 3356 991 3072 
L 588 3397 
Q 1303 3931 1575 5063 
L 2047 4947 
Q 2013 4784 1863 4359 
L 2963 4359 
L 2963 5325 
L 3450 5325 
L 3450 4359 
L 5259 4359 
L 5259 3891 
L 3450 3891 
L 3450 2925 
L 5869 2925 
L 5869 2456 
z
M 5038 -428 
L 4550 -428 
L 4550 25 
L 1772 25 
L 1772 -428 
L 1288 -428 
L 1288 2106 
L 5038 2106 
L 5038 -428 
z
M 4550 494 
L 4550 1638 
L 1772 1638 
L 1772 494 
L 4550 494 
z
" transform="scale(0.015625)"/>
       <path id="ArialUnicodeMS-65e5" d="M 5044 -178 
L 4538 -178 
L 4538 441 
L 2022 441 
L 2022 -206 
L 1516 -206 
L 1516 4781 
L 5044 4781 
L 5044 -178 
z
M 4538 2881 
L 4538 4313 
L 2022 4313 
L 2022 2881 
L 4538 2881 
z
M 4538 909 
L 4538 2413 
L 2022 2413 
L 2022 909 
L 4538 909 
z
" transform="scale(0.015625)"/>
       <path id="ArialUnicodeMS-671f" d="M 3738 1281 
L 506 1281 
L 506 1747 
L 1075 1747 
L 1075 4134 
L 531 4134 
L 531 4603 
L 1075 4603 
L 1075 5281 
L 1563 5281 
L 1563 4603 
L 2741 4603 
L 2741 5306 
L 3225 5306 
L 3225 4603 
L 3738 4603 
L 3738 4134 
L 3225 4134 
L 3225 1747 
L 3738 1747 
L 3738 1281 
z
M 2741 3688 
L 2741 4134 
L 1563 4134 
L 1563 3688 
L 2741 3688 
z
M 2741 2766 
L 2741 3219 
L 1563 3219 
L 1563 2766 
L 2741 2766 
z
M 2741 1747 
L 2741 2297 
L 1563 2297 
L 1563 1747 
L 2741 1747 
z
M 5753 366 
Q 5753 38 5672 -57 
Q 5591 -153 5489 -233 
Q 5388 -313 4697 -313 
L 4538 178 
L 5147 159 
Q 5269 159 5269 300 
L 5269 1753 
L 4331 1753 
Q 4275 494 3719 -447 
L 3284 -153 
Q 3853 716 3853 1984 
L 3853 4997 
L 5753 4997 
L 5753 366 
z
M 5269 3688 
L 5269 4531 
L 4341 4531 
L 4341 3688 
L 5269 3688 
z
M 5269 2222 
L 5269 3219 
L 4341 3219 
L 4341 2222 
L 5269 2222 
z
M 1931 934 
Q 1556 213 750 -422 
L 384 -84 
Q 1203 488 1588 1247 
L 1931 934 
z
M 3494 366 
L 3150 0 
Q 2775 566 2222 850 
L 2547 1178 
Q 3075 947 3494 366 
z
" transform="scale(0.015625)"/>
      </defs>
      <use xlink:href="#ArialUnicodeMS-516c"/>
      <use xlink:href="#ArialUnicodeMS-544a" x="100"/>
      <use xlink:href="#ArialUnicodeMS-65e5" x="200"/>
      <use xlink:href="#ArialUnicodeMS-671f" x="300"/>
     </g>
    </g>
   </g>
   <g id="matplotlib.axis_2">
    <g id="ytick_1">
     <g id="line2d_53">
      <defs>
       <path id="m1b40116b8c" d="M 0 0 
L 3 0 
" style="stroke: #000000; stroke-width: 0.5"/>
      </defs>
      <g>
       <use xlink:href="#m1b40116b8c" x="36.932813" y="284.341875" style="stroke: #000000; stroke-width: 0.5"/>
      </g>
     </g>
     <g id="line2d_54">
      <defs>
       <path id="m15ef627b87" d="M 0 0 
L -3 0 
" style="stroke: #000000; stroke-width: 0.5"/>
      </defs>
      <g>
       <use xlink:href="#m15ef627b87" x="594.932812" y="284.341875" style="stroke: #000000; stroke-width: 0.5"/>
      </g>
     </g>
     <g id="text_7">
      <!-- 0 -->
      <g transform="translate(27.871875 287.920781)scale(0.1 -0.1)">
       <use xlink:href="#ArialUnicodeMS-30"/>
      </g>
     </g>
    </g>
    <g id="ytick_2">
     <g id="line2d_55">
      <g>
       <use xlink:href="#m1b40116b8c" x="36.932813" y="243.631051" style="stroke: #000000; stroke-width: 0.5"/>
      </g>
     </g>
     <g id="line2d_56">
      <g>
       <use xlink:href="#m15ef627b87" x="594.932812" y="243.631051" style="stroke: #000000; stroke-width: 0.5"/>
      </g>
     </g>
     <g id="text_8">
      <!-- 100 -->
      <g transform="translate(16.75 247.209957)scale(0.1 -0.1)">
       <use xlink:href="#ArialUnicodeMS-31"/>
       <use xlink:href="#ArialUnicodeMS-30" x="55.615234"/>
       <use xlink:href="#ArialUnicodeMS-30" x="111.230469"/>
      </g>
     </g>
    </g>
    <g id="ytick_3">
     <g id="line2d_57">
      <g>
       <use xlink:href="#m1b40116b8c" x="36.932813" y="202.920227" style="stroke: #000000; stroke-width: 0.5"/>
      </g>
     </g>
     <g id="line2d_58">
      <g>
       <use xlink:href="#m15ef627b87" x="594.932812" y="202.920227" style="stroke: #000000; stroke-width: 0.5"/>
      </g>
     </g>
     <g id="text_9">
      <!-- 200 -->
      <g transform="translate(16.75 206.499133)scale(0.1 -0.1)">
       <use xlink:href="#ArialUnicodeMS-32"/>
       <use xlink:href="#ArialUnicodeMS-30" x="55.615234"/>
       <use xlink:href="#ArialUnicodeMS-30" x="111.230469"/>
      </g>
     </g>
    </g>
    <g id="ytick_4">
     <g id="line2d_59">
      <g>
       <use xlink:href="#m1b40116b8c" x="36.932813" y="162.209403" style="stroke: #000000; stroke-width: 0.5"/>
      </g>
     </g>
     <g id="line2d_60">
      <g>
       <use xlink:href="#m15ef627b87" x="594.932812" y="162.209403" style="stroke: #000000; stroke-width: 0.5"/>
      </g>
     </g>
     <g id="text_10">
      <!-- 300 -->
      <g transform="translate(16.75 165.78831)scale(0.1 -0.1)">
       <defs>
        <path id="ArialUnicodeMS-33" d="M 2425 2478 
Q 2850 2397 3067 2067 
Q 3284 1738 3284 1350 
Q 3284 725 2829 323 
Q 2375 -78 1741 -78 
Q 1134 -78 740 275 
Q 347 628 281 1209 
L 844 1288 
Q 928 834 1151 609 
Q 1375 384 1741 384 
Q 2134 384 2407 661 
Q 2681 938 2681 1338 
Q 2681 1722 2432 1975 
Q 2184 2228 1784 2228 
Q 1622 2228 1388 2169 
L 1453 2663 
Q 1678 2663 1809 2684 
Q 1941 2706 2103 2790 
Q 2266 2875 2372 3033 
Q 2478 3191 2478 3425 
Q 2478 3766 2251 3953 
Q 2025 4141 1728 4141 
Q 1388 4141 1173 3925 
Q 959 3709 903 3309 
L 341 3413 
Q 450 4009 823 4306 
Q 1197 4603 1716 4603 
Q 2288 4603 2670 4258 
Q 3053 3913 3053 3413 
Q 3053 2772 2425 2491 
L 2425 2478 
z
" transform="scale(0.015625)"/>
       </defs>
       <use xlink:href="#ArialUnicodeMS-33"/>
       <use xlink:href="#ArialUnicodeMS-30" x="55.615234"/>
       <use xlink:href="#ArialUnicodeMS-30" x="111.230469"/>
      </g>
     </g>
    </g>
    <g id="ytick_5">
     <g id="line2d_61">
      <g>
       <use xlink:href="#m1b40116b8c" x="36.932813" y="121.498579" style="stroke: #000000; stroke-width: 0.5"/>
      </g>
     </g>
     <g id="line2d_62">
      <g>
       <use xlink:href="#m15ef627b87" x="594.932812" y="121.498579" style="stroke: #000000; stroke-width: 0.5"/>
      </g>
     </g>
     <g id="text_11">
      <!-- 400 -->
      <g transform="translate(16.75 125.077486)scale(0.1 -0.1)">
       <use xlink:href="#ArialUnicodeMS-34"/>
       <use xlink:href="#ArialUnicodeMS-30" x="55.615234"/>
       <use xlink:href="#ArialUnicodeMS-30" x="111.230469"/>
      </g>
     </g>
    </g>
    <g id="ytick_6">
     <g id="line2d_63">
      <g>
       <use xlink:href="#m1b40116b8c" x="36.932813" y="80.787755" style="stroke: #000000; stroke-width: 0.5"/>
      </g>
     </g>
     <g id="line2d_64">
      <g>
       <use xlink:href="#m15ef627b87" x="594.932812" y="80.787755" style="stroke: #000000; stroke-width: 0.5"/>
      </g>
     </g>
     <g id="text_12">
      <!-- 500 -->
      <g transform="translate(16.75 84.366662)scale(0.1 -0.1)">
       <defs>
        <path id="ArialUnicodeMS-35" d="M 1013 2753 
Q 1431 3041 1881 3041 
Q 2453 3041 2878 2636 
Q 3303 2231 3303 1556 
Q 3303 875 2872 398 
Q 2441 -78 1741 -78 
Q 1169 -78 750 245 
Q 331 569 269 1203 
L 856 1247 
Q 928 813 1162 598 
Q 1397 384 1741 384 
Q 2169 384 2434 707 
Q 2700 1031 2700 1503 
Q 2700 1984 2428 2262 
Q 2156 2541 1728 2541 
Q 1188 2541 897 2100 
L 366 2163 
L 813 4519 
L 3084 4519 
L 3084 3975 
L 1259 3975 
L 1013 2753 
z
" transform="scale(0.015625)"/>
       </defs>
       <use xlink:href="#ArialUnicodeMS-35"/>
       <use xlink:href="#ArialUnicodeMS-30" x="55.615234"/>
       <use xlink:href="#ArialUnicodeMS-30" x="111.230469"/>
      </g>
     </g>
    </g>
    <g id="ytick_7">
     <g id="line2d_65">
      <g>
       <use xlink:href="#m1b40116b8c" x="36.932813" y="40.076932" style="stroke: #000000; stroke-width: 0.5"/>
      </g>
     </g>
     <g id="line2d_66">
      <g>
       <use xlink:href="#m15ef627b87" x="594.932812" y="40.076932" style="stroke: #000000; stroke-width: 0.5"/>
      </g>
     </g>
     <g id="text_13">
      <!-- 600 -->
      <g transform="translate(16.75 43.655838)scale(0.1 -0.1)">
       <defs>
        <path id="ArialUnicodeMS-36" d="M 838 2363 
Q 1225 2969 1941 2969 
Q 2503 2969 2897 2553 
Q 3291 2138 3291 1491 
Q 3291 838 2898 380 
Q 2506 -78 1856 -78 
Q 1197 -78 733 409 
Q 269 897 269 2144 
Q 269 3369 689 3986 
Q 1109 4603 1906 4603 
Q 2422 4603 2778 4315 
Q 3134 4028 3213 3463 
L 2650 3413 
Q 2497 4141 1875 4141 
Q 1444 4141 1134 3712 
Q 825 3284 825 2363 
L 838 2363 
z
M 1844 384 
Q 2231 384 2472 696 
Q 2713 1009 2713 1453 
Q 2713 1897 2472 2187 
Q 2231 2478 1825 2478 
Q 1453 2478 1184 2204 
Q 916 1931 916 1484 
Q 916 1028 1180 706 
Q 1444 384 1844 384 
z
" transform="scale(0.015625)"/>
       </defs>
       <use xlink:href="#ArialUnicodeMS-36"/>
       <use xlink:href="#ArialUnicodeMS-30" x="55.615234"/>
       <use xlink:href="#ArialUnicodeMS-30" x="111.230469"/>
      </g>
     </g>
    </g>
    <g id="ytick_8">
     <g id="line2d_67">
      <defs>
       <path id="mcd41a02765" d="M 0 0 
L 1.5 0 
" style="stroke: #000000; stroke-width: 0.5"/>
      </defs>
      <g>
       <use xlink:href="#mcd41a02765" x="36.932813" y="292.48404" style="stroke: #000000; stroke-width: 0.5"/>
      </g>
     </g>
     <g id="line2d_68">
      <defs>
       <path id="m845c22f957" d="M 0 0 
L -1.5 0 
" style="stroke: #000000; stroke-width: 0.5"/>
      </defs>
      <g>
       <use xlink:href="#m845c22f957" x="594.932812" y="292.48404" style="stroke: #000000; stroke-width: 0.5"/>
      </g>
     </g>
    </g>
    <g id="ytick_9">
     <g id="line2d_69">
      <g>
       <use xlink:href="#mcd41a02765" x="36.932813" y="276.19971" style="stroke: #000000; stroke-width: 0.5"/>
      </g>
     </g>
     <g id="line2d_70">
      <g>
       <use xlink:href="#m845c22f957" x="594.932812" y="276.19971" style="stroke: #000000; stroke-width: 0.5"/>
      </g>
     </g>
    </g>
    <g id="ytick_10">
     <g id="line2d_71">
      <g>
       <use xlink:href="#mcd41a02765" x="36.932813" y="268.057545" style="stroke: #000000; stroke-width: 0.5"/>
      </g>
     </g>
     <g id="line2d_72">
      <g>
       <use xlink:href="#m845c22f957" x="594.932812" y="268.057545" style="stroke: #000000; stroke-width: 0.5"/>
      </g>
     </g>
    </g>
    <g id="ytick_11">
     <g id="line2d_73">
      <g>
       <use xlink:href="#mcd41a02765" x="36.932813" y="259.915381" style="stroke: #000000; stroke-width: 0.5"/>
      </g>
     </g>
     <g id="line2d_74">
      <g>
       <use xlink:href="#m845c22f957" x="594.932812" y="259.915381" style="stroke: #000000; stroke-width: 0.5"/>
      </g>
     </g>
    </g>
    <g id="ytick_12">
     <g id="line2d_75">
      <g>
       <use xlink:href="#mcd41a02765" x="36.932813" y="251.773216" style="stroke: #000000; stroke-width: 0.5"/>
      </g>
     </g>
     <g id="line2d_76">
      <g>
       <use xlink:href="#m845c22f957" x="594.932812" y="251.773216" style="stroke: #000000; stroke-width: 0.5"/>
      </g>
     </g>
    </g>
    <g id="ytick_13">
     <g id="line2d_77">
      <g>
       <use xlink:href="#mcd41a02765" x="36.932813" y="235.488886" style="stroke: #000000; stroke-width: 0.5"/>
      </g>
     </g>
     <g id="line2d_78">
      <g>
       <use xlink:href="#m845c22f957" x="594.932812" y="235.488886" style="stroke: #000000; stroke-width: 0.5"/>
      </g>
     </g>
    </g>
    <g id="ytick_14">
     <g id="line2d_79">
      <g>
       <use xlink:href="#mcd41a02765" x="36.932813" y="227.346722" style="stroke: #000000; stroke-width: 0.5"/>
      </g>
     </g>
     <g id="line2d_80">
      <g>
       <use xlink:href="#m845c22f957" x="594.932812" y="227.346722" style="stroke: #000000; stroke-width: 0.5"/>
      </g>
     </g>
    </g>
    <g id="ytick_15">
     <g id="line2d_81">
      <g>
       <use xlink:href="#mcd41a02765" x="36.932813" y="219.204557" style="stroke: #000000; stroke-width: 0.5"/>
      </g>
     </g>
     <g id="line2d_82">
      <g>
       <use xlink:href="#m845c22f957" x="594.932812" y="219.204557" style="stroke: #000000; stroke-width: 0.5"/>
      </g>
     </g>
    </g>
    <g id="ytick_16">
     <g id="line2d_83">
      <g>
       <use xlink:href="#mcd41a02765" x="36.932813" y="211.062392" style="stroke: #000000; stroke-width: 0.5"/>
      </g>
     </g>
     <g id="line2d_84">
      <g>
       <use xlink:href="#m845c22f957" x="594.932812" y="211.062392" style="stroke: #000000; stroke-width: 0.5"/>
      </g>
     </g>
    </g>
    <g id="ytick_17">
     <g id="line2d_85">
      <g>
       <use xlink:href="#mcd41a02765" x="36.932813" y="194.778062" style="stroke: #000000; stroke-width: 0.5"/>
      </g>
     </g>
     <g id="line2d_86">
      <g>
       <use xlink:href="#m845c22f957" x="594.932812" y="194.778062" style="stroke: #000000; stroke-width: 0.5"/>
      </g>
     </g>
    </g>
    <g id="ytick_18">
     <g id="line2d_87">
      <g>
       <use xlink:href="#mcd41a02765" x="36.932813" y="186.635898" style="stroke: #000000; stroke-width: 0.5"/>
      </g>
     </g>
     <g id="line2d_88">
      <g>
       <use xlink:href="#m845c22f957" x="594.932812" y="186.635898" style="stroke: #000000; stroke-width: 0.5"/>
      </g>
     </g>
    </g>
    <g id="ytick_19">
     <g id="line2d_89">
      <g>
       <use xlink:href="#mcd41a02765" x="36.932813" y="178.493733" style="stroke: #000000; stroke-width: 0.5"/>
      </g>
     </g>
     <g id="line2d_90">
      <g>
       <use xlink:href="#m845c22f957" x="594.932812" y="178.493733" style="stroke: #000000; stroke-width: 0.5"/>
      </g>
     </g>
    </g>
    <g id="ytick_20">
     <g id="line2d_91">
      <g>
       <use xlink:href="#mcd41a02765" x="36.932813" y="170.351568" style="stroke: #000000; stroke-width: 0.5"/>
      </g>
     </g>
     <g id="line2d_92">
      <g>
       <use xlink:href="#m845c22f957" x="594.932812" y="170.351568" style="stroke: #000000; stroke-width: 0.5"/>
      </g>
     </g>
    </g>
    <g id="ytick_21">
     <g id="line2d_93">
      <g>
       <use xlink:href="#mcd41a02765" x="36.932813" y="154.067238" style="stroke: #000000; stroke-width: 0.5"/>
      </g>
     </g>
     <g id="line2d_94">
      <g>
       <use xlink:href="#m845c22f957" x="594.932812" y="154.067238" style="stroke: #000000; stroke-width: 0.5"/>
      </g>
     </g>
    </g>
    <g id="ytick_22">
     <g id="line2d_95">
      <g>
       <use xlink:href="#mcd41a02765" x="36.932813" y="145.925074" style="stroke: #000000; stroke-width: 0.5"/>
      </g>
     </g>
     <g id="line2d_96">
      <g>
       <use xlink:href="#m845c22f957" x="594.932812" y="145.925074" style="stroke: #000000; stroke-width: 0.5"/>
      </g>
     </g>
    </g>
    <g id="ytick_23">
     <g id="line2d_97">
      <g>
       <use xlink:href="#mcd41a02765" x="36.932813" y="137.782909" style="stroke: #000000; stroke-width: 0.5"/>
      </g>
     </g>
     <g id="line2d_98">
      <g>
       <use xlink:href="#m845c22f957" x="594.932812" y="137.782909" style="stroke: #000000; stroke-width: 0.5"/>
      </g>
     </g>
    </g>
    <g id="ytick_24">
     <g id="line2d_99">
      <g>
       <use xlink:href="#mcd41a02765" x="36.932813" y="129.640744" style="stroke: #000000; stroke-width: 0.5"/>
      </g>
     </g>
     <g id="line2d_100">
      <g>
       <use xlink:href="#m845c22f957" x="594.932812" y="129.640744" style="stroke: #000000; stroke-width: 0.5"/>
      </g>
     </g>
    </g>
    <g id="ytick_25">
     <g id="line2d_101">
      <g>
       <use xlink:href="#mcd41a02765" x="36.932813" y="113.356415" style="stroke: #000000; stroke-width: 0.5"/>
      </g>
     </g>
     <g id="line2d_102">
      <g>
       <use xlink:href="#m845c22f957" x="594.932812" y="113.356415" style="stroke: #000000; stroke-width: 0.5"/>
      </g>
     </g>
    </g>
    <g id="ytick_26">
     <g id="line2d_103">
      <g>
       <use xlink:href="#mcd41a02765" x="36.932813" y="105.21425" style="stroke: #000000; stroke-width: 0.5"/>
      </g>
     </g>
     <g id="line2d_104">
      <g>
       <use xlink:href="#m845c22f957" x="594.932812" y="105.21425" style="stroke: #000000; stroke-width: 0.5"/>
      </g>
     </g>
    </g>
    <g id="ytick_27">
     <g id="line2d_105">
      <g>
       <use xlink:href="#mcd41a02765" x="36.932813" y="97.072085" style="stroke: #000000; stroke-width: 0.5"/>
      </g>
     </g>
     <g id="line2d_106">
      <g>
       <use xlink:href="#m845c22f957" x="594.932812" y="97.072085" style="stroke: #000000; stroke-width: 0.5"/>
      </g>
     </g>
    </g>
    <g id="ytick_28">
     <g id="line2d_107">
      <g>
       <use xlink:href="#mcd41a02765" x="36.932813" y="88.92992" style="stroke: #000000; stroke-width: 0.5"/>
      </g>
     </g>
     <g id="line2d_108">
      <g>
       <use xlink:href="#m845c22f957" x="594.932812" y="88.92992" style="stroke: #000000; stroke-width: 0.5"/>
      </g>
     </g>
    </g>
    <g id="ytick_29">
     <g id="line2d_109">
      <g>
       <use xlink:href="#mcd41a02765" x="36.932813" y="72.645591" style="stroke: #000000; stroke-width: 0.5"/>
      </g>
     </g>
     <g id="line2d_110">
      <g>
       <use xlink:href="#m845c22f957" x="594.932812" y="72.645591" style="stroke: #000000; stroke-width: 0.5"/>
      </g>
     </g>
    </g>
    <g id="ytick_30">
     <g id="line2d_111">
      <g>
       <use xlink:href="#mcd41a02765" x="36.932813" y="64.503426" style="stroke: #000000; stroke-width: 0.5"/>
      </g>
     </g>
     <g id="line2d_112">
      <g>
       <use xlink:href="#m845c22f957" x="594.932812" y="64.503426" style="stroke: #000000; stroke-width: 0.5"/>
      </g>
     </g>
    </g>
    <g id="ytick_31">
     <g id="line2d_113">
      <g>
       <use xlink:href="#mcd41a02765" x="36.932813" y="56.361261" style="stroke: #000000; stroke-width: 0.5"/>
      </g>
     </g>
     <g id="line2d_114">
      <g>
       <use xlink:href="#m845c22f957" x="594.932812" y="56.361261" style="stroke: #000000; stroke-width: 0.5"/>
      </g>
     </g>
    </g>
    <g id="ytick_32">
     <g id="line2d_115">
      <g>
       <use xlink:href="#mcd41a02765" x="36.932813" y="48.219096" style="stroke: #000000; stroke-width: 0.5"/>
      </g>
     </g>
     <g id="line2d_116">
      <g>
       <use xlink:href="#m845c22f957" x="594.932812" y="48.219096" style="stroke: #000000; stroke-width: 0.5"/>
      </g>
     </g>
    </g>
    <g id="ytick_33">
     <g id="line2d_117">
      <g>
       <use xlink:href="#mcd41a02765" x="36.932813" y="31.934767" style="stroke: #000000; stroke-width: 0.5"/>
      </g>
     </g>
     <g id="line2d_118">
      <g>
       <use xlink:href="#m845c22f957" x="594.932812" y="31.934767" style="stroke: #000000; stroke-width: 0.5"/>
      </g>
     </g>
    </g>
    <g id="ytick_34">
     <g id="line2d_119">
      <g>
       <use xlink:href="#mcd41a02765" x="36.932813" y="23.792602" style="stroke: #000000; stroke-width: 0.5"/>
      </g>
     </g>
     <g id="line2d_120">
      <g>
       <use xlink:href="#m845c22f957" x="594.932812" y="23.792602" style="stroke: #000000; stroke-width: 0.5"/>
      </g>
     </g>
    </g>
    <g id="text_14">
     <!-- 月度违规量 -->
     <g transform="translate(10.757813 183.341875)rotate(-90)scale(0.1 -0.1)">
      <defs>
       <path id="ArialUnicodeMS-6708" d="M 5044 206 
Q 5044 -19 4897 -150 
Q 4750 -281 4500 -281 
L 3725 -281 
L 3531 231 
L 4359 206 
Q 4519 197 4519 341 
L 4519 1594 
L 2363 1594 
Q 2119 463 941 -488 
L 550 -91 
Q 1172 356 1520 920 
Q 1869 1484 1869 2053 
L 1869 5013 
L 5044 5013 
L 5044 206 
z
M 4519 3541 
L 4519 4544 
L 2375 4544 
L 2375 3541 
L 4519 3541 
z
M 4519 2059 
L 4519 3072 
L 2388 3072 
L 2375 2059 
L 4519 2059 
z
" transform="scale(0.015625)"/>
       <path id="ArialUnicodeMS-5ea6" d="M 5913 4269 
L 1363 4269 
L 1363 2278 
Q 1363 1144 1180 528 
Q 997 -88 684 -434 
L 294 -147 
Q 669 378 773 940 
Q 878 1503 878 2350 
L 878 4738 
L 3200 4738 
L 3200 5288 
L 3706 5288 
L 3706 4738 
L 5913 4738 
L 5913 4269 
z
M 5778 3194 
L 4728 3194 
L 4728 2303 
L 2350 2303 
L 2350 3194 
L 1472 3194 
L 1472 3659 
L 2350 3659 
L 2350 4147 
L 2828 4147 
L 2828 3659 
L 4244 3659 
L 4244 4147 
L 4728 4147 
L 4728 3659 
L 5778 3659 
L 5778 3194 
z
M 4244 2747 
L 4244 3194 
L 2834 3194 
L 2834 2747 
L 4244 2747 
z
M 6081 72 
L 5819 -397 
Q 4484 -216 3531 263 
Q 2494 -234 1388 -397 
L 1088 44 
Q 2078 134 3034 550 
Q 2509 934 2113 1528 
L 1625 1528 
L 1625 1972 
L 5159 1972 
L 5159 1544 
Q 4819 1025 4044 538 
Q 4963 166 6081 72 
z
M 4544 1528 
L 2700 1528 
Q 3125 1038 3531 781 
Q 4194 1159 4544 1528 
z
" transform="scale(0.015625)"/>
       <path id="ArialUnicodeMS-8fdd" d="M 5703 2741 
Q 5653 1341 5481 1053 
Q 5309 766 4844 766 
Q 4619 766 4313 825 
L 4219 1356 
Q 4663 1234 4934 1234 
Q 4991 1234 5075 1319 
Q 5166 1663 5216 2272 
L 3781 2272 
L 3781 525 
L 3297 525 
L 3297 2272 
L 1856 2272 
L 1856 2741 
L 3297 2741 
L 3297 3263 
L 2088 3263 
L 2088 3706 
L 3297 3706 
L 3297 4091 
L 1972 4091 
L 1972 4556 
L 3297 4556 
L 3297 5222 
L 3781 5222 
L 3781 4556 
L 5344 4556 
L 5344 4091 
L 3781 4091 
L 3781 3706 
L 5228 3706 
L 5228 3263 
L 3781 3263 
L 3781 2741 
L 5703 2741 
z
M 1881 4128 
L 1434 3828 
Q 1131 4497 641 4891 
Q 863 5025 1013 5166 
Q 1606 4641 1881 4128 
z
M 6003 359 
L 5813 -141 
L 2828 -141 
Q 2456 -141 2061 54 
Q 1666 250 1466 556 
L 622 -313 
L 263 78 
Q 578 300 1178 947 
L 1178 2759 
L 409 2759 
L 409 3225 
L 1663 3225 
L 1663 991 
Q 1828 681 2298 490 
Q 2769 300 3250 300 
L 5325 300 
Q 5666 300 6003 359 
z
" transform="scale(0.015625)"/>
       <path id="ArialUnicodeMS-89c4" d="M 2759 2547 
L 1881 2547 
Q 1725 875 519 -313 
L 166 44 
Q 1244 1166 1416 2547 
L 300 2547 
L 300 2988 
L 1422 2988 
Q 1428 3106 1428 3272 
L 1422 3859 
L 481 3859 
L 481 4325 
L 1416 4325 
L 1416 5288 
L 1900 5288 
L 1900 4325 
L 2694 4325 
L 2694 3859 
L 1913 3859 
L 1913 2988 
L 2759 2988 
L 2759 2547 
z
M 5422 1453 
L 4966 1453 
L 4966 4603 
L 3322 4603 
L 3322 1453 
L 2869 1453 
L 2869 5044 
L 5422 5044 
L 5422 1453 
z
M 4409 4250 
Q 4281 1875 3723 1014 
Q 3166 153 1863 -359 
L 1569 63 
Q 2769 494 3270 1201 
Q 3772 1909 3963 4313 
L 4409 4250 
z
M 2925 966 
L 2541 684 
Q 2181 1431 1797 1747 
L 2150 2003 
Q 2616 1631 2925 966 
z
M 5966 800 
Q 5763 -97 5428 -97 
L 4684 -97 
Q 4438 -97 4280 39 
Q 4122 175 4122 341 
L 4122 1966 
L 4609 1966 
L 4609 384 
Q 4634 347 4653 347 
L 5344 347 
Q 5494 416 5556 966 
L 5966 800 
z
" transform="scale(0.015625)"/>
       <path id="ArialUnicodeMS-91cf" d="M 5056 3378 
L 1313 3378 
L 1313 5050 
L 5056 5050 
L 5056 3378 
z
M 4569 4403 
L 4569 4609 
L 1797 4609 
L 1797 4403 
L 4569 4403 
z
M 4569 3794 
L 4569 4031 
L 1797 4031 
L 1797 3794 
L 4569 3794 
z
M 5797 2816 
L 581 2816 
L 581 3231 
L 5797 3231 
L 5797 2816 
z
M 6059 -191 
L 341 -191 
L 341 275 
L 2950 275 
L 2950 459 
L 897 459 
L 897 878 
L 2950 878 
L 2950 1044 
L 1125 1044 
L 1125 2669 
L 5269 2669 
L 5269 1044 
L 3438 1044 
L 3438 878 
L 5509 878 
L 5509 459 
L 3438 459 
L 3438 275 
L 6059 275 
L 6059 -191 
z
M 4781 2053 
L 4781 2253 
L 3438 2253 
L 3438 2053 
L 4781 2053 
z
M 2950 2053 
L 2950 2253 
L 1613 2253 
L 1613 2053 
L 2950 2053 
z
M 4781 1459 
L 4781 1697 
L 3438 1697 
L 3438 1459 
L 4781 1459 
z
M 2950 1459 
L 2950 1697 
L 1613 1697 
L 1613 1459 
L 2950 1459 
z
" transform="scale(0.015625)"/>
      </defs>
      <use xlink:href="#ArialUnicodeMS-6708"/>
      <use xlink:href="#ArialUnicodeMS-5ea6" x="100"/>
      <use xlink:href="#ArialUnicodeMS-8fdd" x="200"/>
      <use xlink:href="#ArialUnicodeMS-89c4" x="300"/>
      <use xlink:href="#ArialUnicodeMS-91cf" x="400"/>
     </g>
    </g>
   </g>
   <g id="line2d_121">
    <path d="M 36.932812 283.934767 
L 38.727025 284.341875 
L 74.611269 284.341875 
L 76.405481 278.235251 
L 78.199694 284.341875 
L 90.759179 284.341875 
L 92.553391 281.085009 
L 94.347603 284.341875 
L 96.141816 284.341875 
L 97.936028 280.270793 
L 99.73024 280.270793 
L 101.524452 281.492117 
L 103.318665 281.492117 
L 105.112877 284.341875 
L 106.907089 284.341875 
L 108.701301 282.306334 
L 110.495513 284.341875 
L 114.083938 284.341875 
L 115.87815 279.049468 
L 117.672362 284.341875 
L 119.466575 284.341875 
L 121.260787 282.306334 
L 123.054999 284.341875 
L 124.849211 284.341875 
L 126.643423 281.899226 
L 128.437636 284.341875 
L 130.231848 283.934767 
L 132.02606 284.341875 
L 133.820272 284.341875 
L 135.614485 271.72152 
L 137.408697 266.836221 
L 139.202909 275.792602 
L 140.997121 264.393571 
L 142.791333 279.456576 
L 144.585546 284.341875 
L 146.379758 279.863684 
L 148.17397 283.934767 
L 149.968182 279.049468 
L 151.762394 279.049468 
L 153.556607 284.341875 
L 155.350819 277.421035 
L 157.145031 283.934767 
L 158.939243 282.713442 
L 160.733456 279.456576 
L 162.527668 284.341875 
L 169.704517 284.341875 
L 171.498729 270.907303 
L 173.292941 279.049468 
L 175.087153 272.942844 
L 176.881366 263.579355 
L 178.675578 276.606818 
L 180.46979 272.128628 
L 182.264002 284.341875 
L 184.058214 284.341875 
L 185.852427 272.535736 
L 187.646639 283.527659 
L 189.440851 278.64236 
L 191.235063 284.341875 
L 193.029276 283.527659 
L 194.823488 268.871762 
L 196.6177 262.765138 
L 198.411912 253.401649 
L 200.206124 274.571277 
L 202.000337 272.942844 
L 203.794549 268.057545 
L 205.588761 276.19971 
L 207.382973 279.049468 
L 209.177185 274.164169 
L 210.971398 284.341875 
L 212.76561 263.579355 
L 214.559822 274.978386 
L 216.354034 254.215865 
L 218.148247 254.215865 
L 219.942459 281.492117 
L 221.736671 266.836221 
L 223.530883 263.986463 
L 225.325095 284.341875 
L 227.119308 281.085009 
L 228.91352 272.535736 
L 230.707732 274.164169 
L 232.501944 277.828143 
L 234.296157 263.579355 
L 236.090369 279.863684 
L 237.884581 276.606818 
L 239.678793 262.35803 
L 241.473005 283.12055 
L 243.267218 282.713442 
L 245.06143 283.527659 
L 246.855642 282.713442 
L 248.649854 264.80068 
L 250.444067 274.164169 
L 252.238279 271.314411 
L 254.032491 276.606818 
L 255.826703 257.472731 
L 257.620915 270.500195 
L 259.415128 262.35803 
L 261.20934 272.128628 
L 263.003552 265.207788 
L 264.797764 274.571277 
L 266.591976 277.421035 
L 268.386189 277.421035 
L 270.180401 282.713442 
L 271.974613 281.085009 
L 273.768825 266.022004 
L 275.563038 284.341875 
L 277.35725 280.270793 
L 279.151462 256.251407 
L 280.945674 251.366108 
L 282.739886 274.978386 
L 284.534099 268.464654 
L 286.328311 270.500195 
L 288.122523 283.12055 
L 289.916735 281.492117 
L 291.710948 268.464654 
L 293.50516 275.385494 
L 295.299372 281.085009 
L 297.093584 274.978386 
L 298.887796 270.500195 
L 302.476221 278.64236 
L 304.270433 275.385494 
L 306.064645 277.013927 
L 307.858858 277.421035 
L 309.65307 273.349953 
L 311.447282 279.863684 
L 313.241494 277.421035 
L 315.035706 273.757061 
L 316.829919 277.013927 
L 318.624131 263.172247 
L 320.418343 279.456576 
L 322.212555 264.80068 
L 324.006767 279.049468 
L 325.80098 278.64236 
L 327.595192 263.172247 
L 329.389404 274.571277 
L 331.183616 265.207788 
L 332.977829 270.500195 
L 334.772041 280.677901 
L 336.566253 272.942844 
L 338.360465 268.871762 
L 340.154677 269.685978 
L 341.94889 281.085009 
L 343.743102 270.093087 
L 345.537314 278.235251 
L 347.331526 271.314411 
L 349.125739 279.049468 
L 350.919951 262.765138 
L 352.714163 243.223943 
L 354.508375 275.792602 
L 358.0968 269.27887 
L 359.891012 262.35803 
L 361.685224 281.085009 
L 363.479436 275.792602 
L 365.273649 280.270793 
L 367.067861 266.429112 
L 368.862073 268.871762 
L 370.656285 277.013927 
L 372.450497 273.349953 
L 374.24471 263.579355 
L 376.038922 272.942844 
L 377.833134 271.72152 
L 379.627346 265.207788 
L 381.421558 272.942844 
L 383.215771 265.207788 
L 385.009983 259.915381 
L 386.804195 279.863684 
L 388.598407 271.314411 
L 390.39262 266.836221 
L 392.186832 274.164169 
L 393.981044 280.270793 
L 395.775256 250.144783 
L 397.569468 262.35803 
L 399.363681 268.464654 
L 401.157893 273.757061 
L 402.952105 268.057545 
L 404.746317 269.685978 
L 406.54053 273.349953 
L 408.334742 271.314411 
L 410.128954 269.685978 
L 411.923166 258.286948 
L 413.717378 250.551891 
L 415.511591 259.915381 
L 417.305803 268.057545 
L 419.100015 266.022004 
L 420.894227 259.508272 
L 422.68844 246.073701 
L 424.482652 268.871762 
L 426.276864 256.251407 
L 428.071076 268.057545 
L 429.865288 263.172247 
L 431.659501 282.306334 
L 433.453713 252.587432 
L 435.247925 276.19971 
L 437.042137 256.251407 
L 438.836349 251.773216 
L 440.630562 273.757061 
L 442.424774 252.994541 
L 444.218986 235.895995 
L 446.013198 262.765138 
L 447.807411 259.508272 
L 449.601623 239.967077 
L 451.395835 253.401649 
L 453.190047 222.054314 
L 454.984259 180.122166 
L 456.778472 244.852376 
L 458.572684 244.445268 
L 460.366896 243.223943 
L 462.161108 260.322489 
L 463.955321 239.15286 
L 465.749533 255.030082 
L 467.543745 256.251407 
L 469.337957 241.59551 
L 471.132169 244.445268 
L 472.926382 261.136705 
L 474.720594 220.425881 
L 476.514806 201.291794 
L 478.309018 244.852376 
L 480.103231 240.374185 
L 481.897443 233.453345 
L 483.691655 255.844298 
L 485.485867 210.248175 
L 487.280079 171.572893 
L 489.074292 185.414573 
L 490.868504 225.31118 
L 492.662716 249.737675 
L 494.456928 241.59551 
L 496.25114 230.603587 
L 498.045353 202.513119 
L 499.839565 198.034928 
L 501.633777 193.963846 
L 503.427989 210.655284 
L 505.222202 232.23202 
L 507.016414 123.534121 
L 508.810626 99.921843 
L 510.604838 158.952537 
L 512.39905 224.904072 
L 514.193263 237.524428 
L 515.987475 218.797449 
L 517.781687 208.212634 
L 519.575899 204.141552 
L 521.370112 206.584201 
L 523.164324 190.299872 
L 524.958536 141.039775 
L 526.752748 174.829759 
L 528.54696 169.94446 
L 530.341173 109.285332 
L 532.135385 213.91215 
L 533.929597 243.223943 
L 535.723809 195.185171 
L 537.518022 177.272408 
L 539.312234 187.450114 
L 541.106446 163.837836 
L 542.900658 157.324104 
L 544.69487 176.458192 
L 546.489083 164.652053 
L 548.283295 188.264331 
L 550.077507 158.952537 
L 551.871719 60.839452 
L 555.460144 222.054314 
L 557.254356 202.513119 
L 559.048568 171.572893 
L 560.84278 205.362877 
L 562.636993 179.307949 
L 564.431205 160.173862 
L 566.225417 143.482424 
L 568.019629 163.02362 
L 569.813841 164.652053 
L 571.608054 68.574508 
L 573.402266 37.634282 
L 575.196478 32.341875 
L 576.99069 183.78614 
L 578.784903 171.572893 
L 580.579115 121.905688 
L 582.373327 135.340259 
L 584.167539 112.542198 
L 585.961751 100.328951 
L 587.755964 99.921843 
L 589.550176 89.337028 
L 591.344388 196.406495 
L 593.1386 70.610049 
L 594.932812 144.703749 
L 594.932812 144.703749 
" clip-path="url(#p1cff6758cb)" style="fill: none; stroke: #0c5da5; stroke-linecap: square"/>
   </g>
   <g id="patch_3">
    <path d="M 36.932813 296.941875 
L 36.932813 19.741875 
" style="fill: none; stroke: #000000; stroke-width: 0.5; stroke-linejoin: miter; stroke-linecap: square"/>
   </g>
   <g id="patch_4">
    <path d="M 594.932812 296.941875 
L 594.932812 19.741875 
" style="fill: none; stroke: #000000; stroke-width: 0.5; stroke-linejoin: miter; stroke-linecap: square"/>
   </g>
   <g id="patch_5">
    <path d="M 36.932812 296.941875 
L 594.932812 296.941875 
" style="fill: none; stroke: #000000; stroke-width: 0.5; stroke-linejoin: miter; stroke-linecap: square"/>
   </g>
   <g id="patch_6">
    <path d="M 36.932812 19.741875 
L 594.932812 19.741875 
" style="fill: none; stroke: #000000; stroke-width: 0.5; stroke-linejoin: miter; stroke-linecap: square"/>
   </g>
   <g id="text_15">
    <!-- 月度上市公司高管违规量(1997-2022) -->
    <g transform="translate(217.246875 13.741875)scale(0.12 -0.12)">
     <defs>
      <path id="ArialUnicodeMS-4e0a" d="M 5931 63 
L 588 63 
L 588 531 
L 2688 531 
L 2688 5209 
L 3175 5209 
L 3175 3353 
L 5369 3353 
L 5369 2888 
L 3175 2888 
L 3175 531 
L 5931 531 
L 5931 63 
z
" transform="scale(0.015625)"/>
      <path id="ArialUnicodeMS-5e02" d="M 5941 4013 
L 3431 4013 
L 3431 3156 
L 5228 3156 
L 5228 884 
Q 5228 325 4716 325 
L 4141 325 
L 3975 819 
L 4544 794 
Q 4744 784 4744 953 
L 4744 2688 
L 3438 2688 
L 3438 -434 
L 2950 -434 
L 2950 2688 
L 1697 2688 
L 1697 225 
L 1203 225 
L 1203 3156 
L 2950 3156 
L 2950 4013 
L 459 4013 
L 459 4481 
L 2944 4481 
L 2944 5288 
L 3431 5288 
L 3431 4481 
L 5941 4481 
L 5941 4013 
z
" transform="scale(0.015625)"/>
      <path id="ArialUnicodeMS-53f8" d="M 5672 141 
Q 5672 -403 5025 -403 
L 4391 -403 
L 4225 134 
Q 4453 103 5006 103 
Q 5166 103 5166 263 
L 5166 4569 
L 1025 4569 
L 1025 5056 
L 5672 5056 
L 5672 141 
z
M 4831 3444 
L 709 3444 
L 709 3928 
L 4831 3928 
L 4831 3444 
z
M 4147 453 
L 3641 453 
L 3641 909 
L 1931 909 
L 1931 434 
L 1428 434 
L 1428 2816 
L 4147 2816 
L 4147 453 
z
M 3641 1375 
L 3641 2350 
L 1931 2350 
L 1931 1375 
L 3641 1375 
z
" transform="scale(0.015625)"/>
      <path id="ArialUnicodeMS-9ad8" d="M 5863 4313 
L 653 4313 
L 653 4781 
L 2956 4781 
L 2956 5300 
L 3444 5300 
L 3444 4781 
L 5863 4781 
L 5863 4313 
z
M 4775 2747 
L 1625 2747 
L 1625 4038 
L 4775 4038 
L 4775 2747 
z
M 4288 3572 
L 2113 3572 
L 2113 3213 
L 4281 3213 
L 4288 3572 
z
M 5563 213 
Q 5563 -359 4903 -359 
L 4403 -359 
L 4263 134 
L 4750 109 
Q 5075 88 5075 359 
L 5075 2022 
L 1331 2022 
L 1331 -428 
L 838 -428 
L 838 2491 
L 5563 2491 
L 5563 213 
z
M 4453 378 
L 1919 378 
L 1919 1722 
L 4453 1722 
L 4453 378 
z
M 3969 1253 
L 2406 1253 
L 2406 844 
L 3963 844 
L 3969 1253 
z
" transform="scale(0.015625)"/>
      <path id="ArialUnicodeMS-7ba1" d="M 5947 4409 
L 4928 4409 
Q 5122 4216 5241 4006 
L 4806 3781 
Q 4603 4194 4372 4409 
L 3950 4409 
Q 3741 4053 3584 3922 
L 3488 3988 
L 3488 3713 
L 5772 3713 
L 5772 2509 
L 5288 2509 
L 5288 3244 
L 1088 3244 
L 1088 2463 
L 603 2463 
L 603 3713 
L 2994 3713 
L 2994 4122 
L 3297 4122 
L 3188 4191 
Q 3663 4688 3841 5409 
L 4288 5247 
Q 4225 4981 4159 4878 
L 5947 4878 
L 5947 4409 
z
M 3297 4384 
L 2309 4384 
Q 2422 4188 2547 4006 
L 2113 3769 
Q 1950 4163 1747 4384 
L 1375 4384 
Q 1103 4013 703 3738 
L 341 4084 
Q 975 4484 1381 5394 
L 1797 5197 
L 1638 4850 
L 3297 4850 
L 3297 4384 
z
M 5178 -416 
L 4691 -416 
L 4691 -38 
L 1931 -38 
L 1931 -434 
L 1447 -434 
L 1447 2931 
L 4897 2931 
L 4897 1613 
L 1931 1613 
L 1931 1300 
L 5178 1300 
L 5178 -416 
z
M 4409 2081 
L 4409 2463 
L 1931 2463 
L 1931 2081 
L 4409 2081 
z
M 4691 403 
L 4691 831 
L 1931 831 
L 1931 403 
L 4691 403 
z
" transform="scale(0.015625)"/>
      <path id="ArialUnicodeMS-28" d="M 1900 -1344 
L 1497 -1344 
Q 978 -681 681 103 
Q 384 888 384 1656 
Q 384 2528 700 3275 
Q 1016 4022 1497 4659 
L 1900 4659 
Q 1344 3747 1155 3059 
Q 966 2372 966 1663 
Q 966 153 1900 -1344 
z
" transform="scale(0.015625)"/>
      <path id="ArialUnicodeMS-37" d="M 3272 4084 
Q 2597 3344 2103 2253 
Q 1609 1163 1522 0 
L 947 0 
Q 969 934 1408 2051 
Q 1847 3169 2547 3975 
L 306 3975 
L 306 4519 
L 3272 4519 
L 3272 4084 
z
" transform="scale(0.015625)"/>
      <path id="ArialUnicodeMS-2d" d="M 1925 1375 
L 206 1375 
L 206 1941 
L 1925 1941 
L 1925 1375 
z
" transform="scale(0.015625)"/>
      <path id="ArialUnicodeMS-29" d="M 634 4659 
Q 1153 3997 1450 3212 
Q 1747 2428 1747 1656 
Q 1747 788 1431 41 
Q 1116 -706 634 -1344 
L 231 -1344 
Q 788 -431 977 255 
Q 1166 941 1166 1650 
Q 1166 3163 231 4659 
L 634 4659 
z
" transform="scale(0.015625)"/>
     </defs>
     <use xlink:href="#ArialUnicodeMS-6708"/>
     <use xlink:href="#ArialUnicodeMS-5ea6" x="100"/>
     <use xlink:href="#ArialUnicodeMS-4e0a" x="200"/>
     <use xlink:href="#ArialUnicodeMS-5e02" x="300"/>
     <use xlink:href="#ArialUnicodeMS-516c" x="400"/>
     <use xlink:href="#ArialUnicodeMS-53f8" x="500"/>
     <use xlink:href="#ArialUnicodeMS-9ad8" x="600"/>
     <use xlink:href="#ArialUnicodeMS-7ba1" x="700"/>
     <use xlink:href="#ArialUnicodeMS-8fdd" x="800"/>
     <use xlink:href="#ArialUnicodeMS-89c4" x="900"/>
     <use xlink:href="#ArialUnicodeMS-91cf" x="1000"/>
     <use xlink:href="#ArialUnicodeMS-28" x="1100"/>
     <use xlink:href="#ArialUnicodeMS-31" x="1133.300781"/>
     <use xlink:href="#ArialUnicodeMS-39" x="1188.916016"/>
     <use xlink:href="#ArialUnicodeMS-39" x="1244.53125"/>
     <use xlink:href="#ArialUnicodeMS-37" x="1300.146484"/>
     <use xlink:href="#ArialUnicodeMS-2d" x="1355.761719"/>
     <use xlink:href="#ArialUnicodeMS-32" x="1389.0625"/>
     <use xlink:href="#ArialUnicodeMS-30" x="1444.677734"/>
     <use xlink:href="#ArialUnicodeMS-32" x="1500.292969"/>
     <use xlink:href="#ArialUnicodeMS-32" x="1555.908203"/>
     <use xlink:href="#ArialUnicodeMS-29" x="1611.523438"/>
    </g>
   </g>
  </g>
 </g>
 <defs>
  <clipPath id="p1cff6758cb">
   <rect x="36.932813" y="19.741875" width="558" height="277.2"/>
  </clipPath>
 </defs>
</svg>
