<?xml version="1.0" encoding="iso-8859-1"?>
<!-- Generator: Adobe Illustrator 16.0.0, SVG Export Plug-In . SVG Version: 6.00 Build 0)  -->
<!DOCTYPE svg PUBLIC "-//W3C//DTD SVG 1.1//EN" "http://www.w3.org/Graphics/SVG/1.1/DTD/svg11.dtd">
<svg version="1.1" id="Capa_1" xmlns="http://www.w3.org/2000/svg" xmlns:xlink="http://www.w3.org/1999/xlink" x="0px" y="0px"
	 width="576.048px" height="576.047px" viewBox="-50 -50 700 700" style="enable-background:new 0 0 576.048 576.047;"
	 xml:space="preserve">
<g>
	<g>
		<path style="fill:#FFFFFF;" d="M491.103,215.312c-8.841-24.651-22.222-47.73-39.651-67.984l41.965-73.324L368.537,2.532l-41.965,73.324
			c-26.307-4.777-52.972-4.618-78.703,0.245L205.384,3.135L81.035,75.571l42.485,72.966c-8.394,9.89-16.105,20.572-22.807,32.28
			c-6.683,11.677-11.989,23.736-16.282,36.013L0,217.154l0.529,143.909l84.45-0.318c8.822,24.68,22.194,47.711,39.636,67.979
			l-41.965,73.32l124.878,71.473l41.965-73.324c26.292,4.768,52.954,4.648,78.672-0.264l42.501,72.979l124.349-72.434l-42.487-72.93
			c8.394-9.932,16.138-20.633,22.821-32.311c6.701-11.707,11.989-23.779,16.298-36.043l84.4-0.303l-0.529-143.909L491.103,215.312z
			 M413.733,359.967c-39.734,69.426-128.229,93.496-197.655,53.762s-93.495-128.23-53.761-197.655
			c39.734-69.425,128.229-93.495,197.654-53.761C429.397,202.047,453.468,290.542,413.733,359.967z"/>
	</g>
</g>
<g>
</g>
<g>
</g>
<g>
</g>
<g>
</g>
<g>
</g>
<g>
</g>
<g>
</g>
<g>
</g>
<g>
</g>
<g>
</g>
<g>
</g>
<g>
</g>
<g>
</g>
<g>
</g>
<g>
</g>
</svg>
