<svg xmlns="http://www.w3.org/2000/svg" xmlns:xlink="http://www.w3.org/1999/xlink" width="548.175" height="434.473" version="1.1" viewBox="0 0 411.131 325.854"><metadata><rdf:RDF xmlns:cc="http://creativecommons.org/ns#" xmlns:dc="http://purl.org/dc/elements/1.1/" xmlns:rdf="http://www.w3.org/1999/02/22-rdf-syntax-ns#"><cc:Work><dc:type rdf:resource="http://purl.org/dc/dcmitype/StillImage"/><dc:date>2023-03-11T14:37:25.095780</dc:date><dc:format>image/svg+xml</dc:format><dc:creator><cc:Agent><dc:title>Matplotlib v3.5.2, https://matplotlib.org/</dc:title></cc:Agent></dc:creator></cc:Work></rdf:RDF></metadata><defs><style type="text/css">*{stroke-linejoin:round;stroke-linecap:butt}</style></defs><g id="figure_1"><g id="patch_1"><path d="M 0 325.8545 L 411.130937 325.8545 L 411.130937 0 L 0 0 z" style="fill:#fff"/></g><g id="axes_1"><g id="patch_2"><path d="M 46.810938 289.3545 L 403.930938 289.3545 L 403.930938 23.2425 L 46.810938 23.2425 z" style="fill:#fff"/></g><g id="patch_3"><path d="M 78.130497 289.3545 L 84.020114 289.3545 L 84.020114 35.9145 L 78.130497 35.9145 z" clip-path="url(#p61e7e5e857)" style="fill:#1f77b4;opacity:.4"/></g><g id="patch_4"><path d="M 84.020114 289.3545 L 89.909732 289.3545 L 89.909732 243.282478 L 84.020114 243.282478 z" clip-path="url(#p61e7e5e857)" style="fill:#1f77b4;opacity:.4"/></g><g id="patch_5"><path d="M 89.909732 289.3545 L 95.799349 289.3545 L 95.799349 251.707076 L 89.909732 251.707076 z" clip-path="url(#p61e7e5e857)" style="fill:#1f77b4;opacity:.4"/></g><g id="patch_6"><path d="M 95.799349 289.3545 L 101.688967 289.3545 L 101.688967 257.498988 L 95.799349 257.498988 z" clip-path="url(#p61e7e5e857)" style="fill:#1f77b4;opacity:.4"/></g><g id="patch_7"><path d="M 101.688967 289.3545 L 107.578585 289.3545 L 107.578585 261.272506 L 101.688967 261.272506 z" clip-path="url(#p61e7e5e857)" style="fill:#1f77b4;opacity:.4"/></g><g id="patch_8"><path d="M 107.578585 289.3545 L 113.468202 289.3545 L 113.468202 269.433835 L 107.578585 269.433835 z" clip-path="url(#p61e7e5e857)" style="fill:#1f77b4;opacity:.4"/></g><g id="patch_9"><path d="M 113.468202 289.3545 L 119.35782 289.3545 L 119.35782 272.066522 L 113.468202 272.066522 z" clip-path="url(#p61e7e5e857)" style="fill:#1f77b4;opacity:.4"/></g><g id="patch_10"><path d="M 119.35782 289.3545 L 125.247438 289.3545 L 125.247438 271.539985 L 119.35782 271.539985 z" clip-path="url(#p61e7e5e857)" style="fill:#1f77b4;opacity:.4"/></g><g id="patch_11"><path d="M 125.247438 289.3545 L 131.137055 289.3545 L 131.137055 275.576771 L 125.247438 275.576771 z" clip-path="url(#p61e7e5e857)" style="fill:#1f77b4;opacity:.4"/></g><g id="patch_12"><path d="M 131.137055 289.3545 L 137.026673 289.3545 L 137.026673 279.438046 L 131.137055 279.438046 z" clip-path="url(#p61e7e5e857)" style="fill:#1f77b4;opacity:.4"/></g><g id="patch_13"><path d="M 137.026673 289.3545 L 142.916291 289.3545 L 142.916291 281.544195 L 137.026673 281.544195 z" clip-path="url(#p61e7e5e857)" style="fill:#1f77b4;opacity:.4"/></g><g id="patch_14"><path d="M 142.916291 289.3545 L 148.805908 289.3545 L 148.805908 283.211564 L 142.916291 283.211564 z" clip-path="url(#p61e7e5e857)" style="fill:#1f77b4;opacity:.4"/></g><g id="patch_15"><path d="M 148.805908 289.3545 L 154.695526 289.3545 L 154.695526 284.264639 L 148.805908 284.264639 z" clip-path="url(#p61e7e5e857)" style="fill:#1f77b4;opacity:.4"/></g><g id="patch_16"><path d="M 154.695526 289.3545 L 160.585143 289.3545 L 160.585143 284.615663 L 154.695526 284.615663 z" clip-path="url(#p61e7e5e857)" style="fill:#1f77b4;opacity:.4"/></g><g id="patch_17"><path d="M 160.585143 289.3545 L 166.474761 289.3545 L 166.474761 286.370788 L 160.585143 286.370788 z" clip-path="url(#p61e7e5e857)" style="fill:#1f77b4;opacity:.4"/></g><g id="patch_18"><path d="M 166.474761 289.3545 L 172.364379 289.3545 L 172.364379 286.897325 L 166.474761 286.897325 z" clip-path="url(#p61e7e5e857)" style="fill:#1f77b4;opacity:.4"/></g><g id="patch_19"><path d="M 172.364379 289.3545 L 178.253996 289.3545 L 178.253996 286.809569 L 172.364379 286.809569 z" clip-path="url(#p61e7e5e857)" style="fill:#1f77b4;opacity:.4"/></g><g id="patch_20"><path d="M 178.253996 289.3545 L 184.143614 289.3545 L 184.143614 287.599375 L 178.253996 287.599375 z" clip-path="url(#p61e7e5e857)" style="fill:#1f77b4;opacity:.4"/></g><g id="patch_21"><path d="M 184.143614 289.3545 L 190.033232 289.3545 L 190.033232 287.862644 L 184.143614 287.862644 z" clip-path="url(#p61e7e5e857)" style="fill:#1f77b4;opacity:.4"/></g><g id="patch_22"><path d="M 190.033232 289.3545 L 195.922849 289.3545 L 195.922849 287.862644 L 190.033232 287.862644 z" clip-path="url(#p61e7e5e857)" style="fill:#1f77b4;opacity:.4"/></g><g id="patch_23"><path d="M 195.922849 289.3545 L 201.812467 289.3545 L 201.812467 287.862644 L 195.922849 287.862644 z" clip-path="url(#p61e7e5e857)" style="fill:#1f77b4;opacity:.4"/></g><g id="patch_24"><path d="M 201.812467 289.3545 L 207.702085 289.3545 L 207.702085 288.213669 L 201.812467 288.213669 z" clip-path="url(#p61e7e5e857)" style="fill:#1f77b4;opacity:.4"/></g><g id="patch_25"><path d="M 207.702085 289.3545 L 213.591702 289.3545 L 213.591702 288.301425 L 207.702085 288.301425 z" clip-path="url(#p61e7e5e857)" style="fill:#1f77b4;opacity:.4"/></g><g id="patch_26"><path d="M 213.591702 289.3545 L 219.48132 289.3545 L 219.48132 288.65245 L 213.591702 288.65245 z" clip-path="url(#p61e7e5e857)" style="fill:#1f77b4;opacity:.4"/></g><g id="patch_27"><path d="M 219.48132 289.3545 L 225.370937 289.3545 L 225.370937 289.003475 L 219.48132 289.003475 z" clip-path="url(#p61e7e5e857)" style="fill:#1f77b4;opacity:.4"/></g><g id="patch_28"><path d="M 225.370937 289.3545 L 231.260555 289.3545 L 231.260555 288.915719 L 225.370937 288.915719 z" clip-path="url(#p61e7e5e857)" style="fill:#1f77b4;opacity:.4"/></g><g id="patch_29"><path d="M 231.260555 289.3545 L 237.150173 289.3545 L 237.150173 289.003475 L 231.260555 289.003475 z" clip-path="url(#p61e7e5e857)" style="fill:#1f77b4;opacity:.4"/></g><g id="patch_30"><path d="M 237.150173 289.3545 L 243.03979 289.3545 L 243.03979 289.091231 L 237.150173 289.091231 z" clip-path="url(#p61e7e5e857)" style="fill:#1f77b4;opacity:.4"/></g><g id="patch_31"><path d="M 243.03979 289.3545 L 248.929408 289.3545 L 248.929408 288.915719 L 243.03979 288.915719 z" clip-path="url(#p61e7e5e857)" style="fill:#1f77b4;opacity:.4"/></g><g id="patch_32"><path d="M 248.929408 289.3545 L 254.819026 289.3545 L 254.819026 289.266744 L 248.929408 289.266744 z" clip-path="url(#p61e7e5e857)" style="fill:#1f77b4;opacity:.4"/></g><g id="patch_33"><path d="M 254.819026 289.3545 L 260.708643 289.3545 L 260.708643 289.003475 L 254.819026 289.003475 z" clip-path="url(#p61e7e5e857)" style="fill:#1f77b4;opacity:.4"/></g><g id="patch_34"><path d="M 260.708643 289.3545 L 266.598261 289.3545 L 266.598261 289.266744 L 260.708643 289.266744 z" clip-path="url(#p61e7e5e857)" style="fill:#1f77b4;opacity:.4"/></g><g id="patch_35"><path d="M 266.598261 289.3545 L 272.487879 289.3545 L 272.487879 289.178988 L 266.598261 289.178988 z" clip-path="url(#p61e7e5e857)" style="fill:#1f77b4;opacity:.4"/></g><g id="patch_36"><path d="M 272.487879 289.3545 L 278.377496 289.3545 L 278.377496 289.178988 L 272.487879 289.178988 z" clip-path="url(#p61e7e5e857)" style="fill:#1f77b4;opacity:.4"/></g><g id="patch_37"><path d="M 278.377496 289.3545 L 284.267114 289.3545 L 284.267114 289.178988 L 278.377496 289.178988 z" clip-path="url(#p61e7e5e857)" style="fill:#1f77b4;opacity:.4"/></g><g id="patch_38"><path d="M 284.267114 289.3545 L 290.156732 289.3545 L 290.156732 289.3545 L 284.267114 289.3545 z" clip-path="url(#p61e7e5e857)" style="fill:#1f77b4;opacity:.4"/></g><g id="patch_39"><path d="M 290.156732 289.3545 L 296.046349 289.3545 L 296.046349 289.266744 L 290.156732 289.266744 z" clip-path="url(#p61e7e5e857)" style="fill:#1f77b4;opacity:.4"/></g><g id="patch_40"><path d="M 296.046349 289.3545 L 301.935967 289.3545 L 301.935967 289.178988 L 296.046349 289.178988 z" clip-path="url(#p61e7e5e857)" style="fill:#1f77b4;opacity:.4"/></g><g id="patch_41"><path d="M 301.935967 289.3545 L 307.825584 289.3545 L 307.825584 289.178988 L 301.935967 289.178988 z" clip-path="url(#p61e7e5e857)" style="fill:#1f77b4;opacity:.4"/></g><g id="patch_42"><path d="M 307.825584 289.3545 L 313.715202 289.3545 L 313.715202 289.3545 L 307.825584 289.3545 z" clip-path="url(#p61e7e5e857)" style="fill:#1f77b4;opacity:.4"/></g><g id="patch_43"><path d="M 313.715202 289.3545 L 319.60482 289.3545 L 319.60482 289.3545 L 313.715202 289.3545 z" clip-path="url(#p61e7e5e857)" style="fill:#1f77b4;opacity:.4"/></g><g id="patch_44"><path d="M 319.60482 289.3545 L 325.494437 289.3545 L 325.494437 289.266744 L 319.60482 289.266744 z" clip-path="url(#p61e7e5e857)" style="fill:#1f77b4;opacity:.4"/></g><g id="patch_45"><path d="M 325.494437 289.3545 L 331.384055 289.3545 L 331.384055 289.3545 L 325.494437 289.3545 z" clip-path="url(#p61e7e5e857)" style="fill:#1f77b4;opacity:.4"/></g><g id="patch_46"><path d="M 331.384055 289.3545 L 337.273673 289.3545 L 337.273673 289.3545 L 331.384055 289.3545 z" clip-path="url(#p61e7e5e857)" style="fill:#1f77b4;opacity:.4"/></g><g id="patch_47"><path d="M 337.273673 289.3545 L 343.16329 289.3545 L 343.16329 289.3545 L 337.273673 289.3545 z" clip-path="url(#p61e7e5e857)" style="fill:#1f77b4;opacity:.4"/></g><g id="patch_48"><path d="M 343.16329 289.3545 L 349.052908 289.3545 L 349.052908 289.3545 L 343.16329 289.3545 z" clip-path="url(#p61e7e5e857)" style="fill:#1f77b4;opacity:.4"/></g><g id="patch_49"><path d="M 349.052908 289.3545 L 354.942526 289.3545 L 354.942526 289.3545 L 349.052908 289.3545 z" clip-path="url(#p61e7e5e857)" style="fill:#1f77b4;opacity:.4"/></g><g id="patch_50"><path d="M 354.942526 289.3545 L 360.832143 289.3545 L 360.832143 289.3545 L 354.942526 289.3545 z" clip-path="url(#p61e7e5e857)" style="fill:#1f77b4;opacity:.4"/></g><g id="patch_51"><path d="M 360.832143 289.3545 L 366.721761 289.3545 L 366.721761 289.3545 L 360.832143 289.3545 z" clip-path="url(#p61e7e5e857)" style="fill:#1f77b4;opacity:.4"/></g><g id="patch_52"><path d="M 366.721761 289.3545 L 372.611378 289.3545 L 372.611378 289.266744 L 366.721761 289.266744 z" clip-path="url(#p61e7e5e857)" style="fill:#1f77b4;opacity:.4"/></g><g id="matplotlib.axis_1"><g id="xtick_1"><g id="line2d_1"><defs><path id="m90912fca46" d="M 0 0 L 0 3.5" style="stroke:#000;stroke-width:.8"/></defs><g><use x="78.13" y="289.354" xlink:href="#m90912fca46" style="stroke:#000;stroke-width:.8"/></g></g><g id="text_1"><g transform="translate(75.350028 303.512312)scale(0.1 -0.1)"><defs><path id="ArialUnicodeMS-30" d="M 1778 4603 Q 3272 4603 3272 2259 Q 3272 1075 2886 498 Q 2500 -78 1778 -78 Q 288 -78 288 2259 Q 288 3444 673 4023 Q 1059 4603 1778 4603 z M 1778 384 Q 2231 384 2462 823 Q 2694 1263 2694 2259 Q 2694 2953 2592 3351 Q 2491 3750 2286 3945 Q 2081 4141 1772 4141 Q 1319 4141 1091 3694 Q 863 3247 863 2259 Q 863 1575 966 1175 Q 1069 775 1272 579 Q 1475 384 1778 384 z" transform="scale(0.015625)"/></defs><use xlink:href="#ArialUnicodeMS-30"/></g></g></g><g id="xtick_2"><g id="line2d_2"><g><use x="135.311" y="289.354" xlink:href="#m90912fca46" style="stroke:#000;stroke-width:.8"/></g></g><g id="text_2"><g transform="translate(129.750313 303.512312)scale(0.1 -0.1)"><defs><path id="ArialUnicodeMS-32" d="M 3231 0 L 197 0 Q 197 388 467 784 Q 738 1181 1478 1778 Q 1931 2141 2287 2539 Q 2644 2938 2644 3341 Q 2644 3688 2398 3914 Q 2153 4141 1778 4141 Q 1400 4141 1144 3908 Q 888 3675 884 3213 L 306 3278 Q 359 3922 764 4262 Q 1169 4603 1791 4603 Q 2466 4603 2842 4229 Q 3219 3856 3219 3328 Q 3219 2888 2901 2436 Q 2584 1984 1638 1228 Q 1141 831 978 544 L 3231 544 L 3231 0 z" transform="scale(0.015625)"/></defs><use xlink:href="#ArialUnicodeMS-32"/><use x="55.615" xlink:href="#ArialUnicodeMS-30"/></g></g></g><g id="xtick_3"><g id="line2d_3"><g><use x="192.492" y="289.354" xlink:href="#m90912fca46" style="stroke:#000;stroke-width:.8"/></g></g><g id="text_3"><g transform="translate(186.931067 303.512312)scale(0.1 -0.1)"><defs><path id="ArialUnicodeMS-34" d="M 3263 1094 L 2644 1094 L 2644 0 L 2081 0 L 2081 1094 L 97 1094 L 97 1613 L 2181 4581 L 2644 4581 L 2644 1613 L 3263 1613 L 3263 1094 z M 2081 1613 L 2081 3681 L 2069 3681 L 647 1613 L 2081 1613 z" transform="scale(0.015625)"/></defs><use xlink:href="#ArialUnicodeMS-34"/><use x="55.615" xlink:href="#ArialUnicodeMS-30"/></g></g></g><g id="xtick_4"><g id="line2d_4"><g><use x="249.673" y="289.354" xlink:href="#m90912fca46" style="stroke:#000;stroke-width:.8"/></g></g><g id="text_4"><g transform="translate(244.11182 303.512312)scale(0.1 -0.1)"><defs><path id="ArialUnicodeMS-36" d="M 838 2363 Q 1225 2969 1941 2969 Q 2503 2969 2897 2553 Q 3291 2138 3291 1491 Q 3291 838 2898 380 Q 2506 -78 1856 -78 Q 1197 -78 733 409 Q 269 897 269 2144 Q 269 3369 689 3986 Q 1109 4603 1906 4603 Q 2422 4603 2778 4315 Q 3134 4028 3213 3463 L 2650 3413 Q 2497 4141 1875 4141 Q 1444 4141 1134 3712 Q 825 3284 825 2363 L 838 2363 z M 1844 384 Q 2231 384 2472 696 Q 2713 1009 2713 1453 Q 2713 1897 2472 2187 Q 2231 2478 1825 2478 Q 1453 2478 1184 2204 Q 916 1931 916 1484 Q 916 1028 1180 706 Q 1444 384 1844 384 z" transform="scale(0.015625)"/></defs><use xlink:href="#ArialUnicodeMS-36"/><use x="55.615" xlink:href="#ArialUnicodeMS-30"/></g></g></g><g id="xtick_5"><g id="line2d_5"><g><use x="306.854" y="289.354" xlink:href="#m90912fca46" style="stroke:#000;stroke-width:.8"/></g></g><g id="text_5"><g transform="translate(301.292574 303.512312)scale(0.1 -0.1)"><defs><path id="ArialUnicodeMS-38" d="M 2425 2478 Q 3284 2203 3284 1306 Q 3284 716 2862 319 Q 2441 -78 1778 -78 Q 1109 -78 689 322 Q 269 722 269 1325 Q 269 1759 505 2084 Q 741 2409 1141 2478 L 1141 2491 Q 453 2703 453 3419 Q 453 3925 815 4264 Q 1178 4603 1766 4603 Q 2363 4603 2730 4253 Q 3097 3903 3097 3406 Q 3097 2731 2425 2491 L 2425 2478 z M 1778 2700 Q 2094 2700 2308 2901 Q 2522 3103 2522 3406 Q 2522 3716 2305 3928 Q 2088 4141 1772 4141 Q 1450 4141 1240 3931 Q 1031 3722 1031 3438 Q 1031 3097 1247 2898 Q 1463 2700 1778 2700 z M 1778 384 Q 2175 384 2440 640 Q 2706 897 2706 1306 Q 2706 1716 2432 1978 Q 2159 2241 1766 2241 Q 1356 2241 1100 1970 Q 844 1700 844 1319 Q 844 922 1108 653 Q 1372 384 1778 384 z" transform="scale(0.015625)"/></defs><use xlink:href="#ArialUnicodeMS-38"/><use x="55.615" xlink:href="#ArialUnicodeMS-30"/></g></g></g><g id="xtick_6"><g id="line2d_6"><g><use x="364.034" y="289.354" xlink:href="#m90912fca46" style="stroke:#000;stroke-width:.8"/></g></g><g id="text_6"><g transform="translate(355.692859 303.512312)scale(0.1 -0.1)"><defs><path id="ArialUnicodeMS-31" d="M 2400 0 L 1838 0 L 1838 3584 Q 1416 3184 709 2906 L 709 3450 Q 1681 3916 2034 4603 L 2400 4603 L 2400 0 z" transform="scale(0.015625)"/></defs><use xlink:href="#ArialUnicodeMS-31"/><use x="55.615" xlink:href="#ArialUnicodeMS-30"/><use x="111.23" xlink:href="#ArialUnicodeMS-30"/></g></g></g><g id="text_7"><g transform="translate(210.370937 316.662312)scale(0.1 -0.1)"><defs><path id="ArialUnicodeMS-8868" d="M 6100 0 L 5741 -397 Q 3781 450 3419 2278 L 2875 2278 Q 2713 2009 2388 1716 L 2388 269 L 3794 616 L 3794 103 L 1300 -481 L 1038 -6 L 1900 184 L 1900 1375 Q 1200 941 594 744 L 331 1178 Q 1559 1547 2253 2278 L 609 2278 L 609 2747 L 2975 2747 L 2975 3272 L 1288 3272 L 1288 3738 L 2975 3738 L 2975 4225 L 909 4225 L 909 4691 L 2975 4691 L 2975 5344 L 3481 5344 L 3481 4691 L 5516 4691 L 5516 4225 L 3481 4225 L 3481 3738 L 5153 3738 L 5153 3272 L 3481 3272 L 3481 2747 L 5813 2747 L 5813 2278 L 3909 2278 Q 4053 1725 4250 1388 Q 4725 1638 5247 2150 L 5613 1806 Q 5209 1406 4519 1025 Q 4991 475 6100 0 z" transform="scale(0.015625)"/><path id="ArialUnicodeMS-60c5" d="M 6009 2944 L 2291 2944 L 1978 2828 Q 1897 3128 1678 3506 L 1678 -422 L 1191 -422 L 1191 5241 L 1678 5241 L 1678 3944 L 1875 4044 Q 2063 3806 2284 3406 L 3744 3406 L 3744 3719 L 2591 3719 L 2591 4178 L 3744 4178 L 3744 4453 L 2322 4453 L 2322 4916 L 3744 4916 L 3744 5356 L 4231 5356 L 4231 4916 L 5691 4916 L 5691 4453 L 4231 4453 L 4231 4178 L 5381 4178 L 5381 3719 L 4231 3719 L 4231 3406 L 6009 3406 L 6009 2944 z M 1056 3975 Q 1047 3309 563 2456 L 122 2688 Q 616 3441 634 4128 L 1056 3975 z M 5447 197 Q 5447 -319 4781 -319 L 4281 -319 L 4097 141 Q 4331 128 4469 128 Q 4816 128 4891 167 Q 4966 206 4966 594 L 3078 594 L 3078 -422 L 2591 -422 L 2591 2650 L 5447 2650 L 5447 197 z M 4959 1888 L 4959 2188 L 3078 2188 L 3078 1888 L 4959 1888 z M 4959 1056 L 4959 1428 L 3078 1428 L 3078 1056 L 4959 1056 z" transform="scale(0.015625)"/><path id="ArialUnicodeMS-6570" d="M 6138 19 L 5806 -378 Q 5031 194 4697 716 Q 4344 144 3328 -441 L 2981 -50 Q 3966 434 4403 1153 Q 4038 1834 3866 2753 Q 3678 2356 3353 1919 L 2950 2203 Q 3838 3172 3963 5253 L 4409 5125 Q 4341 4384 4269 4006 L 5984 4006 L 5984 3547 L 5619 3541 L 5594 3341 Q 5441 2113 4978 1191 Q 5281 672 6138 19 z M 5166 3541 L 4172 3541 Q 4297 2419 4691 1650 Q 5038 2513 5166 3541 z M 3438 3653 L 2209 3653 L 2209 2338 L 1919 2338 Q 1900 2269 1753 1931 L 3225 1931 L 3225 1472 L 2913 1472 Q 2763 991 2503 666 Q 2947 353 3103 184 L 2747 -172 Q 2463 138 2150 313 Q 1322 -225 563 -428 L 269 6 Q 1106 163 1684 563 Q 1291 756 703 884 L 1038 1472 L 403 1472 L 403 1931 L 1259 1931 Q 1328 2056 1466 2553 L 1747 2484 L 1747 3653 L 1716 3653 Q 1413 2881 678 2456 L 378 2803 Q 938 3091 1241 3653 L 403 3653 L 403 4122 L 1747 4122 L 1747 5228 L 2209 5228 L 2209 4122 L 3438 4122 L 3438 3653 z M 2406 1472 L 1538 1472 Q 1422 1241 1369 1153 Q 1388 1159 2069 884 Q 2219 1031 2406 1472 z M 1625 4441 L 1288 4159 Q 1022 4547 575 4813 L 878 5075 Q 1394 4844 1625 4441 z M 3384 4844 Q 3097 4409 2669 4172 L 2322 4481 Q 2806 4759 3047 5069 L 3384 4844 z M 3303 2888 L 2944 2578 Q 2706 3025 2291 3297 L 2584 3566 Q 2988 3359 3303 2888 z" transform="scale(0.015625)"/></defs><use xlink:href="#ArialUnicodeMS-8868"/><use x="100" xlink:href="#ArialUnicodeMS-60c5"/><use x="200" xlink:href="#ArialUnicodeMS-6570"/></g></g></g><g id="matplotlib.axis_2"><g id="ytick_1"><g id="line2d_7"><defs><path id="m93b4e29a7d" d="M 0 0 L -3.5 0" style="stroke:#000;stroke-width:.8"/></defs><g><use x="46.811" y="289.354" xlink:href="#m93b4e29a7d" style="stroke:#000;stroke-width:.8"/></g></g><g id="text_8"><g transform="translate(20.35 292.933406)scale(0.1 -0.1)"><defs><path id="ArialUnicodeMS-2e" d="M 1209 0 L 569 0 L 569 641 L 1209 641 L 1209 0 z" transform="scale(0.015625)"/></defs><use xlink:href="#ArialUnicodeMS-30"/><use x="55.615" xlink:href="#ArialUnicodeMS-2e"/><use x="83.398" xlink:href="#ArialUnicodeMS-30"/><use x="139.014" xlink:href="#ArialUnicodeMS-30"/></g></g></g><g id="ytick_2"><g id="line2d_8"><g><use x="46.811" y="235.772" xlink:href="#m93b4e29a7d" style="stroke:#000;stroke-width:.8"/></g></g><g id="text_9"><g transform="translate(20.35 239.350855)scale(0.1 -0.1)"><defs><path id="ArialUnicodeMS-35" d="M 1013 2753 Q 1431 3041 1881 3041 Q 2453 3041 2878 2636 Q 3303 2231 3303 1556 Q 3303 875 2872 398 Q 2441 -78 1741 -78 Q 1169 -78 750 245 Q 331 569 269 1203 L 856 1247 Q 928 813 1162 598 Q 1397 384 1741 384 Q 2169 384 2434 707 Q 2700 1031 2700 1503 Q 2700 1984 2428 2262 Q 2156 2541 1728 2541 Q 1188 2541 897 2100 L 366 2163 L 813 4519 L 3084 4519 L 3084 3975 L 1259 3975 L 1013 2753 z" transform="scale(0.015625)"/></defs><use xlink:href="#ArialUnicodeMS-30"/><use x="55.615" xlink:href="#ArialUnicodeMS-2e"/><use x="83.398" xlink:href="#ArialUnicodeMS-30"/><use x="139.014" xlink:href="#ArialUnicodeMS-35"/></g></g></g><g id="ytick_3"><g id="line2d_9"><g><use x="46.811" y="182.189" xlink:href="#m93b4e29a7d" style="stroke:#000;stroke-width:.8"/></g></g><g id="text_10"><g transform="translate(20.35 185.768303)scale(0.1 -0.1)"><use xlink:href="#ArialUnicodeMS-30"/><use x="55.615" xlink:href="#ArialUnicodeMS-2e"/><use x="83.398" xlink:href="#ArialUnicodeMS-31"/><use x="139.014" xlink:href="#ArialUnicodeMS-30"/></g></g></g><g id="ytick_4"><g id="line2d_10"><g><use x="46.811" y="128.607" xlink:href="#m93b4e29a7d" style="stroke:#000;stroke-width:.8"/></g></g><g id="text_11"><g transform="translate(20.35 132.185752)scale(0.1 -0.1)"><use xlink:href="#ArialUnicodeMS-30"/><use x="55.615" xlink:href="#ArialUnicodeMS-2e"/><use x="83.398" xlink:href="#ArialUnicodeMS-31"/><use x="139.014" xlink:href="#ArialUnicodeMS-35"/></g></g></g><g id="ytick_5"><g id="line2d_11"><g><use x="46.811" y="75.024" xlink:href="#m93b4e29a7d" style="stroke:#000;stroke-width:.8"/></g></g><g id="text_12"><g transform="translate(20.35 78.6032)scale(0.1 -0.1)"><use xlink:href="#ArialUnicodeMS-30"/><use x="55.615" xlink:href="#ArialUnicodeMS-2e"/><use x="83.398" xlink:href="#ArialUnicodeMS-32"/><use x="139.014" xlink:href="#ArialUnicodeMS-30"/></g></g></g><g id="text_13"><g transform="translate(14.357813 166.2985)rotate(-90)scale(0.1 -0.1)"><defs><path id="ArialUnicodeMS-5206" d="M 5991 3003 L 5684 2553 Q 4856 3041 4451 3534 Q 4047 4028 3781 4831 L 4319 4984 Q 4375 4356 4829 3825 Q 5284 3294 5991 3003 z M 2613 4697 Q 2169 3484 800 2547 L 416 2919 Q 1731 3741 2188 4934 L 2613 4697 z M 4872 2931 Q 4844 1956 4730 1092 Q 4616 228 4430 7 Q 4244 -213 3847 -213 Q 3469 -213 2894 -78 L 2747 481 Q 3503 269 3834 269 Q 4013 269 4128 639 Q 4244 1009 4341 2463 L 3138 2463 Q 2869 263 831 -441 L 525 -31 Q 2372 478 2631 2463 L 1556 2463 L 1556 2931 L 4872 2931 z" transform="scale(0.015625)"/><path id="ArialUnicodeMS-5e03" d="M 5888 3944 L 2597 3944 Q 2300 3216 2053 2841 L 3272 2841 L 3272 3653 L 3756 3653 L 3756 2841 L 5338 2841 L 5338 941 Q 5338 325 4878 325 L 4294 325 L 4141 819 Q 4481 775 4628 775 Q 4850 775 4850 941 L 4850 2375 L 3756 2375 L 3756 -428 L 3272 -428 L 3272 2375 L 2322 2375 L 2322 153 L 1838 153 L 1825 2534 Q 1516 2056 794 1288 L 372 1581 Q 1731 2919 2094 3944 L 659 3944 L 659 4409 L 2266 4409 Q 2378 4706 2553 5344 L 3009 5203 Q 2794 4444 2778 4409 L 5888 4409 L 5888 3944 z" transform="scale(0.015625)"/></defs><use xlink:href="#ArialUnicodeMS-5206"/><use x="100" xlink:href="#ArialUnicodeMS-5e03"/></g></g></g><g id="line2d_12"><path d="M 63.043665 288.320736 L 64.675095 286.741205 L 66.306525 283.398512 L 67.937954 277.110728 L 69.569384 266.638071 L 71.200814 251.283203 L 72.832244 231.650166 L 74.463674 210.118934 L 76.095104 190.538295 L 77.726534 177.00738 L 79.357964 172.251217 L 80.989393 176.499113 L 82.620823 187.534862 L 85.883683 216.052061 L 87.515113 228.025205 L 89.146543 236.990723 L 90.777973 243.191483 L 92.409403 247.321 L 94.040832 250.109947 L 95.672262 252.134372 L 98.935122 255.284055 L 102.197982 258.315229 L 105.460842 261.624591 L 108.723701 265.006007 L 110.355131 266.552834 L 111.986561 267.913433 L 113.617991 269.049003 L 115.249421 269.951197 L 116.880851 270.641078 L 120.14371 271.604113 L 123.40657 272.569501 L 125.038 273.248832 L 126.66943 274.095402 L 134.826579 279.029888 L 138.089439 280.532125 L 141.352299 281.748942 L 144.615159 282.727537 L 147.878018 283.442909 L 152.772308 284.132508 L 156.035168 284.621111 L 160.929457 285.642272 L 164.192317 286.30547 L 167.455177 286.784169 L 172.349467 287.237512 L 178.875186 287.606584 L 191.926625 287.80595 L 201.715204 287.94194 L 226.186652 288.921709 L 276.760979 289.211585 L 286.549558 289.250923 L 297.969567 289.238692 L 311.021006 289.287228 L 322.441015 289.314763 L 387.69821 289.354045 L 387.69821 289.354045" clip-path="url(#p61e7e5e857)" style="fill:none;stroke:#1f77b4;stroke-width:1.5;stroke-linecap:square"/></g><g id="patch_53"><path d="M 46.810938 289.3545 L 46.810938 23.2425" style="fill:none;stroke:#000;stroke-width:.8;stroke-linejoin:miter;stroke-linecap:square"/></g><g id="patch_54"><path d="M 403.930938 289.3545 L 403.930938 23.2425" style="fill:none;stroke:#000;stroke-width:.8;stroke-linejoin:miter;stroke-linecap:square"/></g><g id="patch_55"><path d="M 46.810938 289.3545 L 403.930937 289.3545" style="fill:none;stroke:#000;stroke-width:.8;stroke-linejoin:miter;stroke-linecap:square"/></g><g id="patch_56"><path d="M 46.810938 23.2425 L 403.930937 23.2425" style="fill:none;stroke:#000;stroke-width:.8;stroke-linejoin:miter;stroke-linecap:square"/></g><g id="text_14"><g transform="translate(157.03375 17.2425)scale(0.12 -0.12)"><defs><path id="ArialUnicodeMS-65" d="M 3309 1516 L 825 1516 Q 859 966 1139 675 Q 1419 384 1838 384 Q 2159 384 2378 554 Q 2597 725 2713 1069 L 3291 997 Q 3150 478 2775 200 Q 2400 -78 1838 -78 Q 1091 -78 670 380 Q 250 838 250 1631 Q 250 2416 658 2903 Q 1066 3391 1806 3391 Q 2169 3391 2505 3231 Q 2841 3072 3075 2689 Q 3309 2306 3309 1516 z M 2731 1978 Q 2697 2484 2417 2707 Q 2138 2931 1806 2931 Q 1409 2931 1153 2665 Q 897 2400 856 1978 L 2731 1978 z" transform="scale(0.015625)"/><path id="ArialUnicodeMS-6d" d="M 4922 0 L 4359 0 L 4359 2094 Q 4359 2325 4328 2489 Q 4297 2653 4167 2779 Q 4038 2906 3763 2906 Q 3431 2906 3190 2675 Q 2950 2444 2950 1925 L 2950 0 L 2388 0 L 2388 2156 Q 2388 2588 2236 2747 Q 2084 2906 1806 2906 Q 1444 2906 1211 2656 Q 978 2406 978 1722 L 978 0 L 416 0 L 416 3316 L 922 3316 L 922 2853 L 934 2853 Q 1272 3391 1925 3391 Q 2291 3391 2527 3245 Q 2763 3100 2869 2809 Q 3238 3391 3891 3391 Q 4406 3391 4664 3112 Q 4922 2834 4922 2278 L 4922 0 z" transform="scale(0.015625)"/><path id="ArialUnicodeMS-6f" d="M 1778 3391 Q 2450 3391 2892 2953 Q 3334 2516 3334 1709 Q 3334 731 2856 326 Q 2378 -78 1778 -78 Q 1150 -78 687 337 Q 225 753 225 1656 Q 225 2531 672 2961 Q 1119 3391 1778 3391 z M 1778 384 Q 2259 384 2509 740 Q 2759 1097 2759 1678 Q 2759 2300 2476 2615 Q 2194 2931 1778 2931 Q 1350 2931 1075 2611 Q 800 2291 800 1656 Q 800 1025 1079 704 Q 1359 384 1778 384 z" transform="scale(0.015625)"/><path id="ArialUnicodeMS-6a" d="M 991 -178 Q 991 -506 947 -742 Q 903 -978 720 -1158 Q 538 -1338 153 -1338 Q -69 -1338 -288 -1281 L -178 -806 Q -22 -850 84 -850 Q 266 -850 347 -728 Q 428 -606 428 -166 L 428 3316 L 991 3316 L 991 -178 z M 991 3944 L 428 3944 L 428 4581 L 991 4581 L 991 3944 z" transform="scale(0.015625)"/><path id="ArialUnicodeMS-69" d="M 991 0 L 428 0 L 428 3316 L 991 3316 L 991 0 z M 991 3944 L 428 3944 L 428 4581 L 991 4581 L 991 3944 z" transform="scale(0.015625)"/><path id="ArialUnicodeMS-6838" d="M 5966 3994 L 4128 3994 Q 3825 3391 3391 2950 L 4063 2606 Q 4431 3025 4806 3763 L 5259 3513 Q 4803 2631 4236 2029 Q 3669 1428 2650 878 L 2278 1253 Q 3197 1716 3719 2222 Q 2584 2797 2438 2841 L 2700 3297 L 2963 3169 Q 3325 3556 3559 3994 L 2553 3994 L 2553 3566 L 1791 3566 L 1791 2938 L 1978 3028 Q 2478 2606 2753 1953 L 2309 1678 Q 2163 2138 1791 2547 L 1791 -428 L 1306 -428 L 1306 2284 Q 1094 1644 603 953 L 213 1241 Q 963 2250 1269 3566 L 428 3566 L 428 4031 L 1306 4031 L 1306 5281 L 1791 5281 L 1791 4031 L 2419 4031 L 2419 4459 L 3897 4459 L 3897 5275 L 4384 5275 L 4384 4459 L 5966 4459 L 5966 3994 z M 6075 0 L 5691 -391 Q 5141 294 4353 666 Q 3631 75 2497 -403 L 2181 25 Q 4378 822 5319 2644 L 5741 2394 Q 5241 1528 4722 1013 Q 5519 634 6075 0 z" transform="scale(0.015625)"/><path id="ArialUnicodeMS-5bc6" d="M 5791 3353 L 5306 3353 L 5306 4225 L 1166 4225 L 1166 3353 L 678 3353 L 678 4691 L 2950 4691 L 2950 5294 L 3450 5294 L 3450 4691 L 5791 4691 L 5791 3353 z M 3688 3438 L 3359 3097 Q 3159 3469 2450 3853 L 2778 4134 Q 3294 3981 3688 3438 z M 5013 3681 Q 4281 2863 2669 2028 Q 2731 1997 3391 1997 Q 3975 1997 4053 2019 Q 4131 2041 4294 2725 L 4722 2566 Q 4494 1800 4291 1669 Q 4088 1538 3794 1538 L 2741 1538 Q 2428 1538 2216 1797 Q 1644 1553 716 1269 L 422 1684 Q 1513 1966 2081 2241 L 2081 3456 L 2566 3456 L 2566 2472 Q 3794 3069 4684 3981 L 5013 3681 z M 1925 3341 Q 1556 2581 909 2106 L 544 2431 Q 1300 2978 1522 3616 L 1925 3341 z M 6041 2053 L 5631 1741 Q 5331 2494 4647 2925 L 5044 3225 Q 5609 2794 6041 2053 z M 5319 -391 L 4831 -391 L 4831 -44 L 1594 -44 L 1594 -409 L 1106 -397 L 1106 1234 L 1594 1234 L 1594 422 L 2963 422 L 2963 1491 L 3450 1491 L 3450 422 L 4831 422 L 4831 1234 L 5319 1234 L 5319 -391 z" transform="scale(0.015625)"/><path id="ArialUnicodeMS-5ea6" d="M 5913 4269 L 1363 4269 L 1363 2278 Q 1363 1144 1180 528 Q 997 -88 684 -434 L 294 -147 Q 669 378 773 940 Q 878 1503 878 2350 L 878 4738 L 3200 4738 L 3200 5288 L 3706 5288 L 3706 4738 L 5913 4738 L 5913 4269 z M 5778 3194 L 4728 3194 L 4728 2303 L 2350 2303 L 2350 3194 L 1472 3194 L 1472 3659 L 2350 3659 L 2350 4147 L 2828 4147 L 2828 3659 L 4244 3659 L 4244 4147 L 4728 4147 L 4728 3659 L 5778 3659 L 5778 3194 z M 4244 2747 L 4244 3194 L 2834 3194 L 2834 2747 L 4244 2747 z M 6081 72 L 5819 -397 Q 4484 -216 3531 263 Q 2494 -234 1388 -397 L 1088 44 Q 2078 134 3034 550 Q 2509 934 2113 1528 L 1625 1528 L 1625 1972 L 5159 1972 L 5159 1544 Q 4819 1025 4044 538 Q 4963 166 6081 72 z M 4544 1528 L 2700 1528 Q 3125 1038 3531 781 Q 4194 1159 4544 1528 z" transform="scale(0.015625)"/><path id="ArialUnicodeMS-56fe" d="M 5544 -422 L 5056 -422 L 5056 19 L 1184 19 L 1184 -422 L 703 -422 L 703 5019 L 5544 5019 L 5544 -422 z M 5056 2400 L 5056 4550 L 2625 4550 L 2625 4538 L 2906 4416 Q 2863 4322 2778 4178 L 4513 4178 L 4513 3781 Q 4203 3203 3675 2778 Q 4228 2456 5056 2400 z M 5056 459 L 5056 2163 L 5044 2163 L 4831 1850 Q 4013 1963 3188 2463 Q 2713 2188 1516 1900 L 1281 2388 Q 2341 2584 2784 2834 Q 2544 3022 2259 3413 Q 1941 3031 1575 2869 L 1253 3297 Q 2072 3656 2419 4550 L 1191 4550 L 1191 459 L 3231 459 Q 2769 950 2125 1228 L 2400 1606 Q 3019 1372 3694 716 L 3488 459 L 5056 459 z M 3994 1491 L 3628 1131 Q 3197 1638 2613 1906 L 2963 2241 Q 3434 2072 3994 1491 z M 3903 3713 L 2584 3713 Q 2709 3513 3250 3053 Q 3647 3328 3903 3713 z" transform="scale(0.015625)"/></defs><use xlink:href="#ArialUnicodeMS-65"/><use x="55.615" xlink:href="#ArialUnicodeMS-6d"/><use x="138.916" xlink:href="#ArialUnicodeMS-6f"/><use x="194.531" xlink:href="#ArialUnicodeMS-6a"/><use x="216.748" xlink:href="#ArialUnicodeMS-69"/><use x="238.965" xlink:href="#ArialUnicodeMS-8868"/><use x="338.965" xlink:href="#ArialUnicodeMS-60c5"/><use x="438.965" xlink:href="#ArialUnicodeMS-6570"/><use x="538.965" xlink:href="#ArialUnicodeMS-6838"/><use x="638.965" xlink:href="#ArialUnicodeMS-5bc6"/><use x="738.965" xlink:href="#ArialUnicodeMS-5ea6"/><use x="838.965" xlink:href="#ArialUnicodeMS-5206"/><use x="938.965" xlink:href="#ArialUnicodeMS-5e03"/><use x="1038.965" xlink:href="#ArialUnicodeMS-56fe"/></g></g></g></g><defs><clipPath id="p61e7e5e857"><rect width="357.12" height="266.112" x="46.811" y="23.242"/></clipPath></defs></svg>