<?xml version="1.0" encoding="utf-8" standalone="no"?>
<!DOCTYPE svg PUBLIC "-//W3C//DTD SVG 1.1//EN"
  "http://www.w3.org/Graphics/SVG/1.1/DTD/svg11.dtd">
<svg xmlns:xlink="http://www.w3.org/1999/xlink" width="453.140625pt" height="338.65125pt" viewBox="0 0 453.140625 338.65125" xmlns="http://www.w3.org/2000/svg" version="1.1">
 <metadata>
  <rdf:RDF xmlns:dc="http://purl.org/dc/elements/1.1/" xmlns:cc="http://creativecommons.org/ns#" xmlns:rdf="http://www.w3.org/1999/02/22-rdf-syntax-ns#">
   <cc:Work>
    <dc:type rdf:resource="http://purl.org/dc/dcmitype/StillImage"/>
    <dc:date>2023-03-11T14:08:36.220276</dc:date>
    <dc:format>image/svg+xml</dc:format>
    <dc:creator>
     <cc:Agent>
      <dc:title>Matplotlib v3.5.2, https://matplotlib.org/</dc:title>
     </cc:Agent>
    </dc:creator>
   </cc:Work>
  </rdf:RDF>
 </metadata>
 <defs>
  <style type="text/css">*{stroke-linejoin: round; stroke-linecap: butt}</style>
 </defs>
 <g id="figure_1">
  <g id="patch_1">
   <path d="M 0 338.65125 
L 453.140625 338.65125 
L 453.140625 0 
L 0 0 
z
" style="fill: #ffffff"/>
  </g>
  <g id="axes_1">
   <g id="patch_2">
    <path d="M 46.821875 254.973125 
L 445.940625 254.973125 
L 445.940625 21.789375 
L 46.821875 21.789375 
z
" style="fill: #ffffff"/>
   </g>
   <g id="patch_3">
    <path d="M 63.451823 242.217954 
L 96.711719 242.217954 
L 96.711719 50.577033 
L 63.451823 50.577033 
z
" clip-path="url(#p57ec98011e)" style="fill: #1f77b4"/>
   </g>
   <g id="patch_4">
    <path d="M 129.971615 242.217954 
L 163.23151 242.217954 
L 163.23151 117.753376 
L 129.971615 117.753376 
z
" clip-path="url(#p57ec98011e)" style="fill: #1f77b4"/>
   </g>
   <g id="patch_5">
    <path d="M 196.491406 242.217954 
L 229.751302 242.217954 
L 229.751302 215.535762 
L 196.491406 215.535762 
z
" clip-path="url(#p57ec98011e)" style="fill: #1f77b4"/>
   </g>
   <g id="patch_6">
    <path d="M 263.011198 242.217954 
L 296.271094 242.217954 
L 296.271094 238.451057 
L 263.011198 238.451057 
z
" clip-path="url(#p57ec98011e)" style="fill: #1f77b4"/>
   </g>
   <g id="patch_7">
    <path d="M 329.53099 242.217954 
L 362.790885 242.217954 
L 362.790885 242.217954 
L 329.53099 242.217954 
z
" clip-path="url(#p57ec98011e)" style="fill: #1f77b4"/>
   </g>
   <g id="patch_8">
    <path d="M 396.050781 242.217954 
L 429.310677 242.217954 
L 429.310677 230.917261 
L 396.050781 230.917261 
z
" clip-path="url(#p57ec98011e)" style="fill: #1f77b4"/>
   </g>
   <g id="matplotlib.axis_1">
    <g id="xtick_1">
     <g id="line2d_1">
      <defs>
       <path id="mfb9257bf24" d="M 0 0 
L 0 3.5 
" style="stroke: #000000; stroke-width: 0.8"/>
      </defs>
      <g>
       <use xlink:href="#mfb9257bf24" x="80.081771" y="254.973125" style="stroke: #000000; stroke-width: 0.8"/>
      </g>
     </g>
     <g id="text_1">
      <!-- image_nums -->
      <g transform="translate(82.610677 318.659063)rotate(-90)scale(0.1 -0.1)">
       <defs>
        <path id="ArialUnicodeMS-69" d="M 991 0 
L 428 0 
L 428 3316 
L 991 3316 
L 991 0 
z
M 991 3944 
L 428 3944 
L 428 4581 
L 991 4581 
L 991 3944 
z
" transform="scale(0.015625)"/>
        <path id="ArialUnicodeMS-6d" d="M 4922 0 
L 4359 0 
L 4359 2094 
Q 4359 2325 4328 2489 
Q 4297 2653 4167 2779 
Q 4038 2906 3763 2906 
Q 3431 2906 3190 2675 
Q 2950 2444 2950 1925 
L 2950 0 
L 2388 0 
L 2388 2156 
Q 2388 2588 2236 2747 
Q 2084 2906 1806 2906 
Q 1444 2906 1211 2656 
Q 978 2406 978 1722 
L 978 0 
L 416 0 
L 416 3316 
L 922 3316 
L 922 2853 
L 934 2853 
Q 1272 3391 1925 3391 
Q 2291 3391 2527 3245 
Q 2763 3100 2869 2809 
Q 3238 3391 3891 3391 
Q 4406 3391 4664 3112 
Q 4922 2834 4922 2278 
L 4922 0 
z
" transform="scale(0.015625)"/>
        <path id="ArialUnicodeMS-61" d="M 3303 0 
L 2713 0 
Q 2631 156 2597 409 
Q 2031 -78 1375 -78 
Q 850 -78 547 184 
Q 244 447 244 878 
Q 244 1291 536 1558 
Q 828 1825 1550 1913 
L 2075 1991 
Q 2369 2038 2559 2106 
Q 2559 2359 2543 2464 
Q 2528 2569 2451 2681 
Q 2375 2794 2206 2862 
Q 2038 2931 1753 2931 
Q 1391 2931 1180 2797 
Q 969 2663 891 2297 
L 341 2369 
Q 431 2878 806 3134 
Q 1181 3391 1838 3391 
Q 2434 3391 2714 3214 
Q 2994 3038 3058 2788 
Q 3122 2538 3122 2144 
L 3122 1388 
Q 3122 697 3148 461 
Q 3175 225 3303 0 
z
M 2559 1459 
L 2559 1663 
Q 2119 1516 1481 1430 
Q 844 1344 844 891 
Q 844 663 1016 514 
Q 1188 366 1509 366 
Q 1925 366 2242 614 
Q 2559 863 2559 1459 
z
" transform="scale(0.015625)"/>
        <path id="ArialUnicodeMS-67" d="M 3144 447 
Q 3144 -259 3003 -607 
Q 2863 -956 2503 -1150 
Q 2144 -1344 1644 -1344 
Q 1081 -1344 706 -1094 
Q 331 -844 331 -275 
L 878 -359 
Q 909 -622 1098 -753 
Q 1288 -884 1638 -884 
Q 2075 -884 2278 -706 
Q 2481 -528 2526 -272 
Q 2572 -16 2572 434 
Q 2206 0 1650 0 
Q 1003 0 611 478 
Q 219 956 219 1684 
Q 219 2416 600 2903 
Q 981 3391 1656 3391 
Q 2244 3391 2613 2919 
L 2625 2919 
L 2625 3316 
L 3144 3316 
L 3144 447 
z
M 1703 459 
Q 2063 459 2341 745 
Q 2619 1031 2619 1703 
Q 2619 2297 2353 2614 
Q 2088 2931 1697 2931 
Q 1297 2931 1045 2606 
Q 794 2281 794 1716 
Q 794 1063 1058 761 
Q 1322 459 1703 459 
z
" transform="scale(0.015625)"/>
        <path id="ArialUnicodeMS-65" d="M 3309 1516 
L 825 1516 
Q 859 966 1139 675 
Q 1419 384 1838 384 
Q 2159 384 2378 554 
Q 2597 725 2713 1069 
L 3291 997 
Q 3150 478 2775 200 
Q 2400 -78 1838 -78 
Q 1091 -78 670 380 
Q 250 838 250 1631 
Q 250 2416 658 2903 
Q 1066 3391 1806 3391 
Q 2169 3391 2505 3231 
Q 2841 3072 3075 2689 
Q 3309 2306 3309 1516 
z
M 2731 1978 
Q 2697 2484 2417 2707 
Q 2138 2931 1806 2931 
Q 1409 2931 1153 2665 
Q 897 2400 856 1978 
L 2731 1978 
z
" transform="scale(0.015625)"/>
        <path id="ArialUnicodeMS-5f" d="M 3238 -800 
L -38 -800 
L -38 -481 
L 3238 -481 
L 3238 -800 
z
" transform="scale(0.015625)"/>
        <path id="ArialUnicodeMS-6e" d="M 3138 0 
L 2572 0 
L 2572 2016 
Q 2572 2525 2389 2715 
Q 2206 2906 1881 2906 
Q 1631 2906 1407 2784 
Q 1184 2663 1090 2441 
Q 997 2219 997 1813 
L 997 0 
L 434 0 
L 434 3316 
L 941 3316 
L 941 2847 
L 953 2847 
Q 1131 3119 1392 3255 
Q 1653 3391 1997 3391 
Q 2259 3391 2515 3297 
Q 2772 3203 2917 3015 
Q 3063 2828 3100 2615 
Q 3138 2403 3138 2041 
L 3138 0 
z
" transform="scale(0.015625)"/>
        <path id="ArialUnicodeMS-75" d="M 3116 0 
L 2613 0 
L 2613 488 
L 2597 488 
Q 2216 -78 1556 -78 
Q 1209 -78 914 83 
Q 619 244 520 526 
Q 422 809 422 1259 
L 422 3316 
L 984 3316 
L 984 1478 
Q 984 1038 1026 847 
Q 1069 656 1247 532 
Q 1425 409 1672 409 
Q 1991 409 2272 629 
Q 2553 850 2553 1544 
L 2553 3316 
L 3116 3316 
L 3116 0 
z
" transform="scale(0.015625)"/>
        <path id="ArialUnicodeMS-73" d="M 2278 2388 
Q 2241 2659 2058 2795 
Q 1875 2931 1550 2931 
Q 1228 2931 1029 2822 
Q 831 2713 831 2503 
Q 831 2306 989 2222 
Q 1147 2138 1613 2016 
Q 2138 1881 2398 1778 
Q 2659 1675 2804 1489 
Q 2950 1303 2950 972 
Q 2950 528 2587 225 
Q 2225 -78 1619 -78 
Q 988 -78 633 189 
Q 278 456 197 991 
L 756 1075 
Q 800 728 1014 556 
Q 1228 384 1613 384 
Q 1981 384 2178 539 
Q 2375 694 2375 916 
Q 2375 1066 2284 1156 
Q 2194 1247 2058 1292 
Q 1922 1338 1447 1453 
Q 741 1622 514 1862 
Q 288 2103 288 2438 
Q 288 2853 619 3122 
Q 950 3391 1509 3391 
Q 2103 3391 2433 3158 
Q 2763 2925 2828 2463 
L 2278 2388 
z
" transform="scale(0.015625)"/>
       </defs>
       <use xlink:href="#ArialUnicodeMS-69"/>
       <use xlink:href="#ArialUnicodeMS-6d" x="22.216797"/>
       <use xlink:href="#ArialUnicodeMS-61" x="105.517578"/>
       <use xlink:href="#ArialUnicodeMS-67" x="161.132812"/>
       <use xlink:href="#ArialUnicodeMS-65" x="216.748047"/>
       <use xlink:href="#ArialUnicodeMS-5f" x="272.363281"/>
       <use xlink:href="#ArialUnicodeMS-6e" x="322.363281"/>
       <use xlink:href="#ArialUnicodeMS-75" x="377.978516"/>
       <use xlink:href="#ArialUnicodeMS-6d" x="433.59375"/>
       <use xlink:href="#ArialUnicodeMS-73" x="516.894531"/>
      </g>
     </g>
    </g>
    <g id="xtick_2">
     <g id="line2d_2">
      <g>
       <use xlink:href="#mfb9257bf24" x="146.601562" y="254.973125" style="stroke: #000000; stroke-width: 0.8"/>
      </g>
     </g>
     <g id="text_2">
      <!-- desc_len -->
      <g transform="translate(149.184375 301.43875)rotate(-90)scale(0.1 -0.1)">
       <defs>
        <path id="ArialUnicodeMS-64" d="M 3109 0 
L 2584 0 
L 2584 422 
L 2572 422 
Q 2269 -78 1656 -78 
Q 1047 -78 639 405 
Q 231 888 231 1656 
Q 231 2459 615 2925 
Q 1000 3391 1631 3391 
Q 2225 3391 2534 2938 
L 2547 2938 
L 2547 4581 
L 3109 4581 
L 3109 0 
z
M 1716 384 
Q 2084 384 2340 687 
Q 2597 991 2597 1606 
Q 2597 2213 2362 2572 
Q 2128 2931 1691 2931 
Q 1253 2931 1029 2579 
Q 806 2228 806 1656 
Q 806 1244 926 958 
Q 1047 672 1262 528 
Q 1478 384 1716 384 
z
" transform="scale(0.015625)"/>
        <path id="ArialUnicodeMS-63" d="M 3144 1147 
Q 3034 513 2643 217 
Q 2253 -78 1759 -78 
Q 1038 -78 644 395 
Q 250 869 250 1650 
Q 250 2297 476 2686 
Q 703 3075 1043 3233 
Q 1384 3391 1759 3391 
Q 2272 3391 2636 3125 
Q 3000 2859 3084 2344 
L 2541 2259 
Q 2456 2594 2267 2762 
Q 2078 2931 1784 2931 
Q 1313 2931 1069 2597 
Q 825 2263 825 1663 
Q 825 1050 1064 717 
Q 1303 384 1753 384 
Q 2116 384 2323 592 
Q 2531 800 2584 1216 
L 3144 1147 
z
" transform="scale(0.015625)"/>
        <path id="ArialUnicodeMS-6c" d="M 991 0 
L 428 0 
L 428 4581 
L 991 4581 
L 991 0 
z
" transform="scale(0.015625)"/>
       </defs>
       <use xlink:href="#ArialUnicodeMS-64"/>
       <use xlink:href="#ArialUnicodeMS-65" x="55.615234"/>
       <use xlink:href="#ArialUnicodeMS-73" x="111.230469"/>
       <use xlink:href="#ArialUnicodeMS-63" x="161.230469"/>
       <use xlink:href="#ArialUnicodeMS-5f" x="211.230469"/>
       <use xlink:href="#ArialUnicodeMS-6c" x="261.230469"/>
       <use xlink:href="#ArialUnicodeMS-65" x="283.447266"/>
       <use xlink:href="#ArialUnicodeMS-6e" x="339.0625"/>
      </g>
     </g>
    </g>
    <g id="xtick_3">
     <g id="line2d_3">
      <g>
       <use xlink:href="#mfb9257bf24" x="213.121354" y="254.973125" style="stroke: #000000; stroke-width: 0.8"/>
      </g>
     </g>
     <g id="text_3">
      <!-- title_len -->
      <g transform="translate(215.704167 295.877813)rotate(-90)scale(0.1 -0.1)">
       <defs>
        <path id="ArialUnicodeMS-74" d="M 1722 6 
Q 1472 -44 1300 -44 
Q 931 -44 762 86 
Q 594 216 556 416 
Q 519 616 519 972 
L 519 2881 
L 109 2881 
L 109 3316 
L 519 3316 
L 519 4141 
L 1081 4481 
L 1081 3316 
L 1644 3316 
L 1644 2881 
L 1081 2881 
L 1081 941 
Q 1081 691 1132 586 
Q 1184 481 1394 481 
Q 1516 481 1644 506 
L 1722 6 
z
" transform="scale(0.015625)"/>
       </defs>
       <use xlink:href="#ArialUnicodeMS-74"/>
       <use xlink:href="#ArialUnicodeMS-69" x="27.783203"/>
       <use xlink:href="#ArialUnicodeMS-74" x="50"/>
       <use xlink:href="#ArialUnicodeMS-6c" x="77.783203"/>
       <use xlink:href="#ArialUnicodeMS-65" x="100"/>
       <use xlink:href="#ArialUnicodeMS-5f" x="155.615234"/>
       <use xlink:href="#ArialUnicodeMS-6c" x="205.615234"/>
       <use xlink:href="#ArialUnicodeMS-65" x="227.832031"/>
       <use xlink:href="#ArialUnicodeMS-6e" x="283.447266"/>
      </g>
     </g>
    </g>
    <g id="xtick_4">
     <g id="line2d_4">
      <g>
       <use xlink:href="#mfb9257bf24" x="279.641146" y="254.973125" style="stroke: #000000; stroke-width: 0.8"/>
      </g>
     </g>
     <g id="text_4">
      <!-- hashTags_level -->
      <g transform="translate(282.170052 331.45125)rotate(-90)scale(0.1 -0.1)">
       <defs>
        <path id="ArialUnicodeMS-68" d="M 3138 0 
L 2572 0 
L 2572 2094 
Q 2572 2500 2397 2703 
Q 2222 2906 1875 2906 
Q 1531 2906 1261 2667 
Q 991 2428 991 1813 
L 991 0 
L 428 0 
L 428 4581 
L 991 4581 
L 991 2938 
Q 1391 3391 1991 3391 
Q 2313 3391 2606 3259 
Q 2900 3128 3019 2856 
Q 3138 2584 3138 2100 
L 3138 0 
z
" transform="scale(0.015625)"/>
        <path id="ArialUnicodeMS-54" d="M 3769 4038 
L 2253 4038 
L 2253 0 
L 1644 0 
L 1644 4038 
L 141 4038 
L 141 4581 
L 3769 4581 
L 3769 4038 
z
" transform="scale(0.015625)"/>
        <path id="ArialUnicodeMS-76" d="M 3122 3316 
L 1869 0 
L 1344 0 
L 84 3316 
L 678 3316 
L 1363 1397 
Q 1556 853 1594 659 
L 1606 659 
Q 1656 859 1778 1197 
L 2547 3316 
L 3122 3316 
z
" transform="scale(0.015625)"/>
       </defs>
       <use xlink:href="#ArialUnicodeMS-68"/>
       <use xlink:href="#ArialUnicodeMS-61" x="55.615234"/>
       <use xlink:href="#ArialUnicodeMS-73" x="111.230469"/>
       <use xlink:href="#ArialUnicodeMS-68" x="161.230469"/>
       <use xlink:href="#ArialUnicodeMS-54" x="216.845703"/>
       <use xlink:href="#ArialUnicodeMS-61" x="277.929688"/>
       <use xlink:href="#ArialUnicodeMS-67" x="333.544922"/>
       <use xlink:href="#ArialUnicodeMS-73" x="389.160156"/>
       <use xlink:href="#ArialUnicodeMS-5f" x="439.160156"/>
       <use xlink:href="#ArialUnicodeMS-6c" x="489.160156"/>
       <use xlink:href="#ArialUnicodeMS-65" x="511.376953"/>
       <use xlink:href="#ArialUnicodeMS-76" x="566.992188"/>
       <use xlink:href="#ArialUnicodeMS-65" x="616.992188"/>
       <use xlink:href="#ArialUnicodeMS-6c" x="672.607422"/>
      </g>
     </g>
    </g>
    <g id="xtick_5">
     <g id="line2d_5">
      <g>
       <use xlink:href="#mfb9257bf24" x="346.160937" y="254.973125" style="stroke: #000000; stroke-width: 0.8"/>
      </g>
     </g>
     <g id="text_5">
      <!-- emoji_level -->
      <g transform="translate(348.694531 311.434063)rotate(-90)scale(0.1 -0.1)">
       <defs>
        <path id="ArialUnicodeMS-6f" d="M 1778 3391 
Q 2450 3391 2892 2953 
Q 3334 2516 3334 1709 
Q 3334 731 2856 326 
Q 2378 -78 1778 -78 
Q 1150 -78 687 337 
Q 225 753 225 1656 
Q 225 2531 672 2961 
Q 1119 3391 1778 3391 
z
M 1778 384 
Q 2259 384 2509 740 
Q 2759 1097 2759 1678 
Q 2759 2300 2476 2615 
Q 2194 2931 1778 2931 
Q 1350 2931 1075 2611 
Q 800 2291 800 1656 
Q 800 1025 1079 704 
Q 1359 384 1778 384 
z
" transform="scale(0.015625)"/>
        <path id="ArialUnicodeMS-6a" d="M 991 -178 
Q 991 -506 947 -742 
Q 903 -978 720 -1158 
Q 538 -1338 153 -1338 
Q -69 -1338 -288 -1281 
L -178 -806 
Q -22 -850 84 -850 
Q 266 -850 347 -728 
Q 428 -606 428 -166 
L 428 3316 
L 991 3316 
L 991 -178 
z
M 991 3944 
L 428 3944 
L 428 4581 
L 991 4581 
L 991 3944 
z
" transform="scale(0.015625)"/>
       </defs>
       <use xlink:href="#ArialUnicodeMS-65"/>
       <use xlink:href="#ArialUnicodeMS-6d" x="55.615234"/>
       <use xlink:href="#ArialUnicodeMS-6f" x="138.916016"/>
       <use xlink:href="#ArialUnicodeMS-6a" x="194.53125"/>
       <use xlink:href="#ArialUnicodeMS-69" x="216.748047"/>
       <use xlink:href="#ArialUnicodeMS-5f" x="238.964844"/>
       <use xlink:href="#ArialUnicodeMS-6c" x="288.964844"/>
       <use xlink:href="#ArialUnicodeMS-65" x="311.181641"/>
       <use xlink:href="#ArialUnicodeMS-76" x="366.796875"/>
       <use xlink:href="#ArialUnicodeMS-65" x="416.796875"/>
       <use xlink:href="#ArialUnicodeMS-6c" x="472.412109"/>
      </g>
     </g>
    </g>
    <g id="xtick_6">
     <g id="line2d_6">
      <g>
       <use xlink:href="#mfb9257bf24" x="412.680729" y="254.973125" style="stroke: #000000; stroke-width: 0.8"/>
      </g>
     </g>
     <g id="text_6">
      <!-- hours -->
      <g transform="translate(415.263542 286.985625)rotate(-90)scale(0.1 -0.1)">
       <defs>
        <path id="ArialUnicodeMS-72" d="M 2216 3213 
L 2022 2694 
Q 1813 2816 1613 2816 
Q 1297 2816 1134 2533 
Q 972 2250 972 1741 
L 972 0 
L 409 0 
L 409 3316 
L 922 3316 
L 922 2816 
L 934 2816 
Q 1203 3391 1638 3391 
Q 1925 3391 2216 3213 
z
" transform="scale(0.015625)"/>
       </defs>
       <use xlink:href="#ArialUnicodeMS-68"/>
       <use xlink:href="#ArialUnicodeMS-6f" x="55.615234"/>
       <use xlink:href="#ArialUnicodeMS-75" x="111.230469"/>
       <use xlink:href="#ArialUnicodeMS-72" x="166.845703"/>
       <use xlink:href="#ArialUnicodeMS-73" x="200.146484"/>
      </g>
     </g>
    </g>
   </g>
   <g id="matplotlib.axis_2">
    <g id="ytick_1">
     <g id="line2d_7">
      <defs>
       <path id="m9abfa93cbb" d="M 0 0 
L -3.5 0 
" style="stroke: #000000; stroke-width: 0.8"/>
      </defs>
      <g>
       <use xlink:href="#m9abfa93cbb" x="46.821875" y="242.217954" style="stroke: #000000; stroke-width: 0.8"/>
      </g>
     </g>
     <g id="text_7">
      <!-- 0.00 -->
      <g transform="translate(20.360938 245.796861)scale(0.1 -0.1)">
       <defs>
        <path id="ArialUnicodeMS-30" d="M 1778 4603 
Q 3272 4603 3272 2259 
Q 3272 1075 2886 498 
Q 2500 -78 1778 -78 
Q 288 -78 288 2259 
Q 288 3444 673 4023 
Q 1059 4603 1778 4603 
z
M 1778 384 
Q 2231 384 2462 823 
Q 2694 1263 2694 2259 
Q 2694 2953 2592 3351 
Q 2491 3750 2286 3945 
Q 2081 4141 1772 4141 
Q 1319 4141 1091 3694 
Q 863 3247 863 2259 
Q 863 1575 966 1175 
Q 1069 775 1272 579 
Q 1475 384 1778 384 
z
" transform="scale(0.015625)"/>
        <path id="ArialUnicodeMS-2e" d="M 1209 0 
L 569 0 
L 569 641 
L 1209 641 
L 1209 0 
z
" transform="scale(0.015625)"/>
       </defs>
       <use xlink:href="#ArialUnicodeMS-30"/>
       <use xlink:href="#ArialUnicodeMS-2e" x="55.615234"/>
       <use xlink:href="#ArialUnicodeMS-30" x="83.398438"/>
       <use xlink:href="#ArialUnicodeMS-30" x="139.013672"/>
      </g>
     </g>
    </g>
    <g id="ytick_2">
     <g id="line2d_8">
      <g>
       <use xlink:href="#m9abfa93cbb" x="46.821875" y="195.696768" style="stroke: #000000; stroke-width: 0.8"/>
      </g>
     </g>
     <g id="text_8">
      <!-- 0.02 -->
      <g transform="translate(20.360938 199.275674)scale(0.1 -0.1)">
       <defs>
        <path id="ArialUnicodeMS-32" d="M 3231 0 
L 197 0 
Q 197 388 467 784 
Q 738 1181 1478 1778 
Q 1931 2141 2287 2539 
Q 2644 2938 2644 3341 
Q 2644 3688 2398 3914 
Q 2153 4141 1778 4141 
Q 1400 4141 1144 3908 
Q 888 3675 884 3213 
L 306 3278 
Q 359 3922 764 4262 
Q 1169 4603 1791 4603 
Q 2466 4603 2842 4229 
Q 3219 3856 3219 3328 
Q 3219 2888 2901 2436 
Q 2584 1984 1638 1228 
Q 1141 831 978 544 
L 3231 544 
L 3231 0 
z
" transform="scale(0.015625)"/>
       </defs>
       <use xlink:href="#ArialUnicodeMS-30"/>
       <use xlink:href="#ArialUnicodeMS-2e" x="55.615234"/>
       <use xlink:href="#ArialUnicodeMS-30" x="83.398438"/>
       <use xlink:href="#ArialUnicodeMS-32" x="139.013672"/>
      </g>
     </g>
    </g>
    <g id="ytick_3">
     <g id="line2d_9">
      <g>
       <use xlink:href="#m9abfa93cbb" x="46.821875" y="149.175581" style="stroke: #000000; stroke-width: 0.8"/>
      </g>
     </g>
     <g id="text_9">
      <!-- 0.04 -->
      <g transform="translate(20.360938 152.754487)scale(0.1 -0.1)">
       <defs>
        <path id="ArialUnicodeMS-34" d="M 3263 1094 
L 2644 1094 
L 2644 0 
L 2081 0 
L 2081 1094 
L 97 1094 
L 97 1613 
L 2181 4581 
L 2644 4581 
L 2644 1613 
L 3263 1613 
L 3263 1094 
z
M 2081 1613 
L 2081 3681 
L 2069 3681 
L 647 1613 
L 2081 1613 
z
" transform="scale(0.015625)"/>
       </defs>
       <use xlink:href="#ArialUnicodeMS-30"/>
       <use xlink:href="#ArialUnicodeMS-2e" x="55.615234"/>
       <use xlink:href="#ArialUnicodeMS-30" x="83.398438"/>
       <use xlink:href="#ArialUnicodeMS-34" x="139.013672"/>
      </g>
     </g>
    </g>
    <g id="ytick_4">
     <g id="line2d_10">
      <g>
       <use xlink:href="#m9abfa93cbb" x="46.821875" y="102.654394" style="stroke: #000000; stroke-width: 0.8"/>
      </g>
     </g>
     <g id="text_10">
      <!-- 0.06 -->
      <g transform="translate(20.360938 106.2333)scale(0.1 -0.1)">
       <defs>
        <path id="ArialUnicodeMS-36" d="M 838 2363 
Q 1225 2969 1941 2969 
Q 2503 2969 2897 2553 
Q 3291 2138 3291 1491 
Q 3291 838 2898 380 
Q 2506 -78 1856 -78 
Q 1197 -78 733 409 
Q 269 897 269 2144 
Q 269 3369 689 3986 
Q 1109 4603 1906 4603 
Q 2422 4603 2778 4315 
Q 3134 4028 3213 3463 
L 2650 3413 
Q 2497 4141 1875 4141 
Q 1444 4141 1134 3712 
Q 825 3284 825 2363 
L 838 2363 
z
M 1844 384 
Q 2231 384 2472 696 
Q 2713 1009 2713 1453 
Q 2713 1897 2472 2187 
Q 2231 2478 1825 2478 
Q 1453 2478 1184 2204 
Q 916 1931 916 1484 
Q 916 1028 1180 706 
Q 1444 384 1844 384 
z
" transform="scale(0.015625)"/>
       </defs>
       <use xlink:href="#ArialUnicodeMS-30"/>
       <use xlink:href="#ArialUnicodeMS-2e" x="55.615234"/>
       <use xlink:href="#ArialUnicodeMS-30" x="83.398438"/>
       <use xlink:href="#ArialUnicodeMS-36" x="139.013672"/>
      </g>
     </g>
    </g>
    <g id="ytick_5">
     <g id="line2d_11">
      <g>
       <use xlink:href="#m9abfa93cbb" x="46.821875" y="56.133207" style="stroke: #000000; stroke-width: 0.8"/>
      </g>
     </g>
     <g id="text_11">
      <!-- 0.08 -->
      <g transform="translate(20.360938 59.712114)scale(0.1 -0.1)">
       <defs>
        <path id="ArialUnicodeMS-38" d="M 2425 2478 
Q 3284 2203 3284 1306 
Q 3284 716 2862 319 
Q 2441 -78 1778 -78 
Q 1109 -78 689 322 
Q 269 722 269 1325 
Q 269 1759 505 2084 
Q 741 2409 1141 2478 
L 1141 2491 
Q 453 2703 453 3419 
Q 453 3925 815 4264 
Q 1178 4603 1766 4603 
Q 2363 4603 2730 4253 
Q 3097 3903 3097 3406 
Q 3097 2731 2425 2491 
L 2425 2478 
z
M 1778 2700 
Q 2094 2700 2308 2901 
Q 2522 3103 2522 3406 
Q 2522 3716 2305 3928 
Q 2088 4141 1772 4141 
Q 1450 4141 1240 3931 
Q 1031 3722 1031 3438 
Q 1031 3097 1247 2898 
Q 1463 2700 1778 2700 
z
M 1778 384 
Q 2175 384 2440 640 
Q 2706 897 2706 1306 
Q 2706 1716 2432 1978 
Q 2159 2241 1766 2241 
Q 1356 2241 1100 1970 
Q 844 1700 844 1319 
Q 844 922 1108 653 
Q 1372 384 1778 384 
z
" transform="scale(0.015625)"/>
       </defs>
       <use xlink:href="#ArialUnicodeMS-30"/>
       <use xlink:href="#ArialUnicodeMS-2e" x="55.615234"/>
       <use xlink:href="#ArialUnicodeMS-30" x="83.398438"/>
       <use xlink:href="#ArialUnicodeMS-38" x="139.013672"/>
      </g>
     </g>
    </g>
    <g id="text_12">
     <!-- 平均精度下降 -->
     <g transform="translate(14.36875 168.38125)rotate(-90)scale(0.1 -0.1)">
      <defs>
       <path id="ArialUnicodeMS-5e73" d="M 5888 1875 
L 3419 1875 
L 3419 -447 
L 2931 -447 
L 2931 1875 
L 453 1875 
L 453 2344 
L 2931 2344 
L 2931 4569 
L 856 4569 
L 856 5038 
L 5453 5038 
L 5453 4569 
L 3419 4569 
L 3419 2344 
L 5888 2344 
L 5888 1875 
z
M 5241 4197 
Q 4981 3381 4134 2522 
L 3700 2803 
Q 4584 3606 4819 4422 
L 5241 4197 
z
M 2528 2753 
L 2081 2509 
Q 1700 3606 953 4153 
L 1428 4384 
Q 2109 3784 2528 2753 
z
" transform="scale(0.015625)"/>
       <path id="ArialUnicodeMS-5747" d="M 5797 4459 
Q 5772 1716 5730 978 
Q 5688 241 5458 -81 
Q 5228 -403 4744 -403 
Q 4606 -403 4006 -306 
L 3847 250 
Q 4413 128 4788 128 
Q 5022 128 5133 340 
Q 5244 553 5283 1968 
Q 5322 3384 5306 3994 
L 3347 3994 
Q 3056 3181 2559 2650 
L 2156 2944 
Q 2253 3025 2344 3128 
L 1728 3128 
L 1728 1441 
L 2541 1766 
L 2541 1259 
L 641 538 
L 319 978 
L 1241 1288 
L 1241 3128 
L 488 3128 
L 488 3597 
L 1241 3597 
L 1241 5100 
L 1728 5100 
L 1728 3597 
L 2413 3597 
L 2413 3231 
Q 3006 4097 3194 5319 
L 3675 5166 
Q 3572 4644 3494 4459 
L 5797 4459 
z
M 4813 2566 
L 2888 2566 
L 2888 3041 
L 4813 3041 
L 4813 2566 
z
M 4959 1900 
L 4959 1409 
Q 4266 1156 2706 709 
L 2431 1153 
Q 4391 1697 4959 1900 
z
" transform="scale(0.015625)"/>
       <path id="ArialUnicodeMS-7cbe" d="M 6106 2944 
L 2638 2944 
L 2638 3413 
L 4038 3413 
L 4038 3719 
L 2963 3719 
L 2963 4159 
L 4038 4159 
L 4038 4441 
L 2778 4441 
L 2772 4575 
Q 2538 3791 2284 3463 
L 1931 3628 
L 1931 3263 
L 2584 3263 
L 2584 2797 
L 1931 2797 
L 1931 2394 
L 2081 2516 
Q 2644 1991 2881 1434 
L 2472 1234 
Q 2338 1638 1931 2053 
L 1931 -422 
L 1447 -422 
L 1447 1684 
Q 975 856 622 550 
L 288 891 
Q 1063 1738 1416 2797 
L 538 2797 
L 538 3263 
L 1447 3263 
L 1447 5331 
L 1925 5331 
L 1925 3725 
Q 2247 4241 2413 4872 
L 2778 4703 
L 2778 4909 
L 4038 4909 
L 4038 5356 
L 4525 5356 
L 4525 4909 
L 5863 4909 
L 5863 4441 
L 4525 4441 
L 4525 4159 
L 5644 4159 
L 5644 3719 
L 4525 3719 
L 4525 3413 
L 6106 3413 
L 6106 2944 
z
M 1375 3616 
L 928 3438 
Q 909 4059 469 4684 
L 891 4850 
Q 1288 4291 1375 3616 
z
M 5672 213 
Q 5672 0 5528 -136 
Q 5384 -272 5172 -281 
L 4519 -306 
L 4391 172 
L 5025 159 
Q 5184 159 5184 319 
L 5184 628 
L 3425 628 
L 3425 -422 
L 2938 -422 
L 2938 2638 
L 5672 2638 
L 5672 213 
z
M 5184 1875 
L 5184 2169 
L 3425 2169 
L 3425 1875 
L 5184 1875 
z
M 5184 1094 
L 5184 1409 
L 3425 1409 
L 3425 1094 
L 5184 1094 
z
" transform="scale(0.015625)"/>
       <path id="ArialUnicodeMS-5ea6" d="M 5913 4269 
L 1363 4269 
L 1363 2278 
Q 1363 1144 1180 528 
Q 997 -88 684 -434 
L 294 -147 
Q 669 378 773 940 
Q 878 1503 878 2350 
L 878 4738 
L 3200 4738 
L 3200 5288 
L 3706 5288 
L 3706 4738 
L 5913 4738 
L 5913 4269 
z
M 5778 3194 
L 4728 3194 
L 4728 2303 
L 2350 2303 
L 2350 3194 
L 1472 3194 
L 1472 3659 
L 2350 3659 
L 2350 4147 
L 2828 4147 
L 2828 3659 
L 4244 3659 
L 4244 4147 
L 4728 4147 
L 4728 3659 
L 5778 3659 
L 5778 3194 
z
M 4244 2747 
L 4244 3194 
L 2834 3194 
L 2834 2747 
L 4244 2747 
z
M 6081 72 
L 5819 -397 
Q 4484 -216 3531 263 
Q 2494 -234 1388 -397 
L 1088 44 
Q 2078 134 3034 550 
Q 2509 934 2113 1528 
L 1625 1528 
L 1625 1972 
L 5159 1972 
L 5159 1544 
Q 4819 1025 4044 538 
Q 4963 166 6081 72 
z
M 4544 1528 
L 2700 1528 
Q 3125 1038 3531 781 
Q 4194 1159 4544 1528 
z
" transform="scale(0.015625)"/>
       <path id="ArialUnicodeMS-4e0b" d="M 5863 4453 
L 3200 4453 
L 3200 -378 
L 2694 -378 
L 2694 4453 
L 538 4453 
L 538 4941 
L 5863 4941 
L 5863 4453 
z
M 5403 1709 
L 5044 1331 
Q 4494 2084 3384 2700 
L 3681 3028 
Q 4625 2644 5403 1709 
z
" transform="scale(0.015625)"/>
       <path id="ArialUnicodeMS-964d" d="M 6113 2656 
L 5850 2222 
Q 4938 2403 4141 3009 
Q 3450 2575 2394 2278 
L 2150 2694 
Q 3259 2997 3788 3359 
Q 3497 3672 3316 4000 
Q 2800 3316 2613 3156 
L 2188 3438 
Q 3081 4234 3419 5416 
L 3878 5228 
Q 3813 5009 3706 4769 
L 5453 4769 
L 5453 4325 
Q 5169 3813 4531 3303 
Q 5122 2859 6113 2656 
z
M 4863 4306 
L 3694 4306 
Q 3863 3972 4166 3616 
Q 4609 3966 4863 4306 
z
M 1734 3219 
Q 2363 2516 2363 1881 
Q 2363 1063 1656 1063 
Q 1469 1063 1253 1106 
L 1131 1522 
L 1131 -416 
L 647 -416 
L 647 5031 
L 2363 5031 
L 2363 4634 
L 1734 3219 
z
M 1131 1619 
Q 1413 1522 1575 1522 
Q 1894 1522 1894 1844 
Q 1894 2447 1197 3097 
Q 1359 3503 1831 4569 
L 1131 4569 
L 1131 1619 
z
M 5831 594 
L 4428 594 
L 4428 -434 
L 3922 -434 
L 3922 594 
L 2259 594 
L 2259 1056 
L 2681 1056 
L 2681 1778 
L 2566 1778 
L 2566 2241 
L 3922 2241 
L 3922 2688 
L 4428 2688 
L 4428 2241 
L 5491 2241 
L 5491 1778 
L 4428 1778 
L 4428 1056 
L 5831 1056 
L 5831 594 
z
M 3922 1056 
L 3922 1778 
L 3175 1778 
L 3175 1056 
L 3922 1056 
z
" transform="scale(0.015625)"/>
      </defs>
      <use xlink:href="#ArialUnicodeMS-5e73"/>
      <use xlink:href="#ArialUnicodeMS-5747" x="100"/>
      <use xlink:href="#ArialUnicodeMS-7cbe" x="200"/>
      <use xlink:href="#ArialUnicodeMS-5ea6" x="300"/>
      <use xlink:href="#ArialUnicodeMS-4e0b" x="400"/>
      <use xlink:href="#ArialUnicodeMS-964d" x="500"/>
     </g>
    </g>
   </g>
   <g id="LineCollection_1">
    <path d="M 80.081771 68.76543 
L 80.081771 32.388636 
" clip-path="url(#p57ec98011e)" style="fill: none; stroke: #000000; stroke-width: 1.5"/>
    <path d="M 146.601562 147.417695 
L 146.601562 88.089056 
" clip-path="url(#p57ec98011e)" style="fill: none; stroke: #000000; stroke-width: 1.5"/>
    <path d="M 213.121354 226.364456 
L 213.121354 204.707069 
" clip-path="url(#p57ec98011e)" style="fill: none; stroke: #000000; stroke-width: 1.5"/>
    <path d="M 279.641146 244.373864 
L 279.641146 232.52825 
" clip-path="url(#p57ec98011e)" style="fill: none; stroke: #000000; stroke-width: 1.5"/>
    <path d="M 346.160937 242.217954 
L 346.160937 242.217954 
" clip-path="url(#p57ec98011e)" style="fill: none; stroke: #000000; stroke-width: 1.5"/>
    <path d="M 412.680729 236.73939 
L 412.680729 225.095133 
" clip-path="url(#p57ec98011e)" style="fill: none; stroke: #000000; stroke-width: 1.5"/>
   </g>
   <g id="patch_9">
    <path d="M 46.821875 254.973125 
L 46.821875 21.789375 
" style="fill: none; stroke: #000000; stroke-width: 0.8; stroke-linejoin: miter; stroke-linecap: square"/>
   </g>
   <g id="patch_10">
    <path d="M 445.940625 254.973125 
L 445.940625 21.789375 
" style="fill: none; stroke: #000000; stroke-width: 0.8; stroke-linejoin: miter; stroke-linecap: square"/>
   </g>
   <g id="patch_11">
    <path d="M 46.821875 254.973125 
L 445.940625 254.973125 
" style="fill: none; stroke: #000000; stroke-width: 0.8; stroke-linejoin: miter; stroke-linecap: square"/>
   </g>
   <g id="patch_12">
    <path d="M 46.821875 21.789375 
L 445.940625 21.789375 
" style="fill: none; stroke: #000000; stroke-width: 0.8; stroke-linejoin: miter; stroke-linecap: square"/>
   </g>
   <g id="text_13">
    <!-- 模型中特征重要性排序 -->
    <g transform="translate(186.38125 15.789375)scale(0.12 -0.12)">
     <defs>
      <path id="ArialUnicodeMS-6a21" d="M 5906 4213 
L 5063 4213 
L 5063 3809 
L 4575 3809 
L 4575 4213 
L 3469 4213 
L 3469 3809 
L 2981 3809 
L 2981 4213 
L 2131 4213 
L 2131 4678 
L 2981 4678 
L 2981 5300 
L 3469 5300 
L 3469 4678 
L 4575 4678 
L 4575 5300 
L 5063 5300 
L 5063 4678 
L 5906 4678 
L 5906 4213 
z
M 2503 1947 
L 2088 1684 
Q 1891 2191 1716 2394 
L 1716 -441 
L 1222 -441 
L 1222 2088 
Q 1066 1534 588 941 
L 197 1281 
Q 1044 2356 1216 3572 
L 397 3572 
L 397 4038 
L 1209 4038 
L 1209 5281 
L 1716 5281 
L 1716 4038 
L 2406 4038 
L 2406 3572 
L 1716 3572 
L 1716 2900 
L 1856 2969 
Q 2316 2422 2503 1947 
z
M 6094 -25 
L 5838 -422 
Q 4453 -172 4025 838 
Q 3584 -53 2241 -428 
L 1972 -6 
Q 3103 253 3506 856 
L 2247 856 
L 2247 1325 
L 3706 1325 
L 3788 1684 
L 2553 1684 
L 2553 3675 
L 5491 3675 
L 5491 1684 
L 4250 1684 
Q 4222 1453 4178 1325 
L 5791 1325 
L 5791 856 
L 4519 856 
Q 4981 197 6094 -25 
z
M 4984 2925 
L 4984 3206 
L 3059 3206 
L 3059 2925 
L 4984 2925 
z
M 4984 2150 
L 4984 2456 
L 3059 2456 
L 3059 2150 
L 4984 2150 
z
" transform="scale(0.015625)"/>
      <path id="ArialUnicodeMS-578b" d="M 5606 2303 
Q 5606 1791 5172 1791 
L 4409 1791 
L 4206 2278 
Q 4641 2253 4716 2259 
L 5019 2278 
Q 5119 2288 5119 2456 
L 5119 5294 
L 5606 5294 
L 5606 2303 
z
M 4019 3188 
L 3284 3188 
L 3284 1906 
L 2797 1906 
L 2797 3188 
L 1925 3188 
Q 1897 2078 744 1550 
L 378 1894 
Q 922 2128 1201 2484 
Q 1481 2841 1453 3188 
L 609 3188 
L 609 3653 
L 1447 3653 
L 1447 4525 
L 756 4525 
L 756 4991 
L 3828 4991 
L 3828 4525 
L 3284 4525 
L 3284 3653 
L 4019 3653 
L 4019 3188 
z
M 2797 3653 
L 2797 4525 
L 1931 4525 
L 1931 3653 
L 2797 3653 
z
M 4603 2606 
L 4116 2606 
L 4116 4891 
L 4603 4891 
L 4603 2606 
z
M 6100 -159 
L 378 -159 
L 378 313 
L 2969 313 
L 2969 878 
L 984 878 
L 984 1344 
L 2969 1344 
L 2969 1778 
L 3456 1778 
L 3456 1344 
L 5472 1344 
L 5472 878 
L 3456 878 
L 3456 313 
L 6100 313 
L 6100 -159 
z
" transform="scale(0.015625)"/>
      <path id="ArialUnicodeMS-4e2d" d="M 5503 1306 
L 4997 1306 
L 4997 1741 
L 3431 1741 
L 3431 -416 
L 2925 -416 
L 2925 1741 
L 1356 1741 
L 1344 1281 
L 838 1281 
L 838 4116 
L 2925 4116 
L 2925 5288 
L 3438 5288 
L 3425 4116 
L 5503 4116 
L 5503 1306 
z
M 4997 2209 
L 4997 3647 
L 3431 3647 
L 3431 2209 
L 4997 2209 
z
M 2925 2209 
L 2925 3647 
L 1344 3647 
L 1344 2209 
L 2925 2209 
z
" transform="scale(0.015625)"/>
      <path id="ArialUnicodeMS-7279" d="M 5913 2700 
L 2772 2700 
L 2772 3169 
L 4063 3169 
L 4063 4025 
L 3009 4025 
L 3009 4494 
L 4063 4494 
L 4063 5319 
L 4550 5319 
L 4550 4494 
L 5684 4494 
L 5684 4025 
L 4550 4025 
L 4550 3169 
L 5913 3169 
L 5913 2700 
z
M 2741 2144 
L 2113 1869 
L 2113 -434 
L 1625 -434 
L 1625 1644 
L 838 1306 
L 481 1703 
L 1625 2175 
L 1625 3475 
L 1178 3475 
Q 1081 3094 769 2491 
L 319 2725 
Q 819 3531 916 4609 
L 1381 4481 
Q 1369 4263 1313 3944 
L 1625 3944 
L 1625 5281 
L 2113 5281 
L 2113 3944 
L 2688 3944 
L 2688 3475 
L 2113 3475 
L 2113 2413 
L 2741 2656 
L 2741 2144 
z
M 6041 1588 
L 5300 1588 
L 5300 191 
Q 5300 -88 5147 -239 
Q 4994 -391 4581 -397 
L 4109 -403 
L 3897 91 
Q 4356 56 4534 56 
Q 4813 56 4813 231 
L 4813 1588 
L 2644 1588 
L 2644 2053 
L 4813 2053 
L 4813 2631 
L 5300 2631 
L 5300 2053 
L 6041 2053 
L 6041 1588 
z
M 4275 691 
L 3903 378 
Q 3453 963 2888 1184 
L 3219 1497 
Q 3775 1297 4275 691 
z
" transform="scale(0.015625)"/>
      <path id="ArialUnicodeMS-5f81" d="M 2156 5088 
Q 1619 4128 716 3456 
L 366 3816 
Q 1175 4397 1716 5350 
L 2156 5088 
z
M 6106 -213 
L 1925 -213 
L 1925 256 
L 2675 256 
L 2675 3034 
L 3181 3034 
L 3181 256 
L 3928 256 
L 3928 4250 
L 2278 4250 
L 2278 4716 
L 5906 4716 
L 5906 4250 
L 4453 4250 
L 4453 2584 
L 5594 2584 
L 5594 2119 
L 4453 2119 
L 4453 256 
L 6106 256 
L 6106 -213 
z
M 2369 3566 
Q 2091 3141 1656 2706 
L 1656 -447 
L 1172 -447 
L 1172 2291 
Q 831 2013 556 1838 
L 213 2175 
Q 1366 2966 1941 3872 
L 2369 3566 
z
" transform="scale(0.015625)"/>
      <path id="ArialUnicodeMS-91cd" d="M 6059 -219 
L 441 -219 
L 441 250 
L 3022 250 
L 3022 609 
L 1100 609 
L 1100 1075 
L 3022 1075 
L 3022 1381 
L 1269 1381 
L 1269 3513 
L 3022 3513 
L 3022 3822 
L 653 3822 
L 653 4288 
L 3009 4288 
L 3009 4550 
L 1106 4500 
L 825 4953 
Q 1153 4941 1534 4941 
Q 3866 4941 5247 5319 
L 5528 4916 
Q 4928 4763 3506 4594 
L 3506 4288 
L 5856 4288 
L 5856 3822 
L 3506 3822 
L 3506 3513 
L 5269 3513 
L 5269 1381 
L 3506 1381 
L 3506 1075 
L 5356 1075 
L 5356 609 
L 3506 609 
L 3506 250 
L 6059 250 
L 6059 -219 
z
M 4781 2669 
L 4781 3047 
L 3506 3047 
L 3506 2669 
L 4781 2669 
z
M 3022 2669 
L 3022 3047 
L 1753 3047 
L 1753 2669 
L 3022 2669 
z
M 4781 1825 
L 4781 2228 
L 3506 2228 
L 3506 1825 
L 4781 1825 
z
M 3022 1825 
L 3022 2228 
L 1753 2228 
L 1753 1825 
L 3022 1825 
z
" transform="scale(0.015625)"/>
      <path id="ArialUnicodeMS-8981" d="M 5984 4531 
L 4184 4531 
L 4184 4103 
L 5516 4116 
L 5516 2388 
L 3103 2388 
L 3366 2188 
L 3097 1894 
L 5931 1894 
L 5931 1453 
L 4838 1453 
Q 4563 1025 4172 722 
Q 5056 453 5941 -63 
L 5594 -441 
Q 4638 59 3641 359 
Q 2538 -266 672 -409 
L 331 38 
Q 1875 106 2853 500 
L 2853 513 
L 1344 684 
L 2028 1453 
L 609 1453 
L 609 1894 
L 2463 1894 
L 2931 2394 
L 1050 2394 
L 1050 4116 
L 2363 4103 
L 2363 4531 
L 544 4531 
L 544 4997 
L 5984 4997 
L 5984 4531 
z
M 3688 4122 
L 3688 4531 
L 2859 4531 
L 2859 4122 
L 3688 4122 
z
M 5019 2859 
L 5019 3653 
L 4184 3653 
L 4184 2859 
L 5019 2859 
z
M 3688 2859 
L 3688 3653 
L 2859 3653 
L 2859 2859 
L 3688 2859 
z
M 2363 3653 
L 1528 3653 
L 1528 2859 
L 2350 2859 
L 2363 3653 
z
M 4256 1453 
L 2688 1453 
L 2338 1069 
Q 2922 1006 3566 884 
Q 4041 1178 4256 1453 
z
" transform="scale(0.015625)"/>
      <path id="ArialUnicodeMS-6027" d="M 6088 6 
L 2322 6 
L 2322 475 
L 3928 475 
L 3928 1778 
L 2669 1778 
L 2669 2247 
L 3928 2247 
L 3928 3463 
L 3169 3463 
Q 2978 2881 2606 2375 
L 2113 2597 
Q 2363 2838 2438 3003 
L 2203 2900 
Q 2078 3494 1766 3866 
L 1766 -434 
L 1281 -434 
L 1281 5281 
L 1766 5281 
L 1766 3928 
L 2138 4128 
Q 2413 3813 2597 3347 
Q 2844 3763 2894 4775 
L 3378 4647 
Q 3363 4338 3291 3928 
L 3928 3928 
L 3928 5294 
L 4416 5294 
L 4416 3928 
L 5759 3928 
L 5759 3463 
L 4416 3463 
L 4416 2247 
L 5569 2247 
L 5569 1778 
L 4416 1778 
L 4416 475 
L 6088 475 
L 6088 6 
z
M 1241 3897 
Q 1175 2956 763 2344 
L 347 2528 
Q 819 3406 819 4025 
L 1241 3897 
z
" transform="scale(0.015625)"/>
      <path id="ArialUnicodeMS-6392" d="M 6088 1113 
L 4744 1113 
L 4744 -422 
L 4231 -428 
L 4231 5319 
L 4744 5319 
L 4744 4319 
L 5931 4319 
L 5931 3853 
L 4744 3853 
L 4744 2981 
L 5722 2981 
L 5722 2516 
L 4744 2516 
L 4744 1581 
L 6088 1581 
L 6088 1113 
z
M 3775 3163 
Q 3775 2038 3717 1503 
Q 3659 969 3357 455 
Q 3056 -59 2431 -441 
L 2059 -63 
Q 2938 416 3150 1234 
L 2203 966 
L 1925 1434 
Q 2369 1494 3231 1728 
L 3278 2497 
L 2388 2497 
L 2388 2963 
L 3278 2963 
L 3278 3828 
L 2322 3828 
L 2322 4294 
L 3278 4294 
L 3278 5313 
L 3775 5313 
L 3775 3163 
z
M 2272 2259 
L 1728 2016 
L 1728 63 
Q 1728 -134 1601 -256 
Q 1475 -378 1184 -387 
Q 894 -397 575 -397 
L 459 72 
L 1113 56 
Q 1247 56 1247 244 
L 1247 1831 
L 569 1563 
Q 381 1841 263 1972 
Q 894 2178 1247 2322 
L 1247 3597 
L 422 3597 
L 422 4063 
L 1247 4063 
L 1247 5313 
L 1728 5313 
L 1728 4063 
L 2266 4063 
L 2266 3603 
L 1728 3603 
L 1728 2509 
Q 1984 2628 2272 2725 
L 2272 2259 
z
" transform="scale(0.015625)"/>
      <path id="ArialUnicodeMS-5e8f" d="M 5869 4206 
L 1478 4206 
L 1478 2028 
Q 1478 659 672 -453 
L 288 -153 
Q 991 844 991 2100 
L 991 4672 
L 3244 4672 
L 3244 5319 
L 3731 5319 
L 3731 4672 
L 5869 4672 
L 5869 4206 
z
M 5875 2322 
Q 5800 1719 5472 1063 
L 5013 1184 
L 5306 1856 
L 3994 1856 
L 3994 109 
Q 3994 -400 3250 -391 
L 2713 -384 
L 2553 103 
L 3322 78 
Q 3506 66 3506 288 
L 3506 1856 
L 1703 1856 
L 1703 2322 
L 3653 2322 
Q 3197 2600 2491 2784 
L 2869 3122 
Q 3178 3044 3694 2791 
Q 3903 2834 4588 3334 
L 1984 3334 
L 1984 3803 
L 5306 3803 
L 5306 3391 
Q 4819 2888 4141 2528 
L 4428 2322 
L 5875 2322 
z
" transform="scale(0.015625)"/>
     </defs>
     <use xlink:href="#ArialUnicodeMS-6a21"/>
     <use xlink:href="#ArialUnicodeMS-578b" x="100"/>
     <use xlink:href="#ArialUnicodeMS-4e2d" x="200"/>
     <use xlink:href="#ArialUnicodeMS-7279" x="300"/>
     <use xlink:href="#ArialUnicodeMS-5f81" x="400"/>
     <use xlink:href="#ArialUnicodeMS-91cd" x="500"/>
     <use xlink:href="#ArialUnicodeMS-8981" x="600"/>
     <use xlink:href="#ArialUnicodeMS-6027" x="700"/>
     <use xlink:href="#ArialUnicodeMS-6392" x="800"/>
     <use xlink:href="#ArialUnicodeMS-5e8f" x="900"/>
    </g>
   </g>
  </g>
 </g>
 <defs>
  <clipPath id="p57ec98011e">
   <rect x="46.821875" y="21.789375" width="399.11875" height="233.18375"/>
  </clipPath>
 </defs>
</svg>
