<svg xmlns="http://www.w3.org/2000/svg" xmlns:xlink="http://www.w3.org/1999/xlink" width="563.004" height="433.255" version="1.1" viewBox="0 0 422.253 324.941"><metadata><rdf:RDF xmlns:cc="http://creativecommons.org/ns#" xmlns:dc="http://purl.org/dc/elements/1.1/" xmlns:rdf="http://www.w3.org/1999/02/22-rdf-syntax-ns#"><cc:Work><dc:type rdf:resource="http://purl.org/dc/dcmitype/StillImage"/><dc:date>2023-03-11T14:37:11.471116</dc:date><dc:format>image/svg+xml</dc:format><dc:creator><cc:Agent><dc:title>Matplotlib v3.5.2, https://matplotlib.org/</dc:title></cc:Agent></dc:creator></cc:Work></rdf:RDF></metadata><defs><style type="text/css">*{stroke-linejoin:round;stroke-linecap:butt}</style></defs><g id="figure_1"><g id="patch_1"><path d="M 0 324.941375 L 422.252813 324.941375 L 422.252813 0 L 0 0 z" style="fill:#fff"/></g><g id="axes_1"><g id="patch_2"><path d="M 57.932813 288.441375 L 415.052813 288.441375 L 415.052813 22.329375 L 57.932813 22.329375 z" style="fill:#fff"/></g><g id="patch_3"><path d="M 79.479335 288.441375 L 85.759874 288.441375 L 85.759874 69.872295 L 79.479335 69.872295 z" clip-path="url(#p0534f8c4aa)" style="fill:#1f77b4;opacity:.4"/></g><g id="patch_4"><path d="M 85.759874 288.441375 L 92.040413 288.441375 L 92.040413 280.248003 L 85.759874 280.248003 z" clip-path="url(#p0534f8c4aa)" style="fill:#1f77b4;opacity:.4"/></g><g id="patch_5"><path d="M 92.040413 288.441375 L 98.320952 288.441375 L 98.320952 285.789414 L 92.040413 285.789414 z" clip-path="url(#p0534f8c4aa)" style="fill:#1f77b4;opacity:.4"/></g><g id="patch_6"><path d="M 98.320952 288.441375 L 104.601491 288.441375 L 104.601491 286.976859 L 98.320952 286.976859 z" clip-path="url(#p0534f8c4aa)" style="fill:#1f77b4;opacity:.4"/></g><g id="patch_7"><path d="M 104.601491 288.441375 L 110.88203 288.441375 L 110.88203 287.808071 L 104.601491 287.808071 z" clip-path="url(#p0534f8c4aa)" style="fill:#1f77b4;opacity:.4"/></g><g id="patch_8"><path d="M 110.88203 288.441375 L 117.16257 288.441375 L 117.16257 287.689326 L 110.88203 287.689326 z" clip-path="url(#p0534f8c4aa)" style="fill:#1f77b4;opacity:.4"/></g><g id="patch_9"><path d="M 117.16257 288.441375 L 123.443109 288.441375 L 123.443109 288.085141 L 117.16257 288.085141 z" clip-path="url(#p0534f8c4aa)" style="fill:#1f77b4;opacity:.4"/></g><g id="patch_10"><path d="M 123.443109 288.441375 L 129.723648 288.441375 L 129.723648 287.966397 L 123.443109 287.966397 z" clip-path="url(#p0534f8c4aa)" style="fill:#1f77b4;opacity:.4"/></g><g id="patch_11"><path d="M 129.723648 288.441375 L 136.004187 288.441375 L 136.004187 288.164304 L 129.723648 288.164304 z" clip-path="url(#p0534f8c4aa)" style="fill:#1f77b4;opacity:.4"/></g><g id="patch_12"><path d="M 136.004187 288.441375 L 142.284726 288.441375 L 142.284726 288.203886 L 136.004187 288.203886 z" clip-path="url(#p0534f8c4aa)" style="fill:#1f77b4;opacity:.4"/></g><g id="patch_13"><path d="M 142.284726 288.441375 L 148.565265 288.441375 L 148.565265 288.32263 L 142.284726 288.32263 z" clip-path="url(#p0534f8c4aa)" style="fill:#1f77b4;opacity:.4"/></g><g id="patch_14"><path d="M 148.565265 288.441375 L 154.845804 288.441375 L 154.845804 288.362212 L 148.565265 288.362212 z" clip-path="url(#p0534f8c4aa)" style="fill:#1f77b4;opacity:.4"/></g><g id="patch_15"><path d="M 154.845804 288.441375 L 161.126343 288.441375 L 161.126343 288.401793 L 154.845804 288.401793 z" clip-path="url(#p0534f8c4aa)" style="fill:#1f77b4;opacity:.4"/></g><g id="patch_16"><path d="M 161.126343 288.441375 L 167.406882 288.441375 L 167.406882 288.362212 L 161.126343 288.362212 z" clip-path="url(#p0534f8c4aa)" style="fill:#1f77b4;opacity:.4"/></g><g id="patch_17"><path d="M 167.406882 288.441375 L 173.687421 288.441375 L 173.687421 288.32263 L 167.406882 288.32263 z" clip-path="url(#p0534f8c4aa)" style="fill:#1f77b4;opacity:.4"/></g><g id="patch_18"><path d="M 173.687421 288.441375 L 179.967961 288.441375 L 179.967961 288.401793 L 173.687421 288.401793 z" clip-path="url(#p0534f8c4aa)" style="fill:#1f77b4;opacity:.4"/></g><g id="patch_19"><path d="M 179.967961 288.441375 L 186.2485 288.441375 L 186.2485 288.401793 L 179.967961 288.401793 z" clip-path="url(#p0534f8c4aa)" style="fill:#1f77b4;opacity:.4"/></g><g id="patch_20"><path d="M 186.2485 288.441375 L 192.529039 288.441375 L 192.529039 288.32263 L 186.2485 288.32263 z" clip-path="url(#p0534f8c4aa)" style="fill:#1f77b4;opacity:.4"/></g><g id="patch_21"><path d="M 192.529039 288.441375 L 198.809578 288.441375 L 198.809578 288.32263 L 192.529039 288.32263 z" clip-path="url(#p0534f8c4aa)" style="fill:#1f77b4;opacity:.4"/></g><g id="patch_22"><path d="M 198.809578 288.441375 L 205.090117 288.441375 L 205.090117 288.441375 L 198.809578 288.441375 z" clip-path="url(#p0534f8c4aa)" style="fill:#1f77b4;opacity:.4"/></g><g id="patch_23"><path d="M 205.090117 288.441375 L 211.370656 288.441375 L 211.370656 288.401793 L 205.090117 288.401793 z" clip-path="url(#p0534f8c4aa)" style="fill:#1f77b4;opacity:.4"/></g><g id="patch_24"><path d="M 211.370656 288.441375 L 217.651195 288.441375 L 217.651195 288.401793 L 211.370656 288.401793 z" clip-path="url(#p0534f8c4aa)" style="fill:#1f77b4;opacity:.4"/></g><g id="patch_25"><path d="M 217.651195 288.441375 L 223.931734 288.441375 L 223.931734 288.362212 L 217.651195 288.362212 z" clip-path="url(#p0534f8c4aa)" style="fill:#1f77b4;opacity:.4"/></g><g id="patch_26"><path d="M 223.931734 288.441375 L 230.212273 288.441375 L 230.212273 288.441375 L 223.931734 288.441375 z" clip-path="url(#p0534f8c4aa)" style="fill:#1f77b4;opacity:.4"/></g><g id="patch_27"><path d="M 230.212273 288.441375 L 236.492812 288.441375 L 236.492812 288.441375 L 230.212273 288.441375 z" clip-path="url(#p0534f8c4aa)" style="fill:#1f77b4;opacity:.4"/></g><g id="patch_28"><path d="M 236.492812 288.441375 L 242.773352 288.441375 L 242.773352 288.441375 L 236.492812 288.441375 z" clip-path="url(#p0534f8c4aa)" style="fill:#1f77b4;opacity:.4"/></g><g id="patch_29"><path d="M 242.773352 288.441375 L 249.053891 288.441375 L 249.053891 288.441375 L 242.773352 288.441375 z" clip-path="url(#p0534f8c4aa)" style="fill:#1f77b4;opacity:.4"/></g><g id="patch_30"><path d="M 249.053891 288.441375 L 255.33443 288.441375 L 255.33443 288.441375 L 249.053891 288.441375 z" clip-path="url(#p0534f8c4aa)" style="fill:#1f77b4;opacity:.4"/></g><g id="patch_31"><path d="M 255.33443 288.441375 L 261.614969 288.441375 L 261.614969 288.401793 L 255.33443 288.401793 z" clip-path="url(#p0534f8c4aa)" style="fill:#1f77b4;opacity:.4"/></g><g id="patch_32"><path d="M 261.614969 288.441375 L 267.895508 288.441375 L 267.895508 288.441375 L 261.614969 288.441375 z" clip-path="url(#p0534f8c4aa)" style="fill:#1f77b4;opacity:.4"/></g><g id="patch_33"><path d="M 267.895508 288.441375 L 274.176047 288.441375 L 274.176047 288.441375 L 267.895508 288.441375 z" clip-path="url(#p0534f8c4aa)" style="fill:#1f77b4;opacity:.4"/></g><g id="patch_34"><path d="M 274.176047 288.441375 L 280.456586 288.441375 L 280.456586 288.441375 L 274.176047 288.441375 z" clip-path="url(#p0534f8c4aa)" style="fill:#1f77b4;opacity:.4"/></g><g id="patch_35"><path d="M 280.456586 288.441375 L 286.737125 288.441375 L 286.737125 288.441375 L 280.456586 288.441375 z" clip-path="url(#p0534f8c4aa)" style="fill:#1f77b4;opacity:.4"/></g><g id="patch_36"><path d="M 286.737125 288.441375 L 293.017664 288.441375 L 293.017664 288.441375 L 286.737125 288.441375 z" clip-path="url(#p0534f8c4aa)" style="fill:#1f77b4;opacity:.4"/></g><g id="patch_37"><path d="M 293.017664 288.441375 L 299.298204 288.441375 L 299.298204 288.441375 L 293.017664 288.441375 z" clip-path="url(#p0534f8c4aa)" style="fill:#1f77b4;opacity:.4"/></g><g id="patch_38"><path d="M 299.298204 288.441375 L 305.578743 288.441375 L 305.578743 288.441375 L 299.298204 288.441375 z" clip-path="url(#p0534f8c4aa)" style="fill:#1f77b4;opacity:.4"/></g><g id="patch_39"><path d="M 305.578743 288.441375 L 311.859282 288.441375 L 311.859282 288.441375 L 305.578743 288.441375 z" clip-path="url(#p0534f8c4aa)" style="fill:#1f77b4;opacity:.4"/></g><g id="patch_40"><path d="M 311.859282 288.441375 L 318.139821 288.441375 L 318.139821 288.441375 L 311.859282 288.441375 z" clip-path="url(#p0534f8c4aa)" style="fill:#1f77b4;opacity:.4"/></g><g id="patch_41"><path d="M 318.139821 288.441375 L 324.42036 288.441375 L 324.42036 288.441375 L 318.139821 288.441375 z" clip-path="url(#p0534f8c4aa)" style="fill:#1f77b4;opacity:.4"/></g><g id="patch_42"><path d="M 324.42036 288.441375 L 330.700899 288.441375 L 330.700899 288.441375 L 324.42036 288.441375 z" clip-path="url(#p0534f8c4aa)" style="fill:#1f77b4;opacity:.4"/></g><g id="patch_43"><path d="M 330.700899 288.441375 L 336.981438 288.441375 L 336.981438 288.441375 L 330.700899 288.441375 z" clip-path="url(#p0534f8c4aa)" style="fill:#1f77b4;opacity:.4"/></g><g id="patch_44"><path d="M 336.981438 288.441375 L 343.261977 288.441375 L 343.261977 288.441375 L 336.981438 288.441375 z" clip-path="url(#p0534f8c4aa)" style="fill:#1f77b4;opacity:.4"/></g><g id="patch_45"><path d="M 343.261977 288.441375 L 349.542516 288.441375 L 349.542516 288.441375 L 343.261977 288.441375 z" clip-path="url(#p0534f8c4aa)" style="fill:#1f77b4;opacity:.4"/></g><g id="patch_46"><path d="M 349.542516 288.441375 L 355.823055 288.441375 L 355.823055 288.441375 L 349.542516 288.441375 z" clip-path="url(#p0534f8c4aa)" style="fill:#1f77b4;opacity:.4"/></g><g id="patch_47"><path d="M 355.823055 288.441375 L 362.103595 288.441375 L 362.103595 288.441375 L 355.823055 288.441375 z" clip-path="url(#p0534f8c4aa)" style="fill:#1f77b4;opacity:.4"/></g><g id="patch_48"><path d="M 362.103595 288.441375 L 368.384134 288.441375 L 368.384134 288.441375 L 362.103595 288.441375 z" clip-path="url(#p0534f8c4aa)" style="fill:#1f77b4;opacity:.4"/></g><g id="patch_49"><path d="M 368.384134 288.441375 L 374.664673 288.441375 L 374.664673 288.401793 L 368.384134 288.401793 z" clip-path="url(#p0534f8c4aa)" style="fill:#1f77b4;opacity:.4"/></g><g id="patch_50"><path d="M 374.664673 288.441375 L 380.945212 288.441375 L 380.945212 288.441375 L 374.664673 288.441375 z" clip-path="url(#p0534f8c4aa)" style="fill:#1f77b4;opacity:.4"/></g><g id="patch_51"><path d="M 380.945212 288.441375 L 387.225751 288.441375 L 387.225751 288.441375 L 380.945212 288.441375 z" clip-path="url(#p0534f8c4aa)" style="fill:#1f77b4;opacity:.4"/></g><g id="patch_52"><path d="M 387.225751 288.441375 L 393.50629 288.441375 L 393.50629 288.401793 L 387.225751 288.401793 z" clip-path="url(#p0534f8c4aa)" style="fill:#1f77b4;opacity:.4"/></g><g id="matplotlib.axis_1"><g id="xtick_1"><g id="line2d_1"><defs><path id="mdb7ac4484d" d="M 0 0 L 0 3.5" style="stroke:#000;stroke-width:.8"/></defs><g><use x="79.479" y="288.441" xlink:href="#mdb7ac4484d" style="stroke:#000;stroke-width:.8"/></g></g><g id="text_1"><g transform="translate(76.698866 302.599187)scale(0.1 -0.1)"><defs><path id="ArialUnicodeMS-30" d="M 1778 4603 Q 3272 4603 3272 2259 Q 3272 1075 2886 498 Q 2500 -78 1778 -78 Q 288 -78 288 2259 Q 288 3444 673 4023 Q 1059 4603 1778 4603 z M 1778 384 Q 2231 384 2462 823 Q 2694 1263 2694 2259 Q 2694 2953 2592 3351 Q 2491 3750 2286 3945 Q 2081 4141 1772 4141 Q 1319 4141 1091 3694 Q 863 3247 863 2259 Q 863 1575 966 1175 Q 1069 775 1272 579 Q 1475 384 1778 384 z" transform="scale(0.015625)"/></defs><use xlink:href="#ArialUnicodeMS-30"/></g></g></g><g id="xtick_2"><g id="line2d_2"><g><use x="150" y="288.441" xlink:href="#mdb7ac4484d" style="stroke:#000;stroke-width:.8"/></g></g><g id="text_2"><g transform="translate(138.877773 302.599187)scale(0.1 -0.1)"><defs><path id="ArialUnicodeMS-35" d="M 1013 2753 Q 1431 3041 1881 3041 Q 2453 3041 2878 2636 Q 3303 2231 3303 1556 Q 3303 875 2872 398 Q 2441 -78 1741 -78 Q 1169 -78 750 245 Q 331 569 269 1203 L 856 1247 Q 928 813 1162 598 Q 1397 384 1741 384 Q 2169 384 2434 707 Q 2700 1031 2700 1503 Q 2700 1984 2428 2262 Q 2156 2541 1728 2541 Q 1188 2541 897 2100 L 366 2163 L 813 4519 L 3084 4519 L 3084 3975 L 1259 3975 L 1013 2753 z" transform="scale(0.015625)"/></defs><use xlink:href="#ArialUnicodeMS-35"/><use x="55.615" xlink:href="#ArialUnicodeMS-30"/><use x="111.23" xlink:href="#ArialUnicodeMS-30"/><use x="166.846" xlink:href="#ArialUnicodeMS-30"/></g></g></g><g id="xtick_3"><g id="line2d_3"><g><use x="220.52" y="288.441" xlink:href="#mdb7ac4484d" style="stroke:#000;stroke-width:.8"/></g></g><g id="text_3"><g transform="translate(206.617618 302.599187)scale(0.1 -0.1)"><defs><path id="ArialUnicodeMS-31" d="M 2400 0 L 1838 0 L 1838 3584 Q 1416 3184 709 2906 L 709 3450 Q 1681 3916 2034 4603 L 2400 4603 L 2400 0 z" transform="scale(0.015625)"/></defs><use xlink:href="#ArialUnicodeMS-31"/><use x="55.615" xlink:href="#ArialUnicodeMS-30"/><use x="111.23" xlink:href="#ArialUnicodeMS-30"/><use x="166.846" xlink:href="#ArialUnicodeMS-30"/><use x="222.461" xlink:href="#ArialUnicodeMS-30"/></g></g></g><g id="xtick_4"><g id="line2d_4"><g><use x="291.04" y="288.441" xlink:href="#mdb7ac4484d" style="stroke:#000;stroke-width:.8"/></g></g><g id="text_4"><g transform="translate(277.137931 302.599187)scale(0.1 -0.1)"><use xlink:href="#ArialUnicodeMS-31"/><use x="55.615" xlink:href="#ArialUnicodeMS-35"/><use x="111.23" xlink:href="#ArialUnicodeMS-30"/><use x="166.846" xlink:href="#ArialUnicodeMS-30"/><use x="222.461" xlink:href="#ArialUnicodeMS-30"/></g></g></g><g id="xtick_5"><g id="line2d_5"><g><use x="361.561" y="288.441" xlink:href="#mdb7ac4484d" style="stroke:#000;stroke-width:.8"/></g></g><g id="text_5"><g transform="translate(347.658244 302.599187)scale(0.1 -0.1)"><defs><path id="ArialUnicodeMS-32" d="M 3231 0 L 197 0 Q 197 388 467 784 Q 738 1181 1478 1778 Q 1931 2141 2287 2539 Q 2644 2938 2644 3341 Q 2644 3688 2398 3914 Q 2153 4141 1778 4141 Q 1400 4141 1144 3908 Q 888 3675 884 3213 L 306 3278 Q 359 3922 764 4262 Q 1169 4603 1791 4603 Q 2466 4603 2842 4229 Q 3219 3856 3219 3328 Q 3219 2888 2901 2436 Q 2584 1984 1638 1228 Q 1141 831 978 544 L 3231 544 L 3231 0 z" transform="scale(0.015625)"/></defs><use xlink:href="#ArialUnicodeMS-32"/><use x="55.615" xlink:href="#ArialUnicodeMS-30"/><use x="111.23" xlink:href="#ArialUnicodeMS-30"/><use x="166.846" xlink:href="#ArialUnicodeMS-30"/><use x="222.461" xlink:href="#ArialUnicodeMS-30"/></g></g></g><g id="text_6"><g transform="translate(221.492813 315.749187)scale(0.1 -0.1)"><defs><path id="ArialUnicodeMS-70b9" d="M 5522 4225 L 3213 4225 L 3213 3597 L 4972 3597 L 4972 1459 L 1338 1459 L 1338 3597 L 2725 3597 L 2725 5313 L 3213 5313 L 3213 4666 L 5522 4666 L 5522 4225 z M 4513 1900 L 4513 3156 L 1825 3156 L 1825 1900 L 4513 1900 z M 6081 -56 L 5619 -325 Q 5188 509 4544 1031 L 4922 1288 Q 5672 631 6081 -56 z M 1856 1044 Q 1550 141 763 -453 L 319 -91 Q 1059 356 1447 1247 L 1850 1044 L 1856 1044 z M 4538 -109 L 4072 -288 Q 3759 481 3272 997 L 3681 1197 Q 4216 653 4538 -109 z M 3200 -134 L 2700 -275 Q 2519 444 2047 1013 L 2463 1184 Q 2925 600 3200 -134 z" transform="scale(0.015625)"/><path id="ArialUnicodeMS-8d5e" d="M 5953 3128 Q 5816 2528 5575 2528 L 4788 2528 Q 4638 2544 4527 2644 Q 4416 2744 4416 2869 L 4416 3475 L 4166 3475 Q 3991 2659 3488 2369 L 3488 2363 L 4756 2363 L 4756 659 L 4269 659 L 4269 1894 L 1966 1894 L 1966 609 L 1478 609 L 1478 2363 L 1900 2363 L 1703 2694 Q 1850 2775 1850 2847 L 1850 3475 L 1625 3475 Q 1594 2409 544 1856 L 225 2259 Q 675 2459 923 2787 Q 1172 3116 1147 3475 L 391 3475 L 391 3944 L 513 3944 L 313 4147 Q 784 4563 909 5306 L 1306 5125 Q 1291 4928 1234 4775 L 1613 4775 L 1613 5300 L 2069 5300 L 2069 4775 L 2747 4775 L 2747 4306 L 2069 4306 L 2069 3944 L 2841 3944 L 2841 3475 L 2303 3475 L 2303 2956 L 2969 3225 L 2969 2741 L 1997 2369 L 1997 2363 L 3041 2363 L 2900 2522 Q 3600 2888 3706 3475 L 3003 3475 L 3003 3944 L 3156 3944 L 3156 3950 L 2828 4159 Q 3200 4553 3316 5350 L 3775 5178 Q 3738 4903 3675 4775 L 4172 4775 L 4172 5300 L 4659 5300 L 4659 4775 L 5538 4775 L 5538 4331 L 4659 4331 L 4659 3944 L 5850 3944 L 5850 3475 L 4872 3475 L 4872 3053 Q 4891 2969 4978 2969 L 5350 2969 Q 5472 2969 5509 3341 L 5953 3128 z M 4172 3944 L 4172 4331 L 3541 4331 Q 3469 4116 3316 3944 L 4172 3944 z M 1613 3944 L 1613 4306 L 1069 4306 Q 919 4038 819 3944 L 1613 3944 z M 3406 1650 Q 3406 -13 850 -422 L 622 56 Q 1688 153 2281 537 Q 2875 922 2944 1759 L 3406 1650 z M 5478 -84 L 5228 -481 Q 4328 75 3194 306 L 3406 744 Q 3903 659 4536 409 Q 5169 159 5478 -84 z" transform="scale(0.015625)"/><path id="ArialUnicodeMS-6570" d="M 6138 19 L 5806 -378 Q 5031 194 4697 716 Q 4344 144 3328 -441 L 2981 -50 Q 3966 434 4403 1153 Q 4038 1834 3866 2753 Q 3678 2356 3353 1919 L 2950 2203 Q 3838 3172 3963 5253 L 4409 5125 Q 4341 4384 4269 4006 L 5984 4006 L 5984 3547 L 5619 3541 L 5594 3341 Q 5441 2113 4978 1191 Q 5281 672 6138 19 z M 5166 3541 L 4172 3541 Q 4297 2419 4691 1650 Q 5038 2513 5166 3541 z M 3438 3653 L 2209 3653 L 2209 2338 L 1919 2338 Q 1900 2269 1753 1931 L 3225 1931 L 3225 1472 L 2913 1472 Q 2763 991 2503 666 Q 2947 353 3103 184 L 2747 -172 Q 2463 138 2150 313 Q 1322 -225 563 -428 L 269 6 Q 1106 163 1684 563 Q 1291 756 703 884 L 1038 1472 L 403 1472 L 403 1931 L 1259 1931 Q 1328 2056 1466 2553 L 1747 2484 L 1747 3653 L 1716 3653 Q 1413 2881 678 2456 L 378 2803 Q 938 3091 1241 3653 L 403 3653 L 403 4122 L 1747 4122 L 1747 5228 L 2209 5228 L 2209 4122 L 3438 4122 L 3438 3653 z M 2406 1472 L 1538 1472 Q 1422 1241 1369 1153 Q 1388 1159 2069 884 Q 2219 1031 2406 1472 z M 1625 4441 L 1288 4159 Q 1022 4547 575 4813 L 878 5075 Q 1394 4844 1625 4441 z M 3384 4844 Q 3097 4409 2669 4172 L 2322 4481 Q 2806 4759 3047 5069 L 3384 4844 z M 3303 2888 L 2944 2578 Q 2706 3025 2291 3297 L 2584 3566 Q 2988 3359 3303 2888 z" transform="scale(0.015625)"/></defs><use xlink:href="#ArialUnicodeMS-70b9"/><use x="100" xlink:href="#ArialUnicodeMS-8d5e"/><use x="200" xlink:href="#ArialUnicodeMS-6570"/></g></g></g><g id="matplotlib.axis_2"><g id="ytick_1"><g id="line2d_6"><defs><path id="m1e7a0f437f" d="M 0 0 L -3.5 0" style="stroke:#000;stroke-width:.8"/></defs><g><use x="57.933" y="288.441" xlink:href="#m1e7a0f437f" style="stroke:#000;stroke-width:.8"/></g></g><g id="text_7"><g transform="translate(20.35 292.020281)scale(0.1 -0.1)"><defs><path id="ArialUnicodeMS-2e" d="M 1209 0 L 569 0 L 569 641 L 1209 641 L 1209 0 z" transform="scale(0.015625)"/></defs><use xlink:href="#ArialUnicodeMS-30"/><use x="55.615" xlink:href="#ArialUnicodeMS-2e"/><use x="83.398" xlink:href="#ArialUnicodeMS-30"/><use x="139.014" xlink:href="#ArialUnicodeMS-30"/><use x="194.629" xlink:href="#ArialUnicodeMS-30"/><use x="250.244" xlink:href="#ArialUnicodeMS-30"/></g></g></g><g id="ytick_2"><g id="line2d_7"><g><use x="57.933" y="236.199" xlink:href="#m1e7a0f437f" style="stroke:#000;stroke-width:.8"/></g></g><g id="text_8"><g transform="translate(20.35 239.77787)scale(0.1 -0.1)"><use xlink:href="#ArialUnicodeMS-30"/><use x="55.615" xlink:href="#ArialUnicodeMS-2e"/><use x="83.398" xlink:href="#ArialUnicodeMS-30"/><use x="139.014" xlink:href="#ArialUnicodeMS-30"/><use x="194.629" xlink:href="#ArialUnicodeMS-30"/><use x="250.244" xlink:href="#ArialUnicodeMS-35"/></g></g></g><g id="ytick_3"><g id="line2d_8"><g><use x="57.933" y="183.957" xlink:href="#m1e7a0f437f" style="stroke:#000;stroke-width:.8"/></g></g><g id="text_9"><g transform="translate(20.35 187.535458)scale(0.1 -0.1)"><use xlink:href="#ArialUnicodeMS-30"/><use x="55.615" xlink:href="#ArialUnicodeMS-2e"/><use x="83.398" xlink:href="#ArialUnicodeMS-30"/><use x="139.014" xlink:href="#ArialUnicodeMS-30"/><use x="194.629" xlink:href="#ArialUnicodeMS-31"/><use x="250.244" xlink:href="#ArialUnicodeMS-30"/></g></g></g><g id="ytick_4"><g id="line2d_9"><g><use x="57.933" y="131.714" xlink:href="#m1e7a0f437f" style="stroke:#000;stroke-width:.8"/></g></g><g id="text_10"><g transform="translate(20.35 135.293046)scale(0.1 -0.1)"><use xlink:href="#ArialUnicodeMS-30"/><use x="55.615" xlink:href="#ArialUnicodeMS-2e"/><use x="83.398" xlink:href="#ArialUnicodeMS-30"/><use x="139.014" xlink:href="#ArialUnicodeMS-30"/><use x="194.629" xlink:href="#ArialUnicodeMS-31"/><use x="250.244" xlink:href="#ArialUnicodeMS-35"/></g></g></g><g id="ytick_5"><g id="line2d_10"><g><use x="57.933" y="79.472" xlink:href="#m1e7a0f437f" style="stroke:#000;stroke-width:.8"/></g></g><g id="text_11"><g transform="translate(20.35 83.050635)scale(0.1 -0.1)"><use xlink:href="#ArialUnicodeMS-30"/><use x="55.615" xlink:href="#ArialUnicodeMS-2e"/><use x="83.398" xlink:href="#ArialUnicodeMS-30"/><use x="139.014" xlink:href="#ArialUnicodeMS-30"/><use x="194.629" xlink:href="#ArialUnicodeMS-32"/><use x="250.244" xlink:href="#ArialUnicodeMS-30"/></g></g></g><g id="ytick_6"><g id="line2d_11"><g><use x="57.933" y="27.229" xlink:href="#m1e7a0f437f" style="stroke:#000;stroke-width:.8"/></g></g><g id="text_12"><g transform="translate(20.35 30.808223)scale(0.1 -0.1)"><use xlink:href="#ArialUnicodeMS-30"/><use x="55.615" xlink:href="#ArialUnicodeMS-2e"/><use x="83.398" xlink:href="#ArialUnicodeMS-30"/><use x="139.014" xlink:href="#ArialUnicodeMS-30"/><use x="194.629" xlink:href="#ArialUnicodeMS-32"/><use x="250.244" xlink:href="#ArialUnicodeMS-35"/></g></g></g><g id="text_13"><g transform="translate(14.357813 165.385375)rotate(-90)scale(0.1 -0.1)"><defs><path id="ArialUnicodeMS-5206" d="M 5991 3003 L 5684 2553 Q 4856 3041 4451 3534 Q 4047 4028 3781 4831 L 4319 4984 Q 4375 4356 4829 3825 Q 5284 3294 5991 3003 z M 2613 4697 Q 2169 3484 800 2547 L 416 2919 Q 1731 3741 2188 4934 L 2613 4697 z M 4872 2931 Q 4844 1956 4730 1092 Q 4616 228 4430 7 Q 4244 -213 3847 -213 Q 3469 -213 2894 -78 L 2747 481 Q 3503 269 3834 269 Q 4013 269 4128 639 Q 4244 1009 4341 2463 L 3138 2463 Q 2869 263 831 -441 L 525 -31 Q 2372 478 2631 2463 L 1556 2463 L 1556 2931 L 4872 2931 z" transform="scale(0.015625)"/><path id="ArialUnicodeMS-5e03" d="M 5888 3944 L 2597 3944 Q 2300 3216 2053 2841 L 3272 2841 L 3272 3653 L 3756 3653 L 3756 2841 L 5338 2841 L 5338 941 Q 5338 325 4878 325 L 4294 325 L 4141 819 Q 4481 775 4628 775 Q 4850 775 4850 941 L 4850 2375 L 3756 2375 L 3756 -428 L 3272 -428 L 3272 2375 L 2322 2375 L 2322 153 L 1838 153 L 1825 2534 Q 1516 2056 794 1288 L 372 1581 Q 1731 2919 2094 3944 L 659 3944 L 659 4409 L 2266 4409 Q 2378 4706 2553 5344 L 3009 5203 Q 2794 4444 2778 4409 L 5888 4409 L 5888 3944 z" transform="scale(0.015625)"/></defs><use xlink:href="#ArialUnicodeMS-5206"/><use x="100" xlink:href="#ArialUnicodeMS-5e03"/></g></g></g><g id="line2d_12"><path d="M 74.16554 286.325497 L 75.79697 264.705699 L 77.4284 171.992599 L 79.059829 35.001375 L 80.691259 35.30829 L 82.322689 160.104871 L 83.954119 242.95279 L 85.585549 268.519168 L 87.216979 276.35895 L 88.848409 280.054979 L 90.479839 282.172185 L 92.111268 283.744096 L 93.742698 285.013071 L 95.374128 285.747039 L 101.899848 287.154064 L 106.794137 287.769595 L 108.425567 287.897218 L 113.319857 287.619322 L 114.951287 287.891366 L 116.582717 288.035458 L 119.845576 287.947151 L 123.108436 288.145979 L 126.371296 287.995 L 131.265585 288.126377 L 134.528445 288.139987 L 163.894183 288.375823 L 172.051332 288.314875 L 183.471342 288.395917 L 189.997061 288.304109 L 204.67993 288.411318 L 212.837079 288.389368 L 261.779976 288.427615 L 278.094274 288.441375 L 398.820085 288.440753 L 398.820085 288.440753" clip-path="url(#p0534f8c4aa)" style="fill:none;stroke:#1f77b4;stroke-width:1.5;stroke-linecap:square"/></g><g id="patch_53"><path d="M 57.932813 288.441375 L 57.932813 22.329375" style="fill:none;stroke:#000;stroke-width:.8;stroke-linejoin:miter;stroke-linecap:square"/></g><g id="patch_54"><path d="M 415.052813 288.441375 L 415.052813 22.329375" style="fill:none;stroke:#000;stroke-width:.8;stroke-linejoin:miter;stroke-linecap:square"/></g><g id="patch_55"><path d="M 57.932812 288.441375 L 415.052812 288.441375" style="fill:none;stroke:#000;stroke-width:.8;stroke-linejoin:miter;stroke-linecap:square"/></g><g id="patch_56"><path d="M 57.932812 22.329375 L 415.052812 22.329375" style="fill:none;stroke:#000;stroke-width:.8;stroke-linejoin:miter;stroke-linecap:square"/></g><g id="text_14"><g transform="translate(170.476875 16.329375)scale(0.12 -0.12)"><defs><path id="ArialUnicodeMS-6c" d="M 991 0 L 428 0 L 428 4581 L 991 4581 L 991 0 z" transform="scale(0.015625)"/><path id="ArialUnicodeMS-69" d="M 991 0 L 428 0 L 428 3316 L 991 3316 L 991 0 z M 991 3944 L 428 3944 L 428 4581 L 991 4581 L 991 3944 z" transform="scale(0.015625)"/><path id="ArialUnicodeMS-6b" d="M 3175 0 L 2484 0 L 1381 1697 L 984 1319 L 984 0 L 422 0 L 422 4581 L 984 4581 L 984 1972 L 2316 3316 L 3047 3316 L 1778 2088 L 3175 0 z" transform="scale(0.015625)"/><path id="ArialUnicodeMS-65" d="M 3309 1516 L 825 1516 Q 859 966 1139 675 Q 1419 384 1838 384 Q 2159 384 2378 554 Q 2597 725 2713 1069 L 3291 997 Q 3150 478 2775 200 Q 2400 -78 1838 -78 Q 1091 -78 670 380 Q 250 838 250 1631 Q 250 2416 658 2903 Q 1066 3391 1806 3391 Q 2169 3391 2505 3231 Q 2841 3072 3075 2689 Q 3309 2306 3309 1516 z M 2731 1978 Q 2697 2484 2417 2707 Q 2138 2931 1806 2931 Q 1409 2931 1153 2665 Q 897 2400 856 1978 L 2731 1978 z" transform="scale(0.015625)"/><path id="ArialUnicodeMS-64" d="M 3109 0 L 2584 0 L 2584 422 L 2572 422 Q 2269 -78 1656 -78 Q 1047 -78 639 405 Q 231 888 231 1656 Q 231 2459 615 2925 Q 1000 3391 1631 3391 Q 2225 3391 2534 2938 L 2547 2938 L 2547 4581 L 3109 4581 L 3109 0 z M 1716 384 Q 2084 384 2340 687 Q 2597 991 2597 1606 Q 2597 2213 2362 2572 Q 2128 2931 1691 2931 Q 1253 2931 1029 2579 Q 806 2228 806 1656 Q 806 1244 926 958 Q 1047 672 1262 528 Q 1478 384 1716 384 z" transform="scale(0.015625)"/><path id="ArialUnicodeMS-5f" d="M 3238 -800 L -38 -800 L -38 -481 L 3238 -481 L 3238 -800 z" transform="scale(0.015625)"/><path id="ArialUnicodeMS-63" d="M 3144 1147 Q 3034 513 2643 217 Q 2253 -78 1759 -78 Q 1038 -78 644 395 Q 250 869 250 1650 Q 250 2297 476 2686 Q 703 3075 1043 3233 Q 1384 3391 1759 3391 Q 2272 3391 2636 3125 Q 3000 2859 3084 2344 L 2541 2259 Q 2456 2594 2267 2762 Q 2078 2931 1784 2931 Q 1313 2931 1069 2597 Q 825 2263 825 1663 Q 825 1050 1064 717 Q 1303 384 1753 384 Q 2116 384 2323 592 Q 2531 800 2584 1216 L 3144 1147 z" transform="scale(0.015625)"/><path id="ArialUnicodeMS-6f" d="M 1778 3391 Q 2450 3391 2892 2953 Q 3334 2516 3334 1709 Q 3334 731 2856 326 Q 2378 -78 1778 -78 Q 1150 -78 687 337 Q 225 753 225 1656 Q 225 2531 672 2961 Q 1119 3391 1778 3391 z M 1778 384 Q 2259 384 2509 740 Q 2759 1097 2759 1678 Q 2759 2300 2476 2615 Q 2194 2931 1778 2931 Q 1350 2931 1075 2611 Q 800 2291 800 1656 Q 800 1025 1079 704 Q 1359 384 1778 384 z" transform="scale(0.015625)"/><path id="ArialUnicodeMS-75" d="M 3116 0 L 2613 0 L 2613 488 L 2597 488 Q 2216 -78 1556 -78 Q 1209 -78 914 83 Q 619 244 520 526 Q 422 809 422 1259 L 422 3316 L 984 3316 L 984 1478 Q 984 1038 1026 847 Q 1069 656 1247 532 Q 1425 409 1672 409 Q 1991 409 2272 629 Q 2553 850 2553 1544 L 2553 3316 L 3116 3316 L 3116 0 z" transform="scale(0.015625)"/><path id="ArialUnicodeMS-6e" d="M 3138 0 L 2572 0 L 2572 2016 Q 2572 2525 2389 2715 Q 2206 2906 1881 2906 Q 1631 2906 1407 2784 Q 1184 2663 1090 2441 Q 997 2219 997 1813 L 997 0 L 434 0 L 434 3316 L 941 3316 L 941 2847 L 953 2847 Q 1131 3119 1392 3255 Q 1653 3391 1997 3391 Q 2259 3391 2515 3297 Q 2772 3203 2917 3015 Q 3063 2828 3100 2615 Q 3138 2403 3138 2041 L 3138 0 z" transform="scale(0.015625)"/><path id="ArialUnicodeMS-74" d="M 1722 6 Q 1472 -44 1300 -44 Q 931 -44 762 86 Q 594 216 556 416 Q 519 616 519 972 L 519 2881 L 109 2881 L 109 3316 L 519 3316 L 519 4141 L 1081 4481 L 1081 3316 L 1644 3316 L 1644 2881 L 1081 2881 L 1081 941 Q 1081 691 1132 586 Q 1184 481 1394 481 Q 1516 481 1644 506 L 1722 6 z" transform="scale(0.015625)"/><path id="ArialUnicodeMS-6838" d="M 5966 3994 L 4128 3994 Q 3825 3391 3391 2950 L 4063 2606 Q 4431 3025 4806 3763 L 5259 3513 Q 4803 2631 4236 2029 Q 3669 1428 2650 878 L 2278 1253 Q 3197 1716 3719 2222 Q 2584 2797 2438 2841 L 2700 3297 L 2963 3169 Q 3325 3556 3559 3994 L 2553 3994 L 2553 3566 L 1791 3566 L 1791 2938 L 1978 3028 Q 2478 2606 2753 1953 L 2309 1678 Q 2163 2138 1791 2547 L 1791 -428 L 1306 -428 L 1306 2284 Q 1094 1644 603 953 L 213 1241 Q 963 2250 1269 3566 L 428 3566 L 428 4031 L 1306 4031 L 1306 5281 L 1791 5281 L 1791 4031 L 2419 4031 L 2419 4459 L 3897 4459 L 3897 5275 L 4384 5275 L 4384 4459 L 5966 4459 L 5966 3994 z M 6075 0 L 5691 -391 Q 5141 294 4353 666 Q 3631 75 2497 -403 L 2181 25 Q 4378 822 5319 2644 L 5741 2394 Q 5241 1528 4722 1013 Q 5519 634 6075 0 z" transform="scale(0.015625)"/><path id="ArialUnicodeMS-5bc6" d="M 5791 3353 L 5306 3353 L 5306 4225 L 1166 4225 L 1166 3353 L 678 3353 L 678 4691 L 2950 4691 L 2950 5294 L 3450 5294 L 3450 4691 L 5791 4691 L 5791 3353 z M 3688 3438 L 3359 3097 Q 3159 3469 2450 3853 L 2778 4134 Q 3294 3981 3688 3438 z M 5013 3681 Q 4281 2863 2669 2028 Q 2731 1997 3391 1997 Q 3975 1997 4053 2019 Q 4131 2041 4294 2725 L 4722 2566 Q 4494 1800 4291 1669 Q 4088 1538 3794 1538 L 2741 1538 Q 2428 1538 2216 1797 Q 1644 1553 716 1269 L 422 1684 Q 1513 1966 2081 2241 L 2081 3456 L 2566 3456 L 2566 2472 Q 3794 3069 4684 3981 L 5013 3681 z M 1925 3341 Q 1556 2581 909 2106 L 544 2431 Q 1300 2978 1522 3616 L 1925 3341 z M 6041 2053 L 5631 1741 Q 5331 2494 4647 2925 L 5044 3225 Q 5609 2794 6041 2053 z M 5319 -391 L 4831 -391 L 4831 -44 L 1594 -44 L 1594 -409 L 1106 -397 L 1106 1234 L 1594 1234 L 1594 422 L 2963 422 L 2963 1491 L 3450 1491 L 3450 422 L 4831 422 L 4831 1234 L 5319 1234 L 5319 -391 z" transform="scale(0.015625)"/><path id="ArialUnicodeMS-5ea6" d="M 5913 4269 L 1363 4269 L 1363 2278 Q 1363 1144 1180 528 Q 997 -88 684 -434 L 294 -147 Q 669 378 773 940 Q 878 1503 878 2350 L 878 4738 L 3200 4738 L 3200 5288 L 3706 5288 L 3706 4738 L 5913 4738 L 5913 4269 z M 5778 3194 L 4728 3194 L 4728 2303 L 2350 2303 L 2350 3194 L 1472 3194 L 1472 3659 L 2350 3659 L 2350 4147 L 2828 4147 L 2828 3659 L 4244 3659 L 4244 4147 L 4728 4147 L 4728 3659 L 5778 3659 L 5778 3194 z M 4244 2747 L 4244 3194 L 2834 3194 L 2834 2747 L 4244 2747 z M 6081 72 L 5819 -397 Q 4484 -216 3531 263 Q 2494 -234 1388 -397 L 1088 44 Q 2078 134 3034 550 Q 2509 934 2113 1528 L 1625 1528 L 1625 1972 L 5159 1972 L 5159 1544 Q 4819 1025 4044 538 Q 4963 166 6081 72 z M 4544 1528 L 2700 1528 Q 3125 1038 3531 781 Q 4194 1159 4544 1528 z" transform="scale(0.015625)"/><path id="ArialUnicodeMS-56fe" d="M 5544 -422 L 5056 -422 L 5056 19 L 1184 19 L 1184 -422 L 703 -422 L 703 5019 L 5544 5019 L 5544 -422 z M 5056 2400 L 5056 4550 L 2625 4550 L 2625 4538 L 2906 4416 Q 2863 4322 2778 4178 L 4513 4178 L 4513 3781 Q 4203 3203 3675 2778 Q 4228 2456 5056 2400 z M 5056 459 L 5056 2163 L 5044 2163 L 4831 1850 Q 4013 1963 3188 2463 Q 2713 2188 1516 1900 L 1281 2388 Q 2341 2584 2784 2834 Q 2544 3022 2259 3413 Q 1941 3031 1575 2869 L 1253 3297 Q 2072 3656 2419 4550 L 1191 4550 L 1191 459 L 3231 459 Q 2769 950 2125 1228 L 2400 1606 Q 3019 1372 3694 716 L 3488 459 L 5056 459 z M 3994 1491 L 3628 1131 Q 3197 1638 2613 1906 L 2963 2241 Q 3434 2072 3994 1491 z M 3903 3713 L 2584 3713 Q 2709 3513 3250 3053 Q 3647 3328 3903 3713 z" transform="scale(0.015625)"/></defs><use xlink:href="#ArialUnicodeMS-6c"/><use x="22.217" xlink:href="#ArialUnicodeMS-69"/><use x="44.434" xlink:href="#ArialUnicodeMS-6b"/><use x="94.434" xlink:href="#ArialUnicodeMS-65"/><use x="150.049" xlink:href="#ArialUnicodeMS-64"/><use x="205.664" xlink:href="#ArialUnicodeMS-5f"/><use x="255.664" xlink:href="#ArialUnicodeMS-63"/><use x="305.664" xlink:href="#ArialUnicodeMS-6f"/><use x="361.279" xlink:href="#ArialUnicodeMS-75"/><use x="416.895" xlink:href="#ArialUnicodeMS-6e"/><use x="472.51" xlink:href="#ArialUnicodeMS-74"/><use x="500.293" xlink:href="#ArialUnicodeMS-6838"/><use x="600.293" xlink:href="#ArialUnicodeMS-5bc6"/><use x="700.293" xlink:href="#ArialUnicodeMS-5ea6"/><use x="800.293" xlink:href="#ArialUnicodeMS-5206"/><use x="900.293" xlink:href="#ArialUnicodeMS-5e03"/><use x="1000.293" xlink:href="#ArialUnicodeMS-56fe"/></g></g></g></g><defs><clipPath id="p0534f8c4aa"><rect width="357.12" height="266.112" x="57.933" y="22.329"/></clipPath></defs></svg>