<?xml version="1.0" standalone="no"?><!DOCTYPE svg PUBLIC "-//W3C//DTD SVG 1.1//EN" "http://www.w3.org/Graphics/SVG/1.1/DTD/svg11.dtd"><svg t="1648885358468" class="icon" viewBox="0 0 1024 1024" version="1.1" xmlns="http://www.w3.org/2000/svg" p-id="1554" width="600" height="600" xmlns:xlink="http://www.w3.org/1999/xlink"><defs><style type="text/css"></style></defs><path d="M511.823991 639.614469 511.823991 639.614469c0.512676-13.68365 0.177032-38.137599 0.177032-51.841715 0-63.702857 0.162706-140.284023-0.177032-203.984834 0 0 2.048659 0.11768 12.412704 0.064468 14.039761-0.073678 24.535813-0.076748 36.378535-0.249687 9.431813-0.138146 13.617136-0.056282 13.617136-0.056282-0.983397 22.920012-0.200568 58.94039-0.151449 81.903382 0.00614 2.764973 0.356111 5.529947 0.546446 8.29492 1.099031 0.255827 2.198062 0.512676 3.297093 0.768503 5.216815-10.459213 10.473539-20.897959 15.640212-31.381731 7.913227-16.057721 21.213137-43.079144 28.78151-59.298548 0 0 2.489704-0.039909 10.105149 0 17.73492 0.092098 35.602869 0 54.746882 0-5.344728 10.843976-10.354835 21.61325-15.548114 31.567973-13.145391 25.200962-26.468838 50.308803-39.746236 75.441203-1.547239 2.929726-10.080589 18.147312-12.286838 21.571295 0 0 1.485841 3.676739 5.64251 11.758812 18.311041 35.592636 34.969443 72.146157 55.739489 106.364493 1.842974 3.035126 2.690272 4.358261 5.644557 9.144264-20.913309 0-39.013549 0.064468-58.392922 0.042979-2.613524-0.00307-2.774183-0.030699-2.774183-0.030699-11.393491-22.509666-27.110451-49.375547-38.307468-71.986521-2.958378-5.974062-6.424316-11.69639-9.657964-17.535375-0.950651 0.237407-1.901303 0.475837-2.851954 0.713244-0.198521 3.808746-0.558725 7.616468-0.568958 11.426237-0.059352 22.962991-0.035816 54.0715-0.224104 77.370135" p-id="1555" fill="#1296db"></path><path d="M697.629791 639.72601c-0.361227-36.606733 0.145309-79.992869 0.602727-116.597555 0.216941-17.384949 10.746762-27.004027 28.15013-27.254737 15.805988-0.079818 45.402049 0.090051 45.402049 0.090051l11.481496 0.057305c0 0-0.01228 40.779775 0.304945 51.494815 0 0-1.883907 0.177032-9.44 0.310062-24.229844 0.428765-24.229844 0.428765-24.229844 0.428765 0.002047 22.107507 0.008186 67.939345 0.008186 91.470271" p-id="1556" fill="#1296db"></path><path d="M362.607528 455.341582c-18.618033 0-35.892465 0-52.988842 0-2.64627-13.649881-1.574868-15.063067 11.001565-15.117302 13.617136-0.058328 27.235294-0.013303 41.426505-0.013303 0-14.004969 0-26.786063 0-40.524972-17.584494 0-34.821063 0-53.18327 0 0-5.687536 0-10.454096 0-16.4783 19.675108 0 39.226397-0.63752 58.666144 0.544399 3.830235 0.232291 10.257621 7.401574 10.359952 11.499915 0.848321 34.006512 0.582261 68.042699 0.435928 102.068653-0.036839 8.441253-3.108804 13.58132-13.316284 13.175067-18.410302-0.731664-36.870746-0.206708-56.154951-0.206708-0.394996-4.565992-0.729617-8.442276-1.231037-14.239306 14.296611 0 27.825742-0.568958 41.280172 0.182149 10.565636 0.590448 14.914688-2.824325 13.862729-13.746072C361.958752 474.077296 362.607528 465.529619 362.607528 455.341582z" p-id="1557" fill="#1296db"></path><path d="M472.230228 498.928287c-0.330528-10.351766-0.070608-20.722974-0.073678-31.085996-0.008186-29.490661-0.01228-29.640064-29.532617-29.02301-30.579459 0.638543-27.499307 7.426133-27.865651-29.059849-0.078795-7.819083 2.613524-11.242042 11.053754-10.863419 13.950733 0.626263 27.949562 0.169869 41.657772 0.169869 3.145643-15.283078 2.736321-15.829524-10.973936-15.85306-14.06432-0.023536-28.127617-0.037862-42.191938-0.029676-8.712429 0.005117-14.112416 3.575432-14.100136 13.07376 0.042979 34.04949 0.119727 68.098981 0.016373 102.147448-0.025583 8.462742 3.916193 12.093433 12.18553 12.022825 16.283872-0.138146 32.570813-0.225127 48.852638-0.013303C469.39567 510.519276 472.484008 506.84356 472.230228 498.928287zM437.935144 496.278947c-25.053606-0.164752-23.562649 3.072989-23.596418-20.586874-0.036839-25.084305-1.160429-20.567431 21.74014-21.020756 24.036439 0.472767 21.612227-3.994987 21.779026 21.931498C457.983759 496.299413 457.886545 496.40993 437.935144 496.278947z" p-id="1558" fill="#1296db"></path></svg>