<?xml version="1.0" encoding="UTF-8"?>
<!DOCTYPE svg PUBLIC "-//W3C//DTD SVG 1.1//EN" "http://www.w3.org/Graphics/SVG/1.1/DTD/svg11.dtd">
<svg xmlns="http://www.w3.org/2000/svg" version="1.1" width="1024px" height="1024px" style="shape-rendering:geometricPrecision; text-rendering:geometricPrecision; image-rendering:optimizeQuality; fill-rule:evenodd; clip-rule:evenodd" xmlns:xlink="http://www.w3.org/1999/xlink">
<g><path style="opacity:0.999" fill="#fefefe" d="M -0.5,-0.5 C 340.833,-0.5 682.167,-0.5 1023.5,-0.5C 1023.5,340.833 1023.5,682.167 1023.5,1023.5C 682.167,1023.5 340.833,1023.5 -0.5,1023.5C -0.5,682.167 -0.5,340.833 -0.5,-0.5 Z"/></g>
<g><path style="opacity:1" fill="#a83030" d="M 522.5,462.5 C 489.085,427.584 455.085,393.084 420.5,359C 419.906,358.536 419.239,358.369 418.5,358.5C 398.511,344.776 378.844,345.276 359.5,360C 287.167,432.333 214.833,504.667 142.5,577C 141.833,577.667 141.167,577.667 140.5,577C 121.167,557.667 101.833,538.333 82.5,519C 157.833,443.667 233.167,368.333 308.5,293C 355.056,259.105 404.056,255.438 455.5,282C 464.401,287.566 472.735,293.899 480.5,301C 514.333,334.833 548.167,368.667 582,402.5C 582.667,403.167 582.667,403.833 582,404.5C 562.3,424.709 542.467,444.043 522.5,462.5 Z"/></g>
<g><path style="opacity:1" fill="#a83030" d="M 801.5,266.5 C 802.552,266.351 803.552,266.517 804.5,267C 823.333,285.833 842.167,304.667 861,323.5C 861.667,324.5 861.667,325.5 861,326.5C 710.167,477.333 559.333,628.167 408.5,779C 365.257,813.785 317.924,820.452 266.5,799C 211.868,768.573 188.368,722.073 196,659.5C 200.857,634.45 212.024,612.783 229.5,594.5C 286.428,537.405 343.428,480.572 400.5,424C 401.167,423.333 401.833,423.333 402.5,424C 421.833,443.333 441.167,462.667 460.5,482C 403.333,539.167 346.167,596.333 289,653.5C 273.668,673.172 273.668,692.839 289,712.5C 309.206,731.127 330.372,732.294 352.5,716C 502.368,566.299 652.035,416.465 801.5,266.5 Z"/></g>
<g><path style="opacity:1" fill="#aa1916" d="M 418.5,358.5 C 419.239,358.369 419.906,358.536 420.5,359C 455.085,393.084 489.085,427.584 522.5,462.5C 487.5,428.167 452.833,393.5 418.5,358.5 Z"/></g>
<g><path style="opacity:1" fill="#ab2623" d="M 860.5,684.5 C 815.584,638.083 770.084,592.083 724,546.5C 704.298,566.035 684.798,585.701 665.5,605.5C 664.475,605.103 664.308,604.437 665,603.5C 684.167,584.333 703.333,565.167 722.5,546C 723.5,545.333 724.5,545.333 725.5,546C 770.667,591.167 815.833,636.333 861,681.5C 861.74,682.749 861.573,683.749 860.5,684.5 Z"/></g>
<g><path style="opacity:1" fill="#a83131" d="M 860.5,684.5 C 841.702,703.799 822.702,722.965 803.5,742C 802.563,742.692 801.897,742.525 801.5,741.5C 757.418,695.917 712.751,650.75 667.5,606C 666.906,605.536 666.239,605.369 665.5,605.5C 684.798,585.701 704.298,566.035 724,546.5C 770.084,592.083 815.584,638.083 860.5,684.5 Z"/></g>
<g><path style="opacity:1" fill="#aa1916" d="M 665.5,605.5 C 666.239,605.369 666.906,605.536 667.5,606C 712.751,650.75 757.418,695.917 801.5,741.5C 755.833,696.5 710.5,651.167 665.5,605.5 Z"/></g>
</svg>
