<svg xmlns="http://www.w3.org/2000/svg" xmlns:svg="http://www.w3.org/2000/svg" id="Capa_1" width="240" height="240" enable-background="new 0 0 512 512" version="1.1" viewBox="0 0 240 240"><metadata id="metadata44"/><g id="g888" transform="matrix(0.390625,0,0,0.390625,20.000001,20)"><g id="g37"><g id="g4"><path id="path2" fill="#e3e7ea" d="m 466.414,152 h -420 c -8.291,0 -15,-6.709 -15,-15 V 45 c 0,-24.814 20.186,-45 45,-45 h 360 c 24.814,0 45,20.186 45,45 v 92 c 0,8.291 -6.709,15 -15,15 z"/></g><path id="path6" fill="#babac0" d="m 436.414,0 h -180 v 152 h 210 c 8.291,0 15,-6.709 15,-15 V 45 c 0,-24.814 -20.186,-45 -45,-45 z"/><g id="Calendar_1_"><g id="g12"><g id="g10"><path id="path8" fill="#4086f4" d="m 30.835,316.998 c 0.005,-0.022 0.007,-0.033 0.007,-0.033 L 1,174.8 C -1.1,161.3 2.5,147.799 10.901,137.899 19.6,127.7 32.199,122 45.399,122 H 466.6 c 13.2,0 25.8,5.7 34.499,15.899 C 509.5,147.8 513.1,161.3 511,174.2 L 481.158,317.036 511,459.2 c 2.1,13.5 -1.5,27.001 -9.901,36.899 C 492.4,506.3 479.801,512 466.601,512 H 45.399 C 32.199,512 19.599,506.3 10.9,496.099 2.5,486.2 -1.1,472.7 1,459.8 c 0,0 29.317,-140.325 29.835,-142.802 z"/></g></g><path id="path14" fill="#4175df" d="m 30.842,316.965 c 0,0 -0.002,0.011 -0.007,0.033 H 481.166 L 511,174.2 c 2.1,-12.9 -1.5,-26.4 -9.901,-36.301 C 492.4,127.7 479.801,122 466.601,122 H 45.399 c -13.2,0 -25.8,5.7 -34.499,15.899 C 2.5,147.8 -1.1,161.3 1,174.8 Z"/><g id="g18"><circle id="circle16" cx="106" cy="75" r="15" fill="#fff5f5"/></g><g id="g22"><circle id="circle20" cx="406" cy="75" r="15" fill="#e3e7ea"/></g><g id="g26"><path id="path24" fill="#fff5f5" d="m 196,422 c -25.371,0 -48.12,-16.069 -56.572,-40.005 -2.769,-7.808 1.318,-16.377 9.141,-19.131 7.778,-2.783 16.377,1.333 19.131,9.141 4.233,11.953 15.614,19.995 28.3,19.995 16.538,0 30,-13.462 30,-30 0,-16.538 -13.462,-30 -30,-30 h -18.647 c -8.276,0 -15,-6.709 -15,-15 0,-8.291 6.724,-15 15,-15 H 196 c 16.538,0 30,-13.462 30,-30 0,-16.538 -13.462,-30 -30,-30 -12.686,0 -24.067,8.042 -28.301,19.995 -2.754,7.822 -11.367,11.924 -19.131,9.141 -7.822,-2.754 -11.909,-11.323 -9.141,-19.131 C 147.88,228.069 170.629,212 196,212 c 33.091,0 60,26.909 60,60 0,17.9 -7.881,33.999 -20.361,45 12.48,11.001 20.361,27.1 20.361,45 0,33.091 -26.909,60 -60,60 z"/></g><path id="path28" fill="#e3e7ea" d="m 148.568,271.136 c 7.764,2.783 16.377,-1.318 19.131,-9.141 C 171.933,250.042 183.315,242 196,242 c 16.538,0 30,13.462 30,30 0,16.538 -13.462,30 -30,30 h -18.647 c -8.276,0 -14.999,6.708 -15,14.998 h 73.288 C 248.12,305.997 256,289.899 256,272 c 0,-33.091 -26.909,-60 -60,-60 -25.371,0 -48.12,16.069 -56.572,40.005 -2.769,7.808 1.318,16.377 9.14,19.131 z"/><g id="g32"><path id="path30" fill="#fff5f5" d="m 346,422 c -8.291,0 -15,-6.709 -15,-15 V 255.022 l -21.68,14.458 c -6.914,4.57 -16.216,2.725 -20.801,-4.16 -4.6,-6.899 -2.739,-16.201 4.16,-20.801 l 45,-30 c 4.6,-3.062 10.532,-3.354 15.396,-0.747 4.878,2.608 7.925,7.691 7.925,13.228 v 180 c 0,8.291 -6.709,15 -15,15 z"/></g><path id="path34" fill="#e3e7ea" d="M 309.32,269.48 331,255.022 v 61.975 h 30 V 227 c 0,-5.537 -3.047,-10.62 -7.925,-13.228 -4.863,-2.607 -10.796,-2.314 -15.396,0.747 l -45,30 c -6.899,4.6 -8.76,13.901 -4.16,20.801 4.586,6.885 13.887,8.731 20.801,4.16 z"/></g></g></g></svg>