<svg xmlns="http://www.w3.org/2000/svg" width="256" height="256" viewBox="0 0 100 100"><rect width="100" height="100" fill="#7d6ee7" rx="20"/><path fill="#fff" d="M30.65 44.06L30.65 44.06Q30.65 44.41 30.44 44.66Q30.23 44.91 29.95 45.04L29.95 45.04Q29.30 44.59 28.43 44.19Q27.55 43.79 26.15 43.79L26.15 43.79Q25 43.79 24.02 44.19Q23.05 44.59 22.32 45.36Q21.60 46.14 21.19 47.31Q20.77 48.49 20.77 50.01L20.77 50.01Q20.77 51.56 21.18 52.71Q21.57 53.86 22.29 54.64Q23 55.41 24 55.80Q25 56.19 26.23 56.19L26.23 56.19Q27.52 56.19 28.49 55.83Q29.45 55.46 30.10 54.96L30.10 54.96Q30.35 55.06 30.57 55.33Q30.80 55.59 30.80 55.94L30.80 55.94Q30.80 56.46 30.20 56.89L30.20 56.89Q29.63 57.29 28.63 57.60Q27.63 57.91 26.07 57.91L26.07 57.91Q24.50 57.91 23.15 57.41Q21.80 56.91 20.81 55.93Q19.82 54.94 19.25 53.46Q18.68 51.99 18.68 50.01L18.68 50.01Q18.68 48.04 19.26 46.55Q19.85 45.06 20.85 44.06Q21.85 43.06 23.19 42.56Q24.52 42.06 26 42.06L26 42.06Q27.02 42.06 27.89 42.24Q28.75 42.41 29.36 42.70Q29.98 42.99 30.31 43.35Q30.65 43.71 30.65 44.06ZM38.02 56.29L38.02 56.29Q39.08 56.29 39.76 56.08Q40.45 55.86 40.75 55.66L40.75 55.66L40.75 52.04L37.65 52.36Q36.35 52.49 35.73 52.95Q35.10 53.41 35.10 54.31L35.10 54.31Q35.10 55.26 35.82 55.78Q36.55 56.29 38.02 56.29ZM38 45.71L38 45.71Q40.17 45.71 41.45 46.69Q42.73 47.66 42.73 49.76L42.73 49.76L42.73 55.69Q42.73 56.24 42.51 56.53Q42.30 56.81 41.88 57.06L41.88 57.06Q41.27 57.41 40.29 57.68Q39.30 57.94 38.02 57.94L38.02 57.94Q35.67 57.94 34.39 57.01Q33.10 56.09 33.10 54.34L33.10 54.34Q33.10 52.69 34.17 51.85Q35.25 51.01 37.20 50.81L37.20 50.81L40.75 50.46L40.75 49.76Q40.75 48.51 40 47.94Q39.25 47.36 37.98 47.36L37.98 47.36Q36.92 47.36 36 47.66Q35.07 47.96 34.35 48.34L34.35 48.34Q34.15 48.16 33.99 47.94Q33.82 47.71 33.82 47.44L33.82 47.44Q33.82 47.09 34 46.86Q34.17 46.64 34.55 46.44L34.55 46.44Q35.23 46.09 36.10 45.90Q36.98 45.71 38 45.71ZM54.38 50.06L54.38 50.06Q54.38 48.66 53.59 48.01Q52.80 47.36 51.48 47.36L51.48 47.36Q50.48 47.36 49.70 47.61Q48.92 47.86 48.38 48.19L48.38 48.19L48.38 57.54Q48.25 57.59 48 57.65Q47.75 57.71 47.45 57.71L47.45 57.71Q46.38 57.71 46.38 56.81L46.38 56.81L46.38 48.29Q46.38 47.76 46.59 47.43Q46.80 47.09 47.33 46.76L47.33 46.76Q47.98 46.36 49.05 46.04Q50.13 45.71 51.48 45.71L51.48 45.71Q53.75 45.71 55.06 46.74Q56.38 47.76 56.38 49.96L56.38 49.96L56.38 57.54Q56.25 57.59 55.99 57.65Q55.73 57.71 55.45 57.71L55.45 57.71Q54.38 57.71 54.38 56.81L54.38 56.81L54.38 50.06ZM68.78 45.81L68.78 45.81Q69.20 45.81 69.46 46.04Q69.72 46.26 69.72 46.69L69.72 46.69Q69.72 46.96 69.53 47.65Q69.33 48.34 69 49.28Q68.67 50.21 68.26 51.34Q67.85 52.46 67.39 53.58Q66.92 54.69 66.46 55.71Q66 56.74 65.60 57.49L65.60 57.49Q65.47 57.59 65.16 57.66Q64.85 57.74 64.50 57.74L64.50 57.74Q63.58 57.74 63.30 57.21L63.30 57.21Q63.08 56.79 62.73 56.04Q62.38 55.29 61.98 54.34Q61.58 53.39 61.15 52.31Q60.73 51.24 60.33 50.18Q59.92 49.11 59.58 48.13Q59.23 47.14 59 46.36L59 46.36Q59.17 46.11 59.48 45.96Q59.77 45.81 60.08 45.81L60.08 45.81Q60.52 45.81 60.76 46.04Q61 46.26 61.20 46.79L61.20 46.79L62.75 51.26Q62.90 51.69 63.13 52.30Q63.35 52.91 63.59 53.55Q63.83 54.19 64.06 54.79Q64.30 55.39 64.45 55.81L64.45 55.81L64.55 55.81Q65.55 53.29 66.41 50.84Q67.28 48.39 67.92 46.01L67.92 46.01Q68.25 45.81 68.78 45.81ZM76.63 56.29L76.63 56.29Q77.67 56.29 78.36 56.08Q79.05 55.86 79.35 55.66L79.35 55.66L79.35 52.04L76.25 52.36Q74.95 52.49 74.33 52.95Q73.70 53.41 73.70 54.31L73.70 54.31Q73.70 55.26 74.42 55.78Q75.15 56.29 76.63 56.29ZM76.60 45.71L76.60 45.71Q78.78 45.71 80.05 46.69Q81.33 47.66 81.33 49.76L81.33 49.76L81.33 55.69Q81.33 56.24 81.11 56.53Q80.90 56.81 80.47 57.06L80.47 57.06Q79.88 57.41 78.89 57.68Q77.90 57.94 76.63 57.94L76.63 57.94Q74.28 57.94 72.99 57.01Q71.70 56.09 71.70 54.34L71.70 54.34Q71.70 52.69 72.78 51.85Q73.85 51.01 75.80 50.81L75.80 50.81L79.35 50.46L79.35 49.76Q79.35 48.51 78.60 47.94Q77.85 47.36 76.58 47.36L76.58 47.36Q75.53 47.36 74.60 47.66Q73.67 47.96 72.95 48.34L72.95 48.34Q72.75 48.16 72.59 47.94Q72.42 47.71 72.42 47.44L72.42 47.44Q72.42 47.09 72.60 46.86Q72.78 46.64 73.15 46.44L73.15 46.44Q73.83 46.09 74.70 45.90Q75.58 45.71 76.60 45.71Z"/></svg>