<svg xmlns="http://www.w3.org/2000/svg" xmlns:svg="http://www.w3.org/2000/svg" xmlns:xlink="http://www.w3.org/1999/xlink" id="svg29" width="240" height="240" version="1.1" viewBox="-305 -516 240 240"><metadata id="metadata33"/><title id="title2">Wikimedia Commons Logo</title><defs id="defs7"><clipPath id="c"><circle id="circle4" cx="0" cy="0" r="298"/></clipPath></defs><g id="g870" transform="matrix(0.24600246,0,0,0.24600246,-185,-369.30873)"><circle id="circle9" cx="0" cy="0" r="100" fill="#900"/><g id="g27" fill="#069"><g id="arrow" clip-path="url(#c)"><path id="path11" d="M -11,180 V 298 H 11 V 180"/><path id="path13" d="M -43,185 0,110 43,185"/></g><g id="arrows3"><use id="use16" width="100%" height="100%" x="0" y="0" transform="rotate(45)" xlink:href="#arrow"/><use id="use18" width="100%" height="100%" x="0" y="0" transform="rotate(90)" xlink:href="#arrow"/><use id="use20" width="100%" height="100%" x="0" y="0" transform="rotate(135)" xlink:href="#arrow"/></g><use id="use23" width="100%" height="100%" x="0" y="0" transform="scale(-1,1)" xlink:href="#arrows3"/><path id="blue_path" fill="none" stroke="#069" stroke-width="84" d="M 0,-256 A 256,256 0 1 0 256,0 c 0,-100 -101,-150 -6,-275" transform="rotate(-45)"/><path id="arrow_top" d="m -23,-515 c 0,0 -36,135 -80,185 -44,50 116,-62 170,-5 54,57 -90,-180 -90,-180 z"/></g></g></svg>