<svg xmlns="http://www.w3.org/2000/svg" width="256" height="256" viewBox="0 0 100 100"><rect width="100" height="100" rx="20" fill="#09f71e"></rect><path fill="#fff" d="M44.83 28.67L44.83 28.67Q44.83 29.93 44.06 30.83Q43.30 31.73 42.30 32.18L42.30 32.18Q39.97 30.56 36.82 29.12Q33.66 27.68 28.63 27.68L28.63 27.68Q24.49 27.68 20.98 29.12Q17.47 30.56 14.86 33.35Q12.25 36.14 10.76 40.37Q9.28 44.60 9.28 50.09L9.28 50.09Q9.28 55.67 10.72 59.81Q12.16 63.95 14.72 66.74Q17.29 69.53 20.89 70.92Q24.49 72.32 28.90 72.32L28.90 72.32Q33.58 72.32 37.04 71.02Q40.51 69.71 42.84 67.91L42.84 67.91Q43.75 68.27 44.55 69.22Q45.37 70.16 45.37 71.42L45.37 71.42Q45.37 73.31 43.21 74.84L43.21 74.84Q41.14 76.28 37.54 77.41Q33.94 78.53 28.36 78.53L28.36 78.53Q22.69 78.53 17.83 76.73Q12.97 74.93 9.41 71.38Q5.86 67.82 3.79 62.51Q1.72 57.20 1.72 50.09L1.72 50.09Q1.72 42.98 3.83 37.63Q5.95 32.27 9.55 28.67Q13.15 25.07 17.96 23.27Q22.78 21.47 28.09 21.47L28.09 21.47Q31.78 21.47 34.88 22.10Q37.98 22.73 40.19 23.77Q42.40 24.80 43.61 26.11Q44.83 27.41 44.83 28.67ZM97.75 28.67L97.75 28.67Q97.75 29.93 96.98 30.83Q96.22 31.73 95.22 32.18L95.22 32.18Q92.88 30.56 89.73 29.12Q86.58 27.68 81.55 27.68L81.55 27.68Q77.41 27.68 73.89 29.12Q70.38 30.56 67.78 33.35Q65.16 36.14 63.68 40.37Q62.20 44.60 62.20 50.09L62.20 50.09Q62.20 55.67 63.63 59.81Q65.08 63.95 67.64 66.74Q70.20 69.53 73.80 70.92Q77.41 72.32 81.81 72.32L81.81 72.32Q86.50 72.32 89.96 71.02Q93.42 69.71 95.76 67.91L95.76 67.91Q96.66 68.27 97.47 69.22Q98.28 70.16 98.28 71.42L98.28 71.42Q98.28 73.31 96.13 74.84L96.13 74.84Q94.06 76.28 90.45 77.41Q86.85 78.53 81.28 78.53L81.28 78.53Q75.60 78.53 70.75 76.73Q65.88 74.93 62.33 71.38Q58.77 67.82 56.70 62.51Q54.63 57.20 54.63 50.09L54.63 50.09Q54.63 42.98 56.75 37.63Q58.86 32.27 62.46 28.67Q66.06 25.07 70.88 23.27Q75.69 21.47 81.00 21.47L81.00 21.47Q84.69 21.47 87.80 22.10Q90.91 22.73 93.11 23.77Q95.31 24.80 96.53 26.11Q97.75 27.41 97.75 28.67Z"></path></svg>