<svg xmlns="http://www.w3.org/2000/svg" width="256" height="256" viewBox="0 0 100 100"><rect width="100" height="100" fill="#04c0f2" rx="20"/><path fill="#fff" d="M46.74 33.41L46.74 33.41Q46.74 34.39 46.15 35.09Q45.55 35.79 44.78 36.14L44.78 36.14Q42.96 34.88 40.52 33.76Q38.06 32.64 34.14 32.64L34.14 32.64Q30.92 32.64 28.19 33.76Q25.46 34.88 23.43 37.05Q21.40 39.22 20.25 42.51Q19.09 45.80 19.09 50.07L19.09 50.07Q19.09 54.41 20.21 57.63Q21.33 60.85 23.33 63.02Q25.32 65.19 28.12 66.28Q30.92 67.36 34.35 67.36L34.35 67.36Q37.99 67.36 40.69 66.34Q43.38 65.33 45.20 63.93L45.20 63.93Q45.91 64.21 46.53 64.94Q47.16 65.68 47.16 66.66L47.16 66.66Q47.16 68.13 45.48 69.32L45.48 69.32Q43.88 70.44 41.08 71.31Q38.27 72.19 33.94 72.19L33.94 72.19Q29.52 72.19 25.74 70.79Q21.96 69.39 19.20 66.63Q16.43 63.86 14.82 59.73Q13.21 55.60 13.21 50.07L13.21 50.07Q13.21 44.54 14.86 40.38Q16.50 36.21 19.30 33.41Q22.10 30.61 25.85 29.21Q29.59 27.81 33.72 27.81L33.72 27.81Q36.59 27.81 39.01 28.30Q41.42 28.79 43.14 29.59Q44.85 30.40 45.80 31.41Q46.74 32.43 46.74 33.41ZM69.64 56.09L62.56 56.09L62.56 71.14Q62.14 71.28 61.45 71.45Q60.74 71.63 59.91 71.63L59.91 71.63Q56.83 71.63 56.83 69.04L56.83 69.04L56.83 31.80Q56.83 30.68 57.38 30.08Q57.95 29.49 59.13 29.14L59.13 29.14Q61.16 28.51 64.07 28.23Q66.97 27.95 69.70 27.95L69.70 27.95Q78.59 27.95 82.69 31.70Q86.78 35.44 86.78 41.81L86.78 41.81Q86.78 48.32 82.59 52.20Q78.39 56.09 69.64 56.09L69.64 56.09ZM62.49 51.33L69.28 51.33Q74.89 51.33 77.97 49.02Q81.05 46.71 81.05 41.88L81.05 41.88Q81.05 37.12 78.07 34.91Q75.09 32.71 69.56 32.71L69.56 32.71Q67.67 32.71 65.82 32.88Q63.97 33.06 62.49 33.34L62.49 33.34L62.49 51.33Z"/></svg>