<svg xmlns="http://www.w3.org/2000/svg" xmlns:xlink="http://www.w3.org/1999/xlink" width="300" height="300" version="1.1" style="shape-rendering:geometricPrecision;text-rendering:geometricPrecision;image-rendering:optimizeQuality;fill-rule:evenodd;clip-rule:evenodd"><g><path style="opacity:1" fill="#fefefe" d="M -0.5,-0.5 C 99.5,-0.5 199.5,-0.5 299.5,-0.5C 299.5,99.5 299.5,199.5 299.5,299.5C 199.5,299.5 99.5,299.5 -0.5,299.5C -0.5,199.5 -0.5,99.5 -0.5,-0.5 Z"/></g><g><path style="opacity:1" fill="#0d8ff1" d="M 149.5,55.5 C 180.926,54.9694 207.093,66.3027 228,89.5C 234.102,104.143 229.602,114.31 214.5,120C 204.377,121.738 195.044,119.738 186.5,114C 167.253,99.6735 147.586,99.0068 127.5,112C 122.585,116.244 118.419,121.077 115,126.5C 108.921,118.201 100.754,113.034 90.5,111C 83.7097,110.636 77.043,110.469 70.5,110.5C 86.7258,77.6017 113.059,59.2684 149.5,55.5 Z"/></g><g><path style="opacity:1" fill="#3ccdaa" d="M 75.5,121.5 C 86.067,120.429 95.2336,123.429 103,130.5C 104.586,132.67 105.92,135.004 107,137.5C 108.453,147.619 110.453,157.619 113,167.5C 124.468,189.816 142.634,198.649 167.5,194C 177.633,191.436 185.966,186.103 192.5,178C 206.864,168.216 220.03,169.716 232,182.5C 236.59,189.47 236.59,196.47 232,203.5C 204.344,237.384 169.178,248.884 126.5,238C 122.133,236.547 117.966,234.714 114,232.5C 100.009,237.06 85.8419,240.56 71.5,243C 65.6831,240.868 62.6831,236.701 62.5,230.5C 65.2642,217.61 68.2642,204.777 71.5,192C 67.66,182.142 64.8267,171.976 63,161.5C 62.3333,152.833 62.3333,144.167 63,135.5C 64.9265,128.745 69.0932,124.078 75.5,121.5 Z"/></g></svg>