<svg xmlns="http://www.w3.org/2000/svg" width="256" height="256" viewBox="0 0 100 100"><rect width="100" height="100" rx="20" fill="#ed0740"></rect><path fill="#fff" d="M17.49 37.26L17.49 37.26Q15.04 37.26 12.96 38.08Q10.87 38.91 9.36 40.53Q7.84 42.15 6.98 44.56Q6.12 46.98 6.12 50.07L6.12 50.07Q6.12 56.26 9.21 59.54Q12.31 62.82 17.49 62.82L17.49 62.82Q20.52 62.82 22.53 61.99Q24.55 61.16 26.13 60.08L26.13 60.08Q26.92 60.51 27.43 61.16Q27.93 61.81 27.93 62.74L27.93 62.74Q27.93 63.75 27.14 64.62Q26.35 65.48 24.94 66.13Q23.54 66.78 21.63 67.17Q19.72 67.57 17.49 67.57L17.49 67.57Q13.75 67.57 10.58 66.49Q7.41 65.41 5.11 63.25Q2.80 61.09 1.51 57.81Q0.21 54.54 0.21 50.07L0.21 50.07Q0.21 45.68 1.58 42.40Q2.95 39.13 5.25 36.90Q7.56 34.66 10.69 33.55Q13.82 32.43 17.35 32.43L17.35 32.43Q19.58 32.43 21.49 32.83Q23.40 33.22 24.76 33.94Q26.13 34.66 26.89 35.56Q27.64 36.46 27.64 37.40L27.64 37.40Q27.64 38.26 27.14 38.91Q26.64 39.56 25.84 39.92L25.84 39.92Q24.26 38.84 22.39 38.05Q20.52 37.26 17.49 37.26ZM67.39 50L67.39 50Q67.39 54.03 66.24 57.27Q65.08 60.51 62.96 62.82Q60.84 65.12 57.81 66.34Q54.79 67.57 51.04 67.57L51.04 67.57Q47.30 67.57 44.28 66.34Q41.25 65.12 39.09 62.82Q36.93 60.51 35.78 57.27Q34.63 54.03 34.63 50L34.63 50Q34.63 45.97 35.82 42.73Q37.00 39.49 39.16 37.18Q41.32 34.88 44.35 33.66Q47.37 32.43 51.04 32.43L51.04 32.43Q54.72 32.43 57.74 33.66Q60.76 34.88 62.89 37.18Q65.01 39.49 66.20 42.73Q67.39 45.97 67.39 50ZM51.04 37.18L51.04 37.18Q46.15 37.18 43.34 40.57Q40.53 43.95 40.53 50L40.53 50Q40.53 56.12 43.30 59.47Q46.08 62.82 51.04 62.82L51.04 62.82Q56.01 62.82 58.75 59.43Q61.48 56.05 61.48 50L61.48 50Q61.48 43.95 58.71 40.57Q55.94 37.18 51.04 37.18ZM99.79 57.78L99.79 57.78Q99.79 62.38 96.40 64.98Q93.02 67.57 86.61 67.57L86.61 67.57Q83.88 67.57 81.57 67.10Q79.27 66.63 77.65 65.88Q76.03 65.12 75.13 64.15Q74.23 63.18 74.23 62.17L74.23 62.17Q74.23 61.30 74.70 60.51Q75.16 59.72 76.10 59.14L76.10 59.14Q78.04 60.58 80.64 61.70Q83.23 62.82 86.54 62.82L86.54 62.82Q94.03 62.82 94.03 57.78L94.03 57.78Q94.03 53.67 89.06 52.45L89.06 52.45L83.08 50.86Q78.69 49.71 76.68 47.52Q74.66 45.32 74.66 41.86L74.66 41.86Q74.66 39.99 75.42 38.26Q76.17 36.54 77.76 35.24Q79.34 33.94 81.68 33.19Q84.02 32.43 87.19 32.43L87.19 32.43Q92.23 32.43 95.32 33.91Q98.42 35.38 98.42 37.33L98.42 37.33Q98.42 38.26 97.95 38.98Q97.48 39.70 96.69 40.06L96.69 40.06Q95.40 39.20 93.02 38.19Q90.64 37.18 87.40 37.18L87.40 37.18Q84.16 37.18 82.26 38.41Q80.35 39.63 80.35 41.86L80.35 41.86Q80.35 43.52 81.43 44.67Q82.51 45.82 85.03 46.40L85.03 46.40L90.00 47.62Q94.89 48.85 97.34 51.26Q99.79 53.67 99.79 57.78Z"></path></svg>