<?xml version="1.0" standalone="no"?>
<!DOCTYPE svg PUBLIC "-//W3C//DTD SVG 20010904//EN"
 "http://www.w3.org/TR/2001/REC-SVG-20010904/DTD/svg10.dtd">
<svg version="1.0" xmlns="http://www.w3.org/2000/svg"
 width="300.000000pt" height="221.000000pt" viewBox="0 0 300.000000 221.000000"
 preserveAspectRatio="xMidYMid meet">
<metadata>
Created by potrace 1.10, written by Peter Selinger 2001-2011
</metadata>
<g transform="translate(0.000000,221.000000) scale(0.050000,-0.050000)"
fill="#050df5" stroke="none">
<path d="M4076 4288 c-115 -247 -101 -593 36 -866 63 -127 295 -382 347 -382
47 0 1 -260 -59 -326 -54 -60 -344 149 -702 506 -172 170 -370 351 -440 400
-344 243 -363 414 -68 594 38 24 38 26 4 53 -102 81 -357 55 -736 -75 -239
-82 -259 -86 -370 -68 -1065 174 -2007 -528 -2061 -1534 -9 -178 -9 -179 24
-115 19 35 42 60 51 54 16 -10 28 51 20 97 -2 9 18 14 43 10 49 -7 55 59 8 89
-13 8 -2 15 27 15 40 0 44 5 20 20 -24 15 -20 19 18 20 47 0 47 -1 13 -39 -23
-26 -31 -52 -21 -75 9 -20 18 -94 21 -166 8 -170 7 -164 24 -153 9 5 15 -26
14 -69 -2 -44 7 -78 19 -78 12 0 9 -9 -8 -20 -20 -13 -22 -19 -5 -20 14 0 25
-17 25 -39 0 -21 10 -45 22 -52 16 -10 14 -19 -5 -31 -17 -11 -18 -18 -4 -18
13 0 19 -17 14 -37 -6 -20 5 -52 23 -70 18 -18 27 -42 20 -53 -7 -11 -3 -20 9
-20 11 0 19 -7 17 -15 -3 -8 7 -36 22 -62 22 -40 22 -45 -1 -31 -15 9 -2 -17
29 -58 31 -41 47 -74 35 -74 -18 0 -2 -25 69 -108 11 -12 23 -36 27 -52 3 -16
12 -34 20 -40 7 -5 38 -48 68 -95 58 -88 113 -155 240 -289 41 -44 70 -88 64
-97 -6 -10 2 -14 17 -8 16 6 34 -3 41 -20 6 -17 22 -31 34 -31 33 0 81 -54 74
-84 -3 -15 10 -24 30 -20 19 3 35 -1 35 -10 0 -9 40 -38 90 -64 49 -26 90 -55
90 -65 0 -9 12 -17 28 -17 15 0 38 -13 50 -28 13 -15 56 -34 96 -41 54 -11 66
-19 45 -32 -19 -12 48 -18 181 -18 143 0 200 6 180 19 -24 15 -19 19 21 20 30
0 70 21 96 51 24 28 53 45 64 38 11 -6 19 -5 17 5 -9 50 6 86 35 86 34 0 32
120 -5 210 -14 37 -13 38 21 10 21 -16 39 -25 41 -20 2 6 45 -16 96 -48 51
-33 88 -66 82 -75 -6 -10 2 -17 18 -17 15 0 64 -26 109 -59 45 -32 86 -54 91
-48 6 6 21 -9 34 -33 13 -24 28 -39 34 -33 5 6 36 -16 67 -48 32 -33 76 -59
100 -59 23 0 36 -9 29 -20 -7 -12 -6 -20 4 -18 37 6 65 -4 98 -37 20 -19 45
-36 57 -38 11 -1 32 -3 46 -5 31 -3 33 -55 2 -74 -15 -9 -18 -5 -7 12 10 17 6
22 -12 15 -15 -5 -26 -20 -23 -33 3 -12 -18 -22 -46 -22 -29 0 -46 -9 -39 -20
7 -12 -13 -17 -51 -12 -40 5 -66 -3 -73 -20 -6 -16 -32 -28 -59 -28 -28 0 -68
-10 -90 -22 -23 -12 -72 -25 -110 -30 -38 -5 -97 -29 -130 -53 l-61 -45 123
-6 c358 -17 750 123 1135 407 42 31 52 31 140 1 318 -108 835 -75 906 59 54
100 18 138 -225 238 -124 51 -250 104 -282 117 l-56 25 152 170 c457 510 692
1118 711 1842 0 7 41 19 91 26 385 58 707 329 807 681 112 394 35 578 -159
378 -120 -125 -217 -167 -383 -168 -164 0 -318 -54 -429 -149 l-80 -68 -23 90
c-33 121 -142 231 -324 322 -161 82 -224 153 -262 293 -49 182 -117 182 -202
0z m-1236 -209 c26 -17 25 -24 -9 -49 -28 -22 -31 -30 -10 -30 25 -1 25 -3 1
-18 -24 -16 -23 -24 5 -52 39 -39 41 -54 9 -86 -17 -17 -18 -24 -1 -24 12 0
42 -36 67 -79 24 -44 51 -76 58 -71 8 5 24 -13 37 -41 12 -27 31 -49 43 -49
29 0 111 -87 103 -110 -3 -11 0 -13 8 -5 9 8 27 5 42 -8 15 -12 27 -16 27 -8
0 8 14 0 30 -16 36 -37 39 -61 5 -41 -15 8 -18 7 -8 -4 9 -10 24 -18 34 -18
30 0 200 -152 190 -169 -6 -9 12 -22 39 -29 33 -8 50 -27 50 -54 0 -22 9 -35
20 -28 22 13 213 -185 205 -213 -3 -9 6 -15 20 -12 14 3 23 -6 20 -20 -3 -14
2 -23 10 -21 20 6 104 -41 152 -86 21 -20 47 -32 56 -26 9 6 17 -3 17 -20 0
-17 38 -48 85 -70 47 -22 108 -55 137 -74 50 -33 162 -27 155 7 -8 36 30 85
65 85 21 0 38 14 38 31 0 16 13 35 30 42 16 6 25 19 20 28 -12 18 30 123 57
142 10 6 9 17 -2 24 -11 7 -15 35 -10 62 7 35 -1 54 -24 64 -24 8 -27 17 -11
27 15 9 -5 41 -58 94 -45 44 -75 86 -67 94 8 9 1 12 -15 9 -17 -4 -28 5 -25
19 4 15 -2 22 -13 15 -18 -11 -142 158 -142 194 0 9 -9 12 -20 5 -11 -7 -21 6
-23 29 -2 22 -4 52 -5 66 -1 14 -9 30 -18 37 -9 7 -19 25 -21 40 -2 15 -9 37
-15 48 -15 26 -9 165 7 182 7 6 5 33 -5 58 -24 63 48 84 96 29 18 -22 45 -39
60 -39 14 0 21 -9 14 -20 -7 -11 4 -26 24 -34 20 -7 41 -19 46 -26 6 -7 53
-32 105 -56 52 -24 95 -54 95 -65 0 -12 9 -16 20 -9 11 7 20 -1 20 -17 0 -16
14 -34 32 -41 19 -7 27 -25 20 -44 -8 -21 1 -35 29 -42 26 -7 37 -22 30 -41
-8 -20 -2 -26 19 -18 16 7 30 2 30 -9 0 -11 11 -14 23 -6 16 9 20 4 13 -15 -9
-23 5 -28 71 -25 45 2 85 14 89 26 4 12 20 22 35 22 15 0 34 13 44 29 15 28
99 42 275 49 46 2 53 7 30 22 -26 17 -25 19 5 20 19 0 35 -9 35 -20 0 -11 29
-19 65 -19 54 2 59 5 25 19 -29 12 -31 18 -10 21 77 9 200 57 200 77 0 47 70
6 72 -42 2 -43 -7 -56 -37 -56 -32 0 -35 -6 -16 -28 17 -21 17 -32 1 -42 -13
-8 -18 -27 -12 -42 6 -15 2 -28 -9 -28 -10 0 -19 -14 -19 -31 0 -19 -9 -26
-23 -17 -16 10 -20 4 -11 -19 12 -30 -7 -43 -52 -35 -10 2 -12 -5 -6 -15 6
-10 -7 -38 -28 -63 -22 -26 -40 -36 -40 -23 0 13 -9 23 -19 23 -11 0 -15 -12
-9 -27 5 -15 -6 -39 -25 -55 -30 -24 -32 -24 -18 0 12 19 10 24 -6 14 -13 -8
-23 -26 -23 -40 0 -24 -11 -28 -100 -37 -22 -2 -40 -11 -40 -19 0 -9 -20 -16
-45 -16 -70 -1 -136 -23 -124 -42 9 -14 -66 -45 -116 -47 -8 -1 -15 -8 -15
-16 0 -8 -18 -33 -41 -56 -49 -49 -84 -136 -70 -172 5 -15 0 -27 -12 -27 -16
0 -16 -7 -1 -26 13 -15 15 -37 4 -54 -9 -15 -13 -35 -7 -44 5 -9 -1 -16 -14
-16 -15 0 -20 -22 -15 -59 5 -32 1 -54 -9 -48 -10 6 -16 -5 -13 -26 3 -20 0
-55 -8 -77 -11 -34 -33 -181 -39 -265 -1 -14 -15 -25 -32 -25 -23 0 -25 -6 -8
-23 20 -20 -9 -93 -55 -137 -5 -5 -12 -32 -14 -60 -9 -102 -15 -120 -40 -120
-14 0 -31 -25 -38 -55 -8 -30 -22 -66 -33 -80 -11 -14 -14 -25 -6 -25 7 0 -10
-30 -38 -67 -28 -36 -45 -72 -38 -80 8 -7 0 -13 -16 -13 -17 0 -41 -23 -54
-51 -36 -80 -151 -227 -177 -228 -14 -1 -20 -13 -15 -27 6 -16 -12 -37 -41
-51 -29 -13 -47 -31 -41 -41 6 -10 -3 -29 -19 -42 -16 -13 -25 -33 -19 -42 6
-10 3 -18 -7 -18 -50 0 -4 -152 65 -215 39 -36 71 -73 71 -83 0 -9 23 -14 50
-11 32 4 50 -5 50 -23 0 -15 19 -28 41 -28 26 0 36 -9 27 -23 -10 -16 -84 -19
-256 -10 -246 12 -338 27 -323 51 4 7 -15 12 -42 11 -49 -2 -300 219 -291 256
2 8 -4 13 -14 10 -10 -3 -53 33 -97 80 -43 47 -74 85 -67 85 6 0 -9 14 -33 31
-24 17 -71 70 -105 118 -33 49 -74 102 -91 119 -17 18 -25 43 -17 57 8 14 7
19 -1 11 -18 -16 -71 31 -71 63 0 13 -22 45 -48 71 -27 27 -54 65 -61 86 -6
20 -27 54 -46 75 -44 49 -109 149 -96 149 5 0 -11 21 -35 46 -138 146 -193
219 -181 238 8 13 4 16 -10 8 -14 -9 -32 6 -46 37 -13 28 -29 51 -36 51 -6 0
-56 41 -110 90 -54 50 -106 90 -117 90 -10 0 -13 13 -7 30 6 16 5 29 -3 27
-51 -7 -73 4 -44 23 23 15 18 19 -25 20 -30 0 -55 10 -55 21 0 12 -11 15 -23
7 -16 -10 -20 -4 -11 19 8 21 3 33 -14 33 -33 0 -102 35 -185 95 -35 25 -74
45 -86 45 -13 0 -18 9 -11 20 7 11 -5 20 -27 20 -22 0 -43 9 -46 20 -4 12 -36
23 -72 25 -36 3 -65 11 -65 18 0 7 -23 18 -51 25 -28 7 -46 21 -40 30 5 9 -42
22 -105 29 -62 7 -150 26 -194 42 -44 16 -156 31 -250 33 -124 2 -151 7 -100
17 58 12 45 15 -77 22 -81 5 -151 2 -156 -6 -5 -8 20 -15 55 -15 111 0 52 -18
-75 -23 -95 -4 -121 -12 -119 -36 1 -18 -13 -30 -32 -28 -19 1 -33 -8 -30 -20
2 -13 -8 -21 -22 -18 -15 4 -22 -2 -16 -12 23 -38 -44 -69 -77 -37 -18 19 -22
34 -10 38 12 4 23 20 26 36 2 17 11 41 20 55 9 15 5 25 -10 25 -13 0 -7 13 14
28 21 16 33 35 25 43 -8 7 -1 27 15 43 16 16 24 37 18 48 -6 10 -3 18 6 18 10
0 38 36 63 80 25 44 53 75 64 69 10 -7 18 -5 16 5 -7 41 6 70 64 135 34 39 72
65 83 58 12 -7 15 -4 8 7 -13 22 111 166 142 166 10 0 35 16 56 35 22 19 73
51 114 70 41 19 75 42 75 52 0 19 85 15 119 -6 12 -8 16 -1 9 17 -8 21 5 34
40 43 28 7 47 21 41 31 -17 27 19 22 50 -7 16 -15 22 -16 14 -2 -8 14 12 28
52 37 92 19 255 26 255 10 0 -8 56 -15 125 -17 127 -2 144 -2 260 -3 124 0
135 -3 135 -26 0 -14 8 -12 20 6 18 27 22 27 40 0 14 -22 19 -23 20 -4 0 19
25 24 88 19 68 -6 86 -2 78 19 -7 18 0 22 25 13 24 -10 31 -6 21 10 -10 16 9
23 62 23 56 1 68 6 46 20 -21 13 -22 20 -5 22 30 4 63 12 70 17 3 2 27 8 54
13 27 5 53 13 58 18 17 17 112 10 143 -11z m-1672 -1307 c578 -149 1090 -539
1491 -1133 379 -562 640 -867 908 -1059 l98 -70 -138 -6 c-322 -14 -461 38
-828 310 -649 482 -903 516 -688 93 84 -165 80 -196 -25 -240 -337 -141 -999
355 -1315 986 -202 402 -339 1045 -241 1127 90 74 432 71 738 -8z"/>
<path d="M3167 2790 c-10 -26 -16 -28 -29 -7 -13 20 -17 21 -18 2 0 -14 -14
-25 -31 -25 -17 0 -26 -8 -20 -18 6 -10 -13 -33 -42 -52 -41 -27 -46 -38 -25
-52 23 -14 22 -17 -4 -18 -22 0 -31 -19 -30 -70 1 -43 12 -70 28 -70 15 0 20
-10 13 -22 -8 -12 -2 -30 13 -40 23 -13 23 -24 3 -56 -15 -26 -17 -45 -5 -52
13 -8 13 -25 0 -50 -27 -51 -25 -60 12 -60 20 0 28 -11 21 -30 -7 -18 0 -30
17 -30 15 0 36 -14 45 -31 10 -16 42 -35 72 -40 53 -10 133 -73 133 -105 0
-26 183 -202 224 -215 20 -7 31 -21 24 -32 -39 -64 394 -8 453 58 32 36 67 65
78 65 10 0 15 19 11 42 -6 30 0 39 21 30 19 -7 29 2 29 29 0 21 -11 39 -25 39
-17 1 -15 7 5 20 21 14 23 25 8 35 -12 8 -20 31 -17 50 3 19 -3 35 -13 35 -10
0 -18 14 -18 30 0 17 -9 30 -20 30 -10 0 -25 23 -32 50 -7 28 -20 50 -30 50
-10 0 -18 14 -18 30 0 17 -13 30 -30 30 -16 0 -30 13 -30 28 0 16 -11 33 -25
39 -20 8 -20 10 0 11 34 3 -35 82 -72 82 -16 0 -23 12 -15 31 6 17 5 27 -3 22
-27 -16 -90 43 -74 69 10 15 7 19 -7 10 -26 -16 -107 58 -87 80 7 8 2 8 -10 1
-13 -7 -37 0 -54 17 -17 16 -39 30 -50 30 -11 0 -23 11 -28 25 -14 42 -331 48
-348 5z m259 -154 c190 -57 609 -581 562 -703 -30 -79 -246 -115 -360 -61
-140 67 -190 152 -186 319 5 209 -65 288 -255 289 -62 0 -95 48 -68 98 44 83
154 104 307 58z m-147 -305 c53 -64 -25 -162 -94 -119 -69 44 -45 148 35 148
19 0 46 -13 59 -29z"/>
<path d="M21 2197 c-7 -1048 1099 -2175 2137 -2177 l108 0 -77 52 c-42 29
-100 56 -128 61 -28 5 -60 18 -70 28 -10 11 -35 19 -54 19 -19 0 -41 10 -49
23 -9 15 -5 18 12 7 15 -10 21 -8 14 3 -6 11 -48 18 -92 16 -45 -2 -76 4 -70
14 6 9 -17 17 -50 17 -39 0 -70 15 -91 44 -17 25 -31 34 -31 20 0 -17 -24 -13
-78 15 -42 21 -84 33 -93 25 -8 -8 -9 -3 -1 11 9 16 2 25 -18 25 -18 0 -27 9
-20 20 7 11 0 15 -16 9 -15 -6 -39 3 -53 20 -14 17 -34 31 -44 31 -22 0 -185
105 -194 125 -3 8 -15 15 -26 15 -10 0 -38 18 -62 40 -23 22 -34 40 -24 40 11
0 -3 12 -31 27 -27 14 -48 37 -45 50 3 12 -2 21 -10 18 -28 -9 -109 62 -96 83
8 13 1 17 -18 10 -17 -7 -31 -2 -31 10 0 21 -50 87 -123 164 -19 19 -28 40
-22 46 6 7 1 12 -12 12 -12 0 -23 12 -23 27 0 15 -18 43 -39 63 -22 19 -46 54
-53 78 -8 23 -37 78 -64 122 -28 44 -49 82 -47 85 1 3 2 7 1 10 0 3 -4 23 -8
45 -5 21 -17 42 -29 46 -12 4 -21 16 -21 27 0 11 11 13 25 5 14 -8 9 3 -10 25
-19 22 -29 46 -22 54 8 7 5 13 -5 13 -11 0 -21 20 -23 45 -2 24 -13 48 -24 51
-12 4 -21 32 -21 62 0 30 -11 66 -25 81 -20 22 -19 24 5 11 24 -13 25 -11 5
11 -14 15 -25 48 -25 73 0 25 -9 46 -20 46 -11 0 -20 20 -20 45 -1 45 -38 122
-41 85 -1 -11 -15 7 -30 40 -26 58 -27 56 -28 -73z"/>
</g>
</svg>
