<?xml version="1.0" encoding="UTF-8"?>
<!DOCTYPE svg PUBLIC "-//W3C//DTD SVG 1.1//EN" "http://www.w3.org/Graphics/SVG/1.1/DTD/svg11.dtd">
<svg xmlns="http://www.w3.org/2000/svg" version="1.1" width="640px" height="640px" style="shape-rendering:geometricPrecision; text-rendering:geometricPrecision; image-rendering:optimizeQuality; fill-rule:evenodd; clip-rule:evenodd" xmlns:xlink="http://www.w3.org/1999/xlink">
<g><path style="opacity:0.998" fill="#fbb325" d="M 315.5,3.5 C 421.275,5.1401 506.775,47.1401 572,129.5C 630.551,211.261 648.218,301.261 625,399.5C 594.921,503.83 529.421,575.997 428.5,616C 333.036,648.32 241.702,639.32 154.5,589C 69.3423,534.257 19.8423,456.424 6,355.5C -3.84881,237.075 37.3179,140.909 129.5,67C 184.815,26.3947 246.815,5.22799 315.5,3.5 Z"/></g>
<g><path style="opacity:1" fill="#e4a424" d="M 186.5,124.5 C 186.667,166.168 186.5,207.835 186,249.5C 185.283,248.956 184.783,248.289 184.5,247.5C 185.167,206.5 185.833,165.5 186.5,124.5 Z"/></g>
<g><path style="opacity:1" fill="#231f20" d="M 186.5,124.5 C 205.833,124.5 225.167,124.5 244.5,124.5C 244.5,221.5 244.5,318.5 244.5,415.5C 225.167,415.5 205.833,415.5 186.5,415.5C 186.666,407.826 186.5,400.159 186,392.5C 152.961,422.591 116.461,427.758 76.5,408C 47.6903,388.049 33.6903,360.383 34.5,325C 34.2069,285.58 51.2069,256.246 85.5,237C 101.962,227.47 119.628,224.137 138.5,227C 147.109,227.902 155.442,229.902 163.5,233C 170.931,237.274 177.931,242.107 184.5,247.5C 184.783,248.289 185.283,248.956 186,249.5C 186.5,207.835 186.667,166.168 186.5,124.5 Z"/></g>
<g><path style="opacity:1" fill="#fffefd" d="M 511.5,125.5 C 540.053,125.218 553.886,139.218 553,167.5C 546.763,188.04 532.929,197.207 511.5,195C 491.192,188.671 482.026,174.838 484,153.5C 488.016,138.985 497.183,129.652 511.5,125.5 Z"/></g>
<g><path style="opacity:1" fill="#fffefe" d="M 350.5,223.5 C 377.843,220.911 403.176,226.745 426.5,241C 466.657,273.099 478.157,313.599 461,362.5C 444.061,398.749 415.561,418.582 375.5,422C 345.407,425.311 318.074,418.311 293.5,401C 264.121,374.201 252.621,341.034 259,301.5C 272.281,255.279 302.781,229.279 350.5,223.5 Z"/></g>
<g><path style="opacity:1" fill="#fffefe" d="M 487.5,230.5 C 508.167,230.5 528.833,230.5 549.5,230.5C 549.5,292.167 549.5,353.833 549.5,415.5C 528.833,415.5 508.167,415.5 487.5,415.5C 487.5,353.833 487.5,292.167 487.5,230.5 Z"/></g>
<g><path style="opacity:1" fill="#fab225" d="M 132.5,277.5 C 150.077,276.04 164.91,281.707 177,294.5C 190.569,317.829 187.735,338.996 168.5,358C 142.953,374.49 121.787,370.323 105,345.5C 94.9177,322.331 99.4177,302.498 118.5,286C 123.064,282.89 127.731,280.056 132.5,277.5 Z"/></g>
<g><path style="opacity:1" fill="#fcb426" d="M 352.5,280.5 C 376.244,277.283 392.744,286.617 402,308.5C 407.246,328.083 402.413,344.583 387.5,358C 376.85,365.061 365.183,367.394 352.5,365C 330.279,356.079 320.113,339.579 322,315.5C 325.983,298.356 336.15,286.689 352.5,280.5 Z"/></g>
</svg>
