<?xml version="1.0" encoding="UTF-8"?>
<!DOCTYPE svg PUBLIC "-//W3C//DTD SVG 1.1//EN" "http://www.w3.org/Graphics/SVG/1.1/DTD/svg11.dtd">
<svg xmlns="http://www.w3.org/2000/svg" version="1.1" width="1024px" height="1024px" style="shape-rendering:geometricPrecision; text-rendering:geometricPrecision; image-rendering:optimizeQuality; fill-rule:evenodd; clip-rule:evenodd" xmlns:xlink="http://www.w3.org/1999/xlink">
<g><path style="opacity:0.998" fill="#a468fe" d="M 374.5,-0.5 C 391.5,-0.5 408.5,-0.5 425.5,-0.5C 495.379,6.44273 556.713,32.7761 609.5,78.5C 627.644,155.891 639.977,234.224 646.5,313.5C 646.676,315.785 647.343,317.785 648.5,319.5C 647.833,319.5 647.167,319.5 646.5,319.5C 564.435,308.239 484.768,317.406 407.5,347C 382.434,357.697 358.434,370.197 335.5,384.5C 292.238,411.79 253.072,444.457 218,482.5C 150.752,557.608 99.2524,642.608 63.5,737.5C 63.3333,602.166 63.5,466.833 64,331.5C 74.0603,224.194 120.227,136.361 202.5,68C 253.161,28.6089 310.494,5.77553 374.5,-0.5 Z"/></g>
<g><path style="opacity:0.993" fill="#1e37fb" d="M 609.5,78.5 C 726.108,199.109 843.775,318.775 962.5,437.5C 867.148,374.189 762.481,334.856 648.5,319.5C 647.343,317.785 646.676,315.785 646.5,313.5C 639.977,234.224 627.644,155.891 609.5,78.5 Z"/></g>
<g><path style="opacity:0.998" fill="#37e0be" d="M 646.5,319.5 C 647.167,319.5 647.833,319.5 648.5,319.5C 762.481,334.856 867.148,374.189 962.5,437.5C 969.121,452.335 972.454,468.002 972.5,484.5C 969.84,549.644 951.006,609.644 916,664.5C 891.274,701.913 862.774,736.413 830.5,768C 756.666,835.439 674.999,891.772 585.5,937C 545.42,957.376 504.42,975.543 462.5,991.5C 491.447,961.258 517.281,928.592 540,893.5C 546.159,883.847 551.659,873.847 556.5,863.5C 587.906,805.458 610.74,744.125 625,679.5C 646.171,581.608 654.505,482.608 650,382.5C 649.165,361.477 647.999,340.477 646.5,319.5 Z"/></g>
<g><path style="opacity:0.995" fill="#1e37fb" d="M 335.5,384.5 C 283.002,446.514 249.502,517.848 235,598.5C 224.635,651.75 223.969,705.083 233,758.5C 241.864,803.752 263.698,841.252 298.5,871C 335.591,897.275 376.924,908.275 422.5,904C 469.729,898.867 514.395,885.367 556.5,863.5C 551.659,873.847 546.159,883.847 540,893.5C 517.281,928.592 491.447,961.258 462.5,991.5C 441.448,999.685 420.115,1007.18 398.5,1014C 381.587,1018.42 364.587,1021.58 347.5,1023.5C 331.5,1023.5 315.5,1023.5 299.5,1023.5C 218.995,1015.84 154.162,980.173 105,916.5C 81.8823,883.825 68.2156,847.491 64,807.5C 63.5,784.169 63.3334,760.836 63.5,737.5C 99.2524,642.608 150.752,557.608 218,482.5C 253.072,444.457 292.238,411.79 335.5,384.5 Z"/></g>
</svg>
