<svg xmlns="http://www.w3.org/2000/svg" width="256" height="256" viewBox="0 0 100 100"><rect width="100" height="100" fill="#231b61" rx="20"/><path fill="#fff" d="M15.60 66.05L15.60 66.05Q14.60 66.05 14 65.45Q13.40 64.85 13.40 63.85L13.40 63.85L13.40 37.85Q13.40 36.85 14 36.25Q14.60 35.65 15.60 35.65L15.60 35.65L32.20 35.65Q32.35 35.90 32.50 36.32Q32.65 36.75 32.65 37.25L32.65 37.25Q32.65 38.10 32.25 38.60Q31.85 39.10 31.10 39.10L31.10 39.10L17.45 39.10L17.45 48.75L30.65 48.75Q30.80 49 30.95 49.42Q31.10 49.85 31.10 50.35L31.10 50.35Q31.10 51.20 30.70 51.67Q30.30 52.15 29.55 52.15L29.55 52.15L17.45 52.15L17.45 62.65L32.45 62.65Q32.60 62.90 32.75 63.30Q32.90 63.70 32.90 64.25L32.90 64.25Q32.90 65.10 32.50 65.58Q32.10 66.05 31.35 66.05L31.35 66.05L15.60 66.05ZM59 35.10L59 62.25Q59 63.25 58.58 63.80Q58.15 64.35 57.25 64.90L57.25 64.90Q56.25 65.55 54.40 66.13Q52.55 66.70 50.15 66.70L50.15 66.70Q47.45 66.70 45.20 66Q42.95 65.30 41.33 63.82Q39.70 62.35 38.83 60.07Q37.95 57.80 37.95 54.60L37.95 54.60Q37.95 51.35 38.85 49.02Q39.75 46.70 41.27 45.20Q42.80 43.70 44.88 43Q46.95 42.30 49.30 42.30L49.30 42.30Q50.90 42.30 52.40 42.70Q53.90 43.10 55 43.70L55 43.70L55 33.65Q55.25 33.55 55.78 33.42Q56.30 33.30 56.85 33.30L56.85 33.30Q59 33.30 59 35.10L59 35.10ZM55 62.10L55 47.30Q54 46.60 52.70 46.10Q51.40 45.60 49.70 45.60L49.70 45.60Q48.15 45.60 46.77 46.07Q45.40 46.55 44.35 47.63Q43.30 48.70 42.67 50.45Q42.05 52.20 42.05 54.70L42.05 54.70Q42.05 59.30 44.25 61.35Q46.45 63.40 50.10 63.40L50.10 63.40Q51.85 63.40 52.98 63.02Q54.10 62.65 55 62.10L55 62.10ZM66.60 57.60L66.60 43.05Q66.85 42.95 67.38 42.82Q67.90 42.70 68.50 42.70L68.50 42.70Q70.60 42.70 70.60 44.55L70.60 44.55L70.60 57.40Q70.60 60.65 72.30 62.02Q74 63.40 77 63.40L77 63.40Q79 63.40 80.40 62.97Q81.80 62.55 82.60 62.10L82.60 62.10L82.60 43.05Q82.85 42.95 83.38 42.82Q83.90 42.70 84.45 42.70L84.45 42.70Q86.60 42.70 86.60 44.55L86.60 44.55L86.60 61.95Q86.60 63 86.33 63.63Q86.05 64.25 85 64.85L85 64.85Q83.85 65.50 81.83 66.10Q79.80 66.70 76.95 66.70L76.95 66.70Q71.95 66.70 69.28 64.50Q66.60 62.30 66.60 57.60L66.60 57.60Z"/></svg>