<svg xmlns="http://www.w3.org/2000/svg" xmlns:svg="http://www.w3.org/2000/svg" id="svg6" width="320" height="320" version="1.1" viewBox="0 0 320 320"><metadata id="metadata12"/><g id="g839" transform="matrix(0.390625,0,0,0.390625,60,60)"><path id="path2" fill="#4267b2" d="M 483.73828,0 H 28.238281 C 12.640625,0.0078125 -0.00390625,12.660156 0,28.261719 V 483.76172 C 0.0078125,499.35937 12.660156,512.00391 28.261719,512 H 483.73828 c 15.60547,0.004 28.25781,-12.64453 28.26172,-28.25 0,-0.004 0,-0.008 0,-0.0117 V 28.238281 C 511.99219,12.640625 499.33984,-0.00390625 483.73828,0 Z m 0,0"/><path id="path4" fill="#fff" d="M 353.5,512 V 314 h 66.75 l 10,-77.5 H 353.5 V 187.14062 C 353.5,164.75391 359.71484,149.5 391.81641,149.5 H 432.5 V 80.371094 c -7.07813,-0.941406 -31.36328,-3.046875 -59.62109,-3.046875 -59,0 -99.37891,36.000001 -99.37891,102.140621 V 236.5 H 207 V 314 h 66.5 v 198 z m 0,0"/></g></svg>