<svg xmlns="http://www.w3.org/2000/svg" width="256" height="256" viewBox="0 0 100 100"><rect width="100" height="100" fill="#082f6f" rx="20"/><path fill="#fff" d="M11.49 42.85L19.79 42.85Q19.86 42.98 19.94 43.19Q20.01 43.40 20.01 43.65L20.01 43.65Q20.01 44.08 19.81 44.33Q19.61 44.58 19.24 44.58L19.24 44.58L12.44 44.58L12.44 49.78L18.91 49.78Q18.99 49.90 19.06 50.11Q19.14 50.33 19.14 50.58L19.14 50.58Q19.14 51 18.94 51.25Q18.74 51.50 18.36 51.50L18.36 51.50L12.44 51.50L12.44 58.03Q12.31 58.08 12.05 58.13Q11.79 58.18 11.51 58.18L11.51 58.18Q10.39 58.18 10.39 57.28L10.39 57.28L10.39 43.95Q10.39 43.45 10.69 43.15Q10.99 42.85 11.49 42.85L11.49 42.85ZM27.09 56.75L27.09 56.75Q28.14 56.75 28.82 56.54Q29.51 56.33 29.81 56.13L29.81 56.13L29.81 52.50L26.71 52.83Q25.41 52.95 24.79 53.41Q24.16 53.88 24.16 54.78L24.16 54.78Q24.16 55.73 24.89 56.24Q25.61 56.75 27.09 56.75ZM27.06 46.18L27.06 46.18Q29.24 46.18 30.51 47.15Q31.79 48.13 31.79 50.23L31.79 50.23L31.79 56.15Q31.79 56.70 31.57 56.99Q31.36 57.28 30.94 57.53L30.94 57.53Q30.34 57.88 29.35 58.14Q28.36 58.40 27.09 58.40L27.09 58.40Q24.74 58.40 23.45 57.48Q22.16 56.55 22.16 54.80L22.16 54.80Q22.16 53.15 23.24 52.31Q24.31 51.48 26.26 51.28L26.26 51.28L29.81 50.93L29.81 50.23Q29.81 48.98 29.06 48.40Q28.31 47.83 27.04 47.83L27.04 47.83Q25.99 47.83 25.06 48.13Q24.14 48.43 23.41 48.80L23.41 48.80Q23.21 48.63 23.05 48.40Q22.89 48.18 22.89 47.90L22.89 47.90Q22.89 47.55 23.06 47.33Q23.24 47.10 23.61 46.90L23.61 46.90Q24.29 46.55 25.16 46.36Q26.04 46.18 27.06 46.18ZM44.09 46.28L44.09 46.28Q44.51 46.28 44.77 46.50Q45.04 46.73 45.04 47.15L45.04 47.15Q45.04 47.43 44.84 48.11Q44.64 48.80 44.31 49.74Q43.99 50.68 43.58 51.80Q43.16 52.93 42.70 54.04Q42.24 55.15 41.77 56.18Q41.31 57.20 40.91 57.95L40.91 57.95Q40.79 58.05 40.48 58.13Q40.16 58.20 39.81 58.20L39.81 58.20Q38.89 58.20 38.61 57.68L38.61 57.68Q38.39 57.25 38.04 56.50Q37.69 55.75 37.29 54.80Q36.89 53.85 36.46 52.78Q36.04 51.70 35.64 50.64Q35.24 49.58 34.89 48.59Q34.54 47.60 34.31 46.83L34.31 46.83Q34.49 46.58 34.79 46.43Q35.09 46.28 35.39 46.28L35.39 46.28Q35.84 46.28 36.08 46.50Q36.31 46.73 36.51 47.25L36.51 47.25L38.06 51.73Q38.21 52.15 38.44 52.76Q38.66 53.38 38.90 54.01Q39.14 54.65 39.38 55.25Q39.61 55.85 39.76 56.28L39.76 56.28L39.86 56.28Q40.86 53.75 41.73 51.30Q42.59 48.85 43.24 46.48L43.24 46.48Q43.56 46.28 44.09 46.28ZM49.94 47.30L49.94 58.00Q49.81 58.05 49.56 58.11Q49.31 58.18 49.01 58.18L49.01 58.18Q47.94 58.18 47.94 57.28L47.94 57.28L47.94 46.55Q48.06 46.50 48.33 46.44Q48.59 46.38 48.89 46.38L48.89 46.38Q49.94 46.38 49.94 47.30L49.94 47.30ZM47.64 42.85L47.64 42.85Q47.64 42.33 48 41.96Q48.36 41.60 48.94 41.60L48.94 41.60Q49.51 41.60 49.86 41.96Q50.21 42.33 50.21 42.85L50.21 42.85Q50.21 43.38 49.86 43.74Q49.51 44.10 48.94 44.10L48.94 44.10Q48.36 44.10 48 43.74Q47.64 43.38 47.64 42.85ZM59.19 47.85L59.19 47.85Q58.34 47.85 57.61 48.14Q56.89 48.43 56.36 48.99Q55.84 49.55 55.54 50.39Q55.24 51.23 55.24 52.30L55.24 52.30Q55.24 54.45 56.31 55.59Q57.39 56.73 59.19 56.73L59.19 56.73Q60.24 56.73 60.94 56.44Q61.64 56.15 62.19 55.78L62.19 55.78Q62.46 55.93 62.64 56.15Q62.81 56.38 62.81 56.70L62.81 56.70Q62.81 57.05 62.54 57.35Q62.26 57.65 61.77 57.88Q61.29 58.10 60.63 58.24Q59.96 58.38 59.19 58.38L59.19 58.38Q57.89 58.38 56.79 58.00Q55.69 57.63 54.89 56.88Q54.09 56.13 53.64 54.99Q53.19 53.85 53.19 52.30L53.19 52.30Q53.19 50.78 53.66 49.64Q54.14 48.50 54.94 47.73Q55.74 46.95 56.83 46.56Q57.91 46.18 59.14 46.18L59.14 46.18Q59.91 46.18 60.58 46.31Q61.24 46.45 61.71 46.70Q62.19 46.95 62.45 47.26Q62.71 47.58 62.71 47.90L62.71 47.90Q62.71 48.20 62.54 48.43Q62.36 48.65 62.09 48.78L62.09 48.78Q61.54 48.40 60.89 48.13Q60.24 47.85 59.19 47.85ZM76.51 52.28L76.51 52.28Q76.51 53.68 76.11 54.80Q75.71 55.93 74.97 56.73Q74.24 57.53 73.19 57.95Q72.14 58.38 70.84 58.38L70.84 58.38Q69.54 58.38 68.49 57.95Q67.44 57.53 66.69 56.73Q65.94 55.93 65.54 54.80Q65.14 53.68 65.14 52.28L65.14 52.28Q65.14 50.88 65.55 49.75Q65.96 48.63 66.71 47.83Q67.46 47.03 68.51 46.60Q69.56 46.18 70.84 46.18L70.84 46.18Q72.11 46.18 73.16 46.60Q74.21 47.03 74.95 47.83Q75.69 48.63 76.10 49.75Q76.51 50.88 76.51 52.28ZM70.84 47.83L70.84 47.83Q69.14 47.83 68.16 49Q67.19 50.18 67.19 52.28L67.19 52.28Q67.19 54.40 68.15 55.56Q69.11 56.73 70.84 56.73L70.84 56.73Q72.56 56.73 73.51 55.55Q74.46 54.38 74.46 52.28L74.46 52.28Q74.46 50.18 73.50 49Q72.54 47.83 70.84 47.83ZM87.61 50.53L87.61 50.53Q87.61 49.13 86.83 48.48Q86.04 47.83 84.71 47.83L84.71 47.83Q83.71 47.83 82.94 48.08Q82.16 48.33 81.61 48.65L81.61 48.65L81.61 58.00Q81.49 58.05 81.24 58.11Q80.99 58.18 80.69 58.18L80.69 58.18Q79.61 58.18 79.61 57.28L79.61 57.28L79.61 48.75Q79.61 48.23 79.83 47.89Q80.04 47.55 80.56 47.23L80.56 47.23Q81.21 46.83 82.29 46.50Q83.36 46.18 84.71 46.18L84.71 46.18Q86.99 46.18 88.30 47.20Q89.61 48.23 89.61 50.43L89.61 50.43L89.61 58.00Q89.49 58.05 89.22 58.11Q88.96 58.18 88.69 58.18L88.69 58.18Q87.61 58.18 87.61 57.28L87.61 57.28L87.61 50.53Z"/></svg>