<?xml version="1.0" encoding="UTF-8"?>
<!DOCTYPE svg PUBLIC "-//W3C//DTD SVG 1.1//EN" "http://www.w3.org/Graphics/SVG/1.1/DTD/svg11.dtd">
<svg xmlns="http://www.w3.org/2000/svg" version="1.1" width="3840px" height="2160px" style="shape-rendering:geometricPrecision; text-rendering:geometricPrecision; image-rendering:optimizeQuality; fill-rule:evenodd; clip-rule:evenodd" xmlns:xlink="http://www.w3.org/1999/xlink">
<g><path style="opacity:1" fill="#1dbf72" d="M 1889.5,18.5 C 2168.05,14.0489 2412.38,101.882 2622.5,282C 2806.32,446.043 2921.48,649.876 2968,893.5C 3008.93,1135.03 2972.93,1364.36 2860,1581.5C 2732.07,1815.08 2543.9,1980.25 2295.5,2077C 2076.4,2156.74 1854.4,2165.74 1629.5,2104C 1406.42,2037.78 1223.25,1913.62 1080,1731.5C 918.438,1518.09 845.438,1277.09 861,1008.5C 882.805,736.775 990.305,505.941 1183.5,316C 1381.12,129.453 1616.46,30.2858 1889.5,18.5 Z"/></g>
<g><path style="opacity:1" fill="#fefffe" d="M 1880.5,421.5 C 1954.27,421.036 2028.94,421.536 2104.5,423C 2103.17,498.333 2103.17,573.667 2104.5,649C 2048.4,650.165 1992.24,650.998 1936,651.5C 1905.97,651.323 1880.3,662.323 1859,684.5C 1848.4,698.627 1841.9,714.461 1839.5,732C 1839.52,753.292 1839.52,774.792 1839.5,796.5C 2019.83,796.5 2200.17,796.5 2380.5,796.5C 2380.83,1079.07 2380.5,1361.57 2379.5,1644C 2287.36,1645 2195.36,1644.66 2103.5,1643C 2103.83,1437.33 2104.17,1231.67 2104.5,1026C 2016.17,1025.5 1927.83,1025.33 1839.5,1025.5C 1839.5,1231.83 1839.5,1438.17 1839.5,1644.5C 1746.83,1644.5 1654.17,1644.5 1561.5,1644.5C 1561.5,1438.17 1561.5,1231.83 1561.5,1025.5C 1508.83,1025.5 1456.17,1025.5 1403.5,1025.5C 1403.5,949.167 1403.5,872.833 1403.5,796.5C 1456.17,796.5 1508.83,796.5 1561.5,796.5C 1561.52,765.792 1561.52,735.292 1561.5,705C 1574.71,571.133 1645.04,482.799 1772.5,440C 1808.73,429.398 1844.73,423.231 1880.5,421.5 Z"/></g>
</svg>
