<svg xmlns="http://www.w3.org/2000/svg" xmlns:svg="http://www.w3.org/2000/svg" id="Capa_1" width="240" height="240" enable-background="new 0 0 512 512" version="1.1" viewBox="0 0 240 240"><metadata id="metadata911"/><g id="g917" transform="matrix(1.8360773,0,0,1.8360773,19.999964,-350.03671)"><path id="Shape_2_" fill="#0e2a47" d="M 44.171,260.62 H 55.609 L 65.757,243.919 H 33.937 L 23.445,226.794 H 76.248 L 86.396,210.093 H 8.482 c -3.096,0 -5.848,1.611 -7.396,4.239 -1.462,2.628 -1.462,5.85 0.086,8.393 l 46.009,75.114 c 1.548,2.543 4.3,4.069 7.224,4.069 2.924,0 5.676,-1.526 7.224,-4.069 l 2.666,-4.324 z"/><g id="Shape_3_" fill="#69e781" transform="translate(63.629)"><path id="path901" d="M 21.821,226.794 H 41.6 l 2.494,-4.069 c 1.548,-2.543 1.634,-5.765 0.086,-8.393 -1.462,-2.628 -4.3,-4.239 -7.396,-4.239 h -4.816 z"/><path id="path903" d="m 17.005,234.763 -21.5,35.183 9.804,16.108 31.389,-51.291 z"/></g></g></svg>