<svg xmlns="http://www.w3.org/2000/svg" xmlns:svg="http://www.w3.org/2000/svg" id="svg4" width="240" height="240" enable-background="new 0 0 24 24" version="1.1" viewBox="0 0 240 240"><metadata id="metadata10"/><path id="path2" fill="#212121" d="m 120,24.165234 c -55.25,0 -100,44 -100,98.266666 0,43.425 28.65,80.25 68.375,93.23333 5,0.925 6.833333,-2.11667 6.833333,-4.725 0,-2.33333 -0.08333,-8.51667 -0.125,-16.70833 C 67.266667,200.1569 61.4,181.04856 61.4,181.04856 c -4.55,-11.34166 -11.125,-14.375 -11.125,-14.375 -9.058333,-6.09166 0.7,-5.96666 0.7,-5.96666 10.041667,0.68333 15.316667,10.125 15.316667,10.125 8.916666,15.025 23.408333,10.68333 29.125,8.175 0.9,-6.35834 3.475,-10.68334 6.333333,-13.14167 C 79.541667,163.4069 56.2,154.9569 56.2,117.3069 c 0,-10.725 3.875,-19.491666 10.291667,-26.366666 -1.125,-2.483333 -4.5,-12.475 0.875,-26.008333 0,0 8.375,-2.633334 27.5,10.075 8.000003,-2.183334 16.500003,-3.266667 25.000003,-3.316667 8.5,0.05 17,1.133333 25,3.316667 19,-12.708334 27.375,-10.075 27.375,-10.075 5.375,13.533333 2,23.525 1,26.008333 6.375,6.875 10.25,15.641666 10.25,26.366666 0,37.75 -23.375,46.05833 -45.625,48.475 3.5,2.95 6.75,8.975 6.75,18.18333 0,13.15 -0.125,23.71667 -0.125,26.90833 0,2.575 1.75,5.65 6.875,4.66667 C 191.375,202.64023 220,165.79023 220,122.4319 220,68.165234 175.225,24.165234 120,24.165234 Z" style="stroke-width:8.33333;fill:#000"/></svg>