<svg xmlns="http://www.w3.org/2000/svg" xmlns:svg="http://www.w3.org/2000/svg" id="Bold" width="240" height="240" enable-background="new 0 0 32 32" version="1.1" viewBox="0 0 240 240"><metadata id="metadata11"/><g id="g1600" transform="matrix(0.390625,0,0,0.390625,-109.86111,31.458333)"><rect style="fill:#eceff1" id="rect2" width="384" height="384" x="396.444" y="34.667"/><polygon style="fill:#cfd8dc" id="polygon4" points="448 448 448 148.672 256 296.384" transform="translate(332.44444,-29.333333)"/><path style="fill:#f44336" id="path6" d="m 796.44444,34.666667 h -16 l -192,151.616003 -192,-151.616003 h -16 c -26.496,0 -48,21.504 -48,48 V 370.66667 c 0,26.496 21.504,48 48,48 h 16 v -299.328 l 192,147.68 192,-147.712 v 299.36 h 16 c 26.496,0 48,-21.504 48,-48 V 82.666667 c 0,-26.496 -21.504,-48 -48,-48 z"/></g></svg>