<svg xmlns="http://www.w3.org/2000/svg" width="256" height="256" viewBox="0 0 100 100"><rect width="100" height="100" fill="#ee1a0a" rx="20"/><path fill="#fff" d="M35.87 50.85L35.87 61.70Q35.87 62.60 35.35 63.20Q34.82 63.80 33.77 64.35L33.77 64.35Q32.52 64.95 30.32 65.40Q28.12 65.85 25.87 65.85L25.87 65.85Q22.37 65.85 19.47 64.90Q16.57 63.95 14.47 62.00Q12.37 60.05 11.22 57.07Q10.07 54.10 10.07 50.05L10.07 50.05Q10.07 46.05 11.27 43.05Q12.47 40.05 14.55 38.07Q16.62 36.10 19.37 35.12Q22.12 34.15 25.22 34.15L25.22 34.15Q27.32 34.15 29.10 34.50Q30.87 34.85 32.12 35.42Q33.37 36.00 34.07 36.70Q34.77 37.40 34.77 38.10L34.77 38.10Q34.77 38.80 34.37 39.30Q33.97 39.80 33.42 40.05L33.42 40.05Q32.07 39.15 30.22 38.37Q28.37 37.60 25.47 37.60L25.47 37.60Q23.07 37.60 21.02 38.40Q18.97 39.20 17.47 40.75Q15.97 42.30 15.12 44.65Q14.27 47.00 14.27 50.05L14.27 50.05Q14.27 53.30 15.15 55.62Q16.02 57.95 17.60 59.45Q19.17 60.95 21.30 61.67Q23.42 62.40 25.92 62.40L25.92 62.40Q27.72 62.40 29.32 62.10Q30.92 61.80 31.82 61.35L31.82 61.35L31.82 52.15L24.27 52.15Q24.12 51.90 23.97 51.47Q23.82 51.05 23.82 50.55L23.82 50.55Q23.82 49.70 24.22 49.22Q24.62 48.75 25.37 48.75L25.37 48.75L33.72 48.75Q34.62 48.75 35.25 49.32Q35.87 49.90 35.87 50.85L35.87 50.85ZM64.53 53.65L64.53 53.65Q64.53 56.45 63.72 58.70Q62.92 60.95 61.45 62.55Q59.97 64.15 57.88 65.00Q55.77 65.85 53.17 65.85L53.17 65.85Q50.57 65.85 48.47 65.00Q46.38 64.15 44.88 62.55Q43.37 60.95 42.57 58.70Q41.77 56.45 41.77 53.65L41.77 53.65Q41.77 50.85 42.60 48.60Q43.42 46.35 44.92 44.75Q46.42 43.15 48.52 42.30Q50.63 41.45 53.17 41.45L53.17 41.45Q55.72 41.45 57.82 42.30Q59.92 43.15 61.40 44.75Q62.88 46.35 63.70 48.60Q64.53 50.85 64.53 53.65ZM53.17 44.75L53.17 44.75Q49.77 44.75 47.82 47.10Q45.88 49.45 45.88 53.65L45.88 53.65Q45.88 57.90 47.80 60.22Q49.72 62.55 53.17 62.55L53.17 62.55Q56.63 62.55 58.52 60.20Q60.42 57.85 60.42 53.65L60.42 53.65Q60.42 49.45 58.50 47.10Q56.57 44.75 53.17 44.75ZM88.02 41.65L88.02 41.65Q88.88 41.65 89.40 42.10Q89.92 42.55 89.92 43.40L89.92 43.40Q89.92 43.95 89.52 45.32Q89.13 46.70 88.47 48.57Q87.82 50.45 87 52.70Q86.17 54.95 85.25 57.17Q84.32 59.40 83.40 61.45Q82.47 63.50 81.67 65.00L81.67 65.00Q81.42 65.20 80.80 65.35Q80.17 65.50 79.47 65.50L79.47 65.50Q77.63 65.50 77.07 64.45L77.07 64.45Q76.63 63.60 75.92 62.10Q75.22 60.60 74.42 58.70Q73.63 56.80 72.77 54.65Q71.92 52.50 71.13 50.37Q70.32 48.25 69.63 46.27Q68.92 44.30 68.47 42.75L68.47 42.75Q68.82 42.25 69.42 41.95Q70.02 41.65 70.63 41.65L70.63 41.65Q71.52 41.65 72 42.10Q72.47 42.55 72.88 43.60L72.88 43.60L75.97 52.55Q76.27 53.40 76.72 54.62Q77.17 55.85 77.65 57.12Q78.13 58.40 78.60 59.60Q79.07 60.80 79.38 61.65L79.38 61.65L79.57 61.65Q81.57 56.60 83.30 51.70Q85.02 46.80 86.32 42.05L86.32 42.05Q86.97 41.65 88.02 41.65Z"/></svg>