<svg xmlns="http://www.w3.org/2000/svg" xmlns:xlink="http://www.w3.org/1999/xlink" width="512" height="512" version="1.1" style="shape-rendering:geometricPrecision;text-rendering:geometricPrecision;image-rendering:optimizeQuality;fill-rule:evenodd;clip-rule:evenodd"><g><path style="opacity:1" fill="#cb7f4c" d="M -0.5,-0.5 C 170.167,-0.5 340.833,-0.5 511.5,-0.5C 511.5,170.167 511.5,340.833 511.5,511.5C 340.833,511.5 170.167,511.5 -0.5,511.5C -0.5,340.833 -0.5,170.167 -0.5,-0.5 Z"/></g><g><path style="opacity:1" fill="#f60" d="M 0.5,0.5 C 170.5,0.5 340.5,0.5 510.5,0.5C 510.5,170.5 510.5,340.5 510.5,510.5C 340.5,510.5 170.5,510.5 0.5,510.5C 0.5,340.5 0.5,170.5 0.5,0.5 Z"/></g><g><path style="opacity:1" fill="#fffefd" d="M 411.5,297.5 C 411.56,298.043 411.893,298.376 412.5,298.5C 413.5,250.838 413.833,203.171 413.5,155.5C 428.167,155.5 442.833,155.5 457.5,155.5C 457.5,226.833 457.5,298.167 457.5,369.5C 441.486,369.833 425.486,369.499 409.5,368.5C 379.802,321.299 350.302,273.966 321,226.5C 320.5,274.166 320.333,321.832 320.5,369.5C 305.833,369.5 291.167,369.5 276.5,369.5C 276.5,298.167 276.5,226.833 276.5,155.5C 292.411,155.175 308.244,155.509 324,156.5C 353.178,203.528 382.344,250.528 411.5,297.5 Z"/></g><g><path style="opacity:1" fill="#ffb17f" d="M 413.5,155.5 C 413.833,203.171 413.5,250.838 412.5,298.5C 411.893,298.376 411.56,298.043 411.5,297.5C 412.167,250.167 412.833,202.833 413.5,155.5 Z"/></g><g><path style="opacity:1" fill="#fffdfc" d="M 53.5,155.5 C 69.1667,155.5 84.8333,155.5 100.5,155.5C 100.5,182.833 100.5,210.167 100.5,237.5C 129.167,237.5 157.833,237.5 186.5,237.5C 186.5,210.167 186.5,182.833 186.5,155.5C 202.5,155.5 218.5,155.5 234.5,155.5C 234.5,226.833 234.5,298.167 234.5,369.5C 218.5,369.5 202.5,369.5 186.5,369.5C 186.5,338.833 186.5,308.167 186.5,277.5C 157.833,277.5 129.167,277.5 100.5,277.5C 100.5,308.167 100.5,338.833 100.5,369.5C 84.8333,369.5 69.1667,369.5 53.5,369.5C 53.5,298.167 53.5,226.833 53.5,155.5 Z"/></g></svg>