<svg xmlns="http://www.w3.org/2000/svg" width="256" height="256" viewBox="0 0 100 100"><rect width="100" height="100" rx="20" fill="#231b61"></rect><path fill="#fff" d="M30.46 56.10L30.46 56.10Q30.28 56.16 29.98 56.24Q29.68 56.31 29.32 56.31L29.32 56.31Q28.00 56.31 28.00 55.20L28.00 55.20L28.00 47.95L18.64 47.95L18.64 56.10Q18.46 56.16 18.16 56.24Q17.86 56.31 17.50 56.31L17.50 56.31Q16.18 56.31 16.18 55.20L16.18 55.20L16.18 37.98Q16.33 37.92 16.64 37.85Q16.96 37.77 17.32 37.77L17.32 37.77Q18.64 37.77 18.64 38.88L18.64 38.88L18.64 45.91L28.00 45.91L28.00 37.98Q28.15 37.92 28.46 37.85Q28.78 37.77 29.14 37.77L29.14 37.77Q30.46 37.77 30.46 38.88L30.46 38.88L30.46 56.10ZM33.61 54.91L33.61 54.91Q33.61 54.19 34.04 53.70Q34.48 53.23 35.26 53.23L35.26 53.23Q36.04 53.23 36.46 53.70Q36.88 54.19 36.88 54.91L36.88 54.91Q36.88 55.59 36.46 56.07Q36.04 56.55 35.26 56.55L35.26 56.55Q34.48 56.55 34.04 56.07Q33.61 55.59 33.61 54.91ZM48.88 56.62L48.88 54.73Q48.37 55.14 47.48 55.45Q46.60 55.74 45.37 55.74L45.37 55.74Q44.05 55.74 42.88 55.37Q41.71 54.99 40.82 54.17Q39.94 53.34 39.41 52.02Q38.89 50.70 38.89 48.81L38.89 48.81Q38.89 47.10 39.40 45.81Q39.91 44.52 40.82 43.66Q41.74 42.78 43.00 42.35Q44.26 41.91 45.79 41.91L45.79 41.91Q47.17 41.91 48.32 42.26Q49.48 42.61 50.26 43.12L50.26 43.12Q50.71 43.41 50.99 43.79Q51.28 44.16 51.28 44.70L51.28 44.70L51.28 56.77Q51.28 58.27 50.78 59.30Q50.29 60.34 49.40 60.98Q48.52 61.63 47.32 61.92Q46.12 62.23 44.74 62.23L44.74 62.23Q43.21 62.23 42.14 61.91Q41.08 61.59 40.69 61.35L40.69 61.35Q39.79 60.84 39.79 60.06L39.79 60.06Q39.79 59.64 39.98 59.36Q40.18 59.07 40.48 58.92L40.48 58.92Q41.11 59.41 42.25 59.81Q43.39 60.21 44.74 60.21L44.74 60.21Q46.75 60.21 47.81 59.36Q48.88 58.50 48.88 56.62L48.88 56.62ZM45.64 53.77L45.64 53.77Q46.84 53.77 47.60 53.39Q48.37 53.02 48.88 52.53L48.88 52.53L48.88 44.73Q48.37 44.41 47.60 44.15Q46.84 43.89 45.79 43.89L45.79 43.89Q43.75 43.89 42.53 45.13Q41.32 46.35 41.32 48.78L41.32 48.78Q41.32 50.13 41.65 51.08Q41.98 52.02 42.56 52.63Q43.15 53.23 43.94 53.49Q44.74 53.77 45.64 53.77ZM68.59 49.23L68.59 49.23Q68.59 50.91 68.11 52.27Q67.63 53.62 66.74 54.58Q65.86 55.53 64.59 56.05Q63.34 56.55 61.78 56.55L61.78 56.55Q60.22 56.55 58.96 56.05Q57.70 55.53 56.80 54.58Q55.90 53.62 55.42 52.27Q54.94 50.91 54.94 49.23L54.94 49.23Q54.94 47.55 55.43 46.20Q55.93 44.86 56.83 43.89Q57.73 42.94 58.98 42.42Q60.25 41.91 61.78 41.91L61.78 41.91Q63.31 41.91 64.56 42.42Q65.83 42.94 66.71 43.89Q67.59 44.86 68.09 46.20Q68.59 47.55 68.59 49.23ZM61.78 43.89L61.78 43.89Q59.73 43.89 58.57 45.30Q57.40 46.72 57.40 49.23L57.40 49.23Q57.40 51.78 58.55 53.18Q59.71 54.58 61.78 54.58L61.78 54.58Q63.84 54.58 64.98 53.16Q66.13 51.75 66.13 49.23L66.13 49.23Q66.13 46.72 64.97 45.30Q63.82 43.89 61.78 43.89ZM82.69 42.03L82.69 42.03Q83.20 42.03 83.51 42.30Q83.83 42.58 83.83 43.09L83.83 43.09Q83.83 43.41 83.59 44.24Q83.34 45.06 82.96 46.19Q82.57 47.31 82.07 48.66Q81.58 50.02 81.02 51.35Q80.47 52.69 79.91 53.91Q79.36 55.14 78.88 56.05L78.88 56.05Q78.73 56.16 78.35 56.26Q77.98 56.34 77.56 56.34L77.56 56.34Q76.45 56.34 76.12 55.71L76.12 55.71Q75.85 55.20 75.43 54.30Q75.01 53.41 74.53 52.27Q74.05 51.13 73.54 49.84Q73.03 48.55 72.55 47.27Q72.07 45.99 71.65 44.81Q71.23 43.63 70.96 42.70L70.96 42.70Q71.17 42.39 71.53 42.22Q71.89 42.03 72.25 42.03L72.25 42.03Q72.79 42.03 73.07 42.30Q73.36 42.58 73.60 43.20L73.60 43.20L75.46 48.58Q75.64 49.09 75.91 49.82Q76.18 50.55 76.46 51.32Q76.75 52.09 77.03 52.80Q77.32 53.52 77.50 54.03L77.50 54.03L77.62 54.03Q78.82 51.00 79.85 48.06Q80.89 45.13 81.67 42.27L81.67 42.27Q82.06 42.03 82.69 42.03Z"></path></svg>