<svg xmlns="http://www.w3.org/2000/svg" width="256" height="256" viewBox="0 0 100 100"><rect width="100" height="100" rx="20" fill="#0b78ee"></rect><path fill="#fff" d="M36.98 71.17L36.98 71.17Q36.56 71.31 35.86 71.49Q35.16 71.66 34.32 71.66L34.32 71.66Q31.24 71.66 31.24 69.08L31.24 69.08L31.24 52.13L9.40 52.13L9.40 71.17Q8.98 71.31 8.28 71.49Q7.58 71.66 6.74 71.66L6.74 71.66Q3.66 71.66 3.66 69.08L3.66 69.08L3.66 28.89Q4.01 28.75 4.75 28.58Q5.48 28.40 6.32 28.40L6.32 28.40Q9.40 28.40 9.40 30.99L9.40 30.99L9.40 47.38L31.24 47.38L31.24 28.89Q31.59 28.75 32.33 28.58Q33.06 28.40 33.90 28.40L33.90 28.40Q36.98 28.40 36.98 30.99L36.98 30.99L36.98 71.17ZM68.34 39.32L68.34 39.32Q68.90 39.04 69.71 38.83Q70.51 38.62 71.49 38.62L71.49 38.62Q74.43 38.62 75.06 40.44L75.06 40.44Q76.32 44.22 77.44 47.58Q78.56 50.94 79.61 54.06Q80.66 57.17 81.64 60.18Q82.62 63.19 83.60 66.41L83.60 66.41L83.88 66.41Q84.86 61.72 85.84 57.21Q86.82 52.69 87.73 48.11Q88.64 43.52 89.48 38.80Q90.32 34.07 91.09 28.82L91.09 28.82Q92.07 28.33 93.47 28.33L93.47 28.33Q94.80 28.33 95.57 28.93Q96.34 29.52 96.34 30.71L96.34 30.71Q96.34 32.04 95.96 34.77Q95.57 37.50 94.91 41.04Q94.24 44.57 93.37 48.67Q92.49 52.77 91.51 56.72Q90.53 60.67 89.55 64.31Q88.57 67.95 87.66 70.55L87.66 70.55Q87.03 70.89 86.05 71.21Q85.07 71.52 83.81 71.52L83.81 71.52Q82.27 71.52 81.22 71.03Q80.17 70.55 79.82 69.70L79.82 69.70Q79.05 67.88 78.07 65.12Q77.09 62.35 76.01 59.03Q74.92 55.70 73.80 52.10Q72.68 48.49 71.63 44.92L71.63 44.92Q70.58 48.42 69.46 52.13Q68.34 55.84 67.26 59.31Q66.17 62.77 65.12 65.72Q64.07 68.66 63.23 70.61L63.23 70.61Q62.67 70.97 61.69 71.25Q60.71 71.52 59.45 71.52L59.45 71.52Q57.84 71.52 56.86 71Q55.88 70.47 55.53 69.70L55.53 69.70Q54.90 68.23 54.10 65.50Q53.29 62.77 52.42 59.31Q51.54 55.84 50.60 51.85Q49.65 47.86 48.78 43.91Q47.90 39.95 47.17 36.28Q46.43 32.60 45.94 29.66L45.94 29.66Q46.43 29.17 47.27 28.75Q48.11 28.33 49.09 28.33L49.09 28.33Q51.54 28.33 52.03 30.92L52.03 30.92Q52.94 35.33 53.78 39.43Q54.62 43.52 55.50 47.76Q56.37 51.99 57.35 56.54Q58.33 61.09 59.52 66.41L59.52 66.41L59.80 66.41Q60.78 63.27 61.69 60.43Q62.60 57.59 63.58 54.52Q64.56 51.43 65.72 47.79Q66.87 44.15 68.34 39.32Z"></path></svg>