<?xml version="1.0" encoding="UTF-8"?>
<!DOCTYPE svg PUBLIC "-//W3C//DTD SVG 1.1//EN" "http://www.w3.org/Graphics/SVG/1.1/DTD/svg11.dtd">
<svg xmlns="http://www.w3.org/2000/svg" version="1.1" width="220px" height="201px" style="shape-rendering:geometricPrecision; text-rendering:geometricPrecision; image-rendering:optimizeQuality; fill-rule:evenodd; clip-rule:evenodd" xmlns:xlink="http://www.w3.org/1999/xlink">
<g><path style="opacity:1" fill="#fcfdfd" d="M -0.5,-0.5 C 72.8333,-0.5 146.167,-0.5 219.5,-0.5C 219.5,66.5 219.5,133.5 219.5,200.5C 146.167,200.5 72.8333,200.5 -0.5,200.5C -0.5,133.5 -0.5,66.5 -0.5,-0.5 Z"/></g>
<g><path style="opacity:1" fill="#1b5c7b" d="M 203.5,97.5 C 198.694,97.3961 194.028,98.0628 189.5,99.5C 189.5,97.1667 189.5,94.8333 189.5,92.5C 192.5,92.5 195.5,92.5 198.5,92.5C 198.422,81.6132 196.089,71.2798 191.5,61.5C 188.626,63.475 185.626,64.1416 182.5,63.5C 179.506,56.1702 175.506,49.5035 170.5,43.5C 172.5,41.1667 174.5,38.8333 176.5,36.5C 169.924,29.423 162.59,23.2563 154.5,18C 153.365,17.2506 152.365,17.4173 151.5,18.5C 150.7,21.1332 149.2,23.1332 147,24.5C 139.896,20.8481 132.396,18.3481 124.5,17C 123.763,13.9775 124.096,10.9775 125.5,8C 115.241,6.40751 104.907,6.07418 94.5,7C 94.5901,10.2702 94.5901,13.6035 94.5,17C 86.6022,18.2993 79.1022,20.7993 72,24.5C 69.7799,22.4194 67.7799,20.0861 66,17.5C 57.1401,22.5228 49.3068,28.8561 42.5,36.5C 44.3387,38.8378 46.3387,41.0045 48.5,43C 43.624,49.242 39.624,56.0754 36.5,63.5C 33.469,64.2232 30.6357,63.5566 28,61.5C 27.0546,61.9054 26.3879,62.572 26,63.5C 22.7328,72.9008 20.8994,82.5675 20.5,92.5C 23.5,92.5 26.5,92.5 29.5,92.5C 29.5,94.8333 29.5,97.1667 29.5,99.5C 24.9725,98.0628 20.3058,97.3961 15.5,97.5C 14.733,82.2407 17.8997,67.9074 25,54.5C 27.5628,55.741 30.0628,57.0744 32.5,58.5C 35.1367,54.0316 37.97,49.6983 41,45.5C 41.7494,44.365 41.5827,43.365 40.5,42.5C 35.4541,40.3871 34.6208,37.3871 38,33.5C 46.6084,23.7194 56.7751,16.0527 68.5,10.5C 70.6567,12.8032 72.3233,15.4698 73.5,18.5C 78.713,16.04 84.0463,13.8734 89.5,12C 88.0963,9.02247 87.7629,6.02247 88.5,3C 102.152,-0.256618 115.819,-0.256618 129.5,3C 130.428,3.38789 131.095,4.05456 131.5,5C 130.956,7.39969 130.289,9.73303 129.5,12C 134.28,14.3168 139.28,16.1502 144.5,17.5C 146.727,15.3932 148.727,13.0599 150.5,10.5C 163.64,16.9009 174.64,25.9009 183.5,37.5C 182.167,39.5 180.5,41.1667 178.5,42.5C 177.417,43.365 177.251,44.365 178,45.5C 180.624,49.248 183.124,53.0813 185.5,57C 188.578,57.1981 191.412,56.3648 194,54.5C 201.1,67.9074 204.267,82.2407 203.5,97.5 Z"/></g>
<g><path style="opacity:1" fill="#195b7b" d="M 179.5,86.5 C 179.5,90.8333 179.5,95.1667 179.5,99.5C 178.167,99.5 176.833,99.5 175.5,99.5C 175.815,95.6286 175.482,91.9619 174.5,88.5C 169.297,55.6164 150.297,36.1164 117.5,30C 85.8841,28.0547 63.0507,41.2214 49,69.5C 46.3972,75.5775 44.8972,81.9109 44.5,88.5C 43.5184,91.9619 43.185,95.6286 43.5,99.5C 42.1667,99.5 40.8333,99.5 39.5,99.5C 39.5,95.1667 39.5,90.8333 39.5,86.5C 46.6619,48.5043 69.4952,27.8376 108,24.5C 147.913,26.6962 171.746,47.3628 179.5,86.5 Z"/></g>
<g><path style="opacity:1" fill="#88abbb" d="M 110.5,85.5 C 109.833,85.5 109.167,85.5 108.5,85.5C 108.66,83.8008 108.494,82.1341 108,80.5C 106.886,84.4557 106.053,84.4557 105.5,80.5C 103.533,80.7394 101.699,80.4061 100,79.5C 99.6664,77.1527 99.833,74.8194 100.5,72.5C 101.833,72.5 103.167,72.5 104.5,72.5C 104.753,70.1727 104.086,68.1727 102.5,66.5C 103.309,64.9291 103.643,63.2624 103.5,61.5C 104.822,61.33 105.989,61.6634 107,62.5C 108.544,55.9161 108.877,49.2494 108,42.5C 105.935,40.6176 106.435,39.6176 109.5,39.5C 112.565,39.6176 113.065,40.6176 111,42.5C 110.287,49.203 110.454,55.8697 111.5,62.5C 113.359,62.4609 114.692,63.2942 115.5,65C 111.639,65.5691 111.639,66.4024 115.5,67.5C 114.691,69.0709 114.357,70.7376 114.5,72.5C 115.833,72.5 117.167,72.5 118.5,72.5C 119.167,74.8194 119.334,77.1527 119,79.5C 117.301,80.4061 115.467,80.7394 113.5,80.5C 112.947,84.4557 112.114,84.4557 111,80.5C 110.506,82.1341 110.34,83.8008 110.5,85.5 Z"/></g>
<g><path style="opacity:1" fill="#f2f6f7" d="M 108.5,69.5 C 109.167,72.1667 109.833,72.1667 110.5,69.5C 111.049,71.5469 112.049,74.0469 113.5,77C 110.833,77.6667 108.167,77.6667 105.5,77C 106.416,76.7216 107.082,76.2216 107.5,75.5C 107.5,74.8333 107.5,74.1667 107.5,73.5C 107.146,71.2326 107.479,69.8993 108.5,69.5 Z"/></g>
<g><path style="opacity:1" fill="#336d8a" d="M 108.5,73.5 C 110.465,73.9483 110.798,74.9483 109.5,76.5C 108.614,75.675 108.281,74.675 108.5,73.5 Z"/></g>
<g><path style="opacity:1" fill="#1f607e" d="M 107.5,73.5 C 107.5,74.1667 107.5,74.8333 107.5,75.5C 104.833,74.8333 104.833,74.1667 107.5,73.5 Z"/></g>
<g><path style="opacity:1" fill="#185f7e" d="M 108.5,69.5 C 109.167,69.5 109.833,69.5 110.5,69.5C 109.833,72.1667 109.167,72.1667 108.5,69.5 Z"/></g>
<g><path style="opacity:1" fill="#135878" d="M 107.5,85.5 C 107.833,86.8333 108.167,86.8333 108.5,85.5C 109.167,85.5 109.833,85.5 110.5,85.5C 111.439,85.6262 112.439,85.9595 113.5,86.5C 116.167,87.1667 118.833,87.8333 121.5,88.5C 113.5,88.5 105.5,88.5 97.5,88.5C 100.963,87.9885 104.296,86.9885 107.5,85.5 Z"/></g>
<g><path style="opacity:1" fill="#6190a6" d="M 107.5,85.5 C 104.296,86.9885 100.963,87.9885 97.5,88.5C 96.2264,87.8106 96.2264,86.9772 97.5,86C 99.8991,85.289 102.232,85.4557 104.5,86.5C 105.167,85.8333 105.833,85.1667 106.5,84.5C 107.107,84.6236 107.44,84.9569 107.5,85.5 Z"/></g>
<g><path style="opacity:1" fill="#6996aa" d="M 121.5,88.5 C 118.833,87.8333 116.167,87.1667 113.5,86.5C 116.113,85.5651 118.779,85.3985 121.5,86C 122.774,86.9772 122.774,87.8106 121.5,88.5 Z"/></g>
<g><path style="opacity:1" fill="#a9c1cd" d="M 97.5,88.5 C 105.5,88.5 113.5,88.5 121.5,88.5C 121.5,90.5 121.5,92.5 121.5,94.5C 121.167,94.5 120.833,94.5 120.5,94.5C 120.5,92.8333 120.5,91.1667 120.5,89.5C 116.162,89.6219 115.828,89.9553 119.5,90.5C 119.5,91.5 119.5,92.5 119.5,93.5C 115.5,93.8333 115.5,94.1667 119.5,94.5C 119.5,95.8333 119.5,97.1667 119.5,98.5C 115.5,98.8333 115.5,99.1667 119.5,99.5C 119.5,100.5 119.5,101.5 119.5,102.5C 115.5,102.833 115.5,103.167 119.5,103.5C 119.5,104.833 119.5,106.167 119.5,107.5C 115.5,107.833 115.5,108.167 119.5,108.5C 119.5,109.5 119.5,110.5 119.5,111.5C 118.209,111.263 117.209,111.596 116.5,112.5C 115.833,112.5 115.167,112.5 114.5,112.5C 113.791,111.596 112.791,111.263 111.5,111.5C 111.5,108.833 111.5,106.167 111.5,103.5C 113.401,103.754 114.067,103.42 113.5,102.5C 113.5,101.5 113.5,100.5 113.5,99.5C 114.067,98.5798 113.401,98.2465 111.5,98.5C 111.5,95.8333 111.5,93.1667 111.5,90.5C 110.167,89.1667 108.833,89.1667 107.5,90.5C 107.5,91.5 107.5,92.5 107.5,93.5C 103.5,93.8333 103.5,94.1667 107.5,94.5C 107.5,95.8333 107.5,97.1667 107.5,98.5C 103.5,98.8333 103.5,99.1667 107.5,99.5C 107.5,100.5 107.5,101.5 107.5,102.5C 103.5,102.833 103.5,103.167 107.5,103.5C 107.5,104.833 107.5,106.167 107.5,107.5C 103.5,107.833 103.5,108.167 107.5,108.5C 107.5,109.5 107.5,110.5 107.5,111.5C 106.209,111.263 105.209,111.596 104.5,112.5C 103.833,112.5 103.167,112.5 102.5,112.5C 100.018,110.961 100.018,109.461 102.5,108C 99.8333,106.333 99.8333,104.667 102.5,103C 99.8333,101.667 99.8333,100.333 102.5,99C 99.8333,97.3333 99.8333,95.6667 102.5,94C 99.8333,92.6667 99.8333,91.3333 102.5,90C 101.207,89.51 99.8734,89.3433 98.5,89.5C 98.5,91.1667 98.5,92.8333 98.5,94.5C 98.1667,94.5 97.8333,94.5 97.5,94.5C 97.5,92.5 97.5,90.5 97.5,88.5 Z"/></g>
<g><path style="opacity:1" fill="#f7f9fa" d="M 113.5,99.5 C 110.833,100.5 110.833,101.5 113.5,102.5C 114.067,103.42 113.401,103.754 111.5,103.5C 111.5,106.167 111.5,108.833 111.5,111.5C 112.791,111.263 113.791,111.596 114.5,112.5C 111.167,112.5 107.833,112.5 104.5,112.5C 105.209,111.596 106.209,111.263 107.5,111.5C 107.5,110.5 107.5,109.5 107.5,108.5C 103.5,108.167 103.5,107.833 107.5,107.5C 107.5,106.167 107.5,104.833 107.5,103.5C 103.5,103.167 103.5,102.833 107.5,102.5C 107.5,101.5 107.5,100.5 107.5,99.5C 103.5,99.1667 103.5,98.8333 107.5,98.5C 107.5,97.1667 107.5,95.8333 107.5,94.5C 103.5,94.1667 103.5,93.8333 107.5,93.5C 107.5,92.5 107.5,91.5 107.5,90.5C 108.833,89.1667 110.167,89.1667 111.5,90.5C 111.5,93.1667 111.5,95.8333 111.5,98.5C 113.401,98.2465 114.067,98.5798 113.5,99.5 Z"/></g>
<g><path style="opacity:1" fill="#f3f7f8" d="M 120.5,94.5 C 120.5,95.5 120.5,96.5 120.5,97.5C 120.5,102.5 120.5,107.5 120.5,112.5C 119.167,112.5 117.833,112.5 116.5,112.5C 117.209,111.596 118.209,111.263 119.5,111.5C 119.5,110.5 119.5,109.5 119.5,108.5C 115.5,108.167 115.5,107.833 119.5,107.5C 119.5,106.167 119.5,104.833 119.5,103.5C 115.5,103.167 115.5,102.833 119.5,102.5C 119.5,101.5 119.5,100.5 119.5,99.5C 115.5,99.1667 115.5,98.8333 119.5,98.5C 119.5,97.1667 119.5,95.8333 119.5,94.5C 115.5,94.1667 115.5,93.8333 119.5,93.5C 119.5,92.5 119.5,91.5 119.5,90.5C 115.828,89.9553 116.162,89.6219 120.5,89.5C 120.5,91.1667 120.5,92.8333 120.5,94.5 Z"/></g>
<g><path style="opacity:1" fill="#1c6180" d="M 108.5,90.5 C 110.465,90.9483 110.798,91.9483 109.5,93.5C 108.614,92.675 108.281,91.675 108.5,90.5 Z"/></g>
<g><path style="opacity:1" fill="#9dbbc8" d="M 29.5,92.5 C 30.4731,94.9479 30.8064,97.6146 30.5,100.5C 25.3483,99.6861 20.3483,98.6861 15.5,97.5C 20.3058,97.3961 24.9725,98.0628 29.5,99.5C 29.5,97.1667 29.5,94.8333 29.5,92.5 Z"/></g>
<g><path style="opacity:1" fill="#80a6b7" d="M 179.5,86.5 C 180.486,90.97 180.819,95.6367 180.5,100.5C 178.5,100.5 176.5,100.5 174.5,100.5C 174.5,96.5 174.5,92.5 174.5,88.5C 175.482,91.9619 175.815,95.6286 175.5,99.5C 176.833,99.5 178.167,99.5 179.5,99.5C 179.5,95.1667 179.5,90.8333 179.5,86.5 Z"/></g>
<g><path style="opacity:1" fill="#165a7a" d="M 97.5,94.5 C 97.8333,94.5 98.1667,94.5 98.5,94.5C 98.5,95.1667 98.5,95.8333 98.5,96.5C 86.6547,96.8283 74.988,96.4949 63.5,95.5C 74.7524,94.5227 86.0857,94.1894 97.5,94.5 Z"/></g>
<g><path style="opacity:1" fill="#185f7e" d="M 108.5,95.5 C 110.337,95.6395 110.67,96.3061 109.5,97.5C 108.702,97.0431 108.369,96.3764 108.5,95.5 Z"/></g>
<g><path style="opacity:1" fill="#216180" d="M 120.5,94.5 C 120.833,94.5 121.167,94.5 121.5,94.5C 132.172,94.3335 142.839,94.5002 153.5,95C 156.457,95.2794 159.123,96.1127 161.5,97.5C 147.833,97.5 134.167,97.5 120.5,97.5C 120.5,96.5 120.5,95.5 120.5,94.5 Z"/></g>
<g><path style="opacity:1" fill="#3d7893" d="M 63.5,95.5 C 74.988,96.4949 86.6547,96.8283 98.5,96.5C 98.5,97.1667 98.1667,97.5 97.5,97.5C 84.1667,97.5 70.8333,97.5 57.5,97.5C 58.9899,95.7202 60.9899,95.0535 63.5,95.5 Z"/></g>
<g><path style="opacity:1" fill="#99b8c6" d="M 189.5,92.5 C 189.5,94.8333 189.5,97.1667 189.5,99.5C 194.028,98.0628 198.694,97.3961 203.5,97.5C 198.652,98.6861 193.652,99.6861 188.5,100.5C 188.194,97.6146 188.527,94.9479 189.5,92.5 Z"/></g>
<g><path style="opacity:1" fill="#afc6d1" d="M 120.5,97.5 C 134.167,97.5 147.833,97.5 161.5,97.5C 160.586,100.728 160.253,104.061 160.5,107.5C 162.292,107.634 163.958,107.301 165.5,106.5C 170.975,107.489 176.642,107.822 182.5,107.5C 178.03,108.486 173.363,108.819 168.5,108.5C 167.833,108.5 167.5,108.833 167.5,109.5C 165.167,109.5 162.833,109.5 160.5,109.5C 160.167,109.5 159.833,109.5 159.5,109.5C 159.5,106.5 159.5,103.5 159.5,100.5C 158.5,100.5 157.5,100.5 156.5,100.5C 156.826,109.349 156.493,118.016 155.5,126.5C 155.5,126.167 155.5,125.833 155.5,125.5C 155.826,116.651 155.493,107.984 154.5,99.5C 153.833,99.5 153.167,99.5 152.5,99.5C 152.167,99.5 151.833,99.5 151.5,99.5C 150.833,99.5 150.167,99.5 149.5,99.5C 149.44,98.9569 149.107,98.6236 148.5,98.5C 147.833,99.8333 147.167,101.167 146.5,102.5C 145.824,101.398 145.158,100.398 144.5,99.5C 143.833,99.5 143.167,99.5 142.5,99.5C 142.167,99.5 141.833,99.5 141.5,99.5C 139.952,99.8212 139.285,100.821 139.5,102.5C 138.167,102.5 136.833,102.5 135.5,102.5C 135.737,101.209 135.404,100.209 134.5,99.5C 133.833,99.5 133.167,99.5 132.5,99.5C 131.596,100.209 131.263,101.209 131.5,102.5C 129.5,102.5 127.5,102.5 125.5,102.5C 125.737,101.209 125.404,100.209 124.5,99.5C 123.833,99.5 123.167,99.5 122.5,99.5C 121.514,103.97 121.181,108.637 121.5,113.5C 120.833,113.5 120.5,113.167 120.5,112.5C 120.5,107.5 120.5,102.5 120.5,97.5 Z"/></g>
<g><path style="opacity:1" fill="#81a8b8" d="M 39.5,86.5 C 39.5,90.8333 39.5,95.1667 39.5,99.5C 40.8333,99.5 42.1667,99.5 43.5,99.5C 43.185,95.6286 43.5184,91.9619 44.5,88.5C 44.5,92.5 44.5,96.5 44.5,100.5C 42.5,100.5 40.5,100.5 38.5,100.5C 38.1805,95.6367 38.5139,90.97 39.5,86.5 Z"/></g>
<g><path style="opacity:1" fill="#ebf1f4" d="M 74.5,99.5 C 75.1667,103.5 75.8333,103.5 76.5,99.5C 76.8333,99.5 77.1667,99.5 77.5,99.5C 78.1667,103.5 78.8333,103.5 79.5,99.5C 79.56,98.9569 79.8933,98.6236 80.5,98.5C 81.1667,99.8333 81.8333,101.167 82.5,102.5C 83.1757,101.398 83.8423,100.398 84.5,99.5C 85.1667,103.5 85.8333,103.5 86.5,99.5C 87.404,100.209 87.7373,101.209 87.5,102.5C 89.5,102.5 91.5,102.5 93.5,102.5C 93.2627,101.209 93.596,100.209 94.5,99.5C 95.1667,103.5 95.8333,103.5 96.5,99.5C 96.8333,99.5 97.1667,99.5 97.5,99.5C 97.5,104.167 97.5,108.833 97.5,113.5C 94.8333,113.5 92.1667,113.5 89.5,113.5C 88.528,112.249 87.8614,112.582 87.5,114.5C 87.7472,115.713 88.4138,116.38 89.5,116.5C 90.1667,116.5 90.5,116.833 90.5,117.5C 91.7294,120.135 91.7294,122.801 90.5,125.5C 89.0753,120.27 87.9086,120.27 87,125.5C 86,120.167 85,120.167 84,125.5C 83.0914,120.27 81.9247,120.27 80.5,125.5C 79.0753,120.27 77.9086,120.27 77,125.5C 76,120.167 75,120.167 74,125.5C 73.0514,121.622 71.8847,121.622 70.5,125.5C 69.8333,124.167 69.1667,122.833 68.5,121.5C 68.0037,123.398 67.337,124.398 66.5,124.5C 65.8333,120.5 65.1667,120.5 64.5,124.5C 64.5,125.167 64.1667,125.5 63.5,125.5C 63.1736,116.651 63.507,107.984 64.5,99.5C 65.1667,103.5 65.8333,103.5 66.5,99.5C 66.8333,99.5 67.1667,99.5 67.5,99.5C 68.1667,103.5 68.8333,103.5 69.5,99.5C 69.56,98.9569 69.8933,98.6236 70.5,98.5C 71.1667,99.8333 71.8333,101.167 72.5,102.5C 73.1757,101.398 73.8423,100.398 74.5,99.5 Z"/></g>
<g><path style="opacity:1" fill="#1c6180" d="M 108.5,99.5 C 110.465,99.9483 110.798,100.948 109.5,102.5C 108.614,101.675 108.281,100.675 108.5,99.5 Z"/></g>
<g><path style="opacity:1" fill="#3a6e8a" d="M 113.5,99.5 C 113.5,100.5 113.5,101.5 113.5,102.5C 110.833,101.5 110.833,100.5 113.5,99.5 Z"/></g>
<g><path style="opacity:1" fill="#eff3f6" d="M 149.5,99.5 C 150.167,103.5 150.833,103.5 151.5,99.5C 151.833,99.5 152.167,99.5 152.5,99.5C 153.167,103.5 153.833,103.5 154.5,99.5C 155.493,107.984 155.826,116.651 155.5,125.5C 154.165,120.465 152.999,120.465 152,125.5C 151.091,120.27 149.925,120.27 148.5,125.5C 147.075,120.27 145.909,120.27 145,125.5C 144,120.167 143,120.167 142,125.5C 141.781,124.062 141.281,122.729 140.5,121.5C 139.167,122.833 137.833,122.833 136.5,121.5C 136.004,123.398 135.337,124.398 134.5,124.5C 133.833,120.5 133.167,120.5 132.5,124.5C 132.565,124.938 132.399,125.272 132,125.5C 131.051,121.622 129.885,121.622 128.5,125.5C 127.359,123.579 127.192,121.579 128,119.5C 129.011,120.337 130.178,120.67 131.5,120.5C 131.5,119.5 131.5,118.5 131.5,117.5C 129.897,117.688 128.563,117.188 127.5,116C 128.549,115.508 129.549,115.674 130.5,116.5C 131.833,115.167 131.833,113.833 130.5,112.5C 127.579,113.407 124.579,113.74 121.5,113.5C 121.181,108.637 121.514,103.97 122.5,99.5C 123.167,103.5 123.833,103.5 124.5,99.5C 125.404,100.209 125.737,101.209 125.5,102.5C 127.5,102.5 129.5,102.5 131.5,102.5C 131.263,101.209 131.596,100.209 132.5,99.5C 133.167,103.5 133.833,103.5 134.5,99.5C 135.404,100.209 135.737,101.209 135.5,102.5C 136.833,102.5 138.167,102.5 139.5,102.5C 141.048,102.179 141.715,101.179 141.5,99.5C 141.833,99.5 142.167,99.5 142.5,99.5C 143.167,103.5 143.833,103.5 144.5,99.5C 145.158,100.398 145.824,101.398 146.5,102.5C 147.167,101.167 147.833,99.8333 148.5,98.5C 149.107,98.6236 149.44,98.9569 149.5,99.5 Z"/></g>
<g><path style="opacity:1" fill="#f6f9fa" d="M 63.5,126.5 C 72.6822,126.173 81.6822,126.507 90.5,127.5C 87.5,127.5 84.5,127.5 81.5,127.5C 73.8261,127.666 66.1594,127.5 58.5,127C 59.4749,121.259 59.8082,115.425 59.5,109.5C 59.5,106.5 59.5,103.5 59.5,100.5C 60.5,100.5 61.5,100.5 62.5,100.5C 62.1736,109.349 62.507,118.016 63.5,126.5 Z"/></g>
<g><path style="opacity:1" fill="#b0c7d2" d="M 57.5,97.5 C 70.8333,97.5 84.1667,97.5 97.5,97.5C 97.5,98.1667 97.5,98.8333 97.5,99.5C 97.1667,99.5 96.8333,99.5 96.5,99.5C 95.8333,99.5 95.1667,99.5 94.5,99.5C 93.596,100.209 93.2627,101.209 93.5,102.5C 91.5,102.5 89.5,102.5 87.5,102.5C 87.7373,101.209 87.404,100.209 86.5,99.5C 85.8333,99.5 85.1667,99.5 84.5,99.5C 83.8423,100.398 83.1757,101.398 82.5,102.5C 81.8333,101.167 81.1667,99.8333 80.5,98.5C 79.8933,98.6236 79.56,98.9569 79.5,99.5C 78.8333,99.5 78.1667,99.5 77.5,99.5C 77.1667,99.5 76.8333,99.5 76.5,99.5C 75.8333,99.5 75.1667,99.5 74.5,99.5C 73.8423,100.398 73.1757,101.398 72.5,102.5C 71.8333,101.167 71.1667,99.8333 70.5,98.5C 69.8933,98.6236 69.56,98.9569 69.5,99.5C 68.8333,99.5 68.1667,99.5 67.5,99.5C 67.1667,99.5 66.8333,99.5 66.5,99.5C 65.8333,99.5 65.1667,99.5 64.5,99.5C 63.507,107.984 63.1736,116.651 63.5,125.5C 63.5,125.833 63.5,126.167 63.5,126.5C 62.507,118.016 62.1736,109.349 62.5,100.5C 61.5,100.5 60.5,100.5 59.5,100.5C 59.5,103.5 59.5,106.5 59.5,109.5C 59.1667,109.5 58.8333,109.5 58.5,109.5C 57.1667,109.5 55.8333,109.5 54.5,109.5C 54.1667,109.5 53.8333,109.5 53.5,109.5C 53.1583,108.662 52.4916,108.328 51.5,108.5C 50.8333,108.833 50.1667,109.167 49.5,109.5C 48.1667,109.5 46.8333,109.5 45.5,109.5C 45.5,110.5 45.5,111.5 45.5,112.5C 45.1667,112.5 44.8333,112.5 44.5,112.5C 43.8333,108.5 43.1667,108.5 42.5,112.5C 42.1667,112.5 41.8333,112.5 41.5,112.5C 40.8333,108.5 40.1667,108.5 39.5,112.5C 39.1667,112.5 38.8333,112.5 38.5,112.5C 38.7148,110.821 38.0481,109.821 36.5,109.5C 36.1667,109.5 35.8333,109.5 35.5,109.5C 30.6042,107.554 25.2709,106.887 19.5,107.5C 30.8333,107.167 42.1667,106.833 53.5,106.5C 55.0418,107.301 56.7085,107.634 58.5,107.5C 58.7471,104.061 58.4137,100.728 57.5,97.5 Z"/></g>
<g><path style="opacity:1" fill="#2f6c89" d="M 64.5,99.5 C 65.1667,99.5 65.8333,99.5 66.5,99.5C 65.8333,103.5 65.1667,103.5 64.5,99.5 Z"/></g>
<g><path style="opacity:1" fill="#417792" d="M 67.5,99.5 C 68.1667,99.5 68.8333,99.5 69.5,99.5C 68.8333,103.5 68.1667,103.5 67.5,99.5 Z"/></g>
<g><path style="opacity:1" fill="#256683" d="M 74.5,99.5 C 75.1667,99.5 75.8333,99.5 76.5,99.5C 75.8333,103.5 75.1667,103.5 74.5,99.5 Z"/></g>
<g><path style="opacity:1" fill="#4a7d96" d="M 77.5,99.5 C 78.1667,99.5 78.8333,99.5 79.5,99.5C 78.8333,103.5 78.1667,103.5 77.5,99.5 Z"/></g>
<g><path style="opacity:1" fill="#216482" d="M 84.5,99.5 C 85.1667,99.5 85.8333,99.5 86.5,99.5C 85.8333,103.5 85.1667,103.5 84.5,99.5 Z"/></g>
<g><path style="opacity:1" fill="#226583" d="M 94.5,99.5 C 95.1667,99.5 95.8333,99.5 96.5,99.5C 95.8333,103.5 95.1667,103.5 94.5,99.5 Z"/></g>
<g><path style="opacity:1" fill="#246684" d="M 122.5,99.5 C 123.167,99.5 123.833,99.5 124.5,99.5C 123.833,103.5 123.167,103.5 122.5,99.5 Z"/></g>
<g><path style="opacity:1" fill="#226583" d="M 132.5,99.5 C 133.167,99.5 133.833,99.5 134.5,99.5C 133.833,103.5 133.167,103.5 132.5,99.5 Z"/></g>
<g><path style="opacity:1" fill="#4b7e97" d="M 141.5,99.5 C 141.715,101.179 141.048,102.179 139.5,102.5C 139.285,100.821 139.952,99.8212 141.5,99.5 Z"/></g>
<g><path style="opacity:1" fill="#1a5e7d" d="M 142.5,99.5 C 143.167,99.5 143.833,99.5 144.5,99.5C 143.833,103.5 143.167,103.5 142.5,99.5 Z"/></g>
<g><path style="opacity:1" fill="#417792" d="M 149.5,99.5 C 150.167,99.5 150.833,99.5 151.5,99.5C 150.833,103.5 150.167,103.5 149.5,99.5 Z"/></g>
<g><path style="opacity:1" fill="#1f607f" d="M 152.5,99.5 C 153.167,99.5 153.833,99.5 154.5,99.5C 153.833,103.5 153.167,103.5 152.5,99.5 Z"/></g>
<g><path style="opacity:1" fill="#f6f9fa" d="M 159.5,109.5 C 159.192,115.425 159.525,121.259 160.5,127C 151.84,127.5 143.173,127.666 134.5,127.5C 132.5,127.5 130.5,127.5 128.5,127.5C 137.318,126.507 146.318,126.173 155.5,126.5C 156.493,118.016 156.826,109.349 156.5,100.5C 157.5,100.5 158.5,100.5 159.5,100.5C 159.5,103.5 159.5,106.5 159.5,109.5 Z"/></g>
<g><path style="opacity:1" fill="#125878" d="M 53.5,106.5 C 42.1667,106.833 30.8333,107.167 19.5,107.5C 13.31,107.823 7.31004,107.49 1.5,106.5C 10.3527,106.24 19.0194,104.907 27.5,102.5C 35.9568,104.964 44.6234,106.297 53.5,106.5 Z"/></g>
<g><path style="opacity:1" fill="#185a7a" d="M 217.5,106.5 C 205.833,106.87 194.166,107.204 182.5,107.5C 176.642,107.822 170.975,107.489 165.5,106.5C 174.182,106.201 182.682,104.867 191,102.5C 199.638,104.912 208.472,106.245 217.5,106.5 Z"/></g>
<g><path style="opacity:1" fill="#427892" d="M 64.5,104.5 C 66.4646,104.948 66.7979,105.948 65.5,107.5C 64.6143,106.675 64.281,105.675 64.5,104.5 Z"/></g>
<g><path style="opacity:1" fill="#97b4c3" d="M 67.5,104.5 C 69.5,104.5 71.5,104.5 73.5,104.5C 73.5,105.5 73.5,106.5 73.5,107.5C 71.5,107.5 69.5,107.5 67.5,107.5C 67.5,106.5 67.5,105.5 67.5,104.5 Z"/></g>
<g><path style="opacity:1" fill="#3b728d" d="M 74.5,104.5 C 76.4646,104.948 76.7979,105.948 75.5,107.5C 74.6143,106.675 74.281,105.675 74.5,104.5 Z"/></g>
<g><path style="opacity:1" fill="#5a889f" d="M 81.5,104.5 C 83.337,104.639 83.6704,105.306 82.5,106.5C 81.7025,106.043 81.3691,105.376 81.5,104.5 Z"/></g>
<g><path style="opacity:1" fill="#38728d" d="M 84.5,104.5 C 86.4646,104.948 86.7979,105.948 85.5,107.5C 84.6143,106.675 84.281,105.675 84.5,104.5 Z"/></g>
<g><path style="opacity:1" fill="#9fbac7" d="M 87.5,103.5 C 89.5,103.5 91.5,103.5 93.5,103.5C 93.5,104.833 93.5,106.167 93.5,107.5C 91.5,107.5 89.5,107.5 87.5,107.5C 87.5,106.167 87.5,104.833 87.5,103.5 Z"/></g>
<g><path style="opacity:1" fill="#366f8b" d="M 94.5,104.5 C 96.4646,104.948 96.7979,105.948 95.5,107.5C 94.6143,106.675 94.281,105.675 94.5,104.5 Z"/></g>
<g><path style="opacity:1" fill="#366f8b" d="M 108.5,103.5 C 110.465,103.948 110.798,104.948 109.5,106.5C 108.614,105.675 108.281,104.675 108.5,103.5 Z"/></g>
<g><path style="opacity:1" fill="#38728d" d="M 122.5,104.5 C 124.465,104.948 124.798,105.948 123.5,107.5C 122.614,106.675 122.281,105.675 122.5,104.5 Z"/></g>
<g><path style="opacity:1" fill="#a0bac8" d="M 125.5,103.5 C 127.5,103.5 129.5,103.5 131.5,103.5C 131.5,104.833 131.5,106.167 131.5,107.5C 129.5,107.5 127.5,107.5 125.5,107.5C 125.5,106.167 125.5,104.833 125.5,103.5 Z"/></g>
<g><path style="opacity:1" fill="#366f8b" d="M 132.5,104.5 C 134.465,104.948 134.798,105.948 133.5,107.5C 132.614,106.675 132.281,105.675 132.5,104.5 Z"/></g>
<g><path style="opacity:1" fill="#a5bfcb" d="M 139.5,104.5 C 139.5,105.833 140.167,106.5 141.5,106.5C 139.735,107.461 137.735,107.795 135.5,107.5C 135.13,103.814 136.463,102.814 139.5,104.5 Z"/></g>
<g><path style="opacity:1" fill="#487c96" d="M 139.5,104.5 C 140.833,104.5 141.5,105.167 141.5,106.5C 141.5,105.167 140.833,104.5 139.5,104.5 Z"/></g>
<g><path style="opacity:1" fill="#326b87" d="M 142.5,104.5 C 144.465,104.948 144.798,105.948 143.5,107.5C 142.614,106.675 142.281,105.675 142.5,104.5 Z"/></g>
<g><path style="opacity:1" fill="#7b9fb2" d="M 145.5,103.5 C 146.586,103.62 147.253,104.287 147.5,105.5C 147.167,106.167 146.833,106.833 146.5,107.5C 145.571,106.311 145.238,104.978 145.5,103.5 Z"/></g>
<g><path style="opacity:1" fill="#51839b" d="M 149.5,104.5 C 151.465,104.948 151.798,105.948 150.5,107.5C 149.614,106.675 149.281,105.675 149.5,104.5 Z"/></g>
<g><path style="opacity:1" fill="#366e8a" d="M 152.5,104.5 C 154.465,104.948 154.798,105.948 153.5,107.5C 152.614,106.675 152.281,105.675 152.5,104.5 Z"/></g>
<g><path style="opacity:1" fill="#5c8aa1" d="M 77.5,104.5 C 79.4646,104.948 79.7979,105.948 78.5,107.5C 77.6143,106.675 77.281,105.675 77.5,104.5 Z"/></g>
<g><path style="opacity:1" fill="#216482" d="M 108.5,108.5 C 110.465,108.948 110.798,109.948 109.5,111.5C 108.614,110.675 108.281,109.675 108.5,108.5 Z"/></g>
<g><path style="opacity:1" fill="#306d8a" d="M 64.5,108.5 C 66.4646,108.948 66.7979,109.948 65.5,111.5C 64.6143,110.675 64.281,109.675 64.5,108.5 Z"/></g>
<g><path style="opacity:1" fill="#2c6885" d="M 67.5,108.5 C 69.4646,108.948 69.7979,109.948 68.5,111.5C 67.6143,110.675 67.281,109.675 67.5,108.5 Z"/></g>
<g><path style="opacity:1" fill="#638ea4" d="M 71.5,108.5 C 73.4646,108.948 73.7979,109.948 72.5,111.5C 71.6143,110.675 71.281,109.675 71.5,108.5 Z"/></g>
<g><path style="opacity:1" fill="#256784" d="M 74.5,108.5 C 76.4646,108.948 76.7979,109.948 75.5,111.5C 74.6143,110.675 74.281,109.675 74.5,108.5 Z"/></g>
<g><path style="opacity:1" fill="#326b88" d="M 77.5,108.5 C 79.4646,108.948 79.7979,109.948 78.5,111.5C 77.6143,110.675 77.281,109.675 77.5,108.5 Z"/></g>
<g><path style="opacity:1" fill="#5d8aa1" d="M 81.5,108.5 C 83.4646,108.948 83.7979,109.948 82.5,111.5C 81.6143,110.675 81.281,109.675 81.5,108.5 Z"/></g>
<g><path style="opacity:1" fill="#246684" d="M 84.5,108.5 C 86.4646,108.948 86.7979,109.948 85.5,111.5C 84.6143,110.675 84.281,109.675 84.5,108.5 Z"/></g>
<g><path style="opacity:1" fill="#366d8a" d="M 87.5,108.5 C 89.4646,108.948 89.7979,109.948 88.5,111.5C 87.6143,110.675 87.281,109.675 87.5,108.5 Z"/></g>
<g><path style="opacity:1" fill="#53839c" d="M 91.5,108.5 C 93.4646,108.948 93.7979,109.948 92.5,111.5C 91.6143,110.675 91.281,109.675 91.5,108.5 Z"/></g>
<g><path style="opacity:1" fill="#226583" d="M 94.5,108.5 C 96.4646,108.948 96.7979,109.948 95.5,111.5C 94.6143,110.675 94.281,109.675 94.5,108.5 Z"/></g>
<g><path style="opacity:1" fill="#246684" d="M 122.5,108.5 C 124.465,108.948 124.798,109.948 123.5,111.5C 122.614,110.675 122.281,109.675 122.5,108.5 Z"/></g>
<g><path style="opacity:1" fill="#366d8a" d="M 125.5,108.5 C 127.465,108.948 127.798,109.948 126.5,111.5C 125.614,110.675 125.281,109.675 125.5,108.5 Z"/></g>
<g><path style="opacity:1" fill="#56859d" d="M 129.5,108.5 C 131.465,108.948 131.798,109.948 130.5,111.5C 129.614,110.675 129.281,109.675 129.5,108.5 Z"/></g>
<g><path style="opacity:1" fill="#226583" d="M 132.5,108.5 C 134.465,108.948 134.798,109.948 133.5,111.5C 132.614,110.675 132.281,109.675 132.5,108.5 Z"/></g>
<g><path style="opacity:1" fill="#396f8b" d="M 135.5,108.5 C 137.465,108.948 137.798,109.948 136.5,111.5C 135.614,110.675 135.281,109.675 135.5,108.5 Z"/></g>
<g><path style="opacity:1" fill="#4c7f98" d="M 139.5,108.5 C 141.465,108.948 141.798,109.948 140.5,111.5C 139.614,110.675 139.281,109.675 139.5,108.5 Z"/></g>
<g><path style="opacity:1" fill="#246683" d="M 142.5,108.5 C 144.465,108.948 144.798,109.948 143.5,111.5C 142.614,110.675 142.281,109.675 142.5,108.5 Z"/></g>
<g><path style="opacity:1" fill="#427993" d="M 149.5,108.5 C 151.465,108.948 151.798,109.948 150.5,111.5C 149.614,110.675 149.281,109.675 149.5,108.5 Z"/></g>
<g><path style="opacity:1" fill="#226281" d="M 152.5,108.5 C 154.465,108.948 154.798,109.948 153.5,111.5C 152.614,110.675 152.281,109.675 152.5,108.5 Z"/></g>
<g><path style="opacity:1" fill="#87a8b9" d="M 168.5,108.5 C 169.919,109.451 171.585,109.784 173.5,109.5C 173.5,110.5 173.5,111.5 173.5,112.5C 171.801,112.34 170.134,112.506 168.5,113C 171.146,113.497 173.813,113.664 176.5,113.5C 176.5,114.5 176.5,115.5 176.5,116.5C 165.833,116.833 165.833,117.167 176.5,117.5C 176.5,118.5 176.5,119.5 176.5,120.5C 173.753,120.187 171.086,120.52 168.5,121.5C 170.167,122.167 171.833,122.833 173.5,123.5C 171.345,124.001 169.678,125.001 168.5,126.5C 167.511,121.025 167.178,115.358 167.5,109.5C 167.5,108.833 167.833,108.5 168.5,108.5 Z"/></g>
<g><path style="opacity:1" fill="#7ea1b3" d="M 183.5,108.5 C 183.833,108.5 184.167,108.5 184.5,108.5C 186.982,110.039 186.982,111.539 184.5,113C 187.167,114.333 187.167,115.667 184.5,117C 187.167,118.333 187.167,119.667 184.5,121C 187.132,123.265 186.799,125.099 183.5,126.5C 183.5,126.167 183.5,125.833 183.5,125.5C 183.5,119.833 183.5,114.167 183.5,108.5 Z"/></g>
<g><path style="opacity:1" fill="#e7eef1" d="M 199.5,109.5 C 205.022,108.575 210.522,108.242 216,108.5C 216.499,114.157 216.666,119.824 216.5,125.5C 215.5,125.5 214.5,125.5 213.5,125.5C 212.991,114.853 212.158,114.853 211,125.5C 210,114.833 209,114.833 208,125.5C 207,114.833 206,114.833 205,125.5C 204.377,121.068 203.377,120.735 202,124.5C 201.682,122.939 200.849,121.772 199.5,121C 202.167,119.667 202.167,118.333 199.5,117C 202.167,115.667 202.167,114.333 199.5,113C 202.125,111.624 202.125,110.458 199.5,109.5 Z"/></g>
<g><path style="opacity:1" fill="#b1c8d3" d="M 182.5,107.5 C 194.166,107.204 205.833,106.87 217.5,106.5C 217.602,112.918 217.602,119.585 217.5,126.5C 217.167,126.5 216.833,126.5 216.5,126.5C 216.5,126.167 216.5,125.833 216.5,125.5C 216.666,119.824 216.499,114.157 216,108.5C 210.522,108.242 205.022,108.575 199.5,109.5C 199.167,109.5 198.833,109.5 198.5,109.5C 197.791,108.596 196.791,108.263 195.5,108.5C 195.167,108.5 194.833,108.5 194.5,108.5C 192.5,108.5 190.5,108.5 188.5,108.5C 188.167,108.5 187.833,108.5 187.5,108.5C 186.5,108.5 185.5,108.5 184.5,108.5C 184.167,108.5 183.833,108.5 183.5,108.5C 183.5,107.833 183.167,107.5 182.5,107.5 Z"/></g>
<g><path style="opacity:1" fill="#2b6784" d="M 202.5,109.5 C 204.465,109.948 204.798,110.948 203.5,112.5C 202.614,111.675 202.281,110.675 202.5,109.5 Z"/></g>
<g><path style="opacity:1" fill="#216180" d="M 205.5,109.5 C 207.465,109.948 207.798,110.948 206.5,112.5C 205.614,111.675 205.281,110.675 205.5,109.5 Z"/></g>
<g><path style="opacity:1" fill="#226583" d="M 208.5,109.5 C 210.465,109.948 210.798,110.948 209.5,112.5C 208.614,111.675 208.281,110.675 208.5,109.5 Z"/></g>
<g><path style="opacity:1" fill="#256784" d="M 211.5,109.5 C 213.465,109.948 213.798,110.948 212.5,112.5C 211.614,111.675 211.281,110.675 211.5,109.5 Z"/></g>
<g><path style="opacity:1" fill="#a3bcc9" d="M 145.5,108.5 C 146.5,108.5 147.5,108.5 148.5,108.5C 148.068,111.114 147.735,113.78 147.5,116.5C 146.914,116.291 146.414,115.957 146,115.5C 145.503,113.19 145.337,110.857 145.5,108.5 Z"/></g>
<g><path style="opacity:1" fill="#eff3f6" d="M 19.5,108.5 C 17.0182,110.039 17.0182,111.539 19.5,113C 18.9056,113.464 18.2389,113.631 17.5,113.5C 17.1667,113.5 16.8333,113.5 16.5,113.5C 14.9519,113.821 14.2852,114.821 14.5,116.5C 14.5,116.833 14.5,117.167 14.5,117.5C 14.5,118.5 14.5,119.5 14.5,120.5C 14.5,121.167 14.5,121.833 14.5,122.5C 14.5,123.167 14.5,123.833 14.5,124.5C 14.1667,125.833 13.8333,125.833 13.5,124.5C 12.8333,115.167 12.1667,115.167 11.5,124.5C 11.1667,125.833 10.8333,125.833 10.5,124.5C 9.83333,115.167 9.16667,115.167 8.5,124.5C 8.16667,125.833 7.83333,125.833 7.5,124.5C 6.83333,115.167 6.16667,115.167 5.5,124.5C 4.49995,119.932 4.16662,114.599 4.5,108.5C 9.5,108.5 14.5,108.5 19.5,108.5 Z"/></g>
<g><path style="opacity:1" fill="#2b6a87" d="M 64.5,113.5 C 66.337,113.639 66.6704,114.306 65.5,115.5C 64.7025,115.043 64.3691,114.376 64.5,113.5 Z"/></g>
<g><path style="opacity:1" fill="#608da3" d="M 67.5,112.5 C 68.5862,112.62 69.2528,113.287 69.5,114.5C 69.1667,115.167 68.8333,115.833 68.5,116.5C 67.5713,115.311 67.238,113.978 67.5,112.5 Z"/></g>
<g><path style="opacity:1" fill="#206380" d="M 74.5,113.5 C 76.337,113.639 76.6704,114.306 75.5,115.5C 74.7025,115.043 74.3691,114.376 74.5,113.5 Z"/></g>
<g><path style="opacity:1" fill="#9ab6c5" d="M 77.5,112.5 C 79.5,112.5 81.5,112.5 83.5,112.5C 83.762,113.978 83.4287,115.311 82.5,116.5C 81.1667,115.167 79.8333,115.167 78.5,116.5C 77.5713,115.311 77.238,113.978 77.5,112.5 Z"/></g>
<g><path style="opacity:1" fill="#3e7490" d="M 84.5,113.5 C 86.4646,113.948 86.7979,114.948 85.5,116.5C 84.6143,115.675 84.281,114.675 84.5,113.5 Z"/></g>
<g><path style="opacity:1" fill="#6b95a9" d="M 89.5,113.5 C 89.5,114.5 89.5,115.5 89.5,116.5C 88.4138,116.38 87.7472,115.713 87.5,114.5C 87.8614,112.582 88.528,112.249 89.5,113.5 Z"/></g>
<g><path style="opacity:1" fill="#3b728e" d="M 132.5,113.5 C 134.465,113.948 134.798,114.948 133.5,116.5C 132.614,115.675 132.281,114.675 132.5,113.5 Z"/></g>
<g><path style="opacity:1" fill="#6d96ab" d="M 139.5,112.5 C 140.586,112.62 141.253,113.287 141.5,114.5C 141.167,115.167 140.833,115.833 140.5,116.5C 139.571,115.311 139.238,113.978 139.5,112.5 Z"/></g>
<g><path style="opacity:1" fill="#376e8a" d="M 142.5,113.5 C 144.465,113.948 144.798,114.948 143.5,116.5C 142.614,115.675 142.281,114.675 142.5,113.5 Z"/></g>
<g><path style="opacity:1" fill="#56859d" d="M 149.5,113.5 C 151.465,113.948 151.798,114.948 150.5,116.5C 149.614,115.675 149.281,114.675 149.5,113.5 Z"/></g>
<g><path style="opacity:1" fill="#55859d" d="M 152.5,112.5 C 153.586,112.62 154.253,113.287 154.5,114.5C 154.167,115.167 153.833,115.833 153.5,116.5C 152.571,115.311 152.238,113.978 152.5,112.5 Z"/></g>
<g><path style="opacity:1" fill="#e6eef1" d="M 182.5,107.5 C 183.167,107.5 183.5,107.833 183.5,108.5C 183.5,114.167 183.5,119.833 183.5,125.5C 182.087,115.157 180.92,115.157 180,125.5C 179.506,123.866 179.34,122.199 179.5,120.5C 179.737,119.209 179.404,118.209 178.5,117.5C 177.833,117.5 177.167,117.5 176.5,117.5C 165.833,117.167 165.833,116.833 176.5,116.5C 176.5,115.5 176.5,114.5 176.5,113.5C 173.813,113.664 171.146,113.497 168.5,113C 170.134,112.506 171.801,112.34 173.5,112.5C 173.5,111.5 173.5,110.5 173.5,109.5C 171.585,109.784 169.919,109.451 168.5,108.5C 173.363,108.819 178.03,108.486 182.5,107.5 Z"/></g>
<g><path style="opacity:1" fill="#447a94" d="M 202.5,113.5 C 204.465,113.948 204.798,114.948 203.5,116.5C 202.614,115.675 202.281,114.675 202.5,113.5 Z"/></g>
<g><path style="opacity:1" fill="#336f8b" d="M 205.5,113.5 C 207.465,113.948 207.798,114.948 206.5,116.5C 205.614,115.675 205.281,114.675 205.5,113.5 Z"/></g>
<g><path style="opacity:1" fill="#2a6a87" d="M 208.5,113.5 C 210.465,113.948 210.798,114.948 209.5,116.5C 208.614,115.675 208.281,114.675 208.5,113.5 Z"/></g>
<g><path style="opacity:1" fill="#2d6b87" d="M 211.5,113.5 C 213.465,113.948 213.798,114.948 212.5,116.5C 211.614,115.675 211.281,114.675 211.5,113.5 Z"/></g>
<g><path style="opacity:1" fill="#c8d9e0" d="M 102.5,112.5 C 101.167,112.5 99.8333,112.5 98.5,112.5C 98.3287,115.797 98.9954,116.131 100.5,113.5C 101.107,113.624 101.44,113.957 101.5,114.5C 103.743,115.812 106.41,116.478 109.5,116.5C 112.59,116.478 115.257,115.812 117.5,114.5C 117.56,113.957 117.893,113.624 118.5,113.5C 120.896,115.067 123.563,115.9 126.5,116C 123.746,116.272 121.079,116.772 118.5,117.5C 114.167,117.5 109.833,117.5 105.5,117.5C 103.833,117.5 102.167,117.5 100.5,117.5C 97.1667,116.167 93.8333,116.167 90.5,117.5C 90.5,116.833 90.1667,116.5 89.5,116.5C 89.5,115.5 89.5,114.5 89.5,113.5C 92.1667,113.5 94.8333,113.5 97.5,113.5C 97.5,108.833 97.5,104.167 97.5,99.5C 97.5,98.8333 97.5,98.1667 97.5,97.5C 98.1667,97.5 98.5,97.1667 98.5,96.5C 98.5,95.8333 98.5,95.1667 98.5,94.5C 98.5,92.8333 98.5,91.1667 98.5,89.5C 99.8734,89.3433 101.207,89.51 102.5,90C 99.8333,91.3333 99.8333,92.6667 102.5,94C 99.8333,95.6667 99.8333,97.3333 102.5,99C 99.8333,100.333 99.8333,101.667 102.5,103C 99.8333,104.667 99.8333,106.333 102.5,108C 100.018,109.461 100.018,110.961 102.5,112.5 Z"/></g>
<g><path style="opacity:1" fill="#f4f8f9" d="M 101.5,114.5 C 106.833,114.5 112.167,114.5 117.5,114.5C 115.257,115.812 112.59,116.478 109.5,116.5C 106.41,116.478 103.743,115.812 101.5,114.5 Z"/></g>
<g><path style="opacity:1" fill="#2c6b87" d="M 64.5,117.5 C 66.4646,117.948 66.7979,118.948 65.5,120.5C 64.6143,119.675 64.281,118.675 64.5,117.5 Z"/></g>
<g><path style="opacity:1" fill="#286482" d="M 67.5,117.5 C 69.4646,117.948 69.7979,118.948 68.5,120.5C 67.6143,119.675 67.281,118.675 67.5,117.5 Z"/></g>
<g><path style="opacity:1" fill="#618ca2" d="M 71.5,117.5 C 73.4646,117.948 73.7979,118.948 72.5,120.5C 71.6143,119.675 71.281,118.675 71.5,117.5 Z"/></g>
<g><path style="opacity:1" fill="#236582" d="M 74.5,117.5 C 76.4646,117.948 76.7979,118.948 75.5,120.5C 74.6143,119.675 74.281,118.675 74.5,117.5 Z"/></g>
<g><path style="opacity:1" fill="#2e6785" d="M 77.5,117.5 C 79.4646,117.948 79.7979,118.948 78.5,120.5C 77.6143,119.675 77.281,118.675 77.5,117.5 Z"/></g>
<g><path style="opacity:1" fill="#5a889f" d="M 81.5,117.5 C 83.4646,117.948 83.7979,118.948 82.5,120.5C 81.6143,119.675 81.281,118.675 81.5,117.5 Z"/></g>
<g><path style="opacity:1" fill="#1f6381" d="M 84.5,117.5 C 86.4646,117.948 86.7979,118.948 85.5,120.5C 84.6143,119.675 84.281,118.675 84.5,117.5 Z"/></g>
<g><path style="opacity:1" fill="#336a87" d="M 87.5,117.5 C 89.4646,117.948 89.7979,118.948 88.5,120.5C 87.6143,119.675 87.281,118.675 87.5,117.5 Z"/></g>
<g><path style="opacity:1" fill="#1b617f" d="M 132.5,117.5 C 134.465,117.948 134.798,118.948 133.5,120.5C 132.614,119.675 132.281,118.675 132.5,117.5 Z"/></g>
<g><path style="opacity:1" fill="#356b88" d="M 135.5,117.5 C 137.465,117.948 137.798,118.948 136.5,120.5C 135.614,119.675 135.281,118.675 135.5,117.5 Z"/></g>
<g><path style="opacity:1" fill="#487c96" d="M 139.5,117.5 C 141.465,117.948 141.798,118.948 140.5,120.5C 139.614,119.675 139.281,118.675 139.5,117.5 Z"/></g>
<g><path style="opacity:1" fill="#165c7b" d="M 142.5,117.5 C 144.465,117.948 144.798,118.948 143.5,120.5C 142.614,119.675 142.281,118.675 142.5,117.5 Z"/></g>
<g><path style="opacity:1" fill="#7c9eb1" d="M 146.5,117.5 C 148.465,117.948 148.798,118.948 147.5,120.5C 146.614,119.675 146.281,118.675 146.5,117.5 Z"/></g>
<g><path style="opacity:1" fill="#407691" d="M 149.5,117.5 C 151.465,117.948 151.798,118.948 150.5,120.5C 149.614,119.675 149.281,118.675 149.5,117.5 Z"/></g>
<g><path style="opacity:1" fill="#1d5f7e" d="M 152.5,117.5 C 154.465,117.948 154.798,118.948 153.5,120.5C 152.614,119.675 152.281,118.675 152.5,117.5 Z"/></g>
<g><path style="opacity:1" fill="#105778" d="M 100.5,117.5 C 102.167,117.5 103.833,117.5 105.5,117.5C 105.5,118.167 105.5,118.833 105.5,119.5C 105.5,122.167 105.5,124.833 105.5,127.5C 103.833,127.5 102.167,127.5 100.5,127.5C 100.5,124.167 100.5,120.833 100.5,117.5 Z"/></g>
<g><path style="opacity:1" fill="#0c5676" d="M 118.5,118.5 C 118.5,121.5 118.5,124.5 118.5,127.5C 116.833,127.5 115.167,127.5 113.5,127.5C 113.5,124.833 113.5,122.167 113.5,119.5C 114.919,118.549 116.585,118.216 118.5,118.5 Z"/></g>
<g><path style="opacity:1" fill="#5c8ea4" d="M 105.5,117.5 C 109.833,117.5 114.167,117.5 118.5,117.5C 118.5,117.833 118.5,118.167 118.5,118.5C 116.585,118.216 114.919,118.549 113.5,119.5C 112.833,122.167 112.167,124.833 111.5,127.5C 111.5,124.5 111.5,121.5 111.5,118.5C 110.167,118.5 108.833,118.5 107.5,118.5C 107.5,121.5 107.5,124.5 107.5,127.5C 106.833,124.833 106.167,122.167 105.5,119.5C 105.5,118.833 105.5,118.167 105.5,117.5 Z"/></g>
<g><path style="opacity:1" fill="#085475" d="M 111.5,127.5 C 110.167,127.5 108.833,127.5 107.5,127.5C 107.5,124.5 107.5,121.5 107.5,118.5C 108.833,118.5 110.167,118.5 111.5,118.5C 111.5,121.5 111.5,124.5 111.5,127.5 Z"/></g>
<g><path style="opacity:1" fill="#467b94" d="M 66.5,124.5 C 65.8333,124.5 65.1667,124.5 64.5,124.5C 65.1667,120.5 65.8333,120.5 66.5,124.5 Z"/></g>
<g><path style="opacity:1" fill="#95b3c2" d="M 19.5,107.5 C 25.2709,106.887 30.6042,107.554 35.5,109.5C 35.334,114.844 35.5006,120.177 36,125.5C 37,114.833 38,114.833 39,125.5C 39.2189,124.062 39.7189,122.729 40.5,121.5C 41.086,121.709 41.586,122.043 42,122.5C 42.4935,120.866 42.6602,119.199 42.5,117.5C 45.1873,117.664 47.854,117.497 50.5,117C 48.8659,116.506 47.1992,116.34 45.5,116.5C 45.5,115.5 45.5,114.5 45.5,113.5C 47.7674,113.854 49.1007,113.521 49.5,112.5C 49.5,111.5 49.5,110.5 49.5,109.5C 50.1667,109.167 50.8333,108.833 51.5,108.5C 51.5,114.5 51.5,120.5 51.5,126.5C 45.439,126.79 39.439,126.457 33.5,125.5C 32.0045,122.355 32.3379,119.522 34.5,117C 31.8333,115.667 31.8333,114.333 34.5,113C 31.8333,111.667 31.8333,110.333 34.5,109C 33.552,108.517 32.552,108.351 31.5,108.5C 31.6662,114.509 31.4995,120.509 31,126.5C 28.0483,124.807 27.8817,122.974 30.5,121C 27.8333,119.667 27.8333,118.333 30.5,117C 27.8333,115.667 27.8333,114.333 30.5,113C 27.8333,111.667 27.8333,110.333 30.5,109C 28.5273,108.505 26.5273,108.338 24.5,108.5C 24.6662,114.509 24.4995,120.509 24,126.5C 20.9483,123.469 20.7816,120.302 23.5,117C 20.8333,115.667 20.8333,114.333 23.5,113C 20.8333,111.667 20.8333,110.333 23.5,109C 22.552,108.517 21.552,108.351 20.5,108.5C 20.8229,114.69 20.4896,120.69 19.5,126.5C 16.9824,124.643 16.9824,122.81 19.5,121C 16.8333,119.667 16.8333,118.333 19.5,117C 18.0267,116.29 17.3601,115.124 17.5,113.5C 18.2389,113.631 18.9056,113.464 19.5,113C 17.0182,111.539 17.0182,110.039 19.5,108.5C 19.5,108.167 19.5,107.833 19.5,107.5 Z"/></g>
<g><path style="opacity:1" fill="#94b3c1" d="M 100.5,117.5 C 100.5,120.833 100.5,124.167 100.5,127.5C 102.167,127.5 103.833,127.5 105.5,127.5C 102.275,128.237 98.9412,128.903 95.5,129.5C 94.8333,128.833 94.1667,128.167 93.5,127.5C 95.1667,127.5 96.8333,127.5 98.5,127.5C 98.5,124.167 98.5,120.833 98.5,117.5C 96.2188,117.077 94.5521,117.744 93.5,119.5C 92.8333,122.5 92.1667,125.5 91.5,128.5C 91.5,127.833 91.1667,127.5 90.5,127.5C 81.6822,126.507 72.6822,126.173 63.5,126.5C 63.5,126.167 63.5,125.833 63.5,125.5C 64.1667,125.5 64.5,125.167 64.5,124.5C 65.1667,124.5 65.8333,124.5 66.5,124.5C 67.337,124.398 68.0037,123.398 68.5,121.5C 69.1667,122.833 69.8333,124.167 70.5,125.5C 71.8847,121.622 73.0514,121.622 74,125.5C 75,120.167 76,120.167 77,125.5C 77.9086,120.27 79.0753,120.27 80.5,125.5C 81.9247,120.27 83.0914,120.27 84,125.5C 85,120.167 86,120.167 87,125.5C 87.9086,120.27 89.0753,120.27 90.5,125.5C 91.7294,122.801 91.7294,120.135 90.5,117.5C 93.8333,116.167 97.1667,116.167 100.5,117.5 Z"/></g>
<g><path style="opacity:1" fill="#135979" d="M 93.5,127.5 C 93.5,124.833 93.5,122.167 93.5,119.5C 94.5521,117.744 96.2188,117.077 98.5,117.5C 98.5,120.833 98.5,124.167 98.5,127.5C 96.8333,127.5 95.1667,127.5 93.5,127.5 Z"/></g>
<g><path style="opacity:1" fill="#97b5c3" d="M 102.5,112.5 C 103.167,112.5 103.833,112.5 104.5,112.5C 107.833,112.5 111.167,112.5 114.5,112.5C 115.167,112.5 115.833,112.5 116.5,112.5C 117.833,112.5 119.167,112.5 120.5,112.5C 120.5,113.167 120.833,113.5 121.5,113.5C 124.579,113.74 127.579,113.407 130.5,112.5C 131.833,113.833 131.833,115.167 130.5,116.5C 129.549,115.674 128.549,115.508 127.5,116C 128.563,117.188 129.897,117.688 131.5,117.5C 131.5,118.5 131.5,119.5 131.5,120.5C 130.178,120.67 129.011,120.337 128,119.5C 127.192,121.579 127.359,123.579 128.5,125.5C 129.885,121.622 131.051,121.622 132,125.5C 132.399,125.272 132.565,124.938 132.5,124.5C 133.167,124.5 133.833,124.5 134.5,124.5C 135.337,124.398 136.004,123.398 136.5,121.5C 137.833,122.833 139.167,122.833 140.5,121.5C 141.281,122.729 141.781,124.062 142,125.5C 143,120.167 144,120.167 145,125.5C 145.909,120.27 147.075,120.27 148.5,125.5C 149.925,120.27 151.091,120.27 152,125.5C 152.999,120.465 154.165,120.465 155.5,125.5C 155.5,125.833 155.5,126.167 155.5,126.5C 146.318,126.173 137.318,126.507 128.5,127.5C 127.833,127.5 127.5,127.833 127.5,128.5C 126.833,125.5 126.167,122.5 125.5,119.5C 124.448,117.744 122.781,117.077 120.5,117.5C 120.5,120.833 120.5,124.167 120.5,127.5C 121.5,127.5 122.5,127.5 123.5,127.5C 123.5,128.167 123.5,128.833 123.5,129.5C 120.059,128.903 116.725,128.237 113.5,127.5C 115.167,127.5 116.833,127.5 118.5,127.5C 118.5,124.5 118.5,121.5 118.5,118.5C 118.5,118.167 118.5,117.833 118.5,117.5C 121.079,116.772 123.746,116.272 126.5,116C 123.563,115.9 120.896,115.067 118.5,113.5C 117.893,113.624 117.56,113.957 117.5,114.5C 112.167,114.5 106.833,114.5 101.5,114.5C 101.44,113.957 101.107,113.624 100.5,113.5C 98.9954,116.131 98.3287,115.797 98.5,112.5C 99.8333,112.5 101.167,112.5 102.5,112.5 Z"/></g>
<g><path style="opacity:1" fill="#3d748f" d="M 134.5,124.5 C 133.833,124.5 133.167,124.5 132.5,124.5C 133.167,120.5 133.833,120.5 134.5,124.5 Z"/></g>
<g><path style="opacity:1" fill="#135979" d="M 125.5,119.5 C 126.036,122.698 125.369,125.365 123.5,127.5C 122.5,127.5 121.5,127.5 120.5,127.5C 120.5,124.167 120.5,120.833 120.5,117.5C 122.781,117.077 124.448,117.744 125.5,119.5 Z"/></g>
<g><path style="opacity:1" fill="#c1d4dc" d="M 1.5,106.5 C 7.31004,107.49 13.31,107.823 19.5,107.5C 19.5,107.833 19.5,108.167 19.5,108.5C 14.5,108.5 9.5,108.5 4.5,108.5C 4.16662,114.599 4.49995,119.932 5.5,124.5C 6.16667,124.5 6.83333,124.5 7.5,124.5C 7.83333,125.833 8.16667,125.833 8.5,124.5C 9.16667,124.5 9.83333,124.5 10.5,124.5C 10.8333,125.833 11.1667,125.833 11.5,124.5C 12.1667,124.5 12.8333,124.5 13.5,124.5C 13.8333,125.833 14.1667,125.833 14.5,124.5C 17.1667,123.833 17.1667,123.167 14.5,122.5C 14.5,121.833 14.5,121.167 14.5,120.5C 17.1667,119.5 17.1667,118.5 14.5,117.5C 14.5,117.167 14.5,116.833 14.5,116.5C 16.0481,116.179 16.7148,115.179 16.5,113.5C 16.8333,113.5 17.1667,113.5 17.5,113.5C 17.3601,115.124 18.0267,116.29 19.5,117C 16.8333,118.333 16.8333,119.667 19.5,121C 16.9824,122.81 16.9824,124.643 19.5,126.5C 14.1667,126.5 8.83333,126.5 3.5,126.5C 3.66609,120.824 3.49942,115.157 3,109.5C 2.82716,115.348 2.32716,121.015 1.5,126.5C 1.39827,119.585 1.39827,112.918 1.5,106.5 Z"/></g>
<g><path style="opacity:1" fill="#87a8b9" d="M 198.5,109.5 C 198.833,109.5 199.167,109.5 199.5,109.5C 202.125,110.458 202.125,111.624 199.5,113C 202.167,114.333 202.167,115.667 199.5,117C 202.167,118.333 202.167,119.667 199.5,121C 200.849,121.772 201.682,122.939 202,124.5C 203.377,120.735 204.377,121.068 205,125.5C 206,114.833 207,114.833 208,125.5C 209,114.833 210,114.833 211,125.5C 212.158,114.853 212.991,114.853 213.5,125.5C 214.5,125.5 215.5,125.5 216.5,125.5C 216.5,125.833 216.5,126.167 216.5,126.5C 210.5,126.5 204.5,126.5 198.5,126.5C 198.5,120.833 198.5,115.167 198.5,109.5 Z"/></g>
<g><path style="opacity:1" fill="#4a7e97" d="M 202.5,117.5 C 204.465,117.948 204.798,118.948 203.5,120.5C 202.614,119.675 202.281,118.675 202.5,117.5 Z"/></g>
<g><path style="opacity:1" fill="#e2eaee" d="M 51.5,108.5 C 52.4916,108.328 53.1583,108.662 53.5,109.5C 53.8066,115.093 53.4732,120.593 52.5,126C 53.1667,126.333 53.8333,126.667 54.5,127C 36.6619,127.829 18.9952,127.662 1.5,126.5C 2.32716,121.015 2.82716,115.348 3,109.5C 3.49942,115.157 3.66609,120.824 3.5,126.5C 8.83333,126.5 14.1667,126.5 19.5,126.5C 20.4896,120.69 20.8229,114.69 20.5,108.5C 21.552,108.351 22.552,108.517 23.5,109C 20.8333,110.333 20.8333,111.667 23.5,113C 20.8333,114.333 20.8333,115.667 23.5,117C 20.7816,120.302 20.9483,123.469 24,126.5C 24.4995,120.509 24.6662,114.509 24.5,108.5C 26.5273,108.338 28.5273,108.505 30.5,109C 27.8333,110.333 27.8333,111.667 30.5,113C 27.8333,114.333 27.8333,115.667 30.5,117C 27.8333,118.333 27.8333,119.667 30.5,121C 27.8817,122.974 28.0483,124.807 31,126.5C 31.4995,120.509 31.6662,114.509 31.5,108.5C 32.552,108.351 33.552,108.517 34.5,109C 31.8333,110.333 31.8333,111.667 34.5,113C 31.8333,114.333 31.8333,115.667 34.5,117C 32.3379,119.522 32.0045,122.355 33.5,125.5C 39.439,126.457 45.439,126.79 51.5,126.5C 51.5,120.5 51.5,114.5 51.5,108.5 Z"/></g>
<g><path style="opacity:1" fill="#38728d" d="M 25.5,122.5 C 27.337,122.639 27.6704,123.306 26.5,124.5C 25.7025,124.043 25.3691,123.376 25.5,122.5 Z"/></g>
<g><path style="opacity:1" fill="#3e7690" d="M 14.5,122.5 C 17.1667,123.167 17.1667,123.833 14.5,124.5C 14.5,123.833 14.5,123.167 14.5,122.5 Z"/></g>
<g><path style="opacity:1" fill="#6994a9" d="M 13.5,124.5 C 12.8333,124.5 12.1667,124.5 11.5,124.5C 12.1667,115.167 12.8333,115.167 13.5,124.5 Z"/></g>
<g><path style="opacity:1" fill="#628ea4" d="M 10.5,124.5 C 9.83333,124.5 9.16667,124.5 8.5,124.5C 9.16667,115.167 9.83333,115.167 10.5,124.5 Z"/></g>
<g><path style="opacity:1" fill="#5f8ba1" d="M 7.5,124.5 C 6.83333,124.5 6.16667,124.5 5.5,124.5C 6.16667,115.167 6.83333,115.167 7.5,124.5 Z"/></g>
<g><path style="opacity:1" fill="#487d96" d="M 25.5,117.5 C 27.4646,117.948 27.7979,118.948 26.5,120.5C 25.6143,119.675 25.281,118.675 25.5,117.5 Z"/></g>
<g><path style="opacity:1" fill="#4e8199" d="M 14.5,117.5 C 17.1667,118.5 17.1667,119.5 14.5,120.5C 14.5,119.5 14.5,118.5 14.5,117.5 Z"/></g>
<g><path style="opacity:1" fill="#e0e9ed" d="M 35.5,109.5 C 35.8333,109.5 36.1667,109.5 36.5,109.5C 36.2852,111.179 36.9519,112.179 38.5,112.5C 38.8333,112.5 39.1667,112.5 39.5,112.5C 40.1667,112.5 40.8333,112.5 41.5,112.5C 41.8333,112.5 42.1667,112.5 42.5,112.5C 43.1667,112.5 43.8333,112.5 44.5,112.5C 44.8333,112.5 45.1667,112.5 45.5,112.5C 46.8333,112.5 48.1667,112.5 49.5,112.5C 49.1007,113.521 47.7674,113.854 45.5,113.5C 45.5,114.5 45.5,115.5 45.5,116.5C 47.1992,116.34 48.8659,116.506 50.5,117C 47.854,117.497 45.1873,117.664 42.5,117.5C 42.6602,119.199 42.4935,120.866 42,122.5C 41.586,122.043 41.086,121.709 40.5,121.5C 39.7189,122.729 39.2189,124.062 39,125.5C 38,114.833 37,114.833 36,125.5C 35.5006,120.177 35.334,114.844 35.5,109.5 Z"/></g>
<g><path style="opacity:1" fill="#53849c" d="M 39.5,117.5 C 41.4646,117.948 41.7979,118.948 40.5,120.5C 39.6143,119.675 39.281,118.675 39.5,117.5 Z"/></g>
<g><path style="opacity:1" fill="#5a89a0" d="M 42.5,113.5 C 44.4646,113.948 44.7979,114.948 43.5,116.5C 42.6143,115.675 42.281,114.675 42.5,113.5 Z"/></g>
<g><path style="opacity:1" fill="#4c8098" d="M 39.5,113.5 C 41.4646,113.948 41.7979,114.948 40.5,116.5C 39.6143,115.675 39.281,114.675 39.5,113.5 Z"/></g>
<g><path style="opacity:1" fill="#3b748f" d="M 36.5,113.5 C 38.4646,113.948 38.7979,114.948 37.5,116.5C 36.6143,115.675 36.281,114.675 36.5,113.5 Z"/></g>
<g><path style="opacity:1" fill="#427993" d="M 25.5,113.5 C 27.4646,113.948 27.7979,114.948 26.5,116.5C 25.6143,115.675 25.281,114.675 25.5,113.5 Z"/></g>
<g><path style="opacity:1" fill="#477c95" d="M 16.5,113.5 C 16.7148,115.179 16.0481,116.179 14.5,116.5C 14.2852,114.821 14.9519,113.821 16.5,113.5 Z"/></g>
<g><path style="opacity:1" fill="#36718d" d="M 11.5,113.5 C 13.4646,113.948 13.7979,114.948 12.5,116.5C 11.6143,115.675 11.281,114.675 11.5,113.5 Z"/></g>
<g><path style="opacity:1" fill="#2a6a87" d="M 8.5,113.5 C 10.4646,113.948 10.7979,114.948 9.5,116.5C 8.61432,115.675 8.28099,114.675 8.5,113.5 Z"/></g>
<g><path style="opacity:1" fill="#2a6986" d="M 5.5,113.5 C 7.46455,113.948 7.79789,114.948 6.5,116.5C 5.61432,115.675 5.28099,114.675 5.5,113.5 Z"/></g>
<g><path style="opacity:1" fill="#608ba2" d="M 49.5,109.5 C 49.5,110.5 49.5,111.5 49.5,112.5C 48.1667,112.5 46.8333,112.5 45.5,112.5C 45.5,111.5 45.5,110.5 45.5,109.5C 46.8333,109.5 48.1667,109.5 49.5,109.5 Z"/></g>
<g><path style="opacity:1" fill="#55859d" d="M 44.5,112.5 C 43.8333,112.5 43.1667,112.5 42.5,112.5C 43.1667,108.5 43.8333,108.5 44.5,112.5 Z"/></g>
<g><path style="opacity:1" fill="#477c95" d="M 41.5,112.5 C 40.8333,112.5 40.1667,112.5 39.5,112.5C 40.1667,108.5 40.8333,108.5 41.5,112.5 Z"/></g>
<g><path style="opacity:1" fill="#34708b" d="M 36.5,109.5 C 38.0481,109.821 38.7148,110.821 38.5,112.5C 36.9519,112.179 36.2852,111.179 36.5,109.5 Z"/></g>
<g><path style="opacity:1" fill="#3a748f" d="M 25.5,109.5 C 27.4646,109.948 27.7979,110.948 26.5,112.5C 25.6143,111.675 25.281,110.675 25.5,109.5 Z"/></g>
<g><path style="opacity:1" fill="#427892" d="M 14.5,109.5 C 16.4646,109.948 16.7979,110.948 15.5,112.5C 14.6143,111.675 14.281,110.675 14.5,109.5 Z"/></g>
<g><path style="opacity:1" fill="#306d89" d="M 11.5,109.5 C 13.4646,109.948 13.7979,110.948 12.5,112.5C 11.6143,111.675 11.281,110.675 11.5,109.5 Z"/></g>
<g><path style="opacity:1" fill="#246684" d="M 8.5,109.5 C 10.4646,109.948 10.7979,110.948 9.5,112.5C 8.61432,111.675 8.28099,110.675 8.5,109.5 Z"/></g>
<g><path style="opacity:1" fill="#246683" d="M 5.5,109.5 C 7.46455,109.948 7.79789,110.948 6.5,112.5C 5.61432,111.675 5.28099,110.675 5.5,109.5 Z"/></g>
<g><path style="opacity:1" fill="#e3ebef" d="M 184.5,108.5 C 185.5,108.5 186.5,108.5 187.5,108.5C 187.334,114.509 187.501,120.509 188,126.5C 190.952,124.807 191.118,122.974 188.5,121C 191.167,119.667 191.167,118.333 188.5,117C 191.167,115.667 191.167,114.333 188.5,113C 190.982,111.539 190.982,110.039 188.5,108.5C 190.5,108.5 192.5,108.5 194.5,108.5C 194.334,114.509 194.501,120.509 195,126.5C 198.052,123.469 198.218,120.302 195.5,117C 197.982,115.539 197.982,114.039 195.5,112.5C 198.167,111.5 198.167,110.5 195.5,109.5C 195.5,109.167 195.5,108.833 195.5,108.5C 196.791,108.263 197.791,108.596 198.5,109.5C 198.5,115.167 198.5,120.833 198.5,126.5C 204.5,126.5 210.5,126.5 216.5,126.5C 216.833,126.5 217.167,126.5 217.5,126.5C 200.005,127.662 182.338,127.829 164.5,127C 165.167,126.667 165.833,126.333 166.5,126C 164.655,124.872 162.655,124.372 160.5,124.5C 160.5,119.5 160.5,114.5 160.5,109.5C 162.833,109.5 165.167,109.5 167.5,109.5C 167.178,115.358 167.511,121.025 168.5,126.5C 173.5,126.5 178.5,126.5 183.5,126.5C 186.799,125.099 187.132,123.265 184.5,121C 187.167,119.667 187.167,118.333 184.5,117C 187.167,115.667 187.167,114.333 184.5,113C 186.982,111.539 186.982,110.039 184.5,108.5 Z"/></g>
<g><path style="opacity:1" fill="#a5becb" d="M 176.5,117.5 C 177.167,117.5 177.833,117.5 178.5,117.5C 176.871,119.196 177.204,120.196 179.5,120.5C 179.34,122.199 179.506,123.866 180,125.5C 180.92,115.157 182.087,115.157 183.5,125.5C 183.5,125.833 183.5,126.167 183.5,126.5C 178.5,126.5 173.5,126.5 168.5,126.5C 169.678,125.001 171.345,124.001 173.5,123.5C 171.833,122.833 170.167,122.167 168.5,121.5C 171.086,120.52 173.753,120.187 176.5,120.5C 176.5,119.5 176.5,118.5 176.5,117.5 Z"/></g>
<g><path style="opacity:1" fill="#6c94a9" d="M 191.5,117.5 C 192.725,118.152 193.392,119.319 193.5,121C 193.167,122.167 192.833,123.333 192.5,124.5C 191.526,122.257 191.192,119.924 191.5,117.5 Z"/></g>
<g><path style="opacity:1" fill="#356d8a" d="M 178.5,117.5 C 179.404,118.209 179.737,119.209 179.5,120.5C 177.204,120.196 176.871,119.196 178.5,117.5 Z"/></g>
<g><path style="opacity:1" fill="#3a748e" d="M 191.5,113.5 C 193.465,113.948 193.798,114.948 192.5,116.5C 191.614,115.675 191.281,114.675 191.5,113.5 Z"/></g>
<g><path style="opacity:1" fill="#3a748e" d="M 180.5,113.5 C 182.465,113.948 182.798,114.948 181.5,116.5C 180.614,115.675 180.281,114.675 180.5,113.5 Z"/></g>
<g><path style="opacity:1" fill="#497e97" d="M 177.5,113.5 C 179.465,113.948 179.798,114.948 178.5,116.5C 177.614,115.675 177.281,114.675 177.5,113.5 Z"/></g>
<g><path style="opacity:1" fill="#6a94a9" d="M 161.5,110.5 C 162.794,112.048 163.461,114.048 163.5,116.5C 163.167,118.5 162.833,120.5 162.5,122.5C 161.509,118.555 161.176,114.555 161.5,110.5 Z"/></g>
<g><path style="opacity:1" fill="#276583" d="M 195.5,109.5 C 198.167,110.5 198.167,111.5 195.5,112.5C 195.5,111.5 195.5,110.5 195.5,109.5 Z"/></g>
<g><path style="opacity:1" fill="#236381" d="M 191.5,109.5 C 193.465,109.948 193.798,110.948 192.5,112.5C 191.614,111.675 191.281,110.675 191.5,109.5 Z"/></g>
<g><path style="opacity:1" fill="#226280" d="M 180.5,109.5 C 182.465,109.948 182.798,110.948 181.5,112.5C 180.614,111.675 180.281,110.675 180.5,109.5 Z"/></g>
<g><path style="opacity:1" fill="#2f6986" d="M 177.5,109.5 C 179.465,109.948 179.798,110.948 178.5,112.5C 177.614,111.675 177.281,110.675 177.5,109.5 Z"/></g>
<g><path style="opacity:1" fill="#356c89" d="M 174.5,109.5 C 176.465,109.948 176.798,110.948 175.5,112.5C 174.614,111.675 174.281,110.675 174.5,109.5 Z"/></g>
<g><path style="opacity:1" fill="#85a8b8" d="M 194.5,108.5 C 194.833,108.5 195.167,108.5 195.5,108.5C 195.5,108.833 195.5,109.167 195.5,109.5C 195.5,110.5 195.5,111.5 195.5,112.5C 197.982,114.039 197.982,115.539 195.5,117C 198.218,120.302 198.052,123.469 195,126.5C 194.501,120.509 194.334,114.509 194.5,108.5 Z"/></g>
<g><path style="opacity:1" fill="#7ca0b2" d="M 187.5,108.5 C 187.833,108.5 188.167,108.5 188.5,108.5C 190.982,110.039 190.982,111.539 188.5,113C 191.167,114.333 191.167,115.667 188.5,117C 191.167,118.333 191.167,119.667 188.5,121C 191.118,122.974 190.952,124.807 188,126.5C 187.501,120.509 187.334,114.509 187.5,108.5 Z"/></g>
<g><path style="opacity:1" fill="#bdd1da" d="M 53.5,109.5 C 53.8333,109.5 54.1667,109.5 54.5,109.5C 54.3341,114.511 54.5007,119.511 55,124.5C 56,123.167 57,123.167 58,124.5C 58.4993,119.511 58.6659,114.511 58.5,109.5C 58.8333,109.5 59.1667,109.5 59.5,109.5C 59.8082,115.425 59.4749,121.259 58.5,127C 66.1594,127.5 73.8261,127.666 81.5,127.5C 79.7857,128.738 77.7857,129.405 75.5,129.5C 69.5,129.5 63.5,129.5 57.5,129.5C 57.2175,124.421 56.2175,124.254 54.5,129C 36.5031,129.5 18.5031,129.667 0.5,129.5C 0.262695,128.209 0.596028,127.209 1.5,126.5C 18.9952,127.662 36.6619,127.829 54.5,127C 53.8333,126.667 53.1667,126.333 52.5,126C 53.4732,120.593 53.8066,115.093 53.5,109.5 Z"/></g>
<g><path style="opacity:1" fill="#fdfdfe" d="M 54.5,109.5 C 55.8333,109.5 57.1667,109.5 58.5,109.5C 58.6659,114.511 58.4993,119.511 58,124.5C 57,123.167 56,123.167 55,124.5C 54.5007,119.511 54.3341,114.511 54.5,109.5 Z"/></g>
<g><path style="opacity:1" fill="#6e96ab" d="M 55.5,110.5 C 56.7943,112.048 57.4609,114.048 57.5,116.5C 57.1667,118.5 56.8333,120.5 56.5,122.5C 55.5091,118.555 55.1758,114.555 55.5,110.5 Z"/></g>
<g><path style="opacity:1" fill="#4e8099" d="M 81.5,127.5 C 84.5,127.5 87.5,127.5 90.5,127.5C 91.1667,127.5 91.5,127.833 91.5,128.5C 88.8517,128.738 87.0183,130.072 86,132.5C 85.2303,131.402 84.397,131.402 83.5,132.5C 83.4142,131.504 83.7476,130.671 84.5,130C 82.0797,129.313 79.913,129.813 78,131.5C 77.0053,130.934 76.172,130.267 75.5,129.5C 77.7857,129.405 79.7857,128.738 81.5,127.5 Z"/></g>
<g><path style="opacity:1" fill="#b9ced7" d="M 159.5,109.5 C 159.833,109.5 160.167,109.5 160.5,109.5C 160.5,114.5 160.5,119.5 160.5,124.5C 162.655,124.372 164.655,124.872 166.5,126C 165.833,126.333 165.167,126.667 164.5,127C 182.338,127.829 200.005,127.662 217.5,126.5C 218.404,127.209 218.737,128.209 218.5,129.5C 200.497,129.667 182.497,129.5 164.5,129C 162.782,124.254 161.782,124.421 161.5,129.5C 155.5,129.5 149.5,129.5 143.5,129.5C 140.959,128.897 138.626,128.897 136.5,129.5C 135.833,129.5 135.167,129.5 134.5,129.5C 133.761,129.631 133.094,129.464 132.5,129C 133.416,128.722 134.082,128.222 134.5,127.5C 143.173,127.666 151.84,127.5 160.5,127C 159.525,121.259 159.192,115.425 159.5,109.5 Z"/></g>
<g><path style="opacity:1" fill="#36718c" d="M 127.5,128.5 C 127.5,127.833 127.833,127.5 128.5,127.5C 130.5,127.5 132.5,127.5 134.5,127.5C 134.082,128.222 133.416,128.722 132.5,129C 133.094,129.464 133.761,129.631 134.5,129.5C 135.11,130.391 135.443,131.391 135.5,132.5C 134.603,131.402 133.77,131.402 133,132.5C 131.982,130.072 130.148,128.738 127.5,128.5 Z"/></g>
<g><path style="opacity:1" fill="#246381" d="M 136.5,129.5 C 138.626,128.897 140.959,128.897 143.5,129.5C 142.828,130.267 141.995,130.934 141,131.5C 139.67,130.418 138.17,129.751 136.5,129.5 Z"/></g>
<g><path style="opacity:1" fill="#c4d6de" d="M 93.5,119.5 C 93.5,122.167 93.5,124.833 93.5,127.5C 94.1667,128.167 94.8333,128.833 95.5,129.5C 104.833,130.833 114.167,130.833 123.5,129.5C 123.5,128.833 123.5,128.167 123.5,127.5C 125.369,125.365 126.036,122.698 125.5,119.5C 126.167,122.5 126.833,125.5 127.5,128.5C 130.148,128.738 131.982,130.072 133,132.5C 133.77,131.402 134.603,131.402 135.5,132.5C 118.167,133.833 100.833,133.833 83.5,132.5C 84.397,131.402 85.2303,131.402 86,132.5C 87.0183,130.072 88.8517,128.738 91.5,128.5C 92.1667,125.5 92.8333,122.5 93.5,119.5 Z"/></g>
<g><path style="opacity:1" fill="#e0e9ed" d="M 105.5,119.5 C 106.167,122.167 106.833,124.833 107.5,127.5C 108.833,127.5 110.167,127.5 111.5,127.5C 112.167,124.833 112.833,122.167 113.5,119.5C 113.5,122.167 113.5,124.833 113.5,127.5C 116.725,128.237 120.059,128.903 123.5,129.5C 114.167,130.833 104.833,130.833 95.5,129.5C 98.9412,128.903 102.275,128.237 105.5,127.5C 105.5,124.833 105.5,122.167 105.5,119.5 Z"/></g>
<g><path style="opacity:1" fill="#1d5e7d" d="M 108.5,154.5 C 107.244,154.539 106.244,154.039 105.5,153C 88.8333,152.333 72.1667,152.333 55.5,153C 54.9341,153.995 54.2674,154.828 53.5,155.5C 53.719,154.325 53.3857,153.325 52.5,152.5C 50.9246,153.456 49.258,154.123 47.5,154.5C 47.5824,152.748 46.7491,151.748 45,151.5C 42.6773,153.152 40.344,154.819 38,156.5C 31.648,149.135 26.4814,140.968 22.5,132C 24.5787,131.192 26.5787,131.359 28.5,132.5C 31.0093,138.829 34.5093,144.496 39,149.5C 41.3333,147.5 43.6667,145.5 46,143.5C 47.8123,146.28 49.979,148.78 52.5,151C 57.1667,151.667 61.8333,151.667 66.5,151C 59.4457,145.879 53.7791,139.546 49.5,132C 51.5,131.333 53.5,131.333 55.5,132C 60.5484,140.049 67.215,146.382 75.5,151C 85.8333,151.333 96.1667,151.667 106.5,152C 107.381,152.708 108.047,153.542 108.5,154.5 Z"/></g>
<g><path style="opacity:1" fill="#1e5e7d" d="M 171.5,154.5 C 169.742,154.123 168.075,153.456 166.5,152.5C 165.614,153.325 165.281,154.325 165.5,155.5C 164.733,154.828 164.066,153.995 163.5,153C 146.833,152.333 130.167,152.333 113.5,153C 112.756,154.039 111.756,154.539 110.5,154.5C 110.953,153.542 111.619,152.708 112.5,152C 122.833,151.667 133.167,151.333 143.5,151C 151.785,146.382 158.452,140.049 163.5,132C 165.5,131.333 167.5,131.333 169.5,132C 165.221,139.546 159.554,145.879 152.5,151C 157.167,151.667 161.833,151.667 166.5,151C 169.021,148.78 171.188,146.28 173,143.5C 175.628,145.126 177.961,147.126 180,149.5C 184.001,144.168 187.501,138.502 190.5,132.5C 192.421,131.359 194.421,131.192 196.5,132C 192.519,140.968 187.352,149.135 181,156.5C 178.656,154.819 176.323,153.152 174,151.5C 172.251,151.748 171.418,152.748 171.5,154.5 Z"/></g>
<g><path style="opacity:1" fill="#417792" d="M 88.5,137.5 C 89.7647,138.514 90.4313,140.014 90.5,142C 90.1667,143.5 89.8333,145 89.5,146.5C 88.8811,143.968 87.8811,141.635 86.5,139.5C 87.2427,138.818 87.9094,138.151 88.5,137.5 Z"/></g>
<g><path style="opacity:1" fill="#2f6c88" d="M 116.5,142.5 C 117.234,141.292 117.567,139.959 117.5,138.5C 115.61,138.297 114.11,138.963 113,140.5C 112.383,139.551 112.549,138.718 113.5,138C 115.167,137.333 116.833,137.333 118.5,138C 120.056,140.501 119.389,142.001 116.5,142.5 Z"/></g>
<g><path style="opacity:1" fill="#376f8b" d="M 103.5,142.5 C 99.5062,144.349 98.0062,143.015 99,138.5C 101,137.167 103,137.167 105,138.5C 105.667,140.833 105.667,143.167 105,145.5C 102.28,148.359 100.614,148.026 100,144.5C 101.049,145.517 102.216,145.684 103.5,145C 104.774,144.023 104.774,143.189 103.5,142.5 Z"/></g>
<g><path style="opacity:1" fill="#ebf1f4" d="M 103.5,142.5 C 101.088,142.306 100.088,140.973 100.5,138.5C 103.954,138.267 104.954,139.6 103.5,142.5 Z"/></g>
<g><path style="opacity:1" fill="#306c88" d="M 116.5,142.5 C 115.942,143.79 114.942,144.623 113.5,145C 115.5,145.333 117.5,145.667 119.5,146C 117.19,146.497 114.857,146.663 112.5,146.5C 112.488,143.858 113.821,142.525 116.5,142.5 Z"/></g>
<g><path style="opacity:1" fill="#487c95" d="M 126.5,137.5 C 132.204,137.146 134.037,139.813 132,145.5C 130,148.167 128,148.167 126,145.5C 125.278,142.739 125.445,140.073 126.5,137.5 Z"/></g>
<g><path style="opacity:1" fill="#edf2f5" d="M 127.5,138.5 C 128.5,138.5 129.5,138.5 130.5,138.5C 130.5,140.833 130.5,143.167 130.5,145.5C 126.452,144.738 125.452,142.404 127.5,138.5 Z"/></g>
<g><path style="opacity:1" fill="#f8fafb" d="M 53.5,155.5 C 51.3987,158.797 50.0653,162.463 49.5,166.5C 47.7329,168.792 46.7329,171.458 46.5,174.5C 45.6618,174.842 45.3284,175.508 45.5,176.5C 44.9569,176.56 44.6236,176.893 44.5,177.5C 63.8218,178.5 83.1552,178.833 102.5,178.5C 101.559,180.05 100.893,181.716 100.5,183.5C 99.9569,183.56 99.6236,183.893 99.5,184.5C 106.167,185.833 112.833,185.833 119.5,184.5C 119.376,183.893 119.043,183.56 118.5,183.5C 118.107,181.716 117.441,180.05 116.5,178.5C 135.845,178.833 155.178,178.5 174.5,177.5C 174.376,176.893 174.043,176.56 173.5,176.5C 173.672,175.508 173.338,174.842 172.5,174.5C 172.267,171.458 171.267,168.792 169.5,166.5C 168.935,162.463 167.601,158.797 165.5,155.5C 165.281,154.325 165.614,153.325 166.5,152.5C 168.075,153.456 169.742,154.123 171.5,154.5C 171.733,157.542 172.733,160.208 174.5,162.5C 173.769,160.401 173.769,158.401 174.5,156.5C 175.518,157.193 176.518,157.859 177.5,158.5C 181.034,167.769 184.367,177.102 187.5,186.5C 168.488,186.167 149.488,186.5 130.5,187.5C 131.5,189.5 132.5,191.5 133.5,193.5C 117.5,194.833 101.5,194.833 85.5,193.5C 86.5,191.5 87.5,189.5 88.5,187.5C 69.5117,186.5 50.5117,186.167 31.5,186.5C 34.5755,176.607 38.2422,166.94 42.5,157.5C 44.5983,156.086 45.5983,156.752 45.5,159.5C 46.9313,158.22 47.5979,156.553 47.5,154.5C 49.258,154.123 50.9246,153.456 52.5,152.5C 53.3857,153.325 53.719,154.325 53.5,155.5 Z"/></g>
<g><path style="opacity:1" fill="#fcfdfd" d="M 108.5,154.5 C 109.167,154.5 109.833,154.5 110.5,154.5C 111.756,154.539 112.756,154.039 113.5,153C 130.167,152.333 146.833,152.333 163.5,153C 164.066,153.995 164.733,154.828 165.5,155.5C 166.065,159.537 167.399,163.203 169.5,166.5C 169.733,169.542 170.733,172.208 172.5,174.5C 153.517,176.16 134.184,177.16 114.5,177.5C 115.373,179.413 116.373,181.247 117.5,183C 112.167,183.667 106.833,183.667 101.5,183C 102.627,181.247 103.627,179.413 104.5,177.5C 84.8159,177.16 65.4826,176.16 46.5,174.5C 48.2671,172.208 49.2671,169.542 49.5,166.5C 51.6013,163.203 52.9347,159.537 53.5,155.5C 54.2674,154.828 54.9341,153.995 55.5,153C 72.1667,152.333 88.8333,152.333 105.5,153C 106.244,154.039 107.244,154.539 108.5,154.5 Z"/></g>
<g><path style="opacity:1" fill="#6591a6" d="M 47.5,154.5 C 47.5979,156.553 46.9313,158.22 45.5,159.5C 45.5983,156.752 44.5983,156.086 42.5,157.5C 42.5,157.167 42.5,156.833 42.5,156.5C 43.7804,155.069 45.4471,154.402 47.5,154.5 Z"/></g>
<g><path style="opacity:1" fill="#6693a8" d="M 171.5,154.5 C 174.241,154.707 176.574,155.707 178.5,157.5C 177.833,157.5 177.5,157.833 177.5,158.5C 176.518,157.859 175.518,157.193 174.5,156.5C 173.769,158.401 173.769,160.401 174.5,162.5C 172.733,160.208 171.733,157.542 171.5,154.5 Z"/></g>
<g><path style="opacity:1" fill="#1a5c7b" d="M 42.5,156.5 C 42.5,156.833 42.5,157.167 42.5,157.5C 38.2422,166.94 34.5755,176.607 31.5,186.5C 50.5117,186.167 69.5117,186.5 88.5,187.5C 87.5,189.5 86.5,191.5 85.5,193.5C 101.5,194.833 117.5,194.833 133.5,193.5C 132.5,191.5 131.5,189.5 130.5,187.5C 149.488,186.5 168.488,186.167 187.5,186.5C 184.367,177.102 181.034,167.769 177.5,158.5C 177.5,157.833 177.833,157.5 178.5,157.5C 180.888,158.219 182.388,159.885 183,162.5C 186.664,170.662 189.831,178.995 192.5,187.5C 174.022,189.163 155.356,190.163 136.5,190.5C 137.172,193.342 138.506,195.842 140.5,198C 119.833,198.667 99.1667,198.667 78.5,198C 79.719,195.722 81.0523,193.555 82.5,191.5C 83.0431,191.44 83.3764,191.107 83.5,190.5C 64.149,190.16 45.149,189.16 26.5,187.5C 29.7087,178.078 33.2087,168.745 37,159.5C 38.4877,157.84 40.321,156.84 42.5,156.5 Z"/></g>
<g><path style="opacity:1" fill="#749db0" d="M 53.5,155.5 C 52.9347,159.537 51.6013,163.203 49.5,166.5C 50.0653,162.463 51.3987,158.797 53.5,155.5 Z"/></g>
<g><path style="opacity:1" fill="#749db0" d="M 165.5,155.5 C 167.601,158.797 168.935,162.463 169.5,166.5C 167.399,163.203 166.065,159.537 165.5,155.5 Z"/></g>
<g><path style="opacity:1" fill="#87acbb" d="M 116.5,160.5 C 111.968,160.182 107.634,160.515 103.5,161.5C 102.957,161.44 102.624,161.107 102.5,160.5C 107.318,159.188 111.985,159.188 116.5,160.5 Z"/></g>
<g><path style="opacity:1" fill="#21607f" d="M 138.5,158.5 C 140.176,159.183 140.843,160.517 140.5,162.5C 142.857,162.337 145.19,162.503 147.5,163C 145.423,163.192 143.423,163.692 141.5,164.5C 143.024,166.858 145.024,168.691 147.5,170C 143.909,170.45 141.409,168.95 140,165.5C 138.68,169.182 136.18,170.682 132.5,170C 134.976,168.691 136.976,166.858 138.5,164.5C 130.606,163.193 130.606,162.527 138.5,162.5C 138.5,161.167 138.5,159.833 138.5,158.5 Z"/></g>
<g><path style="opacity:1" fill="#135a79" d="M 103.5,161.5 C 107.634,160.515 111.968,160.182 116.5,160.5C 114.735,161.461 112.735,161.795 110.5,161.5C 110.5,163.833 110.5,166.167 110.5,168.5C 112.5,168.5 114.5,168.5 116.5,168.5C 111.833,169.833 107.167,169.833 102.5,168.5C 104.5,168.5 106.5,168.5 108.5,168.5C 108.5,166.167 108.5,163.833 108.5,161.5C 106.833,161.5 105.167,161.5 103.5,161.5 Z"/></g>
<g><path style="opacity:1" fill="#6995aa" d="M 45.5,159.5 C 44.6018,164.534 42.9351,169.201 40.5,173.5C 41.3982,168.466 43.0649,163.799 45.5,159.5 Z"/></g>
<g><path style="opacity:1" fill="#437691" d="M 80.5,158.5 C 82.4366,160.091 84.4366,161.758 86.5,163.5C 83.2317,164.487 79.8984,164.82 76.5,164.5C 76.5,165.5 76.5,166.5 76.5,167.5C 75.0695,167.421 73.7362,167.754 72.5,168.5C 71.5159,165.572 71.1826,162.572 71.5,159.5C 73.1667,159.5 74.8333,159.5 76.5,159.5C 77.8949,163.195 79.2282,162.861 80.5,158.5 Z"/></g>
<g><path style="opacity:1" fill="#6794a8" d="M 174.5,162.5 C 176.601,165.797 177.935,169.463 178.5,173.5C 176.399,170.203 175.065,166.537 174.5,162.5 Z"/></g>
<g><path style="opacity:1" fill="#336a87" d="M 77.5,165.5 C 80.1667,165.5 82.8333,165.5 85.5,165.5C 85.7989,167.604 85.4656,169.604 84.5,171.5C 82.5,170.167 80.5,170.167 78.5,171.5C 77.5344,169.604 77.2011,167.604 77.5,165.5 Z"/></g>
<g><path style="opacity:1" fill="#95b5c3" d="M 79.5,166.5 C 80.8333,166.5 82.1667,166.5 83.5,166.5C 83.5,167.5 83.5,168.5 83.5,169.5C 82.1667,169.5 80.8333,169.5 79.5,169.5C 79.5,168.5 79.5,167.5 79.5,166.5 Z"/></g>
<g><path style="opacity:1" fill="#6f9aae" d="M 49.5,166.5 C 49.2671,169.542 48.2671,172.208 46.5,174.5C 46.7329,171.458 47.7329,168.792 49.5,166.5 Z"/></g>
<g><path style="opacity:1" fill="#719caf" d="M 169.5,166.5 C 171.267,168.792 172.267,171.458 172.5,174.5C 170.733,172.208 169.733,169.542 169.5,166.5 Z"/></g>
<g><path style="opacity:1" fill="#5589a0" d="M 102.5,168.5 C 107.167,169.833 111.833,169.833 116.5,168.5C 117.043,168.56 117.376,168.893 117.5,169.5C 112.167,170.833 106.833,170.833 101.5,169.5C 101.624,168.893 101.957,168.56 102.5,168.5 Z"/></g>
<g><path style="opacity:1" fill="#5a8ca2" d="M 46.5,174.5 C 65.4826,176.16 84.8159,177.16 104.5,177.5C 103.627,179.413 102.627,181.247 101.5,183C 106.833,183.667 112.167,183.667 117.5,183C 116.373,181.247 115.373,179.413 114.5,177.5C 134.184,177.16 153.517,176.16 172.5,174.5C 173.338,174.842 173.672,175.508 173.5,176.5C 154.5,177.167 135.5,177.833 116.5,178.5C 117.441,180.05 118.107,181.716 118.5,183.5C 112.5,184.833 106.5,184.833 100.5,183.5C 100.893,181.716 101.559,180.05 102.5,178.5C 83.5,177.833 64.5,177.167 45.5,176.5C 45.3284,175.508 45.6618,174.842 46.5,174.5 Z"/></g>
<g><path style="opacity:1" fill="#dde7ec" d="M 45.5,176.5 C 64.5,177.167 83.5,177.833 102.5,178.5C 83.1552,178.833 63.8218,178.5 44.5,177.5C 44.6236,176.893 44.9569,176.56 45.5,176.5 Z"/></g>
<g><path style="opacity:1" fill="#dde7ec" d="M 173.5,176.5 C 174.043,176.56 174.376,176.893 174.5,177.5C 155.178,178.5 135.845,178.833 116.5,178.5C 135.5,177.833 154.5,177.167 173.5,176.5 Z"/></g>
<g><path style="opacity:1" fill="#6997ab" d="M 40.5,173.5 C 39.8333,176.5 39.1667,179.5 38.5,182.5C 57.8362,182.333 77.1695,182.5 96.5,183C 95.8742,183.75 95.3742,184.584 95,185.5C 75.7228,183.849 56.2228,182.849 36.5,182.5C 37.4685,179.231 38.8019,176.231 40.5,173.5 Z"/></g>
<g><path style="opacity:1" fill="#6a97ab" d="M 178.5,173.5 C 180.198,176.231 181.531,179.231 182.5,182.5C 162.777,182.849 143.277,183.849 124,185.5C 123.626,184.584 123.126,183.75 122.5,183C 141.83,182.5 161.164,182.333 180.5,182.5C 179.833,179.5 179.167,176.5 178.5,173.5 Z"/></g>
<g><path style="opacity:1" fill="#bed1da" d="M 100.5,183.5 C 106.5,184.833 112.5,184.833 118.5,183.5C 119.043,183.56 119.376,183.893 119.5,184.5C 112.833,185.833 106.167,185.833 99.5,184.5C 99.6236,183.893 99.9569,183.56 100.5,183.5 Z"/></g>
<g><path style="opacity:1" fill="#387590" d="M 26.5,187.5 C 45.149,189.16 64.149,190.16 83.5,190.5C 83.3764,191.107 83.0431,191.44 82.5,191.5C 63.674,190.503 44.674,190.17 25.5,190.5C 25.2627,189.209 25.596,188.209 26.5,187.5 Z"/></g>
<g><path style="opacity:1" fill="#306f8a" d="M 92.5,187.5 C 97.9236,188.786 103.59,189.452 109.5,189.5C 115.246,189.474 120.746,188.807 126,187.5C 126.374,188.416 126.874,189.25 127.5,190C 115.5,190.667 103.5,190.667 91.5,190C 92.2524,189.329 92.5858,188.496 92.5,187.5 Z"/></g>
<g><path style="opacity:1" fill="#397590" d="M 192.5,187.5 C 193.404,188.209 193.737,189.209 193.5,190.5C 174.5,190.5 155.5,190.5 136.5,190.5C 155.356,190.163 174.022,189.163 192.5,187.5 Z"/></g>
</svg>
