<?xml version="1.0" encoding="UTF-8"?>
<!DOCTYPE svg PUBLIC "-//W3C//DTD SVG 1.1//EN" "http://www.w3.org/Graphics/SVG/1.1/DTD/svg11.dtd">
<svg xmlns="http://www.w3.org/2000/svg" version="1.1" width="512px" height="512px" style="shape-rendering:geometricPrecision; text-rendering:geometricPrecision; image-rendering:optimizeQuality; fill-rule:evenodd; clip-rule:evenodd" xmlns:xlink="http://www.w3.org/1999/xlink">
<g><path style="opacity:1" fill="#fefefe" d="M -0.5,-0.5 C 170.167,-0.5 340.833,-0.5 511.5,-0.5C 511.5,170.167 511.5,340.833 511.5,511.5C 340.833,511.5 170.167,511.5 -0.5,511.5C -0.5,340.833 -0.5,170.167 -0.5,-0.5 Z"/></g>
<g><path style="opacity:1" fill="#221e1f" d="M 140.5,117.5 C 150.3,122.567 159.967,127.901 169.5,133.5C 165.619,135.357 161.786,137.357 158,139.5C 157.5,145.825 157.334,152.158 157.5,158.5C 169.167,158.5 180.833,158.5 192.5,158.5C 192.5,160.5 192.5,162.5 192.5,164.5C 181.167,164.5 169.833,164.5 158.5,164.5C 157.508,172.316 157.174,180.316 157.5,188.5C 176.008,188.83 194.341,188.497 212.5,187.5C 213.232,181.237 214.899,175.237 217.5,169.5C 223.323,175.491 228.989,181.657 234.5,188C 225.333,196.5 216.167,205 207,213.5C 207.579,207.102 208.746,200.769 210.5,194.5C 193.008,193.503 175.341,193.17 157.5,193.5C 157.173,203.681 157.506,213.681 158.5,223.5C 169.833,223.5 181.167,223.5 192.5,223.5C 192.5,225.5 192.5,227.5 192.5,229.5C 180.833,229.5 169.167,229.5 157.5,229.5C 157.334,235.842 157.5,242.175 158,248.5C 158.465,249.931 159.299,251.097 160.5,252C 175.833,252.667 191.167,252.667 206.5,252C 209.744,248.345 212.078,244.178 213.5,239.5C 214.167,242.5 214.833,245.5 215.5,248.5C 217.971,254.63 217.804,260.63 215,266.5C 213.421,268.041 211.587,269.208 209.5,270C 190.167,270.667 170.833,270.667 151.5,270C 147,268.167 143.833,265 142,260.5C 140.601,250.232 140.101,239.898 140.5,229.5C 132.5,229.5 124.5,229.5 116.5,229.5C 116.5,227.5 116.5,225.5 116.5,223.5C 124.167,223.5 131.833,223.5 139.5,223.5C 140.494,213.681 140.827,203.681 140.5,193.5C 126.5,193.5 112.5,193.5 98.5,193.5C 98.5,228.5 98.5,263.5 98.5,298.5C 98.4185,332.868 87.9185,363.535 67,390.5C 70.5013,377.641 73.8346,364.641 77,351.5C 79.2893,339.607 80.456,327.607 80.5,315.5C 81.1667,266.833 81.8333,218.167 82.5,169.5C 87.8705,173.179 93.2039,176.846 98.5,180.5C 98.5,183.167 98.5,185.833 98.5,188.5C 112.5,188.5 126.5,188.5 140.5,188.5C 140.5,164.833 140.5,141.167 140.5,117.5 Z"/></g>
<g><path style="opacity:1" fill="#ed2524" d="M 373.5,111.5 C 386.253,116.64 398.92,121.973 411.5,127.5C 401.833,137.833 391.833,147.833 381.5,157.5C 380.066,155.78 379.233,153.78 379,151.5C 376.407,138.277 374.574,124.944 373.5,111.5 Z"/></g>
<g><path style="opacity:1" fill="#221e1f" d="M 342.5,153.5 C 347.68,157.171 353.014,160.671 358.5,164C 376.5,164.667 394.5,164.667 412.5,164C 417.691,160.241 423.024,156.741 428.5,153.5C 429.499,196.33 429.832,239.33 429.5,282.5C 423.862,278.677 418.195,274.843 412.5,271C 394.5,270.333 376.5,270.333 358.5,271C 353.014,274.329 347.68,277.829 342.5,281.5C 341.167,238.833 341.167,196.167 342.5,153.5 Z"/></g>
<g><path style="opacity:1" fill="#908e8f" d="M 342.5,153.5 C 341.167,196.167 341.167,238.833 342.5,281.5C 342.44,282.043 342.107,282.376 341.5,282.5C 340.167,239.167 340.167,195.833 341.5,152.5C 342.107,152.624 342.44,152.957 342.5,153.5 Z"/></g>
<g><path style="opacity:1" fill="#d0cecf" d="M 428.5,153.5 C 428.56,152.957 428.893,152.624 429.5,152.5C 430.831,195.998 430.831,239.331 429.5,282.5C 429.832,239.33 429.499,196.33 428.5,153.5 Z"/></g>
<g><path style="opacity:1" fill="#999798" d="M 271.5,159.5 C 270.501,211.997 270.168,264.664 270.5,317.5C 269.169,264.665 269.169,211.665 270.5,158.5C 271.107,158.624 271.44,158.957 271.5,159.5 Z"/></g>
<g><path style="opacity:1" fill="#221e1f" d="M 271.5,159.5 C 276.68,163.171 282.014,166.671 287.5,170C 293.833,170.667 300.167,170.667 306.5,170C 311.022,166.576 315.689,163.409 320.5,160.5C 321.833,184.157 322.5,208.157 322.5,232.5C 322.5,256.669 322.167,280.669 321.5,304.5C 316.528,301.344 311.528,298.177 306.5,295C 305.577,292.959 305.244,290.792 305.5,288.5C 299.5,288.5 293.5,288.5 287.5,288.5C 287.666,294.509 287.499,300.509 287,306.5C 281.729,310.549 276.229,314.216 270.5,317.5C 270.168,264.664 270.501,211.997 271.5,159.5 Z"/></g>
<g><path style="opacity:1" fill="#e8e6e7" d="M 323.5,158.5 C 324.831,207.668 324.831,257.002 323.5,306.5C 322.893,306.376 322.56,306.043 322.5,305.5C 323.499,256.67 323.832,207.67 323.5,158.5 Z"/></g>
<g><path style="opacity:1" fill="#3b3839" d="M 323.5,158.5 C 323.832,207.67 323.499,256.67 322.5,305.5C 321.833,305.5 321.5,305.167 321.5,304.5C 322.167,280.669 322.5,256.669 322.5,232.5C 322.5,208.157 321.833,184.157 320.5,160.5C 321.29,159.599 322.29,158.932 323.5,158.5 Z"/></g>
<g><path style="opacity:1" fill="#fefefe" d="M 359.5,170.5 C 376.833,170.5 394.167,170.5 411.5,170.5C 411.5,178.167 411.5,185.833 411.5,193.5C 394.167,193.5 376.833,193.5 359.5,193.5C 359.5,185.833 359.5,178.167 359.5,170.5 Z"/></g>
<g><path style="opacity:1" fill="#b2aeaf" d="M 82.5,169.5 C 81.8333,218.167 81.1667,266.833 80.5,315.5C 80.1667,266.495 80.5001,217.495 81.5,168.5C 82.1067,168.624 82.44,168.957 82.5,169.5 Z"/></g>
<g><path style="opacity:1" fill="#cecbcc" d="M 288.5,176.5 C 288.5,211.5 288.5,246.5 288.5,281.5C 293.833,281.5 299.167,281.5 304.5,281.5C 304.5,246.5 304.5,211.5 304.5,176.5C 305.498,211.663 305.832,246.996 305.5,282.5C 299.5,282.5 293.5,282.5 287.5,282.5C 287.168,246.996 287.502,211.663 288.5,176.5 Z"/></g>
<g><path style="opacity:1" fill="#fefefe" d="M 288.5,176.5 C 293.833,176.5 299.167,176.5 304.5,176.5C 304.5,211.5 304.5,246.5 304.5,281.5C 299.167,281.5 293.833,281.5 288.5,281.5C 288.5,246.5 288.5,211.5 288.5,176.5 Z"/></g>
<g><path style="opacity:1" fill="#979596" d="M 140.5,117.5 C 140.5,141.167 140.5,164.833 140.5,188.5C 126.5,188.5 112.5,188.5 98.5,188.5C 98.5,185.833 98.5,183.167 98.5,180.5C 99.4682,182.607 99.8016,184.941 99.5,187.5C 112.833,187.5 126.167,187.5 139.5,187.5C 139.169,163.994 139.502,140.661 140.5,117.5 Z"/></g>
<g><path style="opacity:1" fill="#888586" d="M 158.5,164.5 C 158.5,172.167 158.5,179.833 158.5,187.5C 176.5,187.5 194.5,187.5 212.5,187.5C 194.341,188.497 176.008,188.83 157.5,188.5C 157.174,180.316 157.508,172.316 158.5,164.5 Z"/></g>
<g><path style="opacity:1" fill="#908d8e" d="M 210.5,194.5 C 193.167,194.5 175.833,194.5 158.5,194.5C 158.5,204.167 158.5,213.833 158.5,223.5C 157.506,213.681 157.173,203.681 157.5,193.5C 175.341,193.17 193.008,193.503 210.5,194.5 Z"/></g>
<g><path style="opacity:1" fill="#7f7d7e" d="M 359.5,170.5 C 359.5,178.167 359.5,185.833 359.5,193.5C 376.833,193.5 394.167,193.5 411.5,193.5C 394.008,194.497 376.341,194.83 358.5,194.5C 358.174,186.316 358.508,178.316 359.5,170.5 Z"/></g>
<g><path style="opacity:1" fill="#959293" d="M 139.5,223.5 C 139.5,213.833 139.5,204.167 139.5,194.5C 126.167,194.5 112.833,194.5 99.5,194.5C 99.8317,229.337 99.4984,264.004 98.5,298.5C 98.5,263.5 98.5,228.5 98.5,193.5C 112.5,193.5 126.5,193.5 140.5,193.5C 140.827,203.681 140.494,213.681 139.5,223.5 Z"/></g>
<g><path style="opacity:1" fill="#a19e9f" d="M 358.5,199.5 C 376.5,199.5 394.5,199.5 412.5,199.5C 412.5,211.5 412.5,223.5 412.5,235.5C 394.5,235.5 376.5,235.5 358.5,235.5C 358.5,223.5 358.5,211.5 358.5,199.5 Z"/></g>
<g><path style="opacity:1" fill="#fefefe" d="M 359.5,200.5 C 376.833,200.5 394.167,200.5 411.5,200.5C 411.5,211.833 411.5,223.167 411.5,234.5C 394.167,234.5 376.833,234.5 359.5,234.5C 359.5,223.167 359.5,211.833 359.5,200.5 Z"/></g>
<g><path style="opacity:1" fill="#fefefe" d="M 411.5,241.5 C 411.5,249.167 411.5,256.833 411.5,264.5C 394.167,264.5 376.833,264.5 359.5,264.5C 359.5,256.833 359.5,249.167 359.5,241.5C 376.833,241.5 394.167,241.5 411.5,241.5 Z"/></g>
<g><path style="opacity:1" fill="#908e8f" d="M 213.5,239.5 C 213.56,238.957 213.893,238.624 214.5,238.5C 215.487,241.768 215.82,245.102 215.5,248.5C 214.833,245.5 214.167,242.5 213.5,239.5 Z"/></g>
<g><path style="opacity:1" fill="#868384" d="M 411.5,241.5 C 394.167,241.5 376.833,241.5 359.5,241.5C 359.5,249.167 359.5,256.833 359.5,264.5C 376.833,264.5 394.167,264.5 411.5,264.5C 394.008,265.497 376.341,265.83 358.5,265.5C 358.5,257.167 358.5,248.833 358.5,240.5C 376.341,240.17 394.008,240.503 411.5,241.5 Z"/></g>
<g><path style="opacity:1" fill="#242021" d="M 391.5,304.5 C 390.957,304.56 390.624,304.893 390.5,305.5C 403.483,306.499 416.483,306.832 429.5,306.5C 429.5,308.5 429.5,310.5 429.5,312.5C 415.833,312.5 402.167,312.5 388.5,312.5C 380.039,347.295 358.372,368.628 323.5,376.5C 322.833,376.167 322.167,375.833 321.5,375.5C 345.557,361.082 360.557,340.082 366.5,312.5C 358.35,311.507 350.017,311.174 341.5,311.5C 341.5,309.833 341.5,308.167 341.5,306.5C 350.5,306.5 359.5,306.5 368.5,306.5C 368.5,305.5 368.5,304.5 368.5,303.5C 369.033,296.436 370.033,289.436 371.5,282.5C 378.629,285.116 385.962,286.782 393.5,287.5C 393.316,293.231 392.65,298.898 391.5,304.5 Z"/></g>
<g><path style="opacity:1" fill="#232021" d="M 408.5,304.5 C 407.5,305.833 406.5,305.833 405.5,304.5C 404.251,295.927 402.584,287.427 400.5,279C 400.833,278.5 401.167,278 401.5,277.5C 408.692,283.192 416.025,288.692 423.5,294C 418.62,297.72 413.62,301.22 408.5,304.5 Z"/></g>
<g><path style="opacity:1" fill="#232021" d="M 192.5,282.5 C 193.019,307.417 193.852,332.417 195,357.5C 195.5,358 196,358.5 196.5,359C 201.333,359.167 206.167,359.333 211,359.5C 216.607,359.62 222.107,359.12 227.5,358C 231.178,353.811 233.678,348.977 235,343.5C 235.905,337.105 237.072,330.771 238.5,324.5C 239.272,336.234 240.605,347.901 242.5,359.5C 242.986,367.036 239.986,372.536 233.5,376C 217.833,376.667 202.167,376.667 186.5,376C 180.384,373.549 176.884,369.049 176,362.5C 175.5,341.836 175.333,321.169 175.5,300.5C 163.833,300.5 152.167,300.5 140.5,300.5C 144.866,338.012 131.199,366.512 99.5,386C 98.5,386.667 97.5,386.667 96.5,386C 112.058,371.721 120.558,353.887 122,332.5C 122.167,316.156 122.667,299.823 123.5,283.5C 129.004,286.751 134.338,290.251 139.5,294C 151.833,294.667 164.167,294.667 176.5,294C 182.077,290.39 187.41,286.557 192.5,282.5 Z"/></g>
<g><path style="opacity:1" fill="#a09e9f" d="M 368.5,303.5 C 368.5,304.5 368.5,305.5 368.5,306.5C 359.5,306.5 350.5,306.5 341.5,306.5C 350.582,306.11 359.582,305.11 368.5,303.5 Z"/></g>
<g><path style="opacity:1" fill="#9c9a9a" d="M 391.5,304.5 C 396.167,305.833 400.833,305.833 405.5,304.5C 406.5,305.833 407.5,305.833 408.5,304.5C 415.5,305.167 422.5,305.833 429.5,306.5C 416.483,306.832 403.483,306.499 390.5,305.5C 390.624,304.893 390.957,304.56 391.5,304.5 Z"/></g>
<g><path style="opacity:1" fill="#797778" d="M 341.5,306.5 C 341.5,308.167 341.5,309.833 341.5,311.5C 350.017,311.174 358.35,311.507 366.5,312.5C 357.833,312.5 349.167,312.5 340.5,312.5C 340.205,310.265 340.539,308.265 341.5,306.5 Z"/></g>
<g><path style="opacity:1" fill="#231f20" d="M 437.5,349.5 C 441.167,350.167 444.833,350.833 448.5,351.5C 444.615,358.602 441.282,365.935 438.5,373.5C 426.604,371.443 416.771,365.776 409,356.5C 401.36,346.892 395.527,336.225 391.5,324.5C 392.002,323.479 392.668,323.312 393.5,324C 404.394,338.949 419.06,347.449 437.5,349.5 Z"/></g>
<g><path style="opacity:1" fill="#7f7e7f" d="M 437.5,349.5 C 441.555,349.176 445.555,349.509 449.5,350.5C 449.376,351.107 449.043,351.44 448.5,351.5C 444.833,350.833 441.167,350.167 437.5,349.5 Z"/></g>
</svg>
