<svg xmlns="http://www.w3.org/2000/svg" xmlns:svg="http://www.w3.org/2000/svg" id="svg79" width="240" height="240" version="1.1" viewBox="0 0 240 240"><metadata id="metadata85"/><radialGradient id="OFeT0s3pfN65mmreJUiYza" cx="31" cy="17" r="7" gradientUnits="userSpaceOnUse"><stop id="stop34" offset=".847"/><stop id="stop36" offset="1" stop-opacity="0"/></radialGradient><radialGradient id="OFeT0s3pfN65mmreJUiYzb" cx="31" cy="31" r="7" gradientUnits="userSpaceOnUse"><stop id="stop41" offset=".847"/><stop id="stop43" offset="1" stop-opacity="0"/></radialGradient><radialGradient id="OFeT0s3pfN65mmreJUiYzc" cx="31" cy="17" r="7.328" gradientUnits="userSpaceOnUse"><stop id="stop48" offset="0" stop-color="#f7f7f7"/><stop id="stop50" offset=".747" stop-color="#f9f9f9"/><stop id="stop52" offset="1" stop-color="#fff"/></radialGradient><radialGradient id="OFeT0s3pfN65mmreJUiYzd" cx="31" cy="31" r="7.328" gradientUnits="userSpaceOnUse"><stop id="stop57" offset="0" stop-color="#f7f7f7"/><stop id="stop59" offset=".747" stop-color="#f9f9f9"/><stop id="stop61" offset="1" stop-color="#fff"/></radialGradient><radialGradient id="OFeT0s3pfN65mmreJUiYze" cx="17.5" cy="24" r="12.191" gradientUnits="userSpaceOnUse"><stop id="stop70" offset="0" stop-color="#f7f7f7"/><stop id="stop72" offset=".747" stop-color="#f9f9f9"/><stop id="stop74" offset="1" stop-color="#fff"/></radialGradient><g id="g933" transform="matrix(5.5555556,0,0,5.5555556,-13.333334,-13.333334)"><path id="path2" fill="#137d25" d="m 42,40 v -7 h -9 v 9 h 7 c 1.105,0 2,-0.895 2,-2 z"/><rect id="rect4" width="9" height="9" x="24" y="33" fill="#1a8c2c"/><rect id="rect6" width="9" height="9" x="15" y="33" fill="#1e9e32"/><rect id="rect8" width="9" height="9" x="24" y="24" fill="#1e9e32"/><path id="path10" fill="#25b03b" d="M 15,42 V 33 H 6 v 7 c 0,1.105 0.895,2 2,2 z"/><rect id="rect12" width="9" height="9" x="15" y="24" fill="#25b03b"/><rect id="rect14" width="9" height="9" x="24" y="15" fill="#25b03b"/><rect id="rect16" width="9" height="9" x="24" y="6" fill="#31c447"/><rect id="rect18" width="9" height="9" x="15" y="6" fill="#3fd155"/><path id="path20" fill="#4ddb63" d="M 15,15 V 6 H 8 C 6.895,6 6,6.895 6,8 v 7 z"/><rect id="rect22" width="9" height="9" x="6" y="15" fill="#3fd155"/><rect id="rect24" width="9" height="9" x="15" y="15" fill="#31c447"/><rect id="rect26" width="9" height="9" x="6" y="24" fill="#31c447"/><rect id="rect28" width="9" height="9" x="33" y="24" fill="#1a8c2c"/><rect id="rect30" width="9" height="9" x="33" y="15" fill="#1e9e32"/><path id="path32" fill="#25b03b" d="m 33,15 h 9 V 8 C 42,6.895 41.105,6 40,6 h -7 z"/><circle style="fill:url(#OFeT0s3pfN65mmreJUiYza)" id="circle39" cx="31" cy="17" r="7" fill="url(#OFeT0s3pfN65mmreJUiYza)" opacity=".15"/><circle style="fill:url(#OFeT0s3pfN65mmreJUiYzb)" id="circle46" cx="31" cy="31" r="7" fill="url(#OFeT0s3pfN65mmreJUiYzb)" opacity=".15"/><circle style="fill:url(#OFeT0s3pfN65mmreJUiYzc)" id="circle55" cx="31" cy="17" r="6" fill="url(#OFeT0s3pfN65mmreJUiYzc)"/><circle style="fill:url(#OFeT0s3pfN65mmreJUiYzd)" id="circle64" cx="31" cy="31" r="6" fill="url(#OFeT0s3pfN65mmreJUiYzd)"/><path id="path66" d="m 22,10 h -9 c -1.105,0 -2,0.895 -2,2 v 24 c 0,1.105 0.895,2 2,2 h 9 c 1.105,0 2,-0.895 2,-2 V 12 c 0,-1.105 -0.895,-2 -2,-2 z" opacity=".05"/><path id="path68" d="m 22,37.5 h -9 c -0.828,0 -1.5,-0.672 -1.5,-1.5 V 12 c 0,-0.828 0.672,-1.5 1.5,-1.5 h 9 c 0.828,0 1.5,0.672 1.5,1.5 v 24 c 0,0.828 -0.672,1.5 -1.5,1.5 z" opacity=".07"/><path style="fill:url(#OFeT0s3pfN65mmreJUiYze)" id="path77" fill="url(#OFeT0s3pfN65mmreJUiYze)" d="m 13,37 h 9 c 0.552,0 1,-0.448 1,-1 V 12 c 0,-0.552 -0.448,-1 -1,-1 h -9 c -0.552,0 -1,0.448 -1,1 v 24 c 0,0.552 0.448,1 1,1 z"/></g></svg>