<?xml version="1.0" encoding="UTF-8"?>
<!DOCTYPE svg PUBLIC "-//W3C//DTD SVG 1.1//EN" "http://www.w3.org/Graphics/SVG/1.1/DTD/svg11.dtd">
<svg xmlns="http://www.w3.org/2000/svg" version="1.1" width="512px" height="512px" style="shape-rendering:geometricPrecision; text-rendering:geometricPrecision; image-rendering:optimizeQuality; fill-rule:evenodd; clip-rule:evenodd" xmlns:xlink="http://www.w3.org/1999/xlink">
<g><path style="opacity:0.994" fill="#bc2524" d="M 107.5,-0.5 C 206.167,-0.5 304.833,-0.5 403.5,-0.5C 452.089,8.41908 485.755,35.7524 504.5,81.5C 410.499,81.6667 316.499,81.5 222.5,81C 221.944,80.6174 221.611,80.1174 221.5,79.5C 230.39,75.5953 239.724,72.7619 249.5,71C 246.183,70.5017 242.85,70.335 239.5,70.5C 234.269,70.4443 229.269,71.111 224.5,72.5C 211.713,74.2075 199.38,77.5409 187.5,82.5C 127.238,81.5041 66.9047,81.1708 6.5,81.5C 25.2448,35.7524 58.9115,8.41908 107.5,-0.5 Z"/></g>
<g><path style="opacity:1" fill="#edbebd" d="M 239.5,70.5 C 234.731,71.889 229.731,72.5557 224.5,72.5C 229.269,71.111 234.269,70.4443 239.5,70.5 Z"/></g>
<g><path style="opacity:1" fill="#fbf9f9" d="M 239.5,70.5 C 242.85,70.335 246.183,70.5017 249.5,71C 239.724,72.7619 230.39,75.5953 221.5,79.5C 176.4,96.7675 146.566,128.434 132,174.5C 130.584,179.412 129.751,184.412 129.5,189.5C 126.446,209.482 127.112,229.482 131.5,249.5C 130.876,249.917 130.543,250.584 130.5,251.5C 131.907,254.721 132.907,258.055 133.5,261.5C 124.494,261.334 115.494,261.5 106.5,262C 107.807,263.943 107.807,265.777 106.5,267.5C 101.163,243.707 100.163,219.707 103.5,195.5C 112.858,143.709 140.858,106.042 187.5,82.5C 199.38,77.5409 211.713,74.2075 224.5,72.5C 229.731,72.5557 234.731,71.889 239.5,70.5 Z"/></g>
<g><path style="opacity:0.999" fill="#b92524" d="M 221.5,79.5 C 221.611,80.1174 221.944,80.6174 222.5,81C 316.499,81.5 410.499,81.6667 504.5,81.5C 507.48,90.0959 509.814,98.7626 511.5,107.5C 511.5,136.167 511.5,164.833 511.5,193.5C 482.426,193.175 453.426,193.509 424.5,194.5C 393.299,141.019 346.966,119.519 285.5,130C 252.687,140.313 230.021,161.48 217.5,193.5C 205.784,194.144 194.451,193.478 183.5,191.5C 199.261,151.239 227.594,124.073 268.5,110C 308.65,99.6966 345.984,106.03 380.5,129C 390.96,136.96 400.96,145.46 410.5,154.5C 390.447,121.95 362.114,100.116 325.5,89C 256.323,75.3518 202.49,97.8518 164,156.5C 156.834,169.171 151.334,182.504 147.5,196.5C 146.596,195.791 146.263,194.791 146.5,193.5C 141.167,193.5 135.833,193.5 130.5,193.5C 130.649,194.552 130.483,195.552 130,196.5C 129.503,194.19 129.337,191.857 129.5,189.5C 129.751,184.412 130.584,179.412 132,174.5C 146.566,128.434 176.4,96.7675 221.5,79.5 Z"/></g>
<g><path style="opacity:0.998" fill="#b92424" d="M 6.5,81.5 C 66.9047,81.1708 127.238,81.5041 187.5,82.5C 140.858,106.042 112.858,143.709 103.5,195.5C 101.108,194.287 98.4411,193.621 95.5,193.5C 92.7125,193.574 90.2125,194.24 88,195.5C 87.5065,193.866 87.3398,192.199 87.5,190.5C 89.2649,179.764 92.0982,169.431 96,159.5C 88.8237,170.852 82.9904,182.852 78.5,195.5C 52.3935,193.523 26.0602,192.856 -0.5,193.5C -0.5,164.833 -0.5,136.167 -0.5,107.5C 1.18619,98.7626 3.51952,90.0959 6.5,81.5 Z"/></g>
<g><path style="opacity:1" fill="#fcfbfb" d="M 410.5,154.5 C 400.96,145.46 390.96,136.96 380.5,129C 345.984,106.03 308.65,99.6966 268.5,110C 227.594,124.073 199.261,151.239 183.5,191.5C 174.842,213.835 173.175,236.835 178.5,260.5C 178.649,261.552 178.483,262.552 178,263.5C 167.423,261.537 156.59,260.87 145.5,261.5C 146.873,268.19 148.04,274.857 149,281.5C 148.722,280.584 148.222,279.918 147.5,279.5C 143.201,262.438 141.535,245.105 142.5,227.5C 143.889,222.731 144.556,217.731 144.5,212.5C 144.988,207.062 145.988,201.729 147.5,196.5C 151.334,182.504 156.834,169.171 164,156.5C 202.49,97.8518 256.323,75.3518 325.5,89C 362.114,100.116 390.447,121.95 410.5,154.5 Z"/></g>
<g><path style="opacity:1" fill="#fbfafa" d="M 424.5,194.5 C 440.203,223.053 445.203,253.386 439.5,285.5C 439.184,278.024 439.184,270.357 439.5,262.5C 435.167,262.5 430.833,262.5 426.5,262.5C 428.318,275.107 428.818,287.774 428,300.5C 427.828,293.987 427.328,287.653 426.5,281.5C 424.773,246.382 410.94,217.049 385,193.5C 392.355,208.235 398.688,223.568 404,239.5C 405.807,245.392 406.974,251.392 407.5,257.5C 407.444,262.731 408.111,267.731 409.5,272.5C 409.5,281.833 409.5,291.167 409.5,300.5C 408.596,301.209 408.263,302.209 408.5,303.5C 407.742,289.986 407.075,276.32 406.5,262.5C 398.167,262.5 389.833,262.5 381.5,262.5C 381.737,263.791 381.404,264.791 380.5,265.5C 377.27,253.367 372.103,242.033 365,231.5C 364.346,230.304 363.846,230.304 363.5,231.5C 365.573,238.029 367.073,244.696 368,251.5C 368.667,264.167 368.667,276.833 368,289.5C 367.817,292.365 367.317,295.031 366.5,297.5C 366.288,286.022 366.288,274.355 366.5,262.5C 356.5,262.5 346.5,262.5 336.5,262.5C 337.852,273.178 337.685,283.845 336,294.5C 335.503,291.854 335.336,289.187 335.5,286.5C 338.019,263.553 332.519,242.886 319,224.5C 303.878,210.678 286.378,206.512 266.5,212C 257.231,216.26 249.398,222.427 243,230.5C 237.322,240.514 230.489,249.68 222.5,258C 212.978,264.857 202.644,266.857 191.5,264C 202.853,255.799 208.853,244.632 209.5,230.5C 211.217,227.155 211.884,223.489 211.5,219.5C 212.241,210.538 214.241,201.871 217.5,193.5C 230.021,161.48 252.687,140.313 285.5,130C 346.966,119.519 393.299,141.019 424.5,194.5 Z"/></g>
<g><path style="opacity:1" fill="#d88685" d="M 410.5,154.5 C 412.446,155.254 413.279,156.588 413,158.5C 411.519,157.529 410.685,156.196 410.5,154.5 Z"/></g>
<g><path style="opacity:0.999" fill="#b22324" d="M -0.5,193.5 C 26.0602,192.856 52.3935,193.523 78.5,195.5C 66.2723,231.242 66.6056,266.909 79.5,302.5C 79.3893,303.117 79.056,303.617 78.5,304C 52.1688,304.5 25.8354,304.667 -0.5,304.5C -0.5,267.5 -0.5,230.5 -0.5,193.5 Z"/></g>
<g><path style="opacity:1" fill="#b32726" d="M 87.5,190.5 C 87.3398,192.199 87.5065,193.866 88,195.5C 90.2125,194.24 92.7125,193.574 95.5,193.5C 98.4411,193.621 101.108,194.287 103.5,195.5C 100.163,219.707 101.163,243.707 106.5,267.5C 111.172,285.038 117.672,301.705 126,317.5C 97.5099,291.001 83.6766,258.167 84.5,219C 84.4548,209.247 85.4548,199.747 87.5,190.5 Z"/></g>
<g><path style="opacity:1" fill="#b62a28" d="M 129.5,189.5 C 129.337,191.857 129.503,194.19 130,196.5C 130.483,195.552 130.649,194.552 130.5,193.5C 135.833,193.5 141.167,193.5 146.5,193.5C 146.263,194.791 146.596,195.791 147.5,196.5C 145.988,201.729 144.988,207.062 144.5,212.5C 143.111,217.269 142.444,222.269 142.5,227.5C 141.535,245.105 143.201,262.438 147.5,279.5C 147.19,280.738 146.69,280.738 146,279.5C 139.789,270.081 134.956,260.081 131.5,249.5C 127.112,229.482 126.446,209.482 129.5,189.5 Z"/></g>
<g><path style="opacity:1" fill="#b22525" d="M 183.5,191.5 C 194.451,193.478 205.784,194.144 217.5,193.5C 214.241,201.871 212.241,210.538 211.5,219.5C 210.475,222.974 209.808,226.64 209.5,230.5C 208.853,244.632 202.853,255.799 191.5,264C 202.644,266.857 212.978,264.857 222.5,258C 230.489,249.68 237.322,240.514 243,230.5C 249.398,222.427 257.231,216.26 266.5,212C 286.378,206.512 303.878,210.678 319,224.5C 332.519,242.886 338.019,263.553 335.5,286.5C 334.314,293.097 332.981,299.764 331.5,306.5C 321.084,304.723 310.417,303.89 299.5,304C 298.62,302.644 298.286,301.144 298.5,299.5C 298.833,296.167 299.167,292.833 299.5,289.5C 301.217,286.155 301.884,282.489 301.5,278.5C 302.635,265.203 308.635,254.703 319.5,247C 301.872,243.558 288.038,249.391 278,264.5C 271.7,277.469 262.533,287.969 250.5,296C 214.389,308.444 190.389,296.611 178.5,260.5C 173.175,236.835 174.842,213.835 183.5,191.5 Z"/></g>
<g><path style="opacity:0.999" fill="#b22324" d="M 511.5,193.5 C 511.5,230.5 511.5,267.5 511.5,304.5C 486.592,304.172 461.759,304.506 437,305.5C 436.517,304.552 436.351,303.552 436.5,302.5C 437.778,296.892 438.778,291.225 439.5,285.5C 445.203,253.386 440.203,223.053 424.5,194.5C 453.426,193.509 482.426,193.175 511.5,193.5 Z"/></g>
<g><path style="opacity:1" fill="#b22626" d="M 426.5,281.5 C 426.621,289.858 426.288,298.191 425.5,306.5C 420.55,304.252 415.383,303.919 410,305.5C 409.506,303.866 409.34,302.199 409.5,300.5C 409.5,291.167 409.5,281.833 409.5,272.5C 409.556,267.269 408.889,262.269 407.5,257.5C 406.974,251.392 405.807,245.392 404,239.5C 398.688,223.568 392.355,208.235 385,193.5C 410.94,217.049 424.773,246.382 426.5,281.5 Z"/></g>
<g><path style="opacity:1" fill="#e6b6b5" d="M 144.5,212.5 C 144.556,217.731 143.889,222.731 142.5,227.5C 142.444,222.269 143.111,217.269 144.5,212.5 Z"/></g>
<g><path style="opacity:1" fill="#e6b4b2" d="M 211.5,219.5 C 211.884,223.489 211.217,227.155 209.5,230.5C 209.808,226.64 210.475,222.974 211.5,219.5 Z"/></g>
<g><path style="opacity:1" fill="#b22927" d="M 380.5,265.5 C 383.554,280.402 384.221,295.402 382.5,310.5C 381.539,308.735 381.205,306.735 381.5,304.5C 376.57,304.197 371.737,304.531 367,305.5C 366.51,304.207 366.343,302.873 366.5,301.5C 366.5,300.167 366.5,298.833 366.5,297.5C 367.317,295.031 367.817,292.365 368,289.5C 368.667,276.833 368.667,264.167 368,251.5C 367.073,244.696 365.573,238.029 363.5,231.5C 363.846,230.304 364.346,230.304 365,231.5C 372.103,242.033 377.27,253.367 380.5,265.5 Z"/></g>
<g><path style="opacity:1" fill="#f8f5f5" d="M 261.5,237.5 C 266.844,237.334 272.177,237.501 277.5,238C 280,238.885 282.333,240.052 284.5,241.5C 281.681,242.743 279.014,244.243 276.5,246C 269.427,252.402 263.094,259.402 257.5,267C 246.98,273.808 236.313,274.141 225.5,268C 229.295,266.269 232.962,264.269 236.5,262C 242.209,255.96 247.543,249.626 252.5,243C 255.564,241.141 258.564,239.308 261.5,237.5 Z"/></g>
<g><path style="opacity:1" fill="#f6f5f5" d="M 87.5,190.5 C 85.4548,199.747 84.4548,209.247 84.5,219C 83.6766,258.167 97.5099,291.001 126,317.5C 117.672,301.705 111.172,285.038 106.5,267.5C 107.807,265.777 107.807,263.943 106.5,262C 115.494,261.5 124.494,261.334 133.5,261.5C 132.907,258.055 131.907,254.721 130.5,251.5C 130.543,250.584 130.876,249.917 131.5,249.5C 134.956,260.081 139.789,270.081 146,279.5C 146.69,280.738 147.19,280.738 147.5,279.5C 148.222,279.918 148.722,280.584 149,281.5C 148.04,274.857 146.873,268.19 145.5,261.5C 156.59,260.87 167.423,261.537 178,263.5C 178.483,262.552 178.649,261.552 178.5,260.5C 190.389,296.611 214.389,308.444 250.5,296C 262.533,287.969 271.7,277.469 278,264.5C 288.038,249.391 301.872,243.558 319.5,247C 308.635,254.703 302.635,265.203 301.5,278.5C 300.475,281.974 299.808,285.64 299.5,289.5C 299.167,292.833 298.833,296.167 298.5,299.5C 288.424,344.742 260.758,372.576 215.5,383C 160.868,388.931 119.034,368.765 90,322.5C 86.2009,315.898 82.7009,309.232 79.5,302.5C 66.6056,266.909 66.2723,231.242 78.5,195.5C 82.9904,182.852 88.8237,170.852 96,159.5C 92.0982,169.431 89.2649,179.764 87.5,190.5 Z"/></g>
<g><path style="opacity:1" fill="#f6f5f5" d="M 366.5,297.5 C 366.5,298.833 366.5,300.167 366.5,301.5C 360.421,332.994 346.421,360.327 324.5,383.5C 309.853,382.798 295.52,382.131 281.5,381.5C 306.869,362.435 323.536,337.435 331.5,306.5C 332.981,299.764 334.314,293.097 335.5,286.5C 335.336,289.187 335.503,291.854 336,294.5C 337.685,283.845 337.852,273.178 336.5,262.5C 346.5,262.5 356.5,262.5 366.5,262.5C 366.288,274.355 366.288,286.022 366.5,297.5 Z"/></g>
<g><path style="opacity:1" fill="#f5f3f3" d="M 408.5,303.5 C 405.685,331.954 396.351,357.954 380.5,381.5C 350.26,421.283 309.927,440.783 259.5,440C 297.086,433.171 328.086,415.337 352.5,386.5C 370.792,364.562 380.792,339.229 382.5,310.5C 384.221,295.402 383.554,280.402 380.5,265.5C 381.404,264.791 381.737,263.791 381.5,262.5C 389.833,262.5 398.167,262.5 406.5,262.5C 407.075,276.32 407.742,289.986 408.5,303.5 Z"/></g>
<g><path style="opacity:1" fill="#f6f2f1" d="M 439.5,285.5 C 438.778,291.225 437.778,296.892 436.5,302.5C 431.555,319.732 424.388,336.065 415,351.5C 419.893,336.923 423.393,321.923 425.5,306.5C 426.288,298.191 426.621,289.858 426.5,281.5C 427.328,287.653 427.828,293.987 428,300.5C 428.818,287.774 428.318,275.107 426.5,262.5C 430.833,262.5 435.167,262.5 439.5,262.5C 439.184,270.357 439.184,278.024 439.5,285.5 Z"/></g>
<g><path style="opacity:1" fill="#e0aaaa" d="M 407.5,257.5 C 408.889,262.269 409.556,267.269 409.5,272.5C 408.111,267.731 407.444,262.731 407.5,257.5 Z"/></g>
<g><path style="opacity:1" fill="#c96762" d="M 301.5,278.5 C 301.884,282.489 301.217,286.155 299.5,289.5C 299.808,285.64 300.475,281.974 301.5,278.5 Z"/></g>
<g><path style="opacity:1" fill="#aa2324" d="M 298.5,299.5 C 298.286,301.144 298.62,302.644 299.5,304C 310.417,303.89 321.084,304.723 331.5,306.5C 323.536,337.435 306.869,362.435 281.5,381.5C 227.189,416.435 174.189,414.602 122.5,376C 115.046,369.948 108.046,363.448 101.5,356.5C 100.542,355.038 99.3756,353.705 98,352.5C 98.0969,354.459 98.9302,356.125 100.5,357.5C 110.007,371.349 121.007,384.015 133.5,395.5C 129.095,392.604 125.095,389.104 121.5,385C 80.8347,384.5 40.168,384.333 -0.5,384.5C -0.5,357.833 -0.5,331.167 -0.5,304.5C 25.8354,304.667 52.1688,304.5 78.5,304C 79.056,303.617 79.3893,303.117 79.5,302.5C 82.7009,309.232 86.2009,315.898 90,322.5C 119.034,368.765 160.868,388.931 215.5,383C 260.758,372.576 288.424,344.742 298.5,299.5 Z"/></g>
<g><path style="opacity:1" fill="#ab2425" d="M 366.5,301.5 C 366.343,302.873 366.51,304.207 367,305.5C 371.737,304.531 376.57,304.197 381.5,304.5C 381.205,306.735 381.539,308.735 382.5,310.5C 380.792,339.229 370.792,364.562 352.5,386.5C 343.76,384.408 334.76,383.908 325.5,385C 324.744,386.38 324.078,386.547 323.5,385.5C 323.833,384.833 324.167,384.167 324.5,383.5C 346.421,360.327 360.421,332.994 366.5,301.5 Z"/></g>
<g><path style="opacity:0.999" fill="#ab2224" d="M 409.5,300.5 C 409.34,302.199 409.506,303.866 410,305.5C 415.383,303.919 420.55,304.252 425.5,306.5C 423.393,321.923 419.893,336.923 415,351.5C 424.388,336.065 431.555,319.732 436.5,302.5C 436.351,303.552 436.517,304.552 437,305.5C 461.759,304.506 486.592,304.172 511.5,304.5C 511.5,331.167 511.5,357.833 511.5,384.5C 467.833,384.5 424.167,384.5 380.5,384.5C 380.5,383.5 380.5,382.5 380.5,381.5C 396.351,357.954 405.685,331.954 408.5,303.5C 408.263,302.209 408.596,301.209 409.5,300.5 Z"/></g>
<g><path style="opacity:1" fill="#cb7e7d" d="M 101.5,356.5 C 100.833,356.5 100.5,356.833 100.5,357.5C 98.9302,356.125 98.0969,354.459 98,352.5C 99.3756,353.705 100.542,355.038 101.5,356.5 Z"/></g>
<g><path style="opacity:0.996" fill="#a52123" d="M 380.5,381.5 C 380.5,382.5 380.5,383.5 380.5,384.5C 424.167,384.5 467.833,384.5 511.5,384.5C 511.5,390.833 511.5,397.167 511.5,403.5C 509,420.001 503.333,435.334 494.5,449.5C 335.167,448.167 175.833,448.167 16.5,449.5C 7.66706,435.334 2.00039,420.001 -0.5,403.5C -0.5,397.167 -0.5,390.833 -0.5,384.5C 40.168,384.333 80.8347,384.5 121.5,385C 125.095,389.104 129.095,392.604 133.5,395.5C 178.679,430.084 227.679,436.251 280.5,414C 296.264,406.466 310.598,396.966 323.5,385.5C 324.078,386.547 324.744,386.38 325.5,385C 334.76,383.908 343.76,384.408 352.5,386.5C 328.086,415.337 297.086,433.171 259.5,440C 309.927,440.783 350.26,421.283 380.5,381.5 Z"/></g>
<g><path style="opacity:1" fill="#f1f0ef" d="M 101.5,356.5 C 108.046,363.448 115.046,369.948 122.5,376C 174.189,414.602 227.189,416.435 281.5,381.5C 295.52,382.131 309.853,382.798 324.5,383.5C 324.167,384.167 323.833,384.833 323.5,385.5C 310.598,396.966 296.264,406.466 280.5,414C 227.679,436.251 178.679,430.084 133.5,395.5C 121.007,384.015 110.007,371.349 100.5,357.5C 100.5,356.833 100.833,356.5 101.5,356.5 Z"/></g>
<g><path style="opacity:0.996" fill="#a02023" d="M 494.5,449.5 C 482.029,471.637 464.362,488.304 441.5,499.5C 317.5,498.167 193.5,498.167 69.5,499.5C 46.6379,488.304 28.9712,471.637 16.5,449.5C 175.833,448.167 335.167,448.167 494.5,449.5 Z"/></g>
<g><path style="opacity:0.981" fill="#9c1f22" d="M 69.5,499.5 C 193.5,498.167 317.5,498.167 441.5,499.5C 429.32,505.339 416.654,509.339 403.5,511.5C 304.833,511.5 206.167,511.5 107.5,511.5C 94.3464,509.339 81.6797,505.339 69.5,499.5 Z"/></g>
</svg>
