<svg xmlns="http://www.w3.org/2000/svg" xmlns:xlink="http://www.w3.org/1999/xlink" width="225" height="225" version="1.1" style="shape-rendering:geometricPrecision;text-rendering:geometricPrecision;image-rendering:optimizeQuality;fill-rule:evenodd;clip-rule:evenodd"><g><path style="opacity:1" fill="#fcf7fc" d="M 25.5,0.5 C 25.5,0.166667 25.5,-0.166667 25.5,-0.5C 91.8333,-0.5 158.167,-0.5 224.5,-0.5C 224.5,8.16667 224.5,16.8333 224.5,25.5C 224.167,25.5 223.833,25.5 223.5,25.5C 223.248,21.6733 221.915,18.3399 219.5,15.5C 218.081,12.8996 216.415,10.3996 214.5,8C 209.91,4.90835 204.91,2.57502 199.5,1C 141.501,0.500006 83.501,0.333339 25.5,0.5 Z"/></g><g><path style="opacity:1" fill="#e25a8e" d="M 25.5,0.5 C 83.501,0.333339 141.501,0.500006 199.5,1C 204.91,2.57502 209.91,4.90835 214.5,8C 216.415,10.3996 218.081,12.8996 219.5,15.5C 216.15,15.665 212.817,15.4983 209.5,15C 207.887,12.7724 207.22,10.2724 207.5,7.5C 205.801,7.66018 204.134,7.49351 202.5,7C 204.674,5.73601 204.34,4.56934 201.5,3.5C 172.522,4.1588 143.522,4.49213 114.5,4.5C 84.1059,4.45271 53.7726,3.78604 23.5,2.5C 24.1667,1.83333 24.8333,1.16667 25.5,0.5 Z"/></g><g><path style="opacity:1" fill="#e94c89" d="M 23.5,2.5 C 53.7726,3.78604 84.1059,4.45271 114.5,4.5C 143.522,4.49213 172.522,4.1588 201.5,3.5C 204.34,4.56934 204.674,5.73601 202.5,7C 204.134,7.49351 205.801,7.66018 207.5,7.5C 207.22,10.2724 207.887,12.7724 209.5,15C 212.817,15.4983 216.15,15.665 219.5,15.5C 221.915,18.3399 223.248,21.6733 223.5,25.5C 223.666,29.5138 223.499,33.5138 223,37.5C 222.5,38 222,38.5 221.5,39C 222.664,89.7627 222.83,140.596 222,191.5C 220.578,196.838 218.745,202.004 216.5,207C 217.138,208.707 217.138,210.54 216.5,212.5C 213.05,211.756 211.384,213.09 211.5,216.5C 148.898,216.206 86.2314,216.539 23.5,217.5C 19.9861,217.212 16.9861,215.879 14.5,213.5C 13.7348,214.612 12.7348,215.279 11.5,215.5C 9.98261,215.489 8.81595,214.823 8,213.5C 5.33413,209.167 3.50079,204.5 2.5,199.5C 3.7846,170.061 4.45127,140.561 4.5,111C 4.3049,81.1431 4.13823,51.3098 4,21.5C 4.80641,27.2221 5.97308,27.5554 7.5,22.5C 6.47978,20.5675 6.31312,18.5675 7,16.5C 7.30762,17.3081 7.80762,17.9747 8.5,18.5C 9.76893,16.8199 11.4356,15.6532 13.5,15C 12.2718,14.221 11.2718,13.221 10.5,12C 11.4138,10.5936 12.0805,9.09362 12.5,7.5C 15.5322,4.48467 19.1988,2.818 23.5,2.5 Z"/></g><g><path style="opacity:1" fill="#e5a0bd" d="M 7.5,12.5 C 7.57298,14.0269 6.90632,15.0269 5.5,15.5C 5.42702,13.9731 6.09368,12.9731 7.5,12.5 Z"/></g><g><path style="opacity:1" fill="#e04f8b" d="M 12.5,7.5 C 12.0805,9.09362 11.4138,10.5936 10.5,12C 11.2718,13.221 12.2718,14.221 13.5,15C 11.4356,15.6532 9.76893,16.8199 8.5,18.5C 7.80762,17.9747 7.30762,17.3081 7,16.5C 6.31312,18.5675 6.47978,20.5675 7.5,22.5C 5.97308,27.5554 4.80641,27.2221 4,21.5C 4.13823,51.3098 4.3049,81.1431 4.5,111C 4.45127,140.561 3.7846,170.061 2.5,199.5C 1.33476,141.001 1.16809,82.3348 2,23.5C 2.38743,20.4006 3.5541,17.734 5.5,15.5C 6.90632,15.0269 7.57298,14.0269 7.5,12.5C 8.83333,10.5 10.5,8.83333 12.5,7.5 Z"/></g><g><path style="opacity:1" fill="#fdfcfd" d="M 80.5,34.5 C 80.5,39.5 80.5,44.5 80.5,49.5C 90.8333,49.5 101.167,49.5 111.5,49.5C 111.5,67.5 111.5,85.5 111.5,103.5C 101.347,104.494 91.0135,104.828 80.5,104.5C 80.8254,112.352 80.492,120.018 79.5,127.5C 74.8333,127.5 70.1667,127.5 65.5,127.5C 65.8254,119.648 65.492,111.982 64.5,104.5C 54.6806,103.506 44.6806,103.173 34.5,103.5C 34.5,85.8333 34.5,68.1667 34.5,50.5C 44.6806,50.8274 54.6806,50.494 64.5,49.5C 65.4872,44.6946 65.8205,39.6946 65.5,34.5C 70.5,34.5 75.5,34.5 80.5,34.5 Z"/></g><g><path style="opacity:1" fill="#e25d92" d="M 223.5,25.5 C 223.833,25.5 224.167,25.5 224.5,25.5C 224.5,82.8333 224.5,140.167 224.5,197.5C 223.113,200.639 221.946,203.972 221,207.5C 219.951,209.618 218.451,211.284 216.5,212.5C 217.138,210.54 217.138,208.707 216.5,207C 218.745,202.004 220.578,196.838 222,191.5C 222.83,140.596 222.664,89.7627 221.5,39C 222,38.5 222.5,38 223,37.5C 223.499,33.5138 223.666,29.5138 223.5,25.5 Z"/></g><g><path style="opacity:1" fill="#eeb1cb" d="M 80.5,33.5 C 80.5,33.8333 80.5,34.1667 80.5,34.5C 75.5,34.5 70.5,34.5 65.5,34.5C 65.8205,39.6946 65.4872,44.6946 64.5,49.5C 64.5,48.8333 64.5,48.1667 64.5,47.5C 64.5,42.8333 64.5,38.1667 64.5,33.5C 69.8333,33.5 75.1667,33.5 80.5,33.5 Z"/></g><g><path style="opacity:1" fill="#f14788" d="M 218.5,39.5 C 218.5,90.1667 218.5,140.833 218.5,191.5C 217.167,166.509 216.5,141.176 216.5,115.5C 216.5,89.8244 217.167,64.4911 218.5,39.5 Z"/></g><g><path style="opacity:1" fill="#de5087" d="M 218.5,39.5 C 219.833,64.4911 220.5,89.8244 220.5,115.5C 220.5,141.176 219.833,166.509 218.5,191.5C 218.5,140.833 218.5,90.1667 218.5,39.5 Z"/></g><g><path style="opacity:1" fill="#cf6b93" d="M 127.5,41.5 C 132.656,40.8339 137.989,40.5006 143.5,40.5C 149.211,40.5051 154.544,41.1718 159.5,42.5C 158.167,42.5 156.833,42.5 155.5,42.5C 146.348,41.5064 137.015,41.1731 127.5,41.5 Z"/></g><g><path style="opacity:1" fill="#fddeef" d="M 127.5,41.5 C 137.015,41.1731 146.348,41.5064 155.5,42.5C 146.5,42.5 137.5,42.5 128.5,42.5C 128.2,47.0986 128.533,51.5986 129.5,56C 137.344,56.171 145.011,56.671 152.5,57.5C 144.167,57.5 135.833,57.5 127.5,57.5C 127.5,52.1667 127.5,46.8333 127.5,41.5 Z"/></g><g><path style="opacity:1" fill="#fbfbfd" d="M 155.5,42.5 C 156.833,42.5 158.167,42.5 159.5,42.5C 169.402,45.7399 176.402,52.0732 180.5,61.5C 181.083,70.1549 181.416,78.8215 181.5,87.5C 176.833,87.5 172.167,87.5 167.5,87.5C 167.823,81.31 167.49,75.31 166.5,69.5C 165.833,68.1667 165.167,66.8333 164.5,65.5C 163.189,62.762 161.189,60.5954 158.5,59C 156.482,58.4954 154.482,57.9954 152.5,57.5C 145.011,56.671 137.344,56.171 129.5,56C 128.533,51.5986 128.2,47.0986 128.5,42.5C 137.5,42.5 146.5,42.5 155.5,42.5 Z"/></g><g><path style="opacity:1" fill="#b95c85" d="M 64.5,47.5 C 64.5,48.1667 64.5,48.8333 64.5,49.5C 54.1667,49.5 43.8333,49.5 33.5,49.5C 43.7347,48.8114 54.068,48.1447 64.5,47.5 Z"/></g><g><path style="opacity:1" fill="#cd7b9f" d="M 80.5,33.5 C 81.4872,38.3054 81.8205,43.3054 81.5,48.5C 91.7491,48.8194 101.916,48.4861 112,47.5C 112.829,66.3379 112.662,85.0045 111.5,103.5C 111.5,85.5 111.5,67.5 111.5,49.5C 101.167,49.5 90.8333,49.5 80.5,49.5C 80.5,44.5 80.5,39.5 80.5,34.5C 80.5,34.1667 80.5,33.8333 80.5,33.5 Z"/></g><g><path style="opacity:1" fill="#cb5d8b" d="M 33.5,49.5 C 33.5,67.8333 33.5,86.1667 33.5,104.5C 32.7611,104.631 32.0944,104.464 31.5,104C 32.1605,85.7355 32.8272,67.5688 33.5,49.5 Z"/></g><g><path style="opacity:1" fill="#d6598b" d="M 127.5,41.5 C 127.5,46.8333 127.5,52.1667 127.5,57.5C 135.833,57.5 144.167,57.5 152.5,57.5C 154.482,57.9954 156.482,58.4954 158.5,59C 161.189,60.5954 163.189,62.762 164.5,65.5C 161.8,63.405 158.8,61.5717 155.5,60C 145.833,59.6667 136.167,59.3333 126.5,59C 125.855,56.0864 125.522,53.0864 125.5,50C 125.519,46.7485 126.186,43.9151 127.5,41.5 Z"/></g><g><path style="opacity:1" fill="#c16088" d="M 49.5,65.5 C 54.5,65.5 59.5,65.5 64.5,65.5C 64.5,67.5 64.5,69.5 64.5,71.5C 63.5489,70.0813 63.2155,68.4147 63.5,66.5C 59.1667,66.5 54.8333,66.5 50.5,66.5C 50.5,73.5 50.5,80.5 50.5,87.5C 54.8333,87.5 59.1667,87.5 63.5,87.5C 63.5,87.8333 63.5,88.1667 63.5,88.5C 58.8333,88.5 54.1667,88.5 49.5,88.5C 49.5,80.8333 49.5,73.1667 49.5,65.5 Z"/></g><g><path style="opacity:1" fill="#eeb1cb" d="M 49.5,65.5 C 54.6405,64.5119 59.9738,64.1786 65.5,64.5C 66.1335,72.9032 65.4668,80.9032 63.5,88.5C 63.5,88.1667 63.5,87.8333 63.5,87.5C 64.4881,82.3595 64.8214,77.0262 64.5,71.5C 64.5,69.5 64.5,67.5 64.5,65.5C 59.5,65.5 54.5,65.5 49.5,65.5 Z"/></g><g><path style="opacity:1" fill="#e74c88" d="M 81.5,65.5 C 86.1667,65.5 90.8333,65.5 95.5,65.5C 95.5,72.8333 95.5,80.1667 95.5,87.5C 90.8333,87.5 86.1667,87.5 81.5,87.5C 81.5,80.1667 81.5,72.8333 81.5,65.5 Z"/></g><g><path style="opacity:1" fill="#e74c89" d="M 64.5,71.5 C 64.8214,77.0262 64.4881,82.3595 63.5,87.5C 59.1667,87.5 54.8333,87.5 50.5,87.5C 50.5,80.5 50.5,73.5 50.5,66.5C 54.8333,66.5 59.1667,66.5 63.5,66.5C 63.2155,68.4147 63.5489,70.0813 64.5,71.5 Z"/></g><g><path style="opacity:1" fill="#d37a9f" d="M 80.5,65.5 C 80.8333,65.5 81.1667,65.5 81.5,65.5C 81.5,72.8333 81.5,80.1667 81.5,87.5C 86.1667,87.5 90.8333,87.5 95.5,87.5C 90.6946,88.4872 85.6946,88.8205 80.5,88.5C 80.5,80.8333 80.5,73.1667 80.5,65.5 Z"/></g><g><path style="opacity:1" fill="#e29bb8" d="M 80.5,65.5 C 85.6405,64.5119 90.9738,64.1786 96.5,64.5C 96.8254,72.3516 96.492,80.0182 95.5,87.5C 95.5,80.1667 95.5,72.8333 95.5,65.5C 90.8333,65.5 86.1667,65.5 81.5,65.5C 81.1667,65.5 80.8333,65.5 80.5,65.5 Z"/></g><g><path style="opacity:1" fill="#fbdeef" d="M 180.5,61.5 C 181.29,62.6085 181.79,63.9419 182,65.5C 182.5,73.1594 182.666,80.8261 182.5,88.5C 177.167,88.5 171.833,88.5 166.5,88.5C 166.5,82.1667 166.5,75.8333 166.5,69.5C 167.49,75.31 167.823,81.31 167.5,87.5C 172.167,87.5 176.833,87.5 181.5,87.5C 181.416,78.8215 181.083,70.1549 180.5,61.5 Z"/></g><g><path style="opacity:1" fill="#e28cad" d="M 159.5,96.5 C 153.741,96.2143 148.075,96.5476 142.5,97.5C 144.915,96.1858 147.748,95.5191 151,95.5C 154.021,95.5022 156.854,95.8356 159.5,96.5 Z"/></g><g><path style="opacity:1" fill="#fbf9fb" d="M 159.5,96.5 C 169.541,121.9 179.541,147.234 189.5,172.5C 189.917,175.079 189.25,177.246 187.5,179C 188.938,179.219 190.271,179.719 191.5,180.5C 186.208,181.495 180.875,181.828 175.5,181.5C 174.02,175.891 172.02,170.557 169.5,165.5C 169.131,163.559 168.464,161.725 167.5,160C 156.485,159.168 145.485,159.334 134.5,160.5C 131.707,167.736 128.707,174.736 125.5,181.5C 120.821,181.666 116.155,181.499 111.5,181C 111.167,180.667 110.833,180.333 110.5,180C 111.833,179.667 113.167,179.333 114.5,179C 112.881,178.764 111.881,177.931 111.5,176.5C 119.531,154.761 127.865,133.095 136.5,111.5C 138.565,108.075 140.231,104.408 141.5,100.5C 141.557,99.391 141.89,98.391 142.5,97.5C 148.075,96.5476 153.741,96.2143 159.5,96.5 Z"/></g><g><path style="opacity:1" fill="#f9cae2" d="M 33.5,49.5 C 43.8333,49.5 54.1667,49.5 64.5,49.5C 54.6806,50.494 44.6806,50.8274 34.5,50.5C 34.5,68.1667 34.5,85.8333 34.5,103.5C 44.6806,103.173 54.6806,103.506 64.5,104.5C 54.1667,104.5 43.8333,104.5 33.5,104.5C 33.5,86.1667 33.5,67.8333 33.5,49.5 Z"/></g><g><path style="opacity:1" fill="#d16c94" d="M 141.5,100.5 C 140.231,104.408 138.565,108.075 136.5,111.5C 136.837,107.164 138.504,103.497 141.5,100.5 Z"/></g><g><path style="opacity:1" fill="#d16a92" d="M 153.5,126.5 C 152.685,125.571 151.852,124.571 151,123.5C 150.878,125.437 150.045,126.77 148.5,127.5C 149.436,119.846 151.103,119.513 153.5,126.5 Z"/></g><g><path style="opacity:1" fill="#e594b6" d="M 64.5,104.5 C 65.492,111.982 65.8254,119.648 65.5,127.5C 70.1667,127.5 74.8333,127.5 79.5,127.5C 74.3497,128.651 69.0164,128.817 63.5,128C 64.4817,120.253 64.815,112.42 64.5,104.5 Z"/></g><g><path style="opacity:1" fill="#fcfafc" d="M 41.5,135.5 C 46.8333,135.5 52.1667,135.5 57.5,135.5C 57.3337,142.175 57.5004,148.842 58,155.5C 58.6082,157.066 59.4415,158.4 60.5,159.5C 61.5778,162.908 63.9111,164.908 67.5,165.5C 67.8417,166.338 68.5084,166.672 69.5,166.5C 77.9839,167.493 86.6506,167.826 95.5,167.5C 95.5,172.167 95.5,176.833 95.5,181.5C 85.5,181.5 75.5,181.5 65.5,181.5C 53.9166,178.25 46.2499,170.916 42.5,159.5C 41.6351,151.534 41.3018,143.534 41.5,135.5 Z"/></g><g><path style="opacity:1" fill="#cc5f8a" d="M 60.5,159.5 C 59.4415,158.4 58.6082,157.066 58,155.5C 57.5004,148.842 57.3337,142.175 57.5,135.5C 52.1667,135.5 46.8333,135.5 41.5,135.5C 41.6107,134.883 41.944,134.383 42.5,134C 47.8229,133.501 53.1563,133.334 58.5,133.5C 58.1348,142.267 58.8014,150.934 60.5,159.5 Z"/></g><g><path style="opacity:1" fill="#eb4b89" d="M 153.5,126.5 C 153.5,126.833 153.5,127.167 153.5,127.5C 154.519,129.54 154.519,131.54 153.5,133.5C 152.808,132.975 152.308,132.308 152,131.5C 151.506,133.134 151.34,134.801 151.5,136.5C 153.143,136.52 154.476,135.853 155.5,134.5C 156.072,136.917 157.072,139.084 158.5,141C 153.584,142.723 148.584,142.89 143.5,141.5C 145.5,140.833 147.5,140.167 149.5,139.5C 148.311,138.571 146.978,138.238 145.5,138.5C 146.374,135.211 147.041,131.877 147.5,128.5C 147.5,127.833 147.833,127.5 148.5,127.5C 150.045,126.77 150.878,125.437 151,123.5C 151.852,124.571 152.685,125.571 153.5,126.5 Z"/></g><g><path style="opacity:1" fill="#dc6995" d="M 153.5,127.5 C 154.79,128.058 155.623,129.058 156,130.5C 157.785,134.767 159.285,139.1 160.5,143.5C 154.5,143.5 148.5,143.5 142.5,143.5C 143.194,138.085 144.86,133.085 147.5,128.5C 147.041,131.877 146.374,135.211 145.5,138.5C 146.978,138.238 148.311,138.571 149.5,139.5C 147.5,140.167 145.5,140.833 143.5,141.5C 148.584,142.89 153.584,142.723 158.5,141C 157.072,139.084 156.072,136.917 155.5,134.5C 154.476,135.853 153.143,136.52 151.5,136.5C 151.34,134.801 151.506,133.134 152,131.5C 152.308,132.308 152.808,132.975 153.5,133.5C 154.519,131.54 154.519,129.54 153.5,127.5 Z"/></g><g><path style="opacity:1" fill="#d16a93" d="M 41.5,135.5 C 41.3018,143.534 41.6351,151.534 42.5,159.5C 41.176,155.893 40.5093,151.893 40.5,147.5C 40.5011,143.319 40.8344,139.319 41.5,135.5 Z"/></g><g><path style="opacity:1" fill="#d7779b" d="M 60.5,159.5 C 63.198,161.207 65.5313,163.207 67.5,165.5C 63.9111,164.908 61.5778,162.908 60.5,159.5 Z"/></g><g><path style="opacity:1" fill="#d7628f" d="M 169.5,165.5 C 172.02,170.557 174.02,175.891 175.5,181.5C 180.975,182.489 186.642,182.822 192.5,182.5C 192.634,180.708 192.301,179.042 191.5,177.5C 193.308,178.918 193.975,180.918 193.5,183.5C 186.825,183.666 180.158,183.5 173.5,183C 171.493,177.421 170.16,171.587 169.5,165.5 Z"/></g><g><path style="opacity:1" fill="#fcd9ed" d="M 69.5,166.5 C 78.5,166.5 87.5,166.5 96.5,166.5C 96.5,171.833 96.5,177.167 96.5,182.5C 85.9865,182.828 75.6532,182.494 65.5,181.5C 75.5,181.5 85.5,181.5 95.5,181.5C 95.5,176.833 95.5,172.167 95.5,167.5C 86.6506,167.826 77.9839,167.493 69.5,166.5 Z"/></g><g><path style="opacity:1" fill="#fdddf0" d="M 111.5,176.5 C 111.881,177.931 112.881,178.764 114.5,179C 113.167,179.333 111.833,179.667 110.5,180C 110.833,180.333 111.167,180.667 111.5,181C 116.155,181.499 120.821,181.666 125.5,181.5C 125.5,181.833 125.5,182.167 125.5,182.5C 119.729,183.113 114.396,182.446 109.5,180.5C 109.66,178.847 110.326,177.514 111.5,176.5 Z"/></g><g><path style="opacity:1" fill="#fbddee" d="M 189.5,172.5 C 190.537,173.93 191.204,175.597 191.5,177.5C 192.301,179.042 192.634,180.708 192.5,182.5C 186.642,182.822 180.975,182.489 175.5,181.5C 180.875,181.828 186.208,181.495 191.5,180.5C 190.271,179.719 188.938,179.219 187.5,179C 189.25,177.246 189.917,175.079 189.5,172.5 Z"/></g><g><path style="opacity:1" fill="#cd6c96" d="M 109.5,180.5 C 114.396,182.446 119.729,183.113 125.5,182.5C 120.025,183.489 114.358,183.822 108.5,183.5C 108.263,182.209 108.596,181.209 109.5,180.5 Z"/></g><g><path style="opacity:1" fill="#f9e7f0" d="M -0.5,-0.5 C 8.16667,-0.5 16.8333,-0.5 25.5,-0.5C 25.5,-0.166667 25.5,0.166667 25.5,0.5C 24.8333,1.16667 24.1667,1.83333 23.5,2.5C 19.1988,2.818 15.5322,4.48467 12.5,7.5C 10.5,8.83333 8.83333,10.5 7.5,12.5C 6.09368,12.9731 5.42702,13.9731 5.5,15.5C 3.5541,17.734 2.38743,20.4006 2,23.5C 1.16809,82.3348 1.33476,141.001 2.5,199.5C 3.50079,204.5 5.33413,209.167 8,213.5C 8.81595,214.823 9.98261,215.489 11.5,215.5C 13.9464,218.231 16.9464,220.231 20.5,221.5C 21.2625,222.268 22.2625,222.768 23.5,223C 82.1657,223.5 140.832,223.667 199.5,223.5C 199.5,223.833 199.5,224.167 199.5,224.5C 132.833,224.5 66.1667,224.5 -0.5,224.5C -0.5,149.5 -0.5,74.5 -0.5,-0.5 Z"/></g><g><path style="opacity:1" fill="#fbf7fa" d="M 224.5,197.5 C 224.5,206.5 224.5,215.5 224.5,224.5C 216.167,224.5 207.833,224.5 199.5,224.5C 199.5,224.167 199.5,223.833 199.5,223.5C 200.5,222.833 201.5,222.167 202.5,221.5C 207.358,220.404 211.691,218.238 215.5,215C 216.252,214.329 216.586,213.496 216.5,212.5C 218.451,211.284 219.951,209.618 221,207.5C 221.946,203.972 223.113,200.639 224.5,197.5 Z"/></g><g><path style="opacity:1" fill="#e34e89" d="M 216.5,212.5 C 216.586,213.496 216.252,214.329 215.5,215C 211.691,218.238 207.358,220.404 202.5,221.5C 202.119,220.069 201.119,219.236 199.5,219C 140.813,218.606 82.1464,218.439 23.5,218.5C 23.5,219.5 23.5,220.5 23.5,221.5C 22.5,221.5 21.5,221.5 20.5,221.5C 16.9464,220.231 13.9464,218.231 11.5,215.5C 12.7348,215.279 13.7348,214.612 14.5,213.5C 16.9861,215.879 19.9861,217.212 23.5,217.5C 86.2314,216.539 148.898,216.206 211.5,216.5C 211.384,213.09 213.05,211.756 216.5,212.5 Z"/></g><g><path style="opacity:1" fill="#ed4a89" d="M 202.5,221.5 C 142.824,222.809 83.1577,222.809 23.5,221.5C 23.5,220.5 23.5,219.5 23.5,218.5C 82.1464,218.439 140.813,218.606 199.5,219C 201.119,219.236 202.119,220.069 202.5,221.5 Z"/></g><g><path style="opacity:1" fill="#d25989" d="M 20.5,221.5 C 21.5,221.5 22.5,221.5 23.5,221.5C 83.1577,222.809 142.824,222.809 202.5,221.5C 201.5,222.167 200.5,222.833 199.5,223.5C 140.832,223.667 82.1657,223.5 23.5,223C 22.2625,222.768 21.2625,222.268 20.5,221.5 Z"/></g></svg>