<svg xmlns="http://www.w3.org/2000/svg" width="256" height="256" viewBox="0 0 100 100"><rect width="100" height="100" fill="#069cf8" rx="20"/><path fill="#fff" d="M39.61 74.61L16.66 50.86L16.66 76.86Q16.12 77.05 15.22 77.27Q14.32 77.50 13.24 77.50L13.24 77.50Q9.28 77.50 9.28 74.16L9.28 74.16L9.28 22.41Q9.73 22.23 10.67 22.01Q11.62 21.79 12.70 21.79L12.70 21.79Q16.66 21.79 16.66 25.12L16.66 25.12L16.66 47.52L41.41 21.88Q43.75 21.97 44.92 23.05Q46.09 24.13 46.09 25.56L46.09 25.56Q46.09 26.73 45.46 27.73Q44.83 28.72 43.66 29.88L43.66 29.88L24.22 48.97Q32.41 56.97 38.39 63.23Q44.38 69.48 48.70 73.36L48.70 73.36Q48.52 75.33 47.48 76.46Q46.45 77.58 44.83 77.58L44.83 77.58Q43.30 77.58 42.08 76.73Q40.87 75.88 39.61 74.61L39.61 74.61ZM73.81 72.28L73.81 72.28Q77.59 72.28 80.06 71.51Q82.53 70.75 83.62 70.03L83.62 70.03L83.62 56.97L72.46 58.14Q67.78 58.59 65.53 60.26Q63.28 61.92 63.28 65.16L63.28 65.16Q63.28 68.58 65.89 70.43Q68.50 72.28 73.81 72.28ZM73.72 34.20L73.72 34.20Q81.55 34.20 86.14 37.71Q90.72 41.23 90.72 48.78L90.72 48.78L90.72 70.11Q90.72 72.09 89.96 73.13Q89.20 74.16 87.67 75.06L87.67 75.06Q85.50 76.33 81.95 77.27Q78.40 78.22 73.81 78.22L73.81 78.22Q65.34 78.22 60.71 74.89Q56.08 71.55 56.08 65.25L56.08 65.25Q56.08 59.31 59.95 56.30Q63.82 53.28 70.84 52.56L70.84 52.56L83.62 51.30L83.62 48.78Q83.62 44.28 80.92 42.21Q78.22 40.15 73.63 40.15L73.63 40.15Q69.84 40.15 66.52 41.23Q63.19 42.30 60.58 43.66L60.58 43.66Q59.86 43.02 59.27 42.21Q58.69 41.41 58.69 40.41L58.69 40.41Q58.69 39.16 59.32 38.34Q59.95 37.53 61.30 36.81L61.30 36.81Q63.73 35.55 66.88 34.88Q70.03 34.20 73.72 34.20Z"/></svg>