<svg xmlns="http://www.w3.org/2000/svg" width="499pt" height="499pt" preserveAspectRatio="xMidYMid meet" version="1.0" viewBox="0 0 499 499"><g fill="#E68C3CFE" stroke="#E68C3CFE"><path d="M 232.629 2.208 C 232.890 2.630 230.492 2.904 227.301 2.817 C 224.111 2.730 220.433 3.230 219.129 3.929 C 217.656 4.719 217.016 4.783 217.438 4.100 C 217.826 3.473 217.422 3.000 216.500 3.000 C 215.533 3.000 215.169 3.464 215.594 4.152 C 216.110 4.988 215.095 5.137 211.903 4.696 C 208.690 4.253 208.041 4.350 209.500 5.058 C 211.225 5.894 211.118 5.975 208.726 5.648 C 207.201 5.439 205.711 5.658 205.417 6.134 C 205.123 6.610 204.432 7.000 203.882 7.000 C 203.332 7.000 203.188 6.505 203.562 5.900 C 204.052 5.107 203.686 5.097 202.252 5.865 C 201.158 6.451 199.990 6.656 199.656 6.322 C 199.322 5.988 198.368 6.279 197.537 6.969 C 196.706 7.659 195.345 7.963 194.513 7.643 C 193.681 7.324 193.000 7.547 193.000 8.138 C 193.000 8.730 192.339 8.960 191.532 8.651 C 190.725 8.341 189.787 8.536 189.448 9.084 C 189.109 9.633 187.970 9.808 186.916 9.473 C 185.770 9.110 185.000 9.337 185.000 10.040 C 185.000 10.686 184.377 10.975 183.615 10.682 C 182.853 10.390 181.337 10.776 180.246 11.540 C 179.155 12.304 177.979 12.645 177.631 12.298 C 177.284 11.951 177.000 12.192 177.000 12.833 C 177.000 13.475 176.523 14.000 175.941 14.000 C 175.359 14.000 175.211 13.438 175.613 12.750 C 176.015 12.063 175.289 12.400 174.000 13.500 C 172.584 14.708 171.990 14.906 172.500 14.000 C 173.010 13.094 172.416 13.292 171.000 14.500 C 169.605 15.690 169.006 15.893 169.520 15.000 C 170.237 13.756 170.122 13.712 168.850 14.741 C 168.006 15.424 167.020 15.687 166.658 15.325 C 166.296 14.963 166.000 15.156 166.000 15.754 C 166.000 16.706 161.075 18.396 159.426 18.009 C 159.091 17.931 158.249 18.645 157.554 19.596 C 156.774 20.662 155.639 21.075 154.593 20.674 C 153.589 20.289 153.146 20.426 153.507 21.011 C 153.843 21.555 153.247 22.000 152.181 22.000 C 151.116 22.000 149.685 22.675 149.000 23.500 C 148.315 24.325 146.937 25.000 145.937 25.000 C 144.936 25.000 143.761 25.563 143.324 26.250 C 142.721 27.199 142.527 27.208 142.515 26.286 C 142.505 25.454 142.030 25.370 141.000 26.021 C 140.175 26.543 139.950 26.990 140.500 27.015 C 141.050 27.040 140.709 27.521 139.742 28.085 C 138.775 28.648 137.468 28.789 136.838 28.400 C 136.078 27.930 135.967 28.137 136.510 29.015 C 137.109 29.985 136.868 30.164 135.612 29.681 C 134.663 29.317 134.150 29.434 134.464 29.942 C 135.134 31.025 133.843 31.953 130.867 32.526 C 129.689 32.752 127.916 33.671 126.926 34.567 C 125.926 35.472 124.585 35.861 123.909 35.443 C 123.179 34.993 122.949 35.108 123.334 35.732 C 123.688 36.304 123.195 36.977 122.239 37.227 C 121.282 37.477 120.050 37.814 119.500 37.975 C 118.950 38.137 117.912 39.108 117.193 40.134 C 116.475 41.160 115.060 42.000 114.050 42.000 C 113.040 42.000 111.930 42.739 111.583 43.643 C 111.237 44.547 110.626 44.959 110.226 44.560 C 109.827 44.160 109.499 44.433 109.497 45.167 C 109.496 45.900 108.674 46.503 107.672 46.508 C 106.669 46.512 106.146 46.813 106.510 47.177 C 106.874 47.540 106.233 48.340 105.086 48.954 C 103.939 49.568 102.944 49.830 102.875 49.535 C 102.806 49.241 102.687 49.338 102.610 49.750 C 102.267 51.584 100.694 53.097 99.577 52.668 C 98.906 52.410 97.812 53.072 97.146 54.139 C 96.480 55.205 95.571 55.853 95.126 55.578 C 94.682 55.303 93.336 56.407 92.135 58.031 C 90.934 59.655 89.625 60.875 89.226 60.742 C 88.827 60.609 88.500 60.813 88.500 61.194 C 88.500 62.625 81.517 69.029 80.417 68.607 C 78.996 68.061 67.676 79.342 68.658 80.325 C 69.050 80.716 67.599 82.850 65.435 85.067 C 63.271 87.283 61.500 88.556 61.500 87.894 C 61.500 87.142 61.017 87.274 60.208 88.249 C 59.153 89.521 59.153 89.885 60.208 90.242 C 60.953 90.493 60.032 91.488 58.036 92.589 C 56.131 93.640 55.118 94.387 55.786 94.250 C 56.454 94.112 57.000 94.380 57.000 94.845 C 57.000 96.235 53.395 99.062 52.616 98.283 C 52.219 97.886 52.164 98.263 52.493 99.120 C 53.047 100.565 51.491 102.718 49.750 102.915 C 49.338 102.962 49.241 103.000 49.535 103.000 C 49.830 103.000 49.568 103.939 48.954 105.086 C 48.340 106.233 47.540 106.874 47.177 106.510 C 46.813 106.146 46.512 106.669 46.508 107.672 C 46.503 108.674 45.900 109.496 45.167 109.497 C 44.433 109.499 44.160 109.827 44.560 110.226 C 44.959 110.626 44.547 111.237 43.643 111.583 C 42.739 111.930 42.000 112.841 42.000 113.607 C 42.000 114.373 41.523 115.000 40.941 115.000 C 40.359 115.000 40.162 115.453 40.504 116.007 C 40.847 116.561 40.452 117.273 39.627 117.590 C 38.747 117.927 38.377 118.820 38.733 119.747 C 39.102 120.709 38.929 121.074 38.292 120.680 C 37.684 120.305 36.987 121.314 36.633 123.083 C 36.268 124.909 35.591 125.865 34.945 125.466 C 34.350 125.098 33.979 125.405 34.117 126.150 C 34.498 128.199 31.171 135.224 30.126 134.578 C 29.032 133.902 27.750 136.786 28.560 138.097 C 28.872 138.602 28.426 139.283 27.569 139.612 C 26.712 139.941 26.260 140.612 26.565 141.105 C 26.869 141.597 26.615 142.000 26.000 142.000 C 25.385 142.000 25.160 142.450 25.500 143.000 C 25.840 143.550 25.684 144.000 25.153 144.000 C 24.622 144.000 24.423 144.900 24.710 146.000 C 25.014 147.162 24.741 148.000 24.058 148.000 C 23.411 148.000 23.160 148.450 23.500 149.000 C 23.840 149.550 23.615 150.000 23.000 150.000 C 22.385 150.000 22.131 150.403 22.435 150.895 C 22.740 151.388 22.324 152.046 21.511 152.357 C 20.605 152.705 20.284 153.575 20.679 154.607 C 21.045 155.560 20.713 156.768 19.912 157.395 C 19.136 158.003 18.343 159.400 18.150 160.500 C 17.958 161.600 17.283 162.831 16.650 163.235 C 16.018 163.639 15.893 163.976 16.372 163.985 C 16.852 163.993 16.627 164.761 15.872 165.692 C 14.689 167.151 14.707 167.265 16.000 166.520 C 17.067 165.906 16.994 166.235 15.748 167.659 C 14.784 168.761 14.276 169.942 14.618 170.285 C 15.707 171.373 14.025 176.134 12.816 175.386 C 12.155 174.978 11.968 175.139 12.362 175.776 C 12.731 176.373 12.595 177.132 12.060 177.463 C 11.525 177.794 11.323 178.679 11.612 179.431 C 11.900 180.183 11.675 181.083 11.112 181.431 C 10.548 181.779 10.323 182.679 10.612 183.431 C 10.900 184.183 10.648 185.099 10.052 185.468 C 9.455 185.837 9.238 186.577 9.570 187.113 C 9.901 187.649 9.571 188.829 8.836 189.736 C 7.883 190.911 7.859 191.168 8.750 190.633 C 9.445 190.215 10.000 190.366 10.000 190.972 C 10.000 191.572 9.335 192.318 8.521 192.630 C 7.441 193.045 7.194 194.152 7.605 196.738 C 7.984 199.121 7.732 200.548 6.834 201.103 C 6.100 201.556 5.461 203.181 5.414 204.714 C 5.366 206.246 4.952 208.361 4.494 209.414 C 3.901 210.775 3.998 211.119 4.830 210.605 C 6.514 209.564 6.299 212.558 4.564 214.293 C 3.758 215.099 3.505 216.117 3.987 216.614 C 4.466 217.109 4.238 219.245 3.470 221.455 C 2.626 223.882 2.324 227.166 2.688 229.955 C 3.018 232.481 2.899 234.143 2.421 233.696 C 1.941 233.249 1.526 240.237 1.485 249.446 C 1.444 258.551 1.772 266.000 2.214 266.000 C 2.657 266.000 3.014 267.913 3.009 270.250 C 2.993 277.013 3.664 283.002 4.360 282.307 C 4.712 281.955 5.000 282.605 5.000 283.752 C 5.000 284.898 5.301 286.622 5.670 287.582 C 6.140 288.806 5.975 289.103 5.119 288.573 C 4.286 288.058 4.390 288.998 5.447 291.527 C 6.299 293.567 6.800 296.317 6.561 297.638 C 6.321 298.960 6.541 299.784 7.049 299.470 C 7.563 299.152 7.815 300.252 7.618 301.949 C 7.422 303.627 7.706 305.000 8.248 305.000 C 8.790 305.000 8.998 305.900 8.711 306.999 C 8.423 308.098 8.614 309.261 9.135 309.583 C 9.655 309.905 9.808 311.030 9.473 312.084 C 9.110 313.230 9.337 314.000 10.040 314.000 C 10.686 314.000 10.955 314.675 10.638 315.500 C 10.322 316.325 10.547 317.000 11.138 317.000 C 11.730 317.000 11.960 317.662 11.649 318.471 C 11.339 319.280 11.741 320.598 12.542 321.400 C 14.330 323.187 14.409 324.080 12.750 323.757 C 12.063 323.623 12.288 323.896 13.250 324.364 C 15.254 325.337 15.627 327.122 13.750 326.757 C 13.063 326.623 13.288 326.896 14.250 327.364 C 16.254 328.337 16.627 330.122 14.750 329.757 C 14.063 329.623 14.255 329.883 15.177 330.336 C 16.120 330.798 16.695 331.990 16.489 333.058 C 16.288 334.103 16.553 335.224 17.078 335.548 C 17.603 335.873 17.803 336.510 17.522 336.964 C 17.241 337.419 17.662 338.040 18.458 338.345 C 19.287 338.664 19.734 339.787 19.504 340.977 C 19.284 342.119 19.531 342.790 20.052 342.468 C 20.574 342.146 21.069 342.696 21.152 343.691 C 21.347 345.998 21.695 347.500 22.037 347.500 C 22.184 347.500 22.357 347.950 22.421 348.500 C 22.486 349.050 22.980 349.613 23.519 349.750 C 24.518 350.005 24.911 351.922 24.000 352.095 C 23.725 352.148 23.845 352.404 24.266 352.665 C 24.688 352.925 24.774 353.557 24.457 354.069 C 24.141 354.581 24.385 355.000 25.000 355.000 C 25.615 355.000 25.840 355.450 25.500 356.000 C 25.160 356.550 25.314 357.000 25.842 357.000 C 27.198 357.000 31.340 364.140 31.220 366.272 C 31.161 367.329 31.568 367.767 32.230 367.358 C 32.955 366.910 33.112 367.267 32.681 368.388 C 32.309 369.357 32.431 369.852 32.961 369.524 C 34.056 368.848 36.234 372.432 35.298 373.369 C 34.951 373.716 35.178 374.000 35.802 374.000 C 36.426 374.000 36.671 374.693 36.346 375.541 C 36.021 376.388 36.147 377.010 36.627 376.922 C 38.681 376.548 39.388 377.103 38.000 378.000 C 36.728 378.822 36.775 378.972 38.309 378.985 C 39.333 378.993 39.832 379.463 39.459 380.067 C 39.096 380.653 39.632 381.764 40.650 382.535 C 41.667 383.306 42.094 383.951 41.597 383.968 C 41.100 383.986 41.698 384.871 42.926 385.936 C 44.154 387.001 45.263 388.588 45.392 389.463 C 45.520 390.339 45.965 391.019 46.380 390.974 C 47.223 390.884 52.930 397.790 53.125 399.138 C 53.194 399.612 53.306 400.563 53.375 401.250 C 53.444 401.938 54.043 402.500 54.707 402.500 C 56.358 402.500 59.239 406.471 57.669 406.584 C 57.026 406.630 57.676 407.158 59.114 407.757 C 61.377 408.701 62.730 410.380 63.539 413.250 C 63.832 414.292 64.263 414.663 64.118 413.750 C 64.053 413.338 64.450 413.000 65.000 413.000 C 65.550 413.000 66.000 413.417 66.000 413.927 C 66.000 414.436 70.151 419.049 75.224 424.177 C 80.298 429.304 84.481 433.950 84.520 434.500 C 84.559 435.050 85.195 435.367 85.932 435.204 C 87.500 434.859 92.159 438.934 91.470 440.048 C 91.213 440.464 92.386 441.287 94.076 441.877 C 96.064 442.570 96.889 443.371 96.411 444.144 C 95.910 444.955 96.197 445.138 97.304 444.714 C 98.863 444.115 100.452 445.466 100.485 447.417 C 100.493 447.921 101.175 448.518 102.000 448.743 C 103.333 449.107 103.333 449.034 102.000 448.091 C 101.175 447.508 101.007 447.024 101.628 447.015 C 102.843 446.999 105.654 449.918 104.622 450.125 C 104.018 450.246 105.130 450.622 106.847 450.875 C 108.458 451.113 111.961 454.706 111.262 455.404 C 110.877 455.790 111.335 455.809 112.280 455.446 C 113.467 454.991 114.000 455.284 114.000 456.393 C 114.000 457.277 114.338 457.951 114.750 457.892 C 116.463 457.645 119.936 459.294 119.430 460.114 C 119.128 460.601 119.584 461.000 120.441 461.000 C 121.298 461.000 122.000 461.436 122.000 461.969 C 122.000 462.501 122.749 462.650 123.664 462.299 C 124.726 461.891 125.085 462.054 124.655 462.749 C 124.250 463.405 125.206 464.106 127.063 464.514 C 128.757 464.886 129.860 465.473 129.514 465.819 C 129.168 466.165 129.922 466.460 131.189 466.474 C 132.455 466.488 133.494 467.100 133.496 467.833 C 133.498 468.567 133.796 468.871 134.157 468.510 C 134.918 467.748 141.160 470.749 142.208 472.381 C 142.598 472.987 143.498 473.530 144.208 473.589 C 147.579 473.867 148.079 474.063 147.558 474.907 C 147.249 475.405 147.898 475.578 148.999 475.290 C 150.118 474.997 151.000 475.259 151.000 475.883 C 151.000 476.498 151.338 476.947 151.750 476.882 C 153.584 476.592 155.273 477.060 154.648 477.686 C 154.271 478.063 154.964 478.524 156.188 478.711 C 157.412 478.898 158.658 479.377 158.957 479.775 C 159.255 480.174 160.625 480.649 162.000 480.831 C 163.375 481.013 165.990 482.026 167.810 483.082 C 169.631 484.139 170.842 484.553 170.501 484.002 C 170.161 483.451 170.310 483.000 170.834 483.000 C 171.358 483.000 172.002 483.563 172.266 484.250 C 172.530 484.938 172.803 485.275 172.873 485.000 C 172.993 484.527 173.584 484.499 176.059 484.850 C 176.641 484.933 176.857 485.422 176.539 485.937 C 176.210 486.469 177.084 486.671 178.560 486.403 C 180.177 486.110 180.921 486.318 180.528 486.954 C 180.154 487.559 180.530 487.734 181.448 487.382 C 182.302 487.054 183.000 487.270 183.000 487.862 C 183.000 488.453 183.629 488.696 184.399 488.400 C 185.168 488.105 186.083 488.325 186.431 488.888 C 186.779 489.452 187.725 489.659 188.532 489.349 C 189.339 489.040 190.000 489.237 190.000 489.787 C 190.000 490.740 191.212 490.896 198.788 490.921 C 200.596 490.927 202.765 491.623 203.609 492.466 C 204.453 493.310 205.673 493.993 206.321 493.985 C 207.012 493.976 206.879 493.568 206.000 493.000 C 203.877 491.628 205.692 491.764 208.316 493.173 C 210.535 494.365 215.153 494.928 222.665 494.921 C 224.956 494.918 227.103 495.358 227.437 495.898 C 227.798 496.482 230.871 496.643 235.022 496.295 C 240.186 495.862 242.000 496.029 242.000 496.937 C 242.000 497.852 243.842 498.002 249.250 497.525 C 253.238 497.173 259.650 496.798 263.500 496.691 C 267.350 496.585 271.040 496.148 271.700 495.721 C 272.359 495.294 274.609 494.953 276.700 494.963 C 284.116 494.998 287.708 494.483 289.314 493.152 C 290.208 492.411 293.766 491.601 297.220 491.353 C 307.159 490.638 308.106 490.444 309.065 488.930 C 309.704 487.920 309.974 487.869 309.985 488.758 C 309.995 489.646 310.516 489.741 311.750 489.081 C 314.413 487.658 317.402 486.660 318.355 486.876 C 318.826 486.983 319.781 486.597 320.479 486.018 C 321.176 485.439 322.552 485.275 323.537 485.653 C 324.746 486.116 325.099 485.969 324.623 485.199 C 323.834 483.922 328.259 482.424 329.874 483.422 C 330.417 483.758 331.149 483.568 331.500 483.000 C 331.851 482.432 332.526 482.207 333.000 482.500 C 333.474 482.793 334.149 482.568 334.500 482.000 C 334.851 481.432 335.510 481.197 335.964 481.478 C 336.419 481.759 337.040 481.338 337.345 480.542 C 337.659 479.726 338.786 479.266 339.934 479.487 C 341.088 479.709 342.355 479.189 342.860 478.285 C 343.405 477.312 344.405 476.942 345.428 477.334 C 346.350 477.688 346.858 477.579 346.558 477.093 C 346.257 476.607 346.707 475.943 347.558 475.616 C 348.550 475.235 348.853 475.428 348.404 476.155 C 348.019 476.778 349.121 476.451 350.852 475.428 C 352.583 474.406 354.007 473.103 354.015 472.534 C 354.024 471.965 354.467 472.175 355.000 473.000 C 355.842 474.302 355.971 474.284 355.985 472.858 C 355.999 471.363 359.429 469.702 362.826 469.546 C 363.555 469.512 363.854 469.187 363.490 468.823 C 363.126 468.460 363.822 467.631 365.035 466.981 C 366.488 466.203 367.012 466.172 366.569 466.889 C 366.150 467.566 366.480 467.753 367.442 467.384 C 368.293 467.057 368.692 466.311 368.330 465.725 C 367.913 465.051 368.301 464.902 369.388 465.319 C 370.365 465.694 370.852 465.570 370.519 465.031 C 369.749 463.785 375.732 460.716 377.184 461.614 C 377.873 462.040 378.031 461.859 377.590 461.146 C 376.852 459.951 380.832 457.841 382.250 458.676 C 382.663 458.919 383.000 458.641 383.000 458.059 C 383.000 457.477 383.645 457.000 384.433 457.000 C 385.221 457.000 386.119 456.213 386.430 455.250 C 386.957 453.618 392.251 449.780 394.500 449.400 C 395.050 449.307 395.332 449.179 395.128 449.115 C 394.923 449.052 395.332 448.305 396.038 447.454 C 396.743 446.604 398.022 446.178 398.880 446.507 C 399.737 446.836 400.137 446.803 399.767 446.434 C 399.398 446.064 399.717 445.140 400.476 444.381 C 402.145 442.712 403.089 442.602 402.750 444.115 C 402.612 444.728 403.493 443.610 404.707 441.630 C 406.321 438.999 407.374 438.206 408.621 438.685 C 409.679 439.091 410.084 438.944 409.686 438.301 C 409.333 437.729 411.846 434.860 415.272 431.925 C 418.697 428.989 420.607 427.693 419.516 429.044 C 417.918 431.021 418.155 430.934 420.730 428.597 C 422.489 427.000 423.650 425.243 423.310 424.692 C 422.970 424.142 423.150 423.975 423.712 424.322 C 424.273 424.669 425.538 424.063 426.521 422.976 C 427.505 421.889 427.960 421.000 427.533 421.000 C 427.105 421.000 427.373 420.256 428.128 419.346 C 428.937 418.372 429.551 418.166 429.625 418.846 C 429.755 420.049 430.160 419.649 430.375 418.103 C 430.632 416.258 437.163 408.983 438.063 409.539 C 438.578 409.857 439.000 409.247 439.000 408.181 C 439.000 407.116 439.675 405.685 440.500 405.000 C 441.325 404.315 442.000 404.125 442.000 404.578 C 442.000 405.030 442.540 404.860 443.200 404.200 C 444.133 403.267 444.078 402.991 442.950 402.960 C 442.152 402.938 442.751 402.242 444.280 401.412 C 445.808 400.583 446.807 399.497 446.499 398.998 C 445.711 397.724 452.975 387.866 454.161 388.600 C 454.696 388.930 454.991 388.368 454.817 387.350 C 454.634 386.282 455.028 385.606 455.750 385.750 C 456.438 385.887 457.000 385.325 457.000 384.500 C 457.000 383.675 457.477 383.000 458.059 383.000 C 458.641 383.000 458.840 382.550 458.500 382.000 C 458.160 381.450 458.359 381.000 458.941 381.000 C 459.523 381.000 460.000 380.073 460.000 378.941 C 460.000 377.639 460.425 377.144 461.155 377.595 C 461.862 378.033 462.038 377.870 461.608 377.175 C 460.647 375.619 462.837 371.781 464.205 372.627 C 464.871 373.038 465.026 372.851 464.595 372.155 C 464.203 371.520 464.434 371.000 465.108 371.000 C 465.782 371.000 466.037 370.704 465.675 370.342 C 465.313 369.980 465.519 369.080 466.131 368.342 C 466.744 367.604 466.949 367.000 466.587 367.000 C 466.226 367.000 466.418 366.087 467.015 364.972 C 467.612 363.857 468.523 363.205 469.039 363.524 C 469.555 363.843 469.725 363.446 469.416 362.642 C 468.703 360.783 471.770 354.740 473.031 355.519 C 473.551 355.841 473.737 355.478 473.443 354.712 C 473.149 353.947 473.674 352.686 474.608 351.910 C 475.919 350.822 475.987 350.480 474.904 350.414 C 473.942 350.354 474.049 350.085 475.244 349.559 C 476.204 349.136 476.740 348.388 476.435 347.895 C 476.131 347.403 476.316 347.000 476.847 347.000 C 477.378 347.000 477.594 346.162 477.326 345.138 C 477.058 344.114 477.438 343.046 478.169 342.765 C 478.901 342.484 479.300 342.085 479.056 341.877 C 478.398 341.318 480.315 337.000 481.222 337.000 C 481.650 337.000 481.947 336.663 481.882 336.250 C 481.816 335.838 481.873 335.163 482.007 334.750 C 482.140 334.338 482.363 333.550 482.500 333.000 C 482.638 332.450 482.833 331.888 482.934 331.750 C 483.035 331.613 483.243 329.925 483.395 328.000 C 483.548 326.075 484.713 322.250 485.984 319.500 C 488.136 314.845 488.648 313.439 489.341 310.279 C 489.488 309.607 489.891 308.776 490.235 308.431 C 490.580 308.086 490.618 307.168 490.319 306.389 C 490.021 305.611 490.262 304.389 490.856 303.674 C 491.449 302.958 491.712 301.142 491.439 299.637 C 491.166 298.132 491.279 296.361 491.691 295.701 C 492.102 295.040 492.315 293.544 492.164 292.376 C 492.013 291.208 492.590 289.553 493.445 288.698 C 495.150 286.993 495.552 285.541 494.064 286.460 C 493.510 286.803 493.537 285.706 494.130 283.769 C 495.119 280.540 495.475 277.722 496.504 265.000 C 497.493 252.765 496.949 227.384 495.724 228.610 C 495.379 228.955 495.231 227.271 495.396 224.868 C 495.560 222.466 495.095 218.700 494.362 216.500 C 492.756 211.679 492.684 210.687 494.000 211.500 C 494.550 211.840 495.000 211.668 495.000 211.118 C 495.000 210.568 494.519 209.821 493.932 209.458 C 493.344 209.095 493.114 208.145 493.420 207.347 C 493.761 206.459 493.552 206.159 492.881 206.573 C 492.150 207.025 492.010 206.544 492.460 205.125 C 492.871 203.831 492.701 203.000 492.027 203.000 C 491.403 203.000 490.944 201.361 490.976 199.250 C 491.046 194.614 490.636 191.838 489.644 190.232 C 489.225 189.555 489.141 188.581 489.457 188.069 C 489.774 187.557 489.545 186.837 488.948 186.468 C 488.352 186.099 488.093 185.201 488.372 184.472 C 488.652 183.743 488.237 182.612 487.450 181.959 C 486.546 181.208 486.230 179.801 486.591 178.136 C 486.963 176.417 486.847 175.944 486.256 176.775 C 485.609 177.687 485.043 177.047 484.269 174.525 C 483.464 171.901 483.483 170.996 484.344 170.985 C 485.155 170.974 485.176 170.751 484.414 170.235 C 483.179 169.399 480.785 163.000 481.707 163.000 C 482.039 163.000 481.453 162.023 480.405 160.828 C 479.180 159.432 479.035 158.949 480.000 159.475 C 480.825 159.926 480.488 159.310 479.250 158.108 C 476.929 155.853 476.256 153.810 477.979 154.250 C 478.517 154.387 477.820 152.805 476.431 150.732 C 475.041 148.660 474.177 146.523 474.511 145.982 C 474.845 145.442 474.615 145.000 474.000 145.000 C 473.385 145.000 473.160 144.550 473.500 144.000 C 473.840 143.450 473.653 143.000 473.085 143.000 C 472.025 143.000 468.878 137.681 469.108 136.280 C 469.459 134.154 468.885 132.953 467.830 133.605 C 467.043 134.091 466.869 133.783 467.299 132.664 C 467.663 131.714 467.450 131.000 466.802 131.000 C 466.178 131.000 465.958 130.708 466.315 130.352 C 466.672 129.995 466.030 128.894 464.890 127.905 C 463.683 126.857 463.128 125.602 463.563 124.899 C 464.009 124.177 463.889 123.951 463.264 124.337 C 462.689 124.692 461.506 123.895 460.635 122.566 C 459.447 120.752 459.357 120.026 460.276 119.654 C 461.186 119.285 461.164 119.138 460.191 119.079 C 459.471 119.036 459.140 118.582 459.456 118.072 C 459.771 117.562 459.063 116.837 457.882 116.463 C 456.198 115.928 456.033 115.593 457.118 114.906 C 458.197 114.223 458.092 114.027 456.643 114.015 C 455.378 114.005 454.976 113.505 455.382 112.448 C 455.709 111.594 455.604 111.127 455.148 111.409 C 453.929 112.162 449.787 106.154 450.609 104.824 C 451.011 104.174 450.865 103.965 450.268 104.334 C 448.855 105.208 446.644 102.386 447.568 100.889 C 448.025 100.151 447.885 99.953 447.205 100.373 C 446.223 100.980 444.863 99.410 443.849 96.500 C 443.657 95.950 443.202 95.599 442.838 95.721 C 442.473 95.842 441.619 94.492 440.939 92.721 C 440.259 90.949 439.657 90.099 439.601 90.831 C 439.461 92.671 434.930 87.731 434.582 85.358 C 434.432 84.336 433.902 83.498 433.405 83.496 C 432.154 83.491 415.500 66.762 415.500 65.511 C 415.500 64.955 414.941 64.500 414.257 64.500 C 413.573 64.500 411.394 63.150 409.415 61.500 C 407.436 59.850 406.421 58.493 407.159 58.485 C 408.204 58.473 408.224 58.294 407.250 57.676 C 406.563 57.239 406.000 57.149 406.000 57.476 C 406.000 57.803 405.104 57.591 404.010 57.005 C 402.915 56.420 402.128 55.412 402.260 54.767 C 402.392 54.121 401.601 53.572 400.503 53.547 C 399.404 53.521 398.504 52.900 398.503 52.167 C 398.501 51.433 398.173 51.160 397.774 51.559 C 396.745 52.588 393.888 49.990 394.666 48.732 C 395.039 48.128 394.825 47.990 394.155 48.405 C 393.520 48.797 393.000 48.641 393.000 48.059 C 393.000 47.477 392.663 47.113 392.250 47.250 C 391.837 47.388 391.275 47.059 391.000 46.519 C 390.725 45.980 389.825 45.530 389.000 45.519 C 388.175 45.509 387.613 44.938 387.750 44.250 C 387.887 43.563 387.325 43.000 386.500 43.000 C 385.675 43.000 385.000 42.564 385.000 42.031 C 385.000 41.499 384.325 41.322 383.500 41.638 C 382.550 42.003 382.000 41.625 382.000 40.607 C 382.000 39.723 381.663 39.053 381.250 39.118 C 380.838 39.184 380.163 39.127 379.750 38.993 C 379.338 38.860 378.550 38.694 378.000 38.625 C 377.450 38.556 376.888 38.050 376.750 37.500 C 376.613 36.950 376.050 36.473 375.500 36.441 C 372.863 36.285 370.000 34.719 370.000 33.433 C 370.000 32.645 369.663 32.071 369.250 32.159 C 367.307 32.570 359.936 28.913 360.586 27.861 C 360.871 27.400 360.332 27.319 359.388 27.681 C 358.231 28.125 357.905 27.962 358.388 27.181 C 358.873 26.396 358.523 26.232 357.302 26.671 C 356.311 27.027 355.847 26.937 356.272 26.471 C 356.696 26.005 356.414 25.531 355.645 25.418 C 352.560 24.966 350.000 23.812 350.000 22.874 C 350.000 22.328 349.602 22.128 349.115 22.429 C 348.033 23.097 341.676 20.990 342.448 20.219 C 342.750 19.917 341.839 19.546 340.424 19.395 C 339.008 19.244 337.165 18.552 336.328 17.857 C 335.490 17.162 333.851 16.448 332.686 16.270 C 331.521 16.092 329.556 15.284 328.319 14.473 C 327.082 13.663 325.717 13.007 325.285 13.015 C 324.853 13.024 325.175 13.467 326.000 14.000 C 326.861 14.556 327.002 14.976 326.332 14.985 C 324.281 15.012 321.994 13.818 322.507 12.988 C 322.780 12.547 322.032 12.440 320.845 12.751 C 319.377 13.135 318.914 12.949 319.396 12.169 C 319.855 11.426 319.558 11.232 318.552 11.618 C 317.698 11.946 317.000 11.778 317.000 11.246 C 317.000 10.713 315.808 10.505 314.351 10.784 C 312.537 11.130 311.924 10.933 312.403 10.156 C 312.843 9.444 312.564 9.230 311.653 9.580 C 310.855 9.886 309.931 9.698 309.600 9.162 C 309.269 8.626 308.098 8.423 306.999 8.711 C 305.900 8.998 305.000 8.827 305.000 8.331 C 305.000 7.504 303.386 7.146 298.770 6.947 C 297.818 6.906 296.749 6.403 296.395 5.830 C 295.967 5.138 295.492 5.204 294.984 6.026 C 294.393 6.982 293.685 6.893 291.886 5.633 C 290.604 4.735 289.093 4.007 288.527 4.015 C 287.962 4.024 288.175 4.492 289.000 5.057 C 291.166 6.538 281.439 5.081 277.121 3.277 C 275.031 2.404 273.475 2.224 273.105 2.814 C 272.746 3.384 270.871 3.461 268.500 3.003 C 266.300 2.578 265.175 2.131 266.000 2.011 C 266.825 1.890 259.547 1.713 249.827 1.616 C 240.107 1.520 232.368 1.786 232.629 2.208 M 228.500 124.000 C 226.300 124.394 238.450 124.707 255.500 124.695 C 273.237 124.683 284.147 124.358 281.000 123.936 C 277.975 123.530 280.900 123.461 287.500 123.782 C 294.100 124.103 303.475 124.396 308.333 124.433 C 313.191 124.470 316.836 124.830 316.433 125.233 C 316.030 125.637 317.817 125.752 320.404 125.491 C 323.341 125.194 324.881 125.383 324.503 125.996 C 324.157 126.555 324.564 126.721 325.448 126.382 C 326.302 126.054 327.000 126.270 327.000 126.862 C 327.000 127.453 327.675 127.678 328.500 127.362 C 329.325 127.045 330.000 127.311 330.000 127.952 C 330.000 128.593 330.450 128.840 331.000 128.500 C 331.550 128.160 332.000 128.344 332.000 128.910 C 332.000 129.475 332.617 129.700 333.371 129.411 C 334.125 129.122 335.443 129.586 336.300 130.442 C 337.156 131.299 338.339 132.000 338.929 132.000 C 339.518 132.000 340.000 132.436 340.000 132.969 C 340.000 133.501 340.675 133.678 341.500 133.362 C 342.432 133.004 343.000 133.368 343.000 134.323 C 343.000 135.169 344.013 136.005 345.250 136.180 C 346.488 136.356 347.364 136.867 347.198 137.316 C 346.830 138.313 351.370 142.000 352.967 142.000 C 353.600 142.000 353.840 142.450 353.500 143.000 C 353.160 143.550 353.322 144.000 353.859 144.000 C 354.397 144.000 355.779 145.524 356.930 147.386 C 358.081 149.249 359.919 151.007 361.015 151.294 C 362.343 151.641 362.804 152.347 362.397 153.407 C 361.994 154.457 362.334 155.000 363.393 155.000 C 364.349 155.000 365.000 155.835 365.000 157.059 C 365.000 158.191 365.450 158.840 366.000 158.500 C 366.550 158.160 367.000 158.584 367.000 159.441 C 367.000 160.298 367.498 161.000 368.107 161.000 C 368.716 161.000 368.969 161.638 368.670 162.417 C 368.371 163.197 368.820 164.101 369.667 164.426 C 370.532 164.758 370.957 165.670 370.635 166.508 C 370.320 167.329 370.525 168.000 371.090 168.000 C 371.656 168.000 371.869 168.403 371.565 168.895 C 371.260 169.388 371.731 170.066 372.609 170.404 C 373.550 170.764 373.964 171.652 373.615 172.560 C 373.276 173.444 373.446 173.843 374.011 173.493 C 374.949 172.913 375.168 173.347 375.400 176.250 C 375.455 176.938 375.881 177.779 376.348 178.119 C 376.814 178.460 377.264 179.922 377.348 181.369 C 377.431 182.815 377.894 183.999 378.375 183.999 C 378.856 184.000 378.969 185.463 378.626 187.250 C 378.150 189.735 378.258 190.147 379.088 189.000 C 379.965 187.788 380.079 187.932 379.681 189.749 C 379.410 190.986 379.600 192.253 380.105 192.565 C 380.918 193.067 381.065 194.370 380.941 200.000 C 380.923 200.825 380.683 204.200 380.407 207.500 C 380.046 211.827 380.197 213.082 380.947 212.000 C 381.695 210.921 381.805 211.902 381.339 215.500 C 380.984 218.250 380.254 220.787 379.718 221.138 C 379.182 221.489 379.053 222.277 379.431 222.888 C 379.809 223.500 379.656 224.000 379.090 224.000 C 378.525 224.000 378.315 224.658 378.624 225.463 C 379.453 227.624 376.058 237.154 374.747 236.344 C 374.066 235.923 373.887 236.262 374.267 237.253 C 374.634 238.210 374.208 239.129 373.187 239.581 C 371.819 240.186 371.784 240.360 373.000 240.500 C 374.278 240.647 374.266 240.777 372.917 241.379 C 372.046 241.768 371.333 242.643 371.333 243.324 C 371.333 244.989 367.994 250.000 366.885 250.000 C 366.398 250.000 366.053 250.338 366.118 250.750 C 366.452 252.863 365.878 254.042 364.830 253.395 C 364.059 252.919 363.864 253.204 364.258 254.230 C 364.625 255.187 363.835 256.695 362.208 258.144 C 360.156 259.970 359.891 260.050 361.030 258.500 C 362.388 256.653 362.367 256.604 360.761 257.863 C 359.805 258.613 359.257 259.607 359.545 260.072 C 360.123 261.008 354.212 267.053 353.051 266.713 C 352.650 266.596 351.084 267.964 349.570 269.753 C 348.056 271.542 346.339 272.710 345.754 272.348 C 345.169 271.987 344.968 272.139 345.306 272.686 C 345.645 273.234 344.477 274.740 342.711 276.032 C 340.945 277.325 339.950 277.713 340.500 276.894 C 341.050 276.075 340.722 276.253 339.770 277.288 C 338.819 278.324 337.344 279.273 336.493 279.398 C 335.642 279.523 334.845 280.047 334.723 280.563 C 334.600 281.078 333.825 281.501 333.000 281.501 C 332.175 281.502 331.500 281.952 331.500 282.501 C 331.500 283.051 331.050 283.561 330.500 283.635 C 329.950 283.709 329.725 283.835 330.000 283.915 C 330.275 283.995 329.709 284.521 328.742 285.085 C 327.775 285.648 326.538 285.832 325.992 285.495 C 325.446 285.158 324.993 285.696 324.985 286.691 C 324.972 288.225 324.822 288.272 324.000 287.000 C 323.157 285.695 323.029 285.712 323.015 287.129 C 322.999 288.872 318.106 291.324 314.000 291.647 C 312.625 291.755 286.413 291.893 255.750 291.954 C 209.761 292.045 200.000 292.300 200.000 293.410 C 200.000 294.150 199.358 295.288 198.573 295.939 C 197.589 296.756 197.327 298.241 197.729 300.717 C 198.184 303.524 198.025 304.134 197.002 303.501 C 196.117 302.954 195.932 303.080 196.432 303.889 C 196.839 304.548 196.571 305.829 195.836 306.736 C 194.718 308.116 194.721 308.251 195.857 307.567 C 196.942 306.913 197.069 307.425 196.491 310.125 C 196.094 311.981 195.375 313.991 194.893 314.592 C 194.411 315.193 194.313 315.980 194.675 316.342 C 195.037 316.704 194.822 317.000 194.198 317.000 C 193.574 317.000 193.324 317.681 193.643 318.513 C 193.963 319.345 193.727 320.624 193.121 321.355 C 192.514 322.086 192.303 322.969 192.651 323.318 C 193.000 323.666 192.658 324.724 191.893 325.668 C 190.777 327.042 190.769 327.222 191.850 326.571 C 192.972 325.896 192.983 326.159 191.917 328.129 C 191.212 329.433 190.724 331.738 190.833 333.250 C 190.942 334.763 190.617 336.000 190.110 336.000 C 189.602 336.000 189.409 336.849 189.681 337.887 C 189.952 338.925 189.727 340.051 189.181 340.388 C 188.635 340.726 188.410 341.851 188.681 342.888 C 188.952 343.926 188.705 345.064 188.131 345.419 C 187.557 345.774 187.343 346.730 187.656 347.545 C 187.968 348.359 187.727 349.624 187.121 350.355 C 186.514 351.086 186.284 351.950 186.609 352.275 C 186.934 352.601 186.857 353.422 186.437 354.101 C 186.018 354.780 185.600 357.822 185.510 360.860 C 185.419 363.899 184.865 366.545 184.279 366.740 C 183.692 366.936 183.460 368.045 183.764 369.204 C 184.100 370.490 183.920 371.068 183.302 370.687 C 182.681 370.303 182.472 371.016 182.761 372.528 C 183.020 373.886 182.505 376.106 181.616 377.463 C 179.679 380.420 179.555 381.392 181.250 380.348 C 182.042 379.860 181.935 380.479 180.958 382.039 C 180.110 383.392 179.520 385.625 179.647 387.000 C 179.774 388.375 179.611 390.175 179.285 391.000 C 178.960 391.825 178.606 392.950 178.499 393.500 C 178.392 394.050 178.184 394.500 178.037 394.500 C 177.890 394.500 177.709 395.175 177.635 396.000 C 177.519 397.289 173.394 397.537 148.250 397.765 L 119.000 398.030 118.985 395.765 C 118.972 393.936 118.783 393.789 118.000 395.000 C 117.467 395.825 117.024 396.024 117.015 395.441 C 117.007 394.859 117.661 393.509 118.468 392.441 C 119.276 391.374 119.944 390.050 119.953 389.500 C 119.962 388.950 119.533 389.175 119.000 390.000 C 118.467 390.825 118.032 391.050 118.035 390.500 C 118.040 389.061 120.783 379.403 121.017 380.000 C 121.124 380.275 121.130 379.263 121.031 377.750 C 120.931 376.238 121.360 375.000 121.984 375.000 C 122.608 375.000 122.836 374.543 122.491 373.985 C 121.719 372.736 123.945 362.000 125.357 360.167 C 126.557 358.608 127.061 355.815 126.983 351.168 C 126.948 349.135 127.326 348.083 127.952 348.470 C 128.544 348.836 128.742 348.492 128.420 347.653 C 128.114 346.855 128.325 345.917 128.888 345.569 C 129.452 345.221 129.677 344.321 129.388 343.569 C 129.100 342.817 129.302 341.931 129.838 341.600 C 130.374 341.269 130.590 340.149 130.319 339.112 C 130.048 338.074 130.317 336.922 130.917 336.552 C 131.521 336.178 131.734 334.790 131.395 333.439 C 131.048 332.054 131.222 331.000 131.798 331.000 C 132.356 331.000 132.577 330.100 132.290 329.000 C 131.993 327.867 132.259 327.000 132.902 327.000 C 133.601 327.000 133.807 326.079 133.438 324.609 C 133.108 323.294 133.305 321.930 133.875 321.577 C 134.446 321.224 134.677 320.321 134.388 319.569 C 134.100 318.817 134.344 317.905 134.932 317.542 C 135.519 317.179 135.993 316.346 135.985 315.691 C 135.975 314.975 135.582 315.099 135.000 316.000 C 134.467 316.825 134.024 317.038 134.015 316.473 C 134.007 315.907 134.659 314.504 135.465 313.354 C 136.270 312.204 136.684 311.017 136.384 310.717 C 136.084 310.417 136.369 309.178 137.019 307.965 C 137.814 306.479 137.840 305.981 137.100 306.438 C 136.495 306.812 136.000 306.641 136.000 306.059 C 136.000 305.477 136.436 305.000 136.969 305.000 C 137.501 305.000 137.650 304.251 137.299 303.336 C 136.883 302.253 137.050 301.913 137.778 302.363 C 138.506 302.813 138.752 302.307 138.483 300.910 C 138.256 299.731 138.766 297.419 139.617 295.773 C 140.641 293.793 140.746 293.039 139.928 293.544 C 139.082 294.068 138.945 293.897 139.497 293.005 C 139.940 292.288 140.389 290.531 140.495 289.101 C 140.849 284.313 140.997 283.663 141.597 284.264 C 141.925 284.592 142.308 282.737 142.448 280.143 C 142.588 277.548 143.306 274.317 144.045 272.963 C 144.783 271.608 145.274 269.339 145.136 267.920 C 144.998 266.501 145.567 264.775 146.400 264.083 C 147.419 263.238 147.724 261.871 147.333 259.913 C 146.990 258.202 147.176 257.000 147.781 257.000 C 148.349 257.000 148.577 256.100 148.290 255.000 C 147.984 253.832 148.259 253.000 148.951 253.000 C 149.662 253.000 149.892 252.236 149.527 251.084 C 149.192 250.030 149.367 248.891 149.916 248.552 C 150.464 248.213 150.657 247.270 150.344 246.455 C 150.032 245.641 150.273 244.376 150.879 243.645 C 151.486 242.914 151.697 242.031 151.349 241.682 C 151.000 241.334 151.284 240.362 151.980 239.524 C 152.966 238.336 152.974 238.000 152.014 238.000 C 150.461 238.000 151.536 233.188 153.602 230.895 C 154.397 230.012 154.782 228.595 154.456 227.746 C 154.130 226.897 154.330 225.914 154.899 225.562 C 155.486 225.200 155.665 223.573 155.311 221.806 C 154.895 219.725 155.041 218.907 155.751 219.346 C 156.419 219.759 156.619 219.260 156.290 218.001 C 156.002 216.901 156.241 216.000 156.820 216.000 C 157.441 216.000 157.677 214.664 157.394 212.750 C 157.117 210.872 157.997 205.701 159.478 200.500 C 160.887 195.550 162.168 190.951 162.325 190.279 C 162.481 189.607 162.891 188.776 163.235 188.431 C 163.580 188.086 163.638 187.219 163.363 186.503 C 163.088 185.788 163.325 184.917 163.888 184.569 C 164.452 184.221 164.657 183.270 164.344 182.455 C 164.032 181.641 164.273 180.376 164.879 179.645 C 165.486 178.914 165.697 178.031 165.349 177.682 C 165.000 177.334 165.237 176.419 165.875 175.651 C 166.513 174.882 166.771 173.567 166.449 172.728 C 166.127 171.889 166.344 170.905 166.932 170.542 C 167.519 170.179 168.000 169.432 168.000 168.882 C 168.000 168.332 167.550 168.160 167.000 168.500 C 166.450 168.840 166.000 168.690 166.000 168.166 C 166.000 167.642 166.675 166.955 167.500 166.638 C 168.325 166.322 169.000 165.572 169.000 164.972 C 169.000 164.373 168.513 164.183 167.917 164.551 C 167.322 164.919 167.485 163.933 168.280 162.360 C 169.075 160.787 169.539 158.979 169.310 158.342 C 169.081 157.705 169.349 156.903 169.904 156.560 C 170.459 156.217 170.677 155.321 170.388 154.569 C 170.100 153.817 170.346 152.904 170.935 152.540 C 171.525 152.176 171.732 150.780 171.395 149.439 C 171.006 147.889 171.212 147.000 171.959 147.000 C 172.662 147.000 172.891 146.230 172.527 145.084 C 172.192 144.030 172.345 142.905 172.865 142.583 C 173.386 142.261 173.590 141.149 173.319 140.112 C 173.048 139.074 173.337 137.910 173.961 137.524 C 174.805 137.003 174.796 136.459 173.926 135.411 C 173.282 134.635 173.148 133.998 173.628 133.996 C 174.107 133.993 174.584 132.372 174.686 130.393 C 174.788 128.414 175.069 126.597 175.310 126.356 C 175.808 125.859 182.405 125.399 202.500 124.464 C 210.200 124.106 216.688 123.630 216.917 123.406 C 217.146 123.183 220.746 123.064 224.917 123.142 C 231.285 123.261 231.859 123.399 228.500 124.000 M 163.365 82.627 C 173.741 82.697 182.516 83.147 182.865 83.627 C 183.214 84.107 188.900 84.613 195.500 84.751 C 202.100 84.889 208.175 85.283 209.000 85.626 C 209.825 85.969 212.750 86.155 215.500 86.039 C 218.250 85.923 220.180 86.149 219.789 86.541 C 219.398 86.934 222.698 87.310 227.123 87.377 C 231.547 87.445 234.830 87.838 234.417 88.250 C 234.004 88.663 234.443 89.000 235.392 89.000 C 236.442 89.000 236.839 88.548 236.405 87.845 C 235.984 87.165 236.128 86.961 236.756 87.349 C 237.342 87.712 237.724 88.671 237.605 89.482 C 237.284 91.671 232.866 96.035 231.700 95.315 C 231.145 94.972 230.968 95.139 231.307 95.687 C 231.645 96.235 230.477 98.078 228.711 99.784 L 225.500 102.884 197.278 103.083 C 181.756 103.192 169.295 103.668 169.587 104.141 C 170.079 104.937 169.594 105.122 166.259 105.413 C 165.576 105.472 165.008 105.966 164.997 106.511 C 164.987 107.055 164.420 107.561 163.739 107.635 C 163.057 107.709 162.682 107.821 162.905 107.885 C 163.533 108.063 159.844 111.931 159.131 111.842 C 157.857 111.683 157.040 112.257 158.250 112.461 C 158.993 112.587 158.792 112.985 157.756 113.441 C 156.796 113.864 156.260 114.612 156.565 115.105 C 156.869 115.597 156.566 116.000 155.892 116.000 C 155.218 116.000 154.963 116.296 155.325 116.658 C 155.687 117.020 155.481 117.920 154.869 118.658 C 154.045 119.651 154.060 120.000 154.927 120.000 C 155.765 120.000 155.809 120.499 155.080 121.750 C 154.519 122.713 154.011 123.050 153.949 122.500 C 153.824 121.380 153.051 126.547 152.943 129.230 C 152.904 130.182 152.494 131.195 152.030 131.481 C 151.567 131.768 151.423 132.902 151.711 134.001 C 152.016 135.168 151.741 136.000 151.049 136.000 C 150.338 136.000 150.108 136.764 150.473 137.916 C 150.808 138.970 150.611 140.122 150.037 140.477 C 149.463 140.832 149.256 142.171 149.577 143.452 C 149.899 144.733 149.668 146.087 149.065 146.460 C 148.461 146.833 148.226 147.557 148.543 148.069 C 148.859 148.581 148.766 149.563 148.335 150.250 C 147.529 151.537 147.412 152.060 147.152 155.534 C 146.978 157.867 141.569 161.470 139.843 160.403 C 139.149 159.974 138.962 160.130 139.373 160.795 C 140.207 162.144 136.376 164.358 134.473 163.628 C 133.519 163.262 133.295 163.619 133.738 164.801 C 134.293 166.284 134.160 166.325 132.687 165.128 C 131.588 164.234 131.000 164.146 131.000 164.878 C 131.000 167.424 129.408 165.766 129.197 163.000 C 129.071 161.350 129.383 160.000 129.889 160.000 C 130.395 160.000 130.568 158.200 130.273 156.000 C 129.916 153.340 130.122 152.000 130.887 152.000 C 131.608 152.000 131.809 151.088 131.425 149.557 C 131.088 148.213 131.175 146.526 131.619 145.807 C 132.063 145.089 132.296 143.263 132.138 141.751 C 131.979 140.238 132.342 139.000 132.944 139.000 C 133.613 139.000 133.793 138.024 133.407 136.487 C 133.060 135.105 133.262 133.389 133.855 132.674 C 134.459 131.947 134.706 129.485 134.417 127.088 C 134.065 124.164 134.393 122.049 135.450 120.436 C 137.232 117.716 137.439 116.610 136.000 117.500 C 134.669 118.323 134.728 117.895 136.551 113.531 C 137.455 111.369 137.637 110.106 136.988 110.508 C 135.556 111.393 136.714 104.774 138.635 101.093 C 140.293 97.915 140.372 96.652 138.854 97.590 C 138.037 98.095 137.915 97.466 138.428 95.399 C 138.824 93.805 139.501 92.371 139.932 92.214 C 140.363 92.057 140.584 90.267 140.423 88.236 C 140.148 84.777 142.676 80.296 144.000 81.896 C 144.275 82.228 152.989 82.557 163.365 82.627 M 226.000 111.059 C 226.000 111.641 226.450 111.840 227.000 111.500 C 227.550 111.160 228.000 111.097 228.000 111.359 C 228.000 111.622 228.301 112.622 228.670 113.582 C 229.179 114.908 228.999 115.122 227.920 114.472 C 226.697 113.735 226.695 113.857 227.908 115.350 C 228.748 116.386 228.949 117.445 228.408 117.978 C 227.908 118.469 215.575 118.970 201.000 119.091 C 182.636 119.243 174.486 119.646 174.455 120.405 C 174.430 121.007 173.867 121.388 173.205 121.250 C 172.542 121.113 172.000 121.657 172.000 122.461 C 172.000 123.265 170.988 124.906 169.750 126.108 C 168.513 127.310 168.063 127.976 168.750 127.588 C 170.498 126.601 170.307 128.117 168.327 130.943 C 167.407 132.257 167.182 133.006 167.827 132.607 C 169.561 131.536 169.252 133.546 167.454 135.038 C 166.604 135.743 166.156 136.964 166.458 137.750 C 166.760 138.537 166.689 139.694 166.301 140.323 C 165.611 141.438 165.365 142.403 164.721 146.518 C 164.547 147.627 164.088 149.049 163.699 149.677 C 163.311 150.306 163.273 151.548 163.615 152.439 C 164.377 154.425 161.919 166.000 160.735 166.000 C 160.266 166.000 160.220 165.438 160.633 164.750 C 161.086 163.996 160.670 164.080 159.584 164.962 C 157.988 166.259 157.637 166.224 156.493 164.659 C 155.524 163.334 155.072 163.219 154.680 164.197 C 154.393 164.914 154.122 164.488 154.079 163.250 C 154.036 162.013 153.625 161.000 153.167 161.000 C 151.844 161.000 152.200 158.137 153.589 157.604 C 154.280 157.339 154.615 156.246 154.335 155.174 C 154.055 154.102 154.295 152.936 154.869 152.581 C 155.443 152.226 155.677 151.321 155.388 150.569 C 155.100 149.817 155.302 148.931 155.838 148.600 C 156.374 148.269 156.590 147.149 156.319 146.112 C 156.048 145.074 156.315 143.923 156.913 143.554 C 157.511 143.184 158.000 142.432 158.000 141.882 C 158.000 141.332 157.438 141.229 156.750 141.652 C 156.063 142.076 156.334 141.147 157.354 139.588 C 158.373 138.029 158.711 137.061 158.104 137.436 C 157.497 137.811 157.000 137.641 157.000 137.059 C 157.000 136.477 157.477 136.000 158.059 136.000 C 158.641 136.000 158.827 135.529 158.471 134.953 C 157.572 133.498 159.993 123.878 161.088 124.554 C 161.577 124.857 161.708 124.402 161.379 123.544 C 160.263 120.638 167.769 111.314 170.409 112.327 C 171.284 112.663 172.000 112.453 172.000 111.862 C 172.000 111.270 172.603 111.018 173.341 111.300 C 174.078 111.583 175.316 111.413 176.091 110.923 C 178.172 109.605 226.000 109.736 226.000 111.059 M 344.593 358.850 C 344.304 359.318 345.402 359.621 347.034 359.525 C 348.875 359.416 349.242 359.216 348.000 358.996 C 346.183 358.675 346.196 358.636 348.150 358.571 C 350.448 358.495 351.865 362.347 349.970 363.519 C 349.418 363.859 349.238 364.577 349.570 365.113 C 349.901 365.649 349.628 366.743 348.964 367.544 C 347.990 368.717 348.070 369.000 349.378 369.000 C 350.270 369.000 351.036 369.563 351.079 370.250 C 351.122 370.938 351.348 371.050 351.580 370.500 C 351.934 369.660 355.946 369.423 361.809 369.895 C 362.529 369.953 362.840 370.450 362.500 371.000 C 362.160 371.550 362.535 372.000 363.334 372.000 C 364.133 372.000 365.054 372.698 365.382 373.552 C 365.726 374.448 365.556 374.844 364.981 374.488 C 364.390 374.123 364.436 374.864 365.095 376.310 C 365.916 378.111 365.906 379.308 365.057 380.894 C 364.425 382.075 364.182 383.486 364.518 384.030 C 365.449 385.536 364.004 389.121 362.773 388.360 C 362.113 387.952 361.981 388.160 362.434 388.893 C 362.870 389.599 362.108 391.164 360.589 392.684 C 359.165 394.108 357.944 394.986 357.875 394.636 C 357.806 394.286 357.694 394.549 357.625 395.220 C 357.365 397.764 348.905 400.274 347.617 398.190 C 346.817 396.896 338.000 396.745 338.000 398.025 C 338.000 398.656 337.316 398.458 336.429 397.571 C 335.564 396.707 334.370 396.000 333.774 396.000 C 333.178 396.000 333.436 395.176 334.347 394.169 C 335.259 393.162 335.733 392.067 335.402 391.735 C 335.071 391.404 335.168 390.541 335.619 389.817 C 336.070 389.092 336.488 387.150 336.548 385.500 C 336.753 379.871 337.000 378.882 338.040 379.525 C 338.721 379.946 338.843 379.224 338.394 377.435 C 337.913 375.516 338.046 374.911 338.843 375.403 C 339.575 375.855 339.764 375.549 339.377 374.539 C 339.046 373.679 339.284 372.362 339.905 371.614 C 340.526 370.866 340.725 369.448 340.347 368.463 C 339.879 367.241 340.028 366.900 340.819 367.388 C 341.575 367.856 341.771 367.566 341.382 366.552 C 341.054 365.698 341.304 365.000 341.937 365.000 C 342.570 365.000 343.015 364.438 342.925 363.750 C 342.537 360.761 343.081 358.000 344.059 358.000 C 344.641 358.000 344.882 358.383 344.593 358.850 M 283.500 359.000 C 277.636 359.649 277.693 359.665 286.000 359.732 C 292.032 359.781 293.774 359.546 292.000 358.924 C 290.234 358.305 290.968 358.210 294.500 358.599 C 297.270 358.904 300.305 359.934 301.305 360.908 C 304.847 364.357 303.988 377.500 300.220 377.500 C 299.549 377.500 299.000 377.838 299.000 378.250 C 299.000 378.663 298.663 379.000 298.250 379.000 C 297.838 379.000 297.499 379.563 297.497 380.250 C 297.496 380.938 296.821 381.561 295.997 381.635 C 295.174 381.709 294.725 381.828 295.000 381.900 C 295.275 381.972 294.837 382.450 294.026 382.963 C 293.100 383.548 292.326 383.528 291.943 382.908 C 291.545 382.264 290.386 382.283 288.602 382.961 C 287.099 383.533 284.619 384.000 283.090 384.000 C 281.488 384.000 279.503 384.920 278.405 386.172 C 277.357 387.366 277.063 388.015 277.750 387.613 C 279.535 386.569 279.299 388.507 277.454 390.038 C 276.604 390.743 276.123 391.879 276.386 392.562 C 276.648 393.246 276.556 394.111 276.181 394.486 C 275.806 394.860 275.444 395.579 275.375 396.083 C 275.306 396.588 275.194 397.450 275.125 398.000 C 275.056 398.550 274.523 399.000 273.941 399.000 C 273.359 399.000 273.160 398.550 273.500 398.000 C 273.868 397.405 272.677 397.000 270.559 397.000 C 267.168 397.000 265.902 395.797 267.956 394.527 C 268.482 394.202 268.677 393.321 268.388 392.569 C 268.100 391.817 268.352 390.901 268.948 390.532 C 269.545 390.163 269.774 389.443 269.457 388.931 C 269.141 388.419 269.229 387.438 269.654 386.751 C 270.079 386.063 270.303 384.323 270.152 382.883 C 270.001 381.444 270.559 379.583 271.393 378.749 C 272.319 377.824 272.719 376.182 272.421 374.536 C 272.115 372.849 272.314 372.076 272.954 372.472 C 273.544 372.836 273.741 372.490 273.420 371.653 C 273.114 370.855 273.352 369.901 273.948 369.532 C 274.545 369.163 274.762 368.423 274.430 367.887 C 274.099 367.351 274.429 366.171 275.164 365.264 C 276.281 363.886 276.279 363.749 275.150 364.429 C 274.023 365.107 274.017 364.850 275.115 362.871 C 275.838 361.567 276.501 360.163 276.590 359.750 C 276.678 359.338 276.806 358.775 276.875 358.500 C 276.944 358.225 279.813 358.076 283.250 358.168 L 289.500 358.336 283.500 359.000 M 243.000 370.294 C 243.000 370.730 243.788 370.955 244.750 370.794 C 245.899 370.601 246.452 371.101 246.361 372.250 C 246.285 373.213 246.649 374.000 247.170 374.000 C 247.691 374.000 247.809 374.500 247.431 375.112 C 247.053 375.723 247.364 376.610 248.122 377.081 C 249.257 377.788 249.274 378.304 248.216 380.010 C 247.510 381.149 247.193 382.504 247.512 383.020 C 247.831 383.536 247.526 384.980 246.834 386.229 C 246.142 387.478 245.671 388.838 245.788 389.250 C 245.904 389.663 245.564 390.000 245.031 390.000 C 244.499 390.000 244.302 390.624 244.595 391.387 C 245.255 393.106 239.475 397.411 237.852 396.409 C 237.176 395.991 236.959 396.125 237.334 396.732 C 238.002 397.812 234.975 398.974 231.500 398.971 C 229.844 398.970 229.758 398.803 231.000 398.000 C 231.901 397.418 232.025 397.025 231.309 397.015 C 230.654 397.007 229.852 397.430 229.527 397.956 C 228.027 400.383 220.943 394.894 221.544 391.771 C 221.759 390.657 221.454 388.848 220.867 387.752 C 220.243 386.585 220.208 386.010 220.783 386.366 C 221.366 386.726 221.659 385.659 221.504 383.737 C 221.360 381.956 221.648 380.242 222.144 379.927 C 222.641 379.611 223.242 378.341 223.480 377.105 C 223.913 374.857 228.778 370.278 230.231 370.750 C 230.654 370.888 231.000 370.663 231.000 370.250 C 231.000 369.838 233.700 369.500 237.000 369.500 C 240.300 369.500 243.000 369.857 243.000 370.294 M 315.425 371.750 C 315.333 373.263 315.148 374.725 315.014 375.000 C 314.880 375.275 314.850 376.288 314.948 377.250 C 315.046 378.213 314.617 379.000 313.995 379.000 C 313.320 379.000 313.121 379.805 313.500 381.000 C 313.849 382.100 313.738 383.000 313.252 383.000 C 311.782 383.000 312.628 391.386 314.139 391.789 C 315.109 392.048 315.070 391.848 314.000 391.091 C 312.781 390.230 312.985 390.028 315.083 390.015 C 316.504 390.007 318.004 389.663 318.417 389.250 C 318.829 388.838 319.691 388.500 320.332 388.500 C 320.973 388.500 321.542 387.825 321.596 387.000 C 321.651 386.175 321.764 384.461 321.848 383.191 C 321.931 381.921 322.385 381.120 322.856 381.411 C 323.326 381.702 323.486 380.761 323.211 379.321 C 322.904 377.719 323.098 376.943 323.711 377.321 C 324.324 377.700 324.521 376.888 324.219 375.220 C 323.937 373.663 324.106 372.853 324.613 373.325 C 325.111 373.788 325.500 373.131 325.500 371.825 C 325.500 369.825 326.064 369.458 329.534 369.203 C 333.404 368.918 333.577 369.032 333.805 372.025 C 333.950 373.921 333.647 374.900 333.033 374.520 C 332.442 374.155 332.270 374.540 332.618 375.448 C 332.948 376.308 332.690 377.000 332.040 377.000 C 331.337 377.000 331.110 377.770 331.473 378.916 C 331.808 379.970 331.655 381.095 331.135 381.417 C 330.614 381.739 330.423 382.902 330.711 384.001 C 330.998 385.100 330.773 386.000 330.210 386.000 C 329.648 386.000 329.423 386.900 329.710 388.000 C 329.998 389.100 329.773 390.000 329.210 390.000 C 328.648 390.000 328.423 390.900 328.710 392.000 C 329.023 393.195 328.741 394.000 328.010 394.000 C 327.319 394.000 327.043 394.670 327.376 395.538 C 327.869 396.821 327.017 397.051 322.233 396.926 C 319.080 396.843 316.725 396.858 317.000 396.958 C 317.275 397.058 316.600 397.527 315.500 398.000 C 309.756 400.468 303.000 397.218 303.000 391.986 C 303.000 390.409 303.430 388.852 303.956 388.527 C 304.482 388.202 304.677 387.321 304.388 386.569 C 304.100 385.817 304.344 384.905 304.932 384.542 C 306.322 383.683 306.317 381.926 304.926 382.250 C 304.335 382.388 304.533 381.905 305.366 381.177 C 306.199 380.449 306.652 379.257 306.372 378.528 C 306.093 377.799 306.344 376.905 306.932 376.542 C 307.519 376.179 308.000 375.432 308.000 374.882 C 308.000 374.332 307.550 374.160 307.000 374.500 C 306.450 374.840 306.000 374.664 306.000 374.109 C 306.000 373.554 306.788 372.641 307.750 372.080 C 308.713 371.519 309.136 371.047 308.691 371.030 C 308.246 371.014 308.160 370.550 308.500 370.000 C 308.840 369.450 310.575 369.000 312.355 369.000 C 315.261 369.000 315.576 369.282 315.425 371.750 M 205.637 360.700 C 205.821 361.909 205.548 363.161 205.030 363.482 C 204.511 363.802 204.341 364.725 204.651 365.532 C 204.960 366.339 204.686 367.000 204.040 367.000 C 203.337 367.000 203.110 367.770 203.473 368.916 C 203.808 369.970 203.613 371.121 203.041 371.475 C 202.468 371.829 202.000 372.568 202.000 373.118 C 202.000 373.668 202.411 373.864 202.912 373.554 C 203.414 373.244 203.166 375.805 202.361 379.245 C 201.556 382.685 200.808 386.400 200.699 387.500 C 200.589 388.600 200.050 389.851 199.500 390.280 C 198.950 390.708 202.589 390.933 207.586 390.780 L 216.671 390.500 216.669 393.207 C 216.668 394.745 215.983 396.184 215.083 396.539 C 214.213 396.882 208.855 397.116 203.177 397.059 C 196.371 396.990 193.069 397.303 193.486 397.977 C 193.863 398.587 192.984 398.968 191.309 398.921 C 189.764 398.878 189.059 398.616 189.742 398.340 C 190.665 397.968 190.709 397.325 189.915 395.841 C 189.327 394.743 189.048 393.316 189.296 392.672 C 189.543 392.027 189.847 391.050 189.971 390.500 C 190.096 389.950 190.648 388.658 191.198 387.629 C 191.986 386.158 191.912 385.936 190.850 386.591 C 190.038 387.091 190.239 386.293 191.354 384.588 C 192.373 383.029 192.711 382.061 192.104 382.436 C 190.415 383.480 190.792 381.427 192.574 379.872 C 193.440 379.118 193.665 378.613 193.074 378.750 C 192.483 378.888 192.000 378.298 192.000 377.441 C 192.000 376.584 192.450 376.160 193.000 376.500 C 193.909 377.062 194.440 375.719 194.105 373.709 C 194.032 373.275 194.474 371.983 195.086 370.839 C 195.742 369.614 195.786 369.014 195.193 369.381 C 193.809 370.236 194.927 366.123 196.914 363.044 C 197.786 361.693 198.275 360.345 198.000 360.048 C 197.725 359.750 199.300 359.610 201.500 359.735 C 204.703 359.917 205.101 359.768 203.500 358.990 C 201.643 358.087 201.636 358.034 203.401 358.258 C 204.491 358.397 205.446 359.439 205.637 360.700 M 264.671 362.584 C 265.160 363.859 265.443 363.908 266.124 362.834 C 266.781 361.798 266.973 361.872 266.985 363.167 C 266.993 364.083 266.490 365.003 265.866 365.211 C 265.096 365.468 265.203 366.060 266.197 367.055 C 268.065 368.923 269.397 374.000 268.019 374.000 C 267.459 374.000 267.000 374.675 267.000 375.500 C 267.000 376.325 266.155 377.000 265.122 377.000 C 264.090 377.000 262.627 377.761 261.872 378.692 C 260.940 379.842 260.901 380.143 261.750 379.633 C 263.639 378.498 263.290 381.514 261.346 383.128 C 260.066 384.190 260.010 384.503 261.096 384.515 C 262.114 384.526 262.173 384.739 261.310 385.287 C 260.435 385.844 260.395 386.834 261.157 389.021 C 261.728 390.658 262.633 391.727 263.168 391.396 C 263.747 391.038 264.012 392.154 263.821 394.147 C 263.644 395.991 262.975 397.500 262.333 397.500 C 261.692 397.500 260.829 397.838 260.417 398.250 C 259.297 399.369 256.527 399.158 253.864 397.750 C 252.020 396.775 251.527 395.731 251.622 393.000 C 251.689 391.075 251.839 389.275 251.955 389.000 C 252.230 388.350 252.983 383.923 253.146 382.000 C 253.216 381.175 253.712 379.943 254.249 379.262 C 254.920 378.411 254.768 377.848 253.763 377.463 C 252.137 376.838 251.561 371.000 253.126 371.000 C 253.672 371.000 253.881 370.616 253.590 370.146 C 253.300 369.677 254.286 368.664 255.781 367.896 C 257.277 367.128 257.938 366.613 257.250 366.750 C 256.563 366.888 256.000 366.550 256.000 366.000 C 256.000 365.450 256.450 365.000 257.000 365.000 C 257.550 365.000 258.900 364.100 260.000 363.000 C 262.411 360.589 263.856 360.460 264.671 362.584 M 136.571 172.429 C 137.393 173.250 138.000 175.800 138.000 178.429 C 138.000 182.482 137.745 183.008 135.750 183.070 C 133.591 183.138 133.581 183.178 135.500 184.062 L 137.500 184.983 135.500 184.728 C 133.764 184.507 133.487 183.683 133.403 178.486 C 133.276 170.651 133.797 169.654 136.571 172.429"/></g><g fill="#FEFEFEFE" stroke="#FEFEFEFE"><path d="M 201.784 125.672 L 178.067 126.036 177.022 129.917 C 176.448 132.051 175.579 135.756 175.092 138.149 C 172.834 149.249 170.967 158.073 169.518 164.500 C 168.649 168.350 167.277 174.807 166.467 178.849 C 165.658 182.891 164.784 186.541 164.525 186.960 C 164.265 187.379 163.861 189.247 163.626 191.111 C 163.391 192.975 162.504 197.200 161.654 200.500 C 160.804 203.800 158.505 214.375 156.545 224.000 C 154.585 233.625 151.673 247.350 150.075 254.500 C 143.617 283.396 139.658 301.585 135.057 323.500 C 131.060 342.537 126.979 360.625 126.027 363.524 C 125.481 365.187 124.594 369.237 124.057 372.524 C 123.519 375.811 122.610 380.750 122.036 383.500 C 121.461 386.250 120.708 390.195 120.362 392.266 L 119.732 396.032 148.100 395.766 L 176.467 395.500 177.122 392.000 C 177.989 387.370 182.984 363.198 188.075 339.000 C 190.331 328.275 192.536 317.700 192.975 315.500 C 195.667 301.999 197.203 295.229 198.024 293.250 L 198.957 291.000 255.729 290.998 L 312.500 290.996 320.417 286.919 C 324.772 284.677 330.991 281.078 334.238 278.921 C 337.485 276.764 340.339 275.000 340.579 275.000 C 341.194 275.000 351.264 266.062 357.268 260.187 C 361.945 255.611 371.159 242.493 370.301 241.634 C 369.952 241.285 370.140 241.000 370.717 241.000 C 372.273 241.000 376.923 227.696 378.474 218.810 C 381.176 203.336 377.301 181.691 369.199 167.000 C 360.078 150.458 346.697 136.880 334.000 131.280 C 327.761 128.528 326.019 127.895 322.000 126.922 C 318.024 125.959 237.573 125.123 201.784 125.672 M 297.749 168.500 C 300.636 170.150 302.998 171.838 302.999 172.250 C 303.000 172.663 303.580 173.000 304.288 173.000 C 306.238 173.000 313.528 184.709 316.133 192.025 C 319.231 200.725 319.223 213.116 316.114 221.425 C 313.366 228.769 308.822 235.402 304.985 237.668 C 303.343 238.638 302.000 239.711 302.000 240.053 C 302.000 240.884 292.389 245.552 286.707 247.481 C 282.868 248.785 276.289 248.984 244.331 248.762 L 206.500 248.500 206.632 245.500 C 206.705 243.850 208.175 236.650 209.899 229.500 C 211.623 222.350 213.711 213.125 214.540 209.000 C 215.369 204.875 216.690 198.800 217.476 195.500 C 218.262 192.200 220.082 184.550 221.519 178.500 C 222.957 172.450 224.323 166.915 224.554 166.201 C 224.891 165.161 231.719 164.961 258.738 165.201 L 292.500 165.500 297.749 168.500"/></g><g fill="#FEFEFEFE" stroke="#FEFEFEFE"><path d="M 497.227 273.500 C 497.082 274.050 496.315 279.058 495.523 284.629 C 492.787 303.875 486.185 328.565 479.999 342.687 C 478.840 345.334 477.497 348.400 477.015 349.500 C 476.534 350.600 474.884 354.425 473.348 358.000 C 470.882 363.741 464.918 374.715 462.750 377.500 C 460.527 380.356 457.000 386.209 457.000 387.041 C 457.000 387.565 453.063 393.032 448.250 399.189 C 435.362 415.679 408.406 442.133 396.447 450.027 C 392.336 452.741 383.743 458.794 382.292 459.998 C 381.628 460.549 380.819 461.000 380.494 461.000 C 380.170 461.000 377.563 462.490 374.702 464.312 C 368.930 467.986 351.417 476.666 342.963 480.043 C 325.166 487.153 304.633 492.620 283.000 496.011 C 271.539 497.807 271.883 497.814 384.754 497.907 L 498.009 498.000 497.750 385.250 C 497.608 323.238 497.373 272.950 497.227 273.500"/></g><g fill="#FEFEFEFE" stroke="#FEFEFEFE"><path d="M 281.000 2.033 C 282.925 2.487 289.900 3.847 296.500 5.053 C 303.100 6.260 311.438 8.035 315.030 8.999 C 321.909 10.844 345.715 19.274 348.731 20.932 C 349.704 21.467 353.875 23.499 358.000 25.447 C 370.828 31.506 386.825 41.373 399.411 50.991 C 402.760 53.550 406.250 56.062 407.167 56.572 C 409.117 57.658 430.107 77.954 434.526 83.027 C 447.220 97.600 465.464 124.012 470.144 134.592 C 471.196 136.971 472.444 139.157 472.918 139.449 C 473.391 139.742 474.061 141.106 474.406 142.480 C 474.751 143.854 476.345 147.796 477.949 151.239 C 485.678 167.835 492.680 193.677 496.022 217.940 C 496.586 222.032 497.261 225.595 497.523 225.857 C 497.786 226.119 498.000 175.633 498.000 113.667 L 498.000 1.000 387.750 1.103 C 327.113 1.160 279.075 1.579 281.000 2.033"/></g><g fill="#FEFEFEFE" stroke="#FEFEFEFE"><path d="M 1.122 386.250 L 1.000 498.000 113.750 497.881 L 226.500 497.763 213.000 495.464 C 192.163 491.917 176.873 488.207 166.500 484.181 C 151.983 478.548 145.156 475.721 142.000 474.039 C 140.075 473.013 136.700 471.294 134.500 470.218 C 132.300 469.143 127.575 466.409 124.000 464.142 C 120.425 461.876 115.702 459.051 113.504 457.865 C 111.307 456.679 103.764 451.250 96.744 445.801 C 81.099 433.659 65.828 418.732 55.500 405.490 C 53.850 403.374 51.713 400.823 50.750 399.822 C 49.788 398.820 49.000 397.709 49.000 397.353 C 49.000 396.997 47.518 394.860 45.707 392.603 C 39.983 385.472 25.332 359.464 21.116 348.951 C 20.355 347.053 19.167 344.150 18.476 342.500 C 14.517 333.051 7.619 311.267 6.443 304.500 C 6.156 302.850 5.254 298.125 4.439 294.000 C 3.623 289.875 2.571 283.800 2.100 280.500 C 1.590 276.929 1.195 319.745 1.122 386.250"/></g><g fill="#FEFEFEFE" stroke="#FEFEFEFE"><path d="M 1.107 112.750 C 1.202 211.605 1.373 223.404 2.585 215.000 C 5.258 196.462 11.925 171.835 18.694 155.500 C 21.617 148.444 26.807 137.138 28.103 135.000 C 28.603 134.175 29.326 132.827 29.708 132.004 C 31.360 128.448 42.528 110.181 45.379 106.372 C 47.096 104.079 49.400 100.946 50.500 99.410 C 57.524 89.606 74.439 71.146 82.490 64.500 C 84.489 62.850 86.695 60.981 87.394 60.347 C 97.088 51.543 113.726 39.792 125.500 33.434 C 128.250 31.949 131.573 29.894 132.885 28.867 C 134.197 27.840 136.019 27.000 136.935 27.000 C 137.851 27.000 139.027 26.578 139.550 26.062 C 141.913 23.729 167.928 13.711 182.000 9.715 C 192.854 6.633 205.673 3.903 215.500 2.581 C 224.290 1.399 211.922 1.222 113.250 1.118 L 1.000 1.000 1.107 112.750"/></g><g fill="#E68C3CFE" stroke="#E68C3CFE"><path d="M 227.000 167.338 C 225.625 168.067 224.628 169.237 224.785 169.937 C 224.942 170.637 224.608 171.767 224.044 172.447 C 223.479 173.127 223.294 173.961 223.632 174.299 C 223.970 174.637 223.900 175.721 223.475 176.707 C 223.050 177.693 222.808 179.563 222.938 180.862 C 223.084 182.335 222.768 182.974 222.098 182.560 C 221.451 182.160 221.244 182.473 221.580 183.347 C 221.886 184.145 221.608 185.124 220.961 185.524 C 220.090 186.063 220.080 186.432 220.925 186.953 C 221.714 187.442 221.766 188.397 221.095 190.078 C 220.562 191.410 220.048 192.275 219.952 192.000 C 219.856 191.725 219.671 192.625 219.542 194.000 C 219.413 195.375 219.220 196.275 219.114 196.000 C 219.008 195.725 218.770 197.956 218.587 200.958 C 218.403 203.960 217.743 206.586 217.120 206.793 C 216.497 207.001 216.242 207.582 216.553 208.085 C 216.864 208.588 216.716 209.000 216.226 209.000 C 215.735 209.000 215.268 209.563 215.188 210.250 C 214.847 213.181 214.240 216.500 214.044 216.500 C 213.812 216.500 213.054 220.639 212.854 223.000 C 212.784 223.825 212.226 225.149 211.614 225.942 C 210.765 227.041 210.797 227.206 211.750 226.633 C 213.434 225.622 213.329 227.085 211.535 229.646 C 210.730 230.796 210.344 232.011 210.678 232.344 C 211.012 232.678 210.716 233.638 210.020 234.476 C 209.324 235.314 209.198 236.000 209.739 236.000 C 210.280 236.000 210.509 237.120 210.247 238.488 C 209.985 239.857 209.378 240.734 208.897 240.436 C 208.416 240.139 208.273 240.549 208.580 241.347 C 208.886 242.145 208.656 243.095 208.068 243.458 C 207.481 243.821 207.000 244.568 207.000 245.118 C 207.000 245.668 207.419 245.859 207.931 245.543 C 208.443 245.226 209.154 245.441 209.512 246.019 C 209.949 246.726 221.748 247.031 245.536 246.949 C 264.992 246.881 281.349 247.098 281.886 247.430 C 282.423 247.761 283.163 247.545 283.532 246.948 C 283.901 246.352 284.855 246.114 285.653 246.420 C 286.451 246.727 286.863 246.587 286.568 246.110 C 286.116 245.379 288.078 244.625 293.500 243.448 C 294.050 243.328 294.283 243.179 294.018 243.115 C 293.753 243.052 295.250 241.835 297.346 240.411 C 299.441 238.987 301.458 238.125 301.828 238.494 C 302.197 238.864 302.500 238.781 302.500 238.309 C 302.500 236.990 307.873 231.500 309.164 231.500 C 309.794 231.500 310.440 230.612 310.599 229.527 C 310.758 228.442 311.581 227.048 312.429 226.429 C 313.276 225.809 313.676 225.009 313.318 224.651 C 312.960 224.293 313.267 224.000 314.000 224.000 C 314.733 224.000 315.037 223.704 314.675 223.342 C 314.313 222.980 314.576 221.994 315.259 221.150 C 316.268 219.902 316.247 219.769 315.143 220.433 C 314.085 221.070 313.949 220.727 314.525 218.875 C 314.932 217.569 315.607 216.366 316.026 216.202 C 316.445 216.038 316.540 214.955 316.236 213.796 C 315.860 212.358 316.053 211.915 316.842 212.403 C 317.479 212.796 318.000 212.668 318.000 212.118 C 318.000 211.568 317.570 210.852 317.044 210.527 C 316.518 210.202 316.254 209.388 316.457 208.718 C 317.690 204.659 317.882 200.955 316.827 201.607 C 316.056 202.083 315.864 201.628 316.236 200.204 C 316.540 199.045 316.455 197.962 316.049 197.798 C 315.642 197.634 314.997 196.225 314.615 194.666 C 314.090 192.525 314.235 191.993 315.210 192.490 C 315.919 192.852 315.656 192.462 314.625 191.622 C 313.517 190.721 313.001 189.441 313.363 188.496 C 313.768 187.440 313.583 187.140 312.819 187.612 C 312.057 188.083 311.868 187.786 312.267 186.747 C 312.616 185.837 312.264 184.932 311.437 184.614 C 310.647 184.311 310.000 183.122 310.000 181.972 C 310.000 180.823 309.610 180.123 309.134 180.417 C 307.813 181.234 304.694 177.303 305.557 175.909 C 305.998 175.194 305.892 174.949 305.300 175.315 C 304.745 175.658 303.247 174.827 301.971 173.469 C 300.695 172.111 298.830 171.000 297.826 171.000 C 296.759 171.000 295.994 170.272 295.985 169.250 C 295.972 167.754 295.828 167.718 295.000 169.000 C 294.193 170.248 294.015 170.164 293.936 168.500 C 293.885 167.400 293.631 167.015 293.373 167.644 C 293.115 168.273 292.031 168.559 290.963 168.280 C 289.896 168.001 289.226 167.443 289.475 167.040 C 289.725 166.637 276.332 166.240 259.714 166.160 C 236.319 166.046 228.936 166.312 227.000 167.338"/></g><g fill="#FEFEFEFE" stroke="#FEFEFEFE"><path d="M 144.372 84.126 C 142.859 84.887 142.045 86.539 141.553 89.848 C 139.246 105.366 136.708 122.891 135.448 132.000 C 134.649 137.775 133.564 144.750 133.037 147.500 C 132.510 150.250 131.948 154.845 131.789 157.711 L 131.500 162.923 138.258 159.801 C 144.191 157.061 145.136 156.242 146.005 153.090 C 147.085 149.174 151.588 128.323 152.396 123.500 C 153.687 115.793 157.464 108.954 161.731 106.599 C 171.307 101.317 169.970 101.517 197.686 101.204 L 223.871 100.907 228.936 96.153 C 231.721 93.538 234.000 90.920 234.000 90.336 C 234.000 89.694 229.744 89.003 223.250 88.591 C 206.305 87.515 199.872 87.048 194.500 86.505 C 191.750 86.227 181.625 85.552 172.000 85.006 C 162.375 84.459 152.700 83.797 150.500 83.534 C 148.300 83.270 145.543 83.537 144.372 84.126"/></g><g fill="#FEFEFEFE" stroke="#FEFEFEFE"><path d="M 345.227 360.860 C 344.526 361.293 343.765 362.514 343.535 363.573 C 343.305 364.633 342.382 368.200 341.483 371.500 C 340.585 374.800 339.239 380.425 338.494 384.000 C 337.748 387.575 336.831 391.507 336.456 392.738 C 335.651 395.375 338.642 397.197 340.046 394.925 C 340.737 393.808 341.507 393.781 344.266 394.779 C 348.418 396.281 354.000 396.373 354.000 394.941 C 354.000 394.359 354.381 394.118 354.847 394.405 C 356.035 395.140 360.354 390.206 362.338 385.849 C 364.733 380.587 364.464 376.373 361.545 373.455 C 358.908 370.817 356.400 370.451 351.191 371.945 C 347.111 373.115 346.288 371.686 348.020 366.438 C 348.996 363.481 348.966 362.538 347.861 361.433 C 347.084 360.657 345.953 360.410 345.227 360.860 M 356.420 375.933 C 358.655 377.788 357.911 385.276 355.117 389.056 C 351.894 393.415 348.227 393.966 345.275 390.533 C 343.394 388.347 343.035 387.105 343.567 384.632 C 345.491 375.691 351.350 371.726 356.420 375.933"/></g><g fill="#FEFEFEFE" stroke="#FEFEFEFE"><path d="M 276.137 367.750 C 275.066 371.463 273.641 376.975 272.971 380.000 C 272.300 383.025 271.394 386.625 270.957 388.000 C 270.520 389.375 269.885 391.769 269.545 393.320 C 268.974 395.924 269.136 396.115 271.657 395.820 C 274.055 395.539 274.555 394.832 275.773 390.007 C 276.535 386.986 277.574 384.013 278.082 383.401 C 278.590 382.789 281.991 382.010 285.640 381.669 C 296.106 380.692 301.500 376.270 301.500 368.669 C 301.500 361.845 299.996 361.000 287.851 361.000 L 278.085 361.000 276.137 367.750 M 294.394 366.882 C 295.574 368.187 295.891 369.586 295.426 371.440 C 294.417 375.458 291.058 377.161 284.841 376.805 C 279.796 376.517 279.517 376.362 279.807 374.000 C 279.976 372.625 280.573 370.038 281.135 368.250 C 282.116 365.124 282.356 365.000 287.423 365.000 C 291.310 365.000 293.136 365.493 294.394 366.882"/></g><g fill="#FEFEFEFE" stroke="#FEFEFEFE"><path d="M 172.379 113.428 C 169.287 114.782 165.481 119.181 163.232 124.000 C 160.827 129.151 154.515 159.293 155.372 161.528 C 156.060 163.320 159.922 163.489 160.421 161.750 C 160.830 160.326 164.207 143.714 166.064 134.000 C 167.827 124.774 169.893 120.803 174.000 118.752 C 177.044 117.231 180.670 117.003 201.820 117.002 L 226.139 117.000 225.820 114.750 L 225.500 112.500 200.500 112.280 C 181.157 112.110 174.794 112.370 172.379 113.428"/></g><g fill="#FEFEFEFE" stroke="#FEFEFEFE"><path d="M 237.000 370.740 C 231.741 371.413 229.988 372.096 227.962 374.262 C 224.067 378.425 222.601 383.052 222.889 390.265 C 223.085 395.145 232.666 399.092 236.179 395.738 C 236.905 395.044 238.738 393.929 240.250 393.260 C 242.991 392.047 243.754 390.584 242.160 389.599 C 241.699 389.314 239.617 389.993 237.535 391.109 C 234.366 392.808 233.296 392.951 230.970 391.987 C 227.896 390.714 226.772 388.158 228.180 385.642 C 228.918 384.324 230.745 384.000 237.443 384.000 C 246.185 384.000 247.000 383.571 247.000 378.965 C 247.000 373.578 242.669 370.015 237.000 370.740 M 239.777 375.557 C 242.324 377.340 242.607 379.250 240.619 381.238 C 239.011 382.846 229.887 382.189 229.304 380.424 C 228.779 378.833 233.614 374.000 235.730 374.000 C 236.734 374.000 238.555 374.701 239.777 375.557"/></g><g fill="#FEFEFEFE" stroke="#FEFEFEFE"><path d="M 310.473 371.765 C 309.166 372.700 306.200 382.265 305.395 388.138 C 304.387 395.487 309.022 397.978 317.281 394.527 C 320.423 393.214 320.871 393.222 321.399 394.597 C 321.742 395.492 322.895 396.006 324.142 395.820 C 325.994 395.544 326.692 393.911 329.162 384.065 C 330.739 377.776 331.678 372.278 331.248 371.848 C 330.817 371.417 329.544 371.306 328.419 371.601 C 326.835 372.015 326.084 373.533 325.095 378.317 C 322.586 390.468 319.734 393.849 313.755 391.765 C 310.482 390.624 310.150 387.373 312.511 379.591 C 314.825 371.963 314.098 369.172 310.473 371.765"/></g><g fill="#FEFEFEFE" stroke="#FEFEFEFE"><path d="M 198.496 362.250 C 197.439 365.245 191.006 392.660 191.003 394.181 C 191.000 395.615 192.384 395.910 200.386 396.181 C 211.491 396.558 214.404 396.081 214.776 393.826 C 215.126 391.711 211.923 390.638 207.899 391.522 C 206.219 391.891 203.304 391.904 201.422 391.551 C 197.300 390.778 197.147 389.538 199.937 379.471 C 201.002 375.627 202.096 371.361 202.368 369.991 C 202.640 368.621 203.175 366.038 203.557 364.250 C 204.202 361.225 204.066 361.000 201.594 361.000 C 200.133 361.000 198.739 361.563 198.496 362.250"/></g><g fill="#FEFEFEFE" stroke="#FEFEFEFE"><path d="M 257.620 368.418 C 253.852 373.017 253.261 374.587 255.071 375.190 C 255.799 375.433 255.580 378.278 254.387 384.073 C 252.219 394.607 252.637 396.000 257.969 396.000 C 262.563 396.000 262.721 395.732 260.094 392.392 C 258.327 390.146 258.288 389.548 259.558 384.234 C 260.312 381.080 260.945 377.949 260.964 377.276 C 260.984 376.602 262.350 375.353 264.000 374.500 C 267.489 372.696 267.862 371.038 264.949 370.276 C 263.275 369.839 263.014 369.213 263.529 366.870 C 264.483 362.525 261.893 363.204 257.620 368.418"/></g><g fill="#E68C3CFE" stroke="#E68C3CFE"><path d="M 350.742 377.085 C 349.775 377.648 348.543 377.836 348.004 377.502 C 347.447 377.158 347.279 377.563 347.615 378.440 C 347.949 379.309 347.580 380.224 346.770 380.535 C 345.980 380.838 345.291 381.629 345.239 382.293 C 345.187 382.957 344.816 384.583 344.415 385.906 C 343.933 387.495 344.043 388.092 344.738 387.662 C 345.317 387.304 346.048 387.684 346.364 388.506 C 346.679 389.328 347.878 390.000 349.028 390.000 C 350.323 390.000 350.853 390.428 350.422 391.126 C 349.910 391.955 350.224 391.963 351.613 391.157 C 352.651 390.554 353.169 390.047 352.765 390.030 C 352.360 390.014 352.921 388.538 354.011 386.750 C 355.101 384.963 356.042 383.725 356.102 384.000 C 356.163 384.275 356.121 383.150 356.011 381.500 C 355.816 378.605 354.426 375.967 353.128 376.030 C 352.782 376.047 351.709 376.521 350.742 377.085"/></g><g fill="#FEF0CEFE" stroke="#FEF0CEFE"><path d="M 198.654 291.750 C 198.399 292.163 222.335 292.267 251.845 291.983 L 305.500 291.466 252.309 291.233 C 223.054 291.105 198.909 291.338 198.654 291.750"/></g><g fill="#E68C3CFE" stroke="#E68C3CFE"><path d="M 288.213 366.809 C 284.366 367.087 283.866 367.420 283.338 370.059 C 283.015 371.677 282.330 373.000 281.816 373.000 C 281.302 373.000 281.160 373.450 281.500 374.000 C 282.632 375.831 289.857 375.143 292.000 373.000 C 294.129 370.871 294.249 370.360 293.180 368.000 C 292.694 366.927 291.279 366.588 288.213 366.809"/></g><g fill="#CE945CFE" stroke="#CE945CFE"><path d="M 206.999 247.250 C 207.000 247.663 221.963 247.899 240.250 247.777 L 273.500 247.553 240.249 247.027 C 221.961 246.737 206.999 246.838 206.999 247.250"/></g><g fill="#D2843CFE" stroke="#D2843CFE"><path d="M 149.000 397.023 L 120.500 397.547 148.750 397.773 C 164.288 397.898 177.113 397.663 177.250 397.250 C 177.388 396.838 164.675 396.736 149.000 397.023"/></g><g fill="#E68C3CFE" stroke="#E68C3CFE"><path d="M 230.390 387.178 C 230.081 387.678 230.313 388.672 230.905 389.386 C 231.498 390.100 231.649 391.078 231.241 391.559 C 230.834 392.040 231.282 391.836 232.237 391.105 C 233.193 390.374 234.632 390.029 235.436 390.337 C 236.421 390.715 236.715 390.422 236.338 389.438 C 235.943 388.409 236.254 388.160 237.389 388.596 C 238.364 388.970 239.000 388.698 239.000 387.907 C 239.000 386.890 239.267 386.867 240.200 387.800 C 240.860 388.460 241.873 388.993 242.450 388.985 C 243.028 388.976 242.825 388.487 242.000 387.898 C 240.795 387.037 240.942 386.923 242.749 387.319 C 243.986 387.590 245.232 387.433 245.518 386.970 C 245.805 386.507 242.644 386.160 238.496 386.198 C 234.347 386.237 230.699 386.678 230.390 387.178"/></g><g fill="#FEF6E4FE" stroke="#FEF6E4FE"><path d="M 208.429 111.749 C 218.231 111.936 224.875 112.482 225.702 113.168 C 226.755 114.041 226.909 113.927 226.416 112.641 C 225.862 111.198 223.781 111.027 209.143 111.223 L 192.500 111.445 208.429 111.749"/></g><g fill="#E68C3CFE" stroke="#E68C3CFE"><path d="M 234.425 375.879 C 234.729 376.371 234.308 377.329 233.489 378.009 C 231.174 379.931 231.701 380.665 235.500 380.808 C 238.259 380.911 239.000 380.556 239.000 379.130 C 239.000 378.135 237.846 376.795 236.436 376.153 C 235.026 375.510 234.121 375.387 234.425 375.879"/></g><g fill="#FEFEFEFE" stroke="#FEFEFEFE"><path d="M 134.744 174.589 C 133.722 175.611 133.805 179.761 134.861 180.414 C 136.319 181.315 136.762 180.069 136.111 176.889 C 135.769 175.215 135.154 174.180 134.744 174.589"/></g><g fill="#FEF0CEFE" stroke="#FEF0CEFE"><path d="M 424.000 73.000 L 429.000 78.000 424.000 73.000 L 419.000 68.000 424.000 73.000"/></g><g fill="#FEF6E4FE" stroke="#FEF6E4FE"><path d="M 231.538 93.995 L 227.575 98.500 231.799 94.535 C 234.123 92.355 235.906 90.328 235.762 90.031 C 235.618 89.734 233.717 91.518 231.538 93.995"/></g><g fill="#FEF0CEFE" stroke="#FEF0CEFE"><path d="M 73.500 424.500 L 78.000 429.000 73.500 424.500 L 69.000 420.000 73.500 424.500"/></g><g fill="#D2843CFE" stroke="#D2843CFE"><path d="M 167.088 105.288 L 163.676 107.500 166.917 106.000 C 168.699 105.175 170.235 104.180 170.329 103.788 C 170.423 103.396 168.965 104.071 167.088 105.288"/></g><g fill="#FEF6E4FE" stroke="#FEF6E4FE"><path d="M 119.602 396.164 C 119.886 396.624 121.554 396.948 123.309 396.885 L 126.500 396.770 122.793 396.049 C 120.753 395.653 119.318 395.705 119.602 396.164"/></g></svg>