<svg xmlns="http://www.w3.org/2000/svg" xmlns:xlink="http://www.w3.org/1999/xlink" width="540" height="540" version="1.1" style="shape-rendering:geometricPrecision;text-rendering:geometricPrecision;image-rendering:optimizeQuality;fill-rule:evenodd;clip-rule:evenodd"><g><path style="opacity:1" fill="#2b353a" d="M -0.5,-0.5 C 179.5,-0.5 359.5,-0.5 539.5,-0.5C 539.5,179.5 539.5,359.5 539.5,539.5C 359.5,539.5 179.5,539.5 -0.5,539.5C -0.5,359.5 -0.5,179.5 -0.5,-0.5 Z"/></g><g><path style="opacity:1" fill="#eb6959" d="M 366.5,205.5 C 378.5,205.5 390.5,205.5 402.5,205.5C 402.5,250.167 402.5,294.833 402.5,339.5C 390.5,339.5 378.5,339.5 366.5,339.5C 366.5,294.833 366.5,250.167 366.5,205.5 Z"/></g><g><path style="opacity:1" fill="#b95b4f" d="M 410.5,205.5 C 422.833,205.5 435.167,205.5 447.5,205.5C 447.5,250.167 447.5,294.833 447.5,339.5C 435.167,339.5 422.833,339.5 410.5,339.5C 410.5,294.833 410.5,250.167 410.5,205.5 Z"/></g><g><path style="opacity:1" fill="#894e48" d="M 455.5,205.5 C 467.5,205.5 479.5,205.5 491.5,205.5C 491.5,250.167 491.5,294.833 491.5,339.5C 479.5,339.5 467.5,339.5 455.5,339.5C 455.5,294.833 455.5,250.167 455.5,205.5 Z"/></g><g><path style="opacity:1" fill="#919699" d="M 69.5,225.5 C 81.673,224.175 94.0063,224.175 106.5,225.5C 106.376,226.107 106.043,226.44 105.5,226.5C 93.6783,225.505 81.6783,225.172 69.5,225.5 Z"/></g><g><path style="opacity:1" fill="#f8f8f9" d="M 136.5,270.5 C 136.405,268.214 135.738,266.214 134.5,264.5C 134.5,263.5 134.5,262.5 134.5,261.5C 134.392,256.13 134.725,250.797 135.5,245.5C 143.338,228.412 156.671,221.579 175.5,225C 199.373,232.245 207.206,247.745 199,271.5C 193.483,282.194 184.649,288.36 172.5,290C 155.984,291.579 143.984,285.079 136.5,270.5 Z"/></g><g><path style="opacity:1" fill="#f7f7f7" d="M 212.5,271.5 C 211.871,268.603 210.871,265.936 209.5,263.5C 208.55,243.272 217.884,230.438 237.5,225C 247.79,223.63 257.79,224.63 267.5,228C 269.121,234.091 269.454,240.258 268.5,246.5C 265.421,242.676 262.588,238.676 260,234.5C 251.441,226.318 243.108,226.651 235,235.5C 226.143,250.726 226.476,265.726 236,280.5C 240.083,284.142 244.916,285.475 250.5,284.5C 250.83,278.132 250.496,271.798 249.5,265.5C 246.953,264.066 244.619,262.4 242.5,260.5C 253.833,259.167 265.167,259.167 276.5,260.5C 274.476,262.358 272.309,264.025 270,265.5C 269.83,271.196 269.33,276.862 268.5,282.5C 254.26,291.872 239.593,292.705 224.5,285C 219.235,281.572 215.235,277.072 212.5,271.5 Z"/></g><g><path style="opacity:1" fill="#f7f7f8" d="M 306.5,224.5 C 320.52,222.375 332.686,226.042 343,235.5C 353.678,251.329 352.844,266.495 340.5,281C 323.174,294.148 306.341,293.648 290,279.5C 276.877,260.648 279.043,243.815 296.5,229C 299.893,227.38 303.226,225.88 306.5,224.5 Z"/></g><g><path style="opacity:1" fill="#f7f8f8" d="M 69.5,225.5 C 81.6783,225.172 93.6783,225.505 105.5,226.5C 102.572,227.378 99.7383,228.711 97,230.5C 96.5001,248.164 96.3334,265.83 96.5,283.5C 103.313,284.491 110.313,284.825 117.5,284.5C 117.5,283.167 117.5,281.833 117.5,280.5C 119.607,274.82 122.273,269.486 125.5,264.5C 126.498,272.807 126.831,281.14 126.5,289.5C 107.5,289.5 88.5,289.5 69.5,289.5C 70.4608,286.165 72.7941,284.499 76.5,284.5C 77.8316,275.859 78.4983,266.859 78.5,257.5C 78.4998,248.327 78.1665,239.327 77.5,230.5C 74.0896,229.807 71.4229,228.14 69.5,225.5 Z"/></g><g><path style="opacity:1" fill="#2d373c" d="M 162.5,229.5 C 165.518,229.335 168.518,229.502 171.5,230C 177.434,234.367 180.934,240.2 182,247.5C 182.831,255.888 182.497,264.221 181,272.5C 176.612,286.012 169.279,288.012 159,278.5C 153.856,267.395 152.189,255.728 154,243.5C 155.056,237.715 157.889,233.049 162.5,229.5 Z"/></g><g><path style="opacity:1" fill="#2d373c" d="M 310.5,229.5 C 320.13,229.267 326.297,233.933 329,243.5C 330.513,252.447 330.846,261.447 330,270.5C 328.54,275.932 325.707,280.432 321.5,284C 318.5,284.667 315.5,284.667 312.5,284C 307.301,278.8 303.801,272.634 302,265.5C 301.333,257.833 301.333,250.167 302,242.5C 303.864,237.414 306.697,233.08 310.5,229.5 Z"/></g><g><path style="opacity:1" fill="#abafb1" d="M 77.5,230.5 C 78.1665,239.327 78.4998,248.327 78.5,257.5C 78.4983,266.859 77.8316,275.859 76.5,284.5C 77.486,266.577 77.8193,248.577 77.5,230.5 Z"/></g><g><path style="opacity:1" fill="#999ea0" d="M 135.5,245.5 C 134.725,250.797 134.392,256.13 134.5,261.5C 133.837,259.527 133.504,257.361 133.5,255C 133.328,251.523 133.994,248.356 135.5,245.5 Z"/></g><g><path style="opacity:1" fill="#737a7d" d="M 209.5,263.5 C 210.871,265.936 211.871,268.603 212.5,271.5C 210.345,269.383 209.345,266.716 209.5,263.5 Z"/></g><g><path style="opacity:1" fill="#8d9395" d="M 134.5,264.5 C 135.738,266.214 136.405,268.214 136.5,270.5C 134.926,268.898 134.259,266.898 134.5,264.5 Z"/></g><g><path style="opacity:1" fill="#b5b9bb" d="M 117.5,280.5 C 117.5,281.833 117.5,283.167 117.5,284.5C 110.313,284.825 103.313,284.491 96.5,283.5C 103.167,283.5 109.833,283.5 116.5,283.5C 116.263,282.209 116.596,281.209 117.5,280.5 Z"/></g><g><path style="opacity:1" fill="#cbcdce" d="M 275.5,305.5 C 284.53,304.66 286.53,307.827 281.5,315C 282.453,316.955 283.787,318.622 285.5,320C 282.645,318.338 279.645,316.838 276.5,315.5C 275,316.513 274.666,313.179 275.5,305.5 Z"/></g><g><path style="opacity:1" fill="#808689" d="M 295.5,305.5 C 295.5,310.5 295.5,315.5 295.5,320.5C 297.833,320.5 300.167,320.5 302.5,320.5C 300.052,321.473 297.385,321.806 294.5,321.5C 294.179,315.974 294.512,310.64 295.5,305.5 Z"/></g><g><path style="opacity:1" fill="#d6d8d9" d="M 185.5,305.5 C 197.817,304.75 200.817,309.583 194.5,320C 191.518,320.498 188.518,320.665 185.5,320.5C 185.5,315.5 185.5,310.5 185.5,305.5 Z"/></g><g><path style="opacity:1" fill="#353e43" d="M 186.5,307.5 C 195.603,306.222 198.27,309.722 194.5,318C 191.986,319.252 189.32,319.752 186.5,319.5C 186.5,315.5 186.5,311.5 186.5,307.5 Z"/></g><g><path style="opacity:1" fill="#374145" d="M 276.5,307.5 C 278.5,307.5 280.5,307.5 282.5,307.5C 283.5,312.5 281.5,314.5 276.5,313.5C 276.5,311.5 276.5,309.5 276.5,307.5 Z"/></g><g><path style="opacity:1" fill="#a5a9ab" d="M 202.5,305.5 C 203.809,307.571 204.475,310.071 204.5,313C 204.167,315.5 203.833,318 203.5,320.5C 202.506,315.544 202.173,310.544 202.5,305.5 Z"/></g><g><path style="opacity:1" fill="#c5c7c9" d="M 244.5,305.5 C 252.775,304.706 255.942,308.373 254,316.5C 249.667,323.167 245.333,323.167 241,316.5C 239.662,311.96 240.829,308.293 244.5,305.5 Z"/></g><g><path style="opacity:1" fill="#2e383d" d="M 244.5,307.5 C 251.503,306.673 254.003,309.673 252,316.5C 249,320.5 246,320.5 243,316.5C 242.068,313.177 242.568,310.177 244.5,307.5 Z"/></g><g><path style="opacity:1" fill="#edeeee" d="M 295.5,305.5 C 294.512,310.64 294.179,315.974 294.5,321.5C 297.385,321.806 300.052,321.473 302.5,320.5C 300.167,320.5 297.833,320.5 295.5,320.5C 295.5,315.5 295.5,310.5 295.5,305.5 Z"/></g><g><path style="opacity:1" fill="#c5c8ca" d="M 307.5,305.5 C 315.775,304.706 318.942,308.373 317,316.5C 314.661,321.256 311.161,322.423 306.5,320C 302.296,314.854 302.629,310.021 307.5,305.5 Z"/></g><g><path style="opacity:1" fill="#303a3f" d="M 307.5,307.5 C 315.266,307.141 317.599,310.641 314.5,318C 309.016,320.759 306.016,319.092 305.5,313C 305.395,310.822 306.061,308.988 307.5,307.5 Z"/></g><g><path style="opacity:1" fill="#d1d3d4" d="M 324.5,305.5 C 334.984,306.482 334.984,307.315 324.5,308C 321.833,311.667 321.833,315.333 324.5,319C 328.436,320.461 330.936,319.295 332,315.5C 332.494,317.134 332.66,318.801 332.5,320.5C 323.231,322.396 319.397,318.729 321,309.5C 322.376,308.295 323.542,306.962 324.5,305.5 Z"/></g><g><path style="opacity:1" fill="#d2d4d5" d="M 233.5,320.5 C 232.833,318.5 232.167,316.5 231.5,314.5C 230.18,311.86 228.847,309.193 227.5,306.5C 228.167,305.167 228.833,305.167 229.5,306.5C 230.667,308.833 231.833,311.167 233,313.5C 234.08,311.004 235.414,308.67 237,306.5C 237.654,305.304 238.154,305.304 238.5,306.5C 235.644,310.851 233.977,315.518 233.5,320.5 Z"/></g><g><path style="opacity:1" fill="#c7cacb" d="M 208.5,305.5 C 210.506,307.519 212.172,309.852 213.5,312.5C 215.316,310.882 216.649,308.882 217.5,306.5C 218.167,305.167 218.833,305.167 219.5,306.5C 216.404,310.693 214.404,315.359 213.5,320.5C 212.426,315.278 210.759,310.278 208.5,305.5 Z"/></g><g><path style="opacity:1" fill="#878d8f" d="M 231.5,314.5 C 232.167,316.5 232.833,318.5 233.5,320.5C 233.44,321.043 233.107,321.376 232.5,321.5C 231.526,319.257 231.192,316.924 231.5,314.5 Z"/></g><g><path style="opacity:1" fill="#bdc0c2" d="M 340.5,305.5 C 348.775,304.706 351.942,308.373 350,316.5C 345.667,323.167 341.333,323.167 337,316.5C 335.663,311.916 336.829,308.249 340.5,305.5 Z"/></g><g><path style="opacity:1" fill="#30393e" d="M 340.5,307.5 C 347.503,306.673 350.003,309.673 348,316.5C 345.339,319.966 342.339,320.299 339,317.5C 338.037,313.851 338.537,310.518 340.5,307.5 Z"/></g><g><path style="opacity:1" fill="#e4e5e6" d="M 258.5,305.5 C 259.324,309.312 259.824,313.312 260,317.5C 262.667,320.167 265.333,320.167 268,317.5C 268.333,313.5 268.667,309.5 269,305.5C 269.828,310.202 269.662,314.869 268.5,319.5C 265.063,321.078 261.896,320.745 259,318.5C 258.501,314.179 258.334,309.846 258.5,305.5 Z"/></g></svg>