<svg xmlns="http://www.w3.org/2000/svg" xmlns:svg="http://www.w3.org/2000/svg" id="svg4" width="240" height="240" version="1.1" viewBox="0 0 240 240"><metadata id="metadata10"/><path style="stroke-width:.961538;fill-opacity:1;fill:#445a64" id="path2" d="M 205.57692,181.53846 H 34.423077 A 14.423077,14.423077 0 0 1 20,167.11539 V 72.884617 A 14.423077,14.423077 0 0 1 34.423077,58.46154 H 205.57692 A 14.423077,14.423077 0 0 1 220,72.884617 v 94.230773 a 14.423077,14.423077 0 0 1 -14.42308,14.42307 z M 68.076922,152.69231 v -37.5 l 19.23077,24.03846 19.230768,-24.03846 v 37.5 h 19.23077 V 87.307694 H 106.53846 L 87.307692,111.34615 68.076922,87.307694 H 48.846154 V 152.69231 Z M 196.92308,120 H 177.69231 V 87.307694 H 158.46154 V 120 h -19.23077 l 28.84615,33.65385 z"/></svg>