<svg xmlns="http://www.w3.org/2000/svg" xmlns:svg="http://www.w3.org/2000/svg" id="Layer_1" width="240" height="240" x="0" y="0" enable-background="new 0 0 1190.6 841.9" version="1.1" viewBox="0 0 240 240" xml:space="preserve"><metadata id="metadata19"/><path style="fill:#d9272e;stroke-width:.553403" id="path3" d="M 120,20 C 64.770338,20 20,64.770338 20,120 20,175.22966 64.770338,220 120,220 175.22966,220 220,175.22966 220,120 220,64.770338 175.22966,20 120,20 Z m 51.90924,135.36248 c 0,1.71555 -1.38351,3.09906 -3.09906,3.09906 h -13.06032 c -1.71555,0 -3.09906,-1.38351 -3.09906,-3.09906 v -40.23243 c 0,-0.33204 -0.38738,-0.49806 -0.66408,-0.2767 l -27.67017,27.67017 c -2.37964,2.37963 -6.3088,2.37963 -8.68844,0 L 87.957941,114.85335 c -0.221361,-0.22136 -0.664084,-0.0553 -0.664084,0.2767 v 40.23243 c 0,1.71555 -1.383508,3.09906 -3.099059,3.09906 H 71.134477 c -1.715551,0 -3.099059,-1.38351 -3.099059,-3.09906 V 84.637521 c 0,-1.715551 1.383508,-3.099059 3.099059,-3.099059 h 8.965136 c 1.60487,0 3.20974,0.664084 4.371887,1.826231 l 34.42169,34.421697 c 0.60875,0.60874 1.54953,0.60874 2.15828,0 l 34.42169,-34.421697 c 1.16215,-1.162147 2.71168,-1.826231 4.37189,-1.826231 h 8.96513 c 1.71555,0 3.09906,1.383508 3.09906,3.099059 z"/></svg>