<svg xmlns="http://www.w3.org/2000/svg" xmlns:svg="http://www.w3.org/2000/svg" id="Capa_1" width="240" height="240" x="0" y="0" version="1.1" viewBox="0 0 240 240" xml:space="preserve"><metadata id="metadata41"/><g id="g901" transform="matrix(0.39058702,0,0,0.39058702,19.999958,19.999917)"><path style="fill:#2196f3" id="path2" d="M 256.025,0.05 C 117.67,-2.678 3.184,107.038 0.025,245.383 0.386,315.806 31.569,382.54 85.358,427.996 v 73.387 c 0,5.891 4.776,10.667 10.667,10.667 1.999,0 3.958,-0.562 5.653,-1.621 l 59.456,-37.141 c 30.292,11.586 62.459,17.494 94.891,17.429 138.355,2.728 252.841,-106.988 256,-245.333 C 508.866,107.038 394.38,-2.678 256.025,0.05 Z"/><path style="fill:#fafafa" id="path4" d="m 424.558,174.983 c -3.174,-4.254 -8.993,-5.527 -13.653,-2.987 l -110.933,60.48 -69.013,-59.179 c -4.232,-3.628 -10.544,-3.387 -14.485,0.555 l -128,128 c -4.153,4.178 -4.133,10.932 0.046,15.085 3.341,3.321 8.464,4.057 12.605,1.811 l 110.933,-60.48 69.077,59.2 c 4.232,3.628 10.544,3.387 14.485,-0.555 l 128,-128 c 3.73,-3.765 4.13,-9.698 0.938,-13.93 z"/></g></svg>