<svg xmlns="http://www.w3.org/2000/svg" xmlns:xlink="http://www.w3.org/1999/xlink" width="256" height="256" version="1.1" style="shape-rendering:geometricPrecision;text-rendering:geometricPrecision;image-rendering:optimizeQuality;fill-rule:evenodd;clip-rule:evenodd"><g><path style="opacity:.357" fill="#0a2d84" d="M 48.5,-0.5 C 98.8333,-0.5 149.167,-0.5 199.5,-0.5C 199.5,0.166667 199.5,0.833333 199.5,1.5C 147.5,1.5 95.5,1.5 43.5,1.5C 45.1667,0.833333 46.8333,0.166667 48.5,-0.5 Z"/></g><g><path style="opacity:1" fill="#1e4fc6" d="M 43.5,1.5 C 95.5,1.5 147.5,1.5 199.5,1.5C 210.977,1.56941 221.31,5.06941 230.5,12C 235.047,15.721 239.38,19.5543 243.5,23.5C 246.341,30.5155 249.674,37.1822 253.5,43.5C 253.5,95.5 253.5,147.5 253.5,199.5C 251.173,224.329 238.506,241.496 215.5,251C 210.311,252.798 204.978,253.631 199.5,253.5C 147.5,253.5 95.5,253.5 43.5,253.5C 38.0847,250.289 32.418,247.289 26.5,244.5C 12.2828,234.395 3.94942,220.728 1.5,203.5C 1.5,202.167 1.5,200.833 1.5,199.5C 1.21731,147.49 1.55065,95.49 2.5,43.5C 6.37567,30.1024 14.0423,19.2691 25.5,11C 31.304,7.24088 37.304,4.07421 43.5,1.5 Z"/></g><g><path style="opacity:.345" fill="#0b2669" d="M 199.5,-0.5 C 201.833,-0.5 204.167,-0.5 206.5,-0.5C 221.946,2.72182 234.28,10.7218 243.5,23.5C 239.38,19.5543 235.047,15.721 230.5,12C 221.31,5.06941 210.977,1.56941 199.5,1.5C 199.5,0.833333 199.5,0.166667 199.5,-0.5 Z"/></g><g><path style="opacity:.145" fill="#0b256a" d="M 243.5,23.5 C 248.911,29.0291 252.245,35.6958 253.5,43.5C 249.674,37.1822 246.341,30.5155 243.5,23.5 Z"/></g><g><path style="opacity:.298" fill="#0c246a" d="M 43.5,1.5 C 37.304,4.07421 31.304,7.24088 25.5,11C 14.0423,19.2691 6.37567,30.1024 2.5,43.5C 2.16667,43.5 1.83333,43.5 1.5,43.5C 7.83333,21.8333 21.8333,7.83333 43.5,1.5 Z"/></g><g><path style="opacity:.356" fill="#0a2d84" d="M 253.5,43.5 C 254.167,45.1667 254.833,46.8333 255.5,48.5C 255.5,98.8333 255.5,149.167 255.5,199.5C 254.833,199.5 254.167,199.5 253.5,199.5C 253.5,147.5 253.5,95.5 253.5,43.5 Z"/></g><g><path style="opacity:.356" fill="#012573" d="M 1.5,43.5 C 0.205337,95.6575 0.205337,147.658 1.5,199.5C 1.5,200.833 1.5,202.167 1.5,203.5C 0.833333,203.167 0.166667,202.833 -0.5,202.5C -0.5,151.167 -0.5,99.8333 -0.5,48.5C 0.166667,46.8333 0.833333,45.1667 1.5,43.5 Z"/></g><g><path style="opacity:.677" fill="#1c439d" d="M 1.5,43.5 C 1.83333,43.5 2.16667,43.5 2.5,43.5C 1.55065,95.49 1.21731,147.49 1.5,199.5C 0.205337,147.658 0.205337,95.6575 1.5,43.5 Z"/></g><g><path style="opacity:1" fill="#3d5cbb" d="M 164.5,70.5 C 154.861,66.6033 147.194,68.9366 141.5,77.5C 143.164,75.3209 142.83,73.4875 140.5,72C 141.325,70.3117 142.325,70.1451 143.5,71.5C 144.696,71.1543 144.696,70.6543 143.5,70C 146.702,69.4532 149.702,68.4532 152.5,67C 157.336,65.7887 161.336,66.9554 164.5,70.5 Z"/></g><g><path style="opacity:1" fill="#365abb" d="M 94.5,68.5 C 98.6463,67.353 102.98,67.1864 107.5,68C 109.934,69.4841 111.267,71.6508 111.5,74.5C 106.886,69.7385 101.22,67.7385 94.5,68.5 Z"/></g><g><path style="opacity:1" fill="#fcfdfe" d="M 94.5,68.5 C 101.22,67.7385 106.886,69.7385 111.5,74.5C 111.893,76.2838 112.559,77.9505 113.5,79.5C 113.664,82.1873 113.497,84.854 113,87.5C 108.172,97.159 102.839,106.492 97,115.5C 95.9914,117.025 95.4914,118.692 95.5,120.5C 82.9371,139.942 71.1037,159.942 60,180.5C 52.2511,187.993 44.2511,188.326 36,181.5C 35.059,179.273 33.8923,177.273 32.5,175.5C 32.2633,171.727 32.7633,168.06 34,164.5C 37.764,158.637 41.264,152.637 44.5,146.5C 51.922,135.33 58.5886,123.663 64.5,111.5C 69.668,103.836 74.3347,95.8361 78.5,87.5C 81.5589,83.0635 84.3922,78.3968 87,73.5C 89.3818,71.6113 91.8818,69.9447 94.5,68.5 Z"/></g><g><path style="opacity:1" fill="#fafcfe" d="M 164.5,70.5 C 170.604,76.0244 172.104,82.691 169,90.5C 167.64,93.0226 165.807,95.0226 163.5,96.5C 158.495,99.1652 153.495,99.1652 148.5,96.5C 142.459,91.7279 140.126,85.3945 141.5,77.5C 147.194,68.9366 154.861,66.6033 164.5,70.5 Z"/></g><g><path style="opacity:1" fill="#3556bb" d="M 78.5,87.5 C 74.3347,95.8361 69.668,103.836 64.5,111.5C 66.5839,106.079 68.7506,100.745 71,95.5C 71.3333,95.8333 71.6667,96.1667 72,96.5C 72.3333,94.8333 72.6667,93.1667 73,91.5C 73.3333,91.8333 73.6667,92.1667 74,92.5C 74.1953,90.7928 74.1953,89.1261 74,87.5C 75.2988,87.0338 76.7988,87.0338 78.5,87.5 Z"/></g><g><path style="opacity:1" fill="#e5e6e8" d="M 113.5,79.5 C 116.323,83.1362 118.656,87.1362 120.5,91.5C 118.554,91.1928 116.887,91.1928 115.5,91.5C 116.73,104.814 116.563,118.147 115,131.5C 113.705,134.005 113.539,136.672 114.5,139.5C 110.81,132.635 106.477,126.135 101.5,120C 99.4024,119.322 97.4024,119.489 95.5,120.5C 95.4914,118.692 95.9914,117.025 97,115.5C 102.839,106.492 108.172,97.159 113,87.5C 113.497,84.854 113.664,82.1873 113.5,79.5 Z"/></g><g><path style="opacity:1" fill="#f2f5f7" d="M 120.5,91.5 C 126.07,100.299 131.404,109.299 136.5,118.5C 135.883,118.611 135.383,118.944 135,119.5C 132.823,114.704 130.656,114.204 128.5,118C 129.022,118.561 129.355,119.228 129.5,120C 128.544,121.365 127.878,122.865 127.5,124.5C 129.938,129.268 129.938,133.935 127.5,138.5C 129.086,140.67 130.42,143.004 131.5,145.5C 130.516,150.833 130.183,156 130.5,161C 131.416,161.374 132.25,161.874 133,162.5C 135.031,167.692 136.531,173.026 137.5,178.5C 129.596,165.7 121.929,152.7 114.5,139.5C 113.539,136.672 113.705,134.005 115,131.5C 116.563,118.147 116.73,104.814 115.5,91.5C 116.887,91.1928 118.554,91.1928 120.5,91.5 Z"/></g><g><path style="opacity:1" fill="#fbfdfe" d="M 185.5,105.5 C 197.24,124.64 208.74,143.974 220,163.5C 224.581,173.834 221.747,181.334 211.5,186C 205.394,187.587 200.228,186.087 196,181.5C 191.738,173.968 187.238,166.635 182.5,159.5C 178.335,151.164 173.668,143.164 168.5,135.5C 167.921,132.669 166.588,130.336 164.5,128.5C 158.52,117.5 160.853,109 171.5,103C 174.5,102.333 177.5,102.333 180.5,103C 181.91,104.372 183.577,105.205 185.5,105.5 Z"/></g><g><path style="opacity:1" fill="#2c52be" d="M 148.5,96.5 C 153.495,99.1652 158.495,99.1652 163.5,96.5C 165.086,97.4132 166.586,97.4132 168,96.5C 169.419,97.4601 170.919,98.2935 172.5,99C 172.167,99.3333 171.833,99.6667 171.5,100C 173.5,100.667 175.5,100.667 177.5,100C 174.668,98.0924 175.001,97.259 178.5,97.5C 178.5,98.5 178.5,99.5 178.5,100.5C 180.58,101.044 182.58,101.878 184.5,103C 185.252,103.671 185.586,104.504 185.5,105.5C 183.577,105.205 181.91,104.372 180.5,103C 177.5,102.333 174.5,102.333 171.5,103C 160.853,109 158.52,117.5 164.5,128.5C 163.265,128.279 162.265,127.612 161.5,126.5C 157.178,118.553 157.678,110.886 163,103.5C 165.2,104.99 167.034,104.657 168.5,102.5C 167.675,101.614 166.675,101.281 165.5,101.5C 165.5,100.5 165.5,99.5 165.5,98.5C 162.175,99.1595 158.842,99.8262 155.5,100.5C 152.328,100.377 149.995,99.0438 148.5,96.5 Z"/></g><g><path style="opacity:1" fill="#fafcfc" d="M 136.5,118.5 C 145.833,134.5 155.167,150.5 164.5,166.5C 164.79,170.936 164.29,175.27 163,179.5C 160.96,181.37 159.127,183.37 157.5,185.5C 152.768,186.916 148.102,186.749 143.5,185C 140.591,183.594 138.591,181.428 137.5,178.5C 136.531,173.026 135.031,167.692 133,162.5C 132.25,161.874 131.416,161.374 130.5,161C 130.183,156 130.516,150.833 131.5,145.5C 130.42,143.004 129.086,140.67 127.5,138.5C 129.938,133.935 129.938,129.268 127.5,124.5C 127.878,122.865 128.544,121.365 129.5,120C 129.355,119.228 129.022,118.561 128.5,118C 130.656,114.204 132.823,114.704 135,119.5C 135.383,118.944 135.883,118.611 136.5,118.5 Z"/></g><g><path style="opacity:1" fill="#3658bd" d="M 168.5,135.5 C 173.668,143.164 178.335,151.164 182.5,159.5C 181.167,159.5 179.833,159.5 178.5,159.5C 177.524,154.541 175.691,149.874 173,145.5C 171.719,145.619 170.552,145.119 169.5,144C 170.554,142.612 170.72,141.112 170,139.5C 169.667,139.833 169.333,140.167 169,140.5C 168.506,138.866 168.34,137.199 168.5,135.5 Z"/></g><g><path style="opacity:1" fill="#3356b6" d="M 44.5,146.5 C 41.264,152.637 37.764,158.637 34,164.5C 32.7633,168.06 32.2633,171.727 32.5,175.5C 31.2812,171.987 31.2812,168.32 32.5,164.5C 35.094,160.312 37.4273,155.979 39.5,151.5C 40.5544,149.112 42.2211,147.445 44.5,146.5 Z"/></g><g><path style="opacity:1" fill="#4262b9" d="M 164.5,166.5 C 165.117,166.611 165.617,166.944 166,167.5C 167.039,173.424 165.705,178.757 162,183.5C 160.67,184.582 159.17,185.249 157.5,185.5C 159.127,183.37 160.96,181.37 163,179.5C 164.29,175.27 164.79,170.936 164.5,166.5 Z"/></g><g><path style="opacity:.333" fill="#0c2569" d="M -0.5,202.5 C 0.166667,202.833 0.833333,203.167 1.5,203.5C 3.94942,220.728 12.2828,234.395 26.5,244.5C 32.418,247.289 38.0847,250.289 43.5,253.5C 19.8485,246.184 5.18184,230.517 -0.5,206.5C -0.5,205.167 -0.5,203.833 -0.5,202.5 Z"/></g><g><path style="opacity:.333" fill="#0c276a" d="M 253.5,199.5 C 254.167,199.5 254.833,199.5 255.5,199.5C 255.5,201.833 255.5,204.167 255.5,206.5C 248.833,232.5 232.5,248.833 206.5,255.5C 204.167,255.5 201.833,255.5 199.5,255.5C 199.5,254.833 199.5,254.167 199.5,253.5C 204.978,253.631 210.311,252.798 215.5,251C 238.506,241.496 251.173,224.329 253.5,199.5 Z"/></g><g><path style="opacity:.357" fill="#0b2e86" d="M 43.5,253.5 C 95.5,253.5 147.5,253.5 199.5,253.5C 199.5,254.167 199.5,254.833 199.5,255.5C 149.167,255.5 98.8333,255.5 48.5,255.5C 46.8333,254.833 45.1667,254.167 43.5,253.5 Z"/></g></svg>