<?xml version="1.0" encoding="UTF-8"?>
<!DOCTYPE svg PUBLIC "-//W3C//DTD SVG 1.1//EN" "http://www.w3.org/Graphics/SVG/1.1/DTD/svg11.dtd">
<svg xmlns="http://www.w3.org/2000/svg" version="1.1" width="210px" height="212px" style="shape-rendering:geometricPrecision; text-rendering:geometricPrecision; image-rendering:optimizeQuality; fill-rule:evenodd; clip-rule:evenodd" xmlns:xlink="http://www.w3.org/1999/xlink">
<g><path style="opacity:1" fill="#010101" d="M -0.5,-0.5 C 69.5,-0.5 139.5,-0.5 209.5,-0.5C 209.5,70.1667 209.5,140.833 209.5,211.5C 139.5,211.5 69.5,211.5 -0.5,211.5C -0.5,140.833 -0.5,70.1667 -0.5,-0.5 Z"/></g>
<g><path style="opacity:1" fill="#fafafa" d="M 104.5,32.5 C 106.074,32.9371 107.241,33.9371 108,35.5C 121.167,61.1667 134.333,86.8333 147.5,112.5C 142.167,120.5 136.833,128.5 131.5,136.5C 127.614,132.103 124.281,127.269 121.5,122C 124.65,117.556 126.483,112.723 127,107.5C 120.325,94.1437 113.159,81.1437 105.5,68.5C 97.8415,81.1437 90.6748,94.1437 84,107.5C 84.5167,112.723 86.35,117.556 89.5,122C 86.2916,126.247 83.4583,130.747 81,135.5C 80,136.833 79,136.833 78,135.5C 73.0349,127.734 68.2015,119.901 63.5,112C 77.3126,85.5406 90.9793,59.0406 104.5,32.5 Z"/></g>
<g><path style="opacity:1" fill="#f8f8f8" d="M 104.5,97.5 C 105.693,97.9704 106.36,98.9704 106.5,100.5C 108.02,107.912 109.853,115.245 112,122.5C 119.5,134.167 127,145.833 134.5,157.5C 125.313,169.866 115.647,181.866 105.5,193.5C 95.3534,181.866 85.6868,169.866 76.5,157.5C 81.3333,149.833 86.1667,142.167 91,134.5C 94.0214,138.544 96.5214,142.877 98.5,147.5C 96.9349,151.072 94.9349,154.405 92.5,157.5C 96.3031,163.801 100.303,169.968 104.5,176C 105.449,176.617 106.282,176.451 107,175.5C 110.46,169.41 114.294,163.577 118.5,158C 111.749,147.162 104.749,136.496 97.5,126C 100.379,116.649 102.713,107.149 104.5,97.5 Z"/></g>
<g><path style="opacity:1" fill="#f8f8f8" d="M 62.5,125.5 C 66.9703,131.487 71.3036,137.654 75.5,144C 72.2506,148.497 69.2506,153.163 66.5,158C 54.8333,164.167 43.1667,170.333 31.5,176.5C 30.479,175.998 30.3123,175.332 31,174.5C 42.0199,158.45 52.5199,142.116 62.5,125.5 Z"/></g>
<g><path style="opacity:1" fill="#f8f8f8" d="M 146.5,126.5 C 147.496,126.414 148.329,126.748 149,127.5C 159.375,143.752 169.875,159.919 180.5,176C 168.121,170.56 155.954,164.393 144,157.5C 141.042,153.084 138.208,148.584 135.5,144C 139.391,138.282 143.058,132.449 146.5,126.5 Z"/></g>
</svg>
