<svg xmlns="http://www.w3.org/2000/svg" width="256" height="256" viewBox="0 0 100 100"><rect width="100" height="100" rx="20" fill="#0a5af8"></rect><path fill="#fff" d="M6.52 76.27L6.52 76.27Q2.78 76.27 2.78 73.20L2.78 73.20L2.78 25.18Q4.31 23.65 7.37 23.65L7.37 23.65Q9.41 23.65 10.86 24.46Q12.30 25.27 13.49 27.39L13.49 27.39L29.73 54.59Q30.75 56.38 31.85 58.37Q32.96 60.37 33.98 62.37Q35.00 64.37 35.89 66.11Q36.78 67.85 37.38 69.04L37.38 69.04L37.72 68.95Q37.04 62.07 36.91 55.10Q36.78 48.13 36.78 41.50L36.78 41.50L36.78 24.33Q37.29 24.16 38.14 23.95Q38.99 23.73 40.01 23.73L40.01 23.73Q43.75 23.73 43.75 26.80L43.75 26.80L43.75 74.91Q42.99 75.59 41.80 75.97Q40.61 76.35 39.16 76.35L39.16 76.35Q37.12 76.35 35.68 75.54Q34.23 74.73 33.04 72.61L33.04 72.61L16.89 45.41Q15.87 43.71 14.72 41.67Q13.58 39.63 12.52 37.67Q11.45 35.72 10.56 33.94Q9.67 32.15 9.07 30.96L9.07 30.96L8.73 31.05Q9.16 35.13 9.41 40.35Q9.67 45.58 9.67 50.26L9.67 50.26L9.67 75.67Q9.24 75.84 8.35 76.05Q7.46 76.27 6.52 76.27ZM95.18 37.16L95.18 37.16Q95.18 40.82 93.44 43.92Q91.69 47.03 87.61 48.73L87.61 48.73Q92.46 50.34 94.84 53.78Q97.22 57.23 97.22 61.56L97.22 61.56Q97.22 69.30 91.65 73.03Q86.08 76.78 75.80 76.78L75.80 76.78Q72.23 76.78 68.87 76.48Q65.51 76.18 62.45 75.33L62.45 75.33Q58.88 74.31 58.88 71.42L58.88 71.42L58.88 27.90Q58.88 25.44 61.69 24.67L61.69 24.67Q64.58 23.82 67.81 23.52Q71.04 23.23 74.86 23.23L74.86 23.23Q84.47 23.23 89.82 26.63Q95.18 30.02 95.18 37.16ZM77.24 51.78L65.68 51.78L65.68 70.15Q67.72 70.57 70.40 70.83Q73.08 71.08 75.80 71.08L75.80 71.08Q82.85 71.08 86.51 68.74Q90.16 66.41 90.16 61.39L90.16 61.39Q90.16 56.97 86.89 54.38Q83.62 51.78 77.24 51.78L77.24 51.78ZM65.68 29.69L65.68 46.17L77.24 46.17Q82.60 46.17 85.36 43.80Q88.12 41.41 88.12 37.34L88.12 37.34Q88.12 28.92 74.86 28.92L74.86 28.92Q71.89 28.92 69.72 29.13Q67.55 29.34 65.68 29.69L65.68 29.69Z"></path></svg>