<svg xmlns="http://www.w3.org/2000/svg" width="256" height="256" viewBox="0 0 100 100"><rect width="100" height="100" fill="#0587f3" rx="20"/><path fill="#fff" d="M22.12 51.38L22.12 51.38Q22.12 48.57 20.55 47.27Q18.97 45.97 16.32 45.97L16.32 45.97Q14.32 45.97 12.77 46.47Q11.22 46.97 10.12 47.63L10.12 47.63L10.12 66.33Q9.87 66.42 9.37 66.55Q8.87 66.67 8.27 66.67L8.27 66.67Q6.12 66.67 6.12 64.88L6.12 64.88L6.12 47.82Q6.12 46.77 6.55 46.10Q6.97 45.42 8.02 44.77L8.02 44.77Q9.32 43.97 11.47 43.32Q13.62 42.67 16.32 42.67L16.32 42.67Q20.87 42.67 23.50 44.72Q26.12 46.77 26.12 51.17L26.12 51.17L26.12 66.33Q25.87 66.42 25.35 66.55Q24.82 66.67 24.27 66.67L24.27 66.67Q22.12 66.67 22.12 64.88L22.12 64.88L22.12 51.38ZM49.92 60.27L49.92 60.27Q49.92 63.47 47.57 65.27Q45.22 67.08 40.77 67.08L40.77 67.08Q38.87 67.08 37.27 66.75Q35.67 66.42 34.55 65.90Q33.42 65.38 32.80 64.70Q32.17 64.02 32.17 63.32L32.17 63.32Q32.17 62.72 32.50 62.17Q32.82 61.63 33.47 61.22L33.47 61.22Q34.82 62.22 36.62 63Q38.42 63.77 40.72 63.77L40.72 63.77Q45.92 63.77 45.92 60.27L45.92 60.27Q45.92 57.42 42.47 56.57L42.47 56.57L38.32 55.47Q35.27 54.67 33.87 53.15Q32.47 51.63 32.47 49.22L32.47 49.22Q32.47 47.92 33.00 46.72Q33.52 45.52 34.62 44.63Q35.72 43.72 37.35 43.20Q38.97 42.67 41.17 42.67L41.17 42.67Q44.67 42.67 46.82 43.70Q48.97 44.72 48.97 46.07L48.97 46.07Q48.97 46.72 48.65 47.22Q48.32 47.72 47.77 47.97L47.77 47.97Q46.87 47.38 45.22 46.67Q43.57 45.97 41.32 45.97L41.32 45.97Q39.07 45.97 37.75 46.82Q36.42 47.67 36.42 49.22L36.42 49.22Q36.42 50.38 37.17 51.17Q37.92 51.97 39.67 52.38L39.67 52.38L43.12 53.22Q46.52 54.07 48.22 55.75Q49.92 57.42 49.92 60.27ZM60.02 41.47L60.02 44.63L69.92 44.63Q70.07 44.88 70.22 45.27Q70.38 45.67 70.38 46.22L70.38 46.22Q70.38 47.88 68.82 47.88L68.82 47.88L60.07 47.88L60.07 66.33Q59.82 66.42 59.32 66.55Q58.82 66.67 58.22 66.67L58.22 66.67Q56.07 66.67 56.07 64.88L56.07 64.88L56.07 41.27Q56.07 36.88 58.45 34.90Q60.82 32.92 65.07 32.92L65.07 32.92Q67.92 32.92 69.55 33.67Q71.17 34.42 71.17 35.52L71.17 35.52Q71.17 36.63 70.32 37.38L70.32 37.38Q69.42 36.88 68.07 36.55Q66.72 36.22 65.47 36.22L65.47 36.22Q62.42 36.22 61.22 37.47Q60.02 38.72 60.02 41.47L60.02 41.47ZM86.63 46.02L86.63 46.02Q84.92 46.02 83.47 46.60Q82.03 47.17 80.97 48.30Q79.92 49.42 79.33 51.10Q78.72 52.77 78.72 54.92L78.72 54.92Q78.72 59.22 80.88 61.50Q83.03 63.77 86.63 63.77L86.63 63.77Q88.72 63.77 90.13 63.20Q91.53 62.63 92.63 61.88L92.63 61.88Q93.17 62.17 93.53 62.63Q93.88 63.07 93.88 63.72L93.88 63.72Q93.88 64.42 93.33 65.02Q92.78 65.63 91.80 66.08Q90.83 66.52 89.50 66.80Q88.17 67.08 86.63 67.08L86.63 67.08Q84.03 67.08 81.83 66.33Q79.63 65.58 78.02 64.08Q76.42 62.57 75.52 60.30Q74.63 58.02 74.63 54.92L74.63 54.92Q74.63 51.88 75.58 49.60Q76.52 47.32 78.13 45.77Q79.72 44.22 81.90 43.45Q84.08 42.67 86.53 42.67L86.53 42.67Q88.08 42.67 89.40 42.95Q90.72 43.22 91.67 43.72Q92.63 44.22 93.15 44.85Q93.67 45.47 93.67 46.13L93.67 46.13Q93.67 46.72 93.33 47.17Q92.97 47.63 92.42 47.88L92.42 47.88Q91.33 47.13 90.03 46.57Q88.72 46.02 86.63 46.02Z"/></svg>