<?xml version="1.0" standalone="no"?>
<!DOCTYPE svg PUBLIC "-//W3C//DTD SVG 20010904//EN"
 "http://www.w3.org/TR/2001/REC-SVG-20010904/DTD/svg10.dtd">
<svg version="1.0" xmlns="http://www.w3.org/2000/svg"
 width="300.000000pt" height="300.000000pt" viewBox="0 0 300.000000 300.000000"
 preserveAspectRatio="xMidYMid meet">
<metadata>
Created by potrace 1.10, written by Peter Selinger 2001-2011
</metadata>
<g transform="translate(0.000000,300.000000) scale(0.100000,-0.100000)"
fill="#000000" stroke="none">
<path d="M720 2578 c0 -7 0 -221 0 -475 l0 -462 -107 -3 -108 -3 0 -460 0
-460 108 -3 108 -3 -2 -145 c-1 -81 2 -149 8 -155 6 -6 305 -8 784 -7 l774 3
3 153 3 152 104 0 105 0 -2 463 -3 462 -102 3 -103 3 0 307 0 308 -167 167
-168 167 -617 0 c-488 0 -618 -3 -618 -12z m1247 -61 c9 -19 8 -23 -8 -23 -22
0 -25 12 -6 19 7 3 4 6 -6 6 -10 1 -15 6 -12 11 10 16 21 12 32 -13z m-55 -85
c3 -87 6 -103 30 -139 40 -61 94 -83 200 -83 l87 0 -2 -285 -2 -285 -725 0
-725 0 3 445 2 445 564 0 564 0 4 -98z m166 -54 c56 -56 102 -104 102 -106 0
-3 -28 -2 -62 1 -70 6 -105 27 -130 78 -15 28 -26 129 -15 129 2 0 49 -46 105
-102z m362 -1206 l0 -402 -935 2 -935 3 0 398 c0 218 0 398 0 400 0 1 421 2
935 2 l935 0 0 -403z m-215 -587 l0 -115 -723 -3 -722 -2 0 120 0 120 722 -2
723 -3 0 -115z"/>
<path d="M979 2204 c-9 -11 -10 -20 -2 -32 9 -15 48 -17 381 -20 367 -2 371
-2 382 19 26 48 16 49 -380 49 -323 0 -369 -2 -381 -16z"/>
<path d="M979 2024 c-9 -11 -10 -20 -2 -32 9 -16 56 -17 529 -17 l519 0 0 30
0 30 -516 3 c-462 2 -518 1 -530 -14z"/>
<path d="M979 1844 c-9 -11 -10 -20 -2 -32 9 -16 56 -17 529 -17 l519 0 0 30
0 30 -516 3 c-462 2 -518 1 -530 -14z"/>
<path d="M1030 1383 c-68 -13 -111 -78 -92 -141 15 -47 56 -75 146 -100 87
-23 106 -46 75 -85 -38 -50 -138 -31 -153 29 -6 24 -10 26 -44 19 -46 -8 -46
-9 -38 -38 16 -66 81 -107 168 -107 75 0 132 30 152 81 35 87 -5 146 -120 177
-40 11 -81 25 -93 31 -47 25 -8 71 59 71 29 0 70 -29 70 -50 0 -5 20 -10 44
-10 l45 0 -9 31 c-12 42 -28 59 -75 80 -38 18 -82 21 -135 12z"/>
<path d="M1836 1378 c-49 -14 -112 -76 -125 -125 -34 -123 14 -241 116 -279
59 -23 156 -15 215 17 l43 24 3 88 3 87 -94 0 -93 0 0 -35 0 -35 48 0 c47 0
48 -1 48 -31 0 -25 -6 -32 -35 -45 -54 -22 -96 -18 -133 14 -41 35 -58 108
-39 174 26 89 131 116 187 49 23 -27 30 -30 63 -24 20 3 37 11 37 17 0 23 -40
76 -69 90 -39 21 -127 28 -175 14z"/>
<path d="M1358 1172 l76 -208 44 2 45 2 73 203 c40 112 74 205 74 207 0 1 -20
2 -44 2 l-45 0 -45 -140 c-25 -77 -46 -147 -46 -155 0 -8 -4 -15 -10 -15 -5 0
-10 6 -10 13 1 6 -21 76 -47 155 l-48 142 -46 0 -46 0 75 -208z m172 -92 c0
-5 -4 -10 -10 -10 -5 0 -10 -8 -10 -18 0 -23 -19 -42 -42 -42 -11 0 -18 7 -18
18 0 10 -6 24 -12 31 -11 10 -6 11 25 6 30 -6 37 -4 37 9 0 9 7 16 15 16 8 0
15 -4 15 -10z"/>
</g>
</svg>
