<?xml version="1.0" encoding="UTF-8"?>
<!DOCTYPE svg PUBLIC "-//W3C//DTD SVG 1.1//EN" "http://www.w3.org/Graphics/SVG/1.1/DTD/svg11.dtd">
<svg xmlns="http://www.w3.org/2000/svg" version="1.1" width="256px" height="256px" style="shape-rendering:geometricPrecision; text-rendering:geometricPrecision; image-rendering:optimizeQuality; fill-rule:evenodd; clip-rule:evenodd" xmlns:xlink="http://www.w3.org/1999/xlink">
<g><path style="opacity:1" fill="#4ca84c" d="M -0.5,-0.5 C 84.8333,-0.5 170.167,-0.5 255.5,-0.5C 255.5,84.8333 255.5,170.167 255.5,255.5C 170.167,255.5 84.8333,255.5 -0.5,255.5C -0.5,170.167 -0.5,84.8333 -0.5,-0.5 Z"/></g>
<g><path style="opacity:1" fill="#54a056" d="M 143.5,78.5 C 138.167,78.5 132.833,78.5 127.5,78.5C 129.743,77.1883 132.41,76.5217 135.5,76.5C 138.59,76.5217 141.257,77.1883 143.5,78.5 Z"/></g>
<g><path style="opacity:1" fill="#c1f3c3" d="M 127.5,78.5 C 132.833,78.5 138.167,78.5 143.5,78.5C 143.5,78.8333 143.5,79.1667 143.5,79.5C 137.31,79.1771 131.31,79.5104 125.5,80.5C 124.957,80.44 124.624,80.1067 124.5,79.5C 125.325,78.6143 126.325,78.281 127.5,78.5 Z"/></g>
<g><path style="opacity:1" fill="#c7f7c8" d="M 182.5,79.5 C 182.5,78.8333 182.833,78.5 183.5,78.5C 189.537,78.1707 195.537,78.5041 201.5,79.5C 200.965,81.261 199.965,82.5943 198.5,83.5C 198.539,82.4168 198.873,81.4168 199.5,80.5C 193.872,79.5046 188.206,79.1712 182.5,79.5 Z"/></g>
<g><path style="opacity:1" fill="#fafefa" d="M 143.5,79.5 C 144.906,79.9731 145.573,80.9731 145.5,82.5C 147.544,88.8895 151.211,94.2229 156.5,98.5C 158.408,101.28 160.575,103.947 163,106.5C 166.509,103.469 169.009,99.8018 170.5,95.5C 171.728,94.6935 172.728,93.6935 173.5,92.5C 174.906,92.0269 175.573,91.0269 175.5,89.5C 177.344,85.8084 179.677,82.4751 182.5,79.5C 188.206,79.1712 193.872,79.5046 199.5,80.5C 198.873,81.4168 198.539,82.4168 198.5,83.5C 197.167,85.8333 195.833,88.1667 194.5,90.5C 191.779,93.894 189.446,97.5606 187.5,101.5C 186.206,102.29 185.039,103.29 184,104.5C 182.339,108.492 180.173,112.158 177.5,115.5C 176.094,115.973 175.427,116.973 175.5,118.5C 175.845,121.198 177.178,123.198 179.5,124.5C 181.749,128.754 184.415,132.754 187.5,136.5C 191.918,142.246 195.918,148.246 199.5,154.5C 199.585,156.929 200.585,158.929 202.5,160.5C 197.114,161.782 191.781,161.782 186.5,160.5C 184.356,157.878 183.023,154.878 182.5,151.5C 180.034,149.656 177.367,147.99 174.5,146.5C 171.16,141.17 167.327,136.17 163,131.5C 161.519,132.471 160.685,133.804 160.5,135.5C 156.454,140.214 152.788,145.214 149.5,150.5C 147.413,151.585 146.08,153.251 145.5,155.5C 143.833,157.5 142.167,159.5 140.5,161.5C 134.31,161.823 128.31,161.49 122.5,160.5C 128.252,151.328 134.252,142.328 140.5,133.5C 141.167,133.167 141.833,132.833 142.5,132.5C 143.766,131.91 145.099,131.41 146.5,131C 146.167,130.667 145.833,130.333 145.5,130C 146.726,127.473 148.392,125.306 150.5,123.5C 151.657,120.216 151.824,116.882 151,113.5C 149.989,112.663 148.822,112.33 147.5,112.5C 146.833,112.167 146.167,111.833 145.5,111.5C 145.262,109.596 144.262,108.262 142.5,107.5C 138.61,99.9508 133.944,92.9508 128.5,86.5C 128.025,84.2163 127.025,82.2163 125.5,80.5C 131.31,79.5104 137.31,79.1771 143.5,79.5 Z"/></g>
<g><path style="opacity:1" fill="#fbfefa" d="M 83.5,79.5 C 104.413,78.106 119.413,86.7727 128.5,105.5C 128.5,106.167 128.5,106.833 128.5,107.5C 129.427,114.443 129.76,121.443 129.5,128.5C 128.031,133.574 126.364,138.574 124.5,143.5C 121.529,146.808 118.529,150.141 115.5,153.5C 110.38,156.727 105.047,159.393 99.5,161.5C 88.1977,162.41 76.8644,162.743 65.5,162.5C 64.6697,172.659 64.1697,182.992 64,193.5C 59.5986,194.467 55.0986,194.8 50.5,194.5C 50.5,166.833 50.5,139.167 50.5,111.5C 50.5,110.167 50.5,108.833 50.5,107.5C 55.9556,94.5456 65.2889,85.3789 78.5,80C 80.1341,79.5065 81.8008,79.3398 83.5,79.5 Z"/></g>
<g><path style="opacity:1" fill="#60a161" d="M 143.5,79.5 C 143.5,79.1667 143.5,78.8333 143.5,78.5C 145.017,78.5106 146.184,79.1772 147,80.5C 149.157,82.8171 150.657,85.4838 151.5,88.5C 149.5,86.5 147.5,84.5 145.5,82.5C 145.573,80.9731 144.906,79.9731 143.5,79.5 Z"/></g>
<g><path style="opacity:1" fill="#55a555" d="M 194.5,90.5 C 195.833,88.1667 197.167,85.8333 198.5,83.5C 199.965,82.5943 200.965,81.261 201.5,79.5C 195.537,78.5041 189.537,78.1707 183.5,78.5C 185.915,77.1858 188.748,76.5191 192,76.5C 194.833,76.6667 197.667,76.8333 200.5,77C 202.811,78.0521 204.144,79.8854 204.5,82.5C 205.325,83.3857 206.325,83.719 207.5,83.5C 207.99,85.9484 207.157,87.615 205,88.5C 203.306,86.5708 201.139,85.5708 198.5,85.5C 198.38,87.7345 198.713,89.9011 199.5,92C 199.167,92.5 198.833,93 198.5,93.5C 197.614,92.675 197.281,91.675 197.5,90.5C 196.5,90.5 195.5,90.5 194.5,90.5 Z"/></g>
<g><path style="opacity:1" fill="#e6fae9" d="M 145.5,82.5 C 147.5,84.5 149.5,86.5 151.5,88.5C 152.634,92.1012 154.301,95.4345 156.5,98.5C 151.211,94.2229 147.544,88.8895 145.5,82.5 Z"/></g>
<g><path style="opacity:1" fill="#c1e9c4" d="M 175.5,89.5 C 175.573,91.0269 174.906,92.0269 173.5,92.5C 173.427,90.9731 174.094,89.9731 175.5,89.5 Z"/></g>
<g><path style="opacity:1" fill="#e7fae5" d="M 102.5,98.5 C 100.076,97.9695 97.743,97.1362 95.5,96C 91.6425,95.1901 87.9758,95.3567 84.5,96.5C 83.8333,96.5 83.1667,96.5 82.5,96.5C 84.7432,95.1883 87.4098,94.5217 90.5,94.5C 93.1667,94.6667 95.8333,94.8333 98.5,95C 100.324,95.66 101.657,96.8267 102.5,98.5 Z"/></g>
<g><path style="opacity:1" fill="#57a956" d="M 83.5,79.5 C 91.6563,78.3434 99.9896,78.1768 108.5,79C 111.978,84.8209 115.811,84.9875 120,79.5C 121.269,80.9047 121.769,82.5714 121.5,84.5C 115.694,84.4715 115.028,86.3049 119.5,90C 121.384,90.2163 123.051,90.883 124.5,92C 123.315,94.7776 124.315,96.2776 127.5,96.5C 127.374,94.8002 126.707,93.3002 125.5,92C 127.112,90.518 128.112,88.6847 128.5,86.5C 133.944,92.9508 138.61,99.9508 142.5,107.5C 141,106.412 139.667,105.079 138.5,103.5C 137.813,105.274 136.98,106.941 136,108.5C 135.578,105.764 135.578,103.098 136,100.5C 134.129,101.997 133.129,103.997 133,106.5C 132.261,104.779 131.427,103.113 130.5,101.5C 128.889,102.32 128.222,103.654 128.5,105.5C 119.413,86.7727 104.413,78.106 83.5,79.5 Z"/></g>
<g><path style="opacity:1" fill="#4ca84c" d="M 112.5,129.5 C 111.89,130.391 111.557,131.391 111.5,132.5C 108.395,137.942 104.062,141.942 98.5,144.5C 87.8333,144.5 77.1667,144.5 66.5,144.5C 66.3808,133.482 66.7141,122.482 67.5,111.5C 67.5,111.167 67.5,110.833 67.5,110.5C 71.2942,106.98 74.9608,103.314 78.5,99.5C 79.9778,99.238 81.3112,99.5713 82.5,100.5C 75.661,103.243 75.9944,104.576 83.5,104.5C 83.281,105.675 83.6143,106.675 84.5,107.5C 85.4656,105.604 85.7989,103.604 85.5,101.5C 87.4918,101.328 89.1585,101.995 90.5,103.5C 91.088,101.089 92.2546,99.0891 94,97.5C 94.4888,99.6044 95.6555,99.9378 97.5,98.5C 99.0564,99.5471 100.723,100.214 102.5,100.5C 102.5,101.833 102.5,103.167 102.5,104.5C 101.448,104.351 100.448,104.517 99.5,105C 101.237,108.245 103.57,111.078 106.5,113.5C 107.429,114.689 107.762,116.022 107.5,117.5C 108.5,117.5 109.5,117.5 110.5,117.5C 110.413,120.598 110.913,120.932 112,118.5C 112.499,122.152 112.665,125.818 112.5,129.5 Z"/></g>
<g><path style="opacity:1" fill="#5da55d" d="M 151.5,88.5 C 155.344,92.6828 158.511,97.3495 161,102.5C 162.011,103.337 163.178,103.67 164.5,103.5C 165.87,102.075 166.87,99.7414 167.5,96.5C 168.417,95.8728 169.417,95.5394 170.5,95.5C 169.009,99.8018 166.509,103.469 163,106.5C 160.575,103.947 158.408,101.28 156.5,98.5C 154.301,95.4345 152.634,92.1012 151.5,88.5 Z"/></g>
<g><path style="opacity:1" fill="#64a664" d="M 82.5,96.5 C 83.1667,96.5 83.8333,96.5 84.5,96.5C 82.7512,97.9851 80.7512,98.9851 78.5,99.5C 74.9608,103.314 71.2942,106.98 67.5,110.5C 70.5863,103.746 75.5863,99.0792 82.5,96.5 Z"/></g>
<g><path style="opacity:1" fill="#54a754" d="M 102.5,98.5 C 112.685,106.382 116.352,116.715 113.5,129.5C 113.167,129.5 112.833,129.5 112.5,129.5C 112.665,125.818 112.499,122.152 112,118.5C 110.913,120.932 110.413,120.598 110.5,117.5C 109.5,117.5 108.5,117.5 107.5,117.5C 107.762,116.022 107.429,114.689 106.5,113.5C 103.57,111.078 101.237,108.245 99.5,105C 100.448,104.517 101.448,104.351 102.5,104.5C 102.5,103.167 102.5,101.833 102.5,100.5C 100.723,100.214 99.0564,99.5471 97.5,98.5C 95.6555,99.9378 94.4888,99.6044 94,97.5C 92.2546,99.0891 91.088,101.089 90.5,103.5C 89.1585,101.995 87.4918,101.328 85.5,101.5C 85.7989,103.604 85.4656,105.604 84.5,107.5C 83.6143,106.675 83.281,105.675 83.5,104.5C 75.9944,104.576 75.661,103.243 82.5,100.5C 81.3112,99.5713 79.9778,99.238 78.5,99.5C 80.7512,98.9851 82.7512,97.9851 84.5,96.5C 87.9758,95.3567 91.6425,95.1901 95.5,96C 97.743,97.1362 100.076,97.9695 102.5,98.5 Z"/></g>
<g><path style="opacity:1" fill="#4da94c" d="M 142.5,107.5 C 144.262,108.262 145.262,109.596 145.5,111.5C 145.365,114.507 146.365,117.007 148.5,119C 148.167,119.833 147.833,120.667 147.5,121.5C 146.5,120.833 145.5,120.167 144.5,119.5C 144.167,120 143.833,120.5 143.5,121C 144.287,123.099 144.62,125.266 144.5,127.5C 142.856,127.81 141.856,128.81 141.5,130.5C 139.983,130.511 138.816,131.177 138,132.5C 139.259,126.349 139.592,120.016 139,113.5C 137.502,116.967 136.502,120.634 136,124.5C 135.502,121.518 135.335,118.518 135.5,115.5C 134.5,115.5 133.5,115.5 132.5,115.5C 133.505,119.521 133.505,123.521 132.5,127.5C 131.833,122.015 131.167,116.681 130.5,111.5C 130.771,109.62 130.104,108.287 128.5,107.5C 128.5,106.833 128.5,106.167 128.5,105.5C 128.222,103.654 128.889,102.32 130.5,101.5C 131.427,103.113 132.261,104.779 133,106.5C 133.129,103.997 134.129,101.997 136,100.5C 135.578,103.098 135.578,105.764 136,108.5C 136.98,106.941 137.813,105.274 138.5,103.5C 139.667,105.079 141,106.412 142.5,107.5 Z"/></g>
<g><path style="opacity:1" fill="#5ea65a" d="M 187.5,101.5 C 187.66,103.199 187.494,104.866 187,106.5C 183.168,107.836 181.668,110.503 182.5,114.5C 178.062,114.883 177.395,116.716 180.5,120C 179.852,121.44 179.519,122.94 179.5,124.5C 177.178,123.198 175.845,121.198 175.5,118.5C 176.906,118.027 177.573,117.027 177.5,115.5C 180.173,112.158 182.339,108.492 184,104.5C 185.039,103.29 186.206,102.29 187.5,101.5 Z"/></g>
<g><path style="opacity:1" fill="#52a753" d="M 130.5,111.5 C 131.167,116.681 131.833,122.015 132.5,127.5C 133.505,123.521 133.505,119.521 132.5,115.5C 133.5,115.5 134.5,115.5 135.5,115.5C 135.335,118.518 135.502,121.518 136,124.5C 136.502,120.634 137.502,116.967 139,113.5C 139.592,120.016 139.259,126.349 138,132.5C 138.816,131.177 139.983,130.511 141.5,130.5C 140.89,131.391 140.557,132.391 140.5,133.5C 134.252,142.328 128.252,151.328 122.5,160.5C 121.662,160.842 121.328,161.508 121.5,162.5C 122.108,159.707 121.441,157.04 119.5,154.5C 116.986,154.754 114.652,155.587 112.5,157C 111.663,158.011 111.33,159.178 111.5,160.5C 107.743,160.071 104.243,160.737 101,162.5C 100.517,163.448 100.351,164.448 100.5,165.5C 89.1932,164.616 77.8598,164.283 66.5,164.5C 76.6585,163.67 86.9919,163.17 97.5,163C 98.4158,162.722 99.0825,162.222 99.5,161.5C 105.047,159.393 110.38,156.727 115.5,153.5C 119.895,151.438 122.895,148.104 124.5,143.5C 126.364,138.574 128.031,133.574 129.5,128.5C 130.489,123.025 130.822,117.358 130.5,111.5 Z"/></g>
<g><path style="opacity:1" fill="#99cf99" d="M 128.5,107.5 C 130.104,108.287 130.771,109.62 130.5,111.5C 130.822,117.358 130.489,123.025 129.5,128.5C 129.76,121.443 129.427,114.443 128.5,107.5 Z"/></g>
<g><path style="opacity:1" fill="#9dd2a3" d="M 177.5,115.5 C 177.573,117.027 176.906,118.027 175.5,118.5C 175.427,116.973 176.094,115.973 177.5,115.5 Z"/></g>
<g><path style="opacity:1" fill="#6fb476" d="M 50.5,107.5 C 50.5,108.833 50.5,110.167 50.5,111.5C 49.502,139.328 49.1687,167.328 49.5,195.5C 48.3362,166.67 48.1695,137.67 49,108.5C 49.3826,107.944 49.8826,107.611 50.5,107.5 Z"/></g>
<g><path style="opacity:1" fill="#55a55b" d="M 145.5,111.5 C 146.167,111.833 146.833,112.167 147.5,112.5C 148.749,114.67 149.749,117.004 150.5,119.5C 148.862,122.467 146.862,125.133 144.5,127.5C 144.62,125.266 144.287,123.099 143.5,121C 143.833,120.5 144.167,120 144.5,119.5C 145.5,120.167 146.5,120.833 147.5,121.5C 147.833,120.667 148.167,119.833 148.5,119C 146.365,117.007 145.365,114.507 145.5,111.5 Z"/></g>
<g><path style="opacity:1" fill="#ebfae7" d="M 147.5,112.5 C 148.822,112.33 149.989,112.663 151,113.5C 151.824,116.882 151.657,120.216 150.5,123.5C 148.392,125.306 146.726,127.473 145.5,130C 145.833,130.333 146.167,130.667 146.5,131C 145.099,131.41 143.766,131.91 142.5,132.5C 142.893,130.716 143.559,129.05 144.5,127.5C 146.862,125.133 148.862,122.467 150.5,119.5C 149.749,117.004 148.749,114.67 147.5,112.5 Z"/></g>
<g><path style="opacity:1" fill="#e0fae2" d="M 50.5,111.5 C 50.5,139.167 50.5,166.833 50.5,194.5C 55.0986,194.8 59.5986,194.467 64,193.5C 64.1697,182.992 64.6697,172.659 65.5,162.5C 65.5,173.5 65.5,184.5 65.5,195.5C 60.1667,196.833 54.8333,196.833 49.5,195.5C 49.1687,167.328 49.502,139.328 50.5,111.5 Z"/></g>
<g><path style="opacity:1" fill="#669c61" d="M 144.5,127.5 C 143.559,129.05 142.893,130.716 142.5,132.5C 141.833,132.833 141.167,133.167 140.5,133.5C 140.557,132.391 140.89,131.391 141.5,130.5C 141.856,128.81 142.856,127.81 144.5,127.5 Z"/></g>
<g><path style="opacity:1" fill="#c8efc5" d="M 112.5,129.5 C 112.833,129.5 113.167,129.5 113.5,129.5C 113.573,131.027 112.906,132.027 111.5,132.5C 111.557,131.391 111.89,130.391 112.5,129.5 Z"/></g>
<g><path style="opacity:1" fill="#5ea35b" d="M 67.5,111.5 C 66.7141,122.482 66.3808,133.482 66.5,144.5C 77.1667,144.5 87.8333,144.5 98.5,144.5C 87.6794,145.495 76.6794,145.828 65.5,145.5C 65.3335,134.495 65.5002,123.495 66,112.5C 66.3826,111.944 66.8826,111.611 67.5,111.5 Z"/></g>
<g><path style="opacity:1" fill="#60a165" d="M 124.5,143.5 C 122.895,148.104 119.895,151.438 115.5,153.5C 118.529,150.141 121.529,146.808 124.5,143.5 Z"/></g>
<g><path style="opacity:1" fill="#57a45a" d="M 160.5,135.5 C 160.08,137.094 159.414,138.594 158.5,140C 158.735,140.873 159.069,141.707 159.5,142.5C 158.726,143.711 157.893,143.711 157,142.5C 156.997,147.433 154.497,150.1 149.5,150.5C 152.788,145.214 156.454,140.214 160.5,135.5 Z"/></g>
<g><path style="opacity:1" fill="#edfde9" d="M 174.5,146.5 C 177.367,147.99 180.034,149.656 182.5,151.5C 183.023,154.878 184.356,157.878 186.5,160.5C 186.167,160.5 185.833,160.5 185.5,160.5C 183.5,158.5 181.5,156.5 179.5,154.5C 178.345,151.525 176.678,148.858 174.5,146.5 Z"/></g>
<g><path style="opacity:1" fill="#cef5cd" d="M 122.5,160.5 C 128.31,161.49 134.31,161.823 140.5,161.5C 134.355,162.49 128.022,162.823 121.5,162.5C 121.328,161.508 121.662,160.842 122.5,160.5 Z"/></g>
<g><path style="opacity:1" fill="#62a162" d="M 145.5,155.5 C 145.203,158.559 143.87,161.059 141.5,163C 134.654,163.821 127.987,163.654 121.5,162.5C 128.022,162.823 134.355,162.49 140.5,161.5C 142.167,159.5 143.833,157.5 145.5,155.5 Z"/></g>
<g><path style="opacity:1" fill="#58a356" d="M 187.5,136.5 C 190.038,138.001 192.038,140.168 193.5,143C 194.448,143.483 195.448,143.649 196.5,143.5C 196.264,146.226 197.097,148.559 199,150.5C 201.779,153.456 204.613,156.289 207.5,159C 206.62,160.356 206.286,161.856 206.5,163.5C 200.178,164.277 193.845,164.444 187.5,164C 185.649,163.163 183.816,162.329 182,161.5C 181.692,162.308 181.192,162.975 180.5,163.5C 181.034,161.703 180.367,160.036 178.5,158.5C 179.246,157.264 179.579,155.93 179.5,154.5C 181.5,156.5 183.5,158.5 185.5,160.5C 185.611,161.117 185.944,161.617 186.5,162C 192.833,162.667 199.167,162.667 205.5,162C 203.636,159.312 201.636,156.812 199.5,154.5C 195.918,148.246 191.918,142.246 187.5,136.5 Z"/></g>
<g><path style="opacity:1" fill="#d3f8d1" d="M 199.5,154.5 C 201.636,156.812 203.636,159.312 205.5,162C 199.167,162.667 192.833,162.667 186.5,162C 185.944,161.617 185.611,161.117 185.5,160.5C 185.833,160.5 186.167,160.5 186.5,160.5C 191.781,161.782 197.114,161.782 202.5,160.5C 200.585,158.929 199.585,156.929 199.5,154.5 Z"/></g>
<g><path style="opacity:1" fill="#67a965" d="M 99.5,161.5 C 99.0825,162.222 98.4158,162.722 97.5,163C 86.9919,163.17 76.6585,163.67 66.5,164.5C 66.8276,175.014 66.4942,185.347 65.5,195.5C 65.5,184.5 65.5,173.5 65.5,162.5C 76.8644,162.743 88.1977,162.41 99.5,161.5 Z"/></g>
</svg>
