<svg xmlns="http://www.w3.org/2000/svg" width="256" height="256" viewBox="0 0 100 100"><rect width="100" height="100" fill="#f8d206" rx="20"/><path fill="#fff" d="M21.24 58.01L12.15 58.01L12.15 77.36Q11.61 77.54 10.71 77.77Q9.81 77.99 8.73 77.99L8.73 77.99Q4.77 77.99 4.77 74.66L4.77 74.66L4.77 26.78Q4.77 25.34 5.49 24.58Q6.21 23.81 7.74 23.36L7.74 23.36Q10.35 22.55 14.09 22.19Q17.82 21.83 21.34 21.83L21.34 21.83Q32.77 21.83 38.03 26.65Q43.30 31.46 43.30 39.65L43.30 39.65Q43.30 48.02 37.89 53.02Q32.49 58.01 21.24 58.01L21.24 58.01ZM12.06 51.89L20.79 51.89Q27.99 51.89 31.95 48.92Q35.91 45.95 35.91 39.74L35.91 39.74Q35.91 33.62 32.09 30.79Q28.27 27.95 21.16 27.95L21.16 27.95Q18.73 27.95 16.34 28.18Q13.95 28.40 12.06 28.76L12.06 28.76L12.06 51.89ZM86.13 75.20L63.19 51.44L63.19 77.45Q62.65 77.63 61.75 77.86Q60.84 78.08 59.77 78.08L59.77 78.08Q55.80 78.08 55.80 74.75L55.80 74.75L55.80 23.00Q56.26 22.82 57.20 22.60Q58.15 22.37 59.23 22.37L59.23 22.37Q63.19 22.37 63.19 25.70L63.19 25.70L63.19 48.11L87.94 22.46Q90.28 22.55 91.44 23.63Q92.62 24.71 92.62 26.15L92.62 26.15Q92.62 27.32 91.98 28.31Q91.35 29.30 90.19 30.47L90.19 30.47L70.75 49.55Q78.94 57.56 84.92 63.82Q90.91 70.07 95.22 73.94L95.22 73.94Q95.05 75.92 94.01 77.05Q92.97 78.17 91.35 78.17L91.35 78.17Q89.83 78.17 88.61 77.32Q87.40 76.46 86.13 75.20L86.13 75.20Z"/></svg>