<svg xmlns="http://www.w3.org/2000/svg" width="256" height="256" viewBox="0 0 100 100"><rect width="100" height="100" rx="20" fill="#7d6ee7"></rect><path fill="#fff" d="M65.44 49.37L65.44 49.37Q65.44 43.61 63.68 39.52Q61.92 35.42 58.91 32.81Q55.89 30.20 51.89 28.98Q47.88 27.77 43.30 27.77L43.30 27.77Q40.41 27.77 38.30 27.95Q36.19 28.13 34.38 28.49L34.38 28.49L34.38 71.33Q36.55 71.87 39.02 72.05Q41.50 72.23 44.11 72.23L44.11 72.23Q54.73 72.23 60.08 66.47Q65.44 60.71 65.44 49.37ZM72.91 49.37L72.91 49.37Q72.91 56.75 70.88 62.20Q68.85 67.64 65.12 71.24Q61.38 74.84 56.08 76.59Q50.77 78.35 44.20 78.35L44.20 78.35Q41.31 78.35 37.72 78.13Q34.12 77.90 30.88 76.91L30.88 76.91Q27.09 75.74 27.09 72.77L27.09 72.77L27.09 26.51Q27.09 25.07 27.82 24.30Q28.54 23.54 30.07 23.09L30.07 23.09Q32.86 22.19 36.37 21.92Q39.88 21.65 43.39 21.65L43.39 21.65Q49.95 21.65 55.40 23.41Q60.84 25.16 64.72 28.63Q68.59 32.09 70.75 37.27Q72.91 42.44 72.91 49.37Z"></path></svg>