<svg xmlns="http://www.w3.org/2000/svg" xmlns:xlink="http://www.w3.org/1999/xlink" width="200" height="200" version="1.1" style="shape-rendering:geometricPrecision;text-rendering:geometricPrecision;image-rendering:optimizeQuality;fill-rule:evenodd;clip-rule:evenodd"><g><path style="opacity:1" fill="#fdfdfe" d="M -0.5,-0.5 C 66.1667,-0.5 132.833,-0.5 199.5,-0.5C 199.5,66.1667 199.5,132.833 199.5,199.5C 132.833,199.5 66.1667,199.5 -0.5,199.5C -0.5,132.833 -0.5,66.1667 -0.5,-0.5 Z"/></g><g><path style="opacity:1" fill="#39378f" d="M 44.5,149.5 C 44.0679,150.71 43.4013,151.71 42.5,152.5C 42.38,151.414 41.7133,150.747 40.5,150.5C 37.5514,151.302 34.5514,151.636 31.5,151.5C 31.7989,153.604 31.4656,155.604 30.5,157.5C 29.7492,156.624 29.2492,155.624 29,154.5C 27.6799,157.094 25.8465,157.76 23.5,156.5C 20.8848,152.692 18.8848,148.525 17.5,144C 20.6357,136.729 24.3024,129.729 28.5,123C 23.5913,114.268 18.9246,105.434 14.5,96.5C 15.1174,96.3893 15.6174,96.056 16,95.5C 19.0359,106.097 20.5359,106.097 20.5,95.5C 21.9787,101.327 25.6454,103.994 31.5,103.5C 31.238,104.978 31.5713,106.311 32.5,107.5C 34.3031,108.137 35.6364,109.303 36.5,111C 37.448,111.483 38.448,111.649 39.5,111.5C 40.1667,116.833 40.8333,122.167 41.5,127.5C 43.5,127.5 45.5,127.5 47.5,127.5C 47.5,130.167 47.5,132.833 47.5,135.5C 45.5,135.5 43.5,135.5 41.5,135.5C 41.335,138.85 41.5017,142.183 42,145.5C 42.1216,147.437 42.955,148.77 44.5,149.5 Z"/></g><g><path style="opacity:1" fill="#6f70f0" d="M 183.5,122.5 C 184.263,123.268 185.263,123.768 186.5,124C 186.167,124.333 185.833,124.667 185.5,125C 179.115,125.793 172.782,125.626 166.5,124.5C 166.167,124.833 165.833,125.167 165.5,125.5C 172.476,126.331 179.476,126.831 186.5,127C 187.696,127.654 187.696,128.154 186.5,128.5C 182.906,127.574 179.24,127.241 175.5,127.5C 175.763,134.934 175.763,142.267 175.5,149.5C 168.468,149.17 161.468,149.503 154.5,150.5C 154.058,151.739 153.391,152.739 152.5,153.5C 151.189,145.63 151.189,143.964 152.5,148.5C 153.5,148.5 154.5,148.5 155.5,148.5C 154.45,142.914 153.783,137.248 153.5,131.5C 153.565,126.982 154.231,122.649 155.5,118.5C 154.045,116.78 153.212,114.78 153,112.5C 150.832,110.545 148.498,109.879 146,110.5C 144.345,112.747 144.012,115.08 145,117.5C 144.692,116.692 144.192,116.025 143.5,115.5C 142.859,116.993 141.859,117.993 140.5,118.5C 143.306,112.223 146.639,106.223 150.5,100.5C 155.862,107.224 160.195,114.557 163.5,122.5C 170.167,122.5 176.833,122.5 183.5,122.5 Z"/></g><g><path style="opacity:1" fill="#3f3d9e" d="M 40.5,85.5 C 51.7238,104.269 62.7238,123.269 73.5,142.5C 64.8333,143.167 56.1667,143.833 47.5,144.5C 46.2485,146.001 45.2485,147.668 44.5,149.5C 42.955,148.77 42.1216,147.437 42,145.5C 41.5017,142.183 41.335,138.85 41.5,135.5C 43.5,135.5 45.5,135.5 47.5,135.5C 47.5,132.833 47.5,130.167 47.5,127.5C 45.5,127.5 43.5,127.5 41.5,127.5C 40.8333,122.167 40.1667,116.833 39.5,111.5C 38.448,111.649 37.448,111.483 36.5,111C 35.6364,109.303 34.3031,108.137 32.5,107.5C 31.5713,106.311 31.238,104.978 31.5,103.5C 25.6454,103.994 21.9787,101.327 20.5,95.5C 20.5359,106.097 19.0359,106.097 16,95.5C 15.6174,96.056 15.1174,96.3893 14.5,96.5C 11.0843,92.6767 8.41764,88.3434 6.5,83.5C 7.2323,82.1917 8.06564,80.8584 9,79.5C 11.4343,81.1961 13.601,82.5295 15.5,83.5C 21.2806,84.2286 26.7806,85.5619 32,87.5C 32.3333,86.8333 32.6667,86.1667 33,85.5C 33.6898,88.196 35.1898,90.3626 37.5,92C 38.7441,92.4561 39.5774,91.9561 40,90.5C 40.4186,91.6721 41.0853,92.6721 42,93.5C 41.3889,90.9671 40.8889,88.3004 40.5,85.5 Z"/></g><g><path style="opacity:1" fill="#4643ab" d="M 17.5,54.5 C 17.25,57.214 17.0833,59.8806 17,62.5C 19,61.1667 21,61.1667 23,62.5C 24.1882,61.4366 24.6882,60.1033 24.5,58.5C 29.7661,67.4576 35.0995,76.4576 40.5,85.5C 40.8889,88.3004 41.3889,90.9671 42,93.5C 41.0853,92.6721 40.4186,91.6721 40,90.5C 39.5774,91.9561 38.7441,92.4561 37.5,92C 35.1898,90.3626 33.6898,88.196 33,85.5C 32.6667,86.1667 32.3333,86.8333 32,87.5C 26.7806,85.5619 21.2806,84.2286 15.5,83.5C 13.601,82.5295 11.4343,81.1961 9,79.5C 8.06564,80.8584 7.2323,82.1917 6.5,83.5C 4.57261,80.8632 4.07261,77.8632 5,74.5C 9.02978,67.6604 13.1965,60.9938 17.5,54.5 Z"/></g><g><path style="opacity:1" fill="#5c56c7" d="M 52.5,39.5 C 53.0955,42.1125 53.9288,42.1125 55,39.5C 55.3333,40.1667 55.6667,40.8333 56,41.5C 56.2784,40.5842 56.7784,39.9175 57.5,39.5C 55.6359,44.893 52.9693,49.893 49.5,54.5C 40.8333,55.1667 32.1667,55.8333 23.5,56.5C 23.8627,57.1835 24.1961,57.8501 24.5,58.5C 24.6882,60.1033 24.1882,61.4366 23,62.5C 21,61.1667 19,61.1667 17,62.5C 17.0833,59.8806 17.25,57.214 17.5,54.5C 17.8588,52.629 18.8588,51.129 20.5,50C 29.4938,49.5002 38.4938,49.3336 47.5,49.5C 48.6378,45.8911 50.3044,42.5578 52.5,39.5 Z"/></g><g><path style="opacity:1" fill="#615cea" d="M 77.5,50.5 C 80.8212,44.5272 84.1545,38.5272 87.5,32.5C 86.5435,30.9246 85.8769,29.258 85.5,27.5C 85.3691,26.6236 85.7025,25.9569 86.5,25.5C 89.0725,28.5974 92.2392,30.5974 96,31.5C 97.1667,31.3333 98.3333,31.1667 99.5,31C 99.0426,30.586 98.7093,30.086 98.5,29.5C 95.41,28.3004 92.7434,26.4671 90.5,24C 95.2648,24.7253 99.2648,27.0586 102.5,31C 102.167,31.3333 101.833,31.6667 101.5,32C 105.043,33.6083 108.043,35.9416 110.5,39C 110.167,39.3333 109.833,39.6667 109.5,40C 110.93,42.8092 112.93,45.1426 115.5,47C 111.5,47.3333 107.5,47.6667 103.5,48C 109.485,48.7985 115.485,49.4652 121.5,50C 118.381,51.4051 115.048,51.9051 111.5,51.5C 111.5,52.5 111.5,53.5 111.5,54.5C 100.495,54.6665 89.495,54.4998 78.5,54C 77.6634,52.9887 77.33,51.8221 77.5,50.5 Z"/></g><g><path style="opacity:1" fill="#7b7ff1" d="M 113.5,23.5 C 114.404,24.209 114.737,25.209 114.5,26.5C 131.503,26.3334 148.503,26.5001 165.5,27C 171.347,35.1716 176.847,43.6716 182,52.5C 182.667,54.1667 182.667,55.8333 182,57.5C 177.392,63.7145 173.559,70.3812 170.5,77.5C 172.421,81.012 174.088,84.6786 175.5,88.5C 182.881,99.2638 189.214,110.597 194.5,122.5C 190.477,131.381 185.811,139.881 180.5,148C 178.975,149.009 177.308,149.509 175.5,149.5C 175.763,142.267 175.763,134.934 175.5,127.5C 179.24,127.241 182.906,127.574 186.5,128.5C 187.696,128.154 187.696,127.654 186.5,127C 179.476,126.831 172.476,126.331 165.5,125.5C 165.833,125.167 166.167,124.833 166.5,124.5C 172.782,125.626 179.115,125.793 185.5,125C 185.833,124.667 186.167,124.333 186.5,124C 185.263,123.768 184.263,123.268 183.5,122.5C 185.167,122.5 186.833,122.5 188.5,122.5C 182.702,110.512 176.202,98.8452 169,87.5C 167.467,83.9824 165.967,80.4824 164.5,77C 168.012,70.1473 171.678,63.3139 175.5,56.5C 159.514,55.5006 143.514,55.1672 127.5,55.5C 129.948,54.5269 132.615,54.1936 135.5,54.5C 144.146,55.0318 152.48,53.8651 160.5,51C 157.568,49.8551 154.568,49.0218 151.5,48.5C 151.5,45.5 151.5,42.5 151.5,39.5C 144.167,40.1531 141.501,36.8198 143.5,29.5C 133.607,27.7757 123.607,27.1091 113.5,27.5C 113.5,26.1667 113.5,24.8333 113.5,23.5 Z"/></g><g><path style="opacity:1" fill="#6e6fef" d="M 111.5,20.5 C 112.906,20.9731 113.573,21.9731 113.5,23.5C 113.5,24.8333 113.5,26.1667 113.5,27.5C 123.607,27.1091 133.607,27.7757 143.5,29.5C 141.501,36.8198 144.167,40.1531 151.5,39.5C 151.5,42.5 151.5,45.5 151.5,48.5C 154.568,49.0218 157.568,49.8551 160.5,51C 152.48,53.8651 144.146,55.0318 135.5,54.5C 135.5,52.5 135.5,50.5 135.5,48.5C 132.833,48.5 130.167,48.5 127.5,48.5C 127.66,46.8008 127.494,45.1341 127,43.5C 125.309,40.6411 122.809,39.3077 119.5,39.5C 119.5,36.5 119.5,33.5 119.5,30.5C 116.881,30.7683 114.381,30.435 112,29.5C 112.663,26.4819 112.496,23.4819 111.5,20.5 Z"/></g><g><path style="opacity:1" fill="#fcfcfd" d="M 85.5,27.5 C 85.8769,29.258 86.5435,30.9246 87.5,32.5C 84.1545,38.5272 80.8212,44.5272 77.5,50.5C 76.3994,51.8484 75.3994,53.3484 74.5,55C 92.1635,55.4999 109.83,55.6666 127.5,55.5C 143.514,55.1672 159.514,55.5006 175.5,56.5C 171.678,63.3139 168.012,70.1473 164.5,77C 165.967,80.4824 167.467,83.9824 169,87.5C 176.202,98.8452 182.702,110.512 188.5,122.5C 186.833,122.5 185.167,122.5 183.5,122.5C 176.833,122.5 170.167,122.5 163.5,122.5C 160.195,114.557 155.862,107.224 150.5,100.5C 146.639,106.223 143.306,112.223 140.5,118.5C 136.918,123.994 133.585,129.661 130.5,135.5C 121.678,149.802 113.345,164.468 105.5,179.5C 103.969,182.385 101.969,185.052 99.5,187.5C 95.4722,180.483 91.4722,173.483 87.5,166.5C 70.6749,165.503 53.6749,165.17 36.5,165.5C 38.2205,161.058 40.2205,156.724 42.5,152.5C 43.4013,151.71 44.0679,150.71 44.5,149.5C 45.2485,147.668 46.2485,146.001 47.5,144.5C 56.5246,144.832 65.5246,144.498 74.5,143.5C 74.3764,142.893 74.0431,142.56 73.5,142.5C 62.7238,123.269 51.7238,104.269 40.5,85.5C 35.0995,76.4576 29.7661,67.4576 24.5,58.5C 24.1961,57.8501 23.8627,57.1835 23.5,56.5C 32.1667,55.8333 40.8333,55.1667 49.5,54.5C 52.9693,49.893 55.6359,44.893 57.5,39.5C 63.5715,30.3662 69.4048,21.0328 75,11.5C 77.7765,14.718 79.7765,18.3847 81,22.5C 82.3657,24.3617 83.8657,26.0283 85.5,27.5 Z"/></g><g><path style="opacity:1" fill="#5955db" d="M 114.5,80.5 C 119.544,80.1725 124.544,80.5059 129.5,81.5C 122.543,94.4396 115.21,107.106 107.5,119.5C 105.876,119.64 104.71,118.973 104,117.5C 103.695,119.557 103.695,121.557 104,123.5C 102.989,122.663 101.822,122.33 100.5,122.5C 99.7564,118.881 99.423,115.215 99.5,111.5C 98.1667,111.5 96.8333,111.5 95.5,111.5C 95.5,106.167 95.5,100.833 95.5,95.5C 94.1667,95.5 92.8333,95.5 91.5,95.5C 91.5,92.8333 91.5,90.1667 91.5,87.5C 95.5138,87.6655 99.5138,87.4988 103.5,87C 98.5,86.6667 93.5,86.3333 88.5,86C 98.8333,85.6667 109.167,85.3333 119.5,85C 76.8489,84.4993 76.8489,83.6659 119.5,82.5C 117.709,81.8302 116.042,81.1635 114.5,80.5 Z"/></g><g><path style="opacity:1" fill="#524fc9" d="M 114.5,80.5 C 116.042,81.1635 117.709,81.8302 119.5,82.5C 76.8489,83.6659 76.8489,84.4993 119.5,85C 109.167,85.3333 98.8333,85.6667 88.5,86C 93.5,86.3333 98.5,86.6667 103.5,87C 99.5138,87.4988 95.5138,87.6655 91.5,87.5C 91.5,90.1667 91.5,92.8333 91.5,95.5C 92.8333,95.5 94.1667,95.5 95.5,95.5C 95.5,100.833 95.5,106.167 95.5,111.5C 96.8333,111.5 98.1667,111.5 99.5,111.5C 99.423,115.215 99.7564,118.881 100.5,122.5C 101.822,122.33 102.989,122.663 104,123.5C 103.695,121.557 103.695,119.557 104,117.5C 104.71,118.973 105.876,119.64 107.5,119.5C 105.106,123.945 102.44,128.278 99.5,132.5C 89.5,115.5 79.5,98.5 69.5,81.5C 84.4852,80.5007 99.4852,80.1673 114.5,80.5 Z"/></g><g><path style="opacity:1" fill="#6a67ee" d="M 111.5,20.5 C 112.496,23.4819 112.663,26.4819 112,29.5C 114.381,30.435 116.881,30.7683 119.5,30.5C 119.5,33.5 119.5,36.5 119.5,39.5C 122.809,39.3077 125.309,40.6411 127,43.5C 127.494,45.1341 127.66,46.8008 127.5,48.5C 130.167,48.5 132.833,48.5 135.5,48.5C 135.5,50.5 135.5,52.5 135.5,54.5C 132.615,54.1936 129.948,54.5269 127.5,55.5C 109.83,55.6666 92.1635,55.4999 74.5,55C 75.3994,53.3484 76.3994,51.8484 77.5,50.5C 77.33,51.8221 77.6634,52.9887 78.5,54C 89.495,54.4998 100.495,54.6665 111.5,54.5C 111.5,53.5 111.5,52.5 111.5,51.5C 115.048,51.9051 118.381,51.4051 121.5,50C 115.485,49.4652 109.485,48.7985 103.5,48C 107.5,47.6667 111.5,47.3333 115.5,47C 112.93,45.1426 110.93,42.8092 109.5,40C 109.833,39.6667 110.167,39.3333 110.5,39C 108.043,35.9416 105.043,33.6083 101.5,32C 101.833,31.6667 102.167,31.3333 102.5,31C 99.2648,27.0586 95.2648,24.7253 90.5,24C 92.7434,26.4671 95.41,28.3004 98.5,29.5C 98.7093,30.086 99.0426,30.586 99.5,31C 98.3333,31.1667 97.1667,31.3333 96,31.5C 92.2392,30.5974 89.0725,28.5974 86.5,25.5C 85.7025,25.9569 85.3691,26.6236 85.5,27.5C 83.8657,26.0283 82.3657,24.3617 81,22.5C 79.7765,18.3847 77.7765,14.718 75,11.5C 69.4048,21.0328 63.5715,30.3662 57.5,39.5C 56.7784,39.9175 56.2784,40.5842 56,41.5C 55.6667,40.8333 55.3333,40.1667 55,39.5C 53.9288,42.1125 53.0955,42.1125 52.5,39.5C 58.0634,28.0376 64.3968,17.0376 71.5,6.5C 82.1667,5.16667 92.8333,5.16667 103.5,6.5C 106.696,10.8959 109.363,15.5625 111.5,20.5 Z"/></g><g><path style="opacity:1" fill="#c3bedc" d="M 73.5,142.5 C 74.0431,142.56 74.3764,142.893 74.5,143.5C 65.5246,144.498 56.5246,144.832 47.5,144.5C 56.1667,143.833 64.8333,143.167 73.5,142.5 Z"/></g><g><path style="opacity:1" fill="#4f4aa8" d="M 42.5,152.5 C 40.2205,156.724 38.2205,161.058 36.5,165.5C 53.6749,165.17 70.6749,165.503 87.5,166.5C 82.1563,166.334 76.8229,166.501 71.5,167C 74.5535,167.179 77.5535,167.679 80.5,168.5C 77.7156,168.338 74.7156,168.672 71.5,169.5C 75.6475,170.167 79.6475,170.834 83.5,171.5C 66.4967,171.667 49.4967,171.5 32.5,171C 29.1132,166.39 26.1132,161.557 23.5,156.5C 25.8465,157.76 27.6799,157.094 29,154.5C 29.2492,155.624 29.7492,156.624 30.5,157.5C 31.4656,155.604 31.7989,153.604 31.5,151.5C 34.5514,151.636 37.5514,151.302 40.5,150.5C 41.7133,150.747 42.38,151.414 42.5,152.5 Z"/></g><g><path style="opacity:1" fill="#605be9" d="M 127.5,193.5 C 119.5,193.5 111.5,193.5 103.5,193.5C 101.631,192.835 99.6309,192.169 97.5,191.5C 98.8155,187.521 100.149,187.521 101.5,191.5C 102.242,189.892 102.409,188.225 102,186.5C 103.938,187.86 105.604,187.527 107,185.5C 106.848,183.481 106.348,181.481 105.5,179.5C 113.345,164.468 121.678,149.802 130.5,135.5C 132.368,134.243 134.035,134.576 135.5,136.5C 135.42,146.713 135.42,157.046 135.5,167.5C 134.167,167.5 132.833,167.5 131.5,167.5C 131.5,170.167 131.5,172.833 131.5,175.5C 130.5,175.5 129.5,175.5 128.5,175.5C 128.22,179.287 128.22,182.953 128.5,186.5C 122.595,189.583 122.595,191.417 128.5,192C 127.944,192.383 127.611,192.883 127.5,193.5 Z"/></g><g><path style="opacity:1" fill="#6764ed" d="M 152.5,153.5 C 146.119,166.594 138.952,179.261 131,191.5C 130.184,192.823 129.017,193.489 127.5,193.5C 127.611,192.883 127.944,192.383 128.5,192C 122.595,191.417 122.595,189.583 128.5,186.5C 128.22,182.953 128.22,179.287 128.5,175.5C 129.5,175.5 130.5,175.5 131.5,175.5C 131.5,172.833 131.5,170.167 131.5,167.5C 132.833,167.5 134.167,167.5 135.5,167.5C 135.42,157.046 135.42,146.713 135.5,136.5C 134.035,134.576 132.368,134.243 130.5,135.5C 133.585,129.661 136.918,123.994 140.5,118.5C 141.859,117.993 142.859,116.993 143.5,115.5C 144.192,116.025 144.692,116.692 145,117.5C 144.012,115.08 144.345,112.747 146,110.5C 148.498,109.879 150.832,110.545 153,112.5C 153.212,114.78 154.045,116.78 155.5,118.5C 154.231,122.649 153.565,126.982 153.5,131.5C 153.783,137.248 154.45,142.914 155.5,148.5C 154.5,148.5 153.5,148.5 152.5,148.5C 151.189,143.964 151.189,145.63 152.5,153.5 Z"/></g><g><path style="opacity:1" fill="#5d57d0" d="M 87.5,166.5 C 91.4722,173.483 95.4722,180.483 99.5,187.5C 101.969,185.052 103.969,182.385 105.5,179.5C 106.348,181.481 106.848,183.481 107,185.5C 105.604,187.527 103.938,187.86 102,186.5C 102.409,188.225 102.242,189.892 101.5,191.5C 100.149,187.521 98.8155,187.521 97.5,191.5C 99.6309,192.169 101.631,192.835 103.5,193.5C 100.881,193.768 98.3806,193.435 96,192.5C 92.3107,185.106 88.1441,178.106 83.5,171.5C 79.6475,170.834 75.6475,170.167 71.5,169.5C 74.7156,168.672 77.7156,168.338 80.5,168.5C 77.5535,167.679 74.5535,167.179 71.5,167C 76.8229,166.501 82.1563,166.334 87.5,166.5 Z"/></g></svg>