<svg xmlns="http://www.w3.org/2000/svg" xmlns:svg="http://www.w3.org/2000/svg" id="Bold" width="240" height="240" enable-background="new 0 0 32 32" version="1.1" viewBox="0 0 240 240"><metadata id="metadata11"/><g id="g838" transform="matrix(6.25,0,0,6.25,20,20)"><path id="path2" fill="#ffe6e2" d="M 26,32 H 6 C 2.686,32 0,29.314 0,26 V 6 C 0,2.686 2.686,0 6,0 h 20 c 3.314,0 6,2.686 6,6 v 20 c 0,3.314 -2.686,6 -6,6 z"/><path id="path4" fill="#fc573b" d="m 22.217,14.205 c -0.505,0 -0.95,0.213 -1.277,0.544 -1.204,-0.845 -2.826,-1.389 -4.624,-1.448 l 0.934,-4.27 2.974,0.677 c 0,0.739 0.593,1.342 1.322,1.342 0.742,0 1.339,-0.619 1.339,-1.359 0,-0.739 -0.594,-1.358 -1.339,-1.358 -0.519,0 -0.968,0.318 -1.191,0.753 L 17.07,8.347 C 16.905,8.302 16.743,8.422 16.699,8.59 l -1.025,4.708 c -1.784,0.075 -3.389,0.619 -4.596,1.464 -0.327,-0.345 -0.789,-0.558 -1.295,-0.558 -1.875,0 -2.488,2.553 -0.772,3.425 -0.06,0.27 -0.088,0.558 -0.088,0.845 0,2.867 3.183,5.191 7.092,5.191 3.925,0 7.109,-2.324 7.109,-5.191 0,-0.288 -0.03,-0.588 -0.104,-0.859 1.681,-0.874 1.061,-3.408 -0.803,-3.41 z m -10.483,3.607 c 0,-0.753 0.594,-1.359 1.339,-1.359 0.728,0 1.322,0.602 1.322,1.359 0,0.739 -0.593,1.342 -1.322,1.342 -0.742,0.004 -1.339,-0.602 -1.339,-1.342 z m 7.226,3.199 c -1.227,1.245 -4.691,1.245 -5.919,0 -0.135,-0.12 -0.135,-0.332 0,-0.469 0.118,-0.12 0.327,-0.12 0.445,0 0.937,0.975 4.047,0.992 5.024,0 0.118,-0.12 0.327,-0.12 0.445,0 0.14,0.138 0.14,0.349 0.005,0.469 z m -0.027,-1.854 c -0.728,0 -1.322,-0.602 -1.322,-1.341 0,-0.753 0.594,-1.359 1.322,-1.359 0.742,0 1.339,0.602 1.339,1.359 -0.004,0.736 -0.597,1.341 -1.339,1.341 z"/></g></svg>