<svg xmlns="http://www.w3.org/2000/svg" xmlns:xlink="http://www.w3.org/1999/xlink" width="600" height="600" class="icon" p-id="24897" t="1648885768848" version="1.1" viewBox="0 0 1024 1024"><defs><style type="text/css"/></defs><path fill="#07f0f5" d="M64 64v896h896V64H64z m524.4 668.8c-13.2 6-66.4 12-100-28.4-18.4-21.2-50.6-66.6-84.4-127.2-17.8 0-29.4 0-42.8-1.2v92.8c0 47 12 42.4 51.6 47.8v16.2c-13.8-0.6-46.2-1.6-71.2-1.6-26.2 0-52.2 1.2-67.2 1.6v-16.2c31-5.8 44-2.6 44-47.8V450c0-45.2-12.8-42-44-47.8V386c51.6 2 106.2-1.2 141.8-1.2 63.4 0 111.8 28.8 111.8 91.2 0 42.2-33.4 84.4-78.4 95 27.2 48.4 60 91.2 84.4 117.8 14.4 15.6 34.4 29.4 54.4 29.4v14.6z m45.8-270c-46.6 0-64.4-31.4-64.4-64.4V334c0-24.4 17.6-60.8 68-60.8s60.8 35.8 60.8 35.8l-21.4 14.4s-11-25-39.4-25c-15.8 0-39.4 14.6-39.4 39.4v53.6c0 26.8 13.2 46.6 35.8 46.6 28.2 0 43-21.8 43-53.6h-35.8v-21.4h60.8c0 41 9.4 99.8-68 99.8z m-233 89.4c-18.8 0-27.2-0.6-40-1.6v-139.4c12.8-1.2 30-1.2 45-1.2 46.6 0 74.4 24.4 74.4 69 0 43.8-30 73.2-79.4 73.2z" p-id="24898"/></svg>