<svg xmlns="http://www.w3.org/2000/svg" width="256" height="256" viewBox="0 0 100 100"><rect width="100" height="100" fill="#0e62ee" rx="20"/><path fill="#fff" d="M18.97 58.72L18.97 58.72Q21.32 58.72 22.52 57.65Q23.73 56.58 23.73 54.90L23.73 54.90Q23.73 53.43 22.80 52.52Q21.88 51.61 19.88 51.02L19.88 51.02L16.84 50.11Q14.60 49.44 13.32 48.14Q12.04 46.85 12.04 44.64L12.04 44.64Q12.04 43.31 12.55 42.25Q13.06 41.18 14.00 40.45Q14.95 39.71 16.26 39.31Q17.57 38.91 19.22 38.91L19.22 38.91Q20.62 38.91 21.83 39.13Q23.03 39.36 23.93 39.76Q24.82 40.16 25.31 40.66Q25.80 41.14 25.80 41.67L25.80 41.67Q25.80 42.16 25.55 42.51Q25.31 42.86 24.92 43.07L24.92 43.07Q24.01 42.37 22.56 41.84Q21.11 41.32 19.32 41.32L19.32 41.32Q17.26 41.32 16.09 42.20Q14.91 43.07 14.91 44.64L14.91 44.64Q14.91 45.87 15.75 46.64Q16.59 47.41 18.55 47.97L18.55 47.97L20.69 48.60Q23.45 49.41 25.05 50.86Q26.64 52.31 26.64 54.90L26.64 54.90Q26.64 57.66 24.64 59.38Q22.65 61.09 18.97 61.09L18.97 61.09Q17.36 61.09 16.05 60.81Q14.74 60.54 13.81 60.08Q12.88 59.63 12.38 59.08Q11.87 58.54 11.87 58.02L11.87 58.02Q11.87 57.42 12.23 57.02Q12.60 56.62 13.09 56.44L13.09 56.44Q13.48 56.83 14.04 57.23Q14.60 57.63 15.33 57.96Q16.07 58.30 16.98 58.51Q17.89 58.72 18.97 58.72ZM44.84 59.63L43.26 54.97L33.88 54.97Q33.64 55.67 33.36 56.49Q33.08 57.31 32.82 58.10Q32.55 58.89 32.31 59.57Q32.06 60.26 31.92 60.71L31.92 60.71Q31.43 60.92 30.77 60.92L30.77 60.92Q30.21 60.92 29.77 60.62Q29.33 60.33 29.33 59.66L29.33 59.66Q29.33 59.34 29.44 59.01Q29.54 58.68 29.68 58.30L29.68 58.30Q30.21 56.83 31.03 54.52Q31.85 52.20 32.82 49.60Q33.78 46.99 34.78 44.35Q35.77 41.70 36.61 39.60L36.61 39.60Q36.89 39.47 37.45 39.33Q38.01 39.19 38.61 39.19L38.61 39.19Q39.31 39.19 39.96 39.39Q40.60 39.60 40.78 40.09L40.78 40.09Q41.62 42.13 42.58 44.73Q43.54 47.34 44.52 50.07Q45.50 52.80 46.40 55.44Q47.29 58.09 47.99 60.22L47.99 60.22Q47.71 60.54 47.32 60.73Q46.94 60.92 46.45 60.92L46.45 60.92Q45.78 60.92 45.43 60.62Q45.08 60.33 44.84 59.63L44.84 59.63ZM38.71 41.56L38.57 41.56Q38.19 42.61 37.70 43.96Q37.21 45.31 36.68 46.78Q36.16 48.25 35.63 49.75Q35.11 51.26 34.65 52.63L34.65 52.63L42.53 52.63Q42.00 51.05 41.44 49.46Q40.88 47.87 40.38 46.39Q39.87 44.92 39.43 43.68Q38.99 42.44 38.71 41.56L38.71 41.56ZM68.95 50.59L68.95 58.19Q68.95 58.82 68.59 59.24Q68.22 59.66 67.48 60.05L67.48 60.05Q66.61 60.47 65.07 60.78Q63.53 61.09 61.95 61.09L61.95 61.09Q59.50 61.09 57.47 60.43Q55.44 59.77 53.97 58.40Q52.50 57.03 51.70 54.95Q50.89 52.87 50.89 50.03L50.89 50.03Q50.89 47.23 51.73 45.13Q52.57 43.03 54.03 41.65Q55.48 40.27 57.40 39.59Q59.33 38.91 61.50 38.91L61.50 38.91Q62.97 38.91 64.21 39.15Q65.45 39.39 66.33 39.80Q67.20 40.20 67.69 40.69Q68.18 41.18 68.18 41.67L68.18 41.67Q68.18 42.16 67.90 42.51Q67.62 42.86 67.24 43.03L67.24 43.03Q66.29 42.41 65.00 41.86Q63.70 41.32 61.67 41.32L61.67 41.32Q59.99 41.32 58.56 41.88Q57.12 42.44 56.07 43.52Q55.02 44.61 54.43 46.25Q53.83 47.90 53.83 50.03L53.83 50.03Q53.83 52.31 54.45 53.94Q55.06 55.56 56.16 56.62Q57.26 57.66 58.75 58.17Q60.24 58.68 61.99 58.68L61.99 58.68Q63.25 58.68 64.37 58.47Q65.49 58.26 66.12 57.95L66.12 57.95L66.12 51.50L60.83 51.50Q60.73 51.33 60.62 51.03Q60.52 50.73 60.52 50.38L60.52 50.38Q60.52 49.79 60.80 49.46Q61.08 49.13 61.60 49.13L61.60 49.13L67.45 49.13Q68.08 49.13 68.52 49.53Q68.95 49.93 68.95 50.59L68.95 50.59ZM76.02 60.64L76.02 60.64Q75.32 60.64 74.90 60.22Q74.48 59.80 74.48 59.10L74.48 59.10L74.48 40.90Q74.48 40.20 74.90 39.78Q75.32 39.36 76.02 39.36L76.02 39.36L87.64 39.36Q87.75 39.53 87.85 39.83Q87.96 40.13 87.96 40.48L87.96 40.48Q87.96 41.08 87.68 41.42Q87.40 41.77 86.87 41.77L86.87 41.77L77.32 41.77L77.32 48.53L86.56 48.53Q86.66 48.70 86.77 49.00Q86.87 49.30 86.87 49.65L86.87 49.65Q86.87 50.24 86.59 50.58Q86.31 50.91 85.79 50.91L85.79 50.91L77.32 50.91L77.32 58.26L87.82 58.26Q87.92 58.44 88.03 58.72Q88.13 58.99 88.13 59.38L88.13 59.38Q88.13 59.98 87.85 60.31Q87.57 60.64 87.05 60.64L87.05 60.64L76.02 60.64Z"/></svg>