<?xml version="1.0" encoding="UTF-8"?>
<!DOCTYPE svg PUBLIC "-//W3C//DTD SVG 1.1//EN" "http://www.w3.org/Graphics/SVG/1.1/DTD/svg11.dtd">
<svg xmlns="http://www.w3.org/2000/svg" version="1.1" width="225px" height="225px" style="shape-rendering:geometricPrecision; text-rendering:geometricPrecision; image-rendering:optimizeQuality; fill-rule:evenodd; clip-rule:evenodd" xmlns:xlink="http://www.w3.org/1999/xlink">
<g><path style="opacity:1" fill="#fefefe" d="M -0.5,-0.5 C 74.5,-0.5 149.5,-0.5 224.5,-0.5C 224.5,74.5 224.5,149.5 224.5,224.5C 149.5,224.5 74.5,224.5 -0.5,224.5C -0.5,149.5 -0.5,74.5 -0.5,-0.5 Z"/></g>
<g><path style="opacity:1" fill="#74bfd8" d="M 134.5,81.5 C 126.782,85.4427 119.282,89.776 112,94.5C 111.184,93.1772 110.017,92.5106 108.5,92.5C 105.76,90.4405 102.76,88.7738 99.5,87.5C 94.8017,84.1645 89.8017,81.1645 84.5,78.5C 82.6001,80.6159 80.2668,81.9493 77.5,82.5C 74.5936,78.3619 71.9269,74.0285 69.5,69.5C 83.5467,60.9513 97.7133,52.618 112,44.5C 126.157,52.6505 140.323,60.8171 154.5,69C 147.937,73.4419 141.271,77.6086 134.5,81.5 Z"/></g>
<g><path style="opacity:1" fill="#bd9e7a" d="M 134.5,81.5 C 134.586,82.4959 134.252,83.3292 133.5,84C 120.716,92.9639 107.716,101.464 94.5,109.5C 93.2485,107.999 92.2485,106.332 91.5,104.5C 97.1667,100.5 102.833,96.5 108.5,92.5C 110.017,92.5106 111.184,93.1772 112,94.5C 119.282,89.776 126.782,85.4427 134.5,81.5 Z"/></g>
<g><path style="opacity:1" fill="#ca986b" d="M 134.5,81.5 C 136.522,83.5313 138.189,85.8646 139.5,88.5C 126.173,98.1584 112.839,107.825 99.5,117.5C 97.8333,114.833 96.1667,112.167 94.5,109.5C 107.716,101.464 120.716,92.9639 133.5,84C 134.252,83.3292 134.586,82.4959 134.5,81.5 Z"/></g>
<g><path style="opacity:1" fill="#9eaca3" d="M 99.5,87.5 C 94.8679,90.1427 90.5346,93.1427 86.5,96.5C 83.5136,91.8698 80.5136,87.2031 77.5,82.5C 80.2668,81.9493 82.6001,80.6159 84.5,78.5C 89.8017,81.1645 94.8017,84.1645 99.5,87.5 Z"/></g>
<g><path style="opacity:1" fill="#d4945d" d="M 139.5,88.5 C 140.6,89.6049 141.267,90.9382 141.5,92.5C 140.432,94.7402 138.766,96.5736 136.5,98C 124.924,105.763 113.257,113.263 101.5,120.5C 100.833,119.5 100.167,118.5 99.5,117.5C 112.839,107.825 126.173,98.1584 139.5,88.5 Z"/></g>
<g><path style="opacity:1" fill="#b1a38a" d="M 99.5,87.5 C 102.76,88.7738 105.76,90.4405 108.5,92.5C 102.833,96.5 97.1667,100.5 91.5,104.5C 90.7281,103.306 89.7281,102.306 88.5,101.5C 88.1075,99.7162 87.4408,98.0495 86.5,96.5C 90.5346,93.1427 94.8679,90.1427 99.5,87.5 Z"/></g>
<g><path style="opacity:1" fill="#df8f50" d="M 141.5,92.5 C 143.063,93.9448 144.396,95.6115 145.5,97.5C 132.524,107.655 119.191,117.322 105.5,126.5C 103.808,124.795 102.475,122.795 101.5,120.5C 113.257,113.263 124.924,105.763 136.5,98C 138.766,96.5736 140.432,94.7402 141.5,92.5 Z"/></g>
<g><path style="opacity:1" fill="#eb8a42" d="M 145.5,97.5 C 147.167,100.167 148.833,102.833 150.5,105.5C 136.88,114.613 123.38,123.946 110,133.5C 107.991,131.478 106.491,129.145 105.5,126.5C 119.191,117.322 132.524,107.655 145.5,97.5 Z"/></g>
<g><path style="opacity:1" fill="#fc812b" d="M 88.5,101.5 C 89.7281,102.306 90.7281,103.306 91.5,104.5C 92.2485,106.332 93.2485,107.999 94.5,109.5C 96.1667,112.167 97.8333,114.833 99.5,117.5C 100.167,118.5 100.833,119.5 101.5,120.5C 102.475,122.795 103.808,124.795 105.5,126.5C 106.491,129.145 107.991,131.478 110,133.5C 123.38,123.946 136.88,114.613 150.5,105.5C 151.806,107.816 153.139,110.15 154.5,112.5C 140.416,120.959 126.249,129.293 112,137.5C 97.915,129.207 83.7483,121.04 69.5,113C 75.8611,109.155 82.1945,105.322 88.5,101.5 Z"/></g>
<g><path style="opacity:1" fill="#a2a2a5" d="M 162.5,157.5 C 164.631,156.686 166.964,156.186 169.5,156C 166.518,155.502 163.518,155.335 160.5,155.5C 160.5,160.167 160.5,164.833 160.5,169.5C 159.513,164.695 159.179,159.695 159.5,154.5C 163.167,154.5 166.833,154.5 170.5,154.5C 170.5,155.5 170.5,156.5 170.5,157.5C 167.833,157.5 165.167,157.5 162.5,157.5 Z"/></g>
<g><path style="opacity:1" fill="#1e1e29" d="M 56.5,154.5 C 59.4629,154.151 61.7962,155.151 63.5,157.5C 63.1667,157.833 62.8333,158.167 62.5,158.5C 60.8273,156.914 58.8273,156.247 56.5,156.5C 56.3433,157.873 56.51,159.207 57,160.5C 59.124,161.227 61.2906,161.894 63.5,162.5C 64.7691,164.695 64.7691,166.861 63.5,169C 60.0074,170.004 56.8408,169.504 54,167.5C 53.3123,166.668 53.479,166.002 54.5,165.5C 55.9285,166.935 57.5952,167.935 59.5,168.5C 62.3962,167.976 63.0628,166.476 61.5,164C 58.6922,163.402 56.1922,162.235 54,160.5C 53.3333,159.5 53.3333,158.5 54,157.5C 55.045,156.627 55.8783,155.627 56.5,154.5 Z"/></g>
<g><path style="opacity:1" fill="#a6a7a8" d="M 118.5,155.5 C 116.167,155.5 113.833,155.5 111.5,155.5C 111.5,160.167 111.5,164.833 111.5,169.5C 110.513,164.695 110.179,159.695 110.5,154.5C 113.385,154.194 116.052,154.527 118.5,155.5 Z"/></g>
<g><path style="opacity:1" fill="#080716" d="M 88.5,155.5 C 89.8048,157.397 90.4714,159.731 90.5,162.5C 90.1667,164.833 89.8333,167.167 89.5,169.5C 88.5067,164.88 88.1734,160.214 88.5,155.5 Z"/></g>
<g><path style="opacity:1" fill="#1e1e29" d="M 118.5,155.5 C 122.347,156.524 123.347,158.857 121.5,162.5C 119.149,164.229 116.482,164.896 113.5,164.5C 113.923,166.781 113.256,168.448 111.5,169.5C 111.5,164.833 111.5,160.167 111.5,155.5C 113.833,155.5 116.167,155.5 118.5,155.5 Z"/></g>
<g><path style="opacity:1" fill="#14141f" d="M 162.5,157.5 C 162.5,158.833 162.5,160.167 162.5,161.5C 164.5,161.5 166.5,161.5 168.5,161.5C 166.393,162.468 164.059,162.802 161.5,162.5C 161.5,164.5 161.5,166.5 161.5,168.5C 164.385,168.194 167.052,168.527 169.5,169.5C 166.5,169.5 163.5,169.5 160.5,169.5C 160.5,164.833 160.5,160.167 160.5,155.5C 163.518,155.335 166.518,155.502 169.5,156C 166.964,156.186 164.631,156.686 162.5,157.5 Z"/></g>
<g><path style="opacity:1" fill="#e9e9ea" d="M 113.5,156.5 C 116.596,155.907 118.929,156.907 120.5,159.5C 118.929,162.093 116.596,163.093 113.5,162.5C 113.5,160.5 113.5,158.5 113.5,156.5 Z"/></g>
<g><path style="opacity:1" fill="#23232f" d="M 73.5,154.5 C 77.5014,154.21 80.5014,155.71 82.5,159C 80.407,158.309 78.2404,157.476 76,156.5C 74.2894,156.439 72.956,157.106 72,158.5C 71.2288,168.596 74.7288,170.596 82.5,164.5C 83.2824,166.329 82.6157,167.829 80.5,169C 72.0082,171.163 68.1749,167.996 69,159.5C 70.025,157.313 71.525,155.646 73.5,154.5 Z"/></g>
<g><path style="opacity:1" fill="#20212d" d="M 146.5,154.5 C 150.139,154.422 152.806,155.922 154.5,159C 152.799,159.345 151.466,158.678 150.5,157C 147.975,156.104 145.808,156.604 144,158.5C 143.333,161.167 143.333,163.833 144,166.5C 145.313,167.573 146.813,168.24 148.5,168.5C 150.747,167.594 152.747,166.261 154.5,164.5C 155.282,166.329 154.616,167.829 152.5,169C 142.668,170.809 139.168,166.976 142,157.5C 143.409,156.219 144.909,155.219 146.5,154.5 Z"/></g>
<g><path style="opacity:1" fill="#12121e" d="M 98.5,154.5 C 101.463,154.151 103.796,155.151 105.5,157.5C 105.167,157.833 104.833,158.167 104.5,158.5C 102.038,155.947 99.7045,155.947 97.5,158.5C 97.9767,159.478 98.6433,160.311 99.5,161C 105.967,161.085 107.634,163.752 104.5,169C 102.167,169.667 99.8333,169.667 97.5,169C 95.7397,168.035 95.4063,166.868 96.5,165.5C 97.7075,167.27 99.3741,168.27 101.5,168.5C 104.396,167.976 105.063,166.476 103.5,164C 100.947,163.239 98.4471,162.406 96,161.5C 95.162,158.519 95.9953,156.186 98.5,154.5 Z"/></g>
<g><path style="opacity:1" fill="#1d1d27" d="M 129.5,155.5 C 130.822,155.33 131.989,155.663 133,156.5C 135.162,160.779 136.328,165.112 136.5,169.5C 135.45,167.127 133.617,166.127 131,166.5C 128.56,167.179 126.393,168.013 124.5,169C 126.31,164.548 127.976,160.048 129.5,155.5 Z"/></g>
<g><path style="opacity:1" fill="#e8e8e9" d="M 130.5,157.5 C 132.448,159.32 133.448,161.654 133.5,164.5C 131.712,164.785 130.045,164.452 128.5,163.5C 129.747,161.677 130.414,159.677 130.5,157.5 Z"/></g>
<g><path style="opacity:1" fill="#4c4c53" d="M 168.5,161.5 C 169.043,161.56 169.376,161.893 169.5,162.5C 167.257,163.474 164.924,163.808 162.5,163.5C 162.5,164.833 162.5,166.167 162.5,167.5C 165.247,167.187 167.914,167.52 170.5,168.5C 170.376,169.107 170.043,169.44 169.5,169.5C 167.052,168.527 164.385,168.194 161.5,168.5C 161.5,166.5 161.5,164.5 161.5,162.5C 164.059,162.802 166.393,162.468 168.5,161.5 Z"/></g>
</svg>
