<svg xmlns="http://www.w3.org/2000/svg" xmlns:svg="http://www.w3.org/2000/svg" id="Capa_1" width="240" height="240" x="0" y="0" version="1.1" viewBox="0 0 240 240" xml:space="preserve"><metadata id="metadata49"/><g id="g12" transform="matrix(0.390625,0,0,0.390625,20,20)"><path id="path2" d="m 432,240 c -5.696,0 -11.296,0.608 -16.672,1.76 C 408.128,169.024 346.592,112 272,112 c -8.832,0 -16,7.168 -16,16 v 256 c 0,8.832 7.168,16 16,16 h 160 c 44.128,0 80,-35.872 80,-80 0,-44.096 -35.872,-80 -80,-80 z" style="fill:#ff9800"/><path id="path4" d="m 208,144 c -8.832,0 -16,7.168 -16,16 v 224 c 0,8.832 7.168,16 16,16 8.832,0 16,-7.168 16,-16 V 160 c 0,-8.832 -7.168,-16 -16,-16 z" style="fill:#ff9800"/><path id="path6" d="m 144,208 c -8.832,0 -16,7.168 -16,16 v 160 c 0,8.832 7.168,16 16,16 8.832,0 16,-7.168 16,-16 V 224 c 0,-8.832 -7.168,-16 -16,-16 z" style="fill:#ff9800"/><path id="path8" d="m 80,208 c -8.832,0 -16,7.168 -16,16 v 160 c 0,8.832 7.168,16 16,16 8.832,0 16,-7.168 16,-16 V 224 c 0,-8.832 -7.168,-16 -16,-16 z" style="fill:#ff9800"/><path id="path10" d="m 16,256 c -8.832,0 -16,7.168 -16,16 v 96 c 0,8.832 7.168,16 16,16 8.832,0 16,-7.168 16,-16 v -96 c 0,-8.832 -7.168,-16 -16,-16 z" style="fill:#ff9800"/></g></svg>