<svg xmlns="http://www.w3.org/2000/svg" width="256" height="256" viewBox="0 0 100 100"><rect width="100" height="100" fill="#f72a09" rx="20"/><path fill="#fff" d="M24.39 57.45L24.39 57.45Q26.40 57.45 27.44 56.54Q28.47 55.63 28.47 54.18L28.47 54.18Q28.47 52.92 27.68 52.14Q26.88 51.36 25.17 50.85L25.17 50.85L22.56 50.07Q20.64 49.50 19.55 48.39Q18.45 47.28 18.45 45.39L18.45 45.39Q18.45 44.25 18.89 43.34Q19.32 42.42 20.13 41.80Q20.94 41.16 22.07 40.82Q23.19 40.47 24.60 40.47L24.60 40.47Q25.80 40.47 26.84 40.67Q27.87 40.86 28.64 41.21Q29.40 41.55 29.82 41.97Q30.24 42.39 30.24 42.84L30.24 42.84Q30.24 43.27 30.03 43.56Q29.82 43.86 29.49 44.05L29.49 44.05Q28.71 43.44 27.47 42.99Q26.22 42.55 24.69 42.55L24.69 42.55Q22.92 42.55 21.92 43.30Q20.91 44.05 20.91 45.39L20.91 45.39Q20.91 46.44 21.63 47.10Q22.35 47.77 24.03 48.24L24.03 48.24L25.86 48.78Q28.23 49.47 29.60 50.72Q30.96 51.96 30.96 54.18L30.96 54.18Q30.96 56.55 29.25 58.02Q27.54 59.49 24.39 59.49L24.39 59.49Q23.01 59.49 21.89 59.25Q20.76 59.01 19.97 58.63Q19.17 58.23 18.74 57.77Q18.30 57.30 18.30 56.85L18.30 56.85Q18.30 56.34 18.62 56Q18.93 55.65 19.35 55.50L19.35 55.50Q19.68 55.83 20.16 56.18Q20.64 56.52 21.27 56.81Q21.90 57.09 22.68 57.27Q23.46 57.45 24.39 57.45ZM39.36 59.49L39.36 59.49Q37.26 59.49 35.96 58.56Q34.65 57.63 34.65 55.47L34.65 55.47L34.65 41.22Q34.80 41.16 35.12 41.09Q35.43 41.02 35.79 41.02L35.79 41.02Q37.05 41.02 37.05 42.09L37.05 42.09L37.05 45.55L41.97 45.55Q42.06 45.69 42.15 45.95Q42.24 46.20 42.24 46.50L42.24 46.50Q42.24 47.52 41.34 47.52L41.34 47.52L37.05 47.52L37.05 55.32Q37.05 56.52 37.73 57.02Q38.40 57.52 39.63 57.52L39.63 57.52Q40.14 57.52 40.77 57.33Q41.40 57.15 41.82 56.91L41.82 56.91Q42.00 57.09 42.15 57.36Q42.30 57.63 42.30 57.99L42.30 57.99Q42.30 58.65 41.52 59.07Q40.74 59.49 39.36 59.49ZM50.73 57.54L50.73 57.54Q51.99 57.54 52.82 57.29Q53.64 57.03 54.00 56.79L54.00 56.79L54.00 52.44L50.28 52.83Q48.72 52.98 47.97 53.54Q47.22 54.09 47.22 55.17L47.22 55.17Q47.22 56.31 48.09 56.93Q48.96 57.54 50.73 57.54ZM50.70 44.85L50.70 44.85Q53.31 44.85 54.84 46.02Q56.38 47.19 56.38 49.71L56.38 49.71L56.38 56.82Q56.38 57.48 56.12 57.83Q55.86 58.17 55.35 58.47L55.35 58.47Q54.63 58.89 53.45 59.21Q52.27 59.52 50.73 59.52L50.73 59.52Q47.91 59.52 46.37 58.41Q44.82 57.30 44.82 55.20L44.82 55.20Q44.82 53.22 46.11 52.22Q47.40 51.21 49.74 50.97L49.74 50.97L54.00 50.55L54.00 49.71Q54.00 48.21 53.10 47.52Q52.20 46.83 50.67 46.83L50.67 46.83Q49.41 46.83 48.30 47.19Q47.19 47.55 46.32 48.00L46.32 48.00Q46.08 47.80 45.89 47.52Q45.69 47.25 45.69 46.92L45.69 46.92Q45.69 46.50 45.90 46.23Q46.11 45.96 46.56 45.72L46.56 45.72Q47.38 45.30 48.42 45.08Q49.47 44.85 50.70 44.85ZM65.49 59.49L65.49 59.49Q63.39 59.49 62.09 58.56Q60.78 57.63 60.78 55.47L60.78 55.47L60.78 41.22Q60.93 41.16 61.25 41.09Q61.56 41.02 61.92 41.02L61.92 41.02Q63.18 41.02 63.18 42.09L63.18 42.09L63.18 45.55L68.10 45.55Q68.19 45.69 68.28 45.95Q68.38 46.20 68.38 46.50L68.38 46.50Q68.38 47.52 67.47 47.52L67.47 47.52L63.18 47.52L63.18 55.32Q63.18 56.52 63.86 57.02Q64.53 57.52 65.77 57.52L65.77 57.52Q66.27 57.52 66.91 57.33Q67.53 57.15 67.95 56.91L67.95 56.91Q68.13 57.09 68.28 57.36Q68.44 57.63 68.44 57.99L68.44 57.99Q68.44 58.65 67.66 59.07Q66.88 59.49 65.49 59.49ZM81.69 55.41L81.69 55.41Q81.69 57.33 80.28 58.41Q78.87 59.49 76.20 59.49L76.20 59.49Q75.06 59.49 74.10 59.30Q73.14 59.10 72.47 58.79Q71.79 58.47 71.42 58.07Q71.04 57.66 71.04 57.24L71.04 57.24Q71.04 56.88 71.24 56.55Q71.43 56.22 71.82 55.98L71.82 55.98Q72.63 56.58 73.71 57.05Q74.79 57.52 76.17 57.52L76.17 57.52Q79.29 57.52 79.29 55.41L79.29 55.41Q79.29 53.70 77.22 53.19L77.22 53.19L74.73 52.53Q72.90 52.05 72.06 51.14Q71.22 50.22 71.22 48.78L71.22 48.78Q71.22 48.00 71.54 47.28Q71.85 46.56 72.51 46.02Q73.17 45.48 74.15 45.17Q75.12 44.85 76.44 44.85L76.44 44.85Q78.54 44.85 79.83 45.47Q81.12 46.08 81.12 46.89L81.12 46.89Q81.12 47.28 80.93 47.58Q80.73 47.88 80.40 48.03L80.40 48.03Q79.86 47.67 78.87 47.25Q77.88 46.83 76.53 46.83L76.53 46.83Q75.18 46.83 74.39 47.34Q73.59 47.85 73.59 48.78L73.59 48.78Q73.59 49.47 74.04 49.95Q74.49 50.43 75.54 50.67L75.54 50.67L77.61 51.18Q79.65 51.69 80.67 52.70Q81.69 53.70 81.69 55.41Z"/></svg>