<svg xmlns="http://www.w3.org/2000/svg" xmlns:svg="http://www.w3.org/2000/svg" id="svg10" width="240" height="240" version="1.1" viewBox="0 0 240 240"><metadata id="metadata16"/><style id="style2">.st0{fill:#121210}.st1{fill:#2eace3}</style><g id="g847" transform="matrix(2.3308101,0,0,2.3308101,-22.111578,-18.045812)"><g id="g2472" transform="translate(11.886,11.523)"><path id="path2474" d="m 35.2,90.5 h -20 C 14.4,90.5 14,90.3 14,89.6 V 5.8 c 0,-0.6 0.4,-1 1.2,-1 H 35 c 0.8,0 1.3,0.3 1.3,1 V 11 c 0,0.7 -0.4,0.9 -1.2,0.9 h -8.9 c -1.1,0 -1.5,0.4 -1.5,1.1 v 69.4 c 0,0.7 0.4,1 1.3,1 h 9 c 0.8,0 1.3,0.3 1.3,0.9 v 5.3 c 0.1,0.6 -0.3,0.9 -1.1,0.9" class="st0"/></g><g id="g2476" transform="translate(37.549,30.591)"><path id="path2478" d="m 55.2,37.5 c -5.3,1.5 -8.9,4.6 -8.9,9.7 v 14.6 c 0,10.9 -10.4,9.7 -23.3,9.7 h -2 c -0.8,0 -1.3,-0.3 -1.3,-1 v -5 c 0,-0.7 0.4,-1 1.2,-1 h 1.6 c 7.7,0 13.1,1.7 13.1,-4.5 V 46 c 0,-4.3 3,-10.3 9,-12.5 0.4,-0.1 0.5,-0.3 0.5,-0.5 0,-0.2 -0.1,-0.5 -0.5,-0.7 -5.5,-2.5 -9,-6.6 -9,-11.5 V 5 c 0,-6.1 -5.4,-12.2 -13.1,-12.2 h -1.6 c -0.8,0 -1.2,-0.3 -1.2,-1 v -5 c 0,-0.7 0.5,-1 1.3,-1 h 2 c 12.9,0 23.4,9.2 23.4,20.1 v 13.3 c 0,5 3.6,7.9 9,9.8 2,0.6 3.1,0.7 3.1,2.3 v 4.2 c 0.1,0.9 -0.9,1.3 -3.3,2" class="st1"/></g><g id="g2480" transform="translate(23.003,38.914)"><path id="path2482" d="m 43.8,14.4 c 0,1.2 -1.1,2.1 -2.3,2.1 h -5.3 c -1.3,0 -2.3,-1 -2.3,-2.1 V 9.6 c 0,-1.2 1.1,-2.1 2.3,-2.1 h 5.3 c 1.3,0 2.3,1 2.3,2.1 z" class="st0"/></g></g></svg>