<svg xmlns="http://www.w3.org/2000/svg" width="256" height="256" viewBox="0 0 100 100"><rect width="100" height="100" rx="20" fill="#f39409"></rect><path fill="#fff" d="M17.12 69.92L17.12 69.92Q22.48 69.92 25.24 67.48Q28.00 65.04 28.00 61.20L28.00 61.20Q28.00 57.84 25.88 55.76Q23.76 53.68 19.20 52.32L19.20 52.32L12.24 50.24Q7.12 48.72 4.20 45.76Q1.28 42.80 1.28 37.76L1.28 37.76Q1.28 34.72 2.44 32.28Q3.60 29.84 5.76 28.16Q7.92 26.48 10.92 25.56Q13.92 24.64 17.68 24.64L17.68 24.64Q20.88 24.64 23.64 25.16Q26.40 25.68 28.44 26.60Q30.48 27.52 31.60 28.64Q32.72 29.76 32.72 30.96L32.72 30.96Q32.72 32.08 32.16 32.88Q31.60 33.68 30.72 34.16L30.72 34.16Q28.64 32.56 25.32 31.36Q22.00 30.16 17.92 30.16L17.92 30.16Q13.20 30.16 10.52 32.16Q7.84 34.16 7.84 37.76L7.84 37.76Q7.84 40.56 9.76 42.32Q11.68 44.08 16.16 45.36L16.16 45.36L21.04 46.80Q27.36 48.64 31.00 51.96Q34.64 55.28 34.64 61.20L34.64 61.20Q34.64 67.52 30.08 71.44Q25.52 75.36 17.12 75.36L17.12 75.36Q13.44 75.36 10.44 74.72Q7.44 74.08 5.32 73.04Q3.20 72 2.04 70.76Q0.88 69.52 0.88 68.32L0.88 68.32Q0.88 66.96 1.72 66.04Q2.56 65.12 3.68 64.72L3.68 64.72Q4.56 65.60 5.84 66.52Q7.12 67.44 8.80 68.20Q10.48 68.96 12.56 69.44Q14.64 69.92 17.12 69.92ZM67.12 37.76L67.12 37.76Q67.76 37.44 68.68 37.20Q69.60 36.96 70.72 36.96L70.72 36.96Q74.08 36.96 74.80 39.04L74.80 39.04Q76.24 43.36 77.52 47.20Q78.80 51.04 80 54.60Q81.20 58.16 82.32 61.60Q83.44 65.04 84.56 68.72L84.56 68.72L84.88 68.72Q86 63.36 87.12 58.20Q88.24 53.04 89.28 47.80Q90.32 42.56 91.28 37.16Q92.24 31.76 93.12 25.76L93.12 25.76Q94.24 25.20 95.84 25.20L95.84 25.20Q97.36 25.20 98.24 25.88Q99.12 26.56 99.12 27.92L99.12 27.92Q99.12 29.44 98.68 32.56Q98.24 35.68 97.48 39.72Q96.72 43.76 95.72 48.44Q94.72 53.12 93.60 57.64Q92.48 62.16 91.36 66.32Q90.24 70.48 89.20 73.44L89.20 73.44Q88.48 73.84 87.36 74.20Q86.24 74.56 84.80 74.56L84.80 74.56Q83.04 74.56 81.84 74Q80.64 73.44 80.24 72.48L80.24 72.48Q79.36 70.40 78.24 67.24Q77.12 64.08 75.88 60.28Q74.64 56.48 73.36 52.36Q72.08 48.24 70.88 44.16L70.88 44.16Q69.68 48.16 68.40 52.40Q67.12 56.64 65.88 60.60Q64.64 64.56 63.44 67.92Q62.24 71.28 61.28 73.52L61.28 73.52Q60.64 73.92 59.52 74.24Q58.40 74.56 56.96 74.56L56.96 74.56Q55.12 74.56 54 73.96Q52.88 73.36 52.48 72.48L52.48 72.48Q51.76 70.80 50.84 67.68Q49.92 64.56 48.92 60.60Q47.92 56.64 46.84 52.08Q45.76 47.52 44.76 43.00Q43.76 38.48 42.92 34.28Q42.08 30.08 41.52 26.72L41.52 26.72Q42.08 26.16 43.04 25.68Q44 25.20 45.12 25.20L45.12 25.20Q47.92 25.20 48.48 28.16L48.48 28.16Q49.52 33.20 50.48 37.88Q51.44 42.56 52.44 47.40Q53.44 52.24 54.56 57.44Q55.68 62.64 57.04 68.72L57.04 68.72L57.36 68.72Q58.48 65.12 59.52 61.88Q60.56 58.64 61.68 55.12Q62.80 51.60 64.12 47.44Q65.44 43.28 67.12 37.76Z"></path></svg>