<?xml version="1.0" encoding="UTF-8"?>
<!DOCTYPE svg PUBLIC "-//W3C//DTD SVG 1.1//EN" "http://www.w3.org/Graphics/SVG/1.1/DTD/svg11.dtd">
<svg xmlns="http://www.w3.org/2000/svg" version="1.1" width="225px" height="225px" style="shape-rendering:geometricPrecision; text-rendering:geometricPrecision; image-rendering:optimizeQuality; fill-rule:evenodd; clip-rule:evenodd" xmlns:xlink="http://www.w3.org/1999/xlink">
<g><path style="opacity:1" fill="#fafdf8" d="M -0.5,-0.5 C 3.5,-0.5 7.5,-0.5 11.5,-0.5C 5.83333,1.83333 1.83333,5.83333 -0.5,11.5C -0.5,7.5 -0.5,3.5 -0.5,-0.5 Z"/></g>
<g><path style="opacity:1" fill="#6fda44" d="M 11.5,-0.5 C 77.8333,-0.5 144.167,-0.5 210.5,-0.5C 217.299,0.962327 221.965,4.96233 224.5,11.5C 224.5,78.5 224.5,145.5 224.5,212.5C 221.965,219.038 217.299,223.038 210.5,224.5C 144.167,224.5 77.8333,224.5 11.5,224.5C 5.83333,222.167 1.83333,218.167 -0.5,212.5C -0.5,145.5 -0.5,78.5 -0.5,11.5C 1.83333,5.83333 5.83333,1.83333 11.5,-0.5 Z"/></g>
<g><path style="opacity:1" fill="#f8fdf6" d="M 210.5,-0.5 C 215.167,-0.5 219.833,-0.5 224.5,-0.5C 224.5,3.5 224.5,7.5 224.5,11.5C 221.965,4.96233 217.299,0.962327 210.5,-0.5 Z"/></g>
<g><path style="opacity:1" fill="#fdfefd" d="M 15.5,52.5 C 22.8333,52.5 30.1667,52.5 37.5,52.5C 37.0451,73.8868 37.5451,95.2201 39,116.5C 42.4338,125.055 48.7672,129.721 58,130.5C 68.2104,129.625 74.8771,124.292 78,114.5C 78.5,93.836 78.6666,73.1694 78.5,52.5C 86.0871,52.1858 93.5871,52.5192 101,53.5C 105.853,69.8689 112.853,85.2023 122,99.5C 132.758,69.7044 153.258,59.5377 183.5,69C 208.051,84.3244 214.218,105.158 202,131.5C 189.475,149.01 172.642,155.51 151.5,151C 145.802,148.813 140.135,146.647 134.5,144.5C 131.372,159.474 128.372,174.474 125.5,189.5C 117.804,189.831 110.138,189.497 102.5,188.5C 107.151,168.411 111.485,148.244 115.5,128C 115.333,126.833 115.167,125.667 115,124.5C 109.58,117.333 104.913,109.667 101,101.5C 102.396,124.225 92.8957,140.392 72.5,150C 48.4587,156.228 30.6254,148.395 19,126.5C 17.8443,122.877 16.8443,119.211 16,115.5C 15.5,94.5026 15.3334,73.5026 15.5,52.5 Z"/></g>
<g><path style="opacity:1" fill="#6fda45" d="M 157.5,87.5 C 179.943,86.4321 188.776,96.7654 184,118.5C 178.092,127.92 169.592,131.753 158.5,130C 152.192,128.096 146.359,125.262 141,121.5C 140.126,106.9 145.626,95.567 157.5,87.5 Z"/></g>
<g><path style="opacity:1" fill="#fafdf8" d="M -0.5,212.5 C 1.83333,218.167 5.83333,222.167 11.5,224.5C 7.5,224.5 3.5,224.5 -0.5,224.5C -0.5,220.5 -0.5,216.5 -0.5,212.5 Z"/></g>
<g><path style="opacity:1" fill="#f8fdf6" d="M 224.5,212.5 C 224.5,216.5 224.5,220.5 224.5,224.5C 219.833,224.5 215.167,224.5 210.5,224.5C 217.299,223.038 221.965,219.038 224.5,212.5 Z"/></g>
</svg>
