<svg xmlns="http://www.w3.org/2000/svg" xmlns:xlink="http://www.w3.org/1999/xlink" width="998" height="998" version="1.1" style="shape-rendering:geometricPrecision;text-rendering:geometricPrecision;image-rendering:optimizeQuality;fill-rule:evenodd;clip-rule:evenodd"><g><path style="opacity:1" fill="#28627d" d="M -0.5,-0.5 C 332.167,-0.5 664.833,-0.5 997.5,-0.5C 997.5,332.167 997.5,664.833 997.5,997.5C 664.833,997.5 332.167,997.5 -0.5,997.5C -0.5,664.833 -0.5,332.167 -0.5,-0.5 Z"/></g><g><path style="opacity:1" fill="#fcfdfd" d="M 306.5,184.5 C 298.981,184.825 291.648,184.492 284.5,183.5C 368.517,99.751 470.183,59.5844 589.5,63C 715.1,72.0362 815.934,126.203 892,225.5C 965.362,329.652 986.362,443.652 955,567.5C 920.299,685.19 847.799,770.69 737.5,824C 650.652,862.856 560.985,870.856 468.5,848C 396.803,828.222 335.136,791.888 283.5,739C 291.167,738.333 298.833,738.333 306.5,739C 388.994,812.61 485.661,844.943 596.5,836C 715.714,821.676 808.88,765.176 876,666.5C 939.022,563.313 952.355,453.979 916,338.5C 872.269,221.769 791.436,143.269 673.5,103C 550.944,67.8505 437.944,87.1838 334.5,161C 324.951,168.603 315.617,176.437 306.5,184.5 Z"/></g><g><path style="opacity:1" fill="#94afbd" d="M 284.5,183.5 C 291.648,184.492 298.981,184.825 306.5,184.5C 298.677,185.656 290.677,185.823 282.5,185C 283.044,184.283 283.711,183.783 284.5,183.5 Z"/></g><g><path style="opacity:1" fill="#fdfdfd" d="M 240.5,245.5 C 253.167,245.5 265.833,245.5 278.5,245.5C 278.5,257.833 278.5,270.167 278.5,282.5C 265.833,282.5 253.167,282.5 240.5,282.5C 240.5,270.167 240.5,257.833 240.5,245.5 Z"/></g><g><path style="opacity:1" fill="#93afbd" d="M 78.5,258.5 C 64.4591,257.851 50.7924,258.518 37.5,260.5C 36.596,259.791 36.2627,258.791 36.5,257.5C 50.6766,257.171 64.6766,257.504 78.5,258.5 Z"/></g><g><path style="opacity:1" fill="#93aebc" d="M 185.5,258.5 C 198.339,257.175 211.339,257.175 224.5,258.5C 224.376,259.107 224.043,259.44 223.5,259.5C 211.011,258.505 198.344,258.171 185.5,258.5 Z"/></g><g><path style="opacity:1" fill="#fdfdfe" d="M 78.5,258.5 C 96.0271,319.249 113.86,379.915 132,440.5C 149.842,379.794 167.675,319.127 185.5,258.5C 198.344,258.171 211.011,258.505 223.5,259.5C 199.774,337.846 175.941,416.179 152,494.5C 137.744,496.473 123.244,497.14 108.5,496.5C 85.2404,417.72 61.5738,339.054 37.5,260.5C 50.7924,258.518 64.4591,257.851 78.5,258.5 Z"/></g><g><path style="opacity:1" fill="#fdfdfe" d="M 364.5,309.5 C 383.706,307.553 401.373,311.719 417.5,322C 431.384,333.615 437.051,348.449 434.5,366.5C 421.833,366.5 409.167,366.5 396.5,366.5C 396.499,344.682 385.832,336.516 364.5,342C 351.917,349.359 349.084,359.525 356,372.5C 358.892,375.057 362.059,377.224 365.5,379C 382.319,384.606 398.986,390.606 415.5,397C 428.701,405.223 436.534,417.056 439,432.5C 442.515,472.68 424.349,495.18 384.5,500C 364.436,502.606 346.103,498.273 329.5,487C 315.817,473.797 309.484,457.631 310.5,438.5C 323.5,438.5 336.5,438.5 349.5,438.5C 348.976,460.477 359.643,470.644 381.5,469C 399.835,463.67 405.335,452.17 398,434.5C 393.262,429.877 387.762,426.377 381.5,424C 365.252,419.364 349.585,413.364 334.5,406C 316.364,391.84 309.864,373.34 315,350.5C 319.962,331.537 331.795,319.037 350.5,313C 355.295,311.801 359.962,310.634 364.5,309.5 Z"/></g><g><path style="opacity:1" fill="#fcfdfd" d="M 765.5,468.5 C 768.287,469.477 771.287,469.81 774.5,469.5C 774.5,477.833 774.5,486.167 774.5,494.5C 750.396,506.243 732.396,500.243 720.5,476.5C 700.894,500.863 676.894,506.363 648.5,493C 639.731,488.23 633.898,481.064 631,471.5C 624.291,449.827 626.958,429.493 639,410.5C 647.705,401.393 658.205,395.227 670.5,392C 686.179,387.403 702.179,385.57 718.5,386.5C 718.666,376.494 718.5,366.494 718,356.5C 715.233,345.085 707.899,339.751 696,340.5C 679.153,341.52 671.32,350.52 672.5,367.5C 660.167,367.5 647.833,367.5 635.5,367.5C 634.731,335.087 650.398,315.921 682.5,310C 698.217,308.505 713.551,310.171 728.5,315C 744.624,322.71 753.791,335.544 756,353.5C 756.333,389.5 756.667,425.5 757,461.5C 758.18,465.847 761.013,468.18 765.5,468.5 Z"/></g><g><path style="opacity:1" fill="#fefefe" d="M 241.5,313.5 C 253.833,313.5 266.167,313.5 278.5,313.5C 278.5,374.5 278.5,435.5 278.5,496.5C 266.167,496.5 253.833,496.5 241.5,496.5C 241.5,435.5 241.5,374.5 241.5,313.5 Z"/></g><g><path style="opacity:1" fill="#fdfefe" d="M 471.5,313.5 C 483.833,313.5 496.167,313.5 508.5,313.5C 508.333,356.835 508.5,400.168 509,443.5C 512.035,462.276 522.868,469.443 541.5,465C 548.857,462.311 554.357,457.478 558,450.5C 560.416,445.754 562.083,440.754 563,435.5C 563.5,394.835 563.667,354.168 563.5,313.5C 575.833,313.5 588.167,313.5 600.5,313.5C 600.5,374.5 600.5,435.5 600.5,496.5C 590.5,496.5 580.5,496.5 570.5,496.5C 569.496,489.482 568.329,482.482 567,475.5C 566.439,474.978 565.772,474.645 565,474.5C 548.308,497.731 526.141,505.231 498.5,497C 485.2,490.599 477.033,480.099 474,465.5C 473.415,460.489 472.749,455.489 472,450.5C 471.5,404.835 471.333,359.168 471.5,313.5 Z"/></g><g><path style="opacity:1" fill="#2a637e" d="M 704.5,414.5 C 709.167,414.5 713.833,414.5 718.5,414.5C 720.068,428.83 717.902,442.496 712,455.5C 705.662,464.681 696.829,469.014 685.5,468.5C 671.741,466.864 665.407,459.031 666.5,445C 666.758,430.395 674.091,421.395 688.5,418C 694.037,417.153 699.37,415.987 704.5,414.5 Z"/></g><g><path style="opacity:1" fill="#c1d1d9" d="M 765.5,468.5 C 768.833,468.5 772.167,468.5 775.5,468.5C 775.826,477.349 775.493,486.016 774.5,494.5C 774.5,486.167 774.5,477.833 774.5,469.5C 771.287,469.81 768.287,469.477 765.5,468.5 Z"/></g><g><path style="opacity:1" fill="#a1bac6" d="M 797.5,245.5 C 797.5,328.833 797.5,412.167 797.5,495.5C 809.5,495.5 821.5,495.5 833.5,495.5C 833.5,412.167 833.5,328.833 833.5,245.5C 834.499,328.998 834.833,412.665 834.5,496.5C 821.833,496.5 809.167,496.5 796.5,496.5C 796.167,412.665 796.501,328.998 797.5,245.5 Z"/></g><g><path style="opacity:1" fill="#fefffe" d="M 797.5,245.5 C 809.5,245.5 821.5,245.5 833.5,245.5C 833.5,328.833 833.5,412.167 833.5,495.5C 821.5,495.5 809.5,495.5 797.5,495.5C 797.5,412.167 797.5,328.833 797.5,245.5 Z"/></g><g><path style="opacity:1" fill="#eff3f5" d="M 323.5,641.5 C 322.425,645.938 324.092,647.938 328.5,647.5C 328.5,649.167 328.5,650.833 328.5,652.5C 320.551,653.218 316.884,649.551 317.5,641.5C 317.5,614.5 317.5,587.5 317.5,560.5C 319.5,560.5 321.5,560.5 323.5,560.5C 323.5,587.5 323.5,614.5 323.5,641.5 Z"/></g><g><path style="opacity:1" fill="#eff3f5" d="M 700.5,560.5 C 702.5,560.5 704.5,560.5 706.5,560.5C 706.333,589.169 706.5,617.835 707,646.5C 708.356,647.38 709.856,647.714 711.5,647.5C 711.5,649.167 711.5,650.833 711.5,652.5C 705.451,653.947 701.951,651.614 701,645.5C 700.5,617.169 700.333,588.835 700.5,560.5 Z"/></g><g><path style="opacity:1" fill="#f5f8f9" d="M 109.5,566.5 C 116.997,565.804 118.997,568.637 115.5,575C 107.749,576.091 105.749,573.258 109.5,566.5 Z"/></g><g><path style="opacity:1" fill="#f2f6f7" d="M 399.5,566.5 C 409.487,565.935 417.82,569.268 424.5,576.5C 423.788,578.046 422.622,579.046 421,579.5C 413.437,572.825 404.604,570.658 394.5,573C 383.606,577.598 377.106,585.764 375,597.5C 372.52,611.794 374.854,625.127 382,637.5C 395.851,650.79 409.684,650.79 423.5,637.5C 425.475,638.275 426.309,639.609 426,641.5C 415.9,652.704 403.733,655.537 389.5,650C 379.382,645.212 372.882,637.378 370,626.5C 365.559,609.448 367.893,593.448 377,578.5C 383.069,571.549 390.569,567.549 399.5,566.5 Z"/></g><g><path style="opacity:1" fill="#f7f9fa" d="M 573.5,566.5 C 580.997,565.804 582.997,568.637 579.5,575C 572.188,575.871 570.188,573.038 573.5,566.5 Z"/></g><g><path style="opacity:1" fill="#f6f8f9" d="M 730.5,566.5 C 737.997,565.804 739.997,568.637 736.5,575C 728.749,576.091 726.749,573.258 730.5,566.5 Z"/></g><g><path style="opacity:1" fill="#90adbb" d="M 42.5,568.5 C 40.2188,568.077 38.5521,568.744 37.5,570.5C 36.596,569.791 36.2627,568.791 36.5,567.5C 38.7354,567.205 40.7354,567.539 42.5,568.5 Z"/></g><g><path style="opacity:1" fill="#f3f6f7" d="M 37.5,570.5 C 38.5521,568.744 40.2188,568.077 42.5,568.5C 50.9545,593.62 59.1212,618.953 67,644.5C 75.0055,619.151 83.0055,593.818 91,568.5C 93.1385,567.231 95.3052,567.231 97.5,568.5C 88.3701,595.056 79.5368,621.723 71,648.5C 68.8938,650.291 66.3938,650.958 63.5,650.5C 55.0335,623.767 46.3668,597.1 37.5,570.5 Z"/></g><g><path style="opacity:1" fill="#f4f7f8" d="M 604.5,573.5 C 606.167,573.5 607.833,573.5 609.5,573.5C 609.5,579.167 609.5,584.833 609.5,590.5C 615.5,590.5 621.5,590.5 627.5,590.5C 627.5,592.167 627.5,593.833 627.5,595.5C 621.5,595.5 615.5,595.5 609.5,595.5C 609.333,610.504 609.5,625.504 610,640.5C 612.73,647.053 617.563,649.22 624.5,647C 626.859,644.899 628.192,645.566 628.5,649C 622.46,653.148 616.126,653.482 609.5,650C 607.106,648.048 605.606,645.548 605,642.5C 603.563,626.891 603.063,611.224 603.5,595.5C 600.5,595.5 597.5,595.5 594.5,595.5C 594.5,593.833 594.5,592.167 594.5,590.5C 597.833,590.5 601.167,590.5 604.5,590.5C 604.5,584.833 604.5,579.167 604.5,573.5 Z"/></g><g><path style="opacity:1" fill="#f1f4f6" d="M 810.5,572.5 C 812.144,572.286 813.644,572.62 815,573.5C 815.499,579.157 815.666,584.824 815.5,590.5C 821.167,590.5 826.833,590.5 832.5,590.5C 832.5,592.167 832.5,593.833 832.5,595.5C 826.833,595.5 821.167,595.5 815.5,595.5C 815.333,611.17 815.5,626.837 816,642.5C 816.833,644.667 818.333,646.167 820.5,647C 824.045,647.717 827.545,647.55 831,646.5C 833.965,647.722 834.132,649.222 831.5,651C 820.843,655.249 813.676,652.082 810,641.5C 809.5,626.17 809.333,610.837 809.5,595.5C 806.167,595.5 802.833,595.5 799.5,595.5C 799.5,593.833 799.5,592.167 799.5,590.5C 802.833,590.5 806.167,590.5 809.5,590.5C 809.211,584.409 809.545,578.409 810.5,572.5 Z"/></g><g><path style="opacity:1" fill="#f3f6f7" d="M 145.5,589.5 C 153.681,588.549 161.347,590.049 168.5,594C 169.869,596.239 169.369,598.073 167,599.5C 160.923,594.861 154.09,593.361 146.5,595C 138.897,599.001 137.564,604.501 142.5,611.5C 150.347,615.59 158.347,619.423 166.5,623C 174.327,629.447 175.494,636.947 170,645.5C 163.021,651.935 154.854,654.101 145.5,652C 140.055,650.112 135.055,647.445 130.5,644C 131.685,642.647 133.019,641.48 134.5,640.5C 143.38,648.043 153.047,649.376 163.5,644.5C 169.159,638.299 168.826,632.466 162.5,627C 157.135,623.91 151.468,621.577 145.5,620C 141.396,617.894 137.896,615.061 135,611.5C 131.776,600.949 135.276,593.615 145.5,589.5 Z"/></g><g><path style="opacity:1" fill="#f0f4f6" d="M 268.5,589.5 C 285.051,586.337 294.218,593.003 296,609.5C 296.667,623.167 296.667,636.833 296,650.5C 294.506,651.747 293.006,651.747 291.5,650.5C 290.787,648.224 290.287,645.891 290,643.5C 281.418,651.223 271.585,653.723 260.5,651C 252.807,646.27 249.974,639.437 252,630.5C 256.554,622.624 263.387,617.79 272.5,616C 278.432,614.622 284.432,613.789 290.5,613.5C 291.274,597.778 283.941,591.611 268.5,595C 264.554,596.306 260.888,598.139 257.5,600.5C 255.02,599.585 254.353,598.085 255.5,596C 259.771,593.533 264.104,591.366 268.5,589.5 Z"/></g><g><path style="opacity:1" fill="#f6f8f9" d="M 483.5,610.5 C 483.5,623.833 483.5,637.167 483.5,650.5C 482.167,650.5 480.833,650.5 479.5,650.5C 478.686,648.369 478.186,646.036 478,643.5C 470.088,650.359 460.921,653.193 450.5,652C 442.97,649.113 439.303,643.613 439.5,635.5C 439.761,628.396 443.094,623.229 449.5,620C 458.043,616.115 467.043,613.948 476.5,613.5C 477.725,612.848 478.392,611.681 478.5,610C 478.486,608.615 478.152,607.449 477.5,606.5C 474.778,595.463 467.778,591.63 456.5,595C 452.359,596.75 448.359,598.416 444.5,600C 442.993,599.163 442.493,597.996 443,596.5C 453.016,589.13 463.85,587.63 475.5,592C 481.313,596.795 483.98,602.961 483.5,610.5 Z"/></g><g><path style="opacity:1" fill="#f8fafb" d="M 512.5,646.5 C 512.44,645.957 512.107,645.624 511.5,645.5C 510.501,656.48 510.168,667.48 510.5,678.5C 508.833,678.5 507.167,678.5 505.5,678.5C 505.5,649.167 505.5,619.833 505.5,590.5C 507.167,590.5 508.833,590.5 510.5,590.5C 510.336,593.187 510.503,595.854 511,598.5C 520.365,589.161 531.198,586.994 543.5,592C 547.388,594.222 550.221,597.388 552,601.5C 558.873,618.877 556.04,634.377 543.5,648C 532.794,654.343 522.46,653.843 512.5,646.5 Z"/></g><g><path style="opacity:1" fill="#f4f7f8" d="M 678.5,605.5 C 678.5,620.5 678.5,635.5 678.5,650.5C 677.167,650.5 675.833,650.5 674.5,650.5C 674.808,648.076 674.474,645.743 673.5,643.5C 664.773,651.277 654.773,653.777 643.5,651C 633.843,644.301 632.01,635.801 638,625.5C 648.306,617.231 660.139,613.231 673.5,613.5C 674.295,597.8 666.961,591.634 651.5,595C 647.833,596.833 644.167,598.667 640.5,600.5C 639.155,599.653 638.155,598.487 637.5,597C 647.119,589.548 657.786,587.548 669.5,591C 674.91,594.317 677.91,599.15 678.5,605.5 Z"/></g><g><path style="opacity:1" fill="#f2f5f7" d="M 766.5,589.5 C 775.748,588.075 784.081,590.075 791.5,595.5C 790.788,597.046 789.622,598.046 788,598.5C 781.644,594.752 774.81,593.585 767.5,595C 759.081,600.176 758.414,606.176 765.5,613C 771.718,615.942 778.051,618.609 784.5,621C 794.4,626.37 796.9,634.203 792,644.5C 784.952,651.624 776.452,654.124 766.5,652C 761.03,650.434 756.363,647.601 752.5,643.5C 753.167,642.167 754.167,641.167 755.5,640.5C 764.247,647.868 773.914,649.368 784.5,645C 790.133,638.599 789.799,632.599 783.5,627C 776.167,623.667 768.833,620.333 761.5,617C 751.139,605.702 752.806,596.536 766.5,589.5 Z"/></g><g><path style="opacity:1" fill="#eef2f4" d="M 109.5,590.5 C 111.5,590.5 113.5,590.5 115.5,590.5C 115.667,610.503 115.5,630.503 115,650.5C 113.301,651.406 111.467,651.739 109.5,651.5C 109.5,631.167 109.5,610.833 109.5,590.5 Z"/></g><g><path style="opacity:1" fill="#f5f7f9" d="M 188.5,590.5 C 190.167,590.5 191.833,590.5 193.5,590.5C 193.333,604.837 193.5,619.171 194,633.5C 197.23,648.025 205.396,651.525 218.5,644C 221,641.5 223.5,639 226,636.5C 226.5,621.17 226.667,605.837 226.5,590.5C 228.5,590.5 230.5,590.5 232.5,590.5C 232.5,610.833 232.5,631.167 232.5,651.5C 230.856,651.714 229.356,651.38 228,650.5C 227.667,647.5 227.333,644.5 227,641.5C 220.19,650.156 211.357,653.656 200.5,652C 193.133,649.138 189.299,643.638 189,635.5C 188.5,620.504 188.333,605.504 188.5,590.5 Z"/></g><g><path style="opacity:1" fill="#c8d6dd" d="M 574.5,590.5 C 574.5,610.5 574.5,630.5 574.5,650.5C 575.833,650.5 577.167,650.5 578.5,650.5C 578.5,630.5 578.5,610.5 578.5,590.5C 579.497,610.66 579.83,630.993 579.5,651.5C 577.5,651.5 575.5,651.5 573.5,651.5C 573.17,630.993 573.503,610.66 574.5,590.5 Z"/></g><g><path style="opacity:1" fill="#fefffe" d="M 574.5,590.5 C 575.833,590.5 577.167,590.5 578.5,590.5C 578.5,610.5 578.5,630.5 578.5,650.5C 577.167,650.5 575.833,650.5 574.5,650.5C 574.5,630.5 574.5,610.5 574.5,590.5 Z"/></g><g><path style="opacity:1" fill="#fefffe" d="M 735.5,590.5 C 735.5,610.5 735.5,630.5 735.5,650.5C 733.833,650.5 732.167,650.5 730.5,650.5C 730.5,630.5 730.5,610.5 730.5,590.5C 732.167,590.5 733.833,590.5 735.5,590.5 Z"/></g><g><path style="opacity:1" fill="#c5d4dc" d="M 735.5,590.5 C 736.497,610.66 736.83,630.993 736.5,651.5C 734.265,651.795 732.265,651.461 730.5,650.5C 732.167,650.5 733.833,650.5 735.5,650.5C 735.5,630.5 735.5,610.5 735.5,590.5 Z"/></g><g><path style="opacity:1" fill="#2a637e" d="M 525.5,594.5 C 538.787,592.72 546.621,598.387 549,611.5C 551.321,624.07 548.154,634.903 539.5,644C 529.407,649.356 520.074,648.19 511.5,640.5C 510.167,628.167 510.167,615.833 511.5,603.5C 515.691,599.62 520.358,596.62 525.5,594.5 Z"/></g><g><path style="opacity:1" fill="#628ba0" d="M 483.5,610.5 C 484.496,623.99 484.829,637.656 484.5,651.5C 482.585,651.784 480.919,651.451 479.5,650.5C 480.833,650.5 482.167,650.5 483.5,650.5C 483.5,637.167 483.5,623.833 483.5,610.5 Z"/></g><g><path style="opacity:1" fill="#bfd0d8" d="M 678.5,605.5 C 679.496,620.658 679.83,635.991 679.5,651.5C 677.585,651.784 675.919,651.451 674.5,650.5C 675.833,650.5 677.167,650.5 678.5,650.5C 678.5,635.5 678.5,620.5 678.5,605.5 Z"/></g><g><path style="opacity:1" fill="#82a2b3" d="M 477.5,606.5 C 478.152,607.449 478.486,608.615 478.5,610C 478.392,611.681 477.725,612.848 476.5,613.5C 477.369,611.283 477.702,608.95 477.5,606.5 Z"/></g><g><path style="opacity:1" fill="#2b637e" d="M 287.5,617.5 C 288.5,617.5 289.5,617.5 290.5,617.5C 290.666,624.508 290.5,631.508 290,638.5C 284.359,643.814 277.693,646.814 270,647.5C 257.255,645.799 253.921,639.132 260,627.5C 262.564,625.273 265.397,623.439 268.5,622C 274.889,620.135 281.222,618.635 287.5,617.5 Z"/></g><g><path style="opacity:1" fill="#5f899e" d="M 473.5,618.5 C 474.919,617.549 476.585,617.216 478.5,617.5C 478.825,624.687 478.491,631.687 477.5,638.5C 477.5,631.833 477.5,625.167 477.5,618.5C 476.167,618.5 474.833,618.5 473.5,618.5 Z"/></g><g><path style="opacity:1" fill="#2a637e" d="M 670.5,617.5 C 671.5,617.5 672.5,617.5 673.5,617.5C 673.666,624.508 673.5,631.508 673,638.5C 665.968,645.733 657.468,648.566 647.5,647C 640.661,642.815 638.828,636.982 642,629.5C 644.179,626.989 646.679,624.822 649.5,623C 656.498,620.707 663.498,618.874 670.5,617.5 Z"/></g><g><path style="opacity:1" fill="#2a637e" d="M 473.5,618.5 C 474.833,618.5 476.167,618.5 477.5,618.5C 477.5,625.167 477.5,631.833 477.5,638.5C 470.582,645.417 462.248,648.251 452.5,647C 449.417,646.214 447.251,644.381 446,641.5C 444.241,634.991 445.741,629.491 450.5,625C 457.629,620.901 465.296,618.734 473.5,618.5 Z"/></g><g><path style="opacity:1" fill="#2b647f" d="M 317.5,641.5 C 316.884,649.551 320.551,653.218 328.5,652.5C 328.5,650.833 328.5,649.167 328.5,647.5C 324.092,647.938 322.425,645.938 323.5,641.5C 352.475,645.098 363.308,661.098 356,689.5C 345.384,706.493 330.218,712.326 310.5,707C 291.828,699.157 284.662,685.324 289,665.5C 293.79,652.007 303.29,644.007 317.5,641.5 Z"/></g><g><path style="opacity:1" fill="#5f899e" d="M 512.5,646.5 C 511.833,657.167 511.167,667.833 510.5,678.5C 510.168,667.48 510.501,656.48 511.5,645.5C 512.107,645.624 512.44,645.957 512.5,646.5 Z"/></g></svg>