<svg xmlns="http://www.w3.org/2000/svg" width="256" height="256" viewBox="0 0 100 100"><rect width="100" height="100" rx="20" fill="#0582f8"></rect><path fill="#fff" d="M46.40 36.37L46.40 36.37Q47.12 36.01 48.16 35.74Q49.19 35.47 50.45 35.47L50.45 35.47Q54.23 35.47 55.04 37.81L55.04 37.81Q56.66 42.67 58.10 46.99Q59.54 51.31 60.89 55.31Q62.24 59.32 63.50 63.19Q64.76 67.06 66.02 71.20L66.02 71.20L66.38 71.20Q67.64 65.17 68.90 59.36Q70.16 53.56 71.33 47.66Q72.50 41.77 73.58 35.69Q74.66 29.62 75.65 22.87L75.65 22.87Q76.91 22.24 78.71 22.24L78.71 22.24Q80.42 22.24 81.41 23.00Q82.40 23.77 82.40 25.30L82.40 25.30Q82.40 27.01 81.91 30.52Q81.41 34.03 80.56 38.57Q79.70 43.12 78.58 48.38Q77.45 53.65 76.19 58.73Q74.93 63.82 73.67 68.50Q72.41 73.18 71.24 76.51L71.24 76.51Q70.43 76.95 69.17 77.36Q67.91 77.77 66.29 77.77L66.29 77.77Q64.31 77.77 62.96 77.14Q61.61 76.51 61.16 75.43L61.16 75.43Q60.17 73.09 58.91 69.53Q57.65 65.98 56.26 61.70Q54.86 57.43 53.42 52.79Q51.98 48.16 50.63 43.57L50.63 43.57Q49.28 48.07 47.84 52.84Q46.40 57.61 45.01 62.06Q43.61 66.52 42.26 70.30Q40.91 74.08 39.83 76.59L39.83 76.59Q39.11 77.05 37.85 77.41Q36.59 77.77 34.97 77.77L34.97 77.77Q32.90 77.77 31.64 77.09Q30.38 76.42 29.93 75.43L29.93 75.43Q29.12 73.54 28.09 70.03Q27.05 66.52 25.93 62.06Q24.80 57.61 23.59 52.48Q22.37 47.35 21.25 42.26Q20.12 37.18 19.18 32.45Q18.23 27.73 17.60 23.95L17.60 23.95Q18.23 23.32 19.31 22.78Q20.39 22.24 21.65 22.24L21.65 22.24Q24.80 22.24 25.43 25.57L25.43 25.57Q26.60 31.24 27.68 36.50Q28.76 41.77 29.89 47.21Q31.01 52.66 32.27 58.51Q33.53 64.36 35.06 71.20L35.06 71.20L35.42 71.20Q36.68 67.15 37.85 63.50Q39.02 59.86 40.28 55.90Q41.54 51.94 43.02 47.26Q44.51 42.58 46.40 36.37Z"></path></svg>