<?xml version="1.0" encoding="UTF-8"?>
<!DOCTYPE svg PUBLIC "-//W3C//DTD SVG 1.1//EN" "http://www.w3.org/Graphics/SVG/1.1/DTD/svg11.dtd">
<svg xmlns="http://www.w3.org/2000/svg" version="1.1" width="225px" height="225px" style="shape-rendering:geometricPrecision; text-rendering:geometricPrecision; image-rendering:optimizeQuality; fill-rule:evenodd; clip-rule:evenodd" xmlns:xlink="http://www.w3.org/1999/xlink">
<g><path style="opacity:1" fill="#f6f6f6" d="M -0.5,-0.5 C 74.5,-0.5 149.5,-0.5 224.5,-0.5C 224.5,74.5 224.5,149.5 224.5,224.5C 149.5,224.5 74.5,224.5 -0.5,224.5C -0.5,149.5 -0.5,74.5 -0.5,-0.5 Z"/></g>
<g><path style="opacity:1" fill="#fdfdfd" d="M 103.5,16.5 C 113.518,16.5845 123.518,17.0845 133.5,18C 136.848,19.9687 140.514,20.9687 144.5,21C 148.715,22.8917 152.715,25.2251 156.5,28C 158.473,28.4955 160.473,28.6621 162.5,28.5C 162.5,29.5 162.5,30.5 162.5,31.5C 163.552,31.3505 164.552,31.5172 165.5,32C 170.211,36.3799 175.211,40.3799 180.5,44C 182.647,47.8094 185.147,51.3094 188,54.5C 189.011,55.3366 190.178,55.67 191.5,55.5C 195.52,65.2452 200.02,75.2452 205,85.5C 212.47,118.511 205.97,148.178 185.5,174.5C 154.165,206.618 117.165,215.451 74.5,201C 70.4373,197.468 65.7706,195.301 60.5,194.5C 60.5,193.5 60.5,192.5 60.5,191.5C 58.8333,191.5 57.1667,191.5 55.5,191.5C 55.719,190.325 55.3857,189.325 54.5,188.5C 49.5209,184.689 44.6876,180.689 40,176.5C 38.0784,172.337 35.4118,168.67 32,165.5C 31.5172,164.552 31.3505,163.552 31.5,162.5C 30.5,162.5 29.5,162.5 28.5,162.5C 28.6621,160.473 28.4955,158.473 28,156.5C 25.0005,151.991 22.3338,147.324 20,142.5C 16.2436,124.327 15.4102,105.994 17.5,87.5C 18.5,87.5 19.5,87.5 20.5,87.5C 20.3367,85.1432 20.5034,82.8098 21,80.5C 23.0472,74.6638 25.5472,68.9971 28.5,63.5C 29.5,63.5 30.5,63.5 31.5,63.5C 31.3398,61.8008 31.5065,60.1341 32,58.5C 34.3463,54.5612 36.8463,50.8945 39.5,47.5C 40.675,47.719 41.675,47.3857 42.5,46.5C 47.4934,41.5823 52.4934,36.749 57.5,32C 59.4727,31.5045 61.4727,31.3379 63.5,31.5C 63.5,30.5 63.5,29.5 63.5,28.5C 72.052,25.0128 80.7186,21.5128 89.5,18C 94.3514,17.8255 99.0181,17.3255 103.5,16.5 Z"/></g>
<g><path style="opacity:1" fill="#29a1f7" d="M 156.5,74.5 C 156.082,75.2216 155.416,75.7216 154.5,76C 154.833,76.3333 155.167,76.6667 155.5,77C 145.478,76.3008 144.478,78.6341 152.5,84C 149.722,85.3919 146.722,85.8919 143.5,85.5C 143.5,83.5 143.5,81.5 143.5,79.5C 140.428,79.8174 137.428,79.4841 134.5,78.5C 138.122,77.6747 141.789,77.1747 145.5,77C 145.833,76.6667 146.167,76.3333 146.5,76C 144.805,73.9743 142.638,72.8077 140,72.5C 136.118,73.0955 132.284,73.9289 128.5,75C 130.107,76.7274 131.774,78.5607 133.5,80.5C 132.289,81.7202 132.289,82.8869 133.5,84C 131.408,85.1127 129.075,85.2793 126.5,84.5C 128.1,83.3556 129.767,82.1889 131.5,81C 126.114,77.3002 120.447,73.9668 114.5,71C 111.593,70.2815 108.926,70.7815 106.5,72.5C 104.508,70.6828 102.341,69.0162 100,67.5C 99.5,67.8333 99,68.1667 98.5,68.5C 99.1667,69.1667 99.8333,69.8333 100.5,70.5C 98.4031,71.7479 96.7365,71.2479 95.5,69C 96.418,67.0817 97.918,65.915 100,65.5C 103.307,67.4116 106.807,68.5782 110.5,69C 108.617,66.7436 106.283,65.077 103.5,64C 105.769,63.2419 107.936,63.4086 110,64.5C 111.307,63.2283 112.807,62.2283 114.5,61.5C 115.911,59.9825 115.744,58.6492 114,57.5C 111.141,59.7516 108.475,59.7516 106,57.5C 104.933,58.1905 103.766,58.6905 102.5,59C 103.624,59.2492 104.624,59.7492 105.5,60.5C 104.833,60.8333 104.167,61.1667 103.5,61.5C 101.675,60.3489 99.6746,59.6822 97.5,59.5C 97.5,60.5 97.5,61.5 97.5,62.5C 98.552,62.3505 99.552,62.5172 100.5,63C 99.1279,63.4017 97.7946,63.9017 96.5,64.5C 95.0488,62.4411 93.0488,61.4411 90.5,61.5C 97.0273,56.4997 104.194,52.4997 112,49.5C 127.474,56.8335 142.307,65.1669 156.5,74.5 Z"/></g>
<g><path style="opacity:1" fill="#228eee" d="M 106.5,72.5 C 100.003,75.9141 93.6697,79.5808 87.5,83.5C 86.4019,82.603 86.4019,81.7697 87.5,81C 85.0087,80.3741 85.0087,79.5407 87.5,78.5C 84.6771,73.0783 83.0105,73.4117 82.5,79.5C 80.7231,79.7863 79.0564,80.4529 77.5,81.5C 77.1055,79.6259 75.7722,78.1259 73.5,77C 71.5355,76.376 69.8689,76.876 68.5,78.5C 67.265,77.6602 66.265,76.6602 65.5,75.5C 73.6639,70.5834 81.9972,65.9167 90.5,61.5C 93.0488,61.4411 95.0488,62.4411 96.5,64.5C 97.7946,63.9017 99.1279,63.4017 100.5,63C 99.552,62.5172 98.552,62.3505 97.5,62.5C 97.5,61.5 97.5,60.5 97.5,59.5C 99.6746,59.6822 101.675,60.3489 103.5,61.5C 104.167,61.1667 104.833,60.8333 105.5,60.5C 104.624,59.7492 103.624,59.2492 102.5,59C 103.766,58.6905 104.933,58.1905 106,57.5C 108.475,59.7516 111.141,59.7516 114,57.5C 115.744,58.6492 115.911,59.9825 114.5,61.5C 112.807,62.2283 111.307,63.2283 110,64.5C 107.936,63.4086 105.769,63.2419 103.5,64C 106.283,65.077 108.617,66.7436 110.5,69C 106.807,68.5782 103.307,67.4116 100,65.5C 97.918,65.915 96.418,67.0817 95.5,69C 96.7365,71.2479 98.4031,71.7479 100.5,70.5C 99.8333,69.8333 99.1667,69.1667 98.5,68.5C 99,68.1667 99.5,67.8333 100,67.5C 102.341,69.0162 104.508,70.6828 106.5,72.5 Z"/></g>
<g><path style="opacity:1" fill="#267de6" d="M 87.5,83.5 C 83.2219,85.5534 79.3886,88.22 76,91.5C 75.5001,104.829 75.3334,118.163 75.5,131.5C 74.6693,119.674 74.1693,107.674 74,95.5C 73.6667,106.167 73.3333,116.833 73,127.5C 71.7681,116.315 71.6014,105.149 72.5,94C 72.2517,92.2509 71.2517,91.4176 69.5,91.5C 69.6427,89.7376 69.3094,88.0709 68.5,86.5C 66.7127,85.684 65.0461,84.684 63.5,83.5C 64.4147,82.6721 65.0814,81.6721 65.5,80.5C 64.7745,79.1331 64.1079,77.7997 63.5,76.5C 64.1667,76.1667 64.8333,75.8333 65.5,75.5C 66.265,76.6602 67.265,77.6602 68.5,78.5C 69.8689,76.876 71.5355,76.376 73.5,77C 75.7722,78.1259 77.1055,79.6259 77.5,81.5C 79.0564,80.4529 80.7231,79.7863 82.5,79.5C 83.0105,73.4117 84.6771,73.0783 87.5,78.5C 85.0087,79.5407 85.0087,80.3741 87.5,81C 86.4019,81.7697 86.4019,82.603 87.5,83.5 Z"/></g>
<g><path style="opacity:1" fill="#1267d1" d="M 63.5,76.5 C 64.1079,77.7997 64.7745,79.1331 65.5,80.5C 65.0814,81.6721 64.4147,82.6721 63.5,83.5C 65.0461,84.684 66.7127,85.684 68.5,86.5C 69.3094,88.0709 69.6427,89.7376 69.5,91.5C 69.7929,106.891 69.1262,122.225 67.5,137.5C 66.5,137.5 65.5,137.5 64.5,137.5C 64.5,134.167 64.5,130.833 64.5,127.5C 63.5,127.5 62.5,127.5 61.5,127.5C 60.9603,134.409 61.6269,141.076 63.5,147.5C 61.246,146.876 59.5794,145.543 58.5,143.5C 59.8321,133.188 60.4988,122.522 60.5,111.5C 60.4999,100.661 60.1665,89.9947 59.5,79.5C 60.4363,78.0256 61.7697,77.0256 63.5,76.5 Z"/></g>
<g><path style="opacity:1" fill="#2f9ef6" d="M 156.5,74.5 C 160.582,75.9577 164.082,78.2911 167,81.5C 167.667,101.5 167.667,121.5 167,141.5C 165.52,144.817 163.02,146.817 159.5,147.5C 159.811,146.522 160.478,145.855 161.5,145.5C 162.833,139.5 162.833,133.5 161.5,127.5C 160.67,133.138 160.17,138.804 160,144.5C 159.798,142.744 159.298,141.078 158.5,139.5C 157.571,140.689 157.238,142.022 157.5,143.5C 156.167,143.5 154.833,143.5 153.5,143.5C 153.959,138.96 155.292,134.793 157.5,131C 156.648,124.528 156.314,118.028 156.5,111.5C 155.5,111.5 154.5,111.5 153.5,111.5C 153.869,119.271 153.202,126.938 151.5,134.5C 149.149,136.229 146.482,136.896 143.5,136.5C 145.25,135.527 146.75,134.193 148,132.5C 148.176,119.258 148.676,106.092 149.5,93C 140.666,97.0128 131.999,101.513 123.5,106.5C 122.993,105.141 121.993,104.141 120.5,103.5C 123.027,102.786 125.527,102.12 128,101.5C 128.333,101.833 128.667,102.167 129,102.5C 130.78,99.6966 129.946,97.6966 126.5,96.5C 125.389,97.6113 124.055,98.278 122.5,98.5C 120.374,97.2143 118.041,96.3809 115.5,96C 117.608,95.6401 119.608,94.9734 121.5,94C 119.849,92.3703 118.183,92.5369 116.5,94.5C 113.551,95.3022 110.551,95.6355 107.5,95.5C 113.63,91.5979 119.963,87.9312 126.5,84.5C 129.075,85.2793 131.408,85.1127 133.5,84C 132.289,82.8869 132.289,81.7202 133.5,80.5C 131.774,78.5607 130.107,76.7274 128.5,75C 132.284,73.9289 136.118,73.0955 140,72.5C 142.638,72.8077 144.805,73.9743 146.5,76C 146.167,76.3333 145.833,76.6667 145.5,77C 141.789,77.1747 138.122,77.6747 134.5,78.5C 137.428,79.4841 140.428,79.8174 143.5,79.5C 143.5,81.5 143.5,83.5 143.5,85.5C 146.722,85.8919 149.722,85.3919 152.5,84C 144.478,78.6341 145.478,76.3008 155.5,77C 155.167,76.6667 154.833,76.3333 154.5,76C 155.416,75.7216 156.082,75.2216 156.5,74.5 Z"/></g>
<g><path style="opacity:1" fill="#f8faf8" d="M 126.5,84.5 C 119.963,87.9312 113.63,91.5979 107.5,95.5C 106.29,95.9321 105.29,96.5987 104.5,97.5C 96.988,99.6982 93.988,104.698 95.5,112.5C 95.832,123.187 95.4987,133.854 94.5,144.5C 93.4822,143.807 92.4822,143.141 91.5,142.5C 87.6867,140.092 83.6867,137.925 79.5,136C 77.6156,134.951 76.2823,133.451 75.5,131.5C 75.3334,118.163 75.5001,104.829 76,91.5C 79.3886,88.22 83.2219,85.5534 87.5,83.5C 93.6697,79.5808 100.003,75.9141 106.5,72.5C 108.926,70.7815 111.593,70.2815 114.5,71C 120.447,73.9668 126.114,77.3002 131.5,81C 129.767,82.1889 128.1,83.3556 126.5,84.5 Z"/></g>
<g><path style="opacity:1" fill="#228cf0" d="M 123.5,106.5 C 120.76,108.56 117.76,110.226 114.5,111.5C 115.809,103.48 112.475,98.8134 104.5,97.5C 105.29,96.5987 106.29,95.9321 107.5,95.5C 110.551,95.6355 113.551,95.3022 116.5,94.5C 118.183,92.5369 119.849,92.3703 121.5,94C 119.608,94.9734 117.608,95.6401 115.5,96C 118.041,96.3809 120.374,97.2143 122.5,98.5C 124.055,98.278 125.389,97.6113 126.5,96.5C 129.946,97.6966 130.78,99.6966 129,102.5C 128.667,102.167 128.333,101.833 128,101.5C 125.527,102.12 123.027,102.786 120.5,103.5C 121.993,104.141 122.993,105.141 123.5,106.5 Z"/></g>
<g><path style="opacity:1" fill="#083399" d="M 104.5,97.5 C 112.475,98.8134 115.809,103.48 114.5,111.5C 112.799,112.211 111.799,113.545 111.5,115.5C 107.132,118.091 102.799,118.091 98.5,115.5C 97.8333,114.167 96.8333,113.167 95.5,112.5C 93.988,104.698 96.988,99.6982 104.5,97.5 Z"/></g>
<g><path style="opacity:1" fill="#fafbf8" d="M 143.5,136.5 C 138.299,139.263 133.299,142.263 128.5,145.5C 123.563,147.637 118.896,150.304 114.5,153.5C 113.186,139.437 113.186,125.437 114.5,111.5C 117.76,110.226 120.76,108.56 123.5,106.5C 131.999,101.513 140.666,97.0128 149.5,93C 148.676,106.092 148.176,119.258 148,132.5C 146.75,134.193 145.25,135.527 143.5,136.5 Z"/></g>
<g><path style="opacity:1" fill="#075ed8" d="M 59.5,79.5 C 60.1665,89.9947 60.4999,100.661 60.5,111.5C 60.4988,122.522 59.8321,133.188 58.5,143.5C 57.3373,122.671 57.1707,101.671 58,80.5C 58.3826,79.944 58.8826,79.6107 59.5,79.5 Z"/></g>
<g><path style="opacity:1" fill="#1362d4" d="M 114.5,111.5 C 113.186,125.437 113.186,139.437 114.5,153.5C 118.896,150.304 123.563,147.637 128.5,145.5C 129.776,146.386 129.776,147.386 128.5,148.5C 126.452,147.674 124.785,148.341 123.5,150.5C 125.007,151.739 126.174,151.405 127,149.5C 127.495,151.473 127.662,153.473 127.5,155.5C 128.822,155.33 129.989,155.663 131,156.5C 131.856,158.868 132.69,161.202 133.5,163.5C 127.253,166.961 120.919,170.461 114.5,174C 111.788,174.826 109.455,174.326 107.5,172.5C 108.5,172.5 109.5,172.5 110.5,172.5C 110.546,169.908 111.546,167.741 113.5,166C 113.167,165.5 112.833,165 112.5,164.5C 110.679,165.728 109.679,167.394 109.5,169.5C 103.225,168.11 97.8917,164.943 93.5,160C 94.9733,159.29 95.6399,158.124 95.5,156.5C 93.1046,157.363 90.7713,157.363 88.5,156.5C 87.0173,153.855 85.1839,151.522 83,149.5C 82.2571,147.559 82.4238,145.726 83.5,144C 82.062,143.781 80.7287,143.281 79.5,142.5C 79.6667,142.167 79.8333,141.833 80,141.5C 81.7849,142.24 83.6183,142.907 85.5,143.5C 86.7902,148.769 90.1236,151.436 95.5,151.5C 93.9022,148.737 92.5689,145.737 91.5,142.5C 92.4822,143.141 93.4822,143.807 94.5,144.5C 95.4987,133.854 95.832,123.187 95.5,112.5C 96.8333,113.167 97.8333,114.167 98.5,115.5C 99.0359,118.846 99.7026,122.18 100.5,125.5C 99.5859,131.459 99.2526,137.459 99.5,143.5C 100.833,143.5 102.167,143.5 103.5,143.5C 104.327,138.099 104.66,132.766 104.5,127.5C 106.124,127.36 107.29,128.027 108,129.5C 108.345,134.262 109.178,138.929 110.5,143.5C 111.498,134.19 111.832,124.857 111.5,115.5C 111.799,113.545 112.799,112.211 114.5,111.5 Z"/></g>
<g><path style="opacity:1" fill="#126fd7" d="M 98.5,115.5 C 102.799,118.091 107.132,118.091 111.5,115.5C 111.832,124.857 111.498,134.19 110.5,143.5C 109.178,138.929 108.345,134.262 108,129.5C 107.29,128.027 106.124,127.36 104.5,127.5C 104.66,132.766 104.327,138.099 103.5,143.5C 102.167,143.5 100.833,143.5 99.5,143.5C 99.2526,137.459 99.5859,131.459 100.5,125.5C 99.7026,122.18 99.0359,118.846 98.5,115.5 Z"/></g>
<g><path style="opacity:1" fill="#1d7de6" d="M 159.5,147.5 C 151.12,153.195 142.454,158.529 133.5,163.5C 132.69,161.202 131.856,158.868 131,156.5C 129.989,155.663 128.822,155.33 127.5,155.5C 127.662,153.473 127.495,151.473 127,149.5C 126.174,151.405 125.007,151.739 123.5,150.5C 124.785,148.341 126.452,147.674 128.5,148.5C 129.776,147.386 129.776,146.386 128.5,145.5C 133.299,142.263 138.299,139.263 143.5,136.5C 146.482,136.896 149.149,136.229 151.5,134.5C 153.202,126.938 153.869,119.271 153.5,111.5C 154.5,111.5 155.5,111.5 156.5,111.5C 156.314,118.028 156.648,124.528 157.5,131C 155.292,134.793 153.959,138.96 153.5,143.5C 154.833,143.5 156.167,143.5 157.5,143.5C 157.238,142.022 157.571,140.689 158.5,139.5C 159.298,141.078 159.798,142.744 160,144.5C 160.17,138.804 160.67,133.138 161.5,127.5C 162.833,133.5 162.833,139.5 161.5,145.5C 160.478,145.855 159.811,146.522 159.5,147.5 Z"/></g>
<g><path style="opacity:1" fill="#1458d1" d="M 69.5,91.5 C 71.2517,91.4176 72.2517,92.2509 72.5,94C 71.6014,105.149 71.7681,116.315 73,127.5C 73.3333,116.833 73.6667,106.167 74,95.5C 74.1693,107.674 74.6693,119.674 75.5,131.5C 76.2823,133.451 77.6156,134.951 79.5,136C 83.6867,137.925 87.6867,140.092 91.5,142.5C 92.5689,145.737 93.9022,148.737 95.5,151.5C 90.1236,151.436 86.7902,148.769 85.5,143.5C 83.6183,142.907 81.7849,142.24 80,141.5C 79.8333,141.833 79.6667,142.167 79.5,142.5C 80.7287,143.281 82.062,143.781 83.5,144C 82.4238,145.726 82.2571,147.559 83,149.5C 85.1839,151.522 87.0173,153.855 88.5,156.5C 90.7713,157.363 93.1046,157.363 95.5,156.5C 95.6399,158.124 94.9733,159.29 93.5,160C 97.8917,164.943 103.225,168.11 109.5,169.5C 109.679,167.394 110.679,165.728 112.5,164.5C 112.833,165 113.167,165.5 113.5,166C 111.546,167.741 110.546,169.908 110.5,172.5C 109.5,172.5 108.5,172.5 107.5,172.5C 92.8333,164.167 78.1667,155.833 63.5,147.5C 61.6269,141.076 60.9603,134.409 61.5,127.5C 62.5,127.5 63.5,127.5 64.5,127.5C 64.5,130.833 64.5,134.167 64.5,137.5C 65.5,137.5 66.5,137.5 67.5,137.5C 69.1262,122.225 69.7929,106.891 69.5,91.5 Z"/></g>
</svg>
