<svg xmlns="http://www.w3.org/2000/svg" xmlns:xlink="http://www.w3.org/1999/xlink" width="225" height="225" version="1.1" style="shape-rendering:geometricPrecision;text-rendering:geometricPrecision;image-rendering:optimizeQuality;fill-rule:evenodd;clip-rule:evenodd"><g><path style="opacity:1" fill="#fff9fa" d="M -0.5,-0.5 C 7.5,-0.5 15.5,-0.5 23.5,-0.5C 11.8333,3.83333 3.83333,11.8333 -0.5,23.5C -0.5,15.5 -0.5,7.5 -0.5,-0.5 Z"/></g><g><path style="opacity:1" fill="#ff2741" d="M 23.5,-0.5 C 81.5,-0.5 139.5,-0.5 197.5,-0.5C 210.879,2.54421 219.879,10.5442 224.5,23.5C 224.5,81.5 224.5,139.5 224.5,197.5C 221.167,212.167 212.167,221.167 197.5,224.5C 139.5,224.5 81.5,224.5 23.5,224.5C 10.5442,219.879 2.54421,210.879 -0.5,197.5C -0.5,139.5 -0.5,81.5 -0.5,23.5C 3.83333,11.8333 11.8333,3.83333 23.5,-0.5 Z"/></g><g><path style="opacity:1" fill="#fff8f8" d="M 197.5,-0.5 C 206.5,-0.5 215.5,-0.5 224.5,-0.5C 224.5,7.5 224.5,15.5 224.5,23.5C 219.879,10.5442 210.879,2.54421 197.5,-0.5 Z"/></g><g><path style="opacity:1" fill="#ff8391" d="M 92.5,79.5 C 96.6829,78.1889 101.016,78.1889 105.5,79.5C 105.376,80.1067 105.043,80.44 104.5,80.5C 100.702,79.5166 96.7016,79.1832 92.5,79.5 Z"/></g><g><path style="opacity:1" fill="#ff7f8d" d="M 156.5,79.5 C 160.634,78.5151 164.968,78.1818 169.5,78.5C 169.5,80.1667 169.5,81.8333 169.5,83.5C 168.566,82.4324 168.232,81.099 168.5,79.5C 164.5,79.5 160.5,79.5 156.5,79.5 Z"/></g><g><path style="opacity:1" fill="#fff9f9" d="M 92.5,79.5 C 96.7016,79.1832 100.702,79.5166 104.5,80.5C 102.833,84.5 101.167,88.5 99.5,92.5C 98.5655,93.5676 98.2322,94.901 98.5,96.5C 102.167,96.5 105.833,96.5 109.5,96.5C 106.514,103.103 103.514,109.769 100.5,116.5C 103.167,117.167 105.833,117.833 108.5,118.5C 106.639,120.888 105.306,123.554 104.5,126.5C 98.8625,127.663 93.1959,127.83 87.5,127C 86.4258,126.261 85.7591,125.261 85.5,124C 87.2541,118.401 89.5875,113.068 92.5,108C 89.8333,107.667 87.1667,107.333 84.5,107C 83.1059,106.044 82.4393,104.711 82.5,103C 85.7397,95.1104 89.073,87.2771 92.5,79.5 Z"/></g><g><path style="opacity:1" fill="snow" d="M 156.5,79.5 C 160.5,79.5 164.5,79.5 168.5,79.5C 168.232,81.099 168.566,82.4324 169.5,83.5C 185.31,82.9863 191.977,90.653 189.5,106.5C 196.128,106.392 200.628,109.392 203,115.5C 203.667,122.5 203.667,129.5 203,136.5C 202.31,139.196 200.81,141.363 198.5,143C 193.618,144.555 188.618,144.888 183.5,144C 182.311,141.122 180.978,138.288 179.5,135.5C 183.377,134.803 187.21,134.136 191,133.5C 191.667,129.5 191.667,125.5 191,121.5C 190.5,121 190,120.5 189.5,120C 182.842,119.5 176.175,119.334 169.5,119.5C 168.507,127.65 168.174,135.983 168.5,144.5C 164.5,144.5 160.5,144.5 156.5,144.5C 156.5,136.167 156.5,127.833 156.5,119.5C 153.038,118.518 149.371,118.185 145.5,118.5C 145.5,114.833 145.5,111.167 145.5,107.5C 149.371,107.815 153.038,107.482 156.5,106.5C 156.5,103.167 156.5,99.8333 156.5,96.5C 154.393,95.5318 152.059,95.1984 149.5,95.5C 149.5,91.8333 149.5,88.1667 149.5,84.5C 152.059,84.8016 154.393,84.4682 156.5,83.5C 156.5,82.1667 156.5,80.8333 156.5,79.5 Z"/></g><g><path style="opacity:1" fill="#fffcfc" d="M 55.5,80.5 C 55.7852,100.527 55.4519,120.527 54.5,140.5C 50.2728,144.536 45.2728,145.536 39.5,143.5C 38.1667,140.833 36.8333,138.167 35.5,135.5C 38.0272,134.786 40.5272,134.12 43,133.5C 43.4999,115.503 43.6666,97.5031 43.5,79.5C 47.7016,79.1832 51.7016,79.5166 55.5,80.5 Z"/></g><g><path style="opacity:1" fill="#ff6370" d="M 55.5,80.5 C 56.6623,99.3289 56.8289,118.329 56,137.5C 55.7679,138.737 55.2679,139.737 54.5,140.5C 55.4519,120.527 55.7852,100.527 55.5,80.5 Z"/></g><g><path style="opacity:1" fill="#ffc6cb" d="M 133.5,96.5 C 135.607,95.5318 137.941,95.1984 140.5,95.5C 140.5,91.8333 140.5,88.1667 140.5,84.5C 131.833,84.5 123.167,84.5 114.5,84.5C 114.5,88.1667 114.5,91.8333 114.5,95.5C 116.735,95.2053 118.735,95.5386 120.5,96.5C 118.167,96.5 115.833,96.5 113.5,96.5C 113.5,92.1667 113.5,87.8333 113.5,83.5C 122.833,83.5 132.167,83.5 141.5,83.5C 141.5,87.8333 141.5,92.1667 141.5,96.5C 138.833,96.5 136.167,96.5 133.5,96.5 Z"/></g><g><path style="opacity:1" fill="#fff9fa" d="M 133.5,96.5 C 133.5,108.5 133.5,120.5 133.5,132.5C 137.5,132.5 141.5,132.5 145.5,132.5C 145.5,136.5 145.5,140.5 145.5,144.5C 131.99,144.829 118.656,144.496 105.5,143.5C 107.119,139.931 108.452,136.264 109.5,132.5C 113.167,132.5 116.833,132.5 120.5,132.5C 120.5,120.5 120.5,108.5 120.5,96.5C 118.735,95.5386 116.735,95.2053 114.5,95.5C 114.5,91.8333 114.5,88.1667 114.5,84.5C 123.167,84.5 131.833,84.5 140.5,84.5C 140.5,88.1667 140.5,91.8333 140.5,95.5C 137.941,95.1984 135.607,95.5318 133.5,96.5 Z"/></g><g><path style="opacity:1" fill="#ffbec3" d="M 156.5,83.5 C 154.393,84.4682 152.059,84.8016 149.5,84.5C 149.5,88.1667 149.5,91.8333 149.5,95.5C 152.059,95.1984 154.393,95.5318 156.5,96.5C 153.833,96.5 151.167,96.5 148.5,96.5C 148.5,92.1667 148.5,87.8333 148.5,83.5C 151.167,83.5 153.833,83.5 156.5,83.5 Z"/></g><g><path style="opacity:1" fill="#fff7f7" d="M 194.5,83.5 C 199.42,82.7843 202.42,84.7843 203.5,89.5C 203.152,91.6967 202.152,93.53 200.5,95C 197.518,95.498 194.518,95.6646 191.5,95.5C 190.769,90.9275 191.769,86.9275 194.5,83.5 Z"/></g><g><path style="opacity:1" fill="#ff9fa9" d="M 23.5,96.5 C 27.2984,95.5166 31.2984,95.1832 35.5,95.5C 35.7845,97.4147 35.4511,99.0813 34.5,100.5C 34.5,99.1667 34.5,97.8333 34.5,96.5C 30.8333,96.5 27.1667,96.5 23.5,96.5 Z"/></g><g><path style="opacity:1" fill="#ff9fa8" d="M 76.5,102.5 C 75.5386,100.735 75.2053,98.7354 75.5,96.5C 71.8333,96.5 68.1667,96.5 64.5,96.5C 64.5,97.8333 64.5,99.1667 64.5,100.5C 63.5489,99.0813 63.2155,97.4147 63.5,95.5C 67.8333,95.5 72.1667,95.5 76.5,95.5C 76.5,97.8333 76.5,100.167 76.5,102.5 Z"/></g><g><path style="opacity:1" fill="#ff959f" d="M 99.5,92.5 C 99.5,93.5 99.5,94.5 99.5,95.5C 103.042,95.1872 106.375,95.5206 109.5,96.5C 105.833,96.5 102.167,96.5 98.5,96.5C 98.2322,94.901 98.5655,93.5676 99.5,92.5 Z"/></g><g><path style="opacity:1" fill="#fff9f9" d="M 23.5,96.5 C 27.1667,96.5 30.8333,96.5 34.5,96.5C 34.5,97.8333 34.5,99.1667 34.5,100.5C 34.0488,109.865 33.2155,119.198 32,128.5C 30.9265,132.319 29.0932,135.652 26.5,138.5C 24.1214,134.375 22.1214,130.042 20.5,125.5C 21.3638,115.676 22.3638,106.01 23.5,96.5 Z"/></g><g><path style="opacity:1" fill="#fff9f9" d="M 76.5,102.5 C 77.1468,109.991 77.8135,117.491 78.5,125C 77.325,129.867 75.325,134.367 72.5,138.5C 70.5152,136.543 69.0152,134.21 68,131.5C 65.8438,121.283 64.6771,110.949 64.5,100.5C 64.5,99.1667 64.5,97.8333 64.5,96.5C 68.1667,96.5 71.8333,96.5 75.5,96.5C 75.2053,98.7354 75.5386,100.735 76.5,102.5 Z"/></g><g><path style="opacity:1" fill="#ff3446" d="M 169.5,96.5 C 172.167,96.5 174.833,96.5 177.5,96.5C 177.5,99.8333 177.5,103.167 177.5,106.5C 174.833,106.5 172.167,106.5 169.5,106.5C 169.5,103.167 169.5,99.8333 169.5,96.5 Z"/></g><g><path style="opacity:1" fill="#ffd4d7" d="M 156.5,106.5 C 153.038,107.482 149.371,107.815 145.5,107.5C 145.5,111.167 145.5,114.833 145.5,118.5C 149.371,118.185 153.038,118.518 156.5,119.5C 152.5,119.5 148.5,119.5 144.5,119.5C 144.5,115.167 144.5,110.833 144.5,106.5C 148.5,106.5 152.5,106.5 156.5,106.5 Z"/></g><g><path style="opacity:1" fill="#ffa0a8" d="M 169.5,119.5 C 169.5,128.167 169.5,136.833 169.5,145.5C 164.968,145.818 160.634,145.485 156.5,144.5C 160.5,144.5 164.5,144.5 168.5,144.5C 168.174,135.983 168.507,127.65 169.5,119.5 Z"/></g><g><path style="opacity:1" fill="#fffbfb" d="M 87.5,132.5 C 92.5,133.167 97.5,133.833 102.5,134.5C 101.453,137.596 100.12,140.596 98.5,143.5C 92.2015,144.496 85.8682,144.83 79.5,144.5C 80.0351,140.563 81.3685,136.896 83.5,133.5C 84.6888,132.571 86.0222,132.238 87.5,132.5 Z"/></g><g><path style="opacity:1" fill="#ffc3ca" d="M 87.5,132.5 C 92.8746,132.172 98.2079,132.505 103.5,133.5C 103.376,134.107 103.043,134.44 102.5,134.5C 97.5,133.833 92.5,133.167 87.5,132.5 Z"/></g><g><path style="opacity:1" fill="#ff8291" d="M 105.5,143.5 C 118.656,144.496 131.99,144.829 145.5,144.5C 131.994,145.826 118.328,145.826 104.5,144.5C 104.624,143.893 104.957,143.56 105.5,143.5 Z"/></g><g><path style="opacity:1" fill="#fff8f8" d="M -0.5,197.5 C 2.54421,210.879 10.5442,219.879 23.5,224.5C 15.5,224.5 7.5,224.5 -0.5,224.5C -0.5,215.5 -0.5,206.5 -0.5,197.5 Z"/></g><g><path style="opacity:1" fill="#fff6f7" d="M 224.5,197.5 C 224.5,206.5 224.5,215.5 224.5,224.5C 215.5,224.5 206.5,224.5 197.5,224.5C 212.167,221.167 221.167,212.167 224.5,197.5 Z"/></g></svg>