<?xml version="1.0" encoding="UTF-8"?>
<!DOCTYPE svg PUBLIC "-//W3C//DTD SVG 1.1//EN" "http://www.w3.org/Graphics/SVG/1.1/DTD/svg11.dtd">
<svg xmlns="http://www.w3.org/2000/svg" version="1.1" width="300px" height="300px" style="shape-rendering:geometricPrecision; text-rendering:geometricPrecision; image-rendering:optimizeQuality; fill-rule:evenodd; clip-rule:evenodd" xmlns:xlink="http://www.w3.org/1999/xlink">
<g><path style="opacity:0.998" fill="#cae9ee" d="M 144.5,-0.5 C 148.833,-0.5 153.167,-0.5 157.5,-0.5C 161.5,0.166667 165.5,0.833333 169.5,1.5C 166.075,1.36682 165.742,2.03349 168.5,3.5C 187.931,10.6512 200.264,24.3179 205.5,44.5C 180.003,30.9217 155.003,16.5884 130.5,1.5C 135.269,0.882898 139.936,0.216231 144.5,-0.5 Z"/></g>
<g><path style="opacity:0.998" fill="#cdebeb" d="M 130.5,1.5 C 155.003,16.5884 180.003,30.9217 205.5,44.5C 209.852,63.4289 205.852,80.4289 193.5,95.5C 192.448,95.6495 191.448,95.4828 190.5,95C 149.399,70.8101 108.399,47.3101 67.5,24.5C 86.4448,11.5418 107.445,3.87513 130.5,1.5 Z"/></g>
<g><path style="opacity:1" fill="#84cff6" d="M 169.5,1.5 C 173.618,1.53041 177.618,2.19707 181.5,3.5C 209.907,12.2433 231.907,29.2433 247.5,54.5C 247.833,55.1667 248.167,55.8333 248.5,56.5C 237.833,51.8333 227.167,47.1667 216.5,42.5C 206.439,22.098 190.439,9.09801 168.5,3.5C 165.742,2.03349 166.075,1.36682 169.5,1.5 Z"/></g>
<g><path style="opacity:1" fill="#fefefe" d="M 168.5,3.5 C 190.439,9.09801 206.439,22.098 216.5,42.5C 220.449,50.0154 222.782,58.0154 223.5,66.5C 223.632,75.1911 223.299,83.8577 222.5,92.5C 220.102,99.6744 217.102,106.674 213.5,113.5C 208.613,120.729 202.946,127.396 196.5,133.5C 188.536,138.648 180.203,142.981 171.5,146.5C 160.65,148.836 149.65,150.002 138.5,150C 135.258,150.406 132.258,151.239 129.5,152.5C 128.041,152.433 126.708,152.766 125.5,153.5C 125.5,152.5 125.5,151.5 125.5,150.5C 133.094,129.252 148.094,116.585 170.5,112.5C 179.598,108.73 187.265,103.063 193.5,95.5C 205.852,80.4289 209.852,63.4289 205.5,44.5C 200.264,24.3179 187.931,10.6512 168.5,3.5 Z"/></g>
<g><path style="opacity:1" fill="#cfece8" d="M 67.5,24.5 C 108.399,47.3101 149.399,70.8101 190.5,95C 191.448,95.4828 192.448,95.6495 193.5,95.5C 187.265,103.063 179.598,108.73 170.5,112.5C 129.664,88.2477 88.6643,64.2477 47.5,40.5C 53.2764,34.0572 59.9431,28.7239 67.5,24.5 Z"/></g>
<g><path style="opacity:0.998" fill="#53b1f2" d="M 181.5,3.5 C 218.118,11.4626 247.452,30.4626 269.5,60.5C 270.292,61.9669 270.292,63.3002 269.5,64.5C 262.145,61.1548 254.812,57.8215 247.5,54.5C 231.907,29.2433 209.907,12.2433 181.5,3.5 Z"/></g>
<g><path style="opacity:0.999" fill="#d2eee5" d="M 47.5,40.5 C 88.6643,64.2477 129.664,88.2477 170.5,112.5C 148.094,116.585 133.094,129.252 125.5,150.5C 105.833,139.167 86.1667,127.833 66.5,116.5C 67.8333,114.5 69.1667,112.5 70.5,110.5C 74.0141,107.639 76.3475,103.973 77.5,99.5C 79.3978,94.4724 79.7311,89.4724 78.5,84.5C 78.5848,81.3511 77.5848,78.6845 75.5,76.5C 74.1486,72.4584 71.8152,69.1251 68.5,66.5C 52.7496,55.0212 37.7496,56.0212 23.5,69.5C 29.9974,58.6619 37.9974,48.9953 47.5,40.5 Z"/></g>
<g><path style="opacity:1" fill="#85d1f0" d="M 216.5,42.5 C 227.167,47.1667 237.833,51.8333 248.5,56.5C 251.184,61.8675 253.85,67.2009 256.5,72.5C 257.656,76.7925 258.656,81.1259 259.5,85.5C 247.889,81.2899 236.555,76.2899 225.5,70.5C 224.828,69.0508 224.161,67.7175 223.5,66.5C 222.782,58.0154 220.449,50.0154 216.5,42.5 Z"/></g>
<g><path style="opacity:0.991" fill="#53b3ea" d="M 247.5,54.5 C 254.812,57.8215 262.145,61.1548 269.5,64.5C 270.292,63.3002 270.292,61.9669 269.5,60.5C 275.419,67.3253 280.086,74.9919 283.5,83.5C 282.749,84.5735 281.749,84.7401 280.5,84C 272.427,80.257 264.427,76.4237 256.5,72.5C 253.85,67.2009 251.184,61.8675 248.5,56.5C 248.167,55.8333 247.833,55.1667 247.5,54.5 Z"/></g>
<g><path style="opacity:1" fill="#62ce78" d="M 68.5,66.5 C 52.474,70.451 36.1407,73.451 19.5,75.5C 20.4746,73.2048 21.8079,71.2048 23.5,69.5C 37.7496,56.0212 52.7496,55.0212 68.5,66.5 Z"/></g>
<g><path style="opacity:1" fill="#62cd84" d="M 68.5,66.5 C 71.8152,69.1251 74.1486,72.4584 75.5,76.5C 75.3893,77.1174 75.056,77.6174 74.5,78C 54.5073,81.6098 34.5073,85.1098 14.5,88.5C 14.5,87.5 14.5,86.5 14.5,85.5C 15.6417,81.8832 17.3084,78.5498 19.5,75.5C 36.1407,73.451 52.474,70.451 68.5,66.5 Z"/></g>
<g><path style="opacity:0.995" fill="#54b6e3" d="M 256.5,72.5 C 264.427,76.4237 272.427,80.257 280.5,84C 281.749,84.7401 282.749,84.5735 283.5,83.5C 287.067,90.182 290.067,97.182 292.5,104.5C 281.86,99.514 271.193,94.514 260.5,89.5C 259.566,88.4324 259.232,87.099 259.5,85.5C 258.656,81.1259 257.656,76.7925 256.5,72.5 Z"/></g>
<g><path style="opacity:1" fill="#8ad5e9" d="M 223.5,66.5 C 224.161,67.7175 224.828,69.0508 225.5,70.5C 236.555,76.2899 247.889,81.2899 259.5,85.5C 259.232,87.099 259.566,88.4324 260.5,89.5C 261.207,92.7861 261.54,96.1194 261.5,99.5C 261.5,103.167 261.5,106.833 261.5,110.5C 248.376,104.771 235.376,98.7712 222.5,92.5C 223.299,83.8577 223.632,75.1911 223.5,66.5 Z"/></g>
<g><path style="opacity:1" fill="#62cd90" d="M 75.5,76.5 C 77.5848,78.6845 78.5848,81.3511 78.5,84.5C 78.5,86.5 78.5,88.5 78.5,90.5C 55.1656,94.667 31.8322,98.5003 8.5,102C 9.38017,100.644 9.71351,99.1439 9.5,97.5C 10.6546,93.2025 12.3213,89.2025 14.5,85.5C 14.5,86.5 14.5,87.5 14.5,88.5C 34.5073,85.1098 54.5073,81.6098 74.5,78C 75.056,77.6174 75.3893,77.1174 75.5,76.5 Z"/></g>
<g><path style="opacity:1" fill="#63cc99" d="M 78.5,84.5 C 79.7311,89.4724 79.3978,94.4724 77.5,99.5C 53.8151,103.704 30.1484,108.037 6.5,112.5C 5.70245,112.043 5.36912,111.376 5.5,110.5C 6.07772,105.835 7.41105,101.501 9.5,97.5C 9.71351,99.1439 9.38017,100.644 8.5,102C 31.8322,98.5003 55.1656,94.667 78.5,90.5C 78.5,88.5 78.5,86.5 78.5,84.5 Z"/></g>
<g><path style="opacity:0.995" fill="#55b8dd" d="M 260.5,89.5 C 271.193,94.514 281.86,99.514 292.5,104.5C 293.815,109.095 294.815,113.761 295.5,118.5C 295.631,119.239 295.464,119.906 295,120.5C 284.576,115.372 274.076,110.372 263.5,105.5C 262.831,103.369 262.165,101.369 261.5,99.5C 261.54,96.1194 261.207,92.7861 260.5,89.5 Z"/></g>
<g><path style="opacity:1" fill="#8bd7e3" d="M 222.5,92.5 C 235.376,98.7712 248.376,104.771 261.5,110.5C 261.5,113.833 261.5,117.167 261.5,120.5C 261.167,123.167 260.833,125.833 260.5,128.5C 259.833,130.833 259.167,133.167 258.5,135.5C 243.218,128.53 228.218,121.197 213.5,113.5C 217.102,106.674 220.102,99.6744 222.5,92.5 Z"/></g>
<g><path style="opacity:0.999" fill="#62cc9f" d="M 77.5,99.5 C 76.3475,103.973 74.0141,107.639 70.5,110.5C 47.8298,115.057 25.1632,118.724 2.5,121.5C 3.13398,117.627 4.13398,113.961 5.5,110.5C 5.36912,111.376 5.70245,112.043 6.5,112.5C 30.1484,108.037 53.8151,103.704 77.5,99.5 Z"/></g>
<g><path style="opacity:1" fill="#57bbd7" d="M 261.5,99.5 C 262.165,101.369 262.831,103.369 263.5,105.5C 274.076,110.372 284.576,115.372 295,120.5C 295.464,119.906 295.631,119.239 295.5,118.5C 296.951,123.959 297.951,129.626 298.5,135.5C 297.85,135.804 297.183,136.137 296.5,136.5C 284.931,130.881 273.264,125.548 261.5,120.5C 261.5,117.167 261.5,113.833 261.5,110.5C 261.5,106.833 261.5,103.167 261.5,99.5 Z"/></g>
<g><path style="opacity:1" fill="#62cba5" d="M 70.5,110.5 C 69.1667,112.5 67.8333,114.5 66.5,116.5C 63.5,119.833 60.5,123.167 57.5,126.5C 38.5272,129.94 19.5272,133.273 0.5,136.5C 0.980463,131.47 1.64713,126.47 2.5,121.5C 25.1632,118.724 47.8298,115.057 70.5,110.5 Z"/></g>
<g><path style="opacity:1" fill="#8ed9dd" d="M 213.5,113.5 C 228.218,121.197 243.218,128.53 258.5,135.5C 257.833,138.833 257.167,142.167 256.5,145.5C 254.324,150.008 252.324,154.675 250.5,159.5C 250.167,159.5 249.833,159.5 249.5,159.5C 232.39,150.113 214.723,141.446 196.5,133.5C 202.946,127.396 208.613,120.729 213.5,113.5 Z"/></g>
<g><path style="opacity:1" fill="#d5f0e1" d="M 66.5,116.5 C 86.1667,127.833 105.833,139.167 125.5,150.5C 125.5,151.5 125.5,152.5 125.5,153.5C 124.508,153.328 123.842,153.662 123.5,154.5C 114.691,157.399 107.024,162.066 100.5,168.5C 96.4729,171.86 92.8062,175.527 89.5,179.5C 74.7107,170.693 59.7107,162.36 44.5,154.5C 47.7723,144.625 52.1057,135.292 57.5,126.5C 60.5,123.167 63.5,119.833 66.5,116.5 Z"/></g>
<g><path style="opacity:0.997" fill="#58bdd1" d="M 261.5,120.5 C 273.264,125.548 284.931,130.881 296.5,136.5C 297.183,136.137 297.85,135.804 298.5,135.5C 298.19,138.713 298.523,141.713 299.5,144.5C 299.5,146.833 299.5,149.167 299.5,151.5C 287.204,144.685 274.537,138.352 261.5,132.5C 260.571,131.311 260.238,129.978 260.5,128.5C 260.833,125.833 261.167,123.167 261.5,120.5 Z"/></g>
<g><path style="opacity:0.998" fill="#63cbac" d="M 57.5,126.5 C 52.1057,135.292 47.7723,144.625 44.5,154.5C 43.0966,158.381 42.0966,162.381 41.5,166.5C 28.2209,168.431 15.2209,171.097 2.5,174.5C 1.19578,167.873 0.195784,161.206 -0.5,154.5C -0.5,151.5 -0.5,148.5 -0.5,145.5C 0.476669,142.713 0.810002,139.713 0.5,136.5C 19.5272,133.273 38.5272,129.94 57.5,126.5 Z"/></g>
<g><path style="opacity:0.997" fill="#5abfcb" d="M 260.5,128.5 C 260.238,129.978 260.571,131.311 261.5,132.5C 274.537,138.352 287.204,144.685 299.5,151.5C 299.5,152.5 299.5,153.5 299.5,154.5C 298.517,158.298 298.183,162.298 298.5,166.5C 284.628,160.9 270.962,154.733 257.5,148C 256.748,147.329 256.414,146.496 256.5,145.5C 257.167,142.167 257.833,138.833 258.5,135.5C 259.167,133.167 259.833,130.833 260.5,128.5 Z"/></g>
<g><path style="opacity:1" fill="#91dcd7" d="M 196.5,133.5 C 214.723,141.446 232.39,150.113 249.5,159.5C 247.678,164.477 245.345,169.143 242.5,173.5C 241.167,174.833 239.833,176.167 238.5,177.5C 215.749,167.956 193.416,157.623 171.5,146.5C 180.203,142.981 188.536,138.648 196.5,133.5 Z"/></g>
<g><path style="opacity:1" fill="#93ded1" d="M 171.5,146.5 C 193.416,157.623 215.749,167.956 238.5,177.5C 236.774,179.228 235.441,181.228 234.5,183.5C 230.46,187.542 226.127,191.209 221.5,194.5C 190.601,181.051 159.935,167.051 129.5,152.5C 132.258,151.239 135.258,150.406 138.5,150C 149.65,150.002 160.65,148.836 171.5,146.5 Z"/></g>
<g><path style="opacity:0.996" fill="#5cc2c4" d="M 256.5,145.5 C 256.414,146.496 256.748,147.329 257.5,148C 270.962,154.733 284.628,160.9 298.5,166.5C 297.379,172.111 296.379,177.777 295.5,183.5C 294.733,182.828 294.066,181.995 293.5,181C 278.726,174.28 264.393,167.113 250.5,159.5C 252.324,154.675 254.324,150.008 256.5,145.5 Z"/></g>
<g><path style="opacity:1" fill="#94dfcb" d="M 129.5,152.5 C 159.935,167.051 190.601,181.051 221.5,194.5C 220.306,195.272 219.306,196.272 218.5,197.5C 215.797,199.181 213.131,200.847 210.5,202.5C 208.287,203.773 205.954,204.773 203.5,205.5C 177.046,193.44 150.713,181.107 124.5,168.5C 124.819,163.637 124.486,158.97 123.5,154.5C 123.842,153.662 124.508,153.328 125.5,153.5C 126.708,152.766 128.041,152.433 129.5,152.5 Z"/></g>
<g><path style="opacity:1" fill="#d7f1de" d="M 44.5,154.5 C 59.7107,162.36 74.7107,170.693 89.5,179.5C 89.1667,180.167 88.8333,180.833 88.5,181.5C 86.347,183.794 84.6803,186.46 83.5,189.5C 81.8946,192.378 80.5612,195.378 79.5,198.5C 77.3897,203.273 76.0563,208.273 75.5,213.5C 75.5,217.833 75.5,222.167 75.5,226.5C 75.1171,233.943 76.4504,240.943 79.5,247.5C 84.0663,263.799 93.3997,276.632 107.5,286C 113.435,289.465 119.435,292.632 125.5,295.5C 125.167,295.5 124.833,295.5 124.5,295.5C 104.542,290.857 87.2089,281.524 72.5,267.5C 68.4718,263.141 64.4718,258.807 60.5,254.5C 58.1942,250.517 55.8609,246.517 53.5,242.5C 51.7381,238.638 49.7381,234.972 47.5,231.5C 46.7837,228.402 45.7837,225.402 44.5,222.5C 43.807,219.059 42.807,215.725 41.5,212.5C 41.4921,209.455 41.1587,206.455 40.5,203.5C 40.1667,200.833 39.8333,198.167 39.5,195.5C 39.5,191.167 39.5,186.833 39.5,182.5C 39.5,180.5 39.5,178.5 39.5,176.5C 40.1667,173.167 40.8333,169.833 41.5,166.5C 42.0966,162.381 43.0966,158.381 44.5,154.5 Z"/></g>
<g><path style="opacity:1" fill="#63cca2" d="M 123.5,154.5 C 124.486,158.97 124.819,163.637 124.5,168.5C 125.5,172.499 126.5,176.499 127.5,180.5C 118.878,175.69 109.878,171.69 100.5,168.5C 107.024,162.066 114.691,157.399 123.5,154.5 Z"/></g>
<g><path style="opacity:0.994" fill="#5ec4be" d="M 249.5,159.5 C 249.833,159.5 250.167,159.5 250.5,159.5C 264.393,167.113 278.726,174.28 293.5,181C 294.066,181.995 294.733,182.828 295.5,183.5C 294.167,187.833 292.833,192.167 291.5,196.5C 275.606,188.055 259.273,180.388 242.5,173.5C 245.345,169.143 247.678,164.477 249.5,159.5 Z"/></g>
<g><path style="opacity:0.997" fill="#62c9b2" d="M 41.5,166.5 C 40.8333,169.833 40.1667,173.167 39.5,176.5C 27.5,178.5 15.5,180.5 3.5,182.5C 2.73465,179.904 2.40132,177.237 2.5,174.5C 15.2209,171.097 28.2209,168.431 41.5,166.5 Z"/></g>
<g><path style="opacity:1" fill="#93dfc4" d="M 124.5,168.5 C 150.713,181.107 177.046,193.44 203.5,205.5C 203.5,205.833 203.5,206.167 203.5,206.5C 199.873,207.321 196.54,208.654 193.5,210.5C 190.833,210.833 188.167,211.167 185.5,211.5C 167.154,202.267 148.487,193.601 129.5,185.5C 129.107,183.716 128.441,182.05 127.5,180.5C 126.5,176.499 125.5,172.499 124.5,168.5 Z"/></g>
<g><path style="opacity:0.998" fill="#5fc6b8" d="M 242.5,173.5 C 259.273,180.388 275.606,188.055 291.5,196.5C 290.442,200.279 289.109,203.946 287.5,207.5C 269.71,199.772 252.043,191.772 234.5,183.5C 235.441,181.228 236.774,179.228 238.5,177.5C 239.833,176.167 241.167,174.833 242.5,173.5 Z"/></g>
<g><path style="opacity:1" fill="#62cc93" d="M 100.5,168.5 C 109.878,171.69 118.878,175.69 127.5,180.5C 128.441,182.05 129.107,183.716 129.5,185.5C 137.71,200.701 150.377,209.701 167.5,212.5C 170.977,213.323 174.644,213.823 178.5,214C 203.38,225.94 228.38,237.607 253.5,249C 255.544,249.498 256.878,250.665 257.5,252.5C 255.833,254.833 253.833,256.833 251.5,258.5C 197.531,232.277 143.198,206.61 88.5,181.5C 88.8333,180.833 89.1667,180.167 89.5,179.5C 92.8062,175.527 96.4729,171.86 100.5,168.5 Z"/></g>
<g><path style="opacity:0.999" fill="#5fc6b8" d="M 39.5,176.5 C 39.5,178.5 39.5,180.5 39.5,182.5C 28.4492,185.679 17.1159,188.013 5.5,189.5C 4.68137,187.228 4.0147,184.894 3.5,182.5C 15.5,180.5 27.5,178.5 39.5,176.5 Z"/></g>
<g><path style="opacity:1" fill="#62cd8c" d="M 88.5,181.5 C 143.198,206.61 197.531,232.277 251.5,258.5C 249.105,261.861 246.105,264.528 242.5,266.5C 242.414,265.504 242.748,264.671 243.5,264C 190.02,239.426 136.687,214.593 83.5,189.5C 84.6803,186.46 86.347,183.794 88.5,181.5 Z"/></g>
<g><path style="opacity:0.995" fill="#60c5be" d="M 39.5,182.5 C 39.5,186.833 39.5,191.167 39.5,195.5C 38.8423,194.602 38.1757,193.602 37.5,192.5C 27.6911,194.408 18.0245,196.408 8.5,198.5C 6.92809,195.785 5.92809,192.785 5.5,189.5C 17.1159,188.013 28.4492,185.679 39.5,182.5 Z"/></g>
<g><path style="opacity:0.999" fill="#61c9b2" d="M 234.5,183.5 C 252.043,191.772 269.71,199.772 287.5,207.5C 285.027,213.779 282.027,219.779 278.5,225.5C 258.783,215.593 238.783,206.259 218.5,197.5C 219.306,196.272 220.306,195.272 221.5,194.5C 226.127,191.209 230.46,187.542 234.5,183.5 Z"/></g>
<g><path style="opacity:1" fill="#92debe" d="M 129.5,185.5 C 148.487,193.601 167.154,202.267 185.5,211.5C 179.591,212.455 173.591,212.789 167.5,212.5C 150.377,209.701 137.71,200.701 129.5,185.5 Z"/></g>
<g><path style="opacity:1" fill="#62cd86" d="M 83.5,189.5 C 136.687,214.593 190.02,239.426 243.5,264C 242.748,264.671 242.414,265.504 242.5,266.5C 240.14,268.853 237.473,270.853 234.5,272.5C 232.49,269.973 229.823,268.139 226.5,267C 177.474,244.153 128.474,221.319 79.5,198.5C 80.5612,195.378 81.8946,192.378 83.5,189.5 Z"/></g>
<g><path style="opacity:0.999" fill="#5dc2c4" d="M 39.5,195.5 C 39.8333,198.167 40.1667,200.833 40.5,203.5C 39.7784,203.082 39.2784,202.416 39,201.5C 30.9047,203.323 22.7381,204.99 14.5,206.5C 13.1508,206.154 11.8175,205.821 10.5,205.5C 9.54483,203.254 8.87816,200.921 8.5,198.5C 18.0245,196.408 27.6911,194.408 37.5,192.5C 38.1757,193.602 38.8423,194.602 39.5,195.5 Z"/></g>
<g><path style="opacity:1" fill="#62cbac" d="M 218.5,197.5 C 238.783,206.259 258.783,215.593 278.5,225.5C 277.066,228.047 275.4,230.381 273.5,232.5C 253.194,221.379 232.194,211.379 210.5,202.5C 213.131,200.847 215.797,199.181 218.5,197.5 Z"/></g>
<g><path style="opacity:1" fill="#62ce80" d="M 79.5,198.5 C 128.474,221.319 177.474,244.153 226.5,267C 229.823,268.139 232.49,269.973 234.5,272.5C 230.705,275.905 226.372,278.571 221.5,280.5C 219.49,277.973 216.823,276.139 213.5,275C 168.046,254.107 122.713,232.94 77.5,211.5C 76.8182,212.243 76.1515,212.909 75.5,213.5C 76.0563,208.273 77.3897,203.273 79.5,198.5 Z"/></g>
<g><path style="opacity:0.993" fill="#5bbfcb" d="M 40.5,203.5 C 41.1587,206.455 41.4921,209.455 41.5,212.5C 33.1219,214.062 24.7886,215.729 16.5,217.5C 13.9899,213.813 11.9899,209.813 10.5,205.5C 11.8175,205.821 13.1508,206.154 14.5,206.5C 22.7381,204.99 30.9047,203.323 39,201.5C 39.2784,202.416 39.7784,203.082 40.5,203.5 Z"/></g>
<g><path style="opacity:1" fill="#62cba5" d="M 210.5,202.5 C 232.194,211.379 253.194,221.379 273.5,232.5C 272.214,235.117 270.547,237.45 268.5,239.5C 268.719,238.325 268.386,237.325 267.5,236.5C 246.076,226.452 224.743,216.452 203.5,206.5C 203.5,206.167 203.5,205.833 203.5,205.5C 205.954,204.773 208.287,203.773 210.5,202.5 Z"/></g>
<g><path style="opacity:0.999" fill="#62cc9f" d="M 203.5,206.5 C 224.743,216.452 246.076,226.452 267.5,236.5C 268.386,237.325 268.719,238.325 268.5,239.5C 267.876,241.754 266.543,243.421 264.5,244.5C 240.924,232.878 217.257,221.545 193.5,210.5C 196.54,208.654 199.873,207.321 203.5,206.5 Z"/></g>
<g><path style="opacity:1" fill="#62cc99" d="M 193.5,210.5 C 217.257,221.545 240.924,232.878 264.5,244.5C 262.883,247.784 260.55,250.451 257.5,252.5C 256.878,250.665 255.544,249.498 253.5,249C 228.38,237.607 203.38,225.94 178.5,214C 174.644,213.823 170.977,213.323 167.5,212.5C 173.591,212.789 179.591,212.455 185.5,211.5C 188.167,211.167 190.833,210.833 193.5,210.5 Z"/></g>
<g><path style="opacity:1" fill="#61ce79" d="M 221.5,280.5 C 216.03,284.233 210.03,286.899 203.5,288.5C 203.611,287.883 203.944,287.383 204.5,287C 161.474,266.819 118.474,246.653 75.5,226.5C 75.5,222.167 75.5,217.833 75.5,213.5C 76.1515,212.909 76.8182,212.243 77.5,211.5C 122.713,232.94 168.046,254.107 213.5,275C 216.823,276.139 219.49,277.973 221.5,280.5 Z"/></g>
<g><path style="opacity:0.993" fill="#59bdd1" d="M 41.5,212.5 C 42.807,215.725 43.807,219.059 44.5,222.5C 38.0223,222.15 31.5223,222.817 25,224.5C 23.5657,224.862 22.3991,225.528 21.5,226.5C 19.4405,223.76 17.7738,220.76 16.5,217.5C 24.7886,215.729 33.1219,214.062 41.5,212.5 Z"/></g>
<g><path style="opacity:1" fill="#58bbd7" d="M 44.5,222.5 C 45.7837,225.402 46.7837,228.402 47.5,231.5C 40.6384,232.472 33.9718,233.806 27.5,235.5C 24.7589,233.025 22.7589,230.025 21.5,226.5C 22.3991,225.528 23.5657,224.862 25,224.5C 31.5223,222.817 38.0223,222.15 44.5,222.5 Z"/></g>
<g><path style="opacity:0.998" fill="#57b9dd" d="M 47.5,231.5 C 49.7381,234.972 51.7381,238.638 53.5,242.5C 47.729,243.221 42.0623,244.387 36.5,246C 37.2524,246.671 37.5858,247.504 37.5,248.5C 33.4427,244.716 30.1094,240.383 27.5,235.5C 33.9718,233.806 40.6384,232.472 47.5,231.5 Z"/></g>
<g><path style="opacity:1" fill="#61ce73" d="M 75.5,226.5 C 118.474,246.653 161.474,266.819 204.5,287C 203.944,287.383 203.611,287.883 203.5,288.5C 196.354,292.208 188.687,294.542 180.5,295.5C 181.953,294.175 181.619,293.342 179.5,293C 146.137,277.902 112.971,262.402 80,246.5C 79.6012,246.728 79.4346,247.062 79.5,247.5C 76.4504,240.943 75.1171,233.943 75.5,226.5 Z"/></g>
<g><path style="opacity:0.997" fill="#55b6e3" d="M 53.5,242.5 C 55.8609,246.517 58.1942,250.517 60.5,254.5C 55.578,254.87 50.9114,255.87 46.5,257.5C 43.1667,254.833 40.1667,251.833 37.5,248.5C 37.5858,247.504 37.2524,246.671 36.5,246C 42.0623,244.387 47.729,243.221 53.5,242.5 Z"/></g>
<g><path style="opacity:1" fill="#62cf6f" d="M 180.5,295.5 C 171.922,297.487 163.255,298.821 154.5,299.5C 151.167,299.5 147.833,299.5 144.5,299.5C 142.393,298.532 140.059,298.198 137.5,298.5C 133.713,297.082 129.713,296.082 125.5,295.5C 119.435,292.632 113.435,289.465 107.5,286C 93.3997,276.632 84.0663,263.799 79.5,247.5C 79.4346,247.062 79.6012,246.728 80,246.5C 112.971,262.402 146.137,277.902 179.5,293C 181.619,293.342 181.953,294.175 180.5,295.5 Z"/></g>
<g><path style="opacity:0.991" fill="#55b4ea" d="M 60.5,254.5 C 64.4718,258.807 68.4718,263.141 72.5,267.5C 69.5131,267.998 66.5131,268.498 63.5,269C 62.944,269.383 62.6107,269.883 62.5,270.5C 58.5444,268.515 54.8777,266.015 51.5,263C 49.6266,261.296 47.9599,259.463 46.5,257.5C 50.9114,255.87 55.578,254.87 60.5,254.5 Z"/></g>
<g><path style="opacity:0.983" fill="#59b3f2" d="M 72.5,267.5 C 87.2089,281.524 104.542,290.857 124.5,295.5C 124.5,295.833 124.5,296.167 124.5,296.5C 101.401,293.274 80.7345,284.607 62.5,270.5C 62.6107,269.883 62.944,269.383 63.5,269C 66.5131,268.498 69.5131,267.998 72.5,267.5 Z"/></g>
<g><path style="opacity:0.804" fill="#8accea" d="M 124.5,295.5 C 124.833,295.5 125.167,295.5 125.5,295.5C 129.713,296.082 133.713,297.082 137.5,298.5C 132.951,298.376 128.618,297.709 124.5,296.5C 124.5,296.167 124.5,295.833 124.5,295.5 Z"/></g>
</svg>
