<svg xmlns="http://www.w3.org/2000/svg" xmlns:xlink="http://www.w3.org/1999/xlink" width="64" height="64" viewBox="0 0 64 64"><g id="surface18277723"><path style="stroke:none;fill-rule:nonzero;fill:#3498db;fill-opacity:1" d="M 61.257812 17.976562 C 60.527344 18.0625 59.398438 18.398438 59.398438 18.398438 C 59.398438 18.398438 43 20.199219 36.199219 20.398438 C 36.398438 21.398438 37 22.199219 37.800781 22.398438 C 39.199219 22.597656 40.199219 22.398438 42.800781 22.398438 C 45.199219 22.199219 47.199219 22.199219 48.398438 22.199219 L 48.398438 32 L 36 32 C 36 32 36.199219 34.398438 38.398438 34.398438 L 48.398438 34.398438 L 48.398438 41.199219 C 48.398438 42.597656 47.398438 43.398438 46 43.398438 C 44.601562 43.398438 43.601562 43.199219 42 43.199219 C 42.199219 43.597656 42.402344 44.597656 43.800781 45.398438 C 44.800781 45.796875 45.398438 46 46.398438 46 C 49.398438 46 51 44.199219 51 41.398438 L 51 34.398438 L 63.199219 34.398438 C 64 34.398438 64 32 63.800781 32.199219 L 50.800781 32.199219 L 50.800781 22.398438 C 51.199219 22.398438 52 22.199219 53 22.199219 C 57.199219 22 60 21.398438 61.800781 21.398438 C 61.800781 21.398438 63 18.601562 61.800781 18 C 61.699219 17.949219 61.5 17.949219 61.257812 17.976562 Z M 6.601562 18 C 6.601562 18 4.199219 18 3.398438 20.199219 C 3.199219 21 1.800781 24.199219 0 27.800781 C 0.601562 27.800781 2.402344 27.601562 3.601562 25.601562 C 3.800781 25 4.402344 24.601562 4.601562 23.800781 L 7.601562 23.800781 C 7.601562 24.800781 7.398438 31 7.398438 31.601562 L 2.199219 31.601562 C 1 31.601562 0.601562 34 0.601562 34 L 7 34 C 6.601562 38.800781 4.199219 42.203125 0 45.601562 C 2 46.203125 4 45.601562 5.199219 44.800781 C 5.199219 44.800781 7.601562 43 8.800781 38.199219 L 13.800781 44 C 13.800781 44 14.601562 41.199219 13.601562 40 C 12.800781 39 11.199219 37.199219 10.199219 36.398438 L 8.800781 37.601562 C 9.199219 36.203125 9.601562 35.398438 9.601562 34 L 16 34 C 16 34 16 31.601562 15.199219 31.601562 L 9.800781 31.601562 C 10 29 10 26 10 23.800781 L 14.800781 23.800781 C 14.800781 23.800781 15 21.601562 14 21.601562 L 5.199219 21.601562 C 5.597656 20.203125 6 19.398438 6.601562 18 Z M 18 22 L 18 44 L 20.398438 44 L 21.199219 46.601562 L 25.398438 44 L 30 44 L 30 22 Z M 58.574219 24.355469 C 58.238281 24.375 57.902344 24.5 57.601562 24.800781 L 54 29.601562 L 56 31 C 58.199219 28.398438 60.601562 25.199219 60.601562 25.199219 C 60.601562 25.199219 59.585938 24.300781 58.574219 24.355469 Z M 20.398438 24.398438 L 27.398438 24.398438 L 27.398438 41.601562 L 25 41.601562 L 22.199219 43.398438 L 21.601562 41.601562 L 20.398438 41.601562 Z M 40.257812 24.695312 C 39.414062 24.640625 38.398438 25.199219 38.398438 25.199219 C 38.398438 25.199219 42.402344 30.800781 42.601562 31 L 44.601562 29.601562 C 44.601562 29.601562 42 26 41 25 C 40.800781 24.800781 40.539062 24.714844 40.257812 24.695312 Z M 40.257812 24.695312"/></g></svg>