<svg xmlns="http://www.w3.org/2000/svg" width="256" height="256" viewBox="0 0 100 100"><rect width="100" height="100" rx="20" fill="#7d6ee7"></rect><path fill="#fff" d="M35.00 27.31L35.00 27.31Q35.60 27.84 36.01 28.59Q36.43 29.34 36.43 30.16L36.43 30.16Q36.43 31.21 36.01 32.04Q35.60 32.86 34.85 33.91L34.85 33.91L10.18 67.74L36.20 67.74Q36.50 68.11 36.73 68.75Q36.95 69.39 36.95 70.21L36.95 70.21Q36.95 71.49 36.31 72.20Q35.68 72.91 34.63 72.91L34.63 72.91L3.95 72.91Q3.35 72.39 2.94 71.64Q2.53 70.89 2.53 70.06L2.53 70.06Q2.53 69.01 2.94 68.19Q3.35 67.36 4.10 66.31L4.10 66.31L28.78 32.49L3.80 32.49Q3.58 32.11 3.31 31.47Q3.05 30.84 3.05 30.01L3.05 30.01Q3.05 28.74 3.69 28.02Q4.33 27.31 5.45 27.31L5.45 27.31L35.00 27.31ZM67.48 38.64L67.48 38.64Q68.08 38.34 68.94 38.11Q69.80 37.89 70.85 37.89L70.85 37.89Q74 37.89 74.68 39.84L74.68 39.84Q76.03 43.89 77.22 47.49Q78.43 51.09 79.55 54.42Q80.68 57.76 81.72 60.99Q82.78 64.21 83.83 67.66L83.83 67.66L84.13 67.66Q85.18 62.64 86.22 57.80Q87.28 52.96 88.25 48.05Q89.22 43.14 90.13 38.07Q91.03 33.01 91.85 27.39L91.85 27.39Q92.90 26.86 94.40 26.86L94.40 26.86Q95.83 26.86 96.65 27.50Q97.47 28.14 97.47 29.41L97.47 29.41Q97.47 30.84 97.06 33.76Q96.65 36.69 95.94 40.47Q95.22 44.26 94.29 48.65Q93.35 53.04 92.30 57.27Q91.25 61.51 90.20 65.41Q89.15 69.31 88.18 72.09L88.18 72.09Q87.50 72.46 86.45 72.80Q85.40 73.14 84.05 73.14L84.05 73.14Q82.40 73.14 81.28 72.61Q80.15 72.09 79.78 71.19L79.78 71.19Q78.95 69.24 77.90 66.27Q76.85 63.31 75.69 59.75Q74.53 56.19 73.33 52.32Q72.13 48.46 71 44.64L71 44.64Q69.88 48.39 68.68 52.36Q67.48 56.34 66.31 60.05Q65.15 63.76 64.03 66.91Q62.90 70.06 62 72.16L62 72.16Q61.40 72.54 60.35 72.84Q59.30 73.14 57.95 73.14L57.95 73.14Q56.23 73.14 55.18 72.57Q54.13 72.01 53.75 71.19L53.75 71.19Q53.08 69.61 52.21 66.69Q51.35 63.76 50.41 60.05Q49.48 56.34 48.46 52.06Q47.45 47.79 46.51 43.55Q45.58 39.31 44.79 35.37Q44.00 31.44 43.48 28.29L43.48 28.29Q44.00 27.76 44.90 27.31Q45.80 26.86 46.85 26.86L46.85 26.86Q49.48 26.86 50 29.64L50 29.64Q50.98 34.36 51.88 38.75Q52.78 43.14 53.71 47.67Q54.65 52.21 55.70 57.09Q56.75 61.96 58.03 67.66L58.03 67.66L58.33 67.66Q59.38 64.29 60.35 61.25Q61.33 58.21 62.38 54.91Q63.43 51.61 64.66 47.71Q65.90 43.81 67.48 38.64Z"></path></svg>