<svg xmlns="http://www.w3.org/2000/svg" width="256" height="256" viewBox="0 0 100 100"><rect width="100" height="100" fill="#7d6ee7" rx="20"/><path fill="#fff" d="M68.31 22.64L68.31 22.64Q69.03 23.27 69.53 24.17Q70.03 25.07 70.03 26.06L70.03 26.06Q70.03 27.32 69.53 28.31Q69.03 29.30 68.14 30.56L68.14 30.56L38.53 71.15L69.75 71.15Q70.11 71.60 70.39 72.36Q70.66 73.13 70.66 74.12L70.66 74.12Q70.66 75.65 69.89 76.50Q69.13 77.36 67.86 77.36L67.86 77.36L31.06 77.36Q30.34 76.73 29.84 75.83Q29.35 74.93 29.35 73.94L29.35 73.94Q29.35 72.68 29.84 71.69Q30.34 70.70 31.24 69.44L31.24 69.44L60.84 28.85L30.88 28.85Q30.61 28.40 30.29 27.63Q29.98 26.87 29.98 25.88L29.98 25.88Q29.98 24.35 30.74 23.50Q31.51 22.64 32.86 22.64L32.86 22.64L68.31 22.64Z"/></svg>