<?xml version="1.0" standalone="no"?><!DOCTYPE svg PUBLIC "-//W3C//DTD SVG 1.1//EN" "http://www.w3.org/Graphics/SVG/1.1/DTD/svg11.dtd"><svg t="1651458978052" class="icon" viewBox="0 0 1024 1024" version="1.1" xmlns="http://www.w3.org/2000/svg" p-id="5826" xmlns:xlink="http://www.w3.org/1999/xlink" width="600" height="600"><defs><style type="text/css"></style></defs><path d="M813.056 232.448L621.568 121.856c-43.008-24.576-113.664-24.576-156.672 0L274.432 232.448c-43.008 24.576-43.008 65.536 0 91.136l191.488 110.592c43.008 24.576 113.664 24.576 156.672 0l190.464-110.592c44.032-25.6 43.008-66.56 0-91.136" fill="#330867" p-id="5827"></path><path d="M274.432 323.584c-43.008-24.576-44.032-65.536 0-91.136l190.464-110.592c43.008-24.576 113.664-24.576 156.672 0l191.488 110.592c43.008 24.576 44.032 65.536 0 91.136L623.616 434.176c-43.008 24.576-113.664 24.576-156.672 0L274.432 323.584m545.792-95.232L628.736 117.76c-47.104-27.648-123.904-27.648-171.008 0L267.264 228.352c-47.104 27.648-47.104 71.68 1.024 99.328l191.488 110.592c47.104 27.648 123.904 27.648 171.008 0L821.248 327.68c47.104-27.648 46.08-71.68-1.024-99.328" fill="#330867" p-id="5828"></path><path d="M890.88 972.8H196.608v-31.744c0-101.376 81.92-183.296 183.296-183.296H706.56c102.4 0 184.32 81.92 184.32 183.296V972.8z" fill="#66C1FF" p-id="5829"></path><path d="M906.24 988.16H181.248v-47.104c0-109.568 89.088-198.656 198.656-198.656H706.56c109.568 0 198.656 89.088 198.656 198.656v47.104z m-694.272-30.72h663.552v-16.384c0-92.16-75.776-167.936-167.936-167.936h-327.68c-92.16 0-167.936 75.776-167.936 167.936v16.384z" fill="#330867" p-id="5830"></path><path d="M746.496 464.896H342.016c-12.288 0-21.504-10.24-21.504-21.504V348.16c0-12.288 10.24-21.504 21.504-21.504h404.48c12.288 0 21.504 10.24 21.504 21.504v95.232c0 11.264-9.216 21.504-21.504 21.504z" fill="#9555B5" p-id="5831"></path><path d="M746.496 480.256H342.016c-20.48 0-36.864-16.384-36.864-36.864V348.16c0-20.48 16.384-36.864 36.864-36.864h404.48c20.48 0 36.864 16.384 36.864 36.864v95.232c0 19.456-16.384 36.864-36.864 36.864zM342.016 340.992c-4.096 0-6.144 3.072-6.144 6.144v95.232c0 4.096 3.072 6.144 6.144 6.144h404.48c4.096 0 6.144-3.072 6.144-6.144V348.16c0-4.096-3.072-6.144-6.144-6.144H342.016z" fill="#330867" p-id="5832"></path><path d="M667.648 790.528l-124.928 71.68-122.88-71.68V618.496h247.808z" fill="#FFE08A" p-id="5833"></path><path d="M542.72 880.64l-138.24-80.896V603.136h278.528v196.608L542.72 880.64z m-107.52-98.304L542.72 844.8l109.568-63.488V633.856H435.2v148.48z" fill="#330867" p-id="5834"></path><path d="M568.32 731.136h-49.152c-77.824 0-141.312-63.488-141.312-141.312V483.328c0-10.24 8.192-18.432 18.432-18.432h293.888c10.24 0 18.432 8.192 18.432 18.432v107.52c1.024 77.824-62.464 140.288-140.288 140.288z" fill="#FFE08A" p-id="5835"></path><path d="M568.32 746.496h-49.152c-86.016 0-156.672-70.656-156.672-156.672V483.328c0-18.432 15.36-33.792 33.792-33.792h293.888c18.432 0 33.792 15.36 33.792 33.792v107.52c1.024 86.016-69.632 155.648-155.648 155.648z m-171.008-266.24c-2.048 0-3.072 1.024-3.072 3.072v107.52C394.24 660.48 450.56 716.8 520.192 716.8h49.152c69.632 0 125.952-56.32 125.952-125.952V483.328c0-2.048-1.024-3.072-3.072-3.072H397.312z" fill="#330867" p-id="5836"></path><path d="M561.152 706.56h-60.416c-7.168 0-13.312-6.144-13.312-13.312 0-7.168 6.144-13.312 13.312-13.312h60.416c7.168 0 13.312 6.144 13.312 13.312 0 7.168-6.144 13.312-13.312 13.312z" fill="#FFE08A" p-id="5837"></path><path d="M561.152 679.936h-60.416c-7.168 0-13.312 6.144-13.312 13.312s6.144 13.312 13.312 13.312h60.416c7.168 0 13.312-6.144 13.312-13.312s-6.144-13.312-13.312-13.312z" fill="#330867" p-id="5838"></path></svg>