<svg xmlns="http://www.w3.org/2000/svg" xmlns:xlink="http://www.w3.org/1999/xlink" width="274" height="270" version="1.1" style="shape-rendering:geometricPrecision;text-rendering:geometricPrecision;image-rendering:optimizeQuality;fill-rule:evenodd;clip-rule:evenodd"><g><path style="opacity:1" fill="#fefefe" d="M -0.5,-0.5 C 90.8333,-0.5 182.167,-0.5 273.5,-0.5C 273.5,89.5 273.5,179.5 273.5,269.5C 182.167,269.5 90.8333,269.5 -0.5,269.5C -0.5,179.5 -0.5,89.5 -0.5,-0.5 Z"/></g><g><path style="opacity:1" fill="#c93b34" d="M 125.5,28.5 C 178.032,25.4968 215.532,47.4968 238,94.5C 252.872,135.599 246.872,173.266 220,207.5C 183.486,244.548 140.986,253.382 92.5,234C 53.1218,212.734 32.7884,179.568 31.5,134.5C 36.4483,75.5618 67.7816,40.2285 125.5,28.5 Z"/></g><g><path style="opacity:1" fill="#fefbfb" d="M 125.5,112.5 C 124.167,112.5 122.833,112.5 121.5,112.5C 121.5,135.833 121.5,159.167 121.5,182.5C 121.249,184.17 120.582,185.67 119.5,187C 116.228,188.608 113.228,190.608 110.5,193C 107.706,193.972 105.706,193.139 104.5,190.5C 104.833,165.491 104.5,140.491 103.5,115.5C 102.893,115.624 102.56,115.957 102.5,116.5C 95.2344,118.101 87.9011,118.934 80.5,119C 78.9929,117.527 78.3262,115.693 78.5,113.5C 78.8064,110.468 79.3064,107.468 80,104.5C 81.3189,102.513 83.1523,101.346 85.5,101C 120.017,95.2595 154.517,89.4261 189,83.5C 191.89,83.5555 193.056,85.0555 192.5,88C 192.127,92.2845 191.294,96.4512 190,100.5C 183.038,102.744 175.871,104.078 168.5,104.5C 168.333,122.836 168.5,141.17 169,159.5C 173.084,169.502 177.584,179.336 182.5,189C 181.899,190.605 180.899,191.938 179.5,193C 174.833,193.667 170.167,193.667 165.5,193C 160.54,184.247 155.706,175.413 151,166.5C 149.704,147.231 149.037,127.898 149,108.5C 141.233,110.035 133.4,111.368 125.5,112.5 Z"/></g><g><path style="opacity:1" fill="#d76c67" d="M 125.5,112.5 C 124.791,113.404 123.791,113.737 122.5,113.5C 122.831,136.673 122.498,159.673 121.5,182.5C 121.5,159.167 121.5,135.833 121.5,112.5C 122.833,112.5 124.167,112.5 125.5,112.5 Z"/></g><g><path style="opacity:1" fill="#f1cfcd" d="M 102.5,116.5 C 102.56,115.957 102.893,115.624 103.5,115.5C 104.5,140.491 104.833,165.491 104.5,190.5C 103.833,165.833 103.167,141.167 102.5,116.5 Z"/></g></svg>