<?xml version="1.0" encoding="utf-8" standalone="no"?>
<!DOCTYPE svg PUBLIC "-//W3C//DTD SVG 1.1//EN"
  "http://www.w3.org/Graphics/SVG/1.1/DTD/svg11.dtd">
<svg xmlns:xlink="http://www.w3.org/1999/xlink" width="634.87645pt" height="380.598281pt" viewBox="0 0 634.87645 380.598281" xmlns="http://www.w3.org/2000/svg" version="1.1">
 <metadata>
  <rdf:RDF xmlns:dc="http://purl.org/dc/elements/1.1/" xmlns:cc="http://creativecommons.org/ns#" xmlns:rdf="http://www.w3.org/1999/02/22-rdf-syntax-ns#">
   <cc:Work>
    <dc:type rdf:resource="http://purl.org/dc/dcmitype/StillImage"/>
    <dc:date>2023-04-18T00:12:24.990595</dc:date>
    <dc:format>image/svg+xml</dc:format>
    <dc:creator>
     <cc:Agent>
      <dc:title>Matplotlib v3.5.2, https://matplotlib.org/</dc:title>
     </cc:Agent>
    </dc:creator>
   </cc:Work>
  </rdf:RDF>
 </metadata>
 <defs>
  <style type="text/css">*{stroke-linejoin: round; stroke-linecap: butt}</style>
 </defs>
 <g id="figure_1">
  <g id="patch_1">
   <path d="M 0 380.598281 
L 634.87645 380.598281 
L 634.87645 0 
L 0 0 
z
" style="fill: #ffffff"/>
  </g>
  <g id="axes_1">
   <g id="patch_2">
    <path d="M 73.27645 353.028281 
L 631.27645 353.028281 
L 631.27645 20.388281 
L 73.27645 20.388281 
z
" style="fill: #ffffff"/>
   </g>
   <g id="matplotlib.axis_1">
    <g id="xtick_1">
     <g id="line2d_1">
      <defs>
       <path id="m17f875a07f" d="M 0 0 
L 0 -3 
" style="stroke: #000000; stroke-width: 0.5"/>
      </defs>
      <g>
       <use xlink:href="#m17f875a07f" x="98.640086" y="353.028281" style="stroke: #000000; stroke-width: 0.5"/>
      </g>
     </g>
     <g id="line2d_2">
      <defs>
       <path id="m1256acd177" d="M 0 0 
L 0 3 
" style="stroke: #000000; stroke-width: 0.5"/>
      </defs>
      <g>
       <use xlink:href="#m1256acd177" x="98.640086" y="20.388281" style="stroke: #000000; stroke-width: 0.5"/>
      </g>
     </g>
     <g id="text_1">
      <!-- 2014 -->
      <g transform="translate(87.518211 363.686094)scale(0.1 -0.1)">
       <defs>
        <path id="ArialUnicodeMS-32" d="M 3231 0 
L 197 0 
Q 197 388 467 784 
Q 738 1181 1478 1778 
Q 1931 2141 2287 2539 
Q 2644 2938 2644 3341 
Q 2644 3688 2398 3914 
Q 2153 4141 1778 4141 
Q 1400 4141 1144 3908 
Q 888 3675 884 3213 
L 306 3278 
Q 359 3922 764 4262 
Q 1169 4603 1791 4603 
Q 2466 4603 2842 4229 
Q 3219 3856 3219 3328 
Q 3219 2888 2901 2436 
Q 2584 1984 1638 1228 
Q 1141 831 978 544 
L 3231 544 
L 3231 0 
z
" transform="scale(0.015625)"/>
        <path id="ArialUnicodeMS-30" d="M 1778 4603 
Q 3272 4603 3272 2259 
Q 3272 1075 2886 498 
Q 2500 -78 1778 -78 
Q 288 -78 288 2259 
Q 288 3444 673 4023 
Q 1059 4603 1778 4603 
z
M 1778 384 
Q 2231 384 2462 823 
Q 2694 1263 2694 2259 
Q 2694 2953 2592 3351 
Q 2491 3750 2286 3945 
Q 2081 4141 1772 4141 
Q 1319 4141 1091 3694 
Q 863 3247 863 2259 
Q 863 1575 966 1175 
Q 1069 775 1272 579 
Q 1475 384 1778 384 
z
" transform="scale(0.015625)"/>
        <path id="ArialUnicodeMS-31" d="M 2400 0 
L 1838 0 
L 1838 3584 
Q 1416 3184 709 2906 
L 709 3450 
Q 1681 3916 2034 4603 
L 2400 4603 
L 2400 0 
z
" transform="scale(0.015625)"/>
        <path id="ArialUnicodeMS-34" d="M 3263 1094 
L 2644 1094 
L 2644 0 
L 2081 0 
L 2081 1094 
L 97 1094 
L 97 1613 
L 2181 4581 
L 2644 4581 
L 2644 1613 
L 3263 1613 
L 3263 1094 
z
M 2081 1613 
L 2081 3681 
L 2069 3681 
L 647 1613 
L 2081 1613 
z
" transform="scale(0.015625)"/>
       </defs>
       <use xlink:href="#ArialUnicodeMS-32"/>
       <use xlink:href="#ArialUnicodeMS-30" x="55.615234"/>
       <use xlink:href="#ArialUnicodeMS-31" x="111.230469"/>
       <use xlink:href="#ArialUnicodeMS-34" x="166.845703"/>
      </g>
     </g>
    </g>
    <g id="xtick_2">
     <g id="line2d_3">
      <g>
       <use xlink:href="#m17f875a07f" x="171.107619" y="353.028281" style="stroke: #000000; stroke-width: 0.5"/>
      </g>
     </g>
     <g id="line2d_4">
      <g>
       <use xlink:href="#m1256acd177" x="171.107619" y="20.388281" style="stroke: #000000; stroke-width: 0.5"/>
      </g>
     </g>
     <g id="text_2">
      <!-- 2015 -->
      <g transform="translate(159.985744 363.686094)scale(0.1 -0.1)">
       <defs>
        <path id="ArialUnicodeMS-35" d="M 1013 2753 
Q 1431 3041 1881 3041 
Q 2453 3041 2878 2636 
Q 3303 2231 3303 1556 
Q 3303 875 2872 398 
Q 2441 -78 1741 -78 
Q 1169 -78 750 245 
Q 331 569 269 1203 
L 856 1247 
Q 928 813 1162 598 
Q 1397 384 1741 384 
Q 2169 384 2434 707 
Q 2700 1031 2700 1503 
Q 2700 1984 2428 2262 
Q 2156 2541 1728 2541 
Q 1188 2541 897 2100 
L 366 2163 
L 813 4519 
L 3084 4519 
L 3084 3975 
L 1259 3975 
L 1013 2753 
z
" transform="scale(0.015625)"/>
       </defs>
       <use xlink:href="#ArialUnicodeMS-32"/>
       <use xlink:href="#ArialUnicodeMS-30" x="55.615234"/>
       <use xlink:href="#ArialUnicodeMS-31" x="111.230469"/>
       <use xlink:href="#ArialUnicodeMS-35" x="166.845703"/>
      </g>
     </g>
    </g>
    <g id="xtick_3">
     <g id="line2d_5">
      <g>
       <use xlink:href="#m17f875a07f" x="243.575151" y="353.028281" style="stroke: #000000; stroke-width: 0.5"/>
      </g>
     </g>
     <g id="line2d_6">
      <g>
       <use xlink:href="#m1256acd177" x="243.575151" y="20.388281" style="stroke: #000000; stroke-width: 0.5"/>
      </g>
     </g>
     <g id="text_3">
      <!-- 2016 -->
      <g transform="translate(232.453276 363.686094)scale(0.1 -0.1)">
       <defs>
        <path id="ArialUnicodeMS-36" d="M 838 2363 
Q 1225 2969 1941 2969 
Q 2503 2969 2897 2553 
Q 3291 2138 3291 1491 
Q 3291 838 2898 380 
Q 2506 -78 1856 -78 
Q 1197 -78 733 409 
Q 269 897 269 2144 
Q 269 3369 689 3986 
Q 1109 4603 1906 4603 
Q 2422 4603 2778 4315 
Q 3134 4028 3213 3463 
L 2650 3413 
Q 2497 4141 1875 4141 
Q 1444 4141 1134 3712 
Q 825 3284 825 2363 
L 838 2363 
z
M 1844 384 
Q 2231 384 2472 696 
Q 2713 1009 2713 1453 
Q 2713 1897 2472 2187 
Q 2231 2478 1825 2478 
Q 1453 2478 1184 2204 
Q 916 1931 916 1484 
Q 916 1028 1180 706 
Q 1444 384 1844 384 
z
" transform="scale(0.015625)"/>
       </defs>
       <use xlink:href="#ArialUnicodeMS-32"/>
       <use xlink:href="#ArialUnicodeMS-30" x="55.615234"/>
       <use xlink:href="#ArialUnicodeMS-31" x="111.230469"/>
       <use xlink:href="#ArialUnicodeMS-36" x="166.845703"/>
      </g>
     </g>
    </g>
    <g id="xtick_4">
     <g id="line2d_7">
      <g>
       <use xlink:href="#m17f875a07f" x="316.042684" y="353.028281" style="stroke: #000000; stroke-width: 0.5"/>
      </g>
     </g>
     <g id="line2d_8">
      <g>
       <use xlink:href="#m1256acd177" x="316.042684" y="20.388281" style="stroke: #000000; stroke-width: 0.5"/>
      </g>
     </g>
     <g id="text_4">
      <!-- 2017 -->
      <g transform="translate(304.920809 363.686094)scale(0.1 -0.1)">
       <defs>
        <path id="ArialUnicodeMS-37" d="M 3272 4084 
Q 2597 3344 2103 2253 
Q 1609 1163 1522 0 
L 947 0 
Q 969 934 1408 2051 
Q 1847 3169 2547 3975 
L 306 3975 
L 306 4519 
L 3272 4519 
L 3272 4084 
z
" transform="scale(0.015625)"/>
       </defs>
       <use xlink:href="#ArialUnicodeMS-32"/>
       <use xlink:href="#ArialUnicodeMS-30" x="55.615234"/>
       <use xlink:href="#ArialUnicodeMS-31" x="111.230469"/>
       <use xlink:href="#ArialUnicodeMS-37" x="166.845703"/>
      </g>
     </g>
    </g>
    <g id="xtick_5">
     <g id="line2d_9">
      <g>
       <use xlink:href="#m17f875a07f" x="388.510216" y="353.028281" style="stroke: #000000; stroke-width: 0.5"/>
      </g>
     </g>
     <g id="line2d_10">
      <g>
       <use xlink:href="#m1256acd177" x="388.510216" y="20.388281" style="stroke: #000000; stroke-width: 0.5"/>
      </g>
     </g>
     <g id="text_5">
      <!-- 2018 -->
      <g transform="translate(377.388341 363.686094)scale(0.1 -0.1)">
       <defs>
        <path id="ArialUnicodeMS-38" d="M 2425 2478 
Q 3284 2203 3284 1306 
Q 3284 716 2862 319 
Q 2441 -78 1778 -78 
Q 1109 -78 689 322 
Q 269 722 269 1325 
Q 269 1759 505 2084 
Q 741 2409 1141 2478 
L 1141 2491 
Q 453 2703 453 3419 
Q 453 3925 815 4264 
Q 1178 4603 1766 4603 
Q 2363 4603 2730 4253 
Q 3097 3903 3097 3406 
Q 3097 2731 2425 2491 
L 2425 2478 
z
M 1778 2700 
Q 2094 2700 2308 2901 
Q 2522 3103 2522 3406 
Q 2522 3716 2305 3928 
Q 2088 4141 1772 4141 
Q 1450 4141 1240 3931 
Q 1031 3722 1031 3438 
Q 1031 3097 1247 2898 
Q 1463 2700 1778 2700 
z
M 1778 384 
Q 2175 384 2440 640 
Q 2706 897 2706 1306 
Q 2706 1716 2432 1978 
Q 2159 2241 1766 2241 
Q 1356 2241 1100 1970 
Q 844 1700 844 1319 
Q 844 922 1108 653 
Q 1372 384 1778 384 
z
" transform="scale(0.015625)"/>
       </defs>
       <use xlink:href="#ArialUnicodeMS-32"/>
       <use xlink:href="#ArialUnicodeMS-30" x="55.615234"/>
       <use xlink:href="#ArialUnicodeMS-31" x="111.230469"/>
       <use xlink:href="#ArialUnicodeMS-38" x="166.845703"/>
      </g>
     </g>
    </g>
    <g id="xtick_6">
     <g id="line2d_11">
      <g>
       <use xlink:href="#m17f875a07f" x="460.977748" y="353.028281" style="stroke: #000000; stroke-width: 0.5"/>
      </g>
     </g>
     <g id="line2d_12">
      <g>
       <use xlink:href="#m1256acd177" x="460.977748" y="20.388281" style="stroke: #000000; stroke-width: 0.5"/>
      </g>
     </g>
     <g id="text_6">
      <!-- 2019 -->
      <g transform="translate(449.855873 363.686094)scale(0.1 -0.1)">
       <defs>
        <path id="ArialUnicodeMS-39" d="M 2713 2156 
Q 2547 1888 2258 1722 
Q 1969 1556 1631 1556 
Q 1066 1556 670 1970 
Q 275 2384 275 3053 
Q 275 3734 678 4168 
Q 1081 4603 1716 4603 
Q 2353 4603 2818 4106 
Q 3284 3609 3284 2388 
Q 3284 1147 2859 534 
Q 2434 -78 1644 -78 
Q 1128 -78 781 205 
Q 434 488 359 1063 
L 897 1106 
Q 1025 384 1656 384 
Q 2175 384 2450 857 
Q 2725 1331 2725 2156 
L 2713 2156 
z
M 1766 2047 
Q 2178 2047 2420 2339 
Q 2663 2631 2663 3078 
Q 2663 3531 2414 3836 
Q 2166 4141 1778 4141 
Q 1388 4141 1119 3817 
Q 850 3494 850 3034 
Q 850 2600 1114 2323 
Q 1378 2047 1766 2047 
z
" transform="scale(0.015625)"/>
       </defs>
       <use xlink:href="#ArialUnicodeMS-32"/>
       <use xlink:href="#ArialUnicodeMS-30" x="55.615234"/>
       <use xlink:href="#ArialUnicodeMS-31" x="111.230469"/>
       <use xlink:href="#ArialUnicodeMS-39" x="166.845703"/>
      </g>
     </g>
    </g>
    <g id="xtick_7">
     <g id="line2d_13">
      <g>
       <use xlink:href="#m17f875a07f" x="533.445281" y="353.028281" style="stroke: #000000; stroke-width: 0.5"/>
      </g>
     </g>
     <g id="line2d_14">
      <g>
       <use xlink:href="#m1256acd177" x="533.445281" y="20.388281" style="stroke: #000000; stroke-width: 0.5"/>
      </g>
     </g>
     <g id="text_7">
      <!-- 2020 -->
      <g transform="translate(522.323406 363.686094)scale(0.1 -0.1)">
       <use xlink:href="#ArialUnicodeMS-32"/>
       <use xlink:href="#ArialUnicodeMS-30" x="55.615234"/>
       <use xlink:href="#ArialUnicodeMS-32" x="111.230469"/>
       <use xlink:href="#ArialUnicodeMS-30" x="166.845703"/>
      </g>
     </g>
    </g>
    <g id="xtick_8">
     <g id="line2d_15">
      <g>
       <use xlink:href="#m17f875a07f" x="605.912813" y="353.028281" style="stroke: #000000; stroke-width: 0.5"/>
      </g>
     </g>
     <g id="line2d_16">
      <g>
       <use xlink:href="#m1256acd177" x="605.912813" y="20.388281" style="stroke: #000000; stroke-width: 0.5"/>
      </g>
     </g>
     <g id="text_8">
      <!-- 2021 -->
      <g transform="translate(594.790938 363.686094)scale(0.1 -0.1)">
       <use xlink:href="#ArialUnicodeMS-32"/>
       <use xlink:href="#ArialUnicodeMS-30" x="55.615234"/>
       <use xlink:href="#ArialUnicodeMS-32" x="111.230469"/>
       <use xlink:href="#ArialUnicodeMS-31" x="166.845703"/>
      </g>
     </g>
    </g>
    <g id="xtick_9">
     <g id="line2d_17">
      <defs>
       <path id="m54b4436bef" d="M 0 0 
L 0 -1.5 
" style="stroke: #000000; stroke-width: 0.5"/>
      </defs>
      <g>
       <use xlink:href="#m54b4436bef" x="84.14658" y="353.028281" style="stroke: #000000; stroke-width: 0.5"/>
      </g>
     </g>
     <g id="line2d_18">
      <defs>
       <path id="m8de4c46815" d="M 0 0 
L 0 1.5 
" style="stroke: #000000; stroke-width: 0.5"/>
      </defs>
      <g>
       <use xlink:href="#m8de4c46815" x="84.14658" y="20.388281" style="stroke: #000000; stroke-width: 0.5"/>
      </g>
     </g>
    </g>
    <g id="xtick_10">
     <g id="line2d_19">
      <g>
       <use xlink:href="#m54b4436bef" x="113.133593" y="353.028281" style="stroke: #000000; stroke-width: 0.5"/>
      </g>
     </g>
     <g id="line2d_20">
      <g>
       <use xlink:href="#m8de4c46815" x="113.133593" y="20.388281" style="stroke: #000000; stroke-width: 0.5"/>
      </g>
     </g>
    </g>
    <g id="xtick_11">
     <g id="line2d_21">
      <g>
       <use xlink:href="#m54b4436bef" x="127.627099" y="353.028281" style="stroke: #000000; stroke-width: 0.5"/>
      </g>
     </g>
     <g id="line2d_22">
      <g>
       <use xlink:href="#m8de4c46815" x="127.627099" y="20.388281" style="stroke: #000000; stroke-width: 0.5"/>
      </g>
     </g>
    </g>
    <g id="xtick_12">
     <g id="line2d_23">
      <g>
       <use xlink:href="#m54b4436bef" x="142.120606" y="353.028281" style="stroke: #000000; stroke-width: 0.5"/>
      </g>
     </g>
     <g id="line2d_24">
      <g>
       <use xlink:href="#m8de4c46815" x="142.120606" y="20.388281" style="stroke: #000000; stroke-width: 0.5"/>
      </g>
     </g>
    </g>
    <g id="xtick_13">
     <g id="line2d_25">
      <g>
       <use xlink:href="#m54b4436bef" x="156.614112" y="353.028281" style="stroke: #000000; stroke-width: 0.5"/>
      </g>
     </g>
     <g id="line2d_26">
      <g>
       <use xlink:href="#m8de4c46815" x="156.614112" y="20.388281" style="stroke: #000000; stroke-width: 0.5"/>
      </g>
     </g>
    </g>
    <g id="xtick_14">
     <g id="line2d_27">
      <g>
       <use xlink:href="#m54b4436bef" x="185.601125" y="353.028281" style="stroke: #000000; stroke-width: 0.5"/>
      </g>
     </g>
     <g id="line2d_28">
      <g>
       <use xlink:href="#m8de4c46815" x="185.601125" y="20.388281" style="stroke: #000000; stroke-width: 0.5"/>
      </g>
     </g>
    </g>
    <g id="xtick_15">
     <g id="line2d_29">
      <g>
       <use xlink:href="#m54b4436bef" x="200.094632" y="353.028281" style="stroke: #000000; stroke-width: 0.5"/>
      </g>
     </g>
     <g id="line2d_30">
      <g>
       <use xlink:href="#m8de4c46815" x="200.094632" y="20.388281" style="stroke: #000000; stroke-width: 0.5"/>
      </g>
     </g>
    </g>
    <g id="xtick_16">
     <g id="line2d_31">
      <g>
       <use xlink:href="#m54b4436bef" x="214.588138" y="353.028281" style="stroke: #000000; stroke-width: 0.5"/>
      </g>
     </g>
     <g id="line2d_32">
      <g>
       <use xlink:href="#m8de4c46815" x="214.588138" y="20.388281" style="stroke: #000000; stroke-width: 0.5"/>
      </g>
     </g>
    </g>
    <g id="xtick_17">
     <g id="line2d_33">
      <g>
       <use xlink:href="#m54b4436bef" x="229.081645" y="353.028281" style="stroke: #000000; stroke-width: 0.5"/>
      </g>
     </g>
     <g id="line2d_34">
      <g>
       <use xlink:href="#m8de4c46815" x="229.081645" y="20.388281" style="stroke: #000000; stroke-width: 0.5"/>
      </g>
     </g>
    </g>
    <g id="xtick_18">
     <g id="line2d_35">
      <g>
       <use xlink:href="#m54b4436bef" x="258.068658" y="353.028281" style="stroke: #000000; stroke-width: 0.5"/>
      </g>
     </g>
     <g id="line2d_36">
      <g>
       <use xlink:href="#m8de4c46815" x="258.068658" y="20.388281" style="stroke: #000000; stroke-width: 0.5"/>
      </g>
     </g>
    </g>
    <g id="xtick_19">
     <g id="line2d_37">
      <g>
       <use xlink:href="#m54b4436bef" x="272.562164" y="353.028281" style="stroke: #000000; stroke-width: 0.5"/>
      </g>
     </g>
     <g id="line2d_38">
      <g>
       <use xlink:href="#m8de4c46815" x="272.562164" y="20.388281" style="stroke: #000000; stroke-width: 0.5"/>
      </g>
     </g>
    </g>
    <g id="xtick_20">
     <g id="line2d_39">
      <g>
       <use xlink:href="#m54b4436bef" x="287.055671" y="353.028281" style="stroke: #000000; stroke-width: 0.5"/>
      </g>
     </g>
     <g id="line2d_40">
      <g>
       <use xlink:href="#m8de4c46815" x="287.055671" y="20.388281" style="stroke: #000000; stroke-width: 0.5"/>
      </g>
     </g>
    </g>
    <g id="xtick_21">
     <g id="line2d_41">
      <g>
       <use xlink:href="#m54b4436bef" x="301.549177" y="353.028281" style="stroke: #000000; stroke-width: 0.5"/>
      </g>
     </g>
     <g id="line2d_42">
      <g>
       <use xlink:href="#m8de4c46815" x="301.549177" y="20.388281" style="stroke: #000000; stroke-width: 0.5"/>
      </g>
     </g>
    </g>
    <g id="xtick_22">
     <g id="line2d_43">
      <g>
       <use xlink:href="#m54b4436bef" x="330.53619" y="353.028281" style="stroke: #000000; stroke-width: 0.5"/>
      </g>
     </g>
     <g id="line2d_44">
      <g>
       <use xlink:href="#m8de4c46815" x="330.53619" y="20.388281" style="stroke: #000000; stroke-width: 0.5"/>
      </g>
     </g>
    </g>
    <g id="xtick_23">
     <g id="line2d_45">
      <g>
       <use xlink:href="#m54b4436bef" x="345.029696" y="353.028281" style="stroke: #000000; stroke-width: 0.5"/>
      </g>
     </g>
     <g id="line2d_46">
      <g>
       <use xlink:href="#m8de4c46815" x="345.029696" y="20.388281" style="stroke: #000000; stroke-width: 0.5"/>
      </g>
     </g>
    </g>
    <g id="xtick_24">
     <g id="line2d_47">
      <g>
       <use xlink:href="#m54b4436bef" x="359.523203" y="353.028281" style="stroke: #000000; stroke-width: 0.5"/>
      </g>
     </g>
     <g id="line2d_48">
      <g>
       <use xlink:href="#m8de4c46815" x="359.523203" y="20.388281" style="stroke: #000000; stroke-width: 0.5"/>
      </g>
     </g>
    </g>
    <g id="xtick_25">
     <g id="line2d_49">
      <g>
       <use xlink:href="#m54b4436bef" x="374.016709" y="353.028281" style="stroke: #000000; stroke-width: 0.5"/>
      </g>
     </g>
     <g id="line2d_50">
      <g>
       <use xlink:href="#m8de4c46815" x="374.016709" y="20.388281" style="stroke: #000000; stroke-width: 0.5"/>
      </g>
     </g>
    </g>
    <g id="xtick_26">
     <g id="line2d_51">
      <g>
       <use xlink:href="#m54b4436bef" x="403.003722" y="353.028281" style="stroke: #000000; stroke-width: 0.5"/>
      </g>
     </g>
     <g id="line2d_52">
      <g>
       <use xlink:href="#m8de4c46815" x="403.003722" y="20.388281" style="stroke: #000000; stroke-width: 0.5"/>
      </g>
     </g>
    </g>
    <g id="xtick_27">
     <g id="line2d_53">
      <g>
       <use xlink:href="#m54b4436bef" x="417.497229" y="353.028281" style="stroke: #000000; stroke-width: 0.5"/>
      </g>
     </g>
     <g id="line2d_54">
      <g>
       <use xlink:href="#m8de4c46815" x="417.497229" y="20.388281" style="stroke: #000000; stroke-width: 0.5"/>
      </g>
     </g>
    </g>
    <g id="xtick_28">
     <g id="line2d_55">
      <g>
       <use xlink:href="#m54b4436bef" x="431.990735" y="353.028281" style="stroke: #000000; stroke-width: 0.5"/>
      </g>
     </g>
     <g id="line2d_56">
      <g>
       <use xlink:href="#m8de4c46815" x="431.990735" y="20.388281" style="stroke: #000000; stroke-width: 0.5"/>
      </g>
     </g>
    </g>
    <g id="xtick_29">
     <g id="line2d_57">
      <g>
       <use xlink:href="#m54b4436bef" x="446.484242" y="353.028281" style="stroke: #000000; stroke-width: 0.5"/>
      </g>
     </g>
     <g id="line2d_58">
      <g>
       <use xlink:href="#m8de4c46815" x="446.484242" y="20.388281" style="stroke: #000000; stroke-width: 0.5"/>
      </g>
     </g>
    </g>
    <g id="xtick_30">
     <g id="line2d_59">
      <g>
       <use xlink:href="#m54b4436bef" x="475.471255" y="353.028281" style="stroke: #000000; stroke-width: 0.5"/>
      </g>
     </g>
     <g id="line2d_60">
      <g>
       <use xlink:href="#m8de4c46815" x="475.471255" y="20.388281" style="stroke: #000000; stroke-width: 0.5"/>
      </g>
     </g>
    </g>
    <g id="xtick_31">
     <g id="line2d_61">
      <g>
       <use xlink:href="#m54b4436bef" x="489.964761" y="353.028281" style="stroke: #000000; stroke-width: 0.5"/>
      </g>
     </g>
     <g id="line2d_62">
      <g>
       <use xlink:href="#m8de4c46815" x="489.964761" y="20.388281" style="stroke: #000000; stroke-width: 0.5"/>
      </g>
     </g>
    </g>
    <g id="xtick_32">
     <g id="line2d_63">
      <g>
       <use xlink:href="#m54b4436bef" x="504.458268" y="353.028281" style="stroke: #000000; stroke-width: 0.5"/>
      </g>
     </g>
     <g id="line2d_64">
      <g>
       <use xlink:href="#m8de4c46815" x="504.458268" y="20.388281" style="stroke: #000000; stroke-width: 0.5"/>
      </g>
     </g>
    </g>
    <g id="xtick_33">
     <g id="line2d_65">
      <g>
       <use xlink:href="#m54b4436bef" x="518.951774" y="353.028281" style="stroke: #000000; stroke-width: 0.5"/>
      </g>
     </g>
     <g id="line2d_66">
      <g>
       <use xlink:href="#m8de4c46815" x="518.951774" y="20.388281" style="stroke: #000000; stroke-width: 0.5"/>
      </g>
     </g>
    </g>
    <g id="xtick_34">
     <g id="line2d_67">
      <g>
       <use xlink:href="#m54b4436bef" x="547.938787" y="353.028281" style="stroke: #000000; stroke-width: 0.5"/>
      </g>
     </g>
     <g id="line2d_68">
      <g>
       <use xlink:href="#m8de4c46815" x="547.938787" y="20.388281" style="stroke: #000000; stroke-width: 0.5"/>
      </g>
     </g>
    </g>
    <g id="xtick_35">
     <g id="line2d_69">
      <g>
       <use xlink:href="#m54b4436bef" x="562.432294" y="353.028281" style="stroke: #000000; stroke-width: 0.5"/>
      </g>
     </g>
     <g id="line2d_70">
      <g>
       <use xlink:href="#m8de4c46815" x="562.432294" y="20.388281" style="stroke: #000000; stroke-width: 0.5"/>
      </g>
     </g>
    </g>
    <g id="xtick_36">
     <g id="line2d_71">
      <g>
       <use xlink:href="#m54b4436bef" x="576.9258" y="353.028281" style="stroke: #000000; stroke-width: 0.5"/>
      </g>
     </g>
     <g id="line2d_72">
      <g>
       <use xlink:href="#m8de4c46815" x="576.9258" y="20.388281" style="stroke: #000000; stroke-width: 0.5"/>
      </g>
     </g>
    </g>
    <g id="xtick_37">
     <g id="line2d_73">
      <g>
       <use xlink:href="#m54b4436bef" x="591.419307" y="353.028281" style="stroke: #000000; stroke-width: 0.5"/>
      </g>
     </g>
     <g id="line2d_74">
      <g>
       <use xlink:href="#m8de4c46815" x="591.419307" y="20.388281" style="stroke: #000000; stroke-width: 0.5"/>
      </g>
     </g>
    </g>
    <g id="xtick_38">
     <g id="line2d_75">
      <g>
       <use xlink:href="#m54b4436bef" x="620.40632" y="353.028281" style="stroke: #000000; stroke-width: 0.5"/>
      </g>
     </g>
     <g id="line2d_76">
      <g>
       <use xlink:href="#m8de4c46815" x="620.40632" y="20.388281" style="stroke: #000000; stroke-width: 0.5"/>
      </g>
     </g>
    </g>
    <g id="text_9">
     <!-- 年份 -->
     <g transform="translate(344.27645 375.404531)scale(0.08 -0.08)">
      <defs>
       <path id="ArialUnicodeMS-5e74" d="M 5869 1409 
L 3659 1409 
L 3659 -434 
L 3156 -434 
L 3156 1409 
L 659 1409 
L 659 1875 
L 1459 1875 
L 1459 3384 
L 3156 3384 
L 3156 4219 
L 1838 4219 
Q 1425 3363 953 2931 
L 550 3256 
Q 1381 3994 1734 5381 
L 2144 5184 
Q 2122 4997 2022 4684 
L 5606 4684 
L 5606 4219 
L 3659 4219 
L 3659 3384 
L 5294 3384 
L 5294 2919 
L 3659 2919 
L 3659 1875 
L 5869 1875 
L 5869 1409 
z
M 3156 1875 
L 3156 2919 
L 1947 2919 
L 1947 1875 
L 3156 1875 
z
" transform="scale(0.015625)"/>
       <path id="ArialUnicodeMS-4efd" d="M 6194 2875 
L 5778 2553 
Q 5528 2697 5294 2969 
Q 5269 1894 5181 1111 
Q 5094 328 4944 25 
Q 4794 -278 4372 -278 
Q 4047 -278 3609 -166 
L 3456 372 
Q 4003 178 4359 178 
Q 4475 178 4525 333 
Q 4575 488 4667 1075 
Q 4759 1663 4781 2559 
L 3916 2559 
Q 3822 219 2234 -447 
L 1888 -78 
Q 3416 516 3444 2559 
L 2625 2559 
L 2625 2975 
Q 2409 2722 2150 2484 
L 1813 2759 
L 1813 -475 
L 1325 -475 
L 1325 2816 
L 1319 2828 
Q 1319 2813 1131 2617 
Q 944 2422 738 2253 
L 319 2534 
Q 1466 3466 2009 5300 
L 2450 5094 
Q 2328 4681 2069 4116 
L 1813 3572 
L 1813 2834 
Q 2794 3716 3103 4897 
L 3475 4678 
Q 3244 3744 2669 3028 
L 5241 3028 
Q 4750 3606 4459 4494 
L 3506 4494 
L 3500 4953 
L 4825 4953 
Q 5241 3419 6194 2875 
z
" transform="scale(0.015625)"/>
      </defs>
      <use xlink:href="#ArialUnicodeMS-5e74"/>
      <use xlink:href="#ArialUnicodeMS-4efd" x="100"/>
     </g>
    </g>
   </g>
   <g id="matplotlib.axis_2">
    <g id="ytick_1">
     <g id="line2d_77">
      <defs>
       <path id="md32cc91edc" d="M 0 0 
L 3 0 
" style="stroke: #000000; stroke-width: 0.5"/>
      </defs>
      <g>
       <use xlink:href="#md32cc91edc" x="73.27645" y="346.791156" style="stroke: #000000; stroke-width: 0.5"/>
      </g>
     </g>
     <g id="line2d_78">
      <defs>
       <path id="m5fc42bfab1" d="M 0 0 
L -3 0 
" style="stroke: #000000; stroke-width: 0.5"/>
      </defs>
      <g>
       <use xlink:href="#m5fc42bfab1" x="631.27645" y="346.791156" style="stroke: #000000; stroke-width: 0.5"/>
      </g>
     </g>
     <g id="text_10">
      <!-- 1400 -->
      <g transform="translate(47.5327 350.370062)scale(0.1 -0.1)">
       <use xlink:href="#ArialUnicodeMS-31"/>
       <use xlink:href="#ArialUnicodeMS-34" x="55.615234"/>
       <use xlink:href="#ArialUnicodeMS-30" x="111.230469"/>
       <use xlink:href="#ArialUnicodeMS-30" x="166.845703"/>
      </g>
     </g>
    </g>
    <g id="ytick_2">
     <g id="line2d_79">
      <g>
       <use xlink:href="#md32cc91edc" x="73.27645" y="304.890803" style="stroke: #000000; stroke-width: 0.5"/>
      </g>
     </g>
     <g id="line2d_80">
      <g>
       <use xlink:href="#m5fc42bfab1" x="631.27645" y="304.890803" style="stroke: #000000; stroke-width: 0.5"/>
      </g>
     </g>
     <g id="text_11">
      <!-- 1500 -->
      <g transform="translate(47.5327 308.469709)scale(0.1 -0.1)">
       <use xlink:href="#ArialUnicodeMS-31"/>
       <use xlink:href="#ArialUnicodeMS-35" x="55.615234"/>
       <use xlink:href="#ArialUnicodeMS-30" x="111.230469"/>
       <use xlink:href="#ArialUnicodeMS-30" x="166.845703"/>
      </g>
     </g>
    </g>
    <g id="ytick_3">
     <g id="line2d_81">
      <g>
       <use xlink:href="#md32cc91edc" x="73.27645" y="262.99045" style="stroke: #000000; stroke-width: 0.5"/>
      </g>
     </g>
     <g id="line2d_82">
      <g>
       <use xlink:href="#m5fc42bfab1" x="631.27645" y="262.99045" style="stroke: #000000; stroke-width: 0.5"/>
      </g>
     </g>
     <g id="text_12">
      <!-- 1600 -->
      <g transform="translate(47.5327 266.569356)scale(0.1 -0.1)">
       <use xlink:href="#ArialUnicodeMS-31"/>
       <use xlink:href="#ArialUnicodeMS-36" x="55.615234"/>
       <use xlink:href="#ArialUnicodeMS-30" x="111.230469"/>
       <use xlink:href="#ArialUnicodeMS-30" x="166.845703"/>
      </g>
     </g>
    </g>
    <g id="ytick_4">
     <g id="line2d_83">
      <g>
       <use xlink:href="#md32cc91edc" x="73.27645" y="221.090097" style="stroke: #000000; stroke-width: 0.5"/>
      </g>
     </g>
     <g id="line2d_84">
      <g>
       <use xlink:href="#m5fc42bfab1" x="631.27645" y="221.090097" style="stroke: #000000; stroke-width: 0.5"/>
      </g>
     </g>
     <g id="text_13">
      <!-- 1700 -->
      <g transform="translate(47.5327 224.669003)scale(0.1 -0.1)">
       <use xlink:href="#ArialUnicodeMS-31"/>
       <use xlink:href="#ArialUnicodeMS-37" x="55.615234"/>
       <use xlink:href="#ArialUnicodeMS-30" x="111.230469"/>
       <use xlink:href="#ArialUnicodeMS-30" x="166.845703"/>
      </g>
     </g>
    </g>
    <g id="ytick_5">
     <g id="line2d_85">
      <g>
       <use xlink:href="#md32cc91edc" x="73.27645" y="179.189744" style="stroke: #000000; stroke-width: 0.5"/>
      </g>
     </g>
     <g id="line2d_86">
      <g>
       <use xlink:href="#m5fc42bfab1" x="631.27645" y="179.189744" style="stroke: #000000; stroke-width: 0.5"/>
      </g>
     </g>
     <g id="text_14">
      <!-- 1800 -->
      <g transform="translate(47.5327 182.76865)scale(0.1 -0.1)">
       <use xlink:href="#ArialUnicodeMS-31"/>
       <use xlink:href="#ArialUnicodeMS-38" x="55.615234"/>
       <use xlink:href="#ArialUnicodeMS-30" x="111.230469"/>
       <use xlink:href="#ArialUnicodeMS-30" x="166.845703"/>
      </g>
     </g>
    </g>
    <g id="ytick_6">
     <g id="line2d_87">
      <g>
       <use xlink:href="#md32cc91edc" x="73.27645" y="137.289391" style="stroke: #000000; stroke-width: 0.5"/>
      </g>
     </g>
     <g id="line2d_88">
      <g>
       <use xlink:href="#m5fc42bfab1" x="631.27645" y="137.289391" style="stroke: #000000; stroke-width: 0.5"/>
      </g>
     </g>
     <g id="text_15">
      <!-- 1900 -->
      <g transform="translate(47.5327 140.868297)scale(0.1 -0.1)">
       <use xlink:href="#ArialUnicodeMS-31"/>
       <use xlink:href="#ArialUnicodeMS-39" x="55.615234"/>
       <use xlink:href="#ArialUnicodeMS-30" x="111.230469"/>
       <use xlink:href="#ArialUnicodeMS-30" x="166.845703"/>
      </g>
     </g>
    </g>
    <g id="ytick_7">
     <g id="line2d_89">
      <g>
       <use xlink:href="#md32cc91edc" x="73.27645" y="95.389038" style="stroke: #000000; stroke-width: 0.5"/>
      </g>
     </g>
     <g id="line2d_90">
      <g>
       <use xlink:href="#m5fc42bfab1" x="631.27645" y="95.389038" style="stroke: #000000; stroke-width: 0.5"/>
      </g>
     </g>
     <g id="text_16">
      <!-- 2000 -->
      <g transform="translate(47.5327 98.967944)scale(0.1 -0.1)">
       <use xlink:href="#ArialUnicodeMS-32"/>
       <use xlink:href="#ArialUnicodeMS-30" x="55.615234"/>
       <use xlink:href="#ArialUnicodeMS-30" x="111.230469"/>
       <use xlink:href="#ArialUnicodeMS-30" x="166.845703"/>
      </g>
     </g>
    </g>
    <g id="ytick_8">
     <g id="line2d_91">
      <g>
       <use xlink:href="#md32cc91edc" x="73.27645" y="53.488685" style="stroke: #000000; stroke-width: 0.5"/>
      </g>
     </g>
     <g id="line2d_92">
      <g>
       <use xlink:href="#m5fc42bfab1" x="631.27645" y="53.488685" style="stroke: #000000; stroke-width: 0.5"/>
      </g>
     </g>
     <g id="text_17">
      <!-- 2100 -->
      <g transform="translate(47.5327 57.067591)scale(0.1 -0.1)">
       <use xlink:href="#ArialUnicodeMS-32"/>
       <use xlink:href="#ArialUnicodeMS-31" x="55.615234"/>
       <use xlink:href="#ArialUnicodeMS-30" x="111.230469"/>
       <use xlink:href="#ArialUnicodeMS-30" x="166.845703"/>
      </g>
     </g>
    </g>
    <g id="ytick_9">
     <g id="line2d_93">
      <defs>
       <path id="m993309dc19" d="M 0 0 
L 1.5 0 
" style="stroke: #000000; stroke-width: 0.5"/>
      </defs>
      <g>
       <use xlink:href="#m993309dc19" x="73.27645" y="338.411085" style="stroke: #000000; stroke-width: 0.5"/>
      </g>
     </g>
     <g id="line2d_94">
      <defs>
       <path id="mb52d283b6c" d="M 0 0 
L -1.5 0 
" style="stroke: #000000; stroke-width: 0.5"/>
      </defs>
      <g>
       <use xlink:href="#mb52d283b6c" x="631.27645" y="338.411085" style="stroke: #000000; stroke-width: 0.5"/>
      </g>
     </g>
    </g>
    <g id="ytick_10">
     <g id="line2d_95">
      <g>
       <use xlink:href="#m993309dc19" x="73.27645" y="330.031015" style="stroke: #000000; stroke-width: 0.5"/>
      </g>
     </g>
     <g id="line2d_96">
      <g>
       <use xlink:href="#mb52d283b6c" x="631.27645" y="330.031015" style="stroke: #000000; stroke-width: 0.5"/>
      </g>
     </g>
    </g>
    <g id="ytick_11">
     <g id="line2d_97">
      <g>
       <use xlink:href="#m993309dc19" x="73.27645" y="321.650944" style="stroke: #000000; stroke-width: 0.5"/>
      </g>
     </g>
     <g id="line2d_98">
      <g>
       <use xlink:href="#mb52d283b6c" x="631.27645" y="321.650944" style="stroke: #000000; stroke-width: 0.5"/>
      </g>
     </g>
    </g>
    <g id="ytick_12">
     <g id="line2d_99">
      <g>
       <use xlink:href="#m993309dc19" x="73.27645" y="313.270874" style="stroke: #000000; stroke-width: 0.5"/>
      </g>
     </g>
     <g id="line2d_100">
      <g>
       <use xlink:href="#mb52d283b6c" x="631.27645" y="313.270874" style="stroke: #000000; stroke-width: 0.5"/>
      </g>
     </g>
    </g>
    <g id="ytick_13">
     <g id="line2d_101">
      <g>
       <use xlink:href="#m993309dc19" x="73.27645" y="296.510732" style="stroke: #000000; stroke-width: 0.5"/>
      </g>
     </g>
     <g id="line2d_102">
      <g>
       <use xlink:href="#mb52d283b6c" x="631.27645" y="296.510732" style="stroke: #000000; stroke-width: 0.5"/>
      </g>
     </g>
    </g>
    <g id="ytick_14">
     <g id="line2d_103">
      <g>
       <use xlink:href="#m993309dc19" x="73.27645" y="288.130662" style="stroke: #000000; stroke-width: 0.5"/>
      </g>
     </g>
     <g id="line2d_104">
      <g>
       <use xlink:href="#mb52d283b6c" x="631.27645" y="288.130662" style="stroke: #000000; stroke-width: 0.5"/>
      </g>
     </g>
    </g>
    <g id="ytick_15">
     <g id="line2d_105">
      <g>
       <use xlink:href="#m993309dc19" x="73.27645" y="279.750591" style="stroke: #000000; stroke-width: 0.5"/>
      </g>
     </g>
     <g id="line2d_106">
      <g>
       <use xlink:href="#mb52d283b6c" x="631.27645" y="279.750591" style="stroke: #000000; stroke-width: 0.5"/>
      </g>
     </g>
    </g>
    <g id="ytick_16">
     <g id="line2d_107">
      <g>
       <use xlink:href="#m993309dc19" x="73.27645" y="271.370521" style="stroke: #000000; stroke-width: 0.5"/>
      </g>
     </g>
     <g id="line2d_108">
      <g>
       <use xlink:href="#mb52d283b6c" x="631.27645" y="271.370521" style="stroke: #000000; stroke-width: 0.5"/>
      </g>
     </g>
    </g>
    <g id="ytick_17">
     <g id="line2d_109">
      <g>
       <use xlink:href="#m993309dc19" x="73.27645" y="254.610379" style="stroke: #000000; stroke-width: 0.5"/>
      </g>
     </g>
     <g id="line2d_110">
      <g>
       <use xlink:href="#mb52d283b6c" x="631.27645" y="254.610379" style="stroke: #000000; stroke-width: 0.5"/>
      </g>
     </g>
    </g>
    <g id="ytick_18">
     <g id="line2d_111">
      <g>
       <use xlink:href="#m993309dc19" x="73.27645" y="246.230309" style="stroke: #000000; stroke-width: 0.5"/>
      </g>
     </g>
     <g id="line2d_112">
      <g>
       <use xlink:href="#mb52d283b6c" x="631.27645" y="246.230309" style="stroke: #000000; stroke-width: 0.5"/>
      </g>
     </g>
    </g>
    <g id="ytick_19">
     <g id="line2d_113">
      <g>
       <use xlink:href="#m993309dc19" x="73.27645" y="237.850238" style="stroke: #000000; stroke-width: 0.5"/>
      </g>
     </g>
     <g id="line2d_114">
      <g>
       <use xlink:href="#mb52d283b6c" x="631.27645" y="237.850238" style="stroke: #000000; stroke-width: 0.5"/>
      </g>
     </g>
    </g>
    <g id="ytick_20">
     <g id="line2d_115">
      <g>
       <use xlink:href="#m993309dc19" x="73.27645" y="229.470167" style="stroke: #000000; stroke-width: 0.5"/>
      </g>
     </g>
     <g id="line2d_116">
      <g>
       <use xlink:href="#mb52d283b6c" x="631.27645" y="229.470167" style="stroke: #000000; stroke-width: 0.5"/>
      </g>
     </g>
    </g>
    <g id="ytick_21">
     <g id="line2d_117">
      <g>
       <use xlink:href="#m993309dc19" x="73.27645" y="212.710026" style="stroke: #000000; stroke-width: 0.5"/>
      </g>
     </g>
     <g id="line2d_118">
      <g>
       <use xlink:href="#mb52d283b6c" x="631.27645" y="212.710026" style="stroke: #000000; stroke-width: 0.5"/>
      </g>
     </g>
    </g>
    <g id="ytick_22">
     <g id="line2d_119">
      <g>
       <use xlink:href="#m993309dc19" x="73.27645" y="204.329956" style="stroke: #000000; stroke-width: 0.5"/>
      </g>
     </g>
     <g id="line2d_120">
      <g>
       <use xlink:href="#mb52d283b6c" x="631.27645" y="204.329956" style="stroke: #000000; stroke-width: 0.5"/>
      </g>
     </g>
    </g>
    <g id="ytick_23">
     <g id="line2d_121">
      <g>
       <use xlink:href="#m993309dc19" x="73.27645" y="195.949885" style="stroke: #000000; stroke-width: 0.5"/>
      </g>
     </g>
     <g id="line2d_122">
      <g>
       <use xlink:href="#mb52d283b6c" x="631.27645" y="195.949885" style="stroke: #000000; stroke-width: 0.5"/>
      </g>
     </g>
    </g>
    <g id="ytick_24">
     <g id="line2d_123">
      <g>
       <use xlink:href="#m993309dc19" x="73.27645" y="187.569814" style="stroke: #000000; stroke-width: 0.5"/>
      </g>
     </g>
     <g id="line2d_124">
      <g>
       <use xlink:href="#mb52d283b6c" x="631.27645" y="187.569814" style="stroke: #000000; stroke-width: 0.5"/>
      </g>
     </g>
    </g>
    <g id="ytick_25">
     <g id="line2d_125">
      <g>
       <use xlink:href="#m993309dc19" x="73.27645" y="170.809673" style="stroke: #000000; stroke-width: 0.5"/>
      </g>
     </g>
     <g id="line2d_126">
      <g>
       <use xlink:href="#mb52d283b6c" x="631.27645" y="170.809673" style="stroke: #000000; stroke-width: 0.5"/>
      </g>
     </g>
    </g>
    <g id="ytick_26">
     <g id="line2d_127">
      <g>
       <use xlink:href="#m993309dc19" x="73.27645" y="162.429603" style="stroke: #000000; stroke-width: 0.5"/>
      </g>
     </g>
     <g id="line2d_128">
      <g>
       <use xlink:href="#mb52d283b6c" x="631.27645" y="162.429603" style="stroke: #000000; stroke-width: 0.5"/>
      </g>
     </g>
    </g>
    <g id="ytick_27">
     <g id="line2d_129">
      <g>
       <use xlink:href="#m993309dc19" x="73.27645" y="154.049532" style="stroke: #000000; stroke-width: 0.5"/>
      </g>
     </g>
     <g id="line2d_130">
      <g>
       <use xlink:href="#mb52d283b6c" x="631.27645" y="154.049532" style="stroke: #000000; stroke-width: 0.5"/>
      </g>
     </g>
    </g>
    <g id="ytick_28">
     <g id="line2d_131">
      <g>
       <use xlink:href="#m993309dc19" x="73.27645" y="145.669461" style="stroke: #000000; stroke-width: 0.5"/>
      </g>
     </g>
     <g id="line2d_132">
      <g>
       <use xlink:href="#mb52d283b6c" x="631.27645" y="145.669461" style="stroke: #000000; stroke-width: 0.5"/>
      </g>
     </g>
    </g>
    <g id="ytick_29">
     <g id="line2d_133">
      <g>
       <use xlink:href="#m993309dc19" x="73.27645" y="128.90932" style="stroke: #000000; stroke-width: 0.5"/>
      </g>
     </g>
     <g id="line2d_134">
      <g>
       <use xlink:href="#mb52d283b6c" x="631.27645" y="128.90932" style="stroke: #000000; stroke-width: 0.5"/>
      </g>
     </g>
    </g>
    <g id="ytick_30">
     <g id="line2d_135">
      <g>
       <use xlink:href="#m993309dc19" x="73.27645" y="120.529249" style="stroke: #000000; stroke-width: 0.5"/>
      </g>
     </g>
     <g id="line2d_136">
      <g>
       <use xlink:href="#mb52d283b6c" x="631.27645" y="120.529249" style="stroke: #000000; stroke-width: 0.5"/>
      </g>
     </g>
    </g>
    <g id="ytick_31">
     <g id="line2d_137">
      <g>
       <use xlink:href="#m993309dc19" x="73.27645" y="112.149179" style="stroke: #000000; stroke-width: 0.5"/>
      </g>
     </g>
     <g id="line2d_138">
      <g>
       <use xlink:href="#mb52d283b6c" x="631.27645" y="112.149179" style="stroke: #000000; stroke-width: 0.5"/>
      </g>
     </g>
    </g>
    <g id="ytick_32">
     <g id="line2d_139">
      <g>
       <use xlink:href="#m993309dc19" x="73.27645" y="103.769108" style="stroke: #000000; stroke-width: 0.5"/>
      </g>
     </g>
     <g id="line2d_140">
      <g>
       <use xlink:href="#mb52d283b6c" x="631.27645" y="103.769108" style="stroke: #000000; stroke-width: 0.5"/>
      </g>
     </g>
    </g>
    <g id="ytick_33">
     <g id="line2d_141">
      <g>
       <use xlink:href="#m993309dc19" x="73.27645" y="87.008967" style="stroke: #000000; stroke-width: 0.5"/>
      </g>
     </g>
     <g id="line2d_142">
      <g>
       <use xlink:href="#mb52d283b6c" x="631.27645" y="87.008967" style="stroke: #000000; stroke-width: 0.5"/>
      </g>
     </g>
    </g>
    <g id="ytick_34">
     <g id="line2d_143">
      <g>
       <use xlink:href="#m993309dc19" x="73.27645" y="78.628896" style="stroke: #000000; stroke-width: 0.5"/>
      </g>
     </g>
     <g id="line2d_144">
      <g>
       <use xlink:href="#mb52d283b6c" x="631.27645" y="78.628896" style="stroke: #000000; stroke-width: 0.5"/>
      </g>
     </g>
    </g>
    <g id="ytick_35">
     <g id="line2d_145">
      <g>
       <use xlink:href="#m993309dc19" x="73.27645" y="70.248826" style="stroke: #000000; stroke-width: 0.5"/>
      </g>
     </g>
     <g id="line2d_146">
      <g>
       <use xlink:href="#mb52d283b6c" x="631.27645" y="70.248826" style="stroke: #000000; stroke-width: 0.5"/>
      </g>
     </g>
    </g>
    <g id="ytick_36">
     <g id="line2d_147">
      <g>
       <use xlink:href="#m993309dc19" x="73.27645" y="61.868755" style="stroke: #000000; stroke-width: 0.5"/>
      </g>
     </g>
     <g id="line2d_148">
      <g>
       <use xlink:href="#mb52d283b6c" x="631.27645" y="61.868755" style="stroke: #000000; stroke-width: 0.5"/>
      </g>
     </g>
    </g>
    <g id="ytick_37">
     <g id="line2d_149">
      <g>
       <use xlink:href="#m993309dc19" x="73.27645" y="45.108614" style="stroke: #000000; stroke-width: 0.5"/>
      </g>
     </g>
     <g id="line2d_150">
      <g>
       <use xlink:href="#mb52d283b6c" x="631.27645" y="45.108614" style="stroke: #000000; stroke-width: 0.5"/>
      </g>
     </g>
    </g>
    <g id="ytick_38">
     <g id="line2d_151">
      <g>
       <use xlink:href="#m993309dc19" x="73.27645" y="36.728543" style="stroke: #000000; stroke-width: 0.5"/>
      </g>
     </g>
     <g id="line2d_152">
      <g>
       <use xlink:href="#mb52d283b6c" x="631.27645" y="36.728543" style="stroke: #000000; stroke-width: 0.5"/>
      </g>
     </g>
    </g>
    <g id="ytick_39">
     <g id="line2d_153">
      <g>
       <use xlink:href="#m993309dc19" x="73.27645" y="28.348473" style="stroke: #000000; stroke-width: 0.5"/>
      </g>
     </g>
     <g id="line2d_154">
      <g>
       <use xlink:href="#mb52d283b6c" x="631.27645" y="28.348473" style="stroke: #000000; stroke-width: 0.5"/>
      </g>
     </g>
    </g>
    <g id="text_18">
     <!-- 问询函长度 -->
     <g transform="translate(7.272174 196.725971)rotate(-20)scale(0.15 -0.15)">
      <defs>
       <path id="ArialUnicodeMS-95ee" d="M 2553 4325 
L 2188 3950 
Q 1828 4447 1191 4794 
L 1497 5131 
Q 2081 4834 2553 4325 
z
M 5528 159 
Q 5528 -50 5403 -190 
Q 5278 -331 5075 -331 
L 4416 -331 
L 4244 147 
L 4916 122 
Q 5044 113 5044 250 
L 5044 4513 
L 2822 4513 
L 2822 4978 
L 5528 4978 
L 5528 159 
z
M 1178 -409 
L 716 -409 
L 716 4213 
L 1178 4213 
L 1178 -409 
z
M 4256 1056 
L 3769 1056 
L 3769 1306 
L 2450 1306 
L 2450 916 
L 1966 916 
L 1966 3463 
L 4256 3463 
L 4256 1056 
z
M 3769 1772 
L 3769 2994 
L 2450 2994 
L 2450 1772 
L 3769 1772 
z
" transform="scale(0.015625)"/>
       <path id="ArialUnicodeMS-8be2" d="M 5772 4556 
Q 5781 2706 5745 1661 
Q 5709 616 5648 289 
Q 5588 -38 5414 -216 
Q 5241 -394 4903 -394 
Q 4725 -394 4378 -353 
L 4178 166 
Q 4769 75 4897 75 
Q 5169 75 5222 708 
Q 5275 1341 5275 2997 
Q 5275 3534 5269 4091 
L 3297 4091 
Q 3069 3569 3003 3469 
L 4634 3469 
L 4634 434 
L 4147 434 
L 4147 856 
L 3213 856 
L 3213 434 
L 2725 434 
L 2725 3091 
L 2713 3103 
Q 2603 2884 2369 2669 
L 1966 2981 
Q 2913 3784 3116 5338 
L 3566 5216 
Q 3472 4709 3431 4556 
L 5772 4556 
z
M 4147 2419 
L 4147 3003 
L 3213 3003 
L 3213 2419 
L 4147 2419 
z
M 4147 1325 
L 4147 1953 
L 3213 1953 
L 3213 1325 
L 4147 1325 
z
M 1894 4331 
L 1491 4025 
Q 1244 4544 678 4991 
L 1019 5288 
Q 1559 4916 1894 4331 
z
M 2572 447 
L 1422 -184 
L 1131 231 
Q 1234 334 1234 513 
L 1234 3034 
L 391 3034 
L 391 3500 
L 1722 3500 
L 1722 531 
L 2572 978 
L 2572 447 
z
" transform="scale(0.015625)"/>
       <path id="ArialUnicodeMS-51fd" d="M 5881 4647 
L 2638 4647 
L 2516 4084 
L 3553 4084 
L 3553 1966 
L 3828 2272 
Q 4709 1903 5141 1375 
L 4825 997 
Q 4300 1613 3553 1900 
L 3553 1056 
Q 3553 838 3386 723 
Q 3219 609 3078 609 
L 2463 609 
L 2291 1100 
L 2881 1075 
Q 3072 1066 3072 1228 
L 3072 3609 
L 2419 3609 
L 2363 3413 
L 1894 3481 
L 2150 4647 
L 519 4647 
L 519 5113 
L 5881 5113 
L 5881 4647 
z
M 5638 -391 
L 5153 -391 
L 5153 -19 
L 1253 -19 
L 1253 -391 
L 763 -391 
L 763 3969 
L 1247 3969 
L 1247 3097 
L 1538 3413 
Q 2266 3156 2741 2656 
L 2413 2291 
Q 1938 2816 1247 3053 
L 1247 447 
L 5147 447 
L 5147 3969 
L 5638 3969 
L 5638 -391 
z
M 5069 3397 
Q 4744 2825 3969 2381 
L 3622 2747 
Q 4263 3053 4703 3700 
L 5069 3397 
z
M 2925 1825 
Q 2188 1438 1631 1125 
L 1306 1503 
Q 1738 1706 2919 2350 
L 2919 1825 
L 2925 1825 
z
" transform="scale(0.015625)"/>
       <path id="ArialUnicodeMS-957f" d="M 6125 306 
L 5797 -122 
Q 3488 722 2981 2413 
L 2259 2413 
L 2259 319 
L 3597 844 
L 3597 366 
L 1984 -347 
L 1697 84 
Q 1772 172 1772 331 
L 1772 2413 
L 384 2413 
L 384 2881 
L 1772 2881 
L 1772 5269 
L 2259 5269 
L 2259 3553 
Q 3700 4050 4738 4916 
L 5069 4550 
Q 3859 3588 2259 3084 
L 2259 2881 
L 5978 2881 
L 5978 2413 
L 3469 2413 
Q 3947 959 6125 306 
z
" transform="scale(0.015625)"/>
       <path id="ArialUnicodeMS-5ea6" d="M 5913 4269 
L 1363 4269 
L 1363 2278 
Q 1363 1144 1180 528 
Q 997 -88 684 -434 
L 294 -147 
Q 669 378 773 940 
Q 878 1503 878 2350 
L 878 4738 
L 3200 4738 
L 3200 5288 
L 3706 5288 
L 3706 4738 
L 5913 4738 
L 5913 4269 
z
M 5778 3194 
L 4728 3194 
L 4728 2303 
L 2350 2303 
L 2350 3194 
L 1472 3194 
L 1472 3659 
L 2350 3659 
L 2350 4147 
L 2828 4147 
L 2828 3659 
L 4244 3659 
L 4244 4147 
L 4728 4147 
L 4728 3659 
L 5778 3659 
L 5778 3194 
z
M 4244 2747 
L 4244 3194 
L 2834 3194 
L 2834 2747 
L 4244 2747 
z
M 6081 72 
L 5819 -397 
Q 4484 -216 3531 263 
Q 2494 -234 1388 -397 
L 1088 44 
Q 2078 134 3034 550 
Q 2509 934 2113 1528 
L 1625 1528 
L 1625 1972 
L 5159 1972 
L 5159 1544 
Q 4819 1025 4044 538 
Q 4963 166 6081 72 
z
M 4544 1528 
L 2700 1528 
Q 3125 1038 3531 781 
Q 4194 1159 4544 1528 
z
" transform="scale(0.015625)"/>
      </defs>
      <use xlink:href="#ArialUnicodeMS-95ee"/>
      <use xlink:href="#ArialUnicodeMS-8be2" x="100"/>
      <use xlink:href="#ArialUnicodeMS-51fd" x="200"/>
      <use xlink:href="#ArialUnicodeMS-957f" x="300"/>
      <use xlink:href="#ArialUnicodeMS-5ea6" x="400"/>
     </g>
    </g>
   </g>
   <g id="line2d_155">
    <path d="M 98.640086 337.908281 
L 171.107619 285.462129 
L 243.575151 200.86988 
L 316.042684 196.720536 
L 388.510216 156.242237 
L 460.977748 102.865124 
L 533.445281 35.508281 
L 605.912813 113.643597 
" clip-path="url(#p11ce04088a)" style="fill: none; stroke: #0c5da5; stroke-linecap: square"/>
    <defs>
     <path id="m74fc8ea237" d="M 0 3 
C 0.795609 3 1.55874 2.683901 2.12132 2.12132 
C 2.683901 1.55874 3 0.795609 3 0 
C 3 -0.795609 2.683901 -1.55874 2.12132 -2.12132 
C 1.55874 -2.683901 0.795609 -3 0 -3 
C -0.795609 -3 -1.55874 -2.683901 -2.12132 -2.12132 
C -2.683901 -1.55874 -3 -0.795609 -3 0 
C -3 0.795609 -2.683901 1.55874 -2.12132 2.12132 
C -1.55874 2.683901 -0.795609 3 0 3 
z
" style="stroke: #0c5da5"/>
    </defs>
    <g clip-path="url(#p11ce04088a)">
     <use xlink:href="#m74fc8ea237" x="98.640086" y="337.908281" style="fill: #0c5da5; stroke: #0c5da5"/>
     <use xlink:href="#m74fc8ea237" x="171.107619" y="285.462129" style="fill: #0c5da5; stroke: #0c5da5"/>
     <use xlink:href="#m74fc8ea237" x="243.575151" y="200.86988" style="fill: #0c5da5; stroke: #0c5da5"/>
     <use xlink:href="#m74fc8ea237" x="316.042684" y="196.720536" style="fill: #0c5da5; stroke: #0c5da5"/>
     <use xlink:href="#m74fc8ea237" x="388.510216" y="156.242237" style="fill: #0c5da5; stroke: #0c5da5"/>
     <use xlink:href="#m74fc8ea237" x="460.977748" y="102.865124" style="fill: #0c5da5; stroke: #0c5da5"/>
     <use xlink:href="#m74fc8ea237" x="533.445281" y="35.508281" style="fill: #0c5da5; stroke: #0c5da5"/>
     <use xlink:href="#m74fc8ea237" x="605.912813" y="113.643597" style="fill: #0c5da5; stroke: #0c5da5"/>
    </g>
   </g>
   <g id="patch_3">
    <path d="M 73.27645 353.028281 
L 73.27645 20.388281 
" style="fill: none; stroke: #000000; stroke-width: 0.5; stroke-linejoin: miter; stroke-linecap: square"/>
   </g>
   <g id="patch_4">
    <path d="M 631.27645 353.028281 
L 631.27645 20.388281 
" style="fill: none; stroke: #000000; stroke-width: 0.5; stroke-linejoin: miter; stroke-linecap: square"/>
   </g>
   <g id="patch_5">
    <path d="M 73.27645 353.028281 
L 631.27645 353.028281 
" style="fill: none; stroke: #000000; stroke-width: 0.5; stroke-linejoin: miter; stroke-linecap: square"/>
   </g>
   <g id="patch_6">
    <path d="M 73.27645 20.388281 
L 631.27645 20.388281 
" style="fill: none; stroke: #000000; stroke-width: 0.5; stroke-linejoin: miter; stroke-linecap: square"/>
   </g>
   <g id="text_19">
    <!-- 监管机构问询函内容长度随时间的变化趋势 -->
    <g transform="translate(209.77645 14.388281)scale(0.15 -0.15)">
     <defs>
      <path id="ArialUnicodeMS-76d1" d="M 5766 3884 
L 3884 3884 
Q 3534 2884 2919 2356 
L 2547 2688 
Q 3428 3409 3763 5247 
L 4166 5050 
Q 4119 4669 4025 4353 
L 5766 4353 
L 5766 3884 
z
M 2413 2144 
L 1925 2144 
L 1925 5234 
L 2413 5234 
L 2413 2144 
z
M 1191 2363 
L 703 2363 
L 703 4972 
L 1191 4972 
L 1191 2363 
z
M 5478 2681 
L 5131 2363 
Q 4716 2875 3975 3263 
L 4256 3591 
Q 5000 3266 5478 2681 
z
M 6034 -147 
L 331 -147 
L 331 319 
L 1081 319 
L 1081 2022 
L 5197 2022 
L 5197 319 
L 6034 319 
L 6034 -147 
z
M 4709 319 
L 4709 1556 
L 4019 1556 
L 4019 319 
L 4709 319 
z
M 3531 319 
L 3531 1556 
L 2797 1556 
L 2797 319 
L 3531 319 
z
M 2309 319 
L 2309 1556 
L 1569 1556 
L 1569 319 
L 2309 319 
z
" transform="scale(0.015625)"/>
      <path id="ArialUnicodeMS-7ba1" d="M 5947 4409 
L 4928 4409 
Q 5122 4216 5241 4006 
L 4806 3781 
Q 4603 4194 4372 4409 
L 3950 4409 
Q 3741 4053 3584 3922 
L 3488 3988 
L 3488 3713 
L 5772 3713 
L 5772 2509 
L 5288 2509 
L 5288 3244 
L 1088 3244 
L 1088 2463 
L 603 2463 
L 603 3713 
L 2994 3713 
L 2994 4122 
L 3297 4122 
L 3188 4191 
Q 3663 4688 3841 5409 
L 4288 5247 
Q 4225 4981 4159 4878 
L 5947 4878 
L 5947 4409 
z
M 3297 4384 
L 2309 4384 
Q 2422 4188 2547 4006 
L 2113 3769 
Q 1950 4163 1747 4384 
L 1375 4384 
Q 1103 4013 703 3738 
L 341 4084 
Q 975 4484 1381 5394 
L 1797 5197 
L 1638 4850 
L 3297 4850 
L 3297 4384 
z
M 5178 -416 
L 4691 -416 
L 4691 -38 
L 1931 -38 
L 1931 -434 
L 1447 -434 
L 1447 2931 
L 4897 2931 
L 4897 1613 
L 1931 1613 
L 1931 1300 
L 5178 1300 
L 5178 -416 
z
M 4409 2081 
L 4409 2463 
L 1931 2463 
L 1931 2081 
L 4409 2081 
z
M 4691 403 
L 4691 831 
L 1931 831 
L 1931 403 
L 4691 403 
z
" transform="scale(0.015625)"/>
      <path id="ArialUnicodeMS-673a" d="M 2919 1978 
L 2456 1691 
Q 2338 2156 2009 2584 
L 2009 -409 
L 1497 -409 
L 1497 2272 
Q 1250 1691 722 1147 
L 347 1472 
Q 1181 2325 1459 3616 
L 538 3616 
L 538 4078 
L 1503 4078 
L 1503 5294 
L 2009 5294 
L 2009 4078 
L 2894 4078 
L 2894 3616 
L 2009 3616 
L 2009 2981 
L 2209 3103 
Q 2716 2606 2919 1978 
z
M 6241 972 
Q 6075 153 5940 -12 
Q 5806 -178 5575 -178 
L 5141 -178 
Q 4666 -178 4666 213 
L 4666 4544 
L 3669 4544 
L 3669 1638 
Q 3669 491 2644 -469 
L 2209 -109 
Q 3181 769 3181 1703 
L 3181 5006 
L 5153 5006 
L 5153 366 
Q 5153 281 5269 281 
L 5472 281 
Q 5550 281 5615 412 
Q 5681 544 5791 1275 
L 6241 972 
z
" transform="scale(0.015625)"/>
      <path id="ArialUnicodeMS-6784" d="M 5881 4581 
L 5869 3028 
Q 5869 2181 5725 1093 
Q 5581 6 5389 -191 
Q 5197 -388 4941 -388 
Q 4788 -388 4384 -263 
L 4225 306 
Q 4341 275 4573 183 
Q 4806 91 4928 91 
Q 5066 91 5106 366 
L 5259 1369 
Q 5322 1784 5344 2297 
L 5409 4122 
L 3322 4122 
Q 3125 3428 2681 2803 
L 2259 3084 
Q 2956 4022 3059 5388 
L 3519 5234 
Q 3513 5059 3425 4581 
L 5881 4581 
z
M 2778 2088 
L 2369 1838 
Q 2175 2353 1856 2613 
L 1856 -378 
L 1375 -378 
L 1375 2203 
L 1363 2203 
Q 1194 1634 684 1038 
L 288 1338 
Q 1078 2188 1313 3628 
L 531 3628 
L 531 4097 
L 1369 4097 
L 1369 5338 
L 1856 5338 
L 1856 4097 
L 2584 4097 
L 2584 3634 
L 1856 3634 
L 1856 3022 
L 2022 3116 
Q 2672 2516 2778 2088 
z
M 5178 878 
L 4709 634 
Q 4669 1056 4628 1141 
Q 3647 997 3066 781 
L 2638 1241 
Q 3528 2541 3694 3719 
L 4172 3488 
Q 3866 2281 3475 1691 
L 3278 1388 
L 4475 1594 
Q 4456 1650 4345 1806 
Q 4234 1963 4184 2041 
L 4581 2259 
Q 5094 1675 5178 878 
z
" transform="scale(0.015625)"/>
      <path id="ArialUnicodeMS-5185" d="M 5538 84 
Q 5538 -341 4872 -341 
Q 4713 -341 4481 -331 
L 4294 141 
Q 4619 116 4800 116 
Q 5075 116 5075 281 
L 5075 3725 
L 3450 3725 
Q 3450 3322 3413 2938 
Q 4216 2334 4819 1300 
L 4428 1006 
Q 3994 1759 3263 2413 
Q 2831 1444 1772 872 
L 1478 1281 
Q 2225 1684 2600 2196 
Q 2975 2709 2975 3725 
L 1325 3725 
L 1325 -409 
L 838 -409 
L 838 4191 
L 3009 4191 
L 3009 5275 
L 3469 5275 
L 3469 4191 
L 5538 4191 
L 5538 84 
z
" transform="scale(0.015625)"/>
      <path id="ArialUnicodeMS-5bb9" d="M 5709 3541 
L 5222 3541 
L 5222 4263 
L 1197 4263 
L 1197 3494 
L 703 3494 
L 703 4728 
L 2944 4728 
L 2944 5338 
L 3444 5338 
L 3444 4728 
L 5709 4728 
L 5709 3541 
z
M 2578 3781 
Q 2113 3106 1075 2534 
L 684 2881 
Q 1809 3444 2228 4084 
L 2572 3781 
L 2578 3781 
z
M 5606 2906 
L 5275 2534 
Q 4678 3256 3713 3725 
L 4044 4078 
Q 5106 3541 5606 2906 
z
M 6100 1638 
L 5813 1228 
Q 5322 1391 4838 1638 
L 4838 -416 
L 4353 -416 
L 4353 -78 
L 2047 -78 
L 2047 -434 
L 1563 -434 
L 1563 1606 
Q 1256 1431 659 1172 
L 300 1581 
Q 2369 2325 3200 3694 
L 3603 3419 
L 3469 3225 
Q 4272 2256 6100 1638 
z
M 4550 1784 
Q 3631 2313 3213 2888 
Q 2597 2172 1844 1784 
L 4550 1784 
z
M 4347 1325 
L 2041 1325 
L 2041 391 
L 4347 391 
L 4347 1325 
z
" transform="scale(0.015625)"/>
      <path id="ArialUnicodeMS-968f" d="M 5844 4172 
L 4331 4172 
Q 4284 4009 4178 3809 
L 5594 3809 
L 5594 1094 
Q 5594 922 5487 803 
Q 5381 684 5216 684 
L 4647 684 
Q 4516 1028 4475 1178 
L 4991 1125 
Q 5106 1125 5106 1281 
L 5106 1644 
L 4025 1644 
L 4025 622 
L 3541 622 
L 3541 2772 
L 3391 2606 
L 3028 2975 
Q 3519 3409 3822 4172 
L 3059 4172 
L 3059 4641 
L 3975 4641 
Q 4084 5066 4122 5281 
L 4550 5106 
Q 4541 4884 4469 4641 
L 5844 4641 
L 5844 4172 
z
M 5106 2950 
L 5106 3341 
L 4025 3341 
L 4025 2950 
L 5106 2950 
z
M 5106 2088 
L 5106 2484 
L 4025 2484 
L 4025 2088 
L 5106 2088 
z
M 6028 341 
Q 5903 -6 5856 -178 
L 4091 -159 
Q 3359 -159 2853 500 
Q 2609 175 1997 -263 
L 1678 141 
Q 2278 606 2528 884 
L 2528 2503 
L 2181 2491 
Q 2328 2128 2328 1856 
Q 2328 1472 2122 1298 
Q 1916 1125 1684 1125 
Q 1556 1125 1428 1153 
L 1269 1684 
L 1638 1625 
Q 1875 1656 1875 1919 
Q 1875 2188 1203 3263 
L 1747 4556 
L 1119 4556 
L 1119 -409 
L 634 -409 
L 634 5025 
L 2278 5025 
L 2278 4609 
Q 1972 3703 1784 3291 
Q 1991 2953 2094 2669 
L 2100 2950 
L 2988 2950 
L 2988 1013 
Q 3281 606 3682 442 
Q 4084 278 4856 278 
Q 5313 278 6028 341 
z
M 3256 3553 
L 2834 3263 
Q 2625 3909 2272 4206 
L 2625 4475 
Q 3028 4138 3256 3553 
z
" transform="scale(0.015625)"/>
      <path id="ArialUnicodeMS-65f6" d="M 5931 3481 
L 5259 3481 
L 5259 72 
Q 5259 -122 5142 -259 
Q 5025 -397 4863 -397 
L 4281 -397 
L 4097 122 
L 4672 78 
Q 4775 66 4775 191 
L 4775 3481 
L 2784 3481 
L 2784 3950 
L 4775 3950 
L 4775 5306 
L 5259 5306 
L 5259 3950 
L 5931 3950 
L 5931 3481 
z
M 2463 97 
L 1978 97 
L 1978 569 
L 1147 569 
L 1147 97 
L 659 97 
L 659 4313 
L 2463 4313 
L 2463 97 
z
M 1978 2675 
L 1978 3847 
L 1147 3847 
L 1147 2675 
L 1978 2675 
z
M 1978 1038 
L 1978 2209 
L 1147 2209 
L 1147 1038 
L 1978 1038 
z
M 4306 1575 
L 3903 1300 
Q 3594 2103 2888 2725 
L 3272 2994 
Q 3997 2375 4306 1575 
z
" transform="scale(0.015625)"/>
      <path id="ArialUnicodeMS-95f4" d="M 2463 4313 
L 2088 4006 
Q 1600 4669 1094 4984 
L 1484 5247 
Q 2044 4888 2463 4313 
z
M 5497 178 
Q 5497 -50 5353 -181 
Q 5209 -313 4853 -313 
Q 4753 -313 4506 -300 
L 4366 147 
Q 4631 106 4806 106 
Q 4991 106 5002 142 
Q 5013 178 5013 275 
L 5013 4453 
L 2841 4453 
L 2841 4922 
L 5497 4922 
L 5497 178 
z
M 1125 -384 
L 641 -384 
L 641 4197 
L 1125 4197 
L 1125 -384 
z
M 4306 481 
L 3822 481 
L 3822 813 
L 2375 813 
L 2375 481 
L 1888 481 
L 1888 3669 
L 4306 3669 
L 4306 481 
z
M 3822 2559 
L 3822 3200 
L 2375 3200 
L 2375 2559 
L 3822 2559 
z
M 3822 1281 
L 3822 2094 
L 2375 2094 
L 2375 1281 
L 3822 1281 
z
" transform="scale(0.015625)"/>
      <path id="ArialUnicodeMS-7684" d="M 5644 4281 
Q 5619 1694 5395 673 
Q 5172 -347 4606 -347 
Q 4350 -347 3609 -134 
L 3525 403 
Q 4247 134 4531 134 
Q 4806 134 4976 1142 
Q 5147 2150 5159 3841 
L 3794 3841 
Q 3550 3166 3053 2497 
L 2719 2713 
L 2719 -147 
L 2216 -147 
L 2216 269 
L 1153 269 
L 1153 -250 
L 647 -250 
L 647 4184 
L 1234 4184 
Q 1494 4644 1625 5313 
L 2088 5125 
Q 1903 4444 1741 4184 
L 2719 4184 
L 2719 2881 
Q 3431 3888 3681 5363 
L 4191 5247 
Q 4106 4869 3916 4281 
L 5644 4281 
z
M 2216 2484 
L 2216 3719 
L 1153 3719 
L 1153 2484 
L 2216 2484 
z
M 2216 738 
L 2216 2016 
L 1153 2016 
L 1153 738 
L 2216 738 
z
M 4775 1369 
L 4313 1166 
Q 4034 1925 3444 2669 
L 3841 2931 
Q 4484 2191 4775 1369 
z
" transform="scale(0.015625)"/>
      <path id="ArialUnicodeMS-53d8" d="M 5813 4050 
L 3938 4050 
L 3938 2350 
L 3469 2350 
L 3481 4050 
L 2719 4050 
L 2719 2350 
L 2266 2350 
L 2266 4050 
L 372 4050 
L 372 4494 
L 3009 4494 
Q 2856 4744 2400 5031 
L 2694 5331 
Q 3203 5041 3513 4634 
L 3341 4513 
L 3341 4494 
L 5813 4494 
L 5813 4050 
z
M 1947 3519 
Q 1559 2866 775 2059 
L 416 2425 
Q 1016 2938 1594 3809 
L 1947 3519 
z
M 5838 2484 
L 5409 2209 
Q 5081 2878 4306 3488 
L 4653 3756 
Q 5550 3047 5838 2484 
z
M 5978 78 
L 5691 -366 
Q 5153 -297 4609 -142 
Q 4066 13 3188 481 
Q 2103 -150 519 -378 
Q 438 -222 244 63 
Q 1741 225 2753 775 
Q 2309 1069 1819 1784 
L 1350 1784 
L 1350 2253 
L 4603 2253 
L 4603 1791 
Q 4038 1091 3597 775 
Q 4497 263 5978 78 
z
M 3975 1784 
L 2413 1784 
Q 2641 1425 3188 1044 
Q 3763 1481 3975 1784 
z
" transform="scale(0.015625)"/>
      <path id="ArialUnicodeMS-5316" d="M 2431 5147 
Q 2322 4731 2081 4159 
L 1844 3603 
L 1844 -366 
L 1350 -366 
L 1350 2834 
Q 1006 2356 653 2075 
L 306 2444 
Q 1350 3319 2003 5350 
L 2431 5147 
z
M 6081 1325 
Q 5994 419 5786 114 
Q 5578 -191 5203 -191 
L 3872 -191 
Q 3534 -191 3339 -12 
Q 3144 166 3144 469 
L 3144 5178 
L 3628 5178 
L 3628 2853 
Q 4478 3413 5288 4488 
L 5709 4197 
Q 4800 2984 3628 2272 
L 3628 550 
Q 3628 288 3981 288 
L 5113 288 
Q 5553 288 5581 1503 
L 6081 1325 
z
" transform="scale(0.015625)"/>
      <path id="ArialUnicodeMS-8d8b" d="M 5588 422 
L 5100 422 
L 5100 684 
L 2881 684 
L 2881 1147 
L 5100 1147 
L 5100 1766 
L 3181 1766 
L 3181 2247 
L 5100 2247 
L 5100 2809 
L 3059 2809 
L 3059 3272 
L 4341 3272 
Q 4541 3550 4763 4013 
L 3788 4013 
Q 3544 3606 3150 3347 
L 2797 3706 
Q 3575 4272 3775 5275 
L 4206 5069 
Q 4178 4922 4112 4720 
Q 4047 4519 4038 4475 
L 5344 4475 
L 5344 4103 
Q 5009 3466 4897 3272 
L 5588 3272 
L 5588 422 
z
M 6003 281 
L 5831 -197 
L 4856 -225 
L 3097 -225 
Q 2422 -225 1978 -36 
Q 1534 153 1113 622 
Q 928 47 575 -459 
L 166 -122 
Q 581 450 681 917 
Q 781 1384 813 2363 
L 1269 2284 
Q 1269 1788 1209 1191 
Q 1459 869 1581 763 
L 1581 2675 
L 391 2675 
L 391 3156 
L 1394 3156 
L 1394 3891 
L 519 3891 
L 519 4372 
L 1394 4372 
L 1394 5247 
L 1881 5247 
L 1881 4372 
L 2784 4372 
L 2784 3891 
L 1881 3891 
L 1881 3156 
L 2906 3156 
L 2906 2675 
L 2069 2675 
L 2069 1931 
L 2906 1931 
L 2906 1472 
L 2069 1472 
L 2069 447 
Q 2497 238 3059 238 
L 4750 238 
L 6003 281 
z
" transform="scale(0.015625)"/>
      <path id="ArialUnicodeMS-52bf" d="M 6088 2772 
Q 5925 2363 5792 2206 
Q 5659 2050 5516 2050 
Q 5228 2050 5017 2598 
Q 4806 3147 4806 4134 
L 4213 4134 
Q 4172 3519 4025 3219 
Q 4241 3056 4563 2753 
L 4231 2431 
Q 3809 2825 3794 2828 
Q 3459 2425 2619 2100 
L 2322 2497 
Q 3125 2731 3391 3109 
Q 3103 3331 2834 3425 
L 3091 3788 
Q 3234 3734 3406 3628 
Q 3578 3522 3628 3500 
Q 3725 3688 3750 4134 
L 2869 4134 
L 2869 4603 
L 3750 4603 
L 3750 5331 
L 4213 5331 
L 4213 4603 
L 5269 4603 
Q 5284 3666 5318 3314 
Q 5353 2963 5538 2619 
Q 5616 2834 5672 3084 
L 6088 2772 
z
M 2694 3450 
L 2034 3278 
L 2034 2566 
Q 2034 2369 1921 2228 
Q 1809 2088 1625 2088 
L 1069 2088 
L 916 2559 
L 1428 2534 
Q 1463 2534 1506 2570 
Q 1550 2606 1550 2644 
L 1550 3163 
L 647 2950 
L 372 3397 
Q 981 3500 1550 3641 
L 1550 4238 
L 609 4238 
L 609 4703 
L 1550 4703 
L 1550 5331 
L 2034 5331 
L 2034 4703 
L 2656 4703 
L 2656 4238 
L 2034 4238 
L 2034 3731 
L 2694 3897 
L 2694 3450 
z
M 5434 1825 
Q 5434 1313 5343 689 
Q 5253 66 5083 -139 
Q 4913 -344 4634 -344 
Q 4488 -344 3928 -263 
L 3769 250 
L 4231 134 
Q 4403 128 4519 128 
Q 4666 128 4692 137 
Q 4719 147 4776 278 
Q 4834 409 4863 672 
L 4941 1356 
L 3450 1356 
Q 3038 -91 781 -366 
L 569 116 
Q 2350 209 2950 1356 
L 728 1356 
L 728 1825 
L 3041 1825 
L 3078 2181 
L 3553 2100 
L 3506 1825 
L 5434 1825 
z
" transform="scale(0.015625)"/>
     </defs>
     <use xlink:href="#ArialUnicodeMS-76d1"/>
     <use xlink:href="#ArialUnicodeMS-7ba1" x="100"/>
     <use xlink:href="#ArialUnicodeMS-673a" x="200"/>
     <use xlink:href="#ArialUnicodeMS-6784" x="300"/>
     <use xlink:href="#ArialUnicodeMS-95ee" x="400"/>
     <use xlink:href="#ArialUnicodeMS-8be2" x="500"/>
     <use xlink:href="#ArialUnicodeMS-51fd" x="600"/>
     <use xlink:href="#ArialUnicodeMS-5185" x="700"/>
     <use xlink:href="#ArialUnicodeMS-5bb9" x="800"/>
     <use xlink:href="#ArialUnicodeMS-957f" x="900"/>
     <use xlink:href="#ArialUnicodeMS-5ea6" x="1000"/>
     <use xlink:href="#ArialUnicodeMS-968f" x="1100"/>
     <use xlink:href="#ArialUnicodeMS-65f6" x="1200"/>
     <use xlink:href="#ArialUnicodeMS-95f4" x="1300"/>
     <use xlink:href="#ArialUnicodeMS-7684" x="1400"/>
     <use xlink:href="#ArialUnicodeMS-53d8" x="1500"/>
     <use xlink:href="#ArialUnicodeMS-5316" x="1600"/>
     <use xlink:href="#ArialUnicodeMS-8d8b" x="1700"/>
     <use xlink:href="#ArialUnicodeMS-52bf" x="1800"/>
    </g>
   </g>
  </g>
 </g>
 <defs>
  <clipPath id="p11ce04088a">
   <rect x="73.27645" y="20.388281" width="558" height="332.64"/>
  </clipPath>
 </defs>
</svg>
