<?xml version="1.0" encoding="utf-8" standalone="no"?>
<!DOCTYPE svg PUBLIC "-//W3C//DTD SVG 1.1//EN"
  "http://www.w3.org/Graphics/SVG/1.1/DTD/svg11.dtd">
<svg xmlns:xlink="http://www.w3.org/1999/xlink" width="609.821875pt" height="387.062344pt" viewBox="0 0 609.821875 387.062344" xmlns="http://www.w3.org/2000/svg" version="1.1">
 <metadata>
  <rdf:RDF xmlns:dc="http://purl.org/dc/elements/1.1/" xmlns:cc="http://creativecommons.org/ns#" xmlns:rdf="http://www.w3.org/1999/02/22-rdf-syntax-ns#">
   <cc:Work>
    <dc:type rdf:resource="http://purl.org/dc/dcmitype/StillImage"/>
    <dc:date>2023-04-18T00:05:43.810339</dc:date>
    <dc:format>image/svg+xml</dc:format>
    <dc:creator>
     <cc:Agent>
      <dc:title>Matplotlib v3.5.2, https://matplotlib.org/</dc:title>
     </cc:Agent>
    </dc:creator>
   </cc:Work>
  </rdf:RDF>
 </metadata>
 <defs>
  <style type="text/css">*{stroke-linejoin: round; stroke-linecap: butt}</style>
 </defs>
 <g id="figure_1">
  <g id="patch_1">
   <path d="M 0 387.062344 
L 609.821875 387.062344 
L 609.821875 0 
L 0 0 
z
" style="fill: #ffffff"/>
  </g>
  <g id="axes_1">
   <g id="patch_2">
    <path d="M 48.221875 354.917344 
L 606.221875 354.917344 
L 606.221875 22.277344 
L 48.221875 22.277344 
z
" style="fill: #ffffff"/>
   </g>
   <g id="matplotlib.axis_1">
    <g id="xtick_1">
     <g id="line2d_1">
      <defs>
       <path id="m4eb6b4ce52" d="M 0 0 
L 0 -3 
" style="stroke: #000000; stroke-width: 0.5"/>
      </defs>
      <g>
       <use xlink:href="#m4eb6b4ce52" x="73.585511" y="354.917344" style="stroke: #000000; stroke-width: 0.5"/>
      </g>
     </g>
     <g id="line2d_2">
      <defs>
       <path id="mabe6bdee0e" d="M 0 0 
L 0 3 
" style="stroke: #000000; stroke-width: 0.5"/>
      </defs>
      <g>
       <use xlink:href="#mabe6bdee0e" x="73.585511" y="22.277344" style="stroke: #000000; stroke-width: 0.5"/>
      </g>
     </g>
     <g id="text_1">
      <!-- 2014 -->
      <g transform="translate(62.463636 365.575156)scale(0.1 -0.1)">
       <defs>
        <path id="ArialUnicodeMS-32" d="M 3231 0 
L 197 0 
Q 197 388 467 784 
Q 738 1181 1478 1778 
Q 1931 2141 2287 2539 
Q 2644 2938 2644 3341 
Q 2644 3688 2398 3914 
Q 2153 4141 1778 4141 
Q 1400 4141 1144 3908 
Q 888 3675 884 3213 
L 306 3278 
Q 359 3922 764 4262 
Q 1169 4603 1791 4603 
Q 2466 4603 2842 4229 
Q 3219 3856 3219 3328 
Q 3219 2888 2901 2436 
Q 2584 1984 1638 1228 
Q 1141 831 978 544 
L 3231 544 
L 3231 0 
z
" transform="scale(0.015625)"/>
        <path id="ArialUnicodeMS-30" d="M 1778 4603 
Q 3272 4603 3272 2259 
Q 3272 1075 2886 498 
Q 2500 -78 1778 -78 
Q 288 -78 288 2259 
Q 288 3444 673 4023 
Q 1059 4603 1778 4603 
z
M 1778 384 
Q 2231 384 2462 823 
Q 2694 1263 2694 2259 
Q 2694 2953 2592 3351 
Q 2491 3750 2286 3945 
Q 2081 4141 1772 4141 
Q 1319 4141 1091 3694 
Q 863 3247 863 2259 
Q 863 1575 966 1175 
Q 1069 775 1272 579 
Q 1475 384 1778 384 
z
" transform="scale(0.015625)"/>
        <path id="ArialUnicodeMS-31" d="M 2400 0 
L 1838 0 
L 1838 3584 
Q 1416 3184 709 2906 
L 709 3450 
Q 1681 3916 2034 4603 
L 2400 4603 
L 2400 0 
z
" transform="scale(0.015625)"/>
        <path id="ArialUnicodeMS-34" d="M 3263 1094 
L 2644 1094 
L 2644 0 
L 2081 0 
L 2081 1094 
L 97 1094 
L 97 1613 
L 2181 4581 
L 2644 4581 
L 2644 1613 
L 3263 1613 
L 3263 1094 
z
M 2081 1613 
L 2081 3681 
L 2069 3681 
L 647 1613 
L 2081 1613 
z
" transform="scale(0.015625)"/>
       </defs>
       <use xlink:href="#ArialUnicodeMS-32"/>
       <use xlink:href="#ArialUnicodeMS-30" x="55.615234"/>
       <use xlink:href="#ArialUnicodeMS-31" x="111.230469"/>
       <use xlink:href="#ArialUnicodeMS-34" x="166.845703"/>
      </g>
     </g>
    </g>
    <g id="xtick_2">
     <g id="line2d_3">
      <g>
       <use xlink:href="#m4eb6b4ce52" x="146.053044" y="354.917344" style="stroke: #000000; stroke-width: 0.5"/>
      </g>
     </g>
     <g id="line2d_4">
      <g>
       <use xlink:href="#mabe6bdee0e" x="146.053044" y="22.277344" style="stroke: #000000; stroke-width: 0.5"/>
      </g>
     </g>
     <g id="text_2">
      <!-- 2015 -->
      <g transform="translate(134.931169 365.575156)scale(0.1 -0.1)">
       <defs>
        <path id="ArialUnicodeMS-35" d="M 1013 2753 
Q 1431 3041 1881 3041 
Q 2453 3041 2878 2636 
Q 3303 2231 3303 1556 
Q 3303 875 2872 398 
Q 2441 -78 1741 -78 
Q 1169 -78 750 245 
Q 331 569 269 1203 
L 856 1247 
Q 928 813 1162 598 
Q 1397 384 1741 384 
Q 2169 384 2434 707 
Q 2700 1031 2700 1503 
Q 2700 1984 2428 2262 
Q 2156 2541 1728 2541 
Q 1188 2541 897 2100 
L 366 2163 
L 813 4519 
L 3084 4519 
L 3084 3975 
L 1259 3975 
L 1013 2753 
z
" transform="scale(0.015625)"/>
       </defs>
       <use xlink:href="#ArialUnicodeMS-32"/>
       <use xlink:href="#ArialUnicodeMS-30" x="55.615234"/>
       <use xlink:href="#ArialUnicodeMS-31" x="111.230469"/>
       <use xlink:href="#ArialUnicodeMS-35" x="166.845703"/>
      </g>
     </g>
    </g>
    <g id="xtick_3">
     <g id="line2d_5">
      <g>
       <use xlink:href="#m4eb6b4ce52" x="218.520576" y="354.917344" style="stroke: #000000; stroke-width: 0.5"/>
      </g>
     </g>
     <g id="line2d_6">
      <g>
       <use xlink:href="#mabe6bdee0e" x="218.520576" y="22.277344" style="stroke: #000000; stroke-width: 0.5"/>
      </g>
     </g>
     <g id="text_3">
      <!-- 2016 -->
      <g transform="translate(207.398701 365.575156)scale(0.1 -0.1)">
       <defs>
        <path id="ArialUnicodeMS-36" d="M 838 2363 
Q 1225 2969 1941 2969 
Q 2503 2969 2897 2553 
Q 3291 2138 3291 1491 
Q 3291 838 2898 380 
Q 2506 -78 1856 -78 
Q 1197 -78 733 409 
Q 269 897 269 2144 
Q 269 3369 689 3986 
Q 1109 4603 1906 4603 
Q 2422 4603 2778 4315 
Q 3134 4028 3213 3463 
L 2650 3413 
Q 2497 4141 1875 4141 
Q 1444 4141 1134 3712 
Q 825 3284 825 2363 
L 838 2363 
z
M 1844 384 
Q 2231 384 2472 696 
Q 2713 1009 2713 1453 
Q 2713 1897 2472 2187 
Q 2231 2478 1825 2478 
Q 1453 2478 1184 2204 
Q 916 1931 916 1484 
Q 916 1028 1180 706 
Q 1444 384 1844 384 
z
" transform="scale(0.015625)"/>
       </defs>
       <use xlink:href="#ArialUnicodeMS-32"/>
       <use xlink:href="#ArialUnicodeMS-30" x="55.615234"/>
       <use xlink:href="#ArialUnicodeMS-31" x="111.230469"/>
       <use xlink:href="#ArialUnicodeMS-36" x="166.845703"/>
      </g>
     </g>
    </g>
    <g id="xtick_4">
     <g id="line2d_7">
      <g>
       <use xlink:href="#m4eb6b4ce52" x="290.988109" y="354.917344" style="stroke: #000000; stroke-width: 0.5"/>
      </g>
     </g>
     <g id="line2d_8">
      <g>
       <use xlink:href="#mabe6bdee0e" x="290.988109" y="22.277344" style="stroke: #000000; stroke-width: 0.5"/>
      </g>
     </g>
     <g id="text_4">
      <!-- 2017 -->
      <g transform="translate(279.866234 365.575156)scale(0.1 -0.1)">
       <defs>
        <path id="ArialUnicodeMS-37" d="M 3272 4084 
Q 2597 3344 2103 2253 
Q 1609 1163 1522 0 
L 947 0 
Q 969 934 1408 2051 
Q 1847 3169 2547 3975 
L 306 3975 
L 306 4519 
L 3272 4519 
L 3272 4084 
z
" transform="scale(0.015625)"/>
       </defs>
       <use xlink:href="#ArialUnicodeMS-32"/>
       <use xlink:href="#ArialUnicodeMS-30" x="55.615234"/>
       <use xlink:href="#ArialUnicodeMS-31" x="111.230469"/>
       <use xlink:href="#ArialUnicodeMS-37" x="166.845703"/>
      </g>
     </g>
    </g>
    <g id="xtick_5">
     <g id="line2d_9">
      <g>
       <use xlink:href="#m4eb6b4ce52" x="363.455641" y="354.917344" style="stroke: #000000; stroke-width: 0.5"/>
      </g>
     </g>
     <g id="line2d_10">
      <g>
       <use xlink:href="#mabe6bdee0e" x="363.455641" y="22.277344" style="stroke: #000000; stroke-width: 0.5"/>
      </g>
     </g>
     <g id="text_5">
      <!-- 2018 -->
      <g transform="translate(352.333766 365.575156)scale(0.1 -0.1)">
       <defs>
        <path id="ArialUnicodeMS-38" d="M 2425 2478 
Q 3284 2203 3284 1306 
Q 3284 716 2862 319 
Q 2441 -78 1778 -78 
Q 1109 -78 689 322 
Q 269 722 269 1325 
Q 269 1759 505 2084 
Q 741 2409 1141 2478 
L 1141 2491 
Q 453 2703 453 3419 
Q 453 3925 815 4264 
Q 1178 4603 1766 4603 
Q 2363 4603 2730 4253 
Q 3097 3903 3097 3406 
Q 3097 2731 2425 2491 
L 2425 2478 
z
M 1778 2700 
Q 2094 2700 2308 2901 
Q 2522 3103 2522 3406 
Q 2522 3716 2305 3928 
Q 2088 4141 1772 4141 
Q 1450 4141 1240 3931 
Q 1031 3722 1031 3438 
Q 1031 3097 1247 2898 
Q 1463 2700 1778 2700 
z
M 1778 384 
Q 2175 384 2440 640 
Q 2706 897 2706 1306 
Q 2706 1716 2432 1978 
Q 2159 2241 1766 2241 
Q 1356 2241 1100 1970 
Q 844 1700 844 1319 
Q 844 922 1108 653 
Q 1372 384 1778 384 
z
" transform="scale(0.015625)"/>
       </defs>
       <use xlink:href="#ArialUnicodeMS-32"/>
       <use xlink:href="#ArialUnicodeMS-30" x="55.615234"/>
       <use xlink:href="#ArialUnicodeMS-31" x="111.230469"/>
       <use xlink:href="#ArialUnicodeMS-38" x="166.845703"/>
      </g>
     </g>
    </g>
    <g id="xtick_6">
     <g id="line2d_11">
      <g>
       <use xlink:href="#m4eb6b4ce52" x="435.923174" y="354.917344" style="stroke: #000000; stroke-width: 0.5"/>
      </g>
     </g>
     <g id="line2d_12">
      <g>
       <use xlink:href="#mabe6bdee0e" x="435.923174" y="22.277344" style="stroke: #000000; stroke-width: 0.5"/>
      </g>
     </g>
     <g id="text_6">
      <!-- 2019 -->
      <g transform="translate(424.801299 365.575156)scale(0.1 -0.1)">
       <defs>
        <path id="ArialUnicodeMS-39" d="M 2713 2156 
Q 2547 1888 2258 1722 
Q 1969 1556 1631 1556 
Q 1066 1556 670 1970 
Q 275 2384 275 3053 
Q 275 3734 678 4168 
Q 1081 4603 1716 4603 
Q 2353 4603 2818 4106 
Q 3284 3609 3284 2388 
Q 3284 1147 2859 534 
Q 2434 -78 1644 -78 
Q 1128 -78 781 205 
Q 434 488 359 1063 
L 897 1106 
Q 1025 384 1656 384 
Q 2175 384 2450 857 
Q 2725 1331 2725 2156 
L 2713 2156 
z
M 1766 2047 
Q 2178 2047 2420 2339 
Q 2663 2631 2663 3078 
Q 2663 3531 2414 3836 
Q 2166 4141 1778 4141 
Q 1388 4141 1119 3817 
Q 850 3494 850 3034 
Q 850 2600 1114 2323 
Q 1378 2047 1766 2047 
z
" transform="scale(0.015625)"/>
       </defs>
       <use xlink:href="#ArialUnicodeMS-32"/>
       <use xlink:href="#ArialUnicodeMS-30" x="55.615234"/>
       <use xlink:href="#ArialUnicodeMS-31" x="111.230469"/>
       <use xlink:href="#ArialUnicodeMS-39" x="166.845703"/>
      </g>
     </g>
    </g>
    <g id="xtick_7">
     <g id="line2d_13">
      <g>
       <use xlink:href="#m4eb6b4ce52" x="508.390706" y="354.917344" style="stroke: #000000; stroke-width: 0.5"/>
      </g>
     </g>
     <g id="line2d_14">
      <g>
       <use xlink:href="#mabe6bdee0e" x="508.390706" y="22.277344" style="stroke: #000000; stroke-width: 0.5"/>
      </g>
     </g>
     <g id="text_7">
      <!-- 2020 -->
      <g transform="translate(497.268831 365.575156)scale(0.1 -0.1)">
       <use xlink:href="#ArialUnicodeMS-32"/>
       <use xlink:href="#ArialUnicodeMS-30" x="55.615234"/>
       <use xlink:href="#ArialUnicodeMS-32" x="111.230469"/>
       <use xlink:href="#ArialUnicodeMS-30" x="166.845703"/>
      </g>
     </g>
    </g>
    <g id="xtick_8">
     <g id="line2d_15">
      <g>
       <use xlink:href="#m4eb6b4ce52" x="580.858239" y="354.917344" style="stroke: #000000; stroke-width: 0.5"/>
      </g>
     </g>
     <g id="line2d_16">
      <g>
       <use xlink:href="#mabe6bdee0e" x="580.858239" y="22.277344" style="stroke: #000000; stroke-width: 0.5"/>
      </g>
     </g>
     <g id="text_8">
      <!-- 2021 -->
      <g transform="translate(569.736364 365.575156)scale(0.1 -0.1)">
       <use xlink:href="#ArialUnicodeMS-32"/>
       <use xlink:href="#ArialUnicodeMS-30" x="55.615234"/>
       <use xlink:href="#ArialUnicodeMS-32" x="111.230469"/>
       <use xlink:href="#ArialUnicodeMS-31" x="166.845703"/>
      </g>
     </g>
    </g>
    <g id="xtick_9">
     <g id="line2d_17">
      <defs>
       <path id="m3d2d0be9bb" d="M 0 0 
L 0 -1.5 
" style="stroke: #000000; stroke-width: 0.5"/>
      </defs>
      <g>
       <use xlink:href="#m3d2d0be9bb" x="59.092005" y="354.917344" style="stroke: #000000; stroke-width: 0.5"/>
      </g>
     </g>
     <g id="line2d_18">
      <defs>
       <path id="m3e9cbfe1e2" d="M 0 0 
L 0 1.5 
" style="stroke: #000000; stroke-width: 0.5"/>
      </defs>
      <g>
       <use xlink:href="#m3e9cbfe1e2" x="59.092005" y="22.277344" style="stroke: #000000; stroke-width: 0.5"/>
      </g>
     </g>
    </g>
    <g id="xtick_10">
     <g id="line2d_19">
      <g>
       <use xlink:href="#m3d2d0be9bb" x="88.079018" y="354.917344" style="stroke: #000000; stroke-width: 0.5"/>
      </g>
     </g>
     <g id="line2d_20">
      <g>
       <use xlink:href="#m3e9cbfe1e2" x="88.079018" y="22.277344" style="stroke: #000000; stroke-width: 0.5"/>
      </g>
     </g>
    </g>
    <g id="xtick_11">
     <g id="line2d_21">
      <g>
       <use xlink:href="#m3d2d0be9bb" x="102.572524" y="354.917344" style="stroke: #000000; stroke-width: 0.5"/>
      </g>
     </g>
     <g id="line2d_22">
      <g>
       <use xlink:href="#m3e9cbfe1e2" x="102.572524" y="22.277344" style="stroke: #000000; stroke-width: 0.5"/>
      </g>
     </g>
    </g>
    <g id="xtick_12">
     <g id="line2d_23">
      <g>
       <use xlink:href="#m3d2d0be9bb" x="117.066031" y="354.917344" style="stroke: #000000; stroke-width: 0.5"/>
      </g>
     </g>
     <g id="line2d_24">
      <g>
       <use xlink:href="#m3e9cbfe1e2" x="117.066031" y="22.277344" style="stroke: #000000; stroke-width: 0.5"/>
      </g>
     </g>
    </g>
    <g id="xtick_13">
     <g id="line2d_25">
      <g>
       <use xlink:href="#m3d2d0be9bb" x="131.559537" y="354.917344" style="stroke: #000000; stroke-width: 0.5"/>
      </g>
     </g>
     <g id="line2d_26">
      <g>
       <use xlink:href="#m3e9cbfe1e2" x="131.559537" y="22.277344" style="stroke: #000000; stroke-width: 0.5"/>
      </g>
     </g>
    </g>
    <g id="xtick_14">
     <g id="line2d_27">
      <g>
       <use xlink:href="#m3d2d0be9bb" x="160.54655" y="354.917344" style="stroke: #000000; stroke-width: 0.5"/>
      </g>
     </g>
     <g id="line2d_28">
      <g>
       <use xlink:href="#m3e9cbfe1e2" x="160.54655" y="22.277344" style="stroke: #000000; stroke-width: 0.5"/>
      </g>
     </g>
    </g>
    <g id="xtick_15">
     <g id="line2d_29">
      <g>
       <use xlink:href="#m3d2d0be9bb" x="175.040057" y="354.917344" style="stroke: #000000; stroke-width: 0.5"/>
      </g>
     </g>
     <g id="line2d_30">
      <g>
       <use xlink:href="#m3e9cbfe1e2" x="175.040057" y="22.277344" style="stroke: #000000; stroke-width: 0.5"/>
      </g>
     </g>
    </g>
    <g id="xtick_16">
     <g id="line2d_31">
      <g>
       <use xlink:href="#m3d2d0be9bb" x="189.533563" y="354.917344" style="stroke: #000000; stroke-width: 0.5"/>
      </g>
     </g>
     <g id="line2d_32">
      <g>
       <use xlink:href="#m3e9cbfe1e2" x="189.533563" y="22.277344" style="stroke: #000000; stroke-width: 0.5"/>
      </g>
     </g>
    </g>
    <g id="xtick_17">
     <g id="line2d_33">
      <g>
       <use xlink:href="#m3d2d0be9bb" x="204.02707" y="354.917344" style="stroke: #000000; stroke-width: 0.5"/>
      </g>
     </g>
     <g id="line2d_34">
      <g>
       <use xlink:href="#m3e9cbfe1e2" x="204.02707" y="22.277344" style="stroke: #000000; stroke-width: 0.5"/>
      </g>
     </g>
    </g>
    <g id="xtick_18">
     <g id="line2d_35">
      <g>
       <use xlink:href="#m3d2d0be9bb" x="233.014083" y="354.917344" style="stroke: #000000; stroke-width: 0.5"/>
      </g>
     </g>
     <g id="line2d_36">
      <g>
       <use xlink:href="#m3e9cbfe1e2" x="233.014083" y="22.277344" style="stroke: #000000; stroke-width: 0.5"/>
      </g>
     </g>
    </g>
    <g id="xtick_19">
     <g id="line2d_37">
      <g>
       <use xlink:href="#m3d2d0be9bb" x="247.507589" y="354.917344" style="stroke: #000000; stroke-width: 0.5"/>
      </g>
     </g>
     <g id="line2d_38">
      <g>
       <use xlink:href="#m3e9cbfe1e2" x="247.507589" y="22.277344" style="stroke: #000000; stroke-width: 0.5"/>
      </g>
     </g>
    </g>
    <g id="xtick_20">
     <g id="line2d_39">
      <g>
       <use xlink:href="#m3d2d0be9bb" x="262.001096" y="354.917344" style="stroke: #000000; stroke-width: 0.5"/>
      </g>
     </g>
     <g id="line2d_40">
      <g>
       <use xlink:href="#m3e9cbfe1e2" x="262.001096" y="22.277344" style="stroke: #000000; stroke-width: 0.5"/>
      </g>
     </g>
    </g>
    <g id="xtick_21">
     <g id="line2d_41">
      <g>
       <use xlink:href="#m3d2d0be9bb" x="276.494602" y="354.917344" style="stroke: #000000; stroke-width: 0.5"/>
      </g>
     </g>
     <g id="line2d_42">
      <g>
       <use xlink:href="#m3e9cbfe1e2" x="276.494602" y="22.277344" style="stroke: #000000; stroke-width: 0.5"/>
      </g>
     </g>
    </g>
    <g id="xtick_22">
     <g id="line2d_43">
      <g>
       <use xlink:href="#m3d2d0be9bb" x="305.481615" y="354.917344" style="stroke: #000000; stroke-width: 0.5"/>
      </g>
     </g>
     <g id="line2d_44">
      <g>
       <use xlink:href="#m3e9cbfe1e2" x="305.481615" y="22.277344" style="stroke: #000000; stroke-width: 0.5"/>
      </g>
     </g>
    </g>
    <g id="xtick_23">
     <g id="line2d_45">
      <g>
       <use xlink:href="#m3d2d0be9bb" x="319.975122" y="354.917344" style="stroke: #000000; stroke-width: 0.5"/>
      </g>
     </g>
     <g id="line2d_46">
      <g>
       <use xlink:href="#m3e9cbfe1e2" x="319.975122" y="22.277344" style="stroke: #000000; stroke-width: 0.5"/>
      </g>
     </g>
    </g>
    <g id="xtick_24">
     <g id="line2d_47">
      <g>
       <use xlink:href="#m3d2d0be9bb" x="334.468628" y="354.917344" style="stroke: #000000; stroke-width: 0.5"/>
      </g>
     </g>
     <g id="line2d_48">
      <g>
       <use xlink:href="#m3e9cbfe1e2" x="334.468628" y="22.277344" style="stroke: #000000; stroke-width: 0.5"/>
      </g>
     </g>
    </g>
    <g id="xtick_25">
     <g id="line2d_49">
      <g>
       <use xlink:href="#m3d2d0be9bb" x="348.962135" y="354.917344" style="stroke: #000000; stroke-width: 0.5"/>
      </g>
     </g>
     <g id="line2d_50">
      <g>
       <use xlink:href="#m3e9cbfe1e2" x="348.962135" y="22.277344" style="stroke: #000000; stroke-width: 0.5"/>
      </g>
     </g>
    </g>
    <g id="xtick_26">
     <g id="line2d_51">
      <g>
       <use xlink:href="#m3d2d0be9bb" x="377.949148" y="354.917344" style="stroke: #000000; stroke-width: 0.5"/>
      </g>
     </g>
     <g id="line2d_52">
      <g>
       <use xlink:href="#m3e9cbfe1e2" x="377.949148" y="22.277344" style="stroke: #000000; stroke-width: 0.5"/>
      </g>
     </g>
    </g>
    <g id="xtick_27">
     <g id="line2d_53">
      <g>
       <use xlink:href="#m3d2d0be9bb" x="392.442654" y="354.917344" style="stroke: #000000; stroke-width: 0.5"/>
      </g>
     </g>
     <g id="line2d_54">
      <g>
       <use xlink:href="#m3e9cbfe1e2" x="392.442654" y="22.277344" style="stroke: #000000; stroke-width: 0.5"/>
      </g>
     </g>
    </g>
    <g id="xtick_28">
     <g id="line2d_55">
      <g>
       <use xlink:href="#m3d2d0be9bb" x="406.936161" y="354.917344" style="stroke: #000000; stroke-width: 0.5"/>
      </g>
     </g>
     <g id="line2d_56">
      <g>
       <use xlink:href="#m3e9cbfe1e2" x="406.936161" y="22.277344" style="stroke: #000000; stroke-width: 0.5"/>
      </g>
     </g>
    </g>
    <g id="xtick_29">
     <g id="line2d_57">
      <g>
       <use xlink:href="#m3d2d0be9bb" x="421.429667" y="354.917344" style="stroke: #000000; stroke-width: 0.5"/>
      </g>
     </g>
     <g id="line2d_58">
      <g>
       <use xlink:href="#m3e9cbfe1e2" x="421.429667" y="22.277344" style="stroke: #000000; stroke-width: 0.5"/>
      </g>
     </g>
    </g>
    <g id="xtick_30">
     <g id="line2d_59">
      <g>
       <use xlink:href="#m3d2d0be9bb" x="450.41668" y="354.917344" style="stroke: #000000; stroke-width: 0.5"/>
      </g>
     </g>
     <g id="line2d_60">
      <g>
       <use xlink:href="#m3e9cbfe1e2" x="450.41668" y="22.277344" style="stroke: #000000; stroke-width: 0.5"/>
      </g>
     </g>
    </g>
    <g id="xtick_31">
     <g id="line2d_61">
      <g>
       <use xlink:href="#m3d2d0be9bb" x="464.910187" y="354.917344" style="stroke: #000000; stroke-width: 0.5"/>
      </g>
     </g>
     <g id="line2d_62">
      <g>
       <use xlink:href="#m3e9cbfe1e2" x="464.910187" y="22.277344" style="stroke: #000000; stroke-width: 0.5"/>
      </g>
     </g>
    </g>
    <g id="xtick_32">
     <g id="line2d_63">
      <g>
       <use xlink:href="#m3d2d0be9bb" x="479.403693" y="354.917344" style="stroke: #000000; stroke-width: 0.5"/>
      </g>
     </g>
     <g id="line2d_64">
      <g>
       <use xlink:href="#m3e9cbfe1e2" x="479.403693" y="22.277344" style="stroke: #000000; stroke-width: 0.5"/>
      </g>
     </g>
    </g>
    <g id="xtick_33">
     <g id="line2d_65">
      <g>
       <use xlink:href="#m3d2d0be9bb" x="493.8972" y="354.917344" style="stroke: #000000; stroke-width: 0.5"/>
      </g>
     </g>
     <g id="line2d_66">
      <g>
       <use xlink:href="#m3e9cbfe1e2" x="493.8972" y="22.277344" style="stroke: #000000; stroke-width: 0.5"/>
      </g>
     </g>
    </g>
    <g id="xtick_34">
     <g id="line2d_67">
      <g>
       <use xlink:href="#m3d2d0be9bb" x="522.884213" y="354.917344" style="stroke: #000000; stroke-width: 0.5"/>
      </g>
     </g>
     <g id="line2d_68">
      <g>
       <use xlink:href="#m3e9cbfe1e2" x="522.884213" y="22.277344" style="stroke: #000000; stroke-width: 0.5"/>
      </g>
     </g>
    </g>
    <g id="xtick_35">
     <g id="line2d_69">
      <g>
       <use xlink:href="#m3d2d0be9bb" x="537.377719" y="354.917344" style="stroke: #000000; stroke-width: 0.5"/>
      </g>
     </g>
     <g id="line2d_70">
      <g>
       <use xlink:href="#m3e9cbfe1e2" x="537.377719" y="22.277344" style="stroke: #000000; stroke-width: 0.5"/>
      </g>
     </g>
    </g>
    <g id="xtick_36">
     <g id="line2d_71">
      <g>
       <use xlink:href="#m3d2d0be9bb" x="551.871226" y="354.917344" style="stroke: #000000; stroke-width: 0.5"/>
      </g>
     </g>
     <g id="line2d_72">
      <g>
       <use xlink:href="#m3e9cbfe1e2" x="551.871226" y="22.277344" style="stroke: #000000; stroke-width: 0.5"/>
      </g>
     </g>
    </g>
    <g id="xtick_37">
     <g id="line2d_73">
      <g>
       <use xlink:href="#m3d2d0be9bb" x="566.364732" y="354.917344" style="stroke: #000000; stroke-width: 0.5"/>
      </g>
     </g>
     <g id="line2d_74">
      <g>
       <use xlink:href="#m3e9cbfe1e2" x="566.364732" y="22.277344" style="stroke: #000000; stroke-width: 0.5"/>
      </g>
     </g>
    </g>
    <g id="xtick_38">
     <g id="line2d_75">
      <g>
       <use xlink:href="#m3d2d0be9bb" x="595.351745" y="354.917344" style="stroke: #000000; stroke-width: 0.5"/>
      </g>
     </g>
     <g id="line2d_76">
      <g>
       <use xlink:href="#m3e9cbfe1e2" x="595.351745" y="22.277344" style="stroke: #000000; stroke-width: 0.5"/>
      </g>
     </g>
    </g>
    <g id="text_9">
     <!-- 年份 -->
     <g transform="translate(314.221875 380.8725)scale(0.13 -0.13)">
      <defs>
       <path id="ArialUnicodeMS-5e74" d="M 5869 1409 
L 3659 1409 
L 3659 -434 
L 3156 -434 
L 3156 1409 
L 659 1409 
L 659 1875 
L 1459 1875 
L 1459 3384 
L 3156 3384 
L 3156 4219 
L 1838 4219 
Q 1425 3363 953 2931 
L 550 3256 
Q 1381 3994 1734 5381 
L 2144 5184 
Q 2122 4997 2022 4684 
L 5606 4684 
L 5606 4219 
L 3659 4219 
L 3659 3384 
L 5294 3384 
L 5294 2919 
L 3659 2919 
L 3659 1875 
L 5869 1875 
L 5869 1409 
z
M 3156 1875 
L 3156 2919 
L 1947 2919 
L 1947 1875 
L 3156 1875 
z
" transform="scale(0.015625)"/>
       <path id="ArialUnicodeMS-4efd" d="M 6194 2875 
L 5778 2553 
Q 5528 2697 5294 2969 
Q 5269 1894 5181 1111 
Q 5094 328 4944 25 
Q 4794 -278 4372 -278 
Q 4047 -278 3609 -166 
L 3456 372 
Q 4003 178 4359 178 
Q 4475 178 4525 333 
Q 4575 488 4667 1075 
Q 4759 1663 4781 2559 
L 3916 2559 
Q 3822 219 2234 -447 
L 1888 -78 
Q 3416 516 3444 2559 
L 2625 2559 
L 2625 2975 
Q 2409 2722 2150 2484 
L 1813 2759 
L 1813 -475 
L 1325 -475 
L 1325 2816 
L 1319 2828 
Q 1319 2813 1131 2617 
Q 944 2422 738 2253 
L 319 2534 
Q 1466 3466 2009 5300 
L 2450 5094 
Q 2328 4681 2069 4116 
L 1813 3572 
L 1813 2834 
Q 2794 3716 3103 4897 
L 3475 4678 
Q 3244 3744 2669 3028 
L 5241 3028 
Q 4750 3606 4459 4494 
L 3506 4494 
L 3500 4953 
L 4825 4953 
Q 5241 3419 6194 2875 
z
" transform="scale(0.015625)"/>
      </defs>
      <use xlink:href="#ArialUnicodeMS-5e74"/>
      <use xlink:href="#ArialUnicodeMS-4efd" x="100"/>
     </g>
    </g>
   </g>
   <g id="matplotlib.axis_2">
    <g id="ytick_1">
     <g id="line2d_77">
      <defs>
       <path id="ma2adcac859" d="M 0 0 
L 3 0 
" style="stroke: #000000; stroke-width: 0.5"/>
      </defs>
      <g>
       <use xlink:href="#ma2adcac859" x="48.221875" y="339.797344" style="stroke: #000000; stroke-width: 0.5"/>
      </g>
     </g>
     <g id="line2d_78">
      <defs>
       <path id="m127ce9ea4e" d="M 0 0 
L -3 0 
" style="stroke: #000000; stroke-width: 0.5"/>
      </defs>
      <g>
       <use xlink:href="#m127ce9ea4e" x="606.221875" y="339.797344" style="stroke: #000000; stroke-width: 0.5"/>
      </g>
     </g>
     <g id="text_10">
      <!-- 8 -->
      <g transform="translate(39.160938 343.37625)scale(0.1 -0.1)">
       <use xlink:href="#ArialUnicodeMS-38"/>
      </g>
     </g>
    </g>
    <g id="ytick_2">
     <g id="line2d_79">
      <g>
       <use xlink:href="#ma2adcac859" x="48.221875" y="299.590801" style="stroke: #000000; stroke-width: 0.5"/>
      </g>
     </g>
     <g id="line2d_80">
      <g>
       <use xlink:href="#m127ce9ea4e" x="606.221875" y="299.590801" style="stroke: #000000; stroke-width: 0.5"/>
      </g>
     </g>
     <g id="text_11">
      <!-- 10 -->
      <g transform="translate(33.6 303.169708)scale(0.1 -0.1)">
       <use xlink:href="#ArialUnicodeMS-31"/>
       <use xlink:href="#ArialUnicodeMS-30" x="55.615234"/>
      </g>
     </g>
    </g>
    <g id="ytick_3">
     <g id="line2d_81">
      <g>
       <use xlink:href="#ma2adcac859" x="48.221875" y="259.384259" style="stroke: #000000; stroke-width: 0.5"/>
      </g>
     </g>
     <g id="line2d_82">
      <g>
       <use xlink:href="#m127ce9ea4e" x="606.221875" y="259.384259" style="stroke: #000000; stroke-width: 0.5"/>
      </g>
     </g>
     <g id="text_12">
      <!-- 12 -->
      <g transform="translate(33.6 262.963165)scale(0.1 -0.1)">
       <use xlink:href="#ArialUnicodeMS-31"/>
       <use xlink:href="#ArialUnicodeMS-32" x="55.615234"/>
      </g>
     </g>
    </g>
    <g id="ytick_4">
     <g id="line2d_83">
      <g>
       <use xlink:href="#ma2adcac859" x="48.221875" y="219.177717" style="stroke: #000000; stroke-width: 0.5"/>
      </g>
     </g>
     <g id="line2d_84">
      <g>
       <use xlink:href="#m127ce9ea4e" x="606.221875" y="219.177717" style="stroke: #000000; stroke-width: 0.5"/>
      </g>
     </g>
     <g id="text_13">
      <!-- 14 -->
      <g transform="translate(33.6 222.756623)scale(0.1 -0.1)">
       <use xlink:href="#ArialUnicodeMS-31"/>
       <use xlink:href="#ArialUnicodeMS-34" x="55.615234"/>
      </g>
     </g>
    </g>
    <g id="ytick_5">
     <g id="line2d_85">
      <g>
       <use xlink:href="#ma2adcac859" x="48.221875" y="178.971174" style="stroke: #000000; stroke-width: 0.5"/>
      </g>
     </g>
     <g id="line2d_86">
      <g>
       <use xlink:href="#m127ce9ea4e" x="606.221875" y="178.971174" style="stroke: #000000; stroke-width: 0.5"/>
      </g>
     </g>
     <g id="text_14">
      <!-- 16 -->
      <g transform="translate(33.6 182.55008)scale(0.1 -0.1)">
       <use xlink:href="#ArialUnicodeMS-31"/>
       <use xlink:href="#ArialUnicodeMS-36" x="55.615234"/>
      </g>
     </g>
    </g>
    <g id="ytick_6">
     <g id="line2d_87">
      <g>
       <use xlink:href="#ma2adcac859" x="48.221875" y="138.764632" style="stroke: #000000; stroke-width: 0.5"/>
      </g>
     </g>
     <g id="line2d_88">
      <g>
       <use xlink:href="#m127ce9ea4e" x="606.221875" y="138.764632" style="stroke: #000000; stroke-width: 0.5"/>
      </g>
     </g>
     <g id="text_15">
      <!-- 18 -->
      <g transform="translate(33.6 142.343538)scale(0.1 -0.1)">
       <use xlink:href="#ArialUnicodeMS-31"/>
       <use xlink:href="#ArialUnicodeMS-38" x="55.615234"/>
      </g>
     </g>
    </g>
    <g id="ytick_7">
     <g id="line2d_89">
      <g>
       <use xlink:href="#ma2adcac859" x="48.221875" y="98.558089" style="stroke: #000000; stroke-width: 0.5"/>
      </g>
     </g>
     <g id="line2d_90">
      <g>
       <use xlink:href="#m127ce9ea4e" x="606.221875" y="98.558089" style="stroke: #000000; stroke-width: 0.5"/>
      </g>
     </g>
     <g id="text_16">
      <!-- 20 -->
      <g transform="translate(33.6 102.136996)scale(0.1 -0.1)">
       <use xlink:href="#ArialUnicodeMS-32"/>
       <use xlink:href="#ArialUnicodeMS-30" x="55.615234"/>
      </g>
     </g>
    </g>
    <g id="ytick_8">
     <g id="line2d_91">
      <g>
       <use xlink:href="#ma2adcac859" x="48.221875" y="58.351547" style="stroke: #000000; stroke-width: 0.5"/>
      </g>
     </g>
     <g id="line2d_92">
      <g>
       <use xlink:href="#m127ce9ea4e" x="606.221875" y="58.351547" style="stroke: #000000; stroke-width: 0.5"/>
      </g>
     </g>
     <g id="text_17">
      <!-- 22 -->
      <g transform="translate(33.6 61.930453)scale(0.1 -0.1)">
       <use xlink:href="#ArialUnicodeMS-32"/>
       <use xlink:href="#ArialUnicodeMS-32" x="55.615234"/>
      </g>
     </g>
    </g>
    <g id="ytick_9">
     <g id="line2d_93">
      <defs>
       <path id="m6c165c0c24" d="M 0 0 
L 1.5 0 
" style="stroke: #000000; stroke-width: 0.5"/>
      </defs>
      <g>
       <use xlink:href="#m6c165c0c24" x="48.221875" y="349.848979" style="stroke: #000000; stroke-width: 0.5"/>
      </g>
     </g>
     <g id="line2d_94">
      <defs>
       <path id="m9cf9bb41c6" d="M 0 0 
L -1.5 0 
" style="stroke: #000000; stroke-width: 0.5"/>
      </defs>
      <g>
       <use xlink:href="#m9cf9bb41c6" x="606.221875" y="349.848979" style="stroke: #000000; stroke-width: 0.5"/>
      </g>
     </g>
    </g>
    <g id="ytick_10">
     <g id="line2d_95">
      <g>
       <use xlink:href="#m6c165c0c24" x="48.221875" y="329.745708" style="stroke: #000000; stroke-width: 0.5"/>
      </g>
     </g>
     <g id="line2d_96">
      <g>
       <use xlink:href="#m9cf9bb41c6" x="606.221875" y="329.745708" style="stroke: #000000; stroke-width: 0.5"/>
      </g>
     </g>
    </g>
    <g id="ytick_11">
     <g id="line2d_97">
      <g>
       <use xlink:href="#m6c165c0c24" x="48.221875" y="319.694073" style="stroke: #000000; stroke-width: 0.5"/>
      </g>
     </g>
     <g id="line2d_98">
      <g>
       <use xlink:href="#m9cf9bb41c6" x="606.221875" y="319.694073" style="stroke: #000000; stroke-width: 0.5"/>
      </g>
     </g>
    </g>
    <g id="ytick_12">
     <g id="line2d_99">
      <g>
       <use xlink:href="#m6c165c0c24" x="48.221875" y="309.642437" style="stroke: #000000; stroke-width: 0.5"/>
      </g>
     </g>
     <g id="line2d_100">
      <g>
       <use xlink:href="#m9cf9bb41c6" x="606.221875" y="309.642437" style="stroke: #000000; stroke-width: 0.5"/>
      </g>
     </g>
    </g>
    <g id="ytick_13">
     <g id="line2d_101">
      <g>
       <use xlink:href="#m6c165c0c24" x="48.221875" y="289.539166" style="stroke: #000000; stroke-width: 0.5"/>
      </g>
     </g>
     <g id="line2d_102">
      <g>
       <use xlink:href="#m9cf9bb41c6" x="606.221875" y="289.539166" style="stroke: #000000; stroke-width: 0.5"/>
      </g>
     </g>
    </g>
    <g id="ytick_14">
     <g id="line2d_103">
      <g>
       <use xlink:href="#m6c165c0c24" x="48.221875" y="279.48753" style="stroke: #000000; stroke-width: 0.5"/>
      </g>
     </g>
     <g id="line2d_104">
      <g>
       <use xlink:href="#m9cf9bb41c6" x="606.221875" y="279.48753" style="stroke: #000000; stroke-width: 0.5"/>
      </g>
     </g>
    </g>
    <g id="ytick_15">
     <g id="line2d_105">
      <g>
       <use xlink:href="#m6c165c0c24" x="48.221875" y="269.435895" style="stroke: #000000; stroke-width: 0.5"/>
      </g>
     </g>
     <g id="line2d_106">
      <g>
       <use xlink:href="#m9cf9bb41c6" x="606.221875" y="269.435895" style="stroke: #000000; stroke-width: 0.5"/>
      </g>
     </g>
    </g>
    <g id="ytick_16">
     <g id="line2d_107">
      <g>
       <use xlink:href="#m6c165c0c24" x="48.221875" y="249.332623" style="stroke: #000000; stroke-width: 0.5"/>
      </g>
     </g>
     <g id="line2d_108">
      <g>
       <use xlink:href="#m9cf9bb41c6" x="606.221875" y="249.332623" style="stroke: #000000; stroke-width: 0.5"/>
      </g>
     </g>
    </g>
    <g id="ytick_17">
     <g id="line2d_109">
      <g>
       <use xlink:href="#m6c165c0c24" x="48.221875" y="239.280988" style="stroke: #000000; stroke-width: 0.5"/>
      </g>
     </g>
     <g id="line2d_110">
      <g>
       <use xlink:href="#m9cf9bb41c6" x="606.221875" y="239.280988" style="stroke: #000000; stroke-width: 0.5"/>
      </g>
     </g>
    </g>
    <g id="ytick_18">
     <g id="line2d_111">
      <g>
       <use xlink:href="#m6c165c0c24" x="48.221875" y="229.229352" style="stroke: #000000; stroke-width: 0.5"/>
      </g>
     </g>
     <g id="line2d_112">
      <g>
       <use xlink:href="#m9cf9bb41c6" x="606.221875" y="229.229352" style="stroke: #000000; stroke-width: 0.5"/>
      </g>
     </g>
    </g>
    <g id="ytick_19">
     <g id="line2d_113">
      <g>
       <use xlink:href="#m6c165c0c24" x="48.221875" y="209.126081" style="stroke: #000000; stroke-width: 0.5"/>
      </g>
     </g>
     <g id="line2d_114">
      <g>
       <use xlink:href="#m9cf9bb41c6" x="606.221875" y="209.126081" style="stroke: #000000; stroke-width: 0.5"/>
      </g>
     </g>
    </g>
    <g id="ytick_20">
     <g id="line2d_115">
      <g>
       <use xlink:href="#m6c165c0c24" x="48.221875" y="199.074445" style="stroke: #000000; stroke-width: 0.5"/>
      </g>
     </g>
     <g id="line2d_116">
      <g>
       <use xlink:href="#m9cf9bb41c6" x="606.221875" y="199.074445" style="stroke: #000000; stroke-width: 0.5"/>
      </g>
     </g>
    </g>
    <g id="ytick_21">
     <g id="line2d_117">
      <g>
       <use xlink:href="#m6c165c0c24" x="48.221875" y="189.02281" style="stroke: #000000; stroke-width: 0.5"/>
      </g>
     </g>
     <g id="line2d_118">
      <g>
       <use xlink:href="#m9cf9bb41c6" x="606.221875" y="189.02281" style="stroke: #000000; stroke-width: 0.5"/>
      </g>
     </g>
    </g>
    <g id="ytick_22">
     <g id="line2d_119">
      <g>
       <use xlink:href="#m6c165c0c24" x="48.221875" y="168.919539" style="stroke: #000000; stroke-width: 0.5"/>
      </g>
     </g>
     <g id="line2d_120">
      <g>
       <use xlink:href="#m9cf9bb41c6" x="606.221875" y="168.919539" style="stroke: #000000; stroke-width: 0.5"/>
      </g>
     </g>
    </g>
    <g id="ytick_23">
     <g id="line2d_121">
      <g>
       <use xlink:href="#m6c165c0c24" x="48.221875" y="158.867903" style="stroke: #000000; stroke-width: 0.5"/>
      </g>
     </g>
     <g id="line2d_122">
      <g>
       <use xlink:href="#m9cf9bb41c6" x="606.221875" y="158.867903" style="stroke: #000000; stroke-width: 0.5"/>
      </g>
     </g>
    </g>
    <g id="ytick_24">
     <g id="line2d_123">
      <g>
       <use xlink:href="#m6c165c0c24" x="48.221875" y="148.816267" style="stroke: #000000; stroke-width: 0.5"/>
      </g>
     </g>
     <g id="line2d_124">
      <g>
       <use xlink:href="#m9cf9bb41c6" x="606.221875" y="148.816267" style="stroke: #000000; stroke-width: 0.5"/>
      </g>
     </g>
    </g>
    <g id="ytick_25">
     <g id="line2d_125">
      <g>
       <use xlink:href="#m6c165c0c24" x="48.221875" y="128.712996" style="stroke: #000000; stroke-width: 0.5"/>
      </g>
     </g>
     <g id="line2d_126">
      <g>
       <use xlink:href="#m9cf9bb41c6" x="606.221875" y="128.712996" style="stroke: #000000; stroke-width: 0.5"/>
      </g>
     </g>
    </g>
    <g id="ytick_26">
     <g id="line2d_127">
      <g>
       <use xlink:href="#m6c165c0c24" x="48.221875" y="118.661361" style="stroke: #000000; stroke-width: 0.5"/>
      </g>
     </g>
     <g id="line2d_128">
      <g>
       <use xlink:href="#m9cf9bb41c6" x="606.221875" y="118.661361" style="stroke: #000000; stroke-width: 0.5"/>
      </g>
     </g>
    </g>
    <g id="ytick_27">
     <g id="line2d_129">
      <g>
       <use xlink:href="#m6c165c0c24" x="48.221875" y="108.609725" style="stroke: #000000; stroke-width: 0.5"/>
      </g>
     </g>
     <g id="line2d_130">
      <g>
       <use xlink:href="#m9cf9bb41c6" x="606.221875" y="108.609725" style="stroke: #000000; stroke-width: 0.5"/>
      </g>
     </g>
    </g>
    <g id="ytick_28">
     <g id="line2d_131">
      <g>
       <use xlink:href="#m6c165c0c24" x="48.221875" y="88.506454" style="stroke: #000000; stroke-width: 0.5"/>
      </g>
     </g>
     <g id="line2d_132">
      <g>
       <use xlink:href="#m9cf9bb41c6" x="606.221875" y="88.506454" style="stroke: #000000; stroke-width: 0.5"/>
      </g>
     </g>
    </g>
    <g id="ytick_29">
     <g id="line2d_133">
      <g>
       <use xlink:href="#m6c165c0c24" x="48.221875" y="78.454818" style="stroke: #000000; stroke-width: 0.5"/>
      </g>
     </g>
     <g id="line2d_134">
      <g>
       <use xlink:href="#m9cf9bb41c6" x="606.221875" y="78.454818" style="stroke: #000000; stroke-width: 0.5"/>
      </g>
     </g>
    </g>
    <g id="ytick_30">
     <g id="line2d_135">
      <g>
       <use xlink:href="#m6c165c0c24" x="48.221875" y="68.403183" style="stroke: #000000; stroke-width: 0.5"/>
      </g>
     </g>
     <g id="line2d_136">
      <g>
       <use xlink:href="#m9cf9bb41c6" x="606.221875" y="68.403183" style="stroke: #000000; stroke-width: 0.5"/>
      </g>
     </g>
    </g>
    <g id="ytick_31">
     <g id="line2d_137">
      <g>
       <use xlink:href="#m6c165c0c24" x="48.221875" y="48.299911" style="stroke: #000000; stroke-width: 0.5"/>
      </g>
     </g>
     <g id="line2d_138">
      <g>
       <use xlink:href="#m9cf9bb41c6" x="606.221875" y="48.299911" style="stroke: #000000; stroke-width: 0.5"/>
      </g>
     </g>
    </g>
    <g id="ytick_32">
     <g id="line2d_139">
      <g>
       <use xlink:href="#m6c165c0c24" x="48.221875" y="38.248276" style="stroke: #000000; stroke-width: 0.5"/>
      </g>
     </g>
     <g id="line2d_140">
      <g>
       <use xlink:href="#m9cf9bb41c6" x="606.221875" y="38.248276" style="stroke: #000000; stroke-width: 0.5"/>
      </g>
     </g>
    </g>
    <g id="ytick_33">
     <g id="line2d_141">
      <g>
       <use xlink:href="#m6c165c0c24" x="48.221875" y="28.19664" style="stroke: #000000; stroke-width: 0.5"/>
      </g>
     </g>
     <g id="line2d_142">
      <g>
       <use xlink:href="#m9cf9bb41c6" x="606.221875" y="28.19664" style="stroke: #000000; stroke-width: 0.5"/>
      </g>
     </g>
    </g>
    <g id="text_18">
     <!-- 准备天数 -->
     <g transform="translate(3.6 186.0075)scale(0.13 -0.13)">
      <defs>
       <path id="ArialUnicodeMS-51c6" d="M 6081 56 
L 2944 56 
L 2944 -416 
L 2450 -416 
L 2450 3181 
Q 2297 2922 2028 2638 
L 1538 2859 
Q 2488 3813 2900 5344 
L 3353 5172 
Q 3178 4503 3028 4197 
L 4072 4197 
Q 4394 4750 4500 5338 
L 4972 5172 
Q 4900 4766 4641 4197 
L 5869 4197 
L 5869 3731 
L 4563 3731 
L 4563 3034 
L 5672 3034 
L 5672 2566 
L 4563 2566 
L 4563 1813 
L 5672 1813 
L 5672 1344 
L 4563 1344 
L 4563 525 
L 6081 525 
L 6081 56 
z
M 4078 3034 
L 4078 3731 
L 2944 3731 
L 2944 3034 
L 4078 3034 
z
M 4078 1813 
L 4078 2566 
L 2944 2566 
L 2944 1813 
L 4078 1813 
z
M 4078 525 
L 4078 1344 
L 2944 1344 
L 2944 525 
L 4078 525 
z
M 1931 3878 
L 1503 3603 
Q 1103 4347 581 4684 
L 1025 4947 
Q 1456 4669 1931 3878 
z
M 1825 2413 
Q 1728 1144 825 -97 
L 366 172 
Q 1266 1400 1331 2572 
L 1825 2413 
z
" transform="scale(0.015625)"/>
       <path id="ArialUnicodeMS-5907" d="M 5953 2316 
L 5722 1875 
Q 5131 1984 4872 2075 
L 4872 -403 
L 4384 -403 
L 4384 -44 
L 1838 -44 
L 1838 -403 
L 1350 -403 
L 1350 2034 
Q 903 1922 519 1850 
L 275 2297 
Q 1931 2553 2797 3066 
Q 2216 3456 1888 4019 
Q 1478 3531 750 3059 
L 434 3456 
Q 1588 4141 2119 5294 
L 2503 5081 
Q 2466 4984 2430 4921 
Q 2394 4859 2394 4856 
L 4838 4856 
L 4838 4434 
Q 4294 3559 3591 3047 
Q 5009 2378 5953 2316 
z
M 4238 4391 
L 2163 4391 
Q 2509 3778 3188 3322 
Q 3691 3581 4238 4391 
z
M 4281 2259 
L 4281 2278 
Q 3775 2394 3188 2772 
Q 2609 2400 2041 2278 
L 2041 2259 
L 4281 2259 
z
M 4384 1369 
L 4384 1791 
L 3359 1791 
L 3359 1369 
L 4384 1369 
z
M 2875 1369 
L 2875 1791 
L 1838 1791 
L 1838 1369 
L 2875 1369 
z
M 4384 422 
L 4384 903 
L 3359 903 
L 3359 422 
L 4384 422 
z
M 2875 422 
L 2875 903 
L 1838 903 
L 1838 422 
L 2875 422 
z
" transform="scale(0.015625)"/>
       <path id="ArialUnicodeMS-5929" d="M 6059 72 
L 5703 -325 
Q 3722 569 3347 2509 
Q 3175 1638 2472 863 
Q 1769 88 806 -319 
L 391 103 
Q 2447 900 2828 2613 
L 897 2613 
L 897 3078 
L 2913 3078 
Q 2981 3484 3003 4494 
L 703 4494 
L 703 4978 
L 5797 4978 
L 5797 4494 
L 3525 4494 
Q 3506 3403 3469 3078 
L 5619 3078 
L 5619 2613 
L 3828 2613 
Q 4159 956 6059 72 
z
" transform="scale(0.015625)"/>
       <path id="ArialUnicodeMS-6570" d="M 6138 19 
L 5806 -378 
Q 5031 194 4697 716 
Q 4344 144 3328 -441 
L 2981 -50 
Q 3966 434 4403 1153 
Q 4038 1834 3866 2753 
Q 3678 2356 3353 1919 
L 2950 2203 
Q 3838 3172 3963 5253 
L 4409 5125 
Q 4341 4384 4269 4006 
L 5984 4006 
L 5984 3547 
L 5619 3541 
L 5594 3341 
Q 5441 2113 4978 1191 
Q 5281 672 6138 19 
z
M 5166 3541 
L 4172 3541 
Q 4297 2419 4691 1650 
Q 5038 2513 5166 3541 
z
M 3438 3653 
L 2209 3653 
L 2209 2338 
L 1919 2338 
Q 1900 2269 1753 1931 
L 3225 1931 
L 3225 1472 
L 2913 1472 
Q 2763 991 2503 666 
Q 2947 353 3103 184 
L 2747 -172 
Q 2463 138 2150 313 
Q 1322 -225 563 -428 
L 269 6 
Q 1106 163 1684 563 
Q 1291 756 703 884 
L 1038 1472 
L 403 1472 
L 403 1931 
L 1259 1931 
Q 1328 2056 1466 2553 
L 1747 2484 
L 1747 3653 
L 1716 3653 
Q 1413 2881 678 2456 
L 378 2803 
Q 938 3091 1241 3653 
L 403 3653 
L 403 4122 
L 1747 4122 
L 1747 5228 
L 2209 5228 
L 2209 4122 
L 3438 4122 
L 3438 3653 
z
M 2406 1472 
L 1538 1472 
Q 1422 1241 1369 1153 
Q 1388 1159 2069 884 
Q 2219 1031 2406 1472 
z
M 1625 4441 
L 1288 4159 
Q 1022 4547 575 4813 
L 878 5075 
Q 1394 4844 1625 4441 
z
M 3384 4844 
Q 3097 4409 2669 4172 
L 2322 4481 
Q 2806 4759 3047 5069 
L 3384 4844 
z
M 3303 2888 
L 2944 2578 
Q 2706 3025 2291 3297 
L 2584 3566 
Q 2988 3359 3303 2888 
z
" transform="scale(0.015625)"/>
      </defs>
      <use xlink:href="#ArialUnicodeMS-51c6"/>
      <use xlink:href="#ArialUnicodeMS-5907" x="100"/>
      <use xlink:href="#ArialUnicodeMS-5929" x="200"/>
      <use xlink:href="#ArialUnicodeMS-6570" x="300"/>
     </g>
    </g>
   </g>
   <g id="line2d_143">
    <path d="M 73.585511 339.797344 
L 146.053044 307.907758 
L 218.520576 276.34227 
L 290.988109 255.296964 
L 363.455641 247.504453 
L 435.923174 220.838792 
L 508.390706 259.3467 
L 580.858239 37.397344 
" clip-path="url(#p63f771d5f6)" style="fill: none; stroke: #0c5da5; stroke-linecap: square"/>
    <defs>
     <path id="m0c6e70db35" d="M 0 3 
C 0.795609 3 1.55874 2.683901 2.12132 2.12132 
C 2.683901 1.55874 3 0.795609 3 0 
C 3 -0.795609 2.683901 -1.55874 2.12132 -2.12132 
C 1.55874 -2.683901 0.795609 -3 0 -3 
C -0.795609 -3 -1.55874 -2.683901 -2.12132 -2.12132 
C -2.683901 -1.55874 -3 -0.795609 -3 0 
C -3 0.795609 -2.683901 1.55874 -2.12132 2.12132 
C -1.55874 2.683901 -0.795609 3 0 3 
z
" style="stroke: #0c5da5"/>
    </defs>
    <g clip-path="url(#p63f771d5f6)">
     <use xlink:href="#m0c6e70db35" x="73.585511" y="339.797344" style="fill: #0c5da5; stroke: #0c5da5"/>
     <use xlink:href="#m0c6e70db35" x="146.053044" y="307.907758" style="fill: #0c5da5; stroke: #0c5da5"/>
     <use xlink:href="#m0c6e70db35" x="218.520576" y="276.34227" style="fill: #0c5da5; stroke: #0c5da5"/>
     <use xlink:href="#m0c6e70db35" x="290.988109" y="255.296964" style="fill: #0c5da5; stroke: #0c5da5"/>
     <use xlink:href="#m0c6e70db35" x="363.455641" y="247.504453" style="fill: #0c5da5; stroke: #0c5da5"/>
     <use xlink:href="#m0c6e70db35" x="435.923174" y="220.838792" style="fill: #0c5da5; stroke: #0c5da5"/>
     <use xlink:href="#m0c6e70db35" x="508.390706" y="259.3467" style="fill: #0c5da5; stroke: #0c5da5"/>
     <use xlink:href="#m0c6e70db35" x="580.858239" y="37.397344" style="fill: #0c5da5; stroke: #0c5da5"/>
    </g>
   </g>
   <g id="patch_3">
    <path d="M 48.221875 354.917344 
L 48.221875 22.277344 
" style="fill: none; stroke: #000000; stroke-width: 0.5; stroke-linejoin: miter; stroke-linecap: square"/>
   </g>
   <g id="patch_4">
    <path d="M 606.221875 354.917344 
L 606.221875 22.277344 
" style="fill: none; stroke: #000000; stroke-width: 0.5; stroke-linejoin: miter; stroke-linecap: square"/>
   </g>
   <g id="patch_5">
    <path d="M 48.221875 354.917344 
L 606.221875 354.917344 
" style="fill: none; stroke: #000000; stroke-width: 0.5; stroke-linejoin: miter; stroke-linecap: square"/>
   </g>
   <g id="patch_6">
    <path d="M 48.221875 22.277344 
L 606.221875 22.277344 
" style="fill: none; stroke: #000000; stroke-width: 0.5; stroke-linejoin: miter; stroke-linecap: square"/>
   </g>
   <g id="text_19">
    <!-- 公司为回复监管机构问询函所需准备的时间(单位: 天) -->
    <g transform="translate(153.060156 16.277344)scale(0.15 -0.15)">
     <defs>
      <path id="ArialUnicodeMS-516c" d="M 2553 4934 
Q 2391 4238 1856 3447 
Q 1322 2656 703 2194 
L 325 2572 
Q 941 3003 1428 3715 
Q 1916 4428 2094 5147 
L 2553 4934 
z
M 6119 2566 
L 5741 2188 
Q 5122 2647 4587 3439 
Q 4053 4231 3891 4928 
L 4353 5141 
Q 4534 4416 5021 3705 
Q 5509 2994 6119 2566 
z
M 5472 -122 
L 4984 -347 
Q 4916 -106 4703 347 
L 2897 200 
Q 1791 122 1113 31 
L 909 563 
L 1631 622 
Q 2425 1697 2809 3169 
L 3303 3003 
Q 2875 1572 2222 647 
L 4494 800 
Q 4141 1366 3809 1678 
L 4281 1888 
Q 5069 1134 5472 -122 
z
" transform="scale(0.015625)"/>
      <path id="ArialUnicodeMS-53f8" d="M 5672 141 
Q 5672 -403 5025 -403 
L 4391 -403 
L 4225 134 
Q 4453 103 5006 103 
Q 5166 103 5166 263 
L 5166 4569 
L 1025 4569 
L 1025 5056 
L 5672 5056 
L 5672 141 
z
M 4831 3444 
L 709 3444 
L 709 3928 
L 4831 3928 
L 4831 3444 
z
M 4147 453 
L 3641 453 
L 3641 909 
L 1931 909 
L 1931 434 
L 1428 434 
L 1428 2816 
L 4147 2816 
L 4147 453 
z
M 3641 1375 
L 3641 2350 
L 1931 2350 
L 1931 1375 
L 3641 1375 
z
" transform="scale(0.015625)"/>
      <path id="ArialUnicodeMS-4e3a" d="M 5350 3828 
L 5306 2566 
Q 5281 1881 5236 1293 
Q 5191 706 5117 340 
Q 5044 -25 4945 -145 
Q 4847 -266 4720 -327 
Q 4594 -388 4428 -388 
Q 4206 -388 3700 -275 
L 3622 225 
Q 3725 206 3978 145 
Q 4231 84 4384 84 
Q 4459 84 4545 143 
Q 4631 203 4731 1045 
Q 4831 1888 4863 3359 
L 3181 3359 
Q 3169 2088 2673 1128 
Q 2178 169 953 -416 
L 622 13 
Q 1219 216 1762 723 
Q 2306 1231 2511 2029 
Q 2716 2828 2694 3359 
L 525 3359 
L 525 3828 
L 2694 3828 
L 2694 5294 
Q 3047 5306 3181 5306 
L 3181 3828 
L 5350 3828 
z
M 2284 4231 
L 1869 3903 
Q 1706 4347 1056 4781 
L 1453 5081 
Q 2041 4650 2284 4231 
z
M 4500 1350 
L 4063 1081 
Q 3913 1684 3219 2419 
L 3622 2656 
Q 4219 2072 4500 1350 
z
" transform="scale(0.015625)"/>
      <path id="ArialUnicodeMS-56de" d="M 5575 -134 
L 5088 -147 
L 5088 313 
L 1313 313 
L 1313 -191 
L 825 -191 
L 825 4825 
L 5575 4825 
L 5575 -134 
z
M 5088 794 
L 5088 4366 
L 1313 4366 
L 1313 794 
L 5088 794 
z
M 4378 1509 
L 1997 1509 
L 1997 3653 
L 4378 3653 
L 4378 1509 
z
M 3891 1972 
L 3891 3194 
L 2484 3194 
L 2484 1972 
L 3891 1972 
z
" transform="scale(0.015625)"/>
      <path id="ArialUnicodeMS-590d" d="M 6106 84 
L 5819 -391 
Q 4316 -269 3419 72 
Q 2341 -347 659 -416 
L 353 103 
Q 1988 91 2859 372 
Q 2338 700 2075 966 
Q 1744 719 1369 525 
L 1025 884 
Q 2088 1463 2291 1991 
L 1581 1991 
L 1581 3609 
Q 963 3019 763 2900 
L 359 3219 
Q 1472 3894 1931 5306 
L 2375 5113 
Q 2341 4950 2209 4684 
L 5691 4684 
L 5684 4219 
L 1978 4219 
Q 1947 4178 1883 4068 
Q 1819 3959 1784 3916 
L 5050 3916 
L 5050 1991 
L 2656 1991 
L 2656 1978 
L 2822 1875 
L 2663 1650 
L 5056 1650 
L 5056 1209 
Q 4731 819 4025 372 
Q 4581 163 6106 84 
z
M 4550 3200 
L 4550 3463 
L 2075 3463 
L 2075 3200 
L 4550 3200 
z
M 4550 2463 
L 4550 2731 
L 2075 2731 
L 2075 2463 
L 4550 2463 
z
M 4325 1184 
L 2516 1184 
Q 2953 794 3438 609 
Q 4066 931 4325 1184 
z
" transform="scale(0.015625)"/>
      <path id="ArialUnicodeMS-76d1" d="M 5766 3884 
L 3884 3884 
Q 3534 2884 2919 2356 
L 2547 2688 
Q 3428 3409 3763 5247 
L 4166 5050 
Q 4119 4669 4025 4353 
L 5766 4353 
L 5766 3884 
z
M 2413 2144 
L 1925 2144 
L 1925 5234 
L 2413 5234 
L 2413 2144 
z
M 1191 2363 
L 703 2363 
L 703 4972 
L 1191 4972 
L 1191 2363 
z
M 5478 2681 
L 5131 2363 
Q 4716 2875 3975 3263 
L 4256 3591 
Q 5000 3266 5478 2681 
z
M 6034 -147 
L 331 -147 
L 331 319 
L 1081 319 
L 1081 2022 
L 5197 2022 
L 5197 319 
L 6034 319 
L 6034 -147 
z
M 4709 319 
L 4709 1556 
L 4019 1556 
L 4019 319 
L 4709 319 
z
M 3531 319 
L 3531 1556 
L 2797 1556 
L 2797 319 
L 3531 319 
z
M 2309 319 
L 2309 1556 
L 1569 1556 
L 1569 319 
L 2309 319 
z
" transform="scale(0.015625)"/>
      <path id="ArialUnicodeMS-7ba1" d="M 5947 4409 
L 4928 4409 
Q 5122 4216 5241 4006 
L 4806 3781 
Q 4603 4194 4372 4409 
L 3950 4409 
Q 3741 4053 3584 3922 
L 3488 3988 
L 3488 3713 
L 5772 3713 
L 5772 2509 
L 5288 2509 
L 5288 3244 
L 1088 3244 
L 1088 2463 
L 603 2463 
L 603 3713 
L 2994 3713 
L 2994 4122 
L 3297 4122 
L 3188 4191 
Q 3663 4688 3841 5409 
L 4288 5247 
Q 4225 4981 4159 4878 
L 5947 4878 
L 5947 4409 
z
M 3297 4384 
L 2309 4384 
Q 2422 4188 2547 4006 
L 2113 3769 
Q 1950 4163 1747 4384 
L 1375 4384 
Q 1103 4013 703 3738 
L 341 4084 
Q 975 4484 1381 5394 
L 1797 5197 
L 1638 4850 
L 3297 4850 
L 3297 4384 
z
M 5178 -416 
L 4691 -416 
L 4691 -38 
L 1931 -38 
L 1931 -434 
L 1447 -434 
L 1447 2931 
L 4897 2931 
L 4897 1613 
L 1931 1613 
L 1931 1300 
L 5178 1300 
L 5178 -416 
z
M 4409 2081 
L 4409 2463 
L 1931 2463 
L 1931 2081 
L 4409 2081 
z
M 4691 403 
L 4691 831 
L 1931 831 
L 1931 403 
L 4691 403 
z
" transform="scale(0.015625)"/>
      <path id="ArialUnicodeMS-673a" d="M 2919 1978 
L 2456 1691 
Q 2338 2156 2009 2584 
L 2009 -409 
L 1497 -409 
L 1497 2272 
Q 1250 1691 722 1147 
L 347 1472 
Q 1181 2325 1459 3616 
L 538 3616 
L 538 4078 
L 1503 4078 
L 1503 5294 
L 2009 5294 
L 2009 4078 
L 2894 4078 
L 2894 3616 
L 2009 3616 
L 2009 2981 
L 2209 3103 
Q 2716 2606 2919 1978 
z
M 6241 972 
Q 6075 153 5940 -12 
Q 5806 -178 5575 -178 
L 5141 -178 
Q 4666 -178 4666 213 
L 4666 4544 
L 3669 4544 
L 3669 1638 
Q 3669 491 2644 -469 
L 2209 -109 
Q 3181 769 3181 1703 
L 3181 5006 
L 5153 5006 
L 5153 366 
Q 5153 281 5269 281 
L 5472 281 
Q 5550 281 5615 412 
Q 5681 544 5791 1275 
L 6241 972 
z
" transform="scale(0.015625)"/>
      <path id="ArialUnicodeMS-6784" d="M 5881 4581 
L 5869 3028 
Q 5869 2181 5725 1093 
Q 5581 6 5389 -191 
Q 5197 -388 4941 -388 
Q 4788 -388 4384 -263 
L 4225 306 
Q 4341 275 4573 183 
Q 4806 91 4928 91 
Q 5066 91 5106 366 
L 5259 1369 
Q 5322 1784 5344 2297 
L 5409 4122 
L 3322 4122 
Q 3125 3428 2681 2803 
L 2259 3084 
Q 2956 4022 3059 5388 
L 3519 5234 
Q 3513 5059 3425 4581 
L 5881 4581 
z
M 2778 2088 
L 2369 1838 
Q 2175 2353 1856 2613 
L 1856 -378 
L 1375 -378 
L 1375 2203 
L 1363 2203 
Q 1194 1634 684 1038 
L 288 1338 
Q 1078 2188 1313 3628 
L 531 3628 
L 531 4097 
L 1369 4097 
L 1369 5338 
L 1856 5338 
L 1856 4097 
L 2584 4097 
L 2584 3634 
L 1856 3634 
L 1856 3022 
L 2022 3116 
Q 2672 2516 2778 2088 
z
M 5178 878 
L 4709 634 
Q 4669 1056 4628 1141 
Q 3647 997 3066 781 
L 2638 1241 
Q 3528 2541 3694 3719 
L 4172 3488 
Q 3866 2281 3475 1691 
L 3278 1388 
L 4475 1594 
Q 4456 1650 4345 1806 
Q 4234 1963 4184 2041 
L 4581 2259 
Q 5094 1675 5178 878 
z
" transform="scale(0.015625)"/>
      <path id="ArialUnicodeMS-95ee" d="M 2553 4325 
L 2188 3950 
Q 1828 4447 1191 4794 
L 1497 5131 
Q 2081 4834 2553 4325 
z
M 5528 159 
Q 5528 -50 5403 -190 
Q 5278 -331 5075 -331 
L 4416 -331 
L 4244 147 
L 4916 122 
Q 5044 113 5044 250 
L 5044 4513 
L 2822 4513 
L 2822 4978 
L 5528 4978 
L 5528 159 
z
M 1178 -409 
L 716 -409 
L 716 4213 
L 1178 4213 
L 1178 -409 
z
M 4256 1056 
L 3769 1056 
L 3769 1306 
L 2450 1306 
L 2450 916 
L 1966 916 
L 1966 3463 
L 4256 3463 
L 4256 1056 
z
M 3769 1772 
L 3769 2994 
L 2450 2994 
L 2450 1772 
L 3769 1772 
z
" transform="scale(0.015625)"/>
      <path id="ArialUnicodeMS-8be2" d="M 5772 4556 
Q 5781 2706 5745 1661 
Q 5709 616 5648 289 
Q 5588 -38 5414 -216 
Q 5241 -394 4903 -394 
Q 4725 -394 4378 -353 
L 4178 166 
Q 4769 75 4897 75 
Q 5169 75 5222 708 
Q 5275 1341 5275 2997 
Q 5275 3534 5269 4091 
L 3297 4091 
Q 3069 3569 3003 3469 
L 4634 3469 
L 4634 434 
L 4147 434 
L 4147 856 
L 3213 856 
L 3213 434 
L 2725 434 
L 2725 3091 
L 2713 3103 
Q 2603 2884 2369 2669 
L 1966 2981 
Q 2913 3784 3116 5338 
L 3566 5216 
Q 3472 4709 3431 4556 
L 5772 4556 
z
M 4147 2419 
L 4147 3003 
L 3213 3003 
L 3213 2419 
L 4147 2419 
z
M 4147 1325 
L 4147 1953 
L 3213 1953 
L 3213 1325 
L 4147 1325 
z
M 1894 4331 
L 1491 4025 
Q 1244 4544 678 4991 
L 1019 5288 
Q 1559 4916 1894 4331 
z
M 2572 447 
L 1422 -184 
L 1131 231 
Q 1234 334 1234 513 
L 1234 3034 
L 391 3034 
L 391 3500 
L 1722 3500 
L 1722 531 
L 2572 978 
L 2572 447 
z
" transform="scale(0.015625)"/>
      <path id="ArialUnicodeMS-51fd" d="M 5881 4647 
L 2638 4647 
L 2516 4084 
L 3553 4084 
L 3553 1966 
L 3828 2272 
Q 4709 1903 5141 1375 
L 4825 997 
Q 4300 1613 3553 1900 
L 3553 1056 
Q 3553 838 3386 723 
Q 3219 609 3078 609 
L 2463 609 
L 2291 1100 
L 2881 1075 
Q 3072 1066 3072 1228 
L 3072 3609 
L 2419 3609 
L 2363 3413 
L 1894 3481 
L 2150 4647 
L 519 4647 
L 519 5113 
L 5881 5113 
L 5881 4647 
z
M 5638 -391 
L 5153 -391 
L 5153 -19 
L 1253 -19 
L 1253 -391 
L 763 -391 
L 763 3969 
L 1247 3969 
L 1247 3097 
L 1538 3413 
Q 2266 3156 2741 2656 
L 2413 2291 
Q 1938 2816 1247 3053 
L 1247 447 
L 5147 447 
L 5147 3969 
L 5638 3969 
L 5638 -391 
z
M 5069 3397 
Q 4744 2825 3969 2381 
L 3622 2747 
Q 4263 3053 4703 3700 
L 5069 3397 
z
M 2925 1825 
Q 2188 1438 1631 1125 
L 1306 1503 
Q 1738 1706 2919 2350 
L 2919 1825 
L 2925 1825 
z
" transform="scale(0.015625)"/>
      <path id="ArialUnicodeMS-6240" d="M 6138 2869 
L 5253 2869 
L 5253 -409 
L 4769 -409 
L 4769 2869 
L 4006 2869 
L 4006 2009 
Q 4006 338 3128 -447 
L 2731 -116 
Q 3488 519 3488 2028 
L 3488 4641 
Q 4541 4725 5575 5381 
L 5953 5006 
Q 4928 4353 4006 4231 
L 4006 3334 
L 6138 3334 
L 6138 2869 
z
M 3334 4519 
L 538 4519 
L 538 4978 
L 3334 4978 
L 3334 4519 
z
M 2969 1772 
L 1428 1772 
Q 1419 466 653 -391 
L 269 -31 
Q 613 356 767 773 
Q 922 1191 922 1966 
L 922 3756 
L 2969 3756 
L 2969 1772 
z
M 2463 2241 
L 2463 3291 
L 1428 3291 
L 1428 2241 
L 2463 2241 
z
" transform="scale(0.015625)"/>
      <path id="ArialUnicodeMS-9700" d="M 5819 3347 
L 5350 3347 
L 5350 3853 
L 3469 3853 
L 3469 2400 
L 2981 2400 
L 2981 3853 
L 1106 3853 
L 1106 3309 
L 653 3309 
L 653 4288 
L 2981 4288 
L 2981 4569 
L 966 4569 
L 966 5038 
L 5459 5038 
L 5459 4569 
L 3469 4569 
L 3469 4288 
L 5819 4288 
L 5819 3347 
z
M 5159 3256 
L 3738 3256 
L 3738 3653 
L 5159 3653 
L 5159 3256 
z
M 2694 3231 
L 1269 3231 
L 1269 3622 
L 2694 3622 
L 2694 3231 
z
M 5159 2572 
L 3738 2572 
L 3738 2963 
L 5159 2963 
L 5159 2572 
z
M 2694 2572 
L 1269 2572 
L 1269 2963 
L 2694 2963 
L 2694 2572 
z
M 5953 1888 
L 3438 1888 
Q 3353 1609 3284 1459 
L 5478 1459 
L 5478 109 
Q 5478 -316 4903 -325 
L 4513 -331 
L 4353 134 
L 4763 116 
Q 4991 106 4991 269 
L 4991 1006 
L 4122 1006 
L 4122 -103 
L 3634 -103 
L 3634 1006 
L 2803 1006 
L 2803 -103 
L 2350 -103 
L 2350 1006 
L 1422 1006 
L 1422 -447 
L 966 -447 
L 966 1459 
L 2766 1459 
Q 2847 1575 2963 1888 
L 506 1888 
L 506 2322 
L 5953 2322 
L 5953 1888 
z
" transform="scale(0.015625)"/>
      <path id="ArialUnicodeMS-7684" d="M 5644 4281 
Q 5619 1694 5395 673 
Q 5172 -347 4606 -347 
Q 4350 -347 3609 -134 
L 3525 403 
Q 4247 134 4531 134 
Q 4806 134 4976 1142 
Q 5147 2150 5159 3841 
L 3794 3841 
Q 3550 3166 3053 2497 
L 2719 2713 
L 2719 -147 
L 2216 -147 
L 2216 269 
L 1153 269 
L 1153 -250 
L 647 -250 
L 647 4184 
L 1234 4184 
Q 1494 4644 1625 5313 
L 2088 5125 
Q 1903 4444 1741 4184 
L 2719 4184 
L 2719 2881 
Q 3431 3888 3681 5363 
L 4191 5247 
Q 4106 4869 3916 4281 
L 5644 4281 
z
M 2216 2484 
L 2216 3719 
L 1153 3719 
L 1153 2484 
L 2216 2484 
z
M 2216 738 
L 2216 2016 
L 1153 2016 
L 1153 738 
L 2216 738 
z
M 4775 1369 
L 4313 1166 
Q 4034 1925 3444 2669 
L 3841 2931 
Q 4484 2191 4775 1369 
z
" transform="scale(0.015625)"/>
      <path id="ArialUnicodeMS-65f6" d="M 5931 3481 
L 5259 3481 
L 5259 72 
Q 5259 -122 5142 -259 
Q 5025 -397 4863 -397 
L 4281 -397 
L 4097 122 
L 4672 78 
Q 4775 66 4775 191 
L 4775 3481 
L 2784 3481 
L 2784 3950 
L 4775 3950 
L 4775 5306 
L 5259 5306 
L 5259 3950 
L 5931 3950 
L 5931 3481 
z
M 2463 97 
L 1978 97 
L 1978 569 
L 1147 569 
L 1147 97 
L 659 97 
L 659 4313 
L 2463 4313 
L 2463 97 
z
M 1978 2675 
L 1978 3847 
L 1147 3847 
L 1147 2675 
L 1978 2675 
z
M 1978 1038 
L 1978 2209 
L 1147 2209 
L 1147 1038 
L 1978 1038 
z
M 4306 1575 
L 3903 1300 
Q 3594 2103 2888 2725 
L 3272 2994 
Q 3997 2375 4306 1575 
z
" transform="scale(0.015625)"/>
      <path id="ArialUnicodeMS-95f4" d="M 2463 4313 
L 2088 4006 
Q 1600 4669 1094 4984 
L 1484 5247 
Q 2044 4888 2463 4313 
z
M 5497 178 
Q 5497 -50 5353 -181 
Q 5209 -313 4853 -313 
Q 4753 -313 4506 -300 
L 4366 147 
Q 4631 106 4806 106 
Q 4991 106 5002 142 
Q 5013 178 5013 275 
L 5013 4453 
L 2841 4453 
L 2841 4922 
L 5497 4922 
L 5497 178 
z
M 1125 -384 
L 641 -384 
L 641 4197 
L 1125 4197 
L 1125 -384 
z
M 4306 481 
L 3822 481 
L 3822 813 
L 2375 813 
L 2375 481 
L 1888 481 
L 1888 3669 
L 4306 3669 
L 4306 481 
z
M 3822 2559 
L 3822 3200 
L 2375 3200 
L 2375 2559 
L 3822 2559 
z
M 3822 1281 
L 3822 2094 
L 2375 2094 
L 2375 1281 
L 3822 1281 
z
" transform="scale(0.015625)"/>
      <path id="ArialUnicodeMS-28" d="M 1900 -1344 
L 1497 -1344 
Q 978 -681 681 103 
Q 384 888 384 1656 
Q 384 2528 700 3275 
Q 1016 4022 1497 4659 
L 1900 4659 
Q 1344 3747 1155 3059 
Q 966 2372 966 1663 
Q 966 153 1900 -1344 
z
" transform="scale(0.015625)"/>
      <path id="ArialUnicodeMS-5355" d="M 5925 947 
L 3353 947 
L 3353 -372 
L 2869 -372 
L 2869 947 
L 347 947 
L 347 1388 
L 2869 1388 
L 2869 1919 
L 1234 1919 
L 1234 4213 
L 2234 4213 
Q 2041 4659 1550 5106 
L 1900 5381 
Q 2347 5050 2747 4359 
L 2547 4219 
L 2547 4213 
L 3328 4213 
Q 3750 4644 4000 5344 
L 4447 5131 
Q 4219 4559 3909 4213 
L 4984 4213 
L 4984 1919 
L 3353 1919 
L 3353 1388 
L 5925 1388 
L 5925 947 
z
M 4500 3316 
L 4500 3744 
L 3353 3744 
L 3353 3316 
L 4500 3316 
z
M 2869 3316 
L 2869 3744 
L 1722 3744 
L 1722 3316 
L 2869 3316 
z
M 4500 2363 
L 4500 2847 
L 3353 2847 
L 3353 2363 
L 4500 2363 
z
M 2869 2363 
L 2869 2847 
L 1722 2847 
L 1722 2363 
L 2869 2363 
z
" transform="scale(0.015625)"/>
      <path id="ArialUnicodeMS-4f4d" d="M 2234 5069 
Q 2181 4844 1950 4253 
L 1722 3681 
L 1722 -453 
L 1234 -453 
L 1234 2841 
Q 1053 2572 697 2188 
L 263 2503 
Q 1219 3441 1772 5294 
L 2234 5069 
z
M 5759 3525 
L 2194 3525 
L 2194 3988 
L 3700 3988 
L 3700 5253 
L 4197 5253 
L 4197 3988 
L 5759 3988 
L 5759 3525 
z
M 6059 -56 
L 2053 -56 
L 2053 409 
L 3781 409 
Q 4728 2066 4794 3425 
L 5306 3291 
Q 5141 1972 4325 409 
L 6059 409 
L 6059 -56 
z
M 3769 856 
L 3250 756 
Q 3222 2009 2559 3103 
L 3072 3213 
Q 3675 2153 3769 856 
z
" transform="scale(0.015625)"/>
      <path id="ArialUnicodeMS-3a" d="M 1216 2675 
L 575 2675 
L 575 3316 
L 1216 3316 
L 1216 2675 
z
M 1216 0 
L 575 0 
L 575 641 
L 1216 641 
L 1216 0 
z
" transform="scale(0.015625)"/>
      <path id="ArialUnicodeMS-20" transform="scale(0.015625)"/>
      <path id="ArialUnicodeMS-29" d="M 634 4659 
Q 1153 3997 1450 3212 
Q 1747 2428 1747 1656 
Q 1747 788 1431 41 
Q 1116 -706 634 -1344 
L 231 -1344 
Q 788 -431 977 255 
Q 1166 941 1166 1650 
Q 1166 3163 231 4659 
L 634 4659 
z
" transform="scale(0.015625)"/>
     </defs>
     <use xlink:href="#ArialUnicodeMS-516c"/>
     <use xlink:href="#ArialUnicodeMS-53f8" x="100"/>
     <use xlink:href="#ArialUnicodeMS-4e3a" x="200"/>
     <use xlink:href="#ArialUnicodeMS-56de" x="300"/>
     <use xlink:href="#ArialUnicodeMS-590d" x="400"/>
     <use xlink:href="#ArialUnicodeMS-76d1" x="500"/>
     <use xlink:href="#ArialUnicodeMS-7ba1" x="600"/>
     <use xlink:href="#ArialUnicodeMS-673a" x="700"/>
     <use xlink:href="#ArialUnicodeMS-6784" x="800"/>
     <use xlink:href="#ArialUnicodeMS-95ee" x="900"/>
     <use xlink:href="#ArialUnicodeMS-8be2" x="1000"/>
     <use xlink:href="#ArialUnicodeMS-51fd" x="1100"/>
     <use xlink:href="#ArialUnicodeMS-6240" x="1200"/>
     <use xlink:href="#ArialUnicodeMS-9700" x="1300"/>
     <use xlink:href="#ArialUnicodeMS-51c6" x="1400"/>
     <use xlink:href="#ArialUnicodeMS-5907" x="1500"/>
     <use xlink:href="#ArialUnicodeMS-7684" x="1600"/>
     <use xlink:href="#ArialUnicodeMS-65f6" x="1700"/>
     <use xlink:href="#ArialUnicodeMS-95f4" x="1800"/>
     <use xlink:href="#ArialUnicodeMS-28" x="1900"/>
     <use xlink:href="#ArialUnicodeMS-5355" x="1933.300781"/>
     <use xlink:href="#ArialUnicodeMS-4f4d" x="2033.300781"/>
     <use xlink:href="#ArialUnicodeMS-3a" x="2133.300781"/>
     <use xlink:href="#ArialUnicodeMS-20" x="2161.083984"/>
     <use xlink:href="#ArialUnicodeMS-5929" x="2188.867188"/>
     <use xlink:href="#ArialUnicodeMS-29" x="2288.867188"/>
    </g>
   </g>
  </g>
 </g>
 <defs>
  <clipPath id="p63f771d5f6">
   <rect x="48.221875" y="22.277344" width="558" height="332.64"/>
  </clipPath>
 </defs>
</svg>
