<?xml version="1.0" encoding="utf-8" standalone="no"?>
<!DOCTYPE svg PUBLIC "-//W3C//DTD SVG 1.1//EN"
  "http://www.w3.org/Graphics/SVG/1.1/DTD/svg11.dtd">
<svg xmlns:xlink="http://www.w3.org/1999/xlink" width="606.444675pt" height="358.275704pt" viewBox="0 0 606.444675 358.275704" xmlns="http://www.w3.org/2000/svg" version="1.1">
 <metadata>
  <rdf:RDF xmlns:dc="http://purl.org/dc/elements/1.1/" xmlns:cc="http://creativecommons.org/ns#" xmlns:rdf="http://www.w3.org/1999/02/22-rdf-syntax-ns#">
   <cc:Work>
    <dc:type rdf:resource="http://purl.org/dc/dcmitype/StillImage"/>
    <dc:date>2023-05-18T15:42:31.836627</dc:date>
    <dc:format>image/svg+xml</dc:format>
    <dc:creator>
     <cc:Agent>
      <dc:title>Matplotlib v3.5.2, https://matplotlib.org/</dc:title>
     </cc:Agent>
    </dc:creator>
   </cc:Work>
  </rdf:RDF>
 </metadata>
 <defs>
  <style type="text/css">*{stroke-linejoin: round; stroke-linecap: butt}</style>
 </defs>
 <g id="figure_1">
  <g id="patch_1">
   <path d="M -0 358.275704 
L 606.444675 358.275704 
L 606.444675 0 
L -0 0 
z
" style="fill: #ffffff"/>
  </g>
  <g id="axes_1">
   <g id="patch_2">
    <path d="M 39.990625 295.389375 
L 597.990625 295.389375 
L 597.990625 18.189375 
L 39.990625 18.189375 
z
" style="fill: #ffffff"/>
   </g>
   <g id="matplotlib.axis_1">
    <g id="xtick_1">
     <g id="line2d_1">
      <defs>
       <path id="m7f73d818e8" d="M 0 0 
L 0 -3 
" style="stroke: #000000; stroke-width: 0.5"/>
      </defs>
      <g>
       <use xlink:href="#m7f73d818e8" x="118.751391" y="295.389375" style="stroke: #000000; stroke-width: 0.5"/>
      </g>
     </g>
     <g id="line2d_2">
      <defs>
       <path id="m68aefb407c" d="M 0 0 
L 0 3 
" style="stroke: #000000; stroke-width: 0.5"/>
      </defs>
      <g>
       <use xlink:href="#m68aefb407c" x="118.751391" y="18.189375" style="stroke: #000000; stroke-width: 0.5"/>
      </g>
     </g>
     <g id="text_1">
      <!-- 2020-01-01 -->
      <g transform="translate(102.494564 340.117015)rotate(-45)scale(0.1 -0.1)">
       <defs>
        <path id="ArialUnicodeMS-32" d="M 3231 0 
L 197 0 
Q 197 388 467 784 
Q 738 1181 1478 1778 
Q 1931 2141 2287 2539 
Q 2644 2938 2644 3341 
Q 2644 3688 2398 3914 
Q 2153 4141 1778 4141 
Q 1400 4141 1144 3908 
Q 888 3675 884 3213 
L 306 3278 
Q 359 3922 764 4262 
Q 1169 4603 1791 4603 
Q 2466 4603 2842 4229 
Q 3219 3856 3219 3328 
Q 3219 2888 2901 2436 
Q 2584 1984 1638 1228 
Q 1141 831 978 544 
L 3231 544 
L 3231 0 
z
" transform="scale(0.015625)"/>
        <path id="ArialUnicodeMS-30" d="M 1778 4603 
Q 3272 4603 3272 2259 
Q 3272 1075 2886 498 
Q 2500 -78 1778 -78 
Q 288 -78 288 2259 
Q 288 3444 673 4023 
Q 1059 4603 1778 4603 
z
M 1778 384 
Q 2231 384 2462 823 
Q 2694 1263 2694 2259 
Q 2694 2953 2592 3351 
Q 2491 3750 2286 3945 
Q 2081 4141 1772 4141 
Q 1319 4141 1091 3694 
Q 863 3247 863 2259 
Q 863 1575 966 1175 
Q 1069 775 1272 579 
Q 1475 384 1778 384 
z
" transform="scale(0.015625)"/>
        <path id="ArialUnicodeMS-2d" d="M 1925 1375 
L 206 1375 
L 206 1941 
L 1925 1941 
L 1925 1375 
z
" transform="scale(0.015625)"/>
        <path id="ArialUnicodeMS-31" d="M 2400 0 
L 1838 0 
L 1838 3584 
Q 1416 3184 709 2906 
L 709 3450 
Q 1681 3916 2034 4603 
L 2400 4603 
L 2400 0 
z
" transform="scale(0.015625)"/>
       </defs>
       <use xlink:href="#ArialUnicodeMS-32"/>
       <use xlink:href="#ArialUnicodeMS-30" x="55.615234"/>
       <use xlink:href="#ArialUnicodeMS-32" x="111.230469"/>
       <use xlink:href="#ArialUnicodeMS-30" x="166.845703"/>
       <use xlink:href="#ArialUnicodeMS-2d" x="222.460938"/>
       <use xlink:href="#ArialUnicodeMS-30" x="255.761719"/>
       <use xlink:href="#ArialUnicodeMS-31" x="311.376953"/>
       <use xlink:href="#ArialUnicodeMS-2d" x="366.992188"/>
       <use xlink:href="#ArialUnicodeMS-30" x="400.292969"/>
       <use xlink:href="#ArialUnicodeMS-31" x="455.908203"/>
      </g>
     </g>
    </g>
    <g id="xtick_2">
     <g id="line2d_3">
      <g>
       <use xlink:href="#m7f73d818e8" x="181.048041" y="295.389375" style="stroke: #000000; stroke-width: 0.5"/>
      </g>
     </g>
     <g id="line2d_4">
      <g>
       <use xlink:href="#m68aefb407c" x="181.048041" y="18.189375" style="stroke: #000000; stroke-width: 0.5"/>
      </g>
     </g>
     <g id="text_2">
      <!-- 2020-01-08 -->
      <g transform="translate(164.791214 340.117015)rotate(-45)scale(0.1 -0.1)">
       <defs>
        <path id="ArialUnicodeMS-38" d="M 2425 2478 
Q 3284 2203 3284 1306 
Q 3284 716 2862 319 
Q 2441 -78 1778 -78 
Q 1109 -78 689 322 
Q 269 722 269 1325 
Q 269 1759 505 2084 
Q 741 2409 1141 2478 
L 1141 2491 
Q 453 2703 453 3419 
Q 453 3925 815 4264 
Q 1178 4603 1766 4603 
Q 2363 4603 2730 4253 
Q 3097 3903 3097 3406 
Q 3097 2731 2425 2491 
L 2425 2478 
z
M 1778 2700 
Q 2094 2700 2308 2901 
Q 2522 3103 2522 3406 
Q 2522 3716 2305 3928 
Q 2088 4141 1772 4141 
Q 1450 4141 1240 3931 
Q 1031 3722 1031 3438 
Q 1031 3097 1247 2898 
Q 1463 2700 1778 2700 
z
M 1778 384 
Q 2175 384 2440 640 
Q 2706 897 2706 1306 
Q 2706 1716 2432 1978 
Q 2159 2241 1766 2241 
Q 1356 2241 1100 1970 
Q 844 1700 844 1319 
Q 844 922 1108 653 
Q 1372 384 1778 384 
z
" transform="scale(0.015625)"/>
       </defs>
       <use xlink:href="#ArialUnicodeMS-32"/>
       <use xlink:href="#ArialUnicodeMS-30" x="55.615234"/>
       <use xlink:href="#ArialUnicodeMS-32" x="111.230469"/>
       <use xlink:href="#ArialUnicodeMS-30" x="166.845703"/>
       <use xlink:href="#ArialUnicodeMS-2d" x="222.460938"/>
       <use xlink:href="#ArialUnicodeMS-30" x="255.761719"/>
       <use xlink:href="#ArialUnicodeMS-31" x="311.376953"/>
       <use xlink:href="#ArialUnicodeMS-2d" x="366.992188"/>
       <use xlink:href="#ArialUnicodeMS-30" x="400.292969"/>
       <use xlink:href="#ArialUnicodeMS-38" x="455.908203"/>
      </g>
     </g>
    </g>
    <g id="xtick_3">
     <g id="line2d_5">
      <g>
       <use xlink:href="#m7f73d818e8" x="243.344692" y="295.389375" style="stroke: #000000; stroke-width: 0.5"/>
      </g>
     </g>
     <g id="line2d_6">
      <g>
       <use xlink:href="#m68aefb407c" x="243.344692" y="18.189375" style="stroke: #000000; stroke-width: 0.5"/>
      </g>
     </g>
     <g id="text_3">
      <!-- 2020-01-15 -->
      <g transform="translate(227.087865 340.117015)rotate(-45)scale(0.1 -0.1)">
       <defs>
        <path id="ArialUnicodeMS-35" d="M 1013 2753 
Q 1431 3041 1881 3041 
Q 2453 3041 2878 2636 
Q 3303 2231 3303 1556 
Q 3303 875 2872 398 
Q 2441 -78 1741 -78 
Q 1169 -78 750 245 
Q 331 569 269 1203 
L 856 1247 
Q 928 813 1162 598 
Q 1397 384 1741 384 
Q 2169 384 2434 707 
Q 2700 1031 2700 1503 
Q 2700 1984 2428 2262 
Q 2156 2541 1728 2541 
Q 1188 2541 897 2100 
L 366 2163 
L 813 4519 
L 3084 4519 
L 3084 3975 
L 1259 3975 
L 1013 2753 
z
" transform="scale(0.015625)"/>
       </defs>
       <use xlink:href="#ArialUnicodeMS-32"/>
       <use xlink:href="#ArialUnicodeMS-30" x="55.615234"/>
       <use xlink:href="#ArialUnicodeMS-32" x="111.230469"/>
       <use xlink:href="#ArialUnicodeMS-30" x="166.845703"/>
       <use xlink:href="#ArialUnicodeMS-2d" x="222.460938"/>
       <use xlink:href="#ArialUnicodeMS-30" x="255.761719"/>
       <use xlink:href="#ArialUnicodeMS-31" x="311.376953"/>
       <use xlink:href="#ArialUnicodeMS-2d" x="366.992188"/>
       <use xlink:href="#ArialUnicodeMS-31" x="400.292969"/>
       <use xlink:href="#ArialUnicodeMS-35" x="455.908203"/>
      </g>
     </g>
    </g>
    <g id="xtick_4">
     <g id="line2d_7">
      <g>
       <use xlink:href="#m7f73d818e8" x="305.641343" y="295.389375" style="stroke: #000000; stroke-width: 0.5"/>
      </g>
     </g>
     <g id="line2d_8">
      <g>
       <use xlink:href="#m68aefb407c" x="305.641343" y="18.189375" style="stroke: #000000; stroke-width: 0.5"/>
      </g>
     </g>
     <g id="text_4">
      <!-- 2020-01-22 -->
      <g transform="translate(289.384516 340.117015)rotate(-45)scale(0.1 -0.1)">
       <use xlink:href="#ArialUnicodeMS-32"/>
       <use xlink:href="#ArialUnicodeMS-30" x="55.615234"/>
       <use xlink:href="#ArialUnicodeMS-32" x="111.230469"/>
       <use xlink:href="#ArialUnicodeMS-30" x="166.845703"/>
       <use xlink:href="#ArialUnicodeMS-2d" x="222.460938"/>
       <use xlink:href="#ArialUnicodeMS-30" x="255.761719"/>
       <use xlink:href="#ArialUnicodeMS-31" x="311.376953"/>
       <use xlink:href="#ArialUnicodeMS-2d" x="366.992188"/>
       <use xlink:href="#ArialUnicodeMS-32" x="400.292969"/>
       <use xlink:href="#ArialUnicodeMS-32" x="455.908203"/>
      </g>
     </g>
    </g>
    <g id="xtick_5">
     <g id="line2d_9">
      <g>
       <use xlink:href="#m7f73d818e8" x="394.636558" y="295.389375" style="stroke: #000000; stroke-width: 0.5"/>
      </g>
     </g>
     <g id="line2d_10">
      <g>
       <use xlink:href="#m68aefb407c" x="394.636558" y="18.189375" style="stroke: #000000; stroke-width: 0.5"/>
      </g>
     </g>
     <g id="text_5">
      <!-- 2020-02-01 -->
      <g transform="translate(378.379731 340.117015)rotate(-45)scale(0.1 -0.1)">
       <use xlink:href="#ArialUnicodeMS-32"/>
       <use xlink:href="#ArialUnicodeMS-30" x="55.615234"/>
       <use xlink:href="#ArialUnicodeMS-32" x="111.230469"/>
       <use xlink:href="#ArialUnicodeMS-30" x="166.845703"/>
       <use xlink:href="#ArialUnicodeMS-2d" x="222.460938"/>
       <use xlink:href="#ArialUnicodeMS-30" x="255.761719"/>
       <use xlink:href="#ArialUnicodeMS-32" x="311.376953"/>
       <use xlink:href="#ArialUnicodeMS-2d" x="366.992188"/>
       <use xlink:href="#ArialUnicodeMS-30" x="400.292969"/>
       <use xlink:href="#ArialUnicodeMS-31" x="455.908203"/>
      </g>
     </g>
    </g>
    <g id="xtick_6">
     <g id="line2d_11">
      <g>
       <use xlink:href="#m7f73d818e8" x="456.933209" y="295.389375" style="stroke: #000000; stroke-width: 0.5"/>
      </g>
     </g>
     <g id="line2d_12">
      <g>
       <use xlink:href="#m68aefb407c" x="456.933209" y="18.189375" style="stroke: #000000; stroke-width: 0.5"/>
      </g>
     </g>
     <g id="text_6">
      <!-- 2020-02-08 -->
      <g transform="translate(440.676382 340.117015)rotate(-45)scale(0.1 -0.1)">
       <use xlink:href="#ArialUnicodeMS-32"/>
       <use xlink:href="#ArialUnicodeMS-30" x="55.615234"/>
       <use xlink:href="#ArialUnicodeMS-32" x="111.230469"/>
       <use xlink:href="#ArialUnicodeMS-30" x="166.845703"/>
       <use xlink:href="#ArialUnicodeMS-2d" x="222.460938"/>
       <use xlink:href="#ArialUnicodeMS-30" x="255.761719"/>
       <use xlink:href="#ArialUnicodeMS-32" x="311.376953"/>
       <use xlink:href="#ArialUnicodeMS-2d" x="366.992188"/>
       <use xlink:href="#ArialUnicodeMS-30" x="400.292969"/>
       <use xlink:href="#ArialUnicodeMS-38" x="455.908203"/>
      </g>
     </g>
    </g>
    <g id="xtick_7">
     <g id="line2d_13">
      <g>
       <use xlink:href="#m7f73d818e8" x="519.229859" y="295.389375" style="stroke: #000000; stroke-width: 0.5"/>
      </g>
     </g>
     <g id="line2d_14">
      <g>
       <use xlink:href="#m68aefb407c" x="519.229859" y="18.189375" style="stroke: #000000; stroke-width: 0.5"/>
      </g>
     </g>
     <g id="text_7">
      <!-- 2020-02-15 -->
      <g transform="translate(502.973033 340.117015)rotate(-45)scale(0.1 -0.1)">
       <use xlink:href="#ArialUnicodeMS-32"/>
       <use xlink:href="#ArialUnicodeMS-30" x="55.615234"/>
       <use xlink:href="#ArialUnicodeMS-32" x="111.230469"/>
       <use xlink:href="#ArialUnicodeMS-30" x="166.845703"/>
       <use xlink:href="#ArialUnicodeMS-2d" x="222.460938"/>
       <use xlink:href="#ArialUnicodeMS-30" x="255.761719"/>
       <use xlink:href="#ArialUnicodeMS-32" x="311.376953"/>
       <use xlink:href="#ArialUnicodeMS-2d" x="366.992188"/>
       <use xlink:href="#ArialUnicodeMS-31" x="400.292969"/>
       <use xlink:href="#ArialUnicodeMS-35" x="455.908203"/>
      </g>
     </g>
    </g>
    <g id="xtick_8">
     <g id="line2d_15">
      <g>
       <use xlink:href="#m7f73d818e8" x="581.52651" y="295.389375" style="stroke: #000000; stroke-width: 0.5"/>
      </g>
     </g>
     <g id="line2d_16">
      <g>
       <use xlink:href="#m68aefb407c" x="581.52651" y="18.189375" style="stroke: #000000; stroke-width: 0.5"/>
      </g>
     </g>
     <g id="text_8">
      <!-- 2020-02-22 -->
      <g transform="translate(565.269683 340.117015)rotate(-45)scale(0.1 -0.1)">
       <use xlink:href="#ArialUnicodeMS-32"/>
       <use xlink:href="#ArialUnicodeMS-30" x="55.615234"/>
       <use xlink:href="#ArialUnicodeMS-32" x="111.230469"/>
       <use xlink:href="#ArialUnicodeMS-30" x="166.845703"/>
       <use xlink:href="#ArialUnicodeMS-2d" x="222.460938"/>
       <use xlink:href="#ArialUnicodeMS-30" x="255.761719"/>
       <use xlink:href="#ArialUnicodeMS-32" x="311.376953"/>
       <use xlink:href="#ArialUnicodeMS-2d" x="366.992188"/>
       <use xlink:href="#ArialUnicodeMS-32" x="400.292969"/>
       <use xlink:href="#ArialUnicodeMS-32" x="455.908203"/>
      </g>
     </g>
    </g>
    <g id="xtick_9">
     <g id="line2d_17">
      <defs>
       <path id="mc4e19faf48" d="M 0 0 
L 0 -1.5 
" style="stroke: #000000; stroke-width: 0.5"/>
      </defs>
      <g>
       <use xlink:href="#mc4e19faf48" x="40.880577" y="295.389375" style="stroke: #000000; stroke-width: 0.5"/>
      </g>
     </g>
     <g id="line2d_18">
      <defs>
       <path id="m6d5fb8da25" d="M 0 0 
L 0 1.5 
" style="stroke: #000000; stroke-width: 0.5"/>
      </defs>
      <g>
       <use xlink:href="#m6d5fb8da25" x="40.880577" y="18.189375" style="stroke: #000000; stroke-width: 0.5"/>
      </g>
     </g>
    </g>
    <g id="xtick_10">
     <g id="line2d_19">
      <g>
       <use xlink:href="#mc4e19faf48" x="56.45474" y="295.389375" style="stroke: #000000; stroke-width: 0.5"/>
      </g>
     </g>
     <g id="line2d_20">
      <g>
       <use xlink:href="#m6d5fb8da25" x="56.45474" y="18.189375" style="stroke: #000000; stroke-width: 0.5"/>
      </g>
     </g>
    </g>
    <g id="xtick_11">
     <g id="line2d_21">
      <g>
       <use xlink:href="#mc4e19faf48" x="72.028903" y="295.389375" style="stroke: #000000; stroke-width: 0.5"/>
      </g>
     </g>
     <g id="line2d_22">
      <g>
       <use xlink:href="#m6d5fb8da25" x="72.028903" y="18.189375" style="stroke: #000000; stroke-width: 0.5"/>
      </g>
     </g>
    </g>
    <g id="xtick_12">
     <g id="line2d_23">
      <g>
       <use xlink:href="#mc4e19faf48" x="87.603065" y="295.389375" style="stroke: #000000; stroke-width: 0.5"/>
      </g>
     </g>
     <g id="line2d_24">
      <g>
       <use xlink:href="#m6d5fb8da25" x="87.603065" y="18.189375" style="stroke: #000000; stroke-width: 0.5"/>
      </g>
     </g>
    </g>
    <g id="xtick_13">
     <g id="line2d_25">
      <g>
       <use xlink:href="#mc4e19faf48" x="103.177228" y="295.389375" style="stroke: #000000; stroke-width: 0.5"/>
      </g>
     </g>
     <g id="line2d_26">
      <g>
       <use xlink:href="#m6d5fb8da25" x="103.177228" y="18.189375" style="stroke: #000000; stroke-width: 0.5"/>
      </g>
     </g>
    </g>
    <g id="xtick_14">
     <g id="line2d_27">
      <g>
       <use xlink:href="#mc4e19faf48" x="134.325553" y="295.389375" style="stroke: #000000; stroke-width: 0.5"/>
      </g>
     </g>
     <g id="line2d_28">
      <g>
       <use xlink:href="#m6d5fb8da25" x="134.325553" y="18.189375" style="stroke: #000000; stroke-width: 0.5"/>
      </g>
     </g>
    </g>
    <g id="xtick_15">
     <g id="line2d_29">
      <g>
       <use xlink:href="#mc4e19faf48" x="149.899716" y="295.389375" style="stroke: #000000; stroke-width: 0.5"/>
      </g>
     </g>
     <g id="line2d_30">
      <g>
       <use xlink:href="#m6d5fb8da25" x="149.899716" y="18.189375" style="stroke: #000000; stroke-width: 0.5"/>
      </g>
     </g>
    </g>
    <g id="xtick_16">
     <g id="line2d_31">
      <g>
       <use xlink:href="#mc4e19faf48" x="165.473879" y="295.389375" style="stroke: #000000; stroke-width: 0.5"/>
      </g>
     </g>
     <g id="line2d_32">
      <g>
       <use xlink:href="#m6d5fb8da25" x="165.473879" y="18.189375" style="stroke: #000000; stroke-width: 0.5"/>
      </g>
     </g>
    </g>
    <g id="xtick_17">
     <g id="line2d_33">
      <g>
       <use xlink:href="#mc4e19faf48" x="196.622204" y="295.389375" style="stroke: #000000; stroke-width: 0.5"/>
      </g>
     </g>
     <g id="line2d_34">
      <g>
       <use xlink:href="#m6d5fb8da25" x="196.622204" y="18.189375" style="stroke: #000000; stroke-width: 0.5"/>
      </g>
     </g>
    </g>
    <g id="xtick_18">
     <g id="line2d_35">
      <g>
       <use xlink:href="#mc4e19faf48" x="212.196367" y="295.389375" style="stroke: #000000; stroke-width: 0.5"/>
      </g>
     </g>
     <g id="line2d_36">
      <g>
       <use xlink:href="#m6d5fb8da25" x="212.196367" y="18.189375" style="stroke: #000000; stroke-width: 0.5"/>
      </g>
     </g>
    </g>
    <g id="xtick_19">
     <g id="line2d_37">
      <g>
       <use xlink:href="#mc4e19faf48" x="227.770529" y="295.389375" style="stroke: #000000; stroke-width: 0.5"/>
      </g>
     </g>
     <g id="line2d_38">
      <g>
       <use xlink:href="#m6d5fb8da25" x="227.770529" y="18.189375" style="stroke: #000000; stroke-width: 0.5"/>
      </g>
     </g>
    </g>
    <g id="xtick_20">
     <g id="line2d_39">
      <g>
       <use xlink:href="#mc4e19faf48" x="258.918855" y="295.389375" style="stroke: #000000; stroke-width: 0.5"/>
      </g>
     </g>
     <g id="line2d_40">
      <g>
       <use xlink:href="#m6d5fb8da25" x="258.918855" y="18.189375" style="stroke: #000000; stroke-width: 0.5"/>
      </g>
     </g>
    </g>
    <g id="xtick_21">
     <g id="line2d_41">
      <g>
       <use xlink:href="#mc4e19faf48" x="274.493017" y="295.389375" style="stroke: #000000; stroke-width: 0.5"/>
      </g>
     </g>
     <g id="line2d_42">
      <g>
       <use xlink:href="#m6d5fb8da25" x="274.493017" y="18.189375" style="stroke: #000000; stroke-width: 0.5"/>
      </g>
     </g>
    </g>
    <g id="xtick_22">
     <g id="line2d_43">
      <g>
       <use xlink:href="#mc4e19faf48" x="290.06718" y="295.389375" style="stroke: #000000; stroke-width: 0.5"/>
      </g>
     </g>
     <g id="line2d_44">
      <g>
       <use xlink:href="#m6d5fb8da25" x="290.06718" y="18.189375" style="stroke: #000000; stroke-width: 0.5"/>
      </g>
     </g>
    </g>
    <g id="xtick_23">
     <g id="line2d_45">
      <g>
       <use xlink:href="#mc4e19faf48" x="321.215505" y="295.389375" style="stroke: #000000; stroke-width: 0.5"/>
      </g>
     </g>
     <g id="line2d_46">
      <g>
       <use xlink:href="#m6d5fb8da25" x="321.215505" y="18.189375" style="stroke: #000000; stroke-width: 0.5"/>
      </g>
     </g>
    </g>
    <g id="xtick_24">
     <g id="line2d_47">
      <g>
       <use xlink:href="#mc4e19faf48" x="336.789668" y="295.389375" style="stroke: #000000; stroke-width: 0.5"/>
      </g>
     </g>
     <g id="line2d_48">
      <g>
       <use xlink:href="#m6d5fb8da25" x="336.789668" y="18.189375" style="stroke: #000000; stroke-width: 0.5"/>
      </g>
     </g>
    </g>
    <g id="xtick_25">
     <g id="line2d_49">
      <g>
       <use xlink:href="#mc4e19faf48" x="352.363831" y="295.389375" style="stroke: #000000; stroke-width: 0.5"/>
      </g>
     </g>
     <g id="line2d_50">
      <g>
       <use xlink:href="#m6d5fb8da25" x="352.363831" y="18.189375" style="stroke: #000000; stroke-width: 0.5"/>
      </g>
     </g>
    </g>
    <g id="xtick_26">
     <g id="line2d_51">
      <g>
       <use xlink:href="#mc4e19faf48" x="367.937993" y="295.389375" style="stroke: #000000; stroke-width: 0.5"/>
      </g>
     </g>
     <g id="line2d_52">
      <g>
       <use xlink:href="#m6d5fb8da25" x="367.937993" y="18.189375" style="stroke: #000000; stroke-width: 0.5"/>
      </g>
     </g>
    </g>
    <g id="xtick_27">
     <g id="line2d_53">
      <g>
       <use xlink:href="#mc4e19faf48" x="383.512156" y="295.389375" style="stroke: #000000; stroke-width: 0.5"/>
      </g>
     </g>
     <g id="line2d_54">
      <g>
       <use xlink:href="#m6d5fb8da25" x="383.512156" y="18.189375" style="stroke: #000000; stroke-width: 0.5"/>
      </g>
     </g>
    </g>
    <g id="xtick_28">
     <g id="line2d_55">
      <g>
       <use xlink:href="#mc4e19faf48" x="399.086319" y="295.389375" style="stroke: #000000; stroke-width: 0.5"/>
      </g>
     </g>
     <g id="line2d_56">
      <g>
       <use xlink:href="#m6d5fb8da25" x="399.086319" y="18.189375" style="stroke: #000000; stroke-width: 0.5"/>
      </g>
     </g>
    </g>
    <g id="xtick_29">
     <g id="line2d_57">
      <g>
       <use xlink:href="#mc4e19faf48" x="414.660481" y="295.389375" style="stroke: #000000; stroke-width: 0.5"/>
      </g>
     </g>
     <g id="line2d_58">
      <g>
       <use xlink:href="#m6d5fb8da25" x="414.660481" y="18.189375" style="stroke: #000000; stroke-width: 0.5"/>
      </g>
     </g>
    </g>
    <g id="xtick_30">
     <g id="line2d_59">
      <g>
       <use xlink:href="#mc4e19faf48" x="430.234644" y="295.389375" style="stroke: #000000; stroke-width: 0.5"/>
      </g>
     </g>
     <g id="line2d_60">
      <g>
       <use xlink:href="#m6d5fb8da25" x="430.234644" y="18.189375" style="stroke: #000000; stroke-width: 0.5"/>
      </g>
     </g>
    </g>
    <g id="xtick_31">
     <g id="line2d_61">
      <g>
       <use xlink:href="#mc4e19faf48" x="445.808807" y="295.389375" style="stroke: #000000; stroke-width: 0.5"/>
      </g>
     </g>
     <g id="line2d_62">
      <g>
       <use xlink:href="#m6d5fb8da25" x="445.808807" y="18.189375" style="stroke: #000000; stroke-width: 0.5"/>
      </g>
     </g>
    </g>
    <g id="xtick_32">
     <g id="line2d_63">
      <g>
       <use xlink:href="#mc4e19faf48" x="461.382969" y="295.389375" style="stroke: #000000; stroke-width: 0.5"/>
      </g>
     </g>
     <g id="line2d_64">
      <g>
       <use xlink:href="#m6d5fb8da25" x="461.382969" y="18.189375" style="stroke: #000000; stroke-width: 0.5"/>
      </g>
     </g>
    </g>
    <g id="xtick_33">
     <g id="line2d_65">
      <g>
       <use xlink:href="#mc4e19faf48" x="476.957132" y="295.389375" style="stroke: #000000; stroke-width: 0.5"/>
      </g>
     </g>
     <g id="line2d_66">
      <g>
       <use xlink:href="#m6d5fb8da25" x="476.957132" y="18.189375" style="stroke: #000000; stroke-width: 0.5"/>
      </g>
     </g>
    </g>
    <g id="xtick_34">
     <g id="line2d_67">
      <g>
       <use xlink:href="#mc4e19faf48" x="492.531295" y="295.389375" style="stroke: #000000; stroke-width: 0.5"/>
      </g>
     </g>
     <g id="line2d_68">
      <g>
       <use xlink:href="#m6d5fb8da25" x="492.531295" y="18.189375" style="stroke: #000000; stroke-width: 0.5"/>
      </g>
     </g>
    </g>
    <g id="xtick_35">
     <g id="line2d_69">
      <g>
       <use xlink:href="#mc4e19faf48" x="508.105458" y="295.389375" style="stroke: #000000; stroke-width: 0.5"/>
      </g>
     </g>
     <g id="line2d_70">
      <g>
       <use xlink:href="#m6d5fb8da25" x="508.105458" y="18.189375" style="stroke: #000000; stroke-width: 0.5"/>
      </g>
     </g>
    </g>
    <g id="xtick_36">
     <g id="line2d_71">
      <g>
       <use xlink:href="#mc4e19faf48" x="523.67962" y="295.389375" style="stroke: #000000; stroke-width: 0.5"/>
      </g>
     </g>
     <g id="line2d_72">
      <g>
       <use xlink:href="#m6d5fb8da25" x="523.67962" y="18.189375" style="stroke: #000000; stroke-width: 0.5"/>
      </g>
     </g>
    </g>
    <g id="xtick_37">
     <g id="line2d_73">
      <g>
       <use xlink:href="#mc4e19faf48" x="539.253783" y="295.389375" style="stroke: #000000; stroke-width: 0.5"/>
      </g>
     </g>
     <g id="line2d_74">
      <g>
       <use xlink:href="#m6d5fb8da25" x="539.253783" y="18.189375" style="stroke: #000000; stroke-width: 0.5"/>
      </g>
     </g>
    </g>
    <g id="xtick_38">
     <g id="line2d_75">
      <g>
       <use xlink:href="#mc4e19faf48" x="554.827946" y="295.389375" style="stroke: #000000; stroke-width: 0.5"/>
      </g>
     </g>
     <g id="line2d_76">
      <g>
       <use xlink:href="#m6d5fb8da25" x="554.827946" y="18.189375" style="stroke: #000000; stroke-width: 0.5"/>
      </g>
     </g>
    </g>
    <g id="xtick_39">
     <g id="line2d_77">
      <g>
       <use xlink:href="#mc4e19faf48" x="570.402108" y="295.389375" style="stroke: #000000; stroke-width: 0.5"/>
      </g>
     </g>
     <g id="line2d_78">
      <g>
       <use xlink:href="#m6d5fb8da25" x="570.402108" y="18.189375" style="stroke: #000000; stroke-width: 0.5"/>
      </g>
     </g>
    </g>
    <g id="xtick_40">
     <g id="line2d_79">
      <g>
       <use xlink:href="#mc4e19faf48" x="585.976271" y="295.389375" style="stroke: #000000; stroke-width: 0.5"/>
      </g>
     </g>
     <g id="line2d_80">
      <g>
       <use xlink:href="#m6d5fb8da25" x="585.976271" y="18.189375" style="stroke: #000000; stroke-width: 0.5"/>
      </g>
     </g>
    </g>
    <g id="text_9">
     <!-- 日期 -->
     <g transform="translate(308.990625 352.683517)scale(0.1 -0.1)">
      <defs>
       <path id="ArialUnicodeMS-65e5" d="M 5044 -178 
L 4538 -178 
L 4538 441 
L 2022 441 
L 2022 -206 
L 1516 -206 
L 1516 4781 
L 5044 4781 
L 5044 -178 
z
M 4538 2881 
L 4538 4313 
L 2022 4313 
L 2022 2881 
L 4538 2881 
z
M 4538 909 
L 4538 2413 
L 2022 2413 
L 2022 909 
L 4538 909 
z
" transform="scale(0.015625)"/>
       <path id="ArialUnicodeMS-671f" d="M 3738 1281 
L 506 1281 
L 506 1747 
L 1075 1747 
L 1075 4134 
L 531 4134 
L 531 4603 
L 1075 4603 
L 1075 5281 
L 1563 5281 
L 1563 4603 
L 2741 4603 
L 2741 5306 
L 3225 5306 
L 3225 4603 
L 3738 4603 
L 3738 4134 
L 3225 4134 
L 3225 1747 
L 3738 1747 
L 3738 1281 
z
M 2741 3688 
L 2741 4134 
L 1563 4134 
L 1563 3688 
L 2741 3688 
z
M 2741 2766 
L 2741 3219 
L 1563 3219 
L 1563 2766 
L 2741 2766 
z
M 2741 1747 
L 2741 2297 
L 1563 2297 
L 1563 1747 
L 2741 1747 
z
M 5753 366 
Q 5753 38 5672 -57 
Q 5591 -153 5489 -233 
Q 5388 -313 4697 -313 
L 4538 178 
L 5147 159 
Q 5269 159 5269 300 
L 5269 1753 
L 4331 1753 
Q 4275 494 3719 -447 
L 3284 -153 
Q 3853 716 3853 1984 
L 3853 4997 
L 5753 4997 
L 5753 366 
z
M 5269 3688 
L 5269 4531 
L 4341 4531 
L 4341 3688 
L 5269 3688 
z
M 5269 2222 
L 5269 3219 
L 4341 3219 
L 4341 2222 
L 5269 2222 
z
M 1931 934 
Q 1556 213 750 -422 
L 384 -84 
Q 1203 488 1588 1247 
L 1931 934 
z
M 3494 366 
L 3150 0 
Q 2775 566 2222 850 
L 2547 1178 
Q 3075 947 3494 366 
z
" transform="scale(0.015625)"/>
      </defs>
      <use xlink:href="#ArialUnicodeMS-65e5"/>
      <use xlink:href="#ArialUnicodeMS-671f" x="100"/>
     </g>
    </g>
   </g>
   <g id="matplotlib.axis_2">
    <g id="ytick_1">
     <g id="line2d_81">
      <defs>
       <path id="m9a3a9e1eef" d="M 0 0 
L 3 0 
" style="stroke: #000000; stroke-width: 0.5"/>
      </defs>
      <g>
       <use xlink:href="#m9a3a9e1eef" x="39.990625" y="278.413109" style="stroke: #000000; stroke-width: 0.5"/>
      </g>
     </g>
     <g id="line2d_82">
      <defs>
       <path id="m9e27f4543a" d="M 0 0 
L -3 0 
" style="stroke: #000000; stroke-width: 0.5"/>
      </defs>
      <g>
       <use xlink:href="#m9e27f4543a" x="597.990625" y="278.413109" style="stroke: #000000; stroke-width: 0.5"/>
      </g>
     </g>
     <g id="text_10">
      <!-- −0.2 -->
      <g transform="translate(16.75 281.992015)scale(0.1 -0.1)">
       <defs>
        <path id="ArialUnicodeMS-2212" d="M 3384 1997 
L 353 1997 
L 353 2522 
L 3384 2522 
L 3384 1997 
z
" transform="scale(0.015625)"/>
        <path id="ArialUnicodeMS-2e" d="M 1209 0 
L 569 0 
L 569 641 
L 1209 641 
L 1209 0 
z
" transform="scale(0.015625)"/>
       </defs>
       <use xlink:href="#ArialUnicodeMS-2212"/>
       <use xlink:href="#ArialUnicodeMS-30" x="58.398438"/>
       <use xlink:href="#ArialUnicodeMS-2e" x="114.013672"/>
       <use xlink:href="#ArialUnicodeMS-32" x="141.796875"/>
      </g>
     </g>
    </g>
    <g id="ytick_2">
     <g id="line2d_83">
      <g>
       <use xlink:href="#m9a3a9e1eef" x="39.990625" y="225.897913" style="stroke: #000000; stroke-width: 0.5"/>
      </g>
     </g>
     <g id="line2d_84">
      <g>
       <use xlink:href="#m9e27f4543a" x="597.990625" y="225.897913" style="stroke: #000000; stroke-width: 0.5"/>
      </g>
     </g>
     <g id="text_11">
      <!-- 0.0 -->
      <g transform="translate(22.590625 229.47682)scale(0.1 -0.1)">
       <use xlink:href="#ArialUnicodeMS-30"/>
       <use xlink:href="#ArialUnicodeMS-2e" x="55.615234"/>
       <use xlink:href="#ArialUnicodeMS-30" x="83.398438"/>
      </g>
     </g>
    </g>
    <g id="ytick_3">
     <g id="line2d_85">
      <g>
       <use xlink:href="#m9a3a9e1eef" x="39.990625" y="173.382718" style="stroke: #000000; stroke-width: 0.5"/>
      </g>
     </g>
     <g id="line2d_86">
      <g>
       <use xlink:href="#m9e27f4543a" x="597.990625" y="173.382718" style="stroke: #000000; stroke-width: 0.5"/>
      </g>
     </g>
     <g id="text_12">
      <!-- 0.2 -->
      <g transform="translate(22.590625 176.961624)scale(0.1 -0.1)">
       <use xlink:href="#ArialUnicodeMS-30"/>
       <use xlink:href="#ArialUnicodeMS-2e" x="55.615234"/>
       <use xlink:href="#ArialUnicodeMS-32" x="83.398438"/>
      </g>
     </g>
    </g>
    <g id="ytick_4">
     <g id="line2d_87">
      <g>
       <use xlink:href="#m9a3a9e1eef" x="39.990625" y="120.867523" style="stroke: #000000; stroke-width: 0.5"/>
      </g>
     </g>
     <g id="line2d_88">
      <g>
       <use xlink:href="#m9e27f4543a" x="597.990625" y="120.867523" style="stroke: #000000; stroke-width: 0.5"/>
      </g>
     </g>
     <g id="text_13">
      <!-- 0.4 -->
      <g transform="translate(22.590625 124.446429)scale(0.1 -0.1)">
       <defs>
        <path id="ArialUnicodeMS-34" d="M 3263 1094 
L 2644 1094 
L 2644 0 
L 2081 0 
L 2081 1094 
L 97 1094 
L 97 1613 
L 2181 4581 
L 2644 4581 
L 2644 1613 
L 3263 1613 
L 3263 1094 
z
M 2081 1613 
L 2081 3681 
L 2069 3681 
L 647 1613 
L 2081 1613 
z
" transform="scale(0.015625)"/>
       </defs>
       <use xlink:href="#ArialUnicodeMS-30"/>
       <use xlink:href="#ArialUnicodeMS-2e" x="55.615234"/>
       <use xlink:href="#ArialUnicodeMS-34" x="83.398438"/>
      </g>
     </g>
    </g>
    <g id="ytick_5">
     <g id="line2d_89">
      <g>
       <use xlink:href="#m9a3a9e1eef" x="39.990625" y="68.352327" style="stroke: #000000; stroke-width: 0.5"/>
      </g>
     </g>
     <g id="line2d_90">
      <g>
       <use xlink:href="#m9e27f4543a" x="597.990625" y="68.352327" style="stroke: #000000; stroke-width: 0.5"/>
      </g>
     </g>
     <g id="text_14">
      <!-- 0.6 -->
      <g transform="translate(22.590625 71.931233)scale(0.1 -0.1)">
       <defs>
        <path id="ArialUnicodeMS-36" d="M 838 2363 
Q 1225 2969 1941 2969 
Q 2503 2969 2897 2553 
Q 3291 2138 3291 1491 
Q 3291 838 2898 380 
Q 2506 -78 1856 -78 
Q 1197 -78 733 409 
Q 269 897 269 2144 
Q 269 3369 689 3986 
Q 1109 4603 1906 4603 
Q 2422 4603 2778 4315 
Q 3134 4028 3213 3463 
L 2650 3413 
Q 2497 4141 1875 4141 
Q 1444 4141 1134 3712 
Q 825 3284 825 2363 
L 838 2363 
z
M 1844 384 
Q 2231 384 2472 696 
Q 2713 1009 2713 1453 
Q 2713 1897 2472 2187 
Q 2231 2478 1825 2478 
Q 1453 2478 1184 2204 
Q 916 1931 916 1484 
Q 916 1028 1180 706 
Q 1444 384 1844 384 
z
" transform="scale(0.015625)"/>
       </defs>
       <use xlink:href="#ArialUnicodeMS-30"/>
       <use xlink:href="#ArialUnicodeMS-2e" x="55.615234"/>
       <use xlink:href="#ArialUnicodeMS-36" x="83.398438"/>
      </g>
     </g>
    </g>
    <g id="ytick_6">
     <g id="line2d_91">
      <defs>
       <path id="mc244e79c12" d="M 0 0 
L 1.5 0 
" style="stroke: #000000; stroke-width: 0.5"/>
      </defs>
      <g>
       <use xlink:href="#mc244e79c12" x="39.990625" y="291.541908" style="stroke: #000000; stroke-width: 0.5"/>
      </g>
     </g>
     <g id="line2d_92">
      <defs>
       <path id="m1d25e84923" d="M 0 0 
L -1.5 0 
" style="stroke: #000000; stroke-width: 0.5"/>
      </defs>
      <g>
       <use xlink:href="#m1d25e84923" x="597.990625" y="291.541908" style="stroke: #000000; stroke-width: 0.5"/>
      </g>
     </g>
    </g>
    <g id="ytick_7">
     <g id="line2d_93">
      <g>
       <use xlink:href="#mc244e79c12" x="39.990625" y="265.28431" style="stroke: #000000; stroke-width: 0.5"/>
      </g>
     </g>
     <g id="line2d_94">
      <g>
       <use xlink:href="#m1d25e84923" x="597.990625" y="265.28431" style="stroke: #000000; stroke-width: 0.5"/>
      </g>
     </g>
    </g>
    <g id="ytick_8">
     <g id="line2d_95">
      <g>
       <use xlink:href="#mc244e79c12" x="39.990625" y="252.155511" style="stroke: #000000; stroke-width: 0.5"/>
      </g>
     </g>
     <g id="line2d_96">
      <g>
       <use xlink:href="#m1d25e84923" x="597.990625" y="252.155511" style="stroke: #000000; stroke-width: 0.5"/>
      </g>
     </g>
    </g>
    <g id="ytick_9">
     <g id="line2d_97">
      <g>
       <use xlink:href="#mc244e79c12" x="39.990625" y="239.026712" style="stroke: #000000; stroke-width: 0.5"/>
      </g>
     </g>
     <g id="line2d_98">
      <g>
       <use xlink:href="#m1d25e84923" x="597.990625" y="239.026712" style="stroke: #000000; stroke-width: 0.5"/>
      </g>
     </g>
    </g>
    <g id="ytick_10">
     <g id="line2d_99">
      <g>
       <use xlink:href="#mc244e79c12" x="39.990625" y="212.769115" style="stroke: #000000; stroke-width: 0.5"/>
      </g>
     </g>
     <g id="line2d_100">
      <g>
       <use xlink:href="#m1d25e84923" x="597.990625" y="212.769115" style="stroke: #000000; stroke-width: 0.5"/>
      </g>
     </g>
    </g>
    <g id="ytick_11">
     <g id="line2d_101">
      <g>
       <use xlink:href="#mc244e79c12" x="39.990625" y="199.640316" style="stroke: #000000; stroke-width: 0.5"/>
      </g>
     </g>
     <g id="line2d_102">
      <g>
       <use xlink:href="#m1d25e84923" x="597.990625" y="199.640316" style="stroke: #000000; stroke-width: 0.5"/>
      </g>
     </g>
    </g>
    <g id="ytick_12">
     <g id="line2d_103">
      <g>
       <use xlink:href="#mc244e79c12" x="39.990625" y="186.511517" style="stroke: #000000; stroke-width: 0.5"/>
      </g>
     </g>
     <g id="line2d_104">
      <g>
       <use xlink:href="#m1d25e84923" x="597.990625" y="186.511517" style="stroke: #000000; stroke-width: 0.5"/>
      </g>
     </g>
    </g>
    <g id="ytick_13">
     <g id="line2d_105">
      <g>
       <use xlink:href="#mc244e79c12" x="39.990625" y="160.253919" style="stroke: #000000; stroke-width: 0.5"/>
      </g>
     </g>
     <g id="line2d_106">
      <g>
       <use xlink:href="#m1d25e84923" x="597.990625" y="160.253919" style="stroke: #000000; stroke-width: 0.5"/>
      </g>
     </g>
    </g>
    <g id="ytick_14">
     <g id="line2d_107">
      <g>
       <use xlink:href="#mc244e79c12" x="39.990625" y="147.12512" style="stroke: #000000; stroke-width: 0.5"/>
      </g>
     </g>
     <g id="line2d_108">
      <g>
       <use xlink:href="#m1d25e84923" x="597.990625" y="147.12512" style="stroke: #000000; stroke-width: 0.5"/>
      </g>
     </g>
    </g>
    <g id="ytick_15">
     <g id="line2d_109">
      <g>
       <use xlink:href="#mc244e79c12" x="39.990625" y="133.996321" style="stroke: #000000; stroke-width: 0.5"/>
      </g>
     </g>
     <g id="line2d_110">
      <g>
       <use xlink:href="#m1d25e84923" x="597.990625" y="133.996321" style="stroke: #000000; stroke-width: 0.5"/>
      </g>
     </g>
    </g>
    <g id="ytick_16">
     <g id="line2d_111">
      <g>
       <use xlink:href="#mc244e79c12" x="39.990625" y="107.738724" style="stroke: #000000; stroke-width: 0.5"/>
      </g>
     </g>
     <g id="line2d_112">
      <g>
       <use xlink:href="#m1d25e84923" x="597.990625" y="107.738724" style="stroke: #000000; stroke-width: 0.5"/>
      </g>
     </g>
    </g>
    <g id="ytick_17">
     <g id="line2d_113">
      <g>
       <use xlink:href="#mc244e79c12" x="39.990625" y="94.609925" style="stroke: #000000; stroke-width: 0.5"/>
      </g>
     </g>
     <g id="line2d_114">
      <g>
       <use xlink:href="#m1d25e84923" x="597.990625" y="94.609925" style="stroke: #000000; stroke-width: 0.5"/>
      </g>
     </g>
    </g>
    <g id="ytick_18">
     <g id="line2d_115">
      <g>
       <use xlink:href="#mc244e79c12" x="39.990625" y="81.481126" style="stroke: #000000; stroke-width: 0.5"/>
      </g>
     </g>
     <g id="line2d_116">
      <g>
       <use xlink:href="#m1d25e84923" x="597.990625" y="81.481126" style="stroke: #000000; stroke-width: 0.5"/>
      </g>
     </g>
    </g>
    <g id="ytick_19">
     <g id="line2d_117">
      <g>
       <use xlink:href="#mc244e79c12" x="39.990625" y="55.223528" style="stroke: #000000; stroke-width: 0.5"/>
      </g>
     </g>
     <g id="line2d_118">
      <g>
       <use xlink:href="#m1d25e84923" x="597.990625" y="55.223528" style="stroke: #000000; stroke-width: 0.5"/>
      </g>
     </g>
    </g>
    <g id="ytick_20">
     <g id="line2d_119">
      <g>
       <use xlink:href="#mc244e79c12" x="39.990625" y="42.09473" style="stroke: #000000; stroke-width: 0.5"/>
      </g>
     </g>
     <g id="line2d_120">
      <g>
       <use xlink:href="#m1d25e84923" x="597.990625" y="42.09473" style="stroke: #000000; stroke-width: 0.5"/>
      </g>
     </g>
    </g>
    <g id="ytick_21">
     <g id="line2d_121">
      <g>
       <use xlink:href="#mc244e79c12" x="39.990625" y="28.965931" style="stroke: #000000; stroke-width: 0.5"/>
      </g>
     </g>
     <g id="line2d_122">
      <g>
       <use xlink:href="#m1d25e84923" x="597.990625" y="28.965931" style="stroke: #000000; stroke-width: 0.5"/>
      </g>
     </g>
    </g>
    <g id="text_15">
     <!-- 微博内容平均情感分值 -->
     <g transform="translate(10.757812 206.789375)rotate(-90)scale(0.1 -0.1)">
      <defs>
       <path id="ArialUnicodeMS-5fae" d="M 6169 -56 
L 5766 -403 
Q 5191 156 4872 722 
Q 4403 -3 3891 -453 
L 3519 -116 
Q 4222 488 4622 1247 
Q 4356 1975 4288 2478 
L 4275 2478 
L 4063 2100 
L 3866 2266 
L 1813 2266 
L 1813 2725 
L 3891 2725 
Q 4388 3569 4441 5331 
L 4891 5228 
Q 4866 4688 4781 4031 
L 6034 4031 
L 6034 3578 
L 5619 3578 
Q 5556 2238 5125 1241 
Q 5438 594 6169 -56 
z
M 5159 3578 
L 4691 3578 
L 4628 3353 
Q 4638 2759 4856 1881 
L 4872 1881 
Q 5088 2506 5159 3578 
z
M 1959 5088 
Q 1459 4081 653 3488 
L 319 3816 
Q 1072 4341 1575 5325 
L 1959 5088 
z
M 4019 3059 
L 1991 3059 
L 1991 3500 
L 1978 3500 
Q 1847 3169 1588 2809 
L 1588 -488 
L 1100 -488 
L 1100 2247 
Q 1075 2225 919 2054 
Q 763 1884 616 1791 
L 225 2138 
Q 1097 2694 1644 3853 
L 1991 3603 
L 1991 4703 
L 2478 4703 
L 2478 3519 
L 2766 3519 
L 2766 5269 
L 3250 5275 
L 3250 3519 
L 3531 3519 
L 3531 4722 
L 4019 4722 
L 4019 3059 
z
M 4269 825 
L 3053 147 
L 2747 538 
L 3138 750 
L 3138 1978 
L 3622 1978 
L 3622 972 
L 4269 1350 
L 4269 825 
z
M 2747 1978 
Q 2788 266 1991 -397 
L 1625 -78 
Q 1984 234 2140 664 
Q 2297 1094 2291 1978 
L 2747 1978 
z
" transform="scale(0.015625)"/>
       <path id="ArialUnicodeMS-535a" d="M 6075 1044 
L 5300 1044 
L 5300 72 
Q 5300 -134 5156 -271 
Q 5013 -409 4800 -409 
L 4159 -409 
L 4006 84 
Q 4231 44 4513 44 
Q 4709 44 4761 95 
Q 4813 147 4813 244 
L 4813 1044 
L 1913 1044 
L 1913 1509 
L 4813 1509 
L 4813 1850 
L 2350 1850 
L 2350 4031 
L 3744 4031 
L 3744 4347 
L 1991 4347 
L 1991 4813 
L 3744 4813 
L 3744 5344 
L 4231 5344 
L 4231 4813 
L 4863 4813 
Q 4722 4984 4556 5113 
L 4972 5325 
Q 5241 5075 5375 4813 
L 6003 4813 
L 6003 4347 
L 4231 4347 
L 4231 4031 
L 5672 4031 
L 5672 1850 
L 5300 1850 
L 5300 1509 
L 6075 1509 
L 6075 1044 
z
M 5172 3188 
L 5172 3566 
L 4231 3566 
L 4231 3188 
L 5172 3188 
z
M 3744 3188 
L 3744 3566 
L 2841 3566 
L 2841 3188 
L 3744 3188 
z
M 5172 2322 
L 5172 2719 
L 4231 2719 
L 4231 2322 
L 5172 2322 
z
M 3744 2322 
L 3744 2719 
L 2841 2719 
L 2841 2322 
L 3744 2322 
z
M 2216 3272 
L 1569 3272 
L 1569 -453 
L 1081 -453 
L 1081 3272 
L 341 3272 
L 341 3738 
L 1081 3738 
L 1081 5325 
L 1569 5325 
L 1569 3738 
L 2216 3738 
L 2216 3272 
z
M 3794 422 
L 3450 84 
Q 3053 525 2509 709 
L 2875 1038 
Q 3431 844 3794 422 
z
" transform="scale(0.015625)"/>
       <path id="ArialUnicodeMS-5185" d="M 5538 84 
Q 5538 -341 4872 -341 
Q 4713 -341 4481 -331 
L 4294 141 
Q 4619 116 4800 116 
Q 5075 116 5075 281 
L 5075 3725 
L 3450 3725 
Q 3450 3322 3413 2938 
Q 4216 2334 4819 1300 
L 4428 1006 
Q 3994 1759 3263 2413 
Q 2831 1444 1772 872 
L 1478 1281 
Q 2225 1684 2600 2196 
Q 2975 2709 2975 3725 
L 1325 3725 
L 1325 -409 
L 838 -409 
L 838 4191 
L 3009 4191 
L 3009 5275 
L 3469 5275 
L 3469 4191 
L 5538 4191 
L 5538 84 
z
" transform="scale(0.015625)"/>
       <path id="ArialUnicodeMS-5bb9" d="M 5709 3541 
L 5222 3541 
L 5222 4263 
L 1197 4263 
L 1197 3494 
L 703 3494 
L 703 4728 
L 2944 4728 
L 2944 5338 
L 3444 5338 
L 3444 4728 
L 5709 4728 
L 5709 3541 
z
M 2578 3781 
Q 2113 3106 1075 2534 
L 684 2881 
Q 1809 3444 2228 4084 
L 2572 3781 
L 2578 3781 
z
M 5606 2906 
L 5275 2534 
Q 4678 3256 3713 3725 
L 4044 4078 
Q 5106 3541 5606 2906 
z
M 6100 1638 
L 5813 1228 
Q 5322 1391 4838 1638 
L 4838 -416 
L 4353 -416 
L 4353 -78 
L 2047 -78 
L 2047 -434 
L 1563 -434 
L 1563 1606 
Q 1256 1431 659 1172 
L 300 1581 
Q 2369 2325 3200 3694 
L 3603 3419 
L 3469 3225 
Q 4272 2256 6100 1638 
z
M 4550 1784 
Q 3631 2313 3213 2888 
Q 2597 2172 1844 1784 
L 4550 1784 
z
M 4347 1325 
L 2041 1325 
L 2041 391 
L 4347 391 
L 4347 1325 
z
" transform="scale(0.015625)"/>
       <path id="ArialUnicodeMS-5e73" d="M 5888 1875 
L 3419 1875 
L 3419 -447 
L 2931 -447 
L 2931 1875 
L 453 1875 
L 453 2344 
L 2931 2344 
L 2931 4569 
L 856 4569 
L 856 5038 
L 5453 5038 
L 5453 4569 
L 3419 4569 
L 3419 2344 
L 5888 2344 
L 5888 1875 
z
M 5241 4197 
Q 4981 3381 4134 2522 
L 3700 2803 
Q 4584 3606 4819 4422 
L 5241 4197 
z
M 2528 2753 
L 2081 2509 
Q 1700 3606 953 4153 
L 1428 4384 
Q 2109 3784 2528 2753 
z
" transform="scale(0.015625)"/>
       <path id="ArialUnicodeMS-5747" d="M 5797 4459 
Q 5772 1716 5730 978 
Q 5688 241 5458 -81 
Q 5228 -403 4744 -403 
Q 4606 -403 4006 -306 
L 3847 250 
Q 4413 128 4788 128 
Q 5022 128 5133 340 
Q 5244 553 5283 1968 
Q 5322 3384 5306 3994 
L 3347 3994 
Q 3056 3181 2559 2650 
L 2156 2944 
Q 2253 3025 2344 3128 
L 1728 3128 
L 1728 1441 
L 2541 1766 
L 2541 1259 
L 641 538 
L 319 978 
L 1241 1288 
L 1241 3128 
L 488 3128 
L 488 3597 
L 1241 3597 
L 1241 5100 
L 1728 5100 
L 1728 3597 
L 2413 3597 
L 2413 3231 
Q 3006 4097 3194 5319 
L 3675 5166 
Q 3572 4644 3494 4459 
L 5797 4459 
z
M 4813 2566 
L 2888 2566 
L 2888 3041 
L 4813 3041 
L 4813 2566 
z
M 4959 1900 
L 4959 1409 
Q 4266 1156 2706 709 
L 2431 1153 
Q 4391 1697 4959 1900 
z
" transform="scale(0.015625)"/>
       <path id="ArialUnicodeMS-60c5" d="M 6009 2944 
L 2291 2944 
L 1978 2828 
Q 1897 3128 1678 3506 
L 1678 -422 
L 1191 -422 
L 1191 5241 
L 1678 5241 
L 1678 3944 
L 1875 4044 
Q 2063 3806 2284 3406 
L 3744 3406 
L 3744 3719 
L 2591 3719 
L 2591 4178 
L 3744 4178 
L 3744 4453 
L 2322 4453 
L 2322 4916 
L 3744 4916 
L 3744 5356 
L 4231 5356 
L 4231 4916 
L 5691 4916 
L 5691 4453 
L 4231 4453 
L 4231 4178 
L 5381 4178 
L 5381 3719 
L 4231 3719 
L 4231 3406 
L 6009 3406 
L 6009 2944 
z
M 1056 3975 
Q 1047 3309 563 2456 
L 122 2688 
Q 616 3441 634 4128 
L 1056 3975 
z
M 5447 197 
Q 5447 -319 4781 -319 
L 4281 -319 
L 4097 141 
Q 4331 128 4469 128 
Q 4816 128 4891 167 
Q 4966 206 4966 594 
L 3078 594 
L 3078 -422 
L 2591 -422 
L 2591 2650 
L 5447 2650 
L 5447 197 
z
M 4959 1888 
L 4959 2188 
L 3078 2188 
L 3078 1888 
L 4959 1888 
z
M 4959 1056 
L 4959 1428 
L 3078 1428 
L 3078 1056 
L 4959 1056 
z
" transform="scale(0.015625)"/>
       <path id="ArialUnicodeMS-611f" d="M 5947 2253 
Q 5866 1247 5409 1247 
Q 5106 1247 4622 1797 
Q 4253 1400 3909 1197 
L 3494 1478 
Q 3956 1709 4331 2203 
Q 3959 2875 3794 4103 
L 1428 4103 
L 1428 2938 
Q 1428 1766 878 1234 
L 313 1422 
Q 947 1881 947 2778 
L 947 4569 
L 3744 4569 
L 3700 5306 
L 4191 5306 
L 4231 4569 
L 4825 4569 
Q 4678 4769 4441 4959 
L 4903 5141 
Q 5156 4934 5319 4569 
L 5797 4569 
L 5797 4103 
L 4275 4103 
Q 4422 3078 4647 2675 
Q 4963 3291 5013 3956 
L 5472 3781 
Q 5347 2975 4922 2209 
Q 5241 1788 5353 1788 
Q 5438 1788 5488 2120 
Q 5538 2453 5538 2606 
L 5947 2253 
z
M 3828 3322 
L 1528 3322 
L 1528 3788 
L 3828 3788 
L 3828 3322 
z
M 3731 1644 
L 1691 1644 
L 1691 3053 
L 3731 3053 
L 3731 1644 
z
M 3244 2113 
L 3244 2584 
L 2175 2584 
L 2175 2113 
L 3244 2113 
z
M 3872 775 
L 3481 494 
Q 3228 931 2553 1275 
L 2925 1575 
Q 3531 1309 3872 775 
z
M 4709 709 
Q 4581 113 4426 -35 
Q 4272 -184 4056 -184 
L 2584 -184 
Q 2359 -184 2162 -29 
Q 1966 125 1966 331 
L 1966 1222 
L 2472 1222 
L 2472 475 
Q 2472 281 2700 281 
L 3994 281 
Q 4078 281 4134 359 
Q 4191 438 4250 850 
L 4709 709 
z
M 1856 897 
Q 1347 194 603 -103 
L 300 313 
Q 956 519 1503 1203 
L 1856 897 
z
M 6088 166 
L 5650 -97 
Q 5338 484 4634 909 
L 5050 1184 
Q 5719 825 6088 166 
z
" transform="scale(0.015625)"/>
       <path id="ArialUnicodeMS-5206" d="M 5991 3003 
L 5684 2553 
Q 4856 3041 4451 3534 
Q 4047 4028 3781 4831 
L 4319 4984 
Q 4375 4356 4829 3825 
Q 5284 3294 5991 3003 
z
M 2613 4697 
Q 2169 3484 800 2547 
L 416 2919 
Q 1731 3741 2188 4934 
L 2613 4697 
z
M 4872 2931 
Q 4844 1956 4730 1092 
Q 4616 228 4430 7 
Q 4244 -213 3847 -213 
Q 3469 -213 2894 -78 
L 2747 481 
Q 3503 269 3834 269 
Q 4013 269 4128 639 
Q 4244 1009 4341 2463 
L 3138 2463 
Q 2869 263 831 -441 
L 525 -31 
Q 2372 478 2631 2463 
L 1556 2463 
L 1556 2931 
L 4872 2931 
z
" transform="scale(0.015625)"/>
       <path id="ArialUnicodeMS-503c" d="M 6034 -172 
L 1791 -172 
L 1791 294 
L 2344 294 
L 2344 3853 
L 3425 3853 
Q 3544 4109 3609 4341 
L 1925 4341 
L 1919 4672 
Q 1841 4369 1691 3981 
L 1544 3622 
L 1544 -434 
L 1056 -434 
L 1056 2753 
Q 859 2466 634 2241 
L 238 2516 
Q 1222 3619 1588 5325 
L 2028 5172 
Q 2009 5038 1953 4806 
L 3731 4806 
Q 3772 4997 3781 5338 
L 4275 5253 
Q 4275 5013 4225 4806 
L 5813 4806 
L 5813 4341 
L 4134 4341 
Q 4091 4188 3956 3853 
L 5409 3853 
L 5409 294 
L 6034 294 
L 6034 -172 
z
M 4922 2994 
L 4922 3384 
L 2828 3384 
L 2828 2994 
L 4922 2994 
z
M 4922 2138 
L 4922 2584 
L 2828 2584 
L 2828 2138 
L 4922 2138 
z
M 4922 1241 
L 4922 1716 
L 2828 1716 
L 2828 1241 
L 4922 1241 
z
M 4922 294 
L 4922 825 
L 2828 825 
L 2828 294 
L 4922 294 
z
" transform="scale(0.015625)"/>
      </defs>
      <use xlink:href="#ArialUnicodeMS-5fae"/>
      <use xlink:href="#ArialUnicodeMS-535a" x="100"/>
      <use xlink:href="#ArialUnicodeMS-5185" x="200"/>
      <use xlink:href="#ArialUnicodeMS-5bb9" x="300"/>
      <use xlink:href="#ArialUnicodeMS-5e73" x="400"/>
      <use xlink:href="#ArialUnicodeMS-5747" x="500"/>
      <use xlink:href="#ArialUnicodeMS-60c5" x="600"/>
      <use xlink:href="#ArialUnicodeMS-611f" x="700"/>
      <use xlink:href="#ArialUnicodeMS-5206" x="800"/>
      <use xlink:href="#ArialUnicodeMS-503c" x="900"/>
     </g>
    </g>
   </g>
   <g id="line2d_123">
    <path d="M 65.354261 282.789375 
L 74.253783 163.059218 
L 83.153304 162.239784 
L 92.052826 147.750267 
L 100.952347 146.452651 
L 109.851869 159.728293 
L 118.751391 167.864129 
L 127.650912 142.816394 
L 136.550434 159.056941 
L 145.449955 164.904937 
L 154.349477 136.077406 
L 163.248998 163.048965 
L 172.14852 147.582157 
L 181.048041 153.498884 
L 189.947563 154.364428 
L 198.847084 139.152401 
L 207.746606 137.957225 
L 216.646127 138.729311 
L 225.545649 152.772122 
L 234.44517 138.903884 
L 243.344692 151.242024 
L 252.244214 158.764915 
L 261.143735 171.248016 
L 270.043257 172.085062 
L 278.942778 159.850902 
L 287.8423 165.794456 
L 296.741821 157.647094 
L 305.641343 183.406583 
L 314.540864 163.919279 
L 323.440386 147.940907 
L 332.339907 156.981277 
L 341.239429 179.369628 
L 350.13895 144.326332 
L 359.038472 159.662352 
L 367.937993 159.436696 
L 376.837515 161.909199 
L 385.737036 176.922835 
L 394.636558 143.596163 
L 403.53608 146.307471 
L 412.435601 156.550715 
L 421.335123 157.683602 
L 430.234644 164.456722 
L 439.134166 164.633068 
L 448.033687 148.075666 
L 456.933209 148.196784 
L 465.83273 150.639327 
L 474.732252 149.598505 
L 483.631773 165.243164 
L 492.531295 140.641388 
L 501.430816 142.077944 
L 510.330338 170.503945 
L 519.229859 153.815653 
L 528.129381 170.675036 
L 537.028903 162.349534 
L 545.928424 162.881697 
L 554.827946 201.885283 
L 563.727467 163.536119 
L 572.626989 30.789375 
" clip-path="url(#pdce5012b0f)" style="fill: none; stroke: #0c5da5; stroke-linecap: square"/>
   </g>
   <g id="patch_3">
    <path d="M 39.990625 295.389375 
L 39.990625 18.189375 
" style="fill: none; stroke: #000000; stroke-width: 0.5; stroke-linejoin: miter; stroke-linecap: square"/>
   </g>
   <g id="patch_4">
    <path d="M 597.990625 295.389375 
L 597.990625 18.189375 
" style="fill: none; stroke: #000000; stroke-width: 0.5; stroke-linejoin: miter; stroke-linecap: square"/>
   </g>
   <g id="patch_5">
    <path d="M 39.990625 295.389375 
L 597.990625 295.389375 
" style="fill: none; stroke: #000000; stroke-width: 0.5; stroke-linejoin: miter; stroke-linecap: square"/>
   </g>
   <g id="patch_6">
    <path d="M 39.990625 18.189375 
L 597.990625 18.189375 
" style="fill: none; stroke: #000000; stroke-width: 0.5; stroke-linejoin: miter; stroke-linecap: square"/>
   </g>
   <g id="text_16">
    <!-- 微博内容平均情感分值随时间变化 -->
    <g transform="translate(228.990625 12.189375)scale(0.12 -0.12)">
     <defs>
      <path id="ArialUnicodeMS-968f" d="M 5844 4172 
L 4331 4172 
Q 4284 4009 4178 3809 
L 5594 3809 
L 5594 1094 
Q 5594 922 5487 803 
Q 5381 684 5216 684 
L 4647 684 
Q 4516 1028 4475 1178 
L 4991 1125 
Q 5106 1125 5106 1281 
L 5106 1644 
L 4025 1644 
L 4025 622 
L 3541 622 
L 3541 2772 
L 3391 2606 
L 3028 2975 
Q 3519 3409 3822 4172 
L 3059 4172 
L 3059 4641 
L 3975 4641 
Q 4084 5066 4122 5281 
L 4550 5106 
Q 4541 4884 4469 4641 
L 5844 4641 
L 5844 4172 
z
M 5106 2950 
L 5106 3341 
L 4025 3341 
L 4025 2950 
L 5106 2950 
z
M 5106 2088 
L 5106 2484 
L 4025 2484 
L 4025 2088 
L 5106 2088 
z
M 6028 341 
Q 5903 -6 5856 -178 
L 4091 -159 
Q 3359 -159 2853 500 
Q 2609 175 1997 -263 
L 1678 141 
Q 2278 606 2528 884 
L 2528 2503 
L 2181 2491 
Q 2328 2128 2328 1856 
Q 2328 1472 2122 1298 
Q 1916 1125 1684 1125 
Q 1556 1125 1428 1153 
L 1269 1684 
L 1638 1625 
Q 1875 1656 1875 1919 
Q 1875 2188 1203 3263 
L 1747 4556 
L 1119 4556 
L 1119 -409 
L 634 -409 
L 634 5025 
L 2278 5025 
L 2278 4609 
Q 1972 3703 1784 3291 
Q 1991 2953 2094 2669 
L 2100 2950 
L 2988 2950 
L 2988 1013 
Q 3281 606 3682 442 
Q 4084 278 4856 278 
Q 5313 278 6028 341 
z
M 3256 3553 
L 2834 3263 
Q 2625 3909 2272 4206 
L 2625 4475 
Q 3028 4138 3256 3553 
z
" transform="scale(0.015625)"/>
      <path id="ArialUnicodeMS-65f6" d="M 5931 3481 
L 5259 3481 
L 5259 72 
Q 5259 -122 5142 -259 
Q 5025 -397 4863 -397 
L 4281 -397 
L 4097 122 
L 4672 78 
Q 4775 66 4775 191 
L 4775 3481 
L 2784 3481 
L 2784 3950 
L 4775 3950 
L 4775 5306 
L 5259 5306 
L 5259 3950 
L 5931 3950 
L 5931 3481 
z
M 2463 97 
L 1978 97 
L 1978 569 
L 1147 569 
L 1147 97 
L 659 97 
L 659 4313 
L 2463 4313 
L 2463 97 
z
M 1978 2675 
L 1978 3847 
L 1147 3847 
L 1147 2675 
L 1978 2675 
z
M 1978 1038 
L 1978 2209 
L 1147 2209 
L 1147 1038 
L 1978 1038 
z
M 4306 1575 
L 3903 1300 
Q 3594 2103 2888 2725 
L 3272 2994 
Q 3997 2375 4306 1575 
z
" transform="scale(0.015625)"/>
      <path id="ArialUnicodeMS-95f4" d="M 2463 4313 
L 2088 4006 
Q 1600 4669 1094 4984 
L 1484 5247 
Q 2044 4888 2463 4313 
z
M 5497 178 
Q 5497 -50 5353 -181 
Q 5209 -313 4853 -313 
Q 4753 -313 4506 -300 
L 4366 147 
Q 4631 106 4806 106 
Q 4991 106 5002 142 
Q 5013 178 5013 275 
L 5013 4453 
L 2841 4453 
L 2841 4922 
L 5497 4922 
L 5497 178 
z
M 1125 -384 
L 641 -384 
L 641 4197 
L 1125 4197 
L 1125 -384 
z
M 4306 481 
L 3822 481 
L 3822 813 
L 2375 813 
L 2375 481 
L 1888 481 
L 1888 3669 
L 4306 3669 
L 4306 481 
z
M 3822 2559 
L 3822 3200 
L 2375 3200 
L 2375 2559 
L 3822 2559 
z
M 3822 1281 
L 3822 2094 
L 2375 2094 
L 2375 1281 
L 3822 1281 
z
" transform="scale(0.015625)"/>
      <path id="ArialUnicodeMS-53d8" d="M 5813 4050 
L 3938 4050 
L 3938 2350 
L 3469 2350 
L 3481 4050 
L 2719 4050 
L 2719 2350 
L 2266 2350 
L 2266 4050 
L 372 4050 
L 372 4494 
L 3009 4494 
Q 2856 4744 2400 5031 
L 2694 5331 
Q 3203 5041 3513 4634 
L 3341 4513 
L 3341 4494 
L 5813 4494 
L 5813 4050 
z
M 1947 3519 
Q 1559 2866 775 2059 
L 416 2425 
Q 1016 2938 1594 3809 
L 1947 3519 
z
M 5838 2484 
L 5409 2209 
Q 5081 2878 4306 3488 
L 4653 3756 
Q 5550 3047 5838 2484 
z
M 5978 78 
L 5691 -366 
Q 5153 -297 4609 -142 
Q 4066 13 3188 481 
Q 2103 -150 519 -378 
Q 438 -222 244 63 
Q 1741 225 2753 775 
Q 2309 1069 1819 1784 
L 1350 1784 
L 1350 2253 
L 4603 2253 
L 4603 1791 
Q 4038 1091 3597 775 
Q 4497 263 5978 78 
z
M 3975 1784 
L 2413 1784 
Q 2641 1425 3188 1044 
Q 3763 1481 3975 1784 
z
" transform="scale(0.015625)"/>
      <path id="ArialUnicodeMS-5316" d="M 2431 5147 
Q 2322 4731 2081 4159 
L 1844 3603 
L 1844 -366 
L 1350 -366 
L 1350 2834 
Q 1006 2356 653 2075 
L 306 2444 
Q 1350 3319 2003 5350 
L 2431 5147 
z
M 6081 1325 
Q 5994 419 5786 114 
Q 5578 -191 5203 -191 
L 3872 -191 
Q 3534 -191 3339 -12 
Q 3144 166 3144 469 
L 3144 5178 
L 3628 5178 
L 3628 2853 
Q 4478 3413 5288 4488 
L 5709 4197 
Q 4800 2984 3628 2272 
L 3628 550 
Q 3628 288 3981 288 
L 5113 288 
Q 5553 288 5581 1503 
L 6081 1325 
z
" transform="scale(0.015625)"/>
     </defs>
     <use xlink:href="#ArialUnicodeMS-5fae"/>
     <use xlink:href="#ArialUnicodeMS-535a" x="100"/>
     <use xlink:href="#ArialUnicodeMS-5185" x="200"/>
     <use xlink:href="#ArialUnicodeMS-5bb9" x="300"/>
     <use xlink:href="#ArialUnicodeMS-5e73" x="400"/>
     <use xlink:href="#ArialUnicodeMS-5747" x="500"/>
     <use xlink:href="#ArialUnicodeMS-60c5" x="600"/>
     <use xlink:href="#ArialUnicodeMS-611f" x="700"/>
     <use xlink:href="#ArialUnicodeMS-5206" x="800"/>
     <use xlink:href="#ArialUnicodeMS-503c" x="900"/>
     <use xlink:href="#ArialUnicodeMS-968f" x="1000"/>
     <use xlink:href="#ArialUnicodeMS-65f6" x="1100"/>
     <use xlink:href="#ArialUnicodeMS-95f4" x="1200"/>
     <use xlink:href="#ArialUnicodeMS-53d8" x="1300"/>
     <use xlink:href="#ArialUnicodeMS-5316" x="1400"/>
    </g>
   </g>
  </g>
 </g>
 <defs>
  <clipPath id="pdce5012b0f">
   <rect x="39.990625" y="18.189375" width="558" height="277.2"/>
  </clipPath>
 </defs>
</svg>
