<?xml version="1.0" encoding="utf-8" standalone="no"?>
<!DOCTYPE svg PUBLIC "-//W3C//DTD SVG 1.1//EN"
  "http://www.w3.org/Graphics/SVG/1.1/DTD/svg11.dtd">
<svg xmlns:xlink="http://www.w3.org/1999/xlink" width="726.815625pt" height="497.330312pt" viewBox="0 0 726.815625 497.330312" xmlns="http://www.w3.org/2000/svg" version="1.1">
 <metadata>
  <rdf:RDF xmlns:dc="http://purl.org/dc/elements/1.1/" xmlns:cc="http://creativecommons.org/ns#" xmlns:rdf="http://www.w3.org/1999/02/22-rdf-syntax-ns#">
   <cc:Work>
    <dc:type rdf:resource="http://purl.org/dc/dcmitype/StillImage"/>
    <dc:date>2023-04-13T16:21:35.673626</dc:date>
    <dc:format>image/svg+xml</dc:format>
    <dc:creator>
     <cc:Agent>
      <dc:title>Matplotlib v3.5.2, https://matplotlib.org/</dc:title>
     </cc:Agent>
    </dc:creator>
   </cc:Work>
  </rdf:RDF>
 </metadata>
 <defs>
  <style type="text/css">*{stroke-linejoin: round; stroke-linecap: butt}</style>
 </defs>
 <g id="figure_1">
  <g id="patch_1">
   <path d="M 0 497.330312 
L 726.815625 497.330312 
L 726.815625 0 
L 0 0 
z
" style="fill: #ffffff"/>
  </g>
  <g id="axes_1">
   <g id="patch_2">
    <path d="M 53.615625 466.5725 
L 723.215625 466.5725 
L 723.215625 23.0525 
L 53.615625 23.0525 
z
" style="fill: #ffffff"/>
   </g>
   <g id="matplotlib.axis_1">
    <g id="xtick_1">
     <g id="line2d_1">
      <defs>
       <path id="mdecb726141" d="M 0 0 
L 0 -3 
" style="stroke: #000000; stroke-width: 0.5"/>
      </defs>
      <g>
       <use xlink:href="#mdecb726141" x="84.051989" y="466.5725" style="stroke: #000000; stroke-width: 0.5"/>
      </g>
     </g>
     <g id="line2d_2">
      <defs>
       <path id="mc84fb80763" d="M 0 0 
L 0 3 
" style="stroke: #000000; stroke-width: 0.5"/>
      </defs>
      <g>
       <use xlink:href="#mc84fb80763" x="84.051989" y="23.0525" style="stroke: #000000; stroke-width: 0.5"/>
      </g>
     </g>
     <g id="text_1">
      <!-- 2000 -->
      <g transform="translate(72.930114 477.230312)scale(0.1 -0.1)">
       <defs>
        <path id="ArialUnicodeMS-32" d="M 3231 0 
L 197 0 
Q 197 388 467 784 
Q 738 1181 1478 1778 
Q 1931 2141 2287 2539 
Q 2644 2938 2644 3341 
Q 2644 3688 2398 3914 
Q 2153 4141 1778 4141 
Q 1400 4141 1144 3908 
Q 888 3675 884 3213 
L 306 3278 
Q 359 3922 764 4262 
Q 1169 4603 1791 4603 
Q 2466 4603 2842 4229 
Q 3219 3856 3219 3328 
Q 3219 2888 2901 2436 
Q 2584 1984 1638 1228 
Q 1141 831 978 544 
L 3231 544 
L 3231 0 
z
" transform="scale(0.015625)"/>
        <path id="ArialUnicodeMS-30" d="M 1778 4603 
Q 3272 4603 3272 2259 
Q 3272 1075 2886 498 
Q 2500 -78 1778 -78 
Q 288 -78 288 2259 
Q 288 3444 673 4023 
Q 1059 4603 1778 4603 
z
M 1778 384 
Q 2231 384 2462 823 
Q 2694 1263 2694 2259 
Q 2694 2953 2592 3351 
Q 2491 3750 2286 3945 
Q 2081 4141 1772 4141 
Q 1319 4141 1091 3694 
Q 863 3247 863 2259 
Q 863 1575 966 1175 
Q 1069 775 1272 579 
Q 1475 384 1778 384 
z
" transform="scale(0.015625)"/>
       </defs>
       <use xlink:href="#ArialUnicodeMS-32"/>
       <use xlink:href="#ArialUnicodeMS-30" x="55.615234"/>
       <use xlink:href="#ArialUnicodeMS-30" x="111.230469"/>
       <use xlink:href="#ArialUnicodeMS-30" x="166.845703"/>
      </g>
     </g>
    </g>
    <g id="xtick_2">
     <g id="line2d_3">
      <g>
       <use xlink:href="#mdecb726141" x="164.147682" y="466.5725" style="stroke: #000000; stroke-width: 0.5"/>
      </g>
     </g>
     <g id="line2d_4">
      <g>
       <use xlink:href="#mc84fb80763" x="164.147682" y="23.0525" style="stroke: #000000; stroke-width: 0.5"/>
      </g>
     </g>
    </g>
    <g id="xtick_3">
     <g id="line2d_5">
      <g>
       <use xlink:href="#mdecb726141" x="244.243376" y="466.5725" style="stroke: #000000; stroke-width: 0.5"/>
      </g>
     </g>
     <g id="line2d_6">
      <g>
       <use xlink:href="#mc84fb80763" x="244.243376" y="23.0525" style="stroke: #000000; stroke-width: 0.5"/>
      </g>
     </g>
     <g id="text_2">
      <!-- 2005 -->
      <g transform="translate(233.121501 477.230312)scale(0.1 -0.1)">
       <defs>
        <path id="ArialUnicodeMS-35" d="M 1013 2753 
Q 1431 3041 1881 3041 
Q 2453 3041 2878 2636 
Q 3303 2231 3303 1556 
Q 3303 875 2872 398 
Q 2441 -78 1741 -78 
Q 1169 -78 750 245 
Q 331 569 269 1203 
L 856 1247 
Q 928 813 1162 598 
Q 1397 384 1741 384 
Q 2169 384 2434 707 
Q 2700 1031 2700 1503 
Q 2700 1984 2428 2262 
Q 2156 2541 1728 2541 
Q 1188 2541 897 2100 
L 366 2163 
L 813 4519 
L 3084 4519 
L 3084 3975 
L 1259 3975 
L 1013 2753 
z
" transform="scale(0.015625)"/>
       </defs>
       <use xlink:href="#ArialUnicodeMS-32"/>
       <use xlink:href="#ArialUnicodeMS-30" x="55.615234"/>
       <use xlink:href="#ArialUnicodeMS-30" x="111.230469"/>
       <use xlink:href="#ArialUnicodeMS-35" x="166.845703"/>
      </g>
     </g>
    </g>
    <g id="xtick_4">
     <g id="line2d_7">
      <g>
       <use xlink:href="#mdecb726141" x="324.33907" y="466.5725" style="stroke: #000000; stroke-width: 0.5"/>
      </g>
     </g>
     <g id="line2d_8">
      <g>
       <use xlink:href="#mc84fb80763" x="324.33907" y="23.0525" style="stroke: #000000; stroke-width: 0.5"/>
      </g>
     </g>
    </g>
    <g id="xtick_5">
     <g id="line2d_9">
      <g>
       <use xlink:href="#mdecb726141" x="404.434764" y="466.5725" style="stroke: #000000; stroke-width: 0.5"/>
      </g>
     </g>
     <g id="line2d_10">
      <g>
       <use xlink:href="#mc84fb80763" x="404.434764" y="23.0525" style="stroke: #000000; stroke-width: 0.5"/>
      </g>
     </g>
     <g id="text_3">
      <!-- 2010 -->
      <g transform="translate(393.312889 477.230312)scale(0.1 -0.1)">
       <defs>
        <path id="ArialUnicodeMS-31" d="M 2400 0 
L 1838 0 
L 1838 3584 
Q 1416 3184 709 2906 
L 709 3450 
Q 1681 3916 2034 4603 
L 2400 4603 
L 2400 0 
z
" transform="scale(0.015625)"/>
       </defs>
       <use xlink:href="#ArialUnicodeMS-32"/>
       <use xlink:href="#ArialUnicodeMS-30" x="55.615234"/>
       <use xlink:href="#ArialUnicodeMS-31" x="111.230469"/>
       <use xlink:href="#ArialUnicodeMS-30" x="166.845703"/>
      </g>
     </g>
    </g>
    <g id="xtick_6">
     <g id="line2d_11">
      <g>
       <use xlink:href="#mdecb726141" x="484.530458" y="466.5725" style="stroke: #000000; stroke-width: 0.5"/>
      </g>
     </g>
     <g id="line2d_12">
      <g>
       <use xlink:href="#mc84fb80763" x="484.530458" y="23.0525" style="stroke: #000000; stroke-width: 0.5"/>
      </g>
     </g>
    </g>
    <g id="xtick_7">
     <g id="line2d_13">
      <g>
       <use xlink:href="#mdecb726141" x="564.626151" y="466.5725" style="stroke: #000000; stroke-width: 0.5"/>
      </g>
     </g>
     <g id="line2d_14">
      <g>
       <use xlink:href="#mc84fb80763" x="564.626151" y="23.0525" style="stroke: #000000; stroke-width: 0.5"/>
      </g>
     </g>
     <g id="text_4">
      <!-- 2015 -->
      <g transform="translate(553.504276 477.230312)scale(0.1 -0.1)">
       <use xlink:href="#ArialUnicodeMS-32"/>
       <use xlink:href="#ArialUnicodeMS-30" x="55.615234"/>
       <use xlink:href="#ArialUnicodeMS-31" x="111.230469"/>
       <use xlink:href="#ArialUnicodeMS-35" x="166.845703"/>
      </g>
     </g>
    </g>
    <g id="xtick_8">
     <g id="line2d_15">
      <g>
       <use xlink:href="#mdecb726141" x="644.721845" y="466.5725" style="stroke: #000000; stroke-width: 0.5"/>
      </g>
     </g>
     <g id="line2d_16">
      <g>
       <use xlink:href="#mc84fb80763" x="644.721845" y="23.0525" style="stroke: #000000; stroke-width: 0.5"/>
      </g>
     </g>
    </g>
    <g id="xtick_9">
     <g id="line2d_17">
      <defs>
       <path id="m6368c6037f" d="M 0 0 
L 0 -1.5 
" style="stroke: #000000; stroke-width: 0.5"/>
      </defs>
      <g>
       <use xlink:href="#m6368c6037f" x="68.03285" y="466.5725" style="stroke: #000000; stroke-width: 0.5"/>
      </g>
     </g>
     <g id="line2d_18">
      <defs>
       <path id="m7cf7b17c15" d="M 0 0 
L 0 1.5 
" style="stroke: #000000; stroke-width: 0.5"/>
      </defs>
      <g>
       <use xlink:href="#m7cf7b17c15" x="68.03285" y="23.0525" style="stroke: #000000; stroke-width: 0.5"/>
      </g>
     </g>
    </g>
    <g id="xtick_10">
     <g id="line2d_19">
      <g>
       <use xlink:href="#m6368c6037f" x="100.071127" y="466.5725" style="stroke: #000000; stroke-width: 0.5"/>
      </g>
     </g>
     <g id="line2d_20">
      <g>
       <use xlink:href="#m7cf7b17c15" x="100.071127" y="23.0525" style="stroke: #000000; stroke-width: 0.5"/>
      </g>
     </g>
    </g>
    <g id="xtick_11">
     <g id="line2d_21">
      <g>
       <use xlink:href="#m6368c6037f" x="116.090266" y="466.5725" style="stroke: #000000; stroke-width: 0.5"/>
      </g>
     </g>
     <g id="line2d_22">
      <g>
       <use xlink:href="#m7cf7b17c15" x="116.090266" y="23.0525" style="stroke: #000000; stroke-width: 0.5"/>
      </g>
     </g>
    </g>
    <g id="xtick_12">
     <g id="line2d_23">
      <g>
       <use xlink:href="#m6368c6037f" x="132.109405" y="466.5725" style="stroke: #000000; stroke-width: 0.5"/>
      </g>
     </g>
     <g id="line2d_24">
      <g>
       <use xlink:href="#m7cf7b17c15" x="132.109405" y="23.0525" style="stroke: #000000; stroke-width: 0.5"/>
      </g>
     </g>
    </g>
    <g id="xtick_13">
     <g id="line2d_25">
      <g>
       <use xlink:href="#m6368c6037f" x="148.128544" y="466.5725" style="stroke: #000000; stroke-width: 0.5"/>
      </g>
     </g>
     <g id="line2d_26">
      <g>
       <use xlink:href="#m7cf7b17c15" x="148.128544" y="23.0525" style="stroke: #000000; stroke-width: 0.5"/>
      </g>
     </g>
    </g>
    <g id="xtick_14">
     <g id="line2d_27">
      <g>
       <use xlink:href="#m6368c6037f" x="180.166821" y="466.5725" style="stroke: #000000; stroke-width: 0.5"/>
      </g>
     </g>
     <g id="line2d_28">
      <g>
       <use xlink:href="#m7cf7b17c15" x="180.166821" y="23.0525" style="stroke: #000000; stroke-width: 0.5"/>
      </g>
     </g>
    </g>
    <g id="xtick_15">
     <g id="line2d_29">
      <g>
       <use xlink:href="#m6368c6037f" x="196.18596" y="466.5725" style="stroke: #000000; stroke-width: 0.5"/>
      </g>
     </g>
     <g id="line2d_30">
      <g>
       <use xlink:href="#m7cf7b17c15" x="196.18596" y="23.0525" style="stroke: #000000; stroke-width: 0.5"/>
      </g>
     </g>
    </g>
    <g id="xtick_16">
     <g id="line2d_31">
      <g>
       <use xlink:href="#m6368c6037f" x="212.205099" y="466.5725" style="stroke: #000000; stroke-width: 0.5"/>
      </g>
     </g>
     <g id="line2d_32">
      <g>
       <use xlink:href="#m7cf7b17c15" x="212.205099" y="23.0525" style="stroke: #000000; stroke-width: 0.5"/>
      </g>
     </g>
    </g>
    <g id="xtick_17">
     <g id="line2d_33">
      <g>
       <use xlink:href="#m6368c6037f" x="228.224237" y="466.5725" style="stroke: #000000; stroke-width: 0.5"/>
      </g>
     </g>
     <g id="line2d_34">
      <g>
       <use xlink:href="#m7cf7b17c15" x="228.224237" y="23.0525" style="stroke: #000000; stroke-width: 0.5"/>
      </g>
     </g>
    </g>
    <g id="xtick_18">
     <g id="line2d_35">
      <g>
       <use xlink:href="#m6368c6037f" x="260.262515" y="466.5725" style="stroke: #000000; stroke-width: 0.5"/>
      </g>
     </g>
     <g id="line2d_36">
      <g>
       <use xlink:href="#m7cf7b17c15" x="260.262515" y="23.0525" style="stroke: #000000; stroke-width: 0.5"/>
      </g>
     </g>
    </g>
    <g id="xtick_19">
     <g id="line2d_37">
      <g>
       <use xlink:href="#m6368c6037f" x="276.281654" y="466.5725" style="stroke: #000000; stroke-width: 0.5"/>
      </g>
     </g>
     <g id="line2d_38">
      <g>
       <use xlink:href="#m7cf7b17c15" x="276.281654" y="23.0525" style="stroke: #000000; stroke-width: 0.5"/>
      </g>
     </g>
    </g>
    <g id="xtick_20">
     <g id="line2d_39">
      <g>
       <use xlink:href="#m6368c6037f" x="292.300792" y="466.5725" style="stroke: #000000; stroke-width: 0.5"/>
      </g>
     </g>
     <g id="line2d_40">
      <g>
       <use xlink:href="#m7cf7b17c15" x="292.300792" y="23.0525" style="stroke: #000000; stroke-width: 0.5"/>
      </g>
     </g>
    </g>
    <g id="xtick_21">
     <g id="line2d_41">
      <g>
       <use xlink:href="#m6368c6037f" x="308.319931" y="466.5725" style="stroke: #000000; stroke-width: 0.5"/>
      </g>
     </g>
     <g id="line2d_42">
      <g>
       <use xlink:href="#m7cf7b17c15" x="308.319931" y="23.0525" style="stroke: #000000; stroke-width: 0.5"/>
      </g>
     </g>
    </g>
    <g id="xtick_22">
     <g id="line2d_43">
      <g>
       <use xlink:href="#m6368c6037f" x="340.358209" y="466.5725" style="stroke: #000000; stroke-width: 0.5"/>
      </g>
     </g>
     <g id="line2d_44">
      <g>
       <use xlink:href="#m7cf7b17c15" x="340.358209" y="23.0525" style="stroke: #000000; stroke-width: 0.5"/>
      </g>
     </g>
    </g>
    <g id="xtick_23">
     <g id="line2d_45">
      <g>
       <use xlink:href="#m6368c6037f" x="356.377347" y="466.5725" style="stroke: #000000; stroke-width: 0.5"/>
      </g>
     </g>
     <g id="line2d_46">
      <g>
       <use xlink:href="#m7cf7b17c15" x="356.377347" y="23.0525" style="stroke: #000000; stroke-width: 0.5"/>
      </g>
     </g>
    </g>
    <g id="xtick_24">
     <g id="line2d_47">
      <g>
       <use xlink:href="#m6368c6037f" x="372.396486" y="466.5725" style="stroke: #000000; stroke-width: 0.5"/>
      </g>
     </g>
     <g id="line2d_48">
      <g>
       <use xlink:href="#m7cf7b17c15" x="372.396486" y="23.0525" style="stroke: #000000; stroke-width: 0.5"/>
      </g>
     </g>
    </g>
    <g id="xtick_25">
     <g id="line2d_49">
      <g>
       <use xlink:href="#m6368c6037f" x="388.415625" y="466.5725" style="stroke: #000000; stroke-width: 0.5"/>
      </g>
     </g>
     <g id="line2d_50">
      <g>
       <use xlink:href="#m7cf7b17c15" x="388.415625" y="23.0525" style="stroke: #000000; stroke-width: 0.5"/>
      </g>
     </g>
    </g>
    <g id="xtick_26">
     <g id="line2d_51">
      <g>
       <use xlink:href="#m6368c6037f" x="420.453903" y="466.5725" style="stroke: #000000; stroke-width: 0.5"/>
      </g>
     </g>
     <g id="line2d_52">
      <g>
       <use xlink:href="#m7cf7b17c15" x="420.453903" y="23.0525" style="stroke: #000000; stroke-width: 0.5"/>
      </g>
     </g>
    </g>
    <g id="xtick_27">
     <g id="line2d_53">
      <g>
       <use xlink:href="#m6368c6037f" x="436.473041" y="466.5725" style="stroke: #000000; stroke-width: 0.5"/>
      </g>
     </g>
     <g id="line2d_54">
      <g>
       <use xlink:href="#m7cf7b17c15" x="436.473041" y="23.0525" style="stroke: #000000; stroke-width: 0.5"/>
      </g>
     </g>
    </g>
    <g id="xtick_28">
     <g id="line2d_55">
      <g>
       <use xlink:href="#m6368c6037f" x="452.49218" y="466.5725" style="stroke: #000000; stroke-width: 0.5"/>
      </g>
     </g>
     <g id="line2d_56">
      <g>
       <use xlink:href="#m7cf7b17c15" x="452.49218" y="23.0525" style="stroke: #000000; stroke-width: 0.5"/>
      </g>
     </g>
    </g>
    <g id="xtick_29">
     <g id="line2d_57">
      <g>
       <use xlink:href="#m6368c6037f" x="468.511319" y="466.5725" style="stroke: #000000; stroke-width: 0.5"/>
      </g>
     </g>
     <g id="line2d_58">
      <g>
       <use xlink:href="#m7cf7b17c15" x="468.511319" y="23.0525" style="stroke: #000000; stroke-width: 0.5"/>
      </g>
     </g>
    </g>
    <g id="xtick_30">
     <g id="line2d_59">
      <g>
       <use xlink:href="#m6368c6037f" x="500.549596" y="466.5725" style="stroke: #000000; stroke-width: 0.5"/>
      </g>
     </g>
     <g id="line2d_60">
      <g>
       <use xlink:href="#m7cf7b17c15" x="500.549596" y="23.0525" style="stroke: #000000; stroke-width: 0.5"/>
      </g>
     </g>
    </g>
    <g id="xtick_31">
     <g id="line2d_61">
      <g>
       <use xlink:href="#m6368c6037f" x="516.568735" y="466.5725" style="stroke: #000000; stroke-width: 0.5"/>
      </g>
     </g>
     <g id="line2d_62">
      <g>
       <use xlink:href="#m7cf7b17c15" x="516.568735" y="23.0525" style="stroke: #000000; stroke-width: 0.5"/>
      </g>
     </g>
    </g>
    <g id="xtick_32">
     <g id="line2d_63">
      <g>
       <use xlink:href="#m6368c6037f" x="532.587874" y="466.5725" style="stroke: #000000; stroke-width: 0.5"/>
      </g>
     </g>
     <g id="line2d_64">
      <g>
       <use xlink:href="#m7cf7b17c15" x="532.587874" y="23.0525" style="stroke: #000000; stroke-width: 0.5"/>
      </g>
     </g>
    </g>
    <g id="xtick_33">
     <g id="line2d_65">
      <g>
       <use xlink:href="#m6368c6037f" x="548.607013" y="466.5725" style="stroke: #000000; stroke-width: 0.5"/>
      </g>
     </g>
     <g id="line2d_66">
      <g>
       <use xlink:href="#m7cf7b17c15" x="548.607013" y="23.0525" style="stroke: #000000; stroke-width: 0.5"/>
      </g>
     </g>
    </g>
    <g id="xtick_34">
     <g id="line2d_67">
      <g>
       <use xlink:href="#m6368c6037f" x="580.64529" y="466.5725" style="stroke: #000000; stroke-width: 0.5"/>
      </g>
     </g>
     <g id="line2d_68">
      <g>
       <use xlink:href="#m7cf7b17c15" x="580.64529" y="23.0525" style="stroke: #000000; stroke-width: 0.5"/>
      </g>
     </g>
    </g>
    <g id="xtick_35">
     <g id="line2d_69">
      <g>
       <use xlink:href="#m6368c6037f" x="596.664429" y="466.5725" style="stroke: #000000; stroke-width: 0.5"/>
      </g>
     </g>
     <g id="line2d_70">
      <g>
       <use xlink:href="#m7cf7b17c15" x="596.664429" y="23.0525" style="stroke: #000000; stroke-width: 0.5"/>
      </g>
     </g>
    </g>
    <g id="xtick_36">
     <g id="line2d_71">
      <g>
       <use xlink:href="#m6368c6037f" x="612.683568" y="466.5725" style="stroke: #000000; stroke-width: 0.5"/>
      </g>
     </g>
     <g id="line2d_72">
      <g>
       <use xlink:href="#m7cf7b17c15" x="612.683568" y="23.0525" style="stroke: #000000; stroke-width: 0.5"/>
      </g>
     </g>
    </g>
    <g id="xtick_37">
     <g id="line2d_73">
      <g>
       <use xlink:href="#m6368c6037f" x="628.702706" y="466.5725" style="stroke: #000000; stroke-width: 0.5"/>
      </g>
     </g>
     <g id="line2d_74">
      <g>
       <use xlink:href="#m7cf7b17c15" x="628.702706" y="23.0525" style="stroke: #000000; stroke-width: 0.5"/>
      </g>
     </g>
    </g>
    <g id="xtick_38">
     <g id="line2d_75">
      <g>
       <use xlink:href="#m6368c6037f" x="660.740984" y="466.5725" style="stroke: #000000; stroke-width: 0.5"/>
      </g>
     </g>
     <g id="line2d_76">
      <g>
       <use xlink:href="#m7cf7b17c15" x="660.740984" y="23.0525" style="stroke: #000000; stroke-width: 0.5"/>
      </g>
     </g>
    </g>
    <g id="xtick_39">
     <g id="line2d_77">
      <g>
       <use xlink:href="#m6368c6037f" x="676.760123" y="466.5725" style="stroke: #000000; stroke-width: 0.5"/>
      </g>
     </g>
     <g id="line2d_78">
      <g>
       <use xlink:href="#m7cf7b17c15" x="676.760123" y="23.0525" style="stroke: #000000; stroke-width: 0.5"/>
      </g>
     </g>
    </g>
    <g id="xtick_40">
     <g id="line2d_79">
      <g>
       <use xlink:href="#m6368c6037f" x="692.779261" y="466.5725" style="stroke: #000000; stroke-width: 0.5"/>
      </g>
     </g>
     <g id="line2d_80">
      <g>
       <use xlink:href="#m7cf7b17c15" x="692.779261" y="23.0525" style="stroke: #000000; stroke-width: 0.5"/>
      </g>
     </g>
    </g>
    <g id="xtick_41">
     <g id="line2d_81">
      <g>
       <use xlink:href="#m6368c6037f" x="708.7984" y="466.5725" style="stroke: #000000; stroke-width: 0.5"/>
      </g>
     </g>
     <g id="line2d_82">
      <g>
       <use xlink:href="#m7cf7b17c15" x="708.7984" y="23.0525" style="stroke: #000000; stroke-width: 0.5"/>
      </g>
     </g>
    </g>
    <g id="text_5">
     <!-- 年份(按申请日统计) -->
     <g transform="translate(345.085938 491.630313)scale(0.1 -0.1)">
      <defs>
       <path id="ArialUnicodeMS-5e74" d="M 5869 1409 
L 3659 1409 
L 3659 -434 
L 3156 -434 
L 3156 1409 
L 659 1409 
L 659 1875 
L 1459 1875 
L 1459 3384 
L 3156 3384 
L 3156 4219 
L 1838 4219 
Q 1425 3363 953 2931 
L 550 3256 
Q 1381 3994 1734 5381 
L 2144 5184 
Q 2122 4997 2022 4684 
L 5606 4684 
L 5606 4219 
L 3659 4219 
L 3659 3384 
L 5294 3384 
L 5294 2919 
L 3659 2919 
L 3659 1875 
L 5869 1875 
L 5869 1409 
z
M 3156 1875 
L 3156 2919 
L 1947 2919 
L 1947 1875 
L 3156 1875 
z
" transform="scale(0.015625)"/>
       <path id="ArialUnicodeMS-4efd" d="M 6194 2875 
L 5778 2553 
Q 5528 2697 5294 2969 
Q 5269 1894 5181 1111 
Q 5094 328 4944 25 
Q 4794 -278 4372 -278 
Q 4047 -278 3609 -166 
L 3456 372 
Q 4003 178 4359 178 
Q 4475 178 4525 333 
Q 4575 488 4667 1075 
Q 4759 1663 4781 2559 
L 3916 2559 
Q 3822 219 2234 -447 
L 1888 -78 
Q 3416 516 3444 2559 
L 2625 2559 
L 2625 2975 
Q 2409 2722 2150 2484 
L 1813 2759 
L 1813 -475 
L 1325 -475 
L 1325 2816 
L 1319 2828 
Q 1319 2813 1131 2617 
Q 944 2422 738 2253 
L 319 2534 
Q 1466 3466 2009 5300 
L 2450 5094 
Q 2328 4681 2069 4116 
L 1813 3572 
L 1813 2834 
Q 2794 3716 3103 4897 
L 3475 4678 
Q 3244 3744 2669 3028 
L 5241 3028 
Q 4750 3606 4459 4494 
L 3506 4494 
L 3500 4953 
L 4825 4953 
Q 5241 3419 6194 2875 
z
" transform="scale(0.015625)"/>
       <path id="ArialUnicodeMS-28" d="M 1900 -1344 
L 1497 -1344 
Q 978 -681 681 103 
Q 384 888 384 1656 
Q 384 2528 700 3275 
Q 1016 4022 1497 4659 
L 1900 4659 
Q 1344 3747 1155 3059 
Q 966 2372 966 1663 
Q 966 153 1900 -1344 
z
" transform="scale(0.015625)"/>
       <path id="ArialUnicodeMS-6309" d="M 2400 2169 
L 1806 1856 
L 1806 231 
Q 1806 -422 1131 -422 
Q 866 -422 781 -428 
L 603 63 
L 1147 25 
Q 1319 16 1319 178 
L 1319 1650 
L 769 1381 
L 366 1741 
Q 909 1953 1319 2150 
L 1319 3566 
L 488 3566 
L 488 4031 
L 1319 4031 
L 1319 5325 
L 1806 5325 
L 1806 4031 
L 2400 4031 
L 2400 3566 
L 1806 3566 
L 1806 2388 
Q 2025 2494 2400 2656 
L 2400 2169 
z
M 5869 3341 
L 5394 3341 
L 5394 4084 
L 2963 4084 
L 2963 3341 
L 2491 3341 
L 2491 4544 
L 3922 4544 
L 3922 5313 
L 4422 5313 
L 4422 4544 
L 5869 4544 
L 5869 3341 
z
M 6069 13 
L 5684 -378 
Q 4919 234 4213 550 
Q 3369 -106 2291 -384 
L 1919 31 
Q 3072 306 3681 756 
Q 3313 903 2572 1031 
Q 2931 1650 3244 2328 
L 2438 2328 
L 2438 2797 
L 3450 2797 
Q 3653 3306 3763 3884 
L 4256 3775 
Q 4172 3394 3963 2797 
L 5991 2797 
L 5991 2328 
L 5275 2328 
Q 4994 1359 4569 916 
Q 5272 588 6069 13 
z
M 4763 2328 
L 3781 2328 
L 3291 1350 
Q 3625 1259 4084 1106 
Q 4569 1581 4763 2328 
z
" transform="scale(0.015625)"/>
       <path id="ArialUnicodeMS-7533" d="M 5447 978 
L 4959 978 
L 4959 1350 
L 3431 1350 
L 3431 -428 
L 2944 -428 
L 2944 1350 
L 1466 1350 
L 1466 891 
L 953 891 
L 953 4416 
L 2938 4416 
L 2938 5331 
L 3425 5331 
L 3425 4416 
L 5447 4416 
L 5447 978 
z
M 4959 3144 
L 4959 3928 
L 3425 3928 
L 3425 3144 
L 4959 3144 
z
M 2938 3928 
L 1459 3928 
L 1459 3144 
L 2938 3144 
L 2938 3928 
z
M 4959 1819 
L 4959 2675 
L 3425 2675 
L 3425 1819 
L 4959 1819 
z
M 2944 1819 
L 2944 2675 
L 1459 2675 
L 1459 1819 
L 2944 1819 
z
" transform="scale(0.015625)"/>
       <path id="ArialUnicodeMS-8bf7" d="M 5953 2809 
L 2059 2809 
L 2059 3272 
L 3769 3272 
L 3769 3616 
L 2625 3616 
L 2625 4078 
L 3769 4078 
L 3769 4341 
L 2381 4341 
L 2381 4800 
L 3769 4800 
L 3769 5319 
L 4256 5319 
L 4256 4800 
L 5650 4800 
L 5650 4341 
L 4256 4341 
L 4256 4078 
L 5403 4078 
L 5403 3616 
L 4256 3616 
L 4256 3272 
L 5953 3272 
L 5953 2809 
z
M 1931 4091 
L 1528 3775 
Q 1266 4319 691 4781 
L 1056 5038 
Q 1584 4684 1931 4091 
z
M 2503 250 
L 1503 -250 
L 1216 166 
Q 1294 225 1294 403 
L 1294 2784 
L 391 2784 
L 391 3244 
L 1778 3244 
L 1778 453 
L 2503 819 
L 2503 250 
z
M 5375 153 
Q 5375 -66 5229 -198 
Q 5084 -331 4897 -331 
L 4281 -331 
L 4109 147 
Q 4544 109 4763 109 
Q 4891 109 4891 244 
L 4891 653 
L 3150 653 
L 3150 -422 
L 2663 -422 
L 2663 2606 
L 5375 2606 
L 5375 153 
z
M 4891 1844 
L 4891 2144 
L 3150 2144 
L 3150 1844 
L 4891 1844 
z
M 4891 1081 
L 4891 1416 
L 3150 1416 
L 3150 1081 
L 4891 1081 
z
" transform="scale(0.015625)"/>
       <path id="ArialUnicodeMS-65e5" d="M 5044 -178 
L 4538 -178 
L 4538 441 
L 2022 441 
L 2022 -206 
L 1516 -206 
L 1516 4781 
L 5044 4781 
L 5044 -178 
z
M 4538 2881 
L 4538 4313 
L 2022 4313 
L 2022 2881 
L 4538 2881 
z
M 4538 909 
L 4538 2413 
L 2022 2413 
L 2022 909 
L 4538 909 
z
" transform="scale(0.015625)"/>
       <path id="ArialUnicodeMS-7edf" d="M 5913 2478 
L 5503 2228 
Q 5319 2544 5259 2606 
Q 4153 2541 2547 2363 
L 2272 2875 
Q 3269 3503 3559 4084 
L 2356 4084 
L 2356 4550 
L 3878 4550 
Q 3725 4731 3128 5044 
L 3475 5363 
Q 4016 5141 4428 4697 
L 4256 4550 
L 5747 4550 
L 5747 4084 
L 4153 4084 
Q 3747 3338 3053 2919 
L 3066 2906 
L 4903 3053 
Q 4684 3288 4403 3506 
L 4850 3744 
Q 5534 3147 5913 2478 
z
M 2553 1663 
Q 1341 1369 622 1147 
L 391 1575 
Q 1022 2209 1306 2625 
L 1294 2638 
Q 1284 2631 1023 2561 
Q 763 2491 609 2438 
L 366 2881 
Q 853 3669 1441 5166 
L 1875 4966 
Q 1300 3650 947 3022 
L 1619 3163 
Q 1797 3416 2047 3922 
L 2503 3719 
Q 1888 2469 1153 1784 
L 1166 1772 
L 2553 2100 
L 2553 1663 
z
M 6028 947 
Q 5978 609 5822 225 
Q 5666 -159 5288 -159 
L 4788 -159 
Q 4547 -159 4395 -31 
Q 4244 97 4244 325 
L 4244 2194 
L 4728 2194 
L 4728 447 
Q 4728 306 4891 306 
L 5259 306 
Q 5356 306 5418 448 
Q 5481 591 5581 1088 
L 6028 947 
z
M 3659 2194 
Q 3659 1441 3579 1006 
Q 3500 572 3165 206 
Q 2831 -159 2216 -453 
L 1869 0 
Q 2388 150 2713 439 
Q 3038 728 3103 1103 
Q 3169 1478 3169 2194 
L 3659 2194 
z
M 2688 666 
L 647 -50 
L 409 397 
L 2688 1141 
L 2688 666 
z
" transform="scale(0.015625)"/>
       <path id="ArialUnicodeMS-8ba1" d="M 2075 4422 
L 1672 4116 
Q 1431 4616 856 5081 
L 1203 5375 
Q 1741 5006 2075 4422 
z
M 5997 2956 
L 4506 2956 
L 4506 -422 
L 4019 -422 
L 4019 2956 
L 2528 2956 
L 2528 3425 
L 4019 3425 
L 4019 5325 
L 4506 5325 
L 4506 3425 
L 5997 3425 
L 5997 2956 
z
M 2853 384 
L 1600 -306 
L 1313 103 
Q 1409 203 1409 372 
L 1409 3116 
L 475 3116 
L 475 3584 
L 1894 3584 
L 1894 391 
L 2853 916 
L 2853 384 
z
" transform="scale(0.015625)"/>
       <path id="ArialUnicodeMS-29" d="M 634 4659 
Q 1153 3997 1450 3212 
Q 1747 2428 1747 1656 
Q 1747 788 1431 41 
Q 1116 -706 634 -1344 
L 231 -1344 
Q 788 -431 977 255 
Q 1166 941 1166 1650 
Q 1166 3163 231 4659 
L 634 4659 
z
" transform="scale(0.015625)"/>
      </defs>
      <use xlink:href="#ArialUnicodeMS-5e74"/>
      <use xlink:href="#ArialUnicodeMS-4efd" x="100"/>
      <use xlink:href="#ArialUnicodeMS-28" x="200"/>
      <use xlink:href="#ArialUnicodeMS-6309" x="233.300781"/>
      <use xlink:href="#ArialUnicodeMS-7533" x="333.300781"/>
      <use xlink:href="#ArialUnicodeMS-8bf7" x="433.300781"/>
      <use xlink:href="#ArialUnicodeMS-65e5" x="533.300781"/>
      <use xlink:href="#ArialUnicodeMS-7edf" x="633.300781"/>
      <use xlink:href="#ArialUnicodeMS-8ba1" x="733.300781"/>
      <use xlink:href="#ArialUnicodeMS-29" x="833.300781"/>
     </g>
    </g>
   </g>
   <g id="matplotlib.axis_2">
    <g id="ytick_1">
     <g id="line2d_83">
      <defs>
       <path id="m0ea8f24461" d="M 0 0 
L 3 0 
" style="stroke: #000000; stroke-width: 0.5"/>
      </defs>
      <g>
       <use xlink:href="#m0ea8f24461" x="53.615625" y="447.963316" style="stroke: #000000; stroke-width: 0.5"/>
      </g>
     </g>
     <g id="line2d_84">
      <defs>
       <path id="m159da0a96d" d="M 0 0 
L -3 0 
" style="stroke: #000000; stroke-width: 0.5"/>
      </defs>
      <g>
       <use xlink:href="#m159da0a96d" x="723.215625" y="447.963316" style="stroke: #000000; stroke-width: 0.5"/>
      </g>
     </g>
     <g id="text_6">
      <!-- 0 -->
      <g transform="translate(44.554688 451.542222)scale(0.1 -0.1)">
       <use xlink:href="#ArialUnicodeMS-30"/>
      </g>
     </g>
    </g>
    <g id="ytick_2">
     <g id="line2d_85">
      <g>
       <use xlink:href="#m0ea8f24461" x="53.615625" y="397.398728" style="stroke: #000000; stroke-width: 0.5"/>
      </g>
     </g>
     <g id="line2d_86">
      <g>
       <use xlink:href="#m159da0a96d" x="723.215625" y="397.398728" style="stroke: #000000; stroke-width: 0.5"/>
      </g>
     </g>
     <g id="text_7">
      <!-- 100000 -->
      <g transform="translate(16.75 400.977634)scale(0.1 -0.1)">
       <use xlink:href="#ArialUnicodeMS-31"/>
       <use xlink:href="#ArialUnicodeMS-30" x="55.615234"/>
       <use xlink:href="#ArialUnicodeMS-30" x="111.230469"/>
       <use xlink:href="#ArialUnicodeMS-30" x="166.845703"/>
       <use xlink:href="#ArialUnicodeMS-30" x="222.460938"/>
       <use xlink:href="#ArialUnicodeMS-30" x="278.076172"/>
      </g>
     </g>
    </g>
    <g id="ytick_3">
     <g id="line2d_87">
      <g>
       <use xlink:href="#m0ea8f24461" x="53.615625" y="346.83414" style="stroke: #000000; stroke-width: 0.5"/>
      </g>
     </g>
     <g id="line2d_88">
      <g>
       <use xlink:href="#m159da0a96d" x="723.215625" y="346.83414" style="stroke: #000000; stroke-width: 0.5"/>
      </g>
     </g>
     <g id="text_8">
      <!-- 200000 -->
      <g transform="translate(16.75 350.413047)scale(0.1 -0.1)">
       <use xlink:href="#ArialUnicodeMS-32"/>
       <use xlink:href="#ArialUnicodeMS-30" x="55.615234"/>
       <use xlink:href="#ArialUnicodeMS-30" x="111.230469"/>
       <use xlink:href="#ArialUnicodeMS-30" x="166.845703"/>
       <use xlink:href="#ArialUnicodeMS-30" x="222.460938"/>
       <use xlink:href="#ArialUnicodeMS-30" x="278.076172"/>
      </g>
     </g>
    </g>
    <g id="ytick_4">
     <g id="line2d_89">
      <g>
       <use xlink:href="#m0ea8f24461" x="53.615625" y="296.269553" style="stroke: #000000; stroke-width: 0.5"/>
      </g>
     </g>
     <g id="line2d_90">
      <g>
       <use xlink:href="#m159da0a96d" x="723.215625" y="296.269553" style="stroke: #000000; stroke-width: 0.5"/>
      </g>
     </g>
     <g id="text_9">
      <!-- 300000 -->
      <g transform="translate(16.75 299.848459)scale(0.1 -0.1)">
       <defs>
        <path id="ArialUnicodeMS-33" d="M 2425 2478 
Q 2850 2397 3067 2067 
Q 3284 1738 3284 1350 
Q 3284 725 2829 323 
Q 2375 -78 1741 -78 
Q 1134 -78 740 275 
Q 347 628 281 1209 
L 844 1288 
Q 928 834 1151 609 
Q 1375 384 1741 384 
Q 2134 384 2407 661 
Q 2681 938 2681 1338 
Q 2681 1722 2432 1975 
Q 2184 2228 1784 2228 
Q 1622 2228 1388 2169 
L 1453 2663 
Q 1678 2663 1809 2684 
Q 1941 2706 2103 2790 
Q 2266 2875 2372 3033 
Q 2478 3191 2478 3425 
Q 2478 3766 2251 3953 
Q 2025 4141 1728 4141 
Q 1388 4141 1173 3925 
Q 959 3709 903 3309 
L 341 3413 
Q 450 4009 823 4306 
Q 1197 4603 1716 4603 
Q 2288 4603 2670 4258 
Q 3053 3913 3053 3413 
Q 3053 2772 2425 2491 
L 2425 2478 
z
" transform="scale(0.015625)"/>
       </defs>
       <use xlink:href="#ArialUnicodeMS-33"/>
       <use xlink:href="#ArialUnicodeMS-30" x="55.615234"/>
       <use xlink:href="#ArialUnicodeMS-30" x="111.230469"/>
       <use xlink:href="#ArialUnicodeMS-30" x="166.845703"/>
       <use xlink:href="#ArialUnicodeMS-30" x="222.460938"/>
       <use xlink:href="#ArialUnicodeMS-30" x="278.076172"/>
      </g>
     </g>
    </g>
    <g id="ytick_5">
     <g id="line2d_91">
      <g>
       <use xlink:href="#m0ea8f24461" x="53.615625" y="245.704965" style="stroke: #000000; stroke-width: 0.5"/>
      </g>
     </g>
     <g id="line2d_92">
      <g>
       <use xlink:href="#m159da0a96d" x="723.215625" y="245.704965" style="stroke: #000000; stroke-width: 0.5"/>
      </g>
     </g>
     <g id="text_10">
      <!-- 400000 -->
      <g transform="translate(16.75 249.283871)scale(0.1 -0.1)">
       <defs>
        <path id="ArialUnicodeMS-34" d="M 3263 1094 
L 2644 1094 
L 2644 0 
L 2081 0 
L 2081 1094 
L 97 1094 
L 97 1613 
L 2181 4581 
L 2644 4581 
L 2644 1613 
L 3263 1613 
L 3263 1094 
z
M 2081 1613 
L 2081 3681 
L 2069 3681 
L 647 1613 
L 2081 1613 
z
" transform="scale(0.015625)"/>
       </defs>
       <use xlink:href="#ArialUnicodeMS-34"/>
       <use xlink:href="#ArialUnicodeMS-30" x="55.615234"/>
       <use xlink:href="#ArialUnicodeMS-30" x="111.230469"/>
       <use xlink:href="#ArialUnicodeMS-30" x="166.845703"/>
       <use xlink:href="#ArialUnicodeMS-30" x="222.460938"/>
       <use xlink:href="#ArialUnicodeMS-30" x="278.076172"/>
      </g>
     </g>
    </g>
    <g id="ytick_6">
     <g id="line2d_93">
      <g>
       <use xlink:href="#m0ea8f24461" x="53.615625" y="195.140377" style="stroke: #000000; stroke-width: 0.5"/>
      </g>
     </g>
     <g id="line2d_94">
      <g>
       <use xlink:href="#m159da0a96d" x="723.215625" y="195.140377" style="stroke: #000000; stroke-width: 0.5"/>
      </g>
     </g>
     <g id="text_11">
      <!-- 500000 -->
      <g transform="translate(16.75 198.719283)scale(0.1 -0.1)">
       <use xlink:href="#ArialUnicodeMS-35"/>
       <use xlink:href="#ArialUnicodeMS-30" x="55.615234"/>
       <use xlink:href="#ArialUnicodeMS-30" x="111.230469"/>
       <use xlink:href="#ArialUnicodeMS-30" x="166.845703"/>
       <use xlink:href="#ArialUnicodeMS-30" x="222.460938"/>
       <use xlink:href="#ArialUnicodeMS-30" x="278.076172"/>
      </g>
     </g>
    </g>
    <g id="ytick_7">
     <g id="line2d_95">
      <g>
       <use xlink:href="#m0ea8f24461" x="53.615625" y="144.57579" style="stroke: #000000; stroke-width: 0.5"/>
      </g>
     </g>
     <g id="line2d_96">
      <g>
       <use xlink:href="#m159da0a96d" x="723.215625" y="144.57579" style="stroke: #000000; stroke-width: 0.5"/>
      </g>
     </g>
     <g id="text_12">
      <!-- 600000 -->
      <g transform="translate(16.75 148.154696)scale(0.1 -0.1)">
       <defs>
        <path id="ArialUnicodeMS-36" d="M 838 2363 
Q 1225 2969 1941 2969 
Q 2503 2969 2897 2553 
Q 3291 2138 3291 1491 
Q 3291 838 2898 380 
Q 2506 -78 1856 -78 
Q 1197 -78 733 409 
Q 269 897 269 2144 
Q 269 3369 689 3986 
Q 1109 4603 1906 4603 
Q 2422 4603 2778 4315 
Q 3134 4028 3213 3463 
L 2650 3413 
Q 2497 4141 1875 4141 
Q 1444 4141 1134 3712 
Q 825 3284 825 2363 
L 838 2363 
z
M 1844 384 
Q 2231 384 2472 696 
Q 2713 1009 2713 1453 
Q 2713 1897 2472 2187 
Q 2231 2478 1825 2478 
Q 1453 2478 1184 2204 
Q 916 1931 916 1484 
Q 916 1028 1180 706 
Q 1444 384 1844 384 
z
" transform="scale(0.015625)"/>
       </defs>
       <use xlink:href="#ArialUnicodeMS-36"/>
       <use xlink:href="#ArialUnicodeMS-30" x="55.615234"/>
       <use xlink:href="#ArialUnicodeMS-30" x="111.230469"/>
       <use xlink:href="#ArialUnicodeMS-30" x="166.845703"/>
       <use xlink:href="#ArialUnicodeMS-30" x="222.460938"/>
       <use xlink:href="#ArialUnicodeMS-30" x="278.076172"/>
      </g>
     </g>
    </g>
    <g id="ytick_8">
     <g id="line2d_97">
      <g>
       <use xlink:href="#m0ea8f24461" x="53.615625" y="94.011202" style="stroke: #000000; stroke-width: 0.5"/>
      </g>
     </g>
     <g id="line2d_98">
      <g>
       <use xlink:href="#m159da0a96d" x="723.215625" y="94.011202" style="stroke: #000000; stroke-width: 0.5"/>
      </g>
     </g>
     <g id="text_13">
      <!-- 700000 -->
      <g transform="translate(16.75 97.590108)scale(0.1 -0.1)">
       <defs>
        <path id="ArialUnicodeMS-37" d="M 3272 4084 
Q 2597 3344 2103 2253 
Q 1609 1163 1522 0 
L 947 0 
Q 969 934 1408 2051 
Q 1847 3169 2547 3975 
L 306 3975 
L 306 4519 
L 3272 4519 
L 3272 4084 
z
" transform="scale(0.015625)"/>
       </defs>
       <use xlink:href="#ArialUnicodeMS-37"/>
       <use xlink:href="#ArialUnicodeMS-30" x="55.615234"/>
       <use xlink:href="#ArialUnicodeMS-30" x="111.230469"/>
       <use xlink:href="#ArialUnicodeMS-30" x="166.845703"/>
       <use xlink:href="#ArialUnicodeMS-30" x="222.460938"/>
       <use xlink:href="#ArialUnicodeMS-30" x="278.076172"/>
      </g>
     </g>
    </g>
    <g id="ytick_9">
     <g id="line2d_99">
      <g>
       <use xlink:href="#m0ea8f24461" x="53.615625" y="43.446614" style="stroke: #000000; stroke-width: 0.5"/>
      </g>
     </g>
     <g id="line2d_100">
      <g>
       <use xlink:href="#m159da0a96d" x="723.215625" y="43.446614" style="stroke: #000000; stroke-width: 0.5"/>
      </g>
     </g>
     <g id="text_14">
      <!-- 800000 -->
      <g transform="translate(16.75 47.02552)scale(0.1 -0.1)">
       <defs>
        <path id="ArialUnicodeMS-38" d="M 2425 2478 
Q 3284 2203 3284 1306 
Q 3284 716 2862 319 
Q 2441 -78 1778 -78 
Q 1109 -78 689 322 
Q 269 722 269 1325 
Q 269 1759 505 2084 
Q 741 2409 1141 2478 
L 1141 2491 
Q 453 2703 453 3419 
Q 453 3925 815 4264 
Q 1178 4603 1766 4603 
Q 2363 4603 2730 4253 
Q 3097 3903 3097 3406 
Q 3097 2731 2425 2491 
L 2425 2478 
z
M 1778 2700 
Q 2094 2700 2308 2901 
Q 2522 3103 2522 3406 
Q 2522 3716 2305 3928 
Q 2088 4141 1772 4141 
Q 1450 4141 1240 3931 
Q 1031 3722 1031 3438 
Q 1031 3097 1247 2898 
Q 1463 2700 1778 2700 
z
M 1778 384 
Q 2175 384 2440 640 
Q 2706 897 2706 1306 
Q 2706 1716 2432 1978 
Q 2159 2241 1766 2241 
Q 1356 2241 1100 1970 
Q 844 1700 844 1319 
Q 844 922 1108 653 
Q 1372 384 1778 384 
z
" transform="scale(0.015625)"/>
       </defs>
       <use xlink:href="#ArialUnicodeMS-38"/>
       <use xlink:href="#ArialUnicodeMS-30" x="55.615234"/>
       <use xlink:href="#ArialUnicodeMS-30" x="111.230469"/>
       <use xlink:href="#ArialUnicodeMS-30" x="166.845703"/>
       <use xlink:href="#ArialUnicodeMS-30" x="222.460938"/>
       <use xlink:href="#ArialUnicodeMS-30" x="278.076172"/>
      </g>
     </g>
    </g>
    <g id="ytick_10">
     <g id="line2d_101">
      <defs>
       <path id="mcf98ddf73b" d="M 0 0 
L 1.5 0 
" style="stroke: #000000; stroke-width: 0.5"/>
      </defs>
      <g>
       <use xlink:href="#mcf98ddf73b" x="53.615625" y="458.076233" style="stroke: #000000; stroke-width: 0.5"/>
      </g>
     </g>
     <g id="line2d_102">
      <defs>
       <path id="mf3d8dfe569" d="M 0 0 
L -1.5 0 
" style="stroke: #000000; stroke-width: 0.5"/>
      </defs>
      <g>
       <use xlink:href="#mf3d8dfe569" x="723.215625" y="458.076233" style="stroke: #000000; stroke-width: 0.5"/>
      </g>
     </g>
    </g>
    <g id="ytick_11">
     <g id="line2d_103">
      <g>
       <use xlink:href="#mcf98ddf73b" x="53.615625" y="437.850398" style="stroke: #000000; stroke-width: 0.5"/>
      </g>
     </g>
     <g id="line2d_104">
      <g>
       <use xlink:href="#mf3d8dfe569" x="723.215625" y="437.850398" style="stroke: #000000; stroke-width: 0.5"/>
      </g>
     </g>
    </g>
    <g id="ytick_12">
     <g id="line2d_105">
      <g>
       <use xlink:href="#mcf98ddf73b" x="53.615625" y="427.737481" style="stroke: #000000; stroke-width: 0.5"/>
      </g>
     </g>
     <g id="line2d_106">
      <g>
       <use xlink:href="#mf3d8dfe569" x="723.215625" y="427.737481" style="stroke: #000000; stroke-width: 0.5"/>
      </g>
     </g>
    </g>
    <g id="ytick_13">
     <g id="line2d_107">
      <g>
       <use xlink:href="#mcf98ddf73b" x="53.615625" y="417.624563" style="stroke: #000000; stroke-width: 0.5"/>
      </g>
     </g>
     <g id="line2d_108">
      <g>
       <use xlink:href="#mf3d8dfe569" x="723.215625" y="417.624563" style="stroke: #000000; stroke-width: 0.5"/>
      </g>
     </g>
    </g>
    <g id="ytick_14">
     <g id="line2d_109">
      <g>
       <use xlink:href="#mcf98ddf73b" x="53.615625" y="407.511646" style="stroke: #000000; stroke-width: 0.5"/>
      </g>
     </g>
     <g id="line2d_110">
      <g>
       <use xlink:href="#mf3d8dfe569" x="723.215625" y="407.511646" style="stroke: #000000; stroke-width: 0.5"/>
      </g>
     </g>
    </g>
    <g id="ytick_15">
     <g id="line2d_111">
      <g>
       <use xlink:href="#mcf98ddf73b" x="53.615625" y="387.285811" style="stroke: #000000; stroke-width: 0.5"/>
      </g>
     </g>
     <g id="line2d_112">
      <g>
       <use xlink:href="#mf3d8dfe569" x="723.215625" y="387.285811" style="stroke: #000000; stroke-width: 0.5"/>
      </g>
     </g>
    </g>
    <g id="ytick_16">
     <g id="line2d_113">
      <g>
       <use xlink:href="#mcf98ddf73b" x="53.615625" y="377.172893" style="stroke: #000000; stroke-width: 0.5"/>
      </g>
     </g>
     <g id="line2d_114">
      <g>
       <use xlink:href="#mf3d8dfe569" x="723.215625" y="377.172893" style="stroke: #000000; stroke-width: 0.5"/>
      </g>
     </g>
    </g>
    <g id="ytick_17">
     <g id="line2d_115">
      <g>
       <use xlink:href="#mcf98ddf73b" x="53.615625" y="367.059976" style="stroke: #000000; stroke-width: 0.5"/>
      </g>
     </g>
     <g id="line2d_116">
      <g>
       <use xlink:href="#mf3d8dfe569" x="723.215625" y="367.059976" style="stroke: #000000; stroke-width: 0.5"/>
      </g>
     </g>
    </g>
    <g id="ytick_18">
     <g id="line2d_117">
      <g>
       <use xlink:href="#mcf98ddf73b" x="53.615625" y="356.947058" style="stroke: #000000; stroke-width: 0.5"/>
      </g>
     </g>
     <g id="line2d_118">
      <g>
       <use xlink:href="#mf3d8dfe569" x="723.215625" y="356.947058" style="stroke: #000000; stroke-width: 0.5"/>
      </g>
     </g>
    </g>
    <g id="ytick_19">
     <g id="line2d_119">
      <g>
       <use xlink:href="#mcf98ddf73b" x="53.615625" y="336.721223" style="stroke: #000000; stroke-width: 0.5"/>
      </g>
     </g>
     <g id="line2d_120">
      <g>
       <use xlink:href="#mf3d8dfe569" x="723.215625" y="336.721223" style="stroke: #000000; stroke-width: 0.5"/>
      </g>
     </g>
    </g>
    <g id="ytick_20">
     <g id="line2d_121">
      <g>
       <use xlink:href="#mcf98ddf73b" x="53.615625" y="326.608305" style="stroke: #000000; stroke-width: 0.5"/>
      </g>
     </g>
     <g id="line2d_122">
      <g>
       <use xlink:href="#mf3d8dfe569" x="723.215625" y="326.608305" style="stroke: #000000; stroke-width: 0.5"/>
      </g>
     </g>
    </g>
    <g id="ytick_21">
     <g id="line2d_123">
      <g>
       <use xlink:href="#mcf98ddf73b" x="53.615625" y="316.495388" style="stroke: #000000; stroke-width: 0.5"/>
      </g>
     </g>
     <g id="line2d_124">
      <g>
       <use xlink:href="#mf3d8dfe569" x="723.215625" y="316.495388" style="stroke: #000000; stroke-width: 0.5"/>
      </g>
     </g>
    </g>
    <g id="ytick_22">
     <g id="line2d_125">
      <g>
       <use xlink:href="#mcf98ddf73b" x="53.615625" y="306.38247" style="stroke: #000000; stroke-width: 0.5"/>
      </g>
     </g>
     <g id="line2d_126">
      <g>
       <use xlink:href="#mf3d8dfe569" x="723.215625" y="306.38247" style="stroke: #000000; stroke-width: 0.5"/>
      </g>
     </g>
    </g>
    <g id="ytick_23">
     <g id="line2d_127">
      <g>
       <use xlink:href="#mcf98ddf73b" x="53.615625" y="286.156635" style="stroke: #000000; stroke-width: 0.5"/>
      </g>
     </g>
     <g id="line2d_128">
      <g>
       <use xlink:href="#mf3d8dfe569" x="723.215625" y="286.156635" style="stroke: #000000; stroke-width: 0.5"/>
      </g>
     </g>
    </g>
    <g id="ytick_24">
     <g id="line2d_129">
      <g>
       <use xlink:href="#mcf98ddf73b" x="53.615625" y="276.043718" style="stroke: #000000; stroke-width: 0.5"/>
      </g>
     </g>
     <g id="line2d_130">
      <g>
       <use xlink:href="#mf3d8dfe569" x="723.215625" y="276.043718" style="stroke: #000000; stroke-width: 0.5"/>
      </g>
     </g>
    </g>
    <g id="ytick_25">
     <g id="line2d_131">
      <g>
       <use xlink:href="#mcf98ddf73b" x="53.615625" y="265.9308" style="stroke: #000000; stroke-width: 0.5"/>
      </g>
     </g>
     <g id="line2d_132">
      <g>
       <use xlink:href="#mf3d8dfe569" x="723.215625" y="265.9308" style="stroke: #000000; stroke-width: 0.5"/>
      </g>
     </g>
    </g>
    <g id="ytick_26">
     <g id="line2d_133">
      <g>
       <use xlink:href="#mcf98ddf73b" x="53.615625" y="255.817883" style="stroke: #000000; stroke-width: 0.5"/>
      </g>
     </g>
     <g id="line2d_134">
      <g>
       <use xlink:href="#mf3d8dfe569" x="723.215625" y="255.817883" style="stroke: #000000; stroke-width: 0.5"/>
      </g>
     </g>
    </g>
    <g id="ytick_27">
     <g id="line2d_135">
      <g>
       <use xlink:href="#mcf98ddf73b" x="53.615625" y="235.592047" style="stroke: #000000; stroke-width: 0.5"/>
      </g>
     </g>
     <g id="line2d_136">
      <g>
       <use xlink:href="#mf3d8dfe569" x="723.215625" y="235.592047" style="stroke: #000000; stroke-width: 0.5"/>
      </g>
     </g>
    </g>
    <g id="ytick_28">
     <g id="line2d_137">
      <g>
       <use xlink:href="#mcf98ddf73b" x="53.615625" y="225.47913" style="stroke: #000000; stroke-width: 0.5"/>
      </g>
     </g>
     <g id="line2d_138">
      <g>
       <use xlink:href="#mf3d8dfe569" x="723.215625" y="225.47913" style="stroke: #000000; stroke-width: 0.5"/>
      </g>
     </g>
    </g>
    <g id="ytick_29">
     <g id="line2d_139">
      <g>
       <use xlink:href="#mcf98ddf73b" x="53.615625" y="215.366212" style="stroke: #000000; stroke-width: 0.5"/>
      </g>
     </g>
     <g id="line2d_140">
      <g>
       <use xlink:href="#mf3d8dfe569" x="723.215625" y="215.366212" style="stroke: #000000; stroke-width: 0.5"/>
      </g>
     </g>
    </g>
    <g id="ytick_30">
     <g id="line2d_141">
      <g>
       <use xlink:href="#mcf98ddf73b" x="53.615625" y="205.253295" style="stroke: #000000; stroke-width: 0.5"/>
      </g>
     </g>
     <g id="line2d_142">
      <g>
       <use xlink:href="#mf3d8dfe569" x="723.215625" y="205.253295" style="stroke: #000000; stroke-width: 0.5"/>
      </g>
     </g>
    </g>
    <g id="ytick_31">
     <g id="line2d_143">
      <g>
       <use xlink:href="#mcf98ddf73b" x="53.615625" y="185.02746" style="stroke: #000000; stroke-width: 0.5"/>
      </g>
     </g>
     <g id="line2d_144">
      <g>
       <use xlink:href="#mf3d8dfe569" x="723.215625" y="185.02746" style="stroke: #000000; stroke-width: 0.5"/>
      </g>
     </g>
    </g>
    <g id="ytick_32">
     <g id="line2d_145">
      <g>
       <use xlink:href="#mcf98ddf73b" x="53.615625" y="174.914542" style="stroke: #000000; stroke-width: 0.5"/>
      </g>
     </g>
     <g id="line2d_146">
      <g>
       <use xlink:href="#mf3d8dfe569" x="723.215625" y="174.914542" style="stroke: #000000; stroke-width: 0.5"/>
      </g>
     </g>
    </g>
    <g id="ytick_33">
     <g id="line2d_147">
      <g>
       <use xlink:href="#mcf98ddf73b" x="53.615625" y="164.801625" style="stroke: #000000; stroke-width: 0.5"/>
      </g>
     </g>
     <g id="line2d_148">
      <g>
       <use xlink:href="#mf3d8dfe569" x="723.215625" y="164.801625" style="stroke: #000000; stroke-width: 0.5"/>
      </g>
     </g>
    </g>
    <g id="ytick_34">
     <g id="line2d_149">
      <g>
       <use xlink:href="#mcf98ddf73b" x="53.615625" y="154.688707" style="stroke: #000000; stroke-width: 0.5"/>
      </g>
     </g>
     <g id="line2d_150">
      <g>
       <use xlink:href="#mf3d8dfe569" x="723.215625" y="154.688707" style="stroke: #000000; stroke-width: 0.5"/>
      </g>
     </g>
    </g>
    <g id="ytick_35">
     <g id="line2d_151">
      <g>
       <use xlink:href="#mcf98ddf73b" x="53.615625" y="134.462872" style="stroke: #000000; stroke-width: 0.5"/>
      </g>
     </g>
     <g id="line2d_152">
      <g>
       <use xlink:href="#mf3d8dfe569" x="723.215625" y="134.462872" style="stroke: #000000; stroke-width: 0.5"/>
      </g>
     </g>
    </g>
    <g id="ytick_36">
     <g id="line2d_153">
      <g>
       <use xlink:href="#mcf98ddf73b" x="53.615625" y="124.349954" style="stroke: #000000; stroke-width: 0.5"/>
      </g>
     </g>
     <g id="line2d_154">
      <g>
       <use xlink:href="#mf3d8dfe569" x="723.215625" y="124.349954" style="stroke: #000000; stroke-width: 0.5"/>
      </g>
     </g>
    </g>
    <g id="ytick_37">
     <g id="line2d_155">
      <g>
       <use xlink:href="#mcf98ddf73b" x="53.615625" y="114.237037" style="stroke: #000000; stroke-width: 0.5"/>
      </g>
     </g>
     <g id="line2d_156">
      <g>
       <use xlink:href="#mf3d8dfe569" x="723.215625" y="114.237037" style="stroke: #000000; stroke-width: 0.5"/>
      </g>
     </g>
    </g>
    <g id="ytick_38">
     <g id="line2d_157">
      <g>
       <use xlink:href="#mcf98ddf73b" x="53.615625" y="104.124119" style="stroke: #000000; stroke-width: 0.5"/>
      </g>
     </g>
     <g id="line2d_158">
      <g>
       <use xlink:href="#mf3d8dfe569" x="723.215625" y="104.124119" style="stroke: #000000; stroke-width: 0.5"/>
      </g>
     </g>
    </g>
    <g id="ytick_39">
     <g id="line2d_159">
      <g>
       <use xlink:href="#mcf98ddf73b" x="53.615625" y="83.898284" style="stroke: #000000; stroke-width: 0.5"/>
      </g>
     </g>
     <g id="line2d_160">
      <g>
       <use xlink:href="#mf3d8dfe569" x="723.215625" y="83.898284" style="stroke: #000000; stroke-width: 0.5"/>
      </g>
     </g>
    </g>
    <g id="ytick_40">
     <g id="line2d_161">
      <g>
       <use xlink:href="#mcf98ddf73b" x="53.615625" y="73.785367" style="stroke: #000000; stroke-width: 0.5"/>
      </g>
     </g>
     <g id="line2d_162">
      <g>
       <use xlink:href="#mf3d8dfe569" x="723.215625" y="73.785367" style="stroke: #000000; stroke-width: 0.5"/>
      </g>
     </g>
    </g>
    <g id="ytick_41">
     <g id="line2d_163">
      <g>
       <use xlink:href="#mcf98ddf73b" x="53.615625" y="63.672449" style="stroke: #000000; stroke-width: 0.5"/>
      </g>
     </g>
     <g id="line2d_164">
      <g>
       <use xlink:href="#mf3d8dfe569" x="723.215625" y="63.672449" style="stroke: #000000; stroke-width: 0.5"/>
      </g>
     </g>
    </g>
    <g id="ytick_42">
     <g id="line2d_165">
      <g>
       <use xlink:href="#mcf98ddf73b" x="53.615625" y="53.559532" style="stroke: #000000; stroke-width: 0.5"/>
      </g>
     </g>
     <g id="line2d_166">
      <g>
       <use xlink:href="#mf3d8dfe569" x="723.215625" y="53.559532" style="stroke: #000000; stroke-width: 0.5"/>
      </g>
     </g>
    </g>
    <g id="ytick_43">
     <g id="line2d_167">
      <g>
       <use xlink:href="#mcf98ddf73b" x="53.615625" y="33.333696" style="stroke: #000000; stroke-width: 0.5"/>
      </g>
     </g>
     <g id="line2d_168">
      <g>
       <use xlink:href="#mf3d8dfe569" x="723.215625" y="33.333696" style="stroke: #000000; stroke-width: 0.5"/>
      </g>
     </g>
    </g>
    <g id="ytick_44">
     <g id="line2d_169">
      <g>
       <use xlink:href="#mcf98ddf73b" x="53.615625" y="23.220779" style="stroke: #000000; stroke-width: 0.5"/>
      </g>
     </g>
     <g id="line2d_170">
      <g>
       <use xlink:href="#mf3d8dfe569" x="723.215625" y="23.220779" style="stroke: #000000; stroke-width: 0.5"/>
      </g>
     </g>
    </g>
    <g id="text_15">
     <!-- 申请量 -->
     <g transform="translate(10.757813 259.8125)rotate(-90)scale(0.1 -0.1)">
      <defs>
       <path id="ArialUnicodeMS-91cf" d="M 5056 3378 
L 1313 3378 
L 1313 5050 
L 5056 5050 
L 5056 3378 
z
M 4569 4403 
L 4569 4609 
L 1797 4609 
L 1797 4403 
L 4569 4403 
z
M 4569 3794 
L 4569 4031 
L 1797 4031 
L 1797 3794 
L 4569 3794 
z
M 5797 2816 
L 581 2816 
L 581 3231 
L 5797 3231 
L 5797 2816 
z
M 6059 -191 
L 341 -191 
L 341 275 
L 2950 275 
L 2950 459 
L 897 459 
L 897 878 
L 2950 878 
L 2950 1044 
L 1125 1044 
L 1125 2669 
L 5269 2669 
L 5269 1044 
L 3438 1044 
L 3438 878 
L 5509 878 
L 5509 459 
L 3438 459 
L 3438 275 
L 6059 275 
L 6059 -191 
z
M 4781 2053 
L 4781 2253 
L 3438 2253 
L 3438 2053 
L 4781 2053 
z
M 2950 2053 
L 2950 2253 
L 1613 2253 
L 1613 2053 
L 2950 2053 
z
M 4781 1459 
L 4781 1697 
L 3438 1697 
L 3438 1459 
L 4781 1459 
z
M 2950 1459 
L 2950 1697 
L 1613 1697 
L 1613 1459 
L 2950 1459 
z
" transform="scale(0.015625)"/>
      </defs>
      <use xlink:href="#ArialUnicodeMS-7533"/>
      <use xlink:href="#ArialUnicodeMS-8bf7" x="100"/>
      <use xlink:href="#ArialUnicodeMS-91cf" x="200"/>
     </g>
    </g>
   </g>
   <g id="line2d_171">
    <path d="M 84.051989 438.606339 
L 116.090266 435.911246 
L 148.128544 432.407626 
L 180.166821 428.646632 
L 212.205099 424.309707 
L 244.243376 419.118241 
L 276.281654 412.414894 
L 308.319931 408.880429 
L 340.358209 406.344615 
L 372.396486 400.233885 
L 404.434764 398.108655 
L 436.473041 394.416934 
L 468.511319 351.78947 
L 500.549596 346.630365 
L 532.587874 391.769878 
L 564.626151 308.679114 
L 596.664429 212.602858 
L 628.702706 120.56115 
L 660.740984 63.596602 
L 692.779261 43.2125 
" clip-path="url(#p7cfc4f5edb)" style="fill: none; stroke: #0c5da5; stroke-width: 2; stroke-linecap: square"/>
   </g>
   <g id="line2d_172">
    <path d="M 84.051989 444.466775 
L 116.090266 443.782636 
L 148.128544 442.488182 
L 180.166821 440.788707 
L 212.205099 439.127154 
L 244.243376 436.340034 
L 276.281654 429.913781 
L 308.319931 420.278193 
L 340.358209 406.297084 
L 372.396486 395.268442 
L 404.434764 380.517741 
L 436.473041 348.093199 
L 468.511319 269.983046 
L 500.549596 300.224209 
L 532.587874 376.406334 
L 564.626151 301.539394 
L 596.664429 248.656926 
L 628.702706 204.945356 
L 660.740984 175.827233 
L 692.779261 139.880362 
" clip-path="url(#p7cfc4f5edb)" style="fill: none; stroke: #00b945; stroke-width: 2; stroke-linecap: square"/>
   </g>
   <g id="line2d_173">
    <path d="M 84.051989 443.738139 
L 116.090266 442.593862 
L 148.128544 440.398348 
L 180.166821 438.653364 
L 212.205099 436.422454 
L 244.243376 429.749951 
L 276.281654 424.79715 
L 308.319931 418.224259 
L 340.358209 414.128528 
L 372.396486 408.905206 
L 404.434764 410.718958 
L 436.473041 403.306189 
L 468.511319 345.946732 
L 500.549596 338.919771 
L 532.587874 398.011065 
L 564.626151 332.84393 
L 596.664429 283.907522 
L 628.702706 252.718273 
L 660.740984 227.931007 
L 692.779261 222.76634 
" clip-path="url(#p7cfc4f5edb)" style="fill: none; stroke: #ff9500; stroke-width: 2; stroke-linecap: square"/>
   </g>
   <g id="line2d_174">
    <path d="M 84.051989 444.159342 
L 116.090266 443.753814 
L 148.128544 442.709655 
L 180.166821 441.814662 
L 212.205099 441.096139 
L 244.243376 438.283737 
L 276.281654 435.602802 
L 308.319931 433.682865 
L 340.358209 431.192053 
L 372.396486 430.502352 
L 404.434764 431.591514 
L 436.473041 433.428525 
L 468.511319 403.547382 
L 500.549596 399.081012 
L 532.587874 418.770357 
L 564.626151 383.22598 
L 596.664429 359.898007 
L 628.702706 348.706041 
L 660.740984 337.624812 
L 692.779261 312.901257 
" clip-path="url(#p7cfc4f5edb)" style="fill: none; stroke: #ff2c00; stroke-width: 2; stroke-linecap: square"/>
   </g>
   <g id="line2d_175">
    <path d="M 84.051989 443.717913 
L 116.090266 442.873485 
L 148.128544 441.74286 
L 180.166821 441.109286 
L 212.205099 440.099006 
L 244.243376 438.251376 
L 276.281654 436.784497 
L 308.319931 434.524765 
L 340.358209 430.105926 
L 372.396486 428.916647 
L 404.434764 427.593372 
L 436.473041 424.689447 
L 468.511319 407.67143 
L 500.549596 400.770375 
L 532.587874 413.618331 
L 564.626151 380.459086 
L 596.664429 347.176968 
L 628.702706 335.557226 
L 660.740984 324.528584 
L 692.779261 319.148006 
" clip-path="url(#p7cfc4f5edb)" style="fill: none; stroke: #845b97; stroke-width: 2; stroke-linecap: square"/>
   </g>
   <g id="line2d_176">
    <path d="M 84.051989 443.41402 
L 116.090266 443.163725 
L 148.128544 438.300423 
L 180.166821 440.037822 
L 212.205099 438.533526 
L 244.243376 435.833883 
L 276.281654 432.005132 
L 308.319931 430.775401 
L 340.358209 429.260992 
L 372.396486 425.58798 
L 404.434764 426.769675 
L 436.473041 427.292007 
L 468.511319 414.257973 
L 500.549596 416.352864 
L 532.587874 427.693995 
L 564.626151 407.037856 
L 596.664429 386.948545 
L 628.702706 374.384762 
L 660.740984 368.638602 
L 692.779261 352.620752 
" clip-path="url(#p7cfc4f5edb)" style="fill: none; stroke: #474747; stroke-width: 2; stroke-linecap: square"/>
   </g>
   <g id="line2d_177">
    <path d="M 84.051989 446.4125 
L 116.090266 446.041862 
L 148.128544 445.877021 
L 180.166821 445.742519 
L 212.205099 445.746564 
L 244.243376 445.429019 
L 276.281654 445.157487 
L 308.319931 445.139284 
L 340.358209 444.726677 
L 372.396486 444.077933 
L 404.434764 444.514811 
L 436.473041 444.744374 
L 468.511319 438.77573 
L 500.549596 437.174855 
L 532.587874 442.133725 
L 564.626151 433.196939 
L 596.664429 423.483482 
L 628.702706 416.559673 
L 660.740984 408.037012 
L 692.779261 396.994211 
" clip-path="url(#p7cfc4f5edb)" style="fill: none; stroke: #9e9e9e; stroke-width: 2; stroke-linecap: square"/>
   </g>
   <g id="patch_3">
    <path d="M 53.615625 466.5725 
L 53.615625 23.0525 
" style="fill: none; stroke: #000000; stroke-width: 0.5; stroke-linejoin: miter; stroke-linecap: square"/>
   </g>
   <g id="patch_4">
    <path d="M 723.215625 466.5725 
L 723.215625 23.0525 
" style="fill: none; stroke: #000000; stroke-width: 0.5; stroke-linejoin: miter; stroke-linecap: square"/>
   </g>
   <g id="patch_5">
    <path d="M 53.615625 466.5725 
L 723.215625 466.5725 
" style="fill: none; stroke: #000000; stroke-width: 0.5; stroke-linejoin: miter; stroke-linecap: square"/>
   </g>
   <g id="patch_6">
    <path d="M 53.615625 23.0525 
L 723.215625 23.0525 
" style="fill: none; stroke: #000000; stroke-width: 0.5; stroke-linejoin: miter; stroke-linecap: square"/>
   </g>
   <g id="text_16">
    <!-- 七省市专利申请量(2000年-2019年) -->
    <g transform="translate(264.834375 17.0525)scale(0.16 -0.16)">
     <defs>
      <path id="ArialUnicodeMS-4e03" d="M 5734 3138 
L 2834 2597 
L 2834 678 
Q 2834 416 3084 416 
L 4684 416 
Q 4981 416 5063 984 
L 5113 1350 
L 5588 1184 
Q 5434 -72 4831 -72 
L 2994 -72 
Q 2328 -9 2328 563 
L 2328 2497 
L 563 2169 
L 481 2656 
L 2328 2994 
L 2328 5269 
L 2834 5269 
L 2834 3097 
L 5650 3622 
L 5734 3138 
z
" transform="scale(0.015625)"/>
      <path id="ArialUnicodeMS-7701" d="M 3425 3944 
Q 3425 3547 2938 3553 
L 2419 3559 
L 2284 4031 
L 2816 3994 
Q 2938 3984 2938 4141 
L 2938 5306 
L 3425 5306 
L 3425 3944 
z
M 2553 4672 
Q 1872 3856 934 3406 
L 538 3781 
Q 1513 4206 2209 4997 
L 2553 4672 
z
M 6009 3750 
L 5600 3413 
Q 4834 4344 3938 4653 
L 4306 4984 
Q 5184 4691 6009 3750 
z
M 5159 -403 
L 4678 -409 
L 4678 -72 
L 2216 -72 
L 2216 -441 
L 1734 -447 
L 1734 2497 
Q 1094 2388 575 2350 
L 341 2828 
Q 3109 2956 4359 4269 
L 4716 3950 
Q 4003 3209 3213 2919 
L 3213 2906 
L 5159 2906 
L 5159 -403 
z
M 4678 2028 
L 4672 2438 
L 2216 2438 
L 2216 2028 
L 4678 2028 
z
M 4678 1216 
L 4678 1600 
L 2222 1600 
L 2216 1216 
L 4678 1216 
z
M 4678 397 
L 4672 788 
L 2216 788 
L 2222 397 
L 4678 397 
z
" transform="scale(0.015625)"/>
      <path id="ArialUnicodeMS-5e02" d="M 5941 4013 
L 3431 4013 
L 3431 3156 
L 5228 3156 
L 5228 884 
Q 5228 325 4716 325 
L 4141 325 
L 3975 819 
L 4544 794 
Q 4744 784 4744 953 
L 4744 2688 
L 3438 2688 
L 3438 -434 
L 2950 -434 
L 2950 2688 
L 1697 2688 
L 1697 225 
L 1203 225 
L 1203 3156 
L 2950 3156 
L 2950 4013 
L 459 4013 
L 459 4481 
L 2944 4481 
L 2944 5288 
L 3431 5288 
L 3431 4481 
L 5941 4481 
L 5941 4013 
z
" transform="scale(0.015625)"/>
      <path id="ArialUnicodeMS-4e13" d="M 5894 2950 
L 2753 2950 
Q 2481 2363 2406 2253 
L 5044 2253 
L 5044 1825 
L 3872 616 
Q 4313 353 4744 -50 
L 4428 -434 
L 3925 -22 
Q 3659 194 3336 372 
Q 3013 550 2663 692 
Q 2313 834 1863 984 
L 2175 1363 
Q 3047 1056 3419 863 
L 4306 1784 
L 1791 1784 
L 1791 2222 
Q 2091 2581 2234 2950 
L 469 2950 
L 469 3419 
L 2425 3419 
Q 2569 3853 2606 4038 
L 825 4038 
L 825 4506 
L 2681 4506 
Q 2741 4831 2778 5300 
L 3250 5172 
Q 3244 4863 3175 4506 
L 5281 4506 
L 5281 4038 
L 3091 4038 
Q 3000 3619 2944 3419 
L 5894 3419 
L 5894 2950 
z
" transform="scale(0.015625)"/>
      <path id="ArialUnicodeMS-5229" d="M 5888 153 
Q 5888 3 5755 -178 
Q 5622 -359 5309 -359 
L 4513 -353 
L 4359 172 
L 5228 134 
Q 5381 172 5381 288 
L 5381 5288 
L 5888 5288 
L 5888 153 
z
M 3950 1259 
L 3525 909 
Q 3119 1706 2559 2169 
L 2559 -428 
L 2075 -428 
L 2075 2144 
Q 1766 1428 794 525 
L 366 831 
Q 1484 1806 2003 3097 
L 622 3097 
L 622 3566 
L 2053 3566 
L 2053 4397 
Q 1469 4281 813 4281 
L 563 4763 
Q 2453 4819 3641 5209 
L 3928 4800 
Q 3109 4544 2541 4453 
L 2541 3566 
L 3891 3566 
L 3891 3097 
L 2541 3097 
L 2541 2547 
L 2706 2669 
Q 3581 1938 3950 1259 
z
M 4647 794 
L 4159 794 
L 4159 4531 
L 4647 4531 
L 4647 794 
z
" transform="scale(0.015625)"/>
      <path id="ArialUnicodeMS-2d" d="M 1925 1375 
L 206 1375 
L 206 1941 
L 1925 1941 
L 1925 1375 
z
" transform="scale(0.015625)"/>
      <path id="ArialUnicodeMS-39" d="M 2713 2156 
Q 2547 1888 2258 1722 
Q 1969 1556 1631 1556 
Q 1066 1556 670 1970 
Q 275 2384 275 3053 
Q 275 3734 678 4168 
Q 1081 4603 1716 4603 
Q 2353 4603 2818 4106 
Q 3284 3609 3284 2388 
Q 3284 1147 2859 534 
Q 2434 -78 1644 -78 
Q 1128 -78 781 205 
Q 434 488 359 1063 
L 897 1106 
Q 1025 384 1656 384 
Q 2175 384 2450 857 
Q 2725 1331 2725 2156 
L 2713 2156 
z
M 1766 2047 
Q 2178 2047 2420 2339 
Q 2663 2631 2663 3078 
Q 2663 3531 2414 3836 
Q 2166 4141 1778 4141 
Q 1388 4141 1119 3817 
Q 850 3494 850 3034 
Q 850 2600 1114 2323 
Q 1378 2047 1766 2047 
z
" transform="scale(0.015625)"/>
     </defs>
     <use xlink:href="#ArialUnicodeMS-4e03"/>
     <use xlink:href="#ArialUnicodeMS-7701" x="100"/>
     <use xlink:href="#ArialUnicodeMS-5e02" x="200"/>
     <use xlink:href="#ArialUnicodeMS-4e13" x="300"/>
     <use xlink:href="#ArialUnicodeMS-5229" x="400"/>
     <use xlink:href="#ArialUnicodeMS-7533" x="500"/>
     <use xlink:href="#ArialUnicodeMS-8bf7" x="600"/>
     <use xlink:href="#ArialUnicodeMS-91cf" x="700"/>
     <use xlink:href="#ArialUnicodeMS-28" x="800"/>
     <use xlink:href="#ArialUnicodeMS-32" x="833.300781"/>
     <use xlink:href="#ArialUnicodeMS-30" x="888.916016"/>
     <use xlink:href="#ArialUnicodeMS-30" x="944.53125"/>
     <use xlink:href="#ArialUnicodeMS-30" x="1000.146484"/>
     <use xlink:href="#ArialUnicodeMS-5e74" x="1055.761719"/>
     <use xlink:href="#ArialUnicodeMS-2d" x="1155.761719"/>
     <use xlink:href="#ArialUnicodeMS-32" x="1189.0625"/>
     <use xlink:href="#ArialUnicodeMS-30" x="1244.677734"/>
     <use xlink:href="#ArialUnicodeMS-31" x="1300.292969"/>
     <use xlink:href="#ArialUnicodeMS-39" x="1355.908203"/>
     <use xlink:href="#ArialUnicodeMS-5e74" x="1411.523438"/>
     <use xlink:href="#ArialUnicodeMS-29" x="1511.523438"/>
    </g>
   </g>
   <g id="legend_1">
    <g id="line2d_178">
     <path d="M 666.215625 35.710312 
L 676.215625 35.710312 
L 686.215625 35.710312 
" style="fill: none; stroke: #0c5da5; stroke-width: 2; stroke-linecap: square"/>
    </g>
    <g id="text_17">
     <!-- 广东 -->
     <g transform="translate(694.215625 39.210312)scale(0.1 -0.1)">
      <defs>
       <path id="ArialUnicodeMS-5e7f" d="M 5813 3872 
L 1691 3872 
L 1691 2988 
Q 1691 1959 1633 1448 
Q 1575 938 1378 484 
Q 1181 31 678 -391 
L 313 -56 
Q 1222 534 1222 2222 
L 1222 4341 
L 3256 4341 
L 3256 5269 
L 3731 5269 
L 3731 4341 
L 5813 4341 
L 5813 3872 
z
" transform="scale(0.015625)"/>
       <path id="ArialUnicodeMS-4e1c" d="M 5819 4044 
L 2644 4044 
L 1844 2706 
L 2988 2706 
L 2988 3559 
L 3475 3559 
L 3475 2706 
L 5472 2706 
L 5472 2241 
L 3475 2241 
L 3475 50 
Q 3459 -103 3293 -281 
Q 3128 -459 2463 -422 
L 2278 56 
L 2906 25 
Q 2988 25 2988 97 
L 2988 2241 
L 1209 2241 
L 1209 2669 
L 2053 4044 
L 359 4044 
L 359 4513 
L 2309 4513 
L 2681 5247 
L 3122 5075 
L 2834 4513 
L 5819 4513 
L 5819 4044 
z
M 2553 1697 
Q 1959 750 709 31 
L 331 447 
Q 1400 981 2216 2003 
L 2553 1697 
z
M 5831 422 
L 5434 44 
Q 4728 941 3725 1600 
L 4006 1931 
Q 4891 1450 5831 422 
z
" transform="scale(0.015625)"/>
      </defs>
      <use xlink:href="#ArialUnicodeMS-5e7f"/>
      <use xlink:href="#ArialUnicodeMS-4e1c" x="100"/>
     </g>
    </g>
    <g id="line2d_179">
     <path d="M 666.215625 49.860312 
L 676.215625 49.860312 
L 686.215625 49.860312 
" style="fill: none; stroke: #00b945; stroke-width: 2; stroke-linecap: square"/>
    </g>
    <g id="text_18">
     <!-- 江苏 -->
     <g transform="translate(694.215625 53.360312)scale(0.1 -0.1)">
      <defs>
       <path id="ArialUnicodeMS-6c5f" d="M 2291 4244 
L 1925 3903 
Q 1506 4478 897 4744 
L 1228 5094 
Q 1909 4750 2291 4244 
z
M 6016 191 
L 2081 191 
L 2081 653 
L 3769 653 
L 3769 4063 
L 2316 4063 
L 2316 4525 
L 5741 4525 
L 5741 4063 
L 4256 4063 
L 4256 653 
L 6016 653 
L 6016 191 
z
M 1875 2700 
L 1509 2381 
Q 991 3053 416 3225 
L 769 3584 
Q 1453 3294 1875 2700 
z
M 2247 1888 
Q 1847 563 928 -325 
L 506 -19 
Q 1422 734 1819 2125 
L 2247 1888 
z
" transform="scale(0.015625)"/>
       <path id="ArialUnicodeMS-82cf" d="M 5856 4197 
L 4213 4197 
L 4213 3669 
L 3725 3669 
L 3725 4197 
L 2503 4197 
L 2503 3669 
L 2016 3669 
L 2016 4197 
L 403 4197 
L 403 4666 
L 2016 4666 
L 2016 5259 
L 2503 5259 
L 2503 4666 
L 3725 4666 
L 3725 5259 
L 4213 5259 
L 4213 4666 
L 5856 4666 
L 5856 4197 
z
M 4628 3072 
Q 4628 2275 4545 1420 
Q 4463 566 4381 209 
Q 4300 -147 4136 -275 
Q 3972 -403 3750 -403 
Q 3531 -403 3084 -347 
L 2950 219 
Q 3591 38 3678 38 
Q 3769 38 3820 111 
Q 3872 184 3983 1003 
Q 4094 1822 4147 2606 
L 3003 2606 
Q 2822 1453 2265 734 
Q 1709 16 691 -434 
L 391 -13 
Q 1413 438 1867 991 
Q 2322 1544 2522 2606 
L 884 2606 
L 884 3072 
L 2559 3072 
L 2578 3597 
L 3047 3500 
L 3047 3072 
L 4628 3072 
z
M 1869 2150 
Q 1659 1356 1019 763 
L 603 1056 
Q 1206 1575 1459 2375 
L 1869 2150 
z
M 5991 1019 
Q 5938 981 5803 876 
Q 5669 772 5575 716 
Q 5294 1428 4697 2003 
L 5075 2272 
Q 5644 1756 5991 1019 
z
" transform="scale(0.015625)"/>
      </defs>
      <use xlink:href="#ArialUnicodeMS-6c5f"/>
      <use xlink:href="#ArialUnicodeMS-82cf" x="100"/>
     </g>
    </g>
    <g id="line2d_180">
     <path d="M 666.215625 64.010312 
L 676.215625 64.010312 
L 686.215625 64.010312 
" style="fill: none; stroke: #ff9500; stroke-width: 2; stroke-linecap: square"/>
    </g>
    <g id="text_19">
     <!-- 浙江 -->
     <g transform="translate(694.215625 67.510312)scale(0.1 -0.1)">
      <defs>
       <path id="ArialUnicodeMS-6d59" d="M 3669 2322 
Q 3303 2131 2963 1966 
L 2963 378 
Q 2963 -306 2369 -306 
L 1953 -306 
L 1784 184 
L 2253 159 
Q 2478 159 2478 294 
L 2478 1741 
Q 2231 1609 1959 1484 
L 1656 1753 
Q 1469 678 838 -213 
L 366 -13 
Q 1128 875 1300 2413 
L 1722 2209 
Q 1713 2053 1684 1894 
L 2478 2241 
L 2478 3628 
L 1663 3628 
L 1663 4097 
L 2478 4097 
L 2478 5344 
L 2963 5344 
L 2963 4097 
L 3597 4097 
L 3597 3628 
L 2963 3628 
L 2963 2463 
L 3669 2822 
L 3669 2322 
z
M 6106 3041 
L 5369 3041 
L 5369 -416 
L 4884 -416 
L 4884 3041 
L 4269 3041 
L 4269 1703 
Q 4269 575 3359 -397 
L 2944 -91 
Q 3488 553 3625 979 
Q 3763 1406 3763 1819 
L 3763 4844 
Q 4694 4872 5678 5331 
L 6009 4991 
Q 5116 4488 4269 4409 
L 4269 3506 
L 6106 3506 
L 6106 3041 
z
M 1747 4341 
L 1394 4019 
Q 1103 4581 422 4997 
L 794 5325 
Q 1319 5053 1747 4341 
z
M 1575 2975 
L 1191 2650 
Q 841 3350 263 3653 
L 616 3975 
Q 1209 3647 1575 2975 
z
" transform="scale(0.015625)"/>
      </defs>
      <use xlink:href="#ArialUnicodeMS-6d59"/>
      <use xlink:href="#ArialUnicodeMS-6c5f" x="100"/>
     </g>
    </g>
    <g id="line2d_181">
     <path d="M 666.215625 78.160312 
L 676.215625 78.160312 
L 686.215625 78.160312 
" style="fill: none; stroke: #ff2c00; stroke-width: 2; stroke-linecap: square"/>
    </g>
    <g id="text_20">
     <!-- 山东 -->
     <g transform="translate(694.215625 81.660312)scale(0.1 -0.1)">
      <defs>
       <path id="ArialUnicodeMS-5c71" d="M 5522 -275 
L 5038 -275 
L 5038 319 
L 1369 319 
L 1369 -306 
L 878 -306 
L 878 3841 
L 1363 3841 
L 1363 788 
L 2969 788 
L 2969 4934 
L 3456 4934 
L 3456 788 
L 5031 788 
L 5031 3841 
L 5522 3841 
L 5522 -275 
z
" transform="scale(0.015625)"/>
      </defs>
      <use xlink:href="#ArialUnicodeMS-5c71"/>
      <use xlink:href="#ArialUnicodeMS-4e1c" x="100"/>
     </g>
    </g>
    <g id="line2d_182">
     <path d="M 666.215625 92.310313 
L 676.215625 92.310313 
L 686.215625 92.310313 
" style="fill: none; stroke: #845b97; stroke-width: 2; stroke-linecap: square"/>
    </g>
    <g id="text_21">
     <!-- 北京 -->
     <g transform="translate(694.215625 95.810313)scale(0.1 -0.1)">
      <defs>
       <path id="ArialUnicodeMS-5317" d="M 6069 1153 
Q 5959 400 5793 120 
Q 5628 -159 5234 -159 
L 4238 -159 
Q 3628 -159 3628 469 
L 3628 5069 
L 4116 5069 
L 4116 3028 
Q 4922 3256 5484 3803 
L 5844 3450 
Q 5275 2847 4116 2528 
L 4116 538 
Q 4116 325 4378 325 
L 5147 325 
Q 5322 325 5414 475 
Q 5506 625 5563 1403 
L 6069 1153 
z
M 2656 -319 
L 2169 -319 
L 2169 403 
L 519 31 
L 288 519 
L 2169 909 
L 2169 2841 
L 581 2841 
L 581 3328 
L 2169 3328 
L 2169 5056 
L 2656 5056 
L 2656 -319 
z
" transform="scale(0.015625)"/>
       <path id="ArialUnicodeMS-4eac" d="M 5947 4153 
L 475 4153 
L 475 4641 
L 2938 4641 
L 2938 5281 
L 3444 5281 
L 3444 4641 
L 5947 4641 
L 5947 4153 
z
M 5006 1741 
L 3475 1741 
L 3475 109 
Q 3475 -122 3342 -265 
Q 3209 -409 2988 -409 
L 2316 -409 
L 2144 116 
Q 2672 78 2706 78 
Q 2988 78 2988 250 
L 2988 1741 
L 1416 1741 
L 1416 3641 
L 5006 3641 
L 5006 1741 
z
M 4519 2209 
L 4519 3175 
L 1900 3175 
L 1900 2209 
L 4519 2209 
z
M 6081 391 
L 5747 25 
Q 4806 944 3916 1147 
L 4231 1538 
Q 5175 1256 6081 391 
z
M 2509 1216 
Q 1788 400 634 -6 
L 341 428 
Q 1541 763 2188 1538 
L 2509 1216 
z
" transform="scale(0.015625)"/>
      </defs>
      <use xlink:href="#ArialUnicodeMS-5317"/>
      <use xlink:href="#ArialUnicodeMS-4eac" x="100"/>
     </g>
    </g>
    <g id="line2d_183">
     <path d="M 666.215625 106.460312 
L 676.215625 106.460312 
L 686.215625 106.460312 
" style="fill: none; stroke: #474747; stroke-width: 2; stroke-linecap: square"/>
    </g>
    <g id="text_22">
     <!-- 上海 -->
     <g transform="translate(694.215625 109.960312)scale(0.1 -0.1)">
      <defs>
       <path id="ArialUnicodeMS-4e0a" d="M 5931 63 
L 588 63 
L 588 531 
L 2688 531 
L 2688 5209 
L 3175 5209 
L 3175 3353 
L 5369 3353 
L 5369 2888 
L 3175 2888 
L 3175 531 
L 5931 531 
L 5931 63 
z
" transform="scale(0.015625)"/>
       <path id="ArialUnicodeMS-6d77" d="M 6119 1947 
L 5528 1947 
L 5441 922 
L 5894 922 
L 5894 453 
L 5381 453 
Q 5291 -397 4569 -397 
Q 4247 -397 3956 -366 
L 3847 141 
Q 4231 63 4538 63 
Q 4681 63 4757 133 
Q 4834 203 4863 453 
L 2503 453 
L 2450 178 
L 1953 231 
L 2234 1947 
L 1759 1947 
L 1759 2413 
L 2278 2413 
L 2444 3628 
Q 2234 3334 2016 3144 
L 1563 3397 
Q 2622 4353 2784 5394 
L 3291 5216 
Q 3234 4988 3128 4775 
L 6003 4775 
L 6003 4306 
L 2913 4306 
Q 2825 4134 2606 3828 
L 5663 3828 
L 5575 2413 
L 6119 2413 
L 6119 1947 
z
M 5131 3359 
L 4281 3359 
L 4153 2413 
L 5050 2413 
Q 5103 2753 5131 3359 
z
M 3809 3359 
L 2925 3359 
L 2791 2413 
L 3681 2413 
L 3809 3359 
z
M 3622 1947 
L 2713 1947 
L 2559 922 
L 3488 922 
L 3622 1947 
z
M 5025 1947 
L 4097 1947 
L 3963 922 
L 4934 922 
Q 4959 1125 5025 1947 
z
M 2053 4263 
L 1691 3950 
Q 1322 4569 628 4788 
L 984 5131 
Q 1628 4881 2053 4263 
z
M 1709 2875 
L 1331 2559 
Q 928 3253 269 3475 
L 647 3803 
Q 1241 3563 1709 2875 
z
M 1697 2016 
Q 1444 634 806 -225 
L 403 134 
Q 1034 925 1228 2181 
L 1697 2016 
z
" transform="scale(0.015625)"/>
      </defs>
      <use xlink:href="#ArialUnicodeMS-4e0a"/>
      <use xlink:href="#ArialUnicodeMS-6d77" x="100"/>
     </g>
    </g>
    <g id="line2d_184">
     <path d="M 666.215625 120.610312 
L 676.215625 120.610312 
L 686.215625 120.610312 
" style="fill: none; stroke: #9e9e9e; stroke-width: 2; stroke-linecap: square"/>
    </g>
    <g id="text_23">
     <!-- 河北 -->
     <g transform="translate(694.215625 124.110312)scale(0.1 -0.1)">
      <defs>
       <path id="ArialUnicodeMS-6cb3" d="M 2209 4159 
L 1819 3859 
Q 1422 4481 750 4756 
L 1106 5094 
Q 1791 4738 2209 4159 
z
M 6094 4513 
L 5434 4513 
L 5434 122 
Q 5434 -428 4909 -428 
L 4128 -428 
L 3928 91 
Q 4234 53 4769 53 
Q 4947 53 4947 244 
L 4947 4513 
L 2138 4513 
L 2138 4978 
L 6094 4978 
L 6094 4513 
z
M 1813 2816 
L 1447 2478 
Q 966 3188 313 3419 
L 659 3769 
Q 1300 3519 1813 2816 
z
M 4359 653 
L 3872 653 
L 3872 1141 
L 2944 1141 
L 2944 653 
L 2456 653 
L 2456 3681 
L 4359 3681 
L 4359 653 
z
M 3872 1606 
L 3872 3213 
L 2944 3213 
L 2944 1606 
L 3872 1606 
z
M 2022 1997 
Q 1688 644 794 -269 
L 353 13 
Q 1253 819 1600 2241 
L 2022 1997 
z
" transform="scale(0.015625)"/>
      </defs>
      <use xlink:href="#ArialUnicodeMS-6cb3"/>
      <use xlink:href="#ArialUnicodeMS-5317" x="100"/>
     </g>
    </g>
   </g>
  </g>
 </g>
 <defs>
  <clipPath id="p7cfc4f5edb">
   <rect x="53.615625" y="23.0525" width="669.6" height="443.52"/>
  </clipPath>
 </defs>
</svg>
